<?xml version="1.0" encoding="UTF-8"?>
<svg xmlns="http://www.w3.org/2000/svg" xmlns:xlink="http://www.w3.org/1999/xlink" width="380pt" height="200pt" viewBox="0 0 1900 1000" version="1.1">
<g id="surface1">
<rect x="0" y="0" width="1900" height="1000" style="fill:rgb(91.764706%,1.568627%,21.568627%);fill-opacity:1;stroke:none;"/>
<path style=" stroke:none;fill-rule:nonzero;fill:rgb(25.490196%,53.72549%,86.666667%);fill-opacity:1;" d="M 0 1000 L 1900 1000 L 1900 500 "/>
<path style=" stroke:none;fill-rule:nonzero;fill:rgb(7.058824%,67.843137%,16.862745%);fill-opacity:1;" d="M 0 0 L 1900 0 L 1900 500 "/>
<path style=" stroke:none;fill-rule:nonzero;fill:rgb(100%,78.039216%,14.901961%);fill-opacity:1;" d="M 437.472656 738.324219 C 416.933594 744.292969 405.160156 761.066406 405.460938 776.890625 L 506.5625 776.464844 C 507.46875 759.460938 494.179688 743.730469 473.945312 737.539062 C 572.929688 735.386719 658.921875 696.355469 674.546875 671.3125 C 659.085938 664.25 641.207031 675.617188 628.460938 673.003906 C 658.722656 658.28125 749.386719 596.507812 734.648438 530.28125 C 723.1875 567.066406 688.476562 597.5 673.695312 605.671875 C 707.5625 551.535156 753.8125 495.175781 713.6875 451.53125 C 715.710938 476.828125 698.417969 504.664062 690.777344 506.757812 C 710.425781 449.558594 729.167969 377.742188 686.601562 330.402344 C 692.191406 347.511719 689.933594 395.78125 682.238281 397.953125 C 679.867188 359.058594 673.5625 277.246094 634.648438 278.410156 C 647.007812 289.992188 652.417969 321.601562 652.691406 353.53125 C 643.824219 331.65625 633.746094 315.1875 612.1875 299.039062 C 594.75 263.835938 563.722656 234.664062 532.691406 213.769531 C 536.171875 239.394531 539.058594 259.609375 573.046875 286.1875 C 555.324219 285.027344 537.609375 249.664062 518.667969 248.683594 C 503.605469 247.917969 491.78125 263.054688 467.164062 254.34375 C 469.890625 262.898438 481.375 266.6875 483.800781 273.015625 C 478.527344 276.847656 466.007812 272.417969 455.601562 266.710938 C 469.917969 287.238281 492.097656 299.308594 510.929688 295.234375 C 533.324219 290.699219 557.335938 293.097656 580.238281 306.816406 C 574.386719 309.976562 551.621094 309.957031 537.011719 308.03125 C 550.292969 322.183594 559.199219 331.5625 582.289062 331.410156 C 602.914062 331.265625 613.726562 319.828125 619.023438 326.914062 C 631.957031 343.046875 640.664062 359.175781 651.484375 378.171875 C 627.582031 380.949219 634.789062 349.714844 608.167969 333.738281 C 593.210938 366.324219 625.371094 404.953125 647.261719 421.011719 C 647.558594 445.507812 650.960938 466 660.828125 484.648438 C 667.480469 497.796875 676.082031 511.253906 672.839844 540.929688 C 659.734375 530.878906 646.925781 496.996094 651.640625 470.097656 C 635.238281 474.804688 628.824219 505.167969 636.554688 520.449219 C 642.332031 532.085938 646.183594 554.351562 639.523438 564.304688 C 633.03125 573.582031 632.351562 572.542969 632.4375 592.445312 C 632.667969 604.355469 626.347656 618.441406 616.054688 628.261719 C 618.203125 619.867188 620.65625 605.429688 618.273438 596.40625 C 610.136719 610.9375 589.71875 625.972656 583.292969 641.59375 C 576.976562 657.253906 575.378906 684.375 544.824219 690.628906 C 505.519531 698.84375 491.957031 706.011719 466.664062 716.90625 C 463.859375 696.6875 472.257812 654.519531 488.320312 656.925781 C 504.003906 659.863281 551.554688 639.679688 534.546875 597.511719 C 531.1875 610.800781 519.980469 623.769531 507.863281 624.34375 C 520.953125 606.46875 544.316406 587.957031 532.9375 558.003906 C 526.613281 570.734375 516.667969 586.015625 501.582031 594.613281 C 517.753906 561.996094 503.460938 552.238281 484.257812 579.101562 C 477.007812 589.46875 472.625 610.238281 468.019531 636.613281 C 460.476562 615.160156 460.976562 586.917969 452.035156 563.988281 C 442.699219 539.191406 464.425781 532.644531 474.652344 534.632812 C 499.6875 541.667969 541.527344 541.664062 538.417969 498.125 C 527.605469 512.851562 508.644531 517.402344 488.167969 512.101562 C 511.164062 494.421875 529.324219 461.171875 503.695312 443.8125 C 502.84375 462.222656 489.308594 482.863281 471.238281 492.367188 C 467.007812 476.835938 467.007812 460.351562 470.636719 442.277344 C 460.546875 453.457031 453.175781 476.71875 447.316406 503.160156 C 446.875 477.023438 451.574219 458.191406 455.054688 444.128906 C 460.335938 423.59375 473.460938 436.957031 493.550781 438.46875 C 512.902344 439.625 539.539062 428.371094 534.449219 400.75 C 527.84375 411.675781 514.28125 415.929688 500.425781 414.773438 C 517.105469 404.136719 546.171875 385.234375 530.230469 356.160156 C 523.535156 367.171875 521.367188 376.589844 501.988281 379.96875 C 507.0625 367.679688 507.90625 350.304688 522.949219 343.417969 C 496.117188 337.792969 480.753906 356.332031 472.945312 385.359375 C 469.777344 365.234375 466.007812 357.824219 465.257812 343.101562 C 479.761719 326.144531 481.28125 292.972656 449.878906 285.550781 C 448.015625 302.664062 448.570312 306.742188 452.140625 320.675781 C 437.402344 311.457031 416.625 306.371094 402.792969 319.40625 C 412.164062 330.050781 426.667969 339.421875 449.027344 327.8125 C 443.746094 346 430.007812 342.886719 411.136719 335.949219 C 422.671875 358.761719 437.230469 362.8125 453.296875 360.183594 C 461.710938 383.53125 462.082031 401.269531 437.496094 435.265625 C 438.632812 414.140625 437.207031 398.398438 421.261719 381.316406 C 407.59375 367.226562 396.488281 381.917969 417.84375 413.238281 C 404.890625 403.195312 390.226562 382.8125 385.8125 362.433594 C 381.539062 387.613281 385.386719 417.285156 398.625 433.921875 C 392.363281 440.964844 385.242188 433.171875 374.707031 415.9375 C 378.695312 471.089844 401.046875 481.730469 431.085938 469.4375 C 431.941406 499.710938 431.941406 527.738281 433.652344 564.304688 C 416.132812 537.78125 393.929688 517.996094 381.539062 513.054688 C 377.695312 527.890625 392.21875 547.21875 400.335938 558.011719 C 387.949219 555.3125 361.039062 533.734375 361.039062 533.734375 C 358.332031 558.3125 388.519531 581.09375 408.023438 591.28125 C 385.101562 590.230469 374.988281 581.09375 360.183594 566.105469 C 360.46875 634.292969 430.371094 622.453125 443.472656 611.960938 C 445.183594 645.535156 447.617188 684.34375 449.328125 717.914062 C 429.566406 714.285156 431.117188 708.03125 414.210938 706.382812 C 367.277344 704.457031 330.050781 647.082031 317.722656 604.875 C 314.183594 611.820312 316.992188 619.085938 313.753906 627.621094 C 306.136719 606.902344 296.402344 580.148438 283.347656 567.695312 C 286.671875 579.773438 287.023438 592.046875 285.867188 614.621094 C 281.386719 599.996094 277.21875 595.511719 276.917969 578.339844 C 277.203125 565.160156 288.996094 555.433594 288.34375 536.894531 C 287.859375 523.359375 276.132812 494.023438 274.40625 471.3125 C 268.730469 494.6875 265.164062 519.328125 256.464844 533.796875 C 260.789062 508.835938 259.402344 491.613281 266.714844 474.8125 C 275.160156 457.128906 282.34375 441.339844 276.71875 423.492188 C 271.328125 430.382812 273.183594 436.648438 259.632812 453.394531 C 256.691406 435.183594 277.152344 406.027344 297.011719 394.308594 C 311.019531 386.542969 328.671875 358.753906 317.171875 339.710938 C 304 349.667969 298.085938 363.121094 279.480469 386.109375 C 292.75 331.5 327.234375 317.210938 368.519531 317.023438 C 377.652344 316.980469 396.070312 313.507812 401.238281 300.785156 C 389.601562 305.511719 375.84375 306.113281 363.601562 303.535156 C 372.511719 289.765625 391.277344 291.554688 408.761719 291.472656 C 422.476562 291.402344 443.890625 289.445312 452.546875 268.882812 C 435.816406 276.515625 409.722656 278.101562 393.292969 272.699219 C 419.421875 258.445312 460.347656 256.914062 481.339844 238.210938 C 457.414062 219.414062 397.542969 242.589844 359.726562 269.890625 C 370.296875 259.714844 387 241.667969 396.21875 227.101562 C 375.535156 216.664062 323.230469 277.65625 305.210938 313.898438 C 288.097656 324.074219 281.25 340.019531 274.605469 351.148438 C 283.726562 318.714844 284.691406 295.175781 292.300781 268.464844 C 233.632812 289.722656 258.019531 403.824219 245.257812 431.121094 C 246.757812 400.984375 245.542969 362.269531 233.753906 342.304688 C 215.6875 356.816406 214.226562 442.222656 231.191406 513.324219 C 225.066406 494.296875 213.503906 476.535156 209.792969 453.375 C 183.050781 504.71875 225.472656 565.289062 260.941406 613.136719 C 234.238281 598.496094 207.835938 567.003906 190.492188 540.601562 C 195.277344 632.496094 286.441406 651.589844 300.59375 674.175781 C 281.386719 664.761719 244.660156 646.136719 229.078125 665.652344 C 254.445312 671.816406 274.683594 678.945312 290.988281 690.195312 C 314.648438 721.289062 359.449219 734.890625 437.472656 738.324219 Z M 437.472656 738.324219 "/>
</g>
</svg>
