<?xml version="1.0" encoding="UTF-8"?>
<svg xmlns="http://www.w3.org/2000/svg" xmlns:xlink="http://www.w3.org/1999/xlink" width="380pt" height="200pt" viewBox="0 0 1900 1000" version="1.1">
<g id="surface1">
<rect x="0" y="0" width="1900" height="1000" style="fill:rgb(100%,60%,20%);fill-opacity:1;stroke:none;"/>
<path style=" stroke:none;fill-rule:nonzero;fill:rgb(100%,100%,100%);fill-opacity:1;" d="M 0 333.332031 L 1900 333.332031 L 1900 666.667969 L 0 666.667969 Z M 0 333.332031 "/>
<path style=" stroke:none;fill-rule:nonzero;fill:rgb(7.058824%,53.333333%,2.745098%);fill-opacity:1;" d="M 0 666.667969 L 1900 666.667969 L 1900 1000 L 0 1000 Z M 0 666.667969 "/>
<path style=" stroke:none;fill-rule:nonzero;fill:rgb(0%,0%,53.333333%);fill-opacity:1;" d="M 1118.890625 500 C 1118.890625 573.636719 1043.273438 633.332031 950 633.332031 C 856.726562 633.332031 781.109375 573.636719 781.109375 500 C 781.109375 426.363281 856.726562 366.667969 950 366.667969 C 1043.273438 366.667969 1118.890625 426.363281 1118.890625 500 Z M 1118.890625 500 "/>
<path style=" stroke:none;fill-rule:nonzero;fill:rgb(100%,100%,100%);fill-opacity:1;" d="M 1097.777344 500 C 1097.777344 564.433594 1031.617188 616.667969 950 616.667969 C 868.382812 616.667969 802.222656 564.433594 802.222656 500 C 802.222656 435.566406 868.382812 383.332031 950 383.332031 C 1031.617188 383.332031 1097.777344 435.566406 1097.777344 500 Z M 1097.777344 500 "/>
<path style=" stroke:none;fill-rule:nonzero;fill:rgb(0%,0%,53.333333%);fill-opacity:1;" d="M 979.554688 500 C 979.554688 512.886719 966.324219 523.332031 950 523.332031 C 933.675781 523.332031 920.445312 512.886719 920.445312 500 C 920.445312 487.113281 933.675781 476.667969 950 476.667969 C 966.324219 476.667969 979.554688 487.113281 979.554688 500 Z M 979.554688 500 "/>
<path style=" stroke:none;fill-rule:nonzero;fill:rgb(0%,0%,53.333333%);fill-opacity:1;" d="M 1103.839844 515.988281 C 1103.304688 519.183594 1099.59375 521.433594 1095.550781 521.011719 C 1091.503906 520.589844 1088.65625 517.660156 1089.1875 514.464844 C 1089.71875 511.273438 1093.433594 509.023438 1097.476562 509.445312 C 1101.523438 509.863281 1104.371094 512.796875 1103.839844 515.988281 Z M 1103.839844 515.988281 "/>
<path style=" stroke:none;fill-rule:nonzero;fill:rgb(0%,0%,53.333333%);fill-opacity:1;" d="M 950 616.667969 L 955.066406 546.667969 C 955.066406 546.667969 950 513.332031 950 513.332031 C 950 513.332031 944.933594 546.667969 944.933594 546.667969 Z M 950 616.667969 "/>
<path style=" stroke:none;fill-rule:nonzero;fill:rgb(0%,0%,53.333333%);fill-opacity:1;" d="M 1093.355469 546.878906 C 1091.792969 549.855469 1087.472656 551.269531 1083.703125 550.035156 C 1079.929688 548.804688 1078.140625 545.390625 1079.703125 542.414062 C 1081.265625 539.4375 1085.585938 538.023438 1089.355469 539.257812 C 1093.125 540.488281 1094.917969 543.902344 1093.355469 546.878906 Z M 1093.355469 546.878906 "/>
<path style=" stroke:none;fill-rule:nonzero;fill:rgb(0%,0%,53.333333%);fill-opacity:1;" d="M 911.753906 612.691406 L 939.59375 546.113281 C 939.59375 546.113281 945.628906 512.878906 945.628906 512.878906 C 945.628906 512.878906 929.808594 544.042969 929.808594 544.042969 Z M 911.753906 612.691406 "/>
<path style=" stroke:none;fill-rule:nonzero;fill:rgb(0%,0%,53.333333%);fill-opacity:1;" d="M 1073.101562 574.574219 C 1070.617188 577.128906 1065.980469 577.609375 1062.742188 575.648438 C 1059.503906 573.6875 1058.894531 570.027344 1061.378906 567.472656 C 1063.863281 564.914062 1068.5 564.433594 1071.738281 566.394531 C 1074.976562 568.355469 1075.585938 572.015625 1073.101562 574.574219 Z M 1073.101562 574.574219 "/>
<path style=" stroke:none;fill-rule:nonzero;fill:rgb(0%,0%,53.333333%);fill-opacity:1;" d="M 876.109375 601.035156 L 924.832031 542.414062 C 924.832031 542.414062 941.554688 511.546875 941.554688 511.546875 C 941.554688 511.546875 916.054688 538.414062 916.054688 538.414062 Z M 876.109375 601.035156 "/>
<path style=" stroke:none;fill-rule:nonzero;fill:rgb(0%,0%,53.333333%);fill-opacity:1;" d="M 1044.460938 597.1875 C 1041.222656 599.148438 1036.582031 598.664062 1034.097656 596.109375 C 1031.613281 593.554688 1032.226562 589.890625 1035.464844 587.929688 C 1038.699219 585.96875 1043.339844 586.449219 1045.824219 589.007812 C 1048.308594 591.5625 1047.695312 595.222656 1044.460938 597.1875 Z M 1044.460938 597.1875 "/>
<path style=" stroke:none;fill-rule:nonzero;fill:rgb(0%,0%,53.333333%);fill-opacity:1;" d="M 845.503906 582.496094 L 911.785156 535.828125 C 911.785156 535.828125 938.058594 509.429688 938.058594 509.429688 C 938.058594 509.429688 904.621094 530.167969 904.621094 530.167969 Z M 845.503906 582.496094 "/>
<path style=" stroke:none;fill-rule:nonzero;fill:rgb(0%,0%,53.333333%);fill-opacity:1;" d="M 1009.378906 613.175781 C 1005.609375 614.40625 1001.289062 612.996094 999.726562 610.019531 C 998.164062 607.042969 999.953125 603.628906 1003.722656 602.398438 C 1007.496094 601.164062 1011.816406 602.578125 1013.378906 605.554688 C 1014.941406 608.53125 1013.148438 611.941406 1009.378906 613.175781 Z M 1009.378906 613.175781 "/>
<path style=" stroke:none;fill-rule:nonzero;fill:rgb(0%,0%,53.333333%);fill-opacity:1;" d="M 822.019531 558.332031 L 901.339844 526.796875 C 901.339844 526.796875 935.375 506.667969 935.375 506.667969 C 935.375 506.667969 896.273438 519.871094 896.273438 519.871094 Z M 822.019531 558.332031 "/>
<path style=" stroke:none;fill-rule:nonzero;fill:rgb(0%,0%,53.333333%);fill-opacity:1;" d="M 970.253906 621.453125 C 966.207031 621.871094 962.496094 619.625 961.964844 616.429688 C 961.429688 613.234375 964.277344 610.304688 968.324219 609.886719 C 972.371094 609.464844 976.082031 611.714844 976.613281 614.90625 C 977.148438 618.101562 974.300781 621.03125 970.253906 621.453125 Z M 970.253906 621.453125 "/>
<path style=" stroke:none;fill-rule:nonzero;fill:rgb(0%,0%,53.333333%);fill-opacity:1;" d="M 807.257812 530.195312 L 894.214844 515.941406 C 894.214844 515.941406 933.6875 503.449219 933.6875 503.449219 C 933.6875 503.449219 891.589844 508.214844 891.589844 508.214844 Z M 807.257812 530.195312 "/>
<path style=" stroke:none;fill-rule:nonzero;fill:rgb(0%,0%,53.333333%);fill-opacity:1;" d="M 929.746094 621.453125 C 925.699219 621.03125 922.851562 618.101562 923.386719 614.90625 C 923.917969 611.714844 927.628906 609.464844 931.675781 609.886719 C 935.722656 610.304688 938.570312 613.234375 938.035156 616.429688 C 937.503906 619.625 933.792969 621.871094 929.746094 621.453125 Z M 929.746094 621.453125 "/>
<path style=" stroke:none;fill-rule:nonzero;fill:rgb(0%,0%,53.333333%);fill-opacity:1;" d="M 802.222656 500 L 890.890625 504 C 890.890625 504 933.109375 500 933.109375 500 C 933.109375 500 890.890625 496 890.890625 496 Z M 802.222656 500 "/>
<path style=" stroke:none;fill-rule:nonzero;fill:rgb(0%,0%,53.333333%);fill-opacity:1;" d="M 890.621094 613.175781 C 886.851562 611.941406 885.058594 608.53125 886.621094 605.554688 C 888.183594 602.578125 892.503906 601.164062 896.277344 602.398438 C 900.046875 603.628906 901.835938 607.042969 900.273438 610.019531 C 898.710938 612.996094 894.390625 614.40625 890.621094 613.175781 Z M 890.621094 613.175781 "/>
<path style=" stroke:none;fill-rule:nonzero;fill:rgb(0%,0%,53.333333%);fill-opacity:1;" d="M 807.257812 469.804688 L 891.589844 491.785156 C 891.589844 491.785156 933.6875 496.550781 933.6875 496.550781 C 933.6875 496.550781 894.214844 484.058594 894.214844 484.058594 Z M 807.257812 469.804688 "/>
<path style=" stroke:none;fill-rule:nonzero;fill:rgb(0%,0%,53.333333%);fill-opacity:1;" d="M 855.539062 597.1875 C 852.304688 595.222656 851.691406 591.5625 854.175781 589.007812 C 856.660156 586.449219 861.300781 585.96875 864.535156 587.929688 C 867.773438 589.890625 868.386719 593.554688 865.902344 596.109375 C 863.417969 598.664062 858.777344 599.148438 855.539062 597.1875 Z M 855.539062 597.1875 "/>
<path style=" stroke:none;fill-rule:nonzero;fill:rgb(0%,0%,53.333333%);fill-opacity:1;" d="M 822.019531 441.667969 L 896.273438 480.128906 C 896.273438 480.128906 935.375 493.332031 935.375 493.332031 C 935.375 493.332031 901.339844 473.203125 901.339844 473.203125 Z M 822.019531 441.667969 "/>
<path style=" stroke:none;fill-rule:nonzero;fill:rgb(0%,0%,53.333333%);fill-opacity:1;" d="M 826.898438 574.574219 C 824.414062 572.015625 825.023438 568.355469 828.261719 566.394531 C 831.5 564.433594 836.136719 564.914062 838.621094 567.472656 C 841.105469 570.027344 840.496094 573.6875 837.257812 575.648438 C 834.019531 577.609375 829.382812 577.128906 826.898438 574.574219 Z M 826.898438 574.574219 "/>
<path style=" stroke:none;fill-rule:nonzero;fill:rgb(0%,0%,53.333333%);fill-opacity:1;" d="M 845.503906 417.503906 L 904.621094 469.832031 C 904.621094 469.832031 938.058594 490.570312 938.058594 490.570312 C 938.058594 490.570312 911.785156 464.171875 911.785156 464.171875 Z M 845.503906 417.503906 "/>
<path style=" stroke:none;fill-rule:nonzero;fill:rgb(0%,0%,53.333333%);fill-opacity:1;" d="M 806.644531 546.878906 C 805.082031 543.902344 806.875 540.488281 810.644531 539.257812 C 814.414062 538.023438 818.734375 539.4375 820.296875 542.414062 C 821.859375 545.390625 820.070312 548.804688 816.296875 550.035156 C 812.527344 551.269531 808.207031 549.855469 806.644531 546.878906 Z M 806.644531 546.878906 "/>
<path style=" stroke:none;fill-rule:nonzero;fill:rgb(0%,0%,53.333333%);fill-opacity:1;" d="M 876.109375 398.964844 L 916.054688 461.585938 C 916.054688 461.585938 941.554688 488.453125 941.554688 488.453125 C 941.554688 488.453125 924.832031 457.585938 924.832031 457.585938 Z M 876.109375 398.964844 "/>
<path style=" stroke:none;fill-rule:nonzero;fill:rgb(0%,0%,53.333333%);fill-opacity:1;" d="M 796.160156 515.988281 C 795.628906 512.796875 798.476562 509.863281 802.523438 509.445312 C 806.566406 509.023438 810.28125 511.273438 810.8125 514.464844 C 811.34375 517.660156 808.496094 520.589844 804.449219 521.011719 C 800.40625 521.433594 796.695312 519.183594 796.160156 515.988281 Z M 796.160156 515.988281 "/>
<path style=" stroke:none;fill-rule:nonzero;fill:rgb(0%,0%,53.333333%);fill-opacity:1;" d="M 911.753906 387.308594 L 929.808594 455.957031 C 929.808594 455.957031 945.628906 487.121094 945.628906 487.121094 C 945.628906 487.121094 939.59375 453.886719 939.59375 453.886719 Z M 911.753906 387.308594 "/>
<path style=" stroke:none;fill-rule:nonzero;fill:rgb(0%,0%,53.333333%);fill-opacity:1;" d="M 796.160156 484.011719 C 796.695312 480.816406 800.40625 478.566406 804.449219 478.988281 C 808.496094 479.410156 811.34375 482.339844 810.8125 485.535156 C 810.28125 488.726562 806.566406 490.976562 802.523438 490.554688 C 798.476562 490.136719 795.628906 487.203125 796.160156 484.011719 Z M 796.160156 484.011719 "/>
<path style=" stroke:none;fill-rule:nonzero;fill:rgb(0%,0%,53.333333%);fill-opacity:1;" d="M 950 383.332031 L 944.933594 453.332031 C 944.933594 453.332031 950 486.667969 950 486.667969 C 950 486.667969 955.066406 453.332031 955.066406 453.332031 Z M 950 383.332031 "/>
<path style=" stroke:none;fill-rule:nonzero;fill:rgb(0%,0%,53.333333%);fill-opacity:1;" d="M 806.644531 453.121094 C 808.207031 450.144531 812.527344 448.730469 816.296875 449.964844 C 820.070312 451.195312 821.859375 454.609375 820.296875 457.585938 C 818.734375 460.5625 814.414062 461.976562 810.644531 460.742188 C 806.875 459.511719 805.082031 456.097656 806.644531 453.121094 Z M 806.644531 453.121094 "/>
<path style=" stroke:none;fill-rule:nonzero;fill:rgb(0%,0%,53.333333%);fill-opacity:1;" d="M 988.246094 387.308594 L 960.40625 453.886719 C 960.40625 453.886719 954.371094 487.121094 954.371094 487.121094 C 954.371094 487.121094 970.191406 455.957031 970.191406 455.957031 Z M 988.246094 387.308594 "/>
<path style=" stroke:none;fill-rule:nonzero;fill:rgb(0%,0%,53.333333%);fill-opacity:1;" d="M 826.898438 425.425781 C 829.382812 422.871094 834.019531 422.390625 837.257812 424.351562 C 840.496094 426.3125 841.105469 429.972656 838.621094 432.527344 C 836.136719 435.085938 831.5 435.566406 828.261719 433.605469 C 825.023438 431.644531 824.414062 427.984375 826.898438 425.425781 Z M 826.898438 425.425781 "/>
<path style=" stroke:none;fill-rule:nonzero;fill:rgb(0%,0%,53.333333%);fill-opacity:1;" d="M 1023.890625 398.964844 L 975.167969 457.585938 C 975.167969 457.585938 958.445312 488.453125 958.445312 488.453125 C 958.445312 488.453125 983.945312 461.585938 983.945312 461.585938 Z M 1023.890625 398.964844 "/>
<path style=" stroke:none;fill-rule:nonzero;fill:rgb(0%,0%,53.333333%);fill-opacity:1;" d="M 855.539062 402.8125 C 858.777344 400.851562 863.417969 401.335938 865.902344 403.890625 C 868.386719 406.445312 867.773438 410.109375 864.535156 412.070312 C 861.300781 414.03125 856.660156 413.550781 854.175781 410.992188 C 851.691406 408.4375 852.304688 404.777344 855.539062 402.8125 Z M 855.539062 402.8125 "/>
<path style=" stroke:none;fill-rule:nonzero;fill:rgb(0%,0%,53.333333%);fill-opacity:1;" d="M 1054.496094 417.503906 L 988.214844 464.171875 C 988.214844 464.171875 961.941406 490.570312 961.941406 490.570312 C 961.941406 490.570312 995.378906 469.832031 995.378906 469.832031 Z M 1054.496094 417.503906 "/>
<path style=" stroke:none;fill-rule:nonzero;fill:rgb(0%,0%,53.333333%);fill-opacity:1;" d="M 890.621094 386.824219 C 894.390625 385.59375 898.710938 387.003906 900.273438 389.980469 C 901.835938 392.957031 900.046875 396.371094 896.277344 397.601562 C 892.503906 398.835938 888.183594 397.421875 886.621094 394.445312 C 885.058594 391.46875 886.851562 388.058594 890.621094 386.824219 Z M 890.621094 386.824219 "/>
<path style=" stroke:none;fill-rule:nonzero;fill:rgb(0%,0%,53.333333%);fill-opacity:1;" d="M 1077.980469 441.667969 L 998.660156 473.203125 C 998.660156 473.203125 964.625 493.332031 964.625 493.332031 C 964.625 493.332031 1003.726562 480.128906 1003.726562 480.128906 Z M 1077.980469 441.667969 "/>
<path style=" stroke:none;fill-rule:nonzero;fill:rgb(0%,0%,53.333333%);fill-opacity:1;" d="M 929.746094 378.546875 C 933.792969 378.128906 937.503906 380.375 938.035156 383.570312 C 938.570312 386.765625 935.722656 389.695312 931.675781 390.113281 C 927.628906 390.535156 923.917969 388.285156 923.386719 385.09375 C 922.851562 381.898438 925.699219 378.96875 929.746094 378.546875 Z M 929.746094 378.546875 "/>
<path style=" stroke:none;fill-rule:nonzero;fill:rgb(0%,0%,53.333333%);fill-opacity:1;" d="M 1092.742188 469.804688 L 1005.785156 484.058594 C 1005.785156 484.058594 966.3125 496.550781 966.3125 496.550781 C 966.3125 496.550781 1008.410156 491.785156 1008.410156 491.785156 Z M 1092.742188 469.804688 "/>
<path style=" stroke:none;fill-rule:nonzero;fill:rgb(0%,0%,53.333333%);fill-opacity:1;" d="M 970.253906 378.546875 C 974.300781 378.96875 977.148438 381.898438 976.613281 385.09375 C 976.082031 388.285156 972.371094 390.535156 968.324219 390.113281 C 964.277344 389.695312 961.429688 386.765625 961.964844 383.570312 C 962.496094 380.375 966.207031 378.128906 970.253906 378.546875 Z M 970.253906 378.546875 "/>
<path style=" stroke:none;fill-rule:nonzero;fill:rgb(0%,0%,53.333333%);fill-opacity:1;" d="M 1097.777344 500 L 1009.109375 496 C 1009.109375 496 966.890625 500 966.890625 500 C 966.890625 500 1009.109375 504 1009.109375 504 Z M 1097.777344 500 "/>
<path style=" stroke:none;fill-rule:nonzero;fill:rgb(0%,0%,53.333333%);fill-opacity:1;" d="M 1009.378906 386.824219 C 1013.148438 388.058594 1014.941406 391.46875 1013.378906 394.445312 C 1011.816406 397.421875 1007.496094 398.835938 1003.722656 397.601562 C 999.953125 396.371094 998.164062 392.957031 999.726562 389.980469 C 1001.289062 387.003906 1005.609375 385.59375 1009.378906 386.824219 Z M 1009.378906 386.824219 "/>
<path style=" stroke:none;fill-rule:nonzero;fill:rgb(0%,0%,53.333333%);fill-opacity:1;" d="M 1092.742188 530.195312 L 1008.410156 508.214844 C 1008.410156 508.214844 966.3125 503.449219 966.3125 503.449219 C 966.3125 503.449219 1005.785156 515.941406 1005.785156 515.941406 Z M 1092.742188 530.195312 "/>
<path style=" stroke:none;fill-rule:nonzero;fill:rgb(0%,0%,53.333333%);fill-opacity:1;" d="M 1044.460938 402.8125 C 1047.695312 404.777344 1048.308594 408.4375 1045.824219 410.992188 C 1043.339844 413.550781 1038.699219 414.03125 1035.464844 412.070312 C 1032.226562 410.109375 1031.613281 406.445312 1034.097656 403.890625 C 1036.582031 401.335938 1041.222656 400.851562 1044.460938 402.8125 Z M 1044.460938 402.8125 "/>
<path style=" stroke:none;fill-rule:nonzero;fill:rgb(0%,0%,53.333333%);fill-opacity:1;" d="M 1077.980469 558.332031 L 1003.726562 519.871094 C 1003.726562 519.871094 964.625 506.667969 964.625 506.667969 C 964.625 506.667969 998.660156 526.796875 998.660156 526.796875 Z M 1077.980469 558.332031 "/>
<path style=" stroke:none;fill-rule:nonzero;fill:rgb(0%,0%,53.333333%);fill-opacity:1;" d="M 1073.101562 425.425781 C 1075.585938 427.984375 1074.976562 431.644531 1071.738281 433.605469 C 1068.5 435.566406 1063.863281 435.085938 1061.378906 432.527344 C 1058.894531 429.972656 1059.503906 426.3125 1062.742188 424.351562 C 1065.980469 422.390625 1070.617188 422.871094 1073.101562 425.425781 Z M 1073.101562 425.425781 "/>
<path style=" stroke:none;fill-rule:nonzero;fill:rgb(0%,0%,53.333333%);fill-opacity:1;" d="M 1054.496094 582.496094 L 995.378906 530.167969 C 995.378906 530.167969 961.941406 509.429688 961.941406 509.429688 C 961.941406 509.429688 988.214844 535.828125 988.214844 535.828125 Z M 1054.496094 582.496094 "/>
<path style=" stroke:none;fill-rule:nonzero;fill:rgb(0%,0%,53.333333%);fill-opacity:1;" d="M 1093.355469 453.121094 C 1094.917969 456.097656 1093.125 459.511719 1089.355469 460.742188 C 1085.585938 461.976562 1081.265625 460.5625 1079.703125 457.585938 C 1078.140625 454.609375 1079.929688 451.195312 1083.703125 449.964844 C 1087.472656 448.730469 1091.792969 450.144531 1093.355469 453.121094 Z M 1093.355469 453.121094 "/>
<path style=" stroke:none;fill-rule:nonzero;fill:rgb(0%,0%,53.333333%);fill-opacity:1;" d="M 1023.890625 601.035156 L 983.945312 538.414062 C 983.945312 538.414062 958.445312 511.546875 958.445312 511.546875 C 958.445312 511.546875 975.167969 542.414062 975.167969 542.414062 Z M 1023.890625 601.035156 "/>
<path style=" stroke:none;fill-rule:nonzero;fill:rgb(0%,0%,53.333333%);fill-opacity:1;" d="M 1103.839844 484.011719 C 1104.371094 487.203125 1101.523438 490.136719 1097.476562 490.554688 C 1093.433594 490.976562 1089.71875 488.726562 1089.1875 485.535156 C 1088.65625 482.339844 1091.503906 479.410156 1095.550781 478.988281 C 1099.59375 478.566406 1103.304688 480.816406 1103.839844 484.011719 Z M 1103.839844 484.011719 "/>
<path style=" stroke:none;fill-rule:nonzero;fill:rgb(0%,0%,53.333333%);fill-opacity:1;" d="M 988.246094 612.691406 L 970.191406 544.042969 C 970.191406 544.042969 954.371094 512.878906 954.371094 512.878906 C 954.371094 512.878906 960.40625 546.113281 960.40625 546.113281 Z M 988.246094 612.691406 "/>
</g>
</svg>
