<?xml version="1.0" encoding="UTF-8"?>
<svg xmlns="http://www.w3.org/2000/svg" xmlns:xlink="http://www.w3.org/1999/xlink" width="380pt" height="200pt" viewBox="0 0 1900 1000" version="1.1">
<g id="surface1">
<rect x="0" y="0" width="1900" height="1000" style="fill:rgb(100%,71.764706%,0%);fill-opacity:1;stroke:none;"/>
<path style=" stroke:none;fill-rule:nonzero;fill:rgb(100%,35.686275%,0%);fill-opacity:1;" d="M 340.417969 83.332031 L 601.667969 83.332031 L 601.667969 916.667969 L 340.417969 916.667969 Z M 340.417969 83.332031 "/>
<path style=" stroke:none;fill-rule:nonzero;fill:rgb(0%,33.72549%,25.490196%);fill-opacity:1;" d="M 79.167969 83.332031 L 340.417969 83.332031 L 340.417969 916.667969 L 79.167969 916.667969 Z M 79.167969 83.332031 "/>
<path style=" stroke:none;fill-rule:nonzero;fill:rgb(55.294118%,12.54902%,16.078431%);fill-opacity:1;" d="M 680.832031 83.332031 L 1828.75 83.332031 L 1828.75 916.667969 L 680.832031 916.667969 Z M 680.832031 83.332031 "/>
<path style="fill-rule:evenodd;fill:rgb(100%,71.764706%,0%);fill-opacity:1;stroke-width:2.125757;stroke-linecap:butt;stroke-linejoin:miter;stroke:rgb(0%,0%,0%);stroke-opacity:1;stroke-miterlimit:4;" d="M 498.938322 466.061719 C 498.938322 466.061719 492.13898 479.903906 484.629112 485.542969 C 473.5 493.898438 450.684211 493.296094 441.000822 503.04375 C 429.395559 514.5375 441.901316 529.725 441.79523 531.044531 L 441.158717 539.064844 C 441.158717 539.064844 448.984375 539.158594 452.277961 539.671875 C 457.231908 540.445312 459.163651 544.474219 468.388158 543.876562 C 491.57648 542.371875 490.641447 521.479687 491.953947 503.627344 C 493.118421 496.828125 495.8125 487.964062 497.344572 481.167187 C 498.657072 475.340625 498.938322 466.061719 498.938322 466.061719 Z M 498.938322 466.061719 " transform="matrix(-1.583333,0,0,1.666667,2509.583333,0)"/>
<path style="fill-rule:evenodd;fill:rgb(100%,71.764706%,0%);fill-opacity:1;stroke-width:2.125757;stroke-linecap:butt;stroke-linejoin:miter;stroke:rgb(0%,0%,0%);stroke-opacity:1;stroke-miterlimit:4;" d="M 498.9375 466.061719 C 498.9375 466.061719 492.138158 479.903906 484.628289 485.542969 C 473.501645 493.898438 450.683388 493.296094 441 503.04375 C 429.397204 514.5375 441.900493 529.725 441.796875 531.044531 L 441.160362 539.064844 C 441.160362 539.064844 448.983553 539.158594 452.277138 539.671875 C 457.231086 540.445312 459.165296 544.474219 468.387336 543.876562 C 491.575658 542.371875 490.640625 521.479687 491.953125 503.627344 C 493.117599 496.828125 495.811678 487.964063 497.34375 481.167188 C 498.65625 475.340625 498.9375 466.061719 498.9375 466.061719 Z M 498.9375 466.061719 " transform="matrix(1.583333,0,0,-1.666667,0,1000)"/>
<path style="fill-rule:evenodd;fill:rgb(100%,71.764706%,0%);fill-opacity:1;stroke-width:2.125757;stroke-linecap:butt;stroke-linejoin:miter;stroke:rgb(0%,0%,0%);stroke-opacity:1;stroke-miterlimit:4;" d="M 498.938322 466.061719 C 498.938322 466.061719 492.13898 479.903906 484.629112 485.542969 C 473.5 493.898438 450.684211 493.296094 441.000822 503.04375 C 429.395559 514.5375 441.901316 529.725 441.79523 531.044531 L 441.158717 539.064844 C 441.158717 539.064844 448.984375 539.158594 452.277961 539.671875 C 457.231908 540.445312 459.163651 544.474219 468.388158 543.876562 C 491.57648 542.371875 490.641447 521.479687 491.953947 503.627344 C 493.118421 496.828125 495.8125 487.964063 497.344572 481.167188 C 498.657072 475.340625 498.938322 466.061719 498.938322 466.061719 Z M 498.938322 466.061719 " transform="matrix(-1.583333,0,0,-1.666667,2509.583333,1000)"/>
<path style="fill-rule:evenodd;fill:rgb(100%,71.764706%,0%);fill-opacity:1;stroke-width:2.125757;stroke-linecap:butt;stroke-linejoin:miter;stroke:rgb(0%,0%,0%);stroke-opacity:1;stroke-miterlimit:4;" d="M 498.9375 466.061719 C 498.9375 466.061719 492.138158 479.903906 484.628289 485.542969 C 473.501645 493.898438 450.683388 493.296094 441 503.04375 C 429.397204 514.5375 441.900493 529.725 441.796875 531.044531 L 441.160362 539.064844 C 441.160362 539.064844 448.983553 539.158594 452.277138 539.671875 C 457.231086 540.445312 459.165296 544.474219 468.387336 543.876562 C 491.575658 542.371875 490.640625 521.479687 491.953125 503.627344 C 493.117599 496.828125 495.811678 487.964062 497.34375 481.167187 C 498.65625 475.340625 498.9375 466.061719 498.9375 466.061719 Z M 498.9375 466.061719 " transform="matrix(1.583333,0,0,1.666667,0,0)"/>
<path style="fill-rule:nonzero;fill:rgb(0%,0%,0%);fill-opacity:1;stroke-width:5.559845;stroke-linecap:butt;stroke-linejoin:miter;stroke:rgb(0%,0%,0%);stroke-opacity:1;stroke-miterlimit:4;" d="M 681.537829 479.557031 L 685.897204 477.039844 L 687.762336 479.561719 C 690.246711 482.920312 697.120066 482.882812 701.681743 479.484375 L 705.17023 476.885156 L 708.091283 479.484375 C 711.932566 482.899219 719.104441 482.903906 723.683388 479.496094 C 726.888158 477.107812 727.334704 477.058594 729.456414 478.875 C 730.719572 479.960156 734.425164 481.192969 737.691612 481.617188 C 743.575658 482.378906 743.664474 482.339062 747.106086 477.173437 C 749.987664 472.849219 750.439145 471.098437 749.750822 466.905469 C 749.296875 464.123437 748.803454 459.649219 748.660362 456.958594 C 748.398849 452.090625 748.425987 452.060156 755.518914 449.589844 C 759.436678 448.225781 763.971217 446.397656 765.597039 445.525781 C 768.429276 444.004687 776.237664 434.826562 776.237664 433.017187 C 776.237664 432.536719 773.188322 431.803125 769.458059 431.383594 C 754.625822 429.721875 752.114309 421.755469 761.755757 406.961719 C 777.481086 382.832812 786.972039 359.336719 787.033717 344.367188 C 787.063322 337.678125 787.443257 335.430469 788.304276 336.885938 C 791.817434 342.832031 785.523849 367.7625 775.988487 385.666406 L 772.149671 392.873437 L 775.813322 392.032031 C 777.82648 391.567969 789.67352 386.56875 802.137336 380.925 C 836.252467 365.472656 847.96875 362.444531 870.046875 363.375 C 888.54523 364.155469 896.422697 367.767187 909.481086 381.466406 C 916.401316 388.722656 923.064967 393.914062 935.257401 401.545312 C 961.231086 417.803906 962.314145 419.2125 963.550164 438.332812 C 964.800987 457.70625 964.179276 458.758594 949.524671 461.995312 C 937.001645 464.760937 929.148849 470.601562 927.044408 478.710938 C 925.919408 483.044531 928.285362 483.16875 934.601151 479.109375 L 939.226974 476.135156 L 941.284539 479.109375 C 943.990954 483.021094 949.739309 483.035156 954.515625 479.146875 L 958.122533 476.207812 L 961.808388 479.146875 C 967.537007 483.710156 975.155428 482.603906 977.304276 476.894531 C 977.71875 475.795312 978.821546 476.146875 981.054276 478.089844 C 985.240954 481.727344 995.967928 483.285937 997.127467 480.426562 C 997.569079 479.334375 996.730263 476.641406 995.259868 474.438281 C 989.018092 465.077344 987.066612 460.614844 986.985197 455.519531 C 986.871711 448.434375 988.98602 445.014844 997.046053 439.251562 C 1006.837993 432.250781 1009.862664 423.217969 1002.416941 423.217969 C 997.820724 423.217969 993.185033 419.15625 990.229441 412.532812 C 984.222039 399.072656 985.398849 383.98125 994.416118 358.875 C 1003.57648 333.375 1004.590461 328.673437 1004.627467 311.620313 C 1004.657072 297.829687 1004.311678 295.446094 1001.17352 287.885156 C 999.254112 283.263281 995.363487 276.382031 992.523849 272.592187 L 987.362664 265.701562 L 993.989309 260.210156 C 1014.224507 243.447656 1010.084704 216.011719 985.726974 205.441406 C 978.273849 202.209375 976.413651 201.923438 963.355263 202.010156 C 955.519737 202.064063 943.574013 203.095313 936.809211 204.302344 C 929.911184 205.532813 918.234375 206.521875 910.223684 206.554688 C 897.498355 206.60625 895.339638 206.292187 890.435033 203.68125 C 885.320724 200.960156 884.444901 199.66875 883.443257 193.378125 C 883.238487 192.084375 882.333059 190.792969 881.435033 190.509375 C 879.695724 189.960938 871.662829 196.933594 870.476151 200.020312 C 869.891447 201.54375 869.412829 201.438281 867.695724 199.40625 C 866.555921 198.058594 864.962171 194.957812 864.157895 192.517969 C 862.129934 186.384375 864.619243 181.783594 871.830592 178.338281 L 877.425987 175.664062 L 874.127467 173.615625 C 867.318257 169.392188 855.742599 172.282031 851.555921 179.252344 C 850.371711 181.223437 849.078947 182.838281 848.684211 182.842969 C 848.289474 182.847656 846.039474 180.967969 843.680921 178.664062 C 834.890625 170.074219 837.915296 157.366406 849.67352 153.4875 C 855.942434 151.417969 861.490954 152.997656 862.645559 157.176562 C 864.407072 163.560937 869.886513 155.170312 868.904605 147.592969 C 868.250822 142.55625 868.347039 142.380469 871.833059 142.380469 C 876.680921 142.380469 886.998355 148.74375 890.188322 153.700781 C 893.896382 159.457031 893.625 168.522656 889.546875 175.279687 L 886.344572 180.585938 L 890.533717 179.746875 C 896.676809 178.516406 902.644737 174.700781 905.664474 170.074219 C 908.856908 165.182812 909.199836 155.660156 906.370066 150.517969 C 903.626645 145.5375 903.942434 144.747656 907.995888 146.430469 C 914.893914 149.294531 918.57977 152.451562 921.347862 157.860938 C 923.837171 162.733594 923.975329 163.945312 922.628289 169.017188 C 921.796875 172.146094 919.944079 176.264062 918.515625 178.164844 C 916.287829 181.127344 916.211349 181.624219 917.985197 181.624219 C 921.291118 181.624219 928.191612 178.497656 930.643914 175.886719 C 931.882401 174.569531 933.685855 171.323437 934.655428 168.675 L 936.416941 163.858594 L 938.439967 167.528906 C 941.299342 172.720313 946.862664 177.391406 953.64227 180.3 C 960.935033 183.426562 963.972039 183.602344 960.157895 180.677344 C 957.587171 178.703906 952.847862 164.798438 954.283717 163.439063 C 955.129934 162.639844 965.030428 170.257031 976.337171 180.407813 C 987.032072 190.007812 993.752467 193.153125 1003.574013 193.153125 C 1016.121711 193.153125 1023.429276 182.228906 1017.789474 171.902344 C 1014.500822 165.88125 1007.175987 165.044531 1002.893092 170.200781 C 1000.924342 172.572656 1000.381579 174.459375 1000.958882 176.946094 C 1001.666941 179.992969 1001.390625 180.398438 998.615132 180.398438 C 994.966283 180.398438 987.777138 175.732031 975.009868 165.077344 C 955.537007 148.830469 931.877467 135.058594 914.79523 130.026562 C 903.831414 126.799219 880.411184 125.538281 869.26727 127.577344 C 857.205592 129.785156 842.938322 136.6875 835.166941 144.077344 C 821.393092 157.171875 821.175987 174.595313 834.584704 190.4625 L 838.425987 195.007031 L 835.825658 199.047656 C 832.041118 204.923438 832.366776 212.83125 836.627467 218.655469 C 838.504934 221.221875 840.399671 223.319531 840.836349 223.319531 C 841.275493 223.317187 841.754112 221.667187 841.902138 219.653906 C 842.279605 214.55625 844.465461 211.141406 848.220395 209.789062 C 851.602796 208.572656 853.788651 209.146875 869.272204 215.327344 C 885.560033 221.828906 912.347862 222.276562 940.833059 216.522656 C 954.796875 213.700781 971.262336 213.867188 978.508224 216.902344 C 991.786184 222.464062 994.862664 236.936719 985.102796 247.924219 C 980.876645 252.679688 976.800987 254.615625 963.118421 258.372656 C 952.707237 261.229688 950.240132 261.419531 926.575658 261.182813 C 906.35773 260.98125 899.092105 261.367969 890.839638 263.092969 C 881.879112 264.963281 876.367599 265.150781 850.04852 264.4875 L 819.619243 263.721094 L 822.994243 266.514844 C 824.849507 268.052344 827.472039 269.94375 828.819079 270.717187 C 831.115954 272.034375 831.039474 272.2125 827.627467 273.478125 C 825.621711 274.221094 821.17352 274.828125 817.739309 274.828125 L 811.495066 274.828125 L 810.65625 280.134375 C 810.192434 283.052344 810.229441 286.460156 810.73273 287.704687 C 811.477796 289.542188 811.199013 289.807031 809.262336 289.103906 C 807.949836 288.625781 804.293586 287.688281 801.138158 287.017969 C 797.980263 286.347656 793.731908 284.983594 791.694079 283.985156 C 788.269737 282.309375 787.889803 282.353906 786.629112 284.585156 C 785.501645 286.579687 774.925164 294.45 773.373355 294.45 C 773.124178 294.45 772.800987 292.933594 772.655428 291.077344 C 772.509868 289.223437 770.985197 284.395312 769.265625 280.347656 C 767.546053 276.3 765.75 271.884375 765.273849 270.536719 C 764.558388 268.502344 764.23273 268.396875 763.369243 269.922656 C 762.794408 270.935156 761.958059 273.69375 761.509046 276.053906 C 761.060033 278.416406 759.466283 282.250781 757.96875 284.578125 L 755.245066 288.808594 L 753.505757 285.189844 C 751.640625 281.308594 748.544408 277.282031 747.424342 277.282031 C 747.046875 277.282031 746.400493 278.521875 745.990954 280.040625 C 745.137336 283.209375 737.79523 291.998437 736.001645 291.998437 C 735.340461 291.998437 734.800164 289.514062 734.800164 286.478906 C 734.800164 283.44375 734.217928 280.959375 733.507401 280.959375 C 732.794408 280.959375 732.212171 281.746875 732.212171 282.705469 C 732.212171 285.039844 725.940789 291.998437 723.838816 291.998437 C 722.921053 291.998437 721.443257 292.825781 720.557566 293.838281 C 718.245888 296.475 716.353618 296.104688 717.325658 293.205469 C 717.782072 291.846094 717.48602 288.672656 716.666941 286.153125 C 715.850329 283.633594 714.979441 280.954687 714.735197 280.195312 C 714.426809 279.241406 712.179276 279.494531 707.422697 281.020312 C 699.737664 283.483594 697.162007 283.047656 701.114309 279.951562 C 702.560033 278.819531 704.758224 274.900781 705.999178 271.242188 C 707.240132 267.58125 709.070724 264.335156 710.067434 264.025781 C 711.463816 263.592187 711.389803 264.128906 709.744243 266.353125 C 708.569901 267.942187 707.605263 270.084375 707.600329 271.115625 C 707.600329 272.146875 706.712171 274.589063 705.634046 276.54375 C 704.558388 278.498437 703.879934 280.291406 704.129112 280.528125 C 704.380757 280.764844 707.304276 279.653906 710.627467 278.060156 L 716.671875 275.163281 L 716.696546 277.755469 C 716.711349 279.180469 717.439145 282.942187 718.314967 286.113281 L 719.908717 291.88125 L 724.023849 289.989844 C 728.227796 288.05625 732.209704 281.167969 732.209704 275.826562 C 732.209704 273.185156 733.724507 273.590625 734.34375 276.396094 C 734.523849 277.221094 735.473684 280.3125 736.453125 283.265625 L 738.231908 288.6375 L 741.049342 285.246094 C 742.598684 283.380469 744.540296 279.721875 745.366776 277.115625 C 746.797697 272.589844 749.04523 270.644531 749.04523 273.930469 C 749.04523 276.297656 755.506579 284.791406 756.752467 284.0625 C 757.356908 283.708594 758.555921 280.521094 759.419408 276.977344 C 761.215461 269.610937 764.114309 264.597656 765.957237 265.675781 C 766.650493 266.08125 766.919408 266.86875 766.556743 267.424219 C 766.194079 267.979688 767.681743 272.772656 769.862664 278.069531 C 772.046053 283.36875 774.236842 288.705469 774.73273 289.926562 C 775.529605 291.890625 776.25 291.604688 780.927632 287.475 C 783.838816 284.903906 786.481086 282.025781 786.799342 281.078906 C 787.280428 279.646875 787.929276 279.700781 790.650493 281.390625 C 794.457237 283.750781 807.256579 287.557031 808.243421 286.621875 C 808.615954 286.270312 808.993421 282.909375 809.087171 279.152344 L 809.257401 272.320312 L 812.938322 273.084375 C 814.963816 273.503906 819.219572 273.478125 822.397204 273.025781 L 828.175164 272.205469 L 823.026316 268.673437 C 820.194079 266.730469 817.32977 264.215625 816.661184 263.085938 C 815.950658 261.88125 813.429276 260.859375 810.574836 260.615625 C 802.860197 259.961719 789.1875 252.292969 789.1875 248.620312 C 789.1875 247.93125 791.082237 249.103125 793.396382 251.224219 C 798.530428 255.930469 805.665296 258.885938 811.894737 258.885938 L 816.557566 258.885938 L 813.67352 255.049219 C 812.015625 252.846094 810.530428 248.667187 810.182566 245.228906 C 809.625 239.746875 809.047697 238.875 803.324013 234.897656 C 799.887336 232.507031 795.629112 228.925781 793.862664 226.935937 L 790.650493 223.321875 L 789.009868 227.613281 C 788.109375 229.973437 787.009046 231.904687 786.5625 231.904687 C 786.118421 231.904687 784.386513 230.526562 782.713816 228.839062 C 781.041118 227.153906 779.336349 225.780469 778.926809 225.7875 C 778.514803 225.794531 777.034539 228.067969 775.633224 230.835938 L 773.084704 235.867969 L 771.118421 232.966406 C 770.035362 231.372656 767.476974 228.548438 765.434211 226.694531 C 763.391447 224.838281 762.318257 223.321875 763.046053 223.321875 C 763.776316 223.321875 766.297697 225.253125 768.648849 227.615625 L 772.926809 231.909375 L 774.666118 228.764062 C 775.699836 226.896094 776.087171 224.029687 775.618421 221.709375 C 774.9375 218.329688 775.033717 218.132812 776.328947 220.25625 C 777.152961 221.603906 779.654605 224.191406 781.887336 226.003125 L 785.950658 229.296094 L 788.753289 224.163281 C 791.543586 219.053906 791.560855 219.044531 792.831414 222.09375 C 794.528783 226.174219 806.8125 236.242969 817.268092 242.125781 C 818.879112 243.032812 818.200658 239.915625 815.225329 232.746094 C 814.435855 230.847656 813.791941 227.423438 813.791941 225.138281 C 813.791941 221.749219 812.8125 220.239844 808.477796 216.939844 C 802.21875 212.177344 800.193257 208.790625 799.01398 201.105469 C 798.535362 197.992969 797.439967 194.53125 796.578947 193.413281 C 795.303454 191.751563 795.091283 192.682031 795.434211 198.459375 C 795.663651 202.352344 795.157895 207.194531 794.306743 209.217187 L 792.762336 212.896875 L 791.570724 209.83125 C 790.912007 208.146094 788.008224 205.211719 785.116776 203.315625 C 782.222862 201.417187 780.192434 199.544531 780.604441 199.155469 C 781.016447 198.766406 783.991776 200.496094 787.21875 202.999219 C 792.133224 206.8125 793.213816 207.227344 793.894737 205.546875 C 794.696546 203.573437 793.894737 194.983594 792.350329 188.983594 C 791.578125 185.985938 791.644737 186.002344 795.342928 189.698437 C 798.069079 192.424219 799.57648 195.677344 800.745888 201.349219 C 802.228618 208.55625 802.978618 209.75625 809.64227 215.60625 C 813.643914 219.119531 817.125 221.798438 817.379112 221.557031 C 817.635691 221.315625 818.13898 212.226562 818.501645 201.358594 C 819.197368 180.515625 818.412829 175.558594 813.39227 169.117969 L 810.814145 165.810937 L 814.867599 161.4375 C 820.157072 155.732812 822.584704 151.160156 823.638158 144.921094 L 824.494243 139.846875 L 819.92023 144.180469 C 816.172697 147.728906 814.384046 148.514062 810.044408 148.514062 C 805.749178 148.514062 804.071546 147.792187 801.175164 144.707812 C 797.70148 141.007031 791.546053 137.444531 785.627467 135.710156 C 783.439145 135.070312 782.713816 135.349219 782.713816 136.828125 C 782.713816 137.913281 781.504934 141.042187 780.029605 143.782031 L 777.345395 148.764844 L 771.720395 143.207812 C 768.271382 139.797656 764.175987 137.142188 761.131579 136.342969 C 753.350329 134.296875 752.928454 134.498437 752.928454 140.296875 C 752.928454 149.090625 749.175987 150.728906 742.418586 144.883594 C 737.26727 140.428125 732.994243 139.460156 723.226974 140.533594 L 715.685033 141.360938 L 717.041941 144.766406 C 718.174342 147.611719 717.92023 148.809375 715.490132 152.041406 C 711.550164 157.279687 706.428454 159.550781 698.543586 159.550781 C 694.912007 159.550781 690.365132 160.300781 688.443257 161.219531 C 686.518914 162.138281 681.742599 163.197656 677.824836 163.572656 C 673.907072 163.947656 669.73273 164.615625 668.546053 165.058594 C 666.690789 165.752344 666.488487 165.180469 667.085526 160.961719 C 668.000822 154.502344 663.488487 149.739844 656.457237 149.739844 C 647.336349 149.739844 643.129934 157.898438 646.702303 168.660937 C 647.388158 170.732812 648.288651 174 648.700658 175.919531 C 649.127467 177.914062 653.237664 183.203906 658.268092 188.238281 C 663.120888 193.092187 667.70477 198.142969 668.457237 199.4625 C 669.209704 200.779687 671.699013 202.898438 673.98602 204.166406 L 678.148026 206.470313 L 677.597862 202.019531 C 676.995888 197.125781 678.061678 196.359375 680.664474 199.811719 C 681.594572 201.046875 683.958059 203.041406 685.916941 204.246094 C 689.003289 206.142188 689.479441 206.179688 689.479441 204.534375 C 689.479441 203.489062 690.108553 201.079688 690.875822 199.18125 L 692.274671 195.728906 L 694.699836 200.425781 C 696.032072 203.008594 700.369243 208.879687 704.338816 213.473437 C 712.036184 222.384375 716.726151 232.342969 714.305921 234.6375 C 713.324013 235.565625 710.669408 235.495312 705.167763 234.389062 C 700.904605 233.53125 695.629934 233.078906 693.446546 233.38125 C 688.988487 234.002344 688.638158 233.425781 691.379112 229.994531 C 694.273026 226.371094 693.811678 225.773438 688.129934 225.773438 C 681.552632 225.773438 665.227796 222.621094 658.961349 220.141406 C 652.867599 217.732031 651.461349 218.332031 649.667763 224.111719 C 648.86102 226.710938 647.383224 231.424219 646.384046 234.583594 L 644.568257 240.328125 L 651.160362 239.692969 C 654.787007 239.34375 659.449836 238.551562 661.524671 237.930469 C 663.597039 237.309375 665.481908 236.978906 665.713816 237.196875 C 665.943257 237.4125 665.018092 239.657812 663.658717 242.184375 L 661.186678 246.775781 L 665.296875 245.939062 C 667.556743 245.477344 670.958882 244.35 672.856086 243.43125 C 676.154605 241.835156 676.421053 241.952344 679.023849 246.128906 C 682.223684 251.266406 684.784539 251.055469 685.351974 245.608594 C 685.939145 239.974219 687.791941 240.808594 691.277961 248.273438 C 694.628289 255.45 698.116776 257.983594 698.785362 253.729687 C 699.007401 252.316406 700.813322 250.017187 702.799342 248.617969 C 706.810855 245.791406 709.835526 246.639844 711.569901 251.078906 C 713.365954 255.675 709.361842 260.411719 697.717105 267.471094 C 674.390625 281.610937 660.831414 300.949219 656.960526 325.598437 C 653.469572 347.83125 664.374178 370.804688 686.25 387.304688 C 696.717928 395.203125 713.348684 403.5375 712.292763 400.357031 C 707.805099 386.85 707.953125 361.082812 712.544408 356.735156 C 713.23273 356.083594 712.995888 358.771875 712.016447 362.709375 C 708.372533 377.38125 709.956414 389.074219 719.299342 416.472656 C 727.749178 441.255469 726.57977 451.846875 714.619243 458.847656 C 710.777961 461.095312 708.305921 461.465625 697.976151 461.341406 C 686.770559 461.205469 685.549342 461.430469 681.949836 464.296875 C 678.461349 467.076562 673.939145 476.203125 673.939145 480.461719 C 673.939145 482.770312 676.502467 482.465625 681.535362 479.557031 Z M 772.354441 264.632812 C 772.354441 262.832812 767.069901 257.957812 761.716283 254.814844 C 757.512336 252.346875 756.816612 252.271875 756.806743 254.285156 C 756.794408 257.341406 754.075658 265.014844 753.009868 265.014844 C 752.407895 265.014844 751.519737 263.514844 751.033717 261.682031 C 750.547697 259.849219 748.507401 256.2375 746.504112 253.654687 L 742.85773 248.957812 L 740.018092 253.310156 C 737.370888 257.364844 732.787007 261.3375 730.751645 261.3375 C 730.265625 261.3375 730.169408 259.2 730.539474 256.591406 C 730.941612 253.753125 730.633224 251.503125 729.769737 250.999219 C 728.975329 250.535156 728.32648 250.696875 728.32648 251.360156 C 728.32648 252.888281 721.958882 260.109375 720.611842 260.109375 C 720.056743 260.109375 719.279605 258.039844 718.884868 255.510937 C 718.490132 252.982031 717.819079 248.98125 717.394737 246.621094 C 716.970395 244.258594 717.875822 245.861719 719.410362 250.178906 L 722.198191 258.028125 L 725.254934 253.244531 C 726.9375 250.6125 728.316612 247.736719 728.319079 246.855469 C 728.319079 245.971875 728.891447 245.580469 729.584704 245.985937 C 730.275493 246.389062 731.237664 249.553125 731.723684 253.014844 L 732.604441 259.305469 L 735.969572 255.616406 C 737.819901 253.589062 739.988487 250.872656 740.787829 249.58125 C 742.213816 247.277344 742.29523 247.279687 745.134868 249.686719 C 746.723684 251.034375 749.171053 254.261719 750.567434 256.85625 C 751.966283 259.450781 753.29852 261.382031 753.527961 261.15 C 753.754934 260.915625 754.268092 258.241406 754.665296 255.20625 C 755.0625 252.16875 755.417763 249.574219 755.45477 249.435937 C 755.652138 248.683594 765.589638 255.142969 769.265625 258.414844 C 771.629112 260.517187 773.874178 261.942187 774.254112 261.58125 C 774.634046 261.222656 774.944901 258.121875 774.944901 254.690625 C 774.944901 249.372656 774.379934 247.947656 771.128289 245.041406 C 767.388158 241.699219 767.284539 241.680469 765.902961 244.125 C 764.109375 247.298437 761.995066 247.345312 761.995066 244.209375 C 761.995066 241.921875 754.929276 233.130469 753.091283 233.130469 C 752.615132 233.130469 751.125 235.061719 749.782895 237.421875 C 748.440789 239.784375 746.997533 241.713281 746.575658 241.710938 C 744.762336 241.699219 734.802632 230.592187 734.805099 228.588281 C 734.805099 226.994531 735.478618 227.402344 737.222862 230.064844 C 738.550164 232.0875 741.202303 235.108594 743.114309 236.777344 C 746.987664 240.157031 748.396382 239.334375 749.88898 232.823437 C 750.315789 230.969531 751.055921 229.450781 751.534539 229.450781 C 753.189967 229.450781 761.861842 238.661719 763.080592 241.715625 L 764.304276 244.78125 L 765.231908 241.408594 C 766.366776 237.283594 767.617599 237.13125 769.428454 240.895312 C 770.185855 242.465625 773.921053 245.735156 777.730263 248.15625 L 784.655428 252.5625 L 786.046875 248.130469 C 786.809211 245.695312 787.823191 244.29375 788.296875 245.020312 C 789.002467 246.100781 787.20148 253.44375 785.844572 255.021094 C 785.639803 255.260156 783.394737 253.952344 780.856086 252.117188 L 776.237664 248.782031 L 776.220395 254.753906 C 776.208059 258.0375 775.850329 261.965625 775.421053 263.482031 C 774.582237 266.449219 772.354441 267.285937 772.354441 264.632812 Z M 737.819901 217.026562 C 729.587171 210.154687 728.338816 208.582031 728.521382 205.324219 L 728.713816 201.857812 L 729.251645 205.207031 C 729.564967 207.161719 731.758224 210.091406 734.521382 212.247656 L 739.253289 215.941406 L 742.159539 212.580469 C 743.758224 210.728906 745.087993 208.525781 745.115132 207.684375 C 745.181743 205.485938 745.57648 205.66875 751.149671 210.503906 C 756.101151 214.802344 756.177632 214.821094 756.912829 212.039062 C 757.324836 210.485156 757.179276 207.564844 756.589638 205.544531 C 754.971217 199.994531 755.289474 199.157813 757.741776 202.504687 C 758.962993 204.173438 760.926809 206.53125 762.106086 207.742969 C 764.158717 209.857031 764.282072 209.83125 765.046875 207.13125 C 765.48602 205.579688 765.851151 202.741406 765.86102 200.821875 L 765.880757 197.334375 L 770.34375 202.394531 C 774.515625 207.121875 774.898026 207.295312 776.171053 205.042969 C 776.921053 203.71875 777.542763 200.526562 777.555099 197.953125 C 777.567434 194.627344 777.917763 193.788281 778.76398 195.05625 C 780.175164 197.170312 779.195724 202.926562 776.587993 207.829688 L 774.717928 211.35 L 772.260691 207.525 C 769.117599 202.63125 768.071546 202.710938 766.055921 207.989062 C 764.151316 212.978906 762.912829 213.358594 761.055099 209.521875 C 759.853618 207.039844 759.626645 207.344531 758.773026 212.559375 L 757.825658 218.357812 L 752.146382 213.949219 L 746.467105 209.542969 L 743.916118 212.446875 C 742.512336 214.042969 741.342928 216.0375 741.320724 216.88125 C 741.268914 218.709375 739.902138 218.765625 737.819901 217.026562 Z M 811.043586 191.432812 C 808.046053 188.732812 805.983553 186.157031 806.45477 185.709375 C 806.928454 185.259375 807.461349 185.132812 807.641447 185.423438 C 807.819079 185.714062 810.266447 188.289844 813.083882 191.146875 C 819.564967 197.723437 818.23273 197.908594 811.043586 191.432812 Z M 713.509046 181.35 C 710.782895 177.665625 710.970395 175.223437 714.288651 171.229687 C 716.686678 168.342187 717.782072 167.950781 721.96875 168.482812 C 724.652961 168.825 730.430921 171.196875 734.810033 173.75625 C 739.865132 176.711719 745.092928 178.689844 749.143914 179.182031 C 752.649671 179.608594 755.518914 179.767969 755.518914 179.538281 C 755.518914 179.308594 754.063322 176.936719 752.282072 174.264844 C 748.053454 167.922656 748.199013 167.240625 752.967928 171.042187 C 757.862664 174.942187 763.719572 176.083594 776.805099 175.685156 L 783.197368 175.490625 L 779.489309 171.825 C 774.300987 166.696875 775.899671 166.2375 781.625822 171.208594 C 786.999178 175.872656 786.661184 176.200781 775.354441 177.328125 C 770.550987 177.808594 765.382401 177.461719 761.087171 176.369531 C 754.662829 174.733594 754.413651 174.759375 755.629934 176.913281 C 756.333059 178.155469 757.467928 179.170312 758.15625 179.170312 C 758.842105 179.170312 759.404605 179.798438 759.404605 180.569531 C 759.404605 182.932031 745.527138 180.853125 738.893092 177.494531 C 723.742599 169.823437 721.835526 169.160156 718.231086 170.296875 C 716.222862 170.929688 714.214638 172.778906 713.523849 174.635156 C 711.214638 180.822656 719.987664 185.632031 723.606908 180.161719 C 724.657895 178.577344 724.411184 177.492188 722.568257 175.563281 C 720.044408 172.921875 720.28125 172.544531 723.688322 173.782031 C 726.108553 174.663281 726.434211 180.473437 724.184211 182.603906 C 721.606086 185.04375 715.729441 184.352344 713.509046 181.35 Z M 773.193257 166.066406 C 771.29852 164.273438 772.783717 163.832812 781.277961 163.675781 C 791.787829 163.478906 798.167763 161.728125 805.697368 156.975 C 811.731908 153.166406 813.367599 153.914062 807.641447 157.863281 C 802.416118 161.465625 794.26727 164.235938 786.402138 165.082031 C 782.592928 165.492188 778.250822 166.061719 776.755757 166.345313 C 775.258224 166.628906 773.654605 166.504687 773.193257 166.066406 Z M 863.452303 479.060156 L 868.154605 476.039062 L 871.344572 479.060156 C 875.523849 483.01875 880.421053 482.929688 884.439967 478.823437 C 886.191612 477.032812 887.768092 475.790625 887.938322 476.064844 C 888.108553 476.339062 888.890625 477.667969 889.675164 479.015625 C 890.669408 480.724219 892.712171 481.582031 896.398026 481.842187 C 900.838816 482.15625 902.032895 481.725 903.796875 479.175 L 905.901316 476.135156 L 910.529605 479.109375 C 923.198191 487.251562 929.948191 478.708594 924.286184 461.697656 C 921.407072 453.046875 922.990954 448.185937 932.269737 437.175 C 936.182566 432.534375 939.387336 427.579687 939.39227 426.164062 C 939.39227 423.911719 938.666941 423.609375 933.458882 423.7125 C 928.475329 423.810937 927.019737 423.276563 924.394737 420.389062 C 920.129112 415.692187 920.383224 410.313281 925.152138 404.346094 L 928.961349 399.576562 L 922.20148 394.989844 C 918.483553 392.467969 911.780428 386.498437 907.302632 381.724219 C 897.249178 371.00625 887.363487 365.922656 874.32977 364.769531 L 865.588816 363.996094 L 865.601151 370.6125 C 865.618421 379.129687 869.615132 387.323438 880.524671 401.200781 C 892.931743 416.978906 893.797697 419.421094 894.29852 440.046094 L 894.722862 457.488281 L 891.133224 460.89375 C 887.891447 463.971094 886.428454 464.364844 875.962993 464.967187 C 865.998355 465.54375 863.903783 466.057031 860.980263 468.646875 C 857.097039 472.0875 855.935033 473.957812 854.73602 478.708594 C 854.037829 481.478906 854.321546 482.08125 856.317434 482.08125 C 857.657072 482.08125 860.866776 480.721875 863.452303 479.060156 Z M 596.819901 433.980469 C 597.927632 432.482812 598.835526 430.061719 598.835526 428.601562 C 598.835526 426.396094 599.819901 425.807813 604.665296 425.11875 L 610.497533 424.291406 L 606.609375 421.192969 C 601.988487 417.510938 601.561678 414.635156 605.632401 414.628125 C 609.688322 414.628125 616.559211 410.416406 617.602796 407.299219 C 618.088816 405.850781 617.782895 403.917188 616.912007 402.923437 C 614.637336 400.328906 610.364309 400.720312 609.569901 403.596094 C 608.716283 406.685156 607.287829 406.694531 604.04852 403.626562 C 599.17352 399.009375 599.064967 389.45625 603.821546 383.894531 C 606.064145 381.271875 606.044408 381.100781 603.185033 378.39375 C 600.11102 375.480469 597.915296 369.719531 599.358553 368.350781 C 599.819901 367.914844 602.247533 368.261719 604.756579 369.121875 C 608.324013 370.342969 609.730263 370.361719 611.198191 369.20625 C 615.648849 365.709375 610.828125 361.211719 603.693257 362.203125 C 600.821546 362.603906 599.634868 362.203125 599.222862 360.714844 C 598.909539 359.585156 596.398026 358.108594 593.568257 357.39375 C 588.510691 356.116406 588.476151 356.130469 588.476151 359.615625 C 588.476151 363.433594 586.29523 364.153125 582.155428 361.703906 C 578.790296 359.714063 575.526316 361.258594 575.526316 364.842187 C 575.526316 368.186719 578.88898 369.834375 584.913651 369.445312 C 589.537007 369.147656 589.707237 372.585938 585.318257 377.526563 L 582.162829 381.079687 L 584.662007 384.672656 C 588.367599 389.992969 588.054276 398.828906 584.008224 403.21875 L 580.835526 406.659375 L 578.755757 403.900781 C 575.864309 400.066406 571.907072 400.321875 570.824013 404.416406 C 570.113487 407.095312 570.700658 408.321094 574.055921 411.161719 C 576.310855 413.069531 579.604441 414.630469 581.373355 414.630469 C 585.752467 414.630469 585.582237 418.073438 581.030428 421.553906 L 577.467928 424.275 L 582.972039 425.128125 C 585.999178 425.596875 588.476151 426.480469 588.476151 427.089844 C 588.476151 429.428906 592.290296 436.70625 593.516447 436.70625 C 594.224507 436.70625 595.709704 435.478125 596.819901 433.980469 Z M 668.479441 402.923437 C 673.477796 400.952344 684.29852 391.788281 684.29852 389.526563 C 684.29852 388.814062 681.313322 385.528125 677.662007 382.225781 C 669.979441 375.274219 661.623355 363.569531 659.457237 356.725781 C 658.32977 353.15625 652.875 347.046094 637.507401 332.144531 L 617.060033 312.311719 L 611.166118 313.804688 C 607.924342 314.625 603.969572 315.316406 602.378289 315.339844 C 599.632401 315.382031 599.684211 315.541406 603.330592 318.363281 L 607.179276 321.342187 L 612.574836 318.346875 C 617.805099 315.445312 617.992599 315.426562 618.636513 317.763281 C 619.01398 319.129687 618.199836 321.501562 616.754112 323.242969 C 615.352796 324.930469 614.553454 326.842969 614.980263 327.496875 C 615.404605 328.148438 614.057566 329.5125 611.987664 330.527344 C 608.146382 332.407031 605.481908 338.596875 608.511513 338.596875 C 611.237664 338.596875 617.25 331.18125 616.556743 328.671094 C 616.20148 327.386719 616.374178 326.067187 616.939145 325.736719 C 619.280428 324.365625 619.132401 330.1875 616.754112 333.051562 C 615.352796 334.741406 614.553454 336.653906 614.980263 337.307813 C 615.404605 337.959375 614.057566 339.323438 611.987664 340.338281 C 608.171053 342.20625 605.479441 348.407812 608.484375 348.407812 C 611.427632 348.407812 617.341283 341.320312 616.608553 338.669531 C 616.226151 337.282031 616.374178 335.878125 616.939145 335.547656 C 618.515625 334.624219 619.366776 339.220312 618.034539 341.472656 C 617.321546 342.679688 617.328947 344.327344 618.051809 345.632812 C 619.361842 348 618.032072 352.544531 615.619243 353.955469 C 614.585526 354.5625 615.286184 355.750781 617.79523 357.644531 C 621.426809 360.386719 621.495888 360.675 621.495888 372.775781 C 621.495888 382.886719 621.905428 385.497656 623.763158 387.257812 C 625.847862 389.233594 626.027961 389.240625 626.027961 387.344531 C 626.027961 385.277344 629.659539 382.748437 632.632401 382.748437 C 633.508224 382.748437 638.98273 387.386719 644.800164 393.058594 C 650.649671 398.765625 656.773026 403.619531 658.504934 403.928906 C 660.229441 404.235937 662.094572 404.564062 662.652138 404.655469 C 663.209704 404.746875 665.82977 403.96875 668.479441 402.923437 Z M 605.958059 353.995313 C 605.958059 350.735156 599.23273 347.257031 591.189967 346.354688 C 584.696546 345.625781 584.590461 345.667969 584.590461 348.911719 C 584.590461 351.595312 585.611842 352.652344 590.094572 354.604688 C 597.296053 357.738281 605.958059 357.407812 605.958059 353.995313 Z M 613.332237 353.697656 C 616.61102 350.721094 618.165296 347.182031 616.191612 347.182031 C 613.921875 347.182031 607.899671 352.586719 607.899671 354.623437 C 607.899671 357.801562 609.01727 357.611719 613.332237 353.697656 Z M 606.335526 344.0625 C 606.614309 342.222656 605.476974 340.994531 602.064967 339.454687 C 594.710526 336.133594 585.915296 334.59375 583.79852 336.260156 C 579.898026 339.325781 582.495888 343.441406 588.801809 344.182031 C 591.337993 344.479688 594.782072 345.255469 596.449836 345.902344 C 601.29523 347.784375 605.903783 346.926562 606.335526 344.0625 Z M 606.335526 334.211719 C 606.73273 331.586719 605.055099 330.649219 591.35773 325.828125 C 581.131579 322.228125 576.606908 323.925 579.873355 330.133594 C 581.013158 332.296875 582.922697 333.283594 587.208059 333.925781 C 590.395559 334.401563 594.75 335.336719 596.886513 336 C 602.595395 337.771875 605.893914 337.146094 606.335526 334.211719 Z M 613.20148 324.977344 C 615.268914 322.884375 616.958882 320.411719 616.958882 319.483594 C 616.958882 316.478906 608.797697 321.796875 607.756579 325.48125 C 606.508224 329.899219 608.53125 329.711719 613.20148 324.977344 Z M 606.342928 324.358594 C 606.791941 321.367969 601.820724 318.670312 592.04852 316.596094 C 584.876645 315.072656 581.713816 315.9375 582.251645 319.267969 C 582.542763 321.089063 584.930921 322.417969 591.708059 324.532031 C 602.550987 327.916406 605.8125 327.876562 606.342928 324.358594 Z M 615.900493 310.446094 C 628.42352 304.870313 629.506579 290.810156 617.696546 287.11875 C 612.794408 285.585938 609.663651 286.413281 607.786184 289.734375 C 606.347862 292.277344 607.310033 296.901563 609.276316 296.901563 C 609.939967 296.901563 610.48273 297.757031 610.48273 298.802344 C 610.48273 303.684375 591.360197 305.896875 583.519737 301.921875 C 580.76398 300.525 579.564967 296.901563 581.856908 296.901563 C 583.571546 296.901563 584.755757 293.207812 583.879934 290.594531 C 582.685855 287.036719 579.098684 285.803906 573.895559 287.163281 C 562.157072 290.233594 562.485197 304.028906 574.438322 309.883594 C 584.240132 314.683594 605.726151 314.974219 615.900493 310.446094 Z M 608.106908 299.64375 C 608.832237 298.954687 608.516447 297.9 607.300164 296.94375 C 604.638158 294.850781 604.78125 291.738281 607.702303 288.175781 C 609.895559 285.499219 610.169408 281.496094 610.924342 241.101562 C 612.224507 171.489844 617.400493 119.130469 624.224507 106.570312 C 626.940789 101.56875 626.558388 101.547656 619.539474 106.324219 C 610.497533 112.476562 603.614309 120.4875 597.513158 131.955469 C 585.996711 153.607031 581.995066 182.735156 581.995066 244.9125 C 581.995066 280.216406 582.236842 284.835938 584.247533 288.154687 C 586.157072 291.307031 586.258224 292.471875 584.916118 295.8375 C 584.047697 298.019531 583.652961 300.105469 584.040296 300.473437 C 586.61102 302.908594 605.341283 302.261719 608.106908 299.64375 Z M 713.34375 233.264062 C 713.73602 232.661719 712.867599 229.626563 711.416941 226.51875 C 709.152138 221.671875 708.241776 220.867969 705.01727 220.867969 C 694.914474 220.867969 678.675987 216.351562 661.934211 208.891406 C 652.265625 204.58125 648.925164 203.592187 647.765625 204.689063 C 644.807566 207.489844 649.724507 214.139062 657.337993 217.635937 C 664.092928 220.736719 682.973684 224.545312 691.586349 224.545312 C 696.582237 224.545312 696.700658 224.770312 693.858553 228.88125 L 691.766447 231.904687 L 697.418586 232.05 C 700.527138 232.129687 704.819901 232.614844 706.956414 233.130469 C 712.504934 234.46875 712.556743 234.46875 713.34375 233.264062 Z M 713.34375 233.264062 " transform="matrix(1.583333,0,0,1.666667,0,0)"/>
<path style=" stroke:none;fill-rule:nonzero;fill:rgb(100%,71.764706%,0%);fill-opacity:1;" d="M 1079.101562 799.261719 L 1086.003906 795.066406 L 1088.957031 799.269531 C 1092.890625 804.867188 1103.773438 804.804688 1110.996094 799.140625 L 1116.519531 794.808594 L 1121.144531 799.140625 C 1127.226562 804.832031 1138.582031 804.839844 1145.832031 799.160156 C 1150.90625 795.179688 1151.613281 795.097656 1154.972656 798.125 C 1156.972656 799.933594 1162.839844 801.988281 1168.011719 802.695312 C 1177.328125 803.964844 1177.46875 803.898438 1182.917969 795.289062 C 1187.480469 788.082031 1188.195312 785.164062 1187.105469 778.175781 C 1186.386719 773.539062 1185.605469 766.082031 1185.378906 761.597656 C 1184.964844 753.484375 1185.007812 753.433594 1196.238281 749.316406 C 1202.441406 747.042969 1209.621094 743.996094 1212.195312 742.542969 C 1216.679688 740.007812 1229.042969 724.710938 1229.042969 721.695312 C 1229.042969 720.894531 1224.214844 719.671875 1218.308594 718.972656 C 1194.824219 716.203125 1190.847656 702.925781 1206.113281 678.269531 C 1231.011719 638.054688 1246.039062 598.894531 1246.136719 573.945312 C 1246.183594 562.796875 1246.785156 559.050781 1248.148438 561.476562 C 1253.710938 571.386719 1243.746094 612.9375 1228.648438 642.777344 L 1222.570312 654.789062 L 1228.371094 653.386719 C 1231.558594 652.613281 1250.316406 644.28125 1270.050781 634.875 C 1324.066406 609.121094 1342.617188 604.074219 1377.574219 605.625 C 1406.863281 606.925781 1419.335938 612.945312 1440.011719 635.777344 C 1450.96875 647.871094 1461.519531 656.523438 1480.824219 669.242188 C 1521.949219 696.339844 1523.664062 698.6875 1525.621094 730.554688 C 1527.601562 762.84375 1526.617188 764.597656 1503.414062 769.992188 C 1483.585938 774.601562 1471.152344 784.335938 1467.820312 797.851562 C 1466.039062 805.074219 1469.785156 805.28125 1479.785156 798.515625 L 1487.109375 793.558594 L 1490.367188 798.515625 C 1494.652344 805.035156 1503.753906 805.058594 1511.316406 798.578125 L 1517.027344 793.679688 L 1522.863281 798.578125 C 1531.933594 806.183594 1543.996094 804.339844 1547.398438 794.824219 C 1548.054688 792.992188 1549.800781 793.578125 1553.335938 796.816406 C 1559.964844 802.878906 1576.949219 805.476562 1578.785156 800.710938 C 1579.484375 798.890625 1578.15625 794.402344 1575.828125 790.730469 C 1565.945312 775.128906 1562.855469 767.691406 1562.726562 759.199219 C 1562.546875 747.390625 1565.894531 741.691406 1578.65625 732.085938 C 1594.160156 720.417969 1598.949219 705.363281 1587.160156 705.363281 C 1579.882812 705.363281 1572.542969 698.59375 1567.863281 687.554688 C 1558.351562 665.121094 1560.214844 639.96875 1574.492188 598.125 C 1588.996094 555.625 1590.601562 547.789062 1590.660156 519.367188 C 1590.707031 496.382812 1590.160156 492.410156 1585.191406 479.808594 C 1582.152344 472.105469 1575.992188 460.636719 1571.496094 454.320312 L 1563.324219 442.835938 L 1573.816406 433.683594 C 1605.855469 405.746094 1599.300781 360.019531 1560.734375 342.402344 C 1548.933594 337.015625 1545.988281 336.539062 1525.3125 336.683594 C 1512.90625 336.773438 1493.992188 338.492188 1483.28125 340.503906 C 1472.359375 342.554688 1453.871094 344.203125 1441.1875 344.257812 C 1421.039062 344.34375 1417.621094 343.820312 1409.855469 339.46875 C 1401.757812 334.933594 1400.371094 332.78125 1398.785156 322.296875 C 1398.460938 320.140625 1397.027344 317.988281 1395.605469 317.515625 C 1392.851562 316.601562 1380.132812 328.222656 1378.253906 333.367188 C 1377.328125 335.90625 1376.570312 335.730469 1373.851562 332.34375 C 1372.046875 330.097656 1369.523438 324.929688 1368.25 320.863281 C 1365.039062 310.640625 1368.980469 302.972656 1380.398438 297.230469 L 1389.257812 292.773438 L 1384.035156 289.359375 C 1373.253906 282.320312 1354.925781 287.136719 1348.296875 298.753906 C 1346.421875 302.039062 1344.375 304.730469 1343.75 304.738281 C 1343.125 304.746094 1339.5625 301.613281 1335.828125 297.773438 C 1321.910156 283.457031 1326.699219 262.277344 1345.316406 255.8125 C 1355.242188 252.363281 1364.027344 254.996094 1365.855469 261.960938 C 1368.644531 272.601562 1377.320312 258.617188 1375.765625 245.988281 C 1374.730469 237.59375 1374.882812 237.300781 1380.402344 237.300781 C 1388.078125 237.300781 1404.414062 247.90625 1409.464844 256.167969 C 1415.335938 265.761719 1414.90625 280.871094 1408.449219 292.132812 L 1403.378906 300.976562 L 1410.011719 299.578125 C 1419.738281 297.527344 1429.1875 291.167969 1433.96875 283.457031 C 1439.023438 275.304688 1439.566406 259.433594 1435.085938 250.863281 C 1430.742188 242.5625 1431.242188 241.246094 1437.660156 244.050781 C 1448.582031 248.824219 1454.417969 254.085938 1458.800781 263.101562 C 1462.742188 271.222656 1462.960938 273.242188 1460.828125 281.695312 C 1459.511719 286.910156 1456.578125 293.773438 1454.316406 296.941406 C 1450.789062 301.878906 1450.667969 302.707031 1453.476562 302.707031 C 1458.710938 302.707031 1469.636719 297.496094 1473.519531 293.144531 C 1475.480469 290.949219 1478.335938 285.539062 1479.871094 281.125 L 1482.660156 273.097656 L 1485.863281 279.214844 C 1490.390625 287.867188 1499.199219 295.652344 1509.933594 300.5 C 1521.480469 305.710938 1526.289062 306.003906 1520.25 301.128906 C 1516.179688 297.839844 1508.675781 274.664062 1510.949219 272.398438 C 1512.289062 271.066406 1527.964844 283.761719 1545.867188 300.679688 C 1562.800781 316.679688 1573.441406 321.921875 1588.992188 321.921875 C 1608.859375 321.921875 1620.429688 303.714844 1611.5 286.503906 C 1606.292969 276.46875 1594.695312 275.074219 1587.914062 283.667969 C 1584.796875 287.621094 1583.9375 290.765625 1584.851562 294.910156 C 1585.972656 299.988281 1585.535156 300.664062 1581.140625 300.664062 C 1575.363281 300.664062 1563.980469 292.886719 1543.765625 275.128906 C 1512.933594 248.050781 1475.472656 225.097656 1448.425781 216.710938 C 1431.066406 211.332031 1393.984375 209.230469 1376.339844 212.628906 C 1357.242188 216.308594 1334.652344 227.8125 1322.347656 240.128906 C 1300.539062 261.953125 1300.195312 290.992188 1321.425781 317.4375 L 1327.507812 325.011719 L 1323.390625 331.746094 C 1317.398438 341.539062 1317.914062 354.71875 1324.660156 364.425781 C 1327.632812 368.703125 1330.632812 372.199219 1331.324219 372.199219 C 1332.019531 372.195312 1332.777344 369.445312 1333.011719 366.089844 C 1333.609375 357.59375 1337.070312 351.902344 1343.015625 349.648438 C 1348.371094 347.621094 1351.832031 348.578125 1376.347656 358.878906 C 1402.136719 369.714844 1444.550781 370.460938 1489.652344 360.871094 C 1511.761719 356.167969 1537.832031 356.445312 1549.304688 361.503906 C 1570.328125 370.773438 1575.199219 394.894531 1559.746094 413.207031 C 1553.054688 421.132812 1546.601562 424.359375 1524.9375 430.621094 C 1508.453125 435.382812 1504.546875 435.699219 1467.078125 435.304688 C 1435.066406 434.96875 1423.5625 435.613281 1410.496094 438.488281 C 1396.308594 441.605469 1387.582031 441.917969 1345.910156 440.8125 L 1297.730469 439.535156 L 1303.074219 444.191406 C 1306.011719 446.753906 1310.164062 449.90625 1312.296875 451.195312 C 1315.933594 453.390625 1315.8125 453.6875 1310.410156 455.796875 C 1307.234375 457.035156 1300.191406 458.046875 1294.753906 458.046875 L 1284.867188 458.046875 L 1283.539062 466.890625 C 1282.804688 471.753906 1282.863281 477.433594 1283.660156 479.507812 C 1284.839844 482.570312 1284.398438 483.011719 1281.332031 481.839844 C 1279.253906 481.042969 1273.464844 479.480469 1268.46875 478.363281 C 1263.46875 477.246094 1256.742188 474.972656 1253.515625 473.308594 C 1248.09375 470.515625 1247.492188 470.589844 1245.496094 474.308594 C 1243.710938 477.632812 1226.964844 490.75 1224.507812 490.75 C 1224.113281 490.75 1223.601562 488.222656 1223.371094 485.128906 C 1223.140625 482.039062 1220.726562 473.992188 1218.003906 467.246094 C 1215.28125 460.5 1212.4375 453.140625 1211.683594 450.894531 C 1210.550781 447.503906 1210.035156 447.328125 1208.667969 449.871094 C 1207.757812 451.558594 1206.433594 456.15625 1205.722656 460.089844 C 1205.011719 464.027344 1202.488281 470.417969 1200.117188 474.296875 L 1195.804688 481.347656 L 1193.050781 475.316406 C 1190.097656 468.847656 1185.195312 462.136719 1183.421875 462.136719 C 1182.824219 462.136719 1181.800781 464.203125 1181.152344 466.734375 C 1179.800781 472.015625 1168.175781 486.664062 1165.335938 486.664062 C 1164.289062 486.664062 1163.433594 482.523438 1163.433594 477.464844 C 1163.433594 472.40625 1162.511719 468.265625 1161.386719 468.265625 C 1160.257812 468.265625 1159.335938 469.578125 1159.335938 471.175781 C 1159.335938 475.066406 1149.40625 486.664062 1146.078125 486.664062 C 1144.625 486.664062 1142.285156 488.042969 1140.882812 489.730469 C 1137.222656 494.125 1134.226562 493.507812 1135.765625 488.675781 C 1136.488281 486.410156 1136.019531 481.121094 1134.722656 476.921875 C 1133.429688 472.722656 1132.050781 468.257812 1131.664062 466.992188 C 1131.175781 465.402344 1127.617188 465.824219 1120.085938 468.367188 C 1107.917969 472.472656 1103.839844 471.746094 1110.097656 466.585938 C 1112.386719 464.699219 1115.867188 458.167969 1117.832031 452.070312 C 1119.796875 445.96875 1122.695312 440.558594 1124.273438 440.042969 C 1126.484375 439.320312 1126.367188 440.214844 1123.761719 443.921875 C 1121.902344 446.570312 1120.375 450.140625 1120.367188 451.859375 C 1120.367188 453.578125 1118.960938 457.648438 1117.253906 460.90625 C 1115.550781 464.164062 1114.476562 467.152344 1114.871094 467.546875 C 1115.269531 467.941406 1119.898438 466.089844 1125.160156 463.433594 L 1134.730469 458.605469 L 1134.769531 462.925781 C 1134.792969 465.300781 1135.945312 471.570312 1137.332031 476.855469 L 1139.855469 486.46875 L 1146.371094 483.316406 C 1153.027344 480.09375 1159.332031 468.613281 1159.332031 459.710938 C 1159.332031 455.308594 1161.730469 455.984375 1162.710938 460.660156 C 1162.996094 462.035156 1164.5 467.1875 1166.050781 472.109375 L 1168.867188 481.0625 L 1173.328125 475.410156 C 1175.78125 472.300781 1178.855469 466.203125 1180.164062 461.859375 C 1182.429688 454.316406 1185.988281 451.074219 1185.988281 456.550781 C 1185.988281 460.496094 1196.21875 474.652344 1198.191406 473.4375 C 1199.148438 472.847656 1201.046875 467.535156 1202.414062 461.628906 C 1205.257812 449.351562 1209.847656 440.996094 1212.765625 442.792969 C 1213.863281 443.46875 1214.289062 444.78125 1213.714844 445.707031 C 1213.140625 446.632812 1215.496094 454.621094 1218.949219 463.449219 C 1222.40625 472.28125 1225.875 481.175781 1226.660156 483.210938 C 1227.921875 486.484375 1229.0625 486.007812 1236.46875 479.125 C 1241.078125 474.839844 1245.261719 470.042969 1245.765625 468.464844 C 1246.527344 466.078125 1247.554688 466.167969 1251.863281 468.984375 C 1257.890625 472.917969 1278.15625 479.261719 1279.71875 477.703125 C 1280.308594 477.117188 1280.90625 471.515625 1281.054688 465.253906 L 1281.324219 453.867188 L 1287.152344 455.140625 C 1290.359375 455.839844 1297.097656 455.796875 1302.128906 455.042969 L 1311.277344 453.675781 L 1303.125 447.789062 C 1298.640625 444.550781 1294.105469 440.359375 1293.046875 438.476562 C 1291.921875 436.46875 1287.929688 434.765625 1283.410156 434.359375 C 1271.195312 433.269531 1249.546875 420.488281 1249.546875 414.367188 C 1249.546875 413.21875 1252.546875 415.171875 1256.210938 418.707031 C 1264.339844 426.550781 1275.636719 431.476562 1285.5 431.476562 L 1292.882812 431.476562 L 1288.316406 425.082031 C 1285.691406 421.410156 1283.339844 414.445312 1282.789062 408.714844 C 1281.90625 399.578125 1280.992188 398.125 1271.929688 391.496094 C 1266.488281 387.511719 1259.746094 381.542969 1256.949219 378.226562 L 1251.863281 372.203125 L 1249.265625 379.355469 C 1247.839844 383.289062 1246.097656 386.507812 1245.390625 386.507812 C 1244.6875 386.507812 1241.945312 384.210938 1239.296875 381.398438 C 1236.648438 378.589844 1233.949219 376.300781 1233.300781 376.3125 C 1232.648438 376.324219 1230.304688 380.113281 1228.085938 384.726562 L 1224.050781 393.113281 L 1220.9375 388.277344 C 1219.222656 385.621094 1215.171875 380.914062 1211.9375 377.824219 C 1208.703125 374.730469 1207.003906 372.203125 1208.15625 372.203125 C 1209.3125 372.203125 1213.304688 375.421875 1217.027344 379.359375 L 1223.800781 386.515625 L 1226.554688 381.273438 C 1228.191406 378.160156 1228.804688 373.382812 1228.0625 369.515625 C 1226.984375 363.882812 1227.136719 363.554688 1229.1875 367.09375 C 1230.492188 369.339844 1234.453125 373.652344 1237.988281 376.671875 L 1244.421875 382.160156 L 1248.859375 373.605469 C 1253.277344 365.089844 1253.304688 365.074219 1255.316406 370.15625 C 1258.003906 376.957031 1277.453125 393.738281 1294.007812 403.542969 C 1296.558594 405.054688 1295.484375 399.859375 1290.773438 387.910156 C 1289.523438 384.746094 1288.503906 379.039062 1288.503906 375.230469 C 1288.503906 369.582031 1286.953125 367.066406 1280.089844 361.566406 C 1270.179688 353.628906 1266.972656 347.984375 1265.105469 335.175781 C 1264.347656 329.988281 1262.613281 324.21875 1261.25 322.355469 C 1259.230469 319.585938 1258.894531 321.136719 1259.4375 330.765625 C 1259.800781 337.253906 1259 345.324219 1257.652344 348.695312 L 1255.207031 354.828125 L 1253.320312 349.71875 C 1252.277344 346.910156 1247.679688 342.019531 1243.101562 338.859375 C 1238.519531 335.695312 1235.304688 332.574219 1235.957031 331.925781 C 1236.609375 331.277344 1241.320312 334.160156 1246.429688 338.332031 C 1254.210938 344.6875 1255.921875 345.378906 1257 342.578125 C 1258.269531 339.289062 1257 324.972656 1254.554688 314.972656 C 1253.332031 309.976562 1253.4375 310.003906 1259.292969 316.164062 C 1263.609375 320.707031 1265.996094 326.128906 1267.847656 335.582031 C 1270.195312 347.59375 1271.382812 349.59375 1281.933594 359.34375 C 1288.269531 365.199219 1293.78125 369.664062 1294.183594 369.261719 C 1294.589844 368.859375 1295.386719 353.710938 1295.960938 335.597656 C 1297.0625 300.859375 1295.820312 292.597656 1287.871094 281.863281 L 1283.789062 276.351562 L 1290.207031 269.0625 C 1298.582031 259.554688 1302.425781 251.933594 1304.09375 241.535156 L 1305.449219 233.078125 L 1298.207031 240.300781 C 1292.273438 246.214844 1289.441406 247.523438 1282.570312 247.523438 C 1275.769531 247.523438 1273.113281 246.320312 1268.527344 241.179688 C 1263.027344 235.011719 1253.28125 229.074219 1243.910156 226.183594 C 1240.445312 225.117188 1239.296875 225.582031 1239.296875 228.046875 C 1239.296875 229.855469 1237.382812 235.070312 1235.046875 239.636719 L 1230.796875 247.941406 L 1221.890625 238.679688 C 1216.429688 232.996094 1209.945312 228.570312 1205.125 227.238281 C 1192.804688 223.828125 1192.136719 224.164062 1192.136719 233.828125 C 1192.136719 248.484375 1186.195312 251.214844 1175.496094 241.472656 C 1167.339844 234.046875 1160.574219 232.433594 1145.109375 234.222656 L 1133.167969 235.601562 L 1135.316406 241.277344 C 1137.109375 246.019531 1136.707031 248.015625 1132.859375 253.402344 C 1126.621094 262.132812 1118.511719 265.917969 1106.027344 265.917969 C 1100.277344 265.917969 1093.078125 267.167969 1090.035156 268.699219 C 1086.988281 270.230469 1079.425781 271.996094 1073.222656 272.621094 C 1067.019531 273.246094 1060.410156 274.359375 1058.53125 275.097656 C 1055.59375 276.253906 1055.273438 275.300781 1056.21875 268.269531 C 1057.667969 257.503906 1050.523438 249.566406 1039.390625 249.566406 C 1024.949219 249.566406 1018.289062 263.164062 1023.945312 281.101562 C 1025.03125 284.554688 1026.457031 290 1027.109375 293.199219 C 1027.785156 296.523438 1034.292969 305.339844 1042.257812 313.730469 C 1049.941406 321.820312 1057.199219 330.238281 1058.390625 332.4375 C 1059.582031 334.632812 1063.523438 338.164062 1067.144531 340.277344 L 1073.734375 344.117188 L 1072.863281 336.699219 C 1071.910156 328.542969 1073.597656 327.265625 1077.71875 333.019531 C 1079.191406 335.078125 1082.933594 338.402344 1086.035156 340.410156 C 1090.921875 343.570312 1091.675781 343.632812 1091.675781 340.890625 C 1091.675781 339.148438 1092.671875 335.132812 1093.886719 331.96875 L 1096.101562 326.214844 L 1099.941406 334.042969 C 1102.050781 338.347656 1108.917969 348.132812 1115.203125 355.789062 C 1127.390625 370.640625 1134.816406 387.238281 1130.984375 391.0625 C 1129.429688 392.609375 1125.226562 392.492188 1116.515625 390.648438 C 1109.765625 389.21875 1101.414062 388.464844 1097.957031 388.96875 C 1090.898438 390.003906 1090.34375 389.042969 1094.683594 383.324219 C 1099.265625 377.285156 1098.535156 376.289062 1089.539062 376.289062 C 1079.125 376.289062 1053.277344 371.035156 1043.355469 366.902344 C 1033.707031 362.886719 1031.480469 363.886719 1028.640625 373.519531 C 1027.363281 377.851562 1025.023438 385.707031 1023.441406 390.972656 L 1020.566406 400.546875 L 1031.003906 399.488281 C 1036.746094 398.90625 1044.128906 397.585938 1047.414062 396.550781 C 1050.695312 395.515625 1053.679688 394.964844 1054.046875 395.328125 C 1054.410156 395.6875 1052.945312 399.429688 1050.792969 403.640625 L 1046.878906 411.292969 L 1053.386719 409.898438 C 1056.964844 409.128906 1062.351562 407.25 1065.355469 405.71875 C 1070.578125 403.058594 1071 403.253906 1075.121094 410.214844 C 1080.1875 418.777344 1084.242188 418.425781 1085.140625 409.347656 C 1086.070312 399.957031 1089.003906 401.347656 1094.523438 413.789062 C 1099.828125 425.75 1105.351562 429.972656 1106.410156 422.882812 C 1106.761719 420.527344 1109.621094 416.695312 1112.765625 414.363281 C 1119.117188 409.652344 1123.90625 411.066406 1126.652344 418.464844 C 1129.496094 426.125 1123.15625 434.019531 1104.71875 445.785156 C 1067.785156 469.351562 1046.316406 501.582031 1040.1875 542.664062 C 1034.660156 579.71875 1051.925781 618.007812 1086.5625 645.507812 C 1103.136719 658.671875 1129.46875 672.5625 1127.796875 667.261719 C 1120.691406 644.75 1120.925781 601.804688 1128.195312 594.558594 C 1129.285156 593.472656 1128.910156 597.953125 1127.359375 604.515625 C 1121.589844 628.96875 1124.097656 648.457031 1138.890625 694.121094 C 1152.269531 735.425781 1150.417969 753.078125 1131.480469 764.746094 C 1125.398438 768.492188 1121.484375 769.109375 1105.128906 768.902344 C 1087.386719 768.675781 1085.453125 769.050781 1079.753906 773.828125 C 1074.230469 778.460938 1067.070312 793.671875 1067.070312 800.769531 C 1067.070312 804.617188 1071.128906 804.109375 1079.097656 799.261719 Z M 1222.894531 441.054688 C 1222.894531 438.054688 1214.527344 429.929688 1206.050781 424.691406 C 1199.394531 420.578125 1198.292969 420.453125 1198.277344 423.808594 C 1198.257812 428.902344 1193.953125 441.691406 1192.265625 441.691406 C 1191.3125 441.691406 1189.90625 439.191406 1189.136719 436.136719 C 1188.367188 433.082031 1185.136719 427.0625 1181.964844 422.757812 L 1176.191406 414.929688 L 1171.695312 422.183594 C 1167.503906 428.941406 1160.246094 435.5625 1157.023438 435.5625 C 1156.253906 435.5625 1156.101562 432 1156.6875 427.652344 C 1157.324219 422.921875 1156.835938 419.171875 1155.46875 418.332031 C 1154.210938 417.558594 1153.183594 417.828125 1153.183594 418.933594 C 1153.183594 421.480469 1143.101562 433.515625 1140.96875 433.515625 C 1140.089844 433.515625 1138.859375 430.066406 1138.234375 425.851562 C 1137.609375 421.636719 1136.546875 414.96875 1135.875 411.035156 C 1135.203125 407.097656 1136.636719 409.769531 1139.066406 416.964844 L 1143.480469 430.046875 L 1148.320312 422.074219 C 1150.984375 417.6875 1153.167969 412.894531 1153.171875 411.425781 C 1153.171875 409.953125 1154.078125 409.300781 1155.175781 409.976562 C 1156.269531 410.648438 1157.792969 415.921875 1158.5625 421.691406 L 1159.957031 432.175781 L 1165.285156 426.027344 C 1168.214844 422.648438 1171.648438 418.121094 1172.914062 415.96875 C 1175.171875 412.128906 1175.300781 412.132812 1179.796875 416.144531 C 1182.3125 418.390625 1186.1875 423.769531 1188.398438 428.09375 C 1190.613281 432.417969 1192.722656 435.636719 1193.085938 435.25 C 1193.445312 434.859375 1194.257812 430.402344 1194.886719 425.34375 C 1195.515625 420.28125 1196.078125 415.957031 1196.136719 415.726562 C 1196.449219 414.472656 1212.183594 425.238281 1218.003906 430.691406 C 1221.746094 434.195312 1225.300781 436.570312 1225.902344 435.96875 C 1226.503906 435.371094 1226.996094 430.203125 1226.996094 424.484375 C 1226.996094 415.621094 1226.101562 413.246094 1220.953125 408.402344 C 1215.03125 402.832031 1214.867188 402.800781 1212.679688 406.875 C 1209.839844 412.164062 1206.492188 412.242188 1206.492188 407.015625 C 1206.492188 403.203125 1195.304688 388.550781 1192.394531 388.550781 C 1191.640625 388.550781 1189.28125 391.769531 1187.15625 395.703125 C 1185.03125 399.640625 1182.746094 402.855469 1182.078125 402.851562 C 1179.207031 402.832031 1163.4375 384.320312 1163.441406 380.980469 C 1163.441406 378.324219 1164.507812 379.003906 1167.269531 383.441406 C 1169.371094 386.8125 1173.570312 391.847656 1176.597656 394.628906 C 1182.730469 400.261719 1184.960938 398.890625 1187.324219 388.039062 C 1188 384.949219 1189.171875 382.417969 1189.929688 382.417969 C 1192.550781 382.417969 1206.28125 397.769531 1208.210938 402.859375 L 1210.148438 407.96875 L 1211.617188 402.347656 C 1213.414062 395.472656 1215.394531 395.21875 1218.261719 401.492188 C 1219.460938 404.109375 1225.375 409.558594 1231.40625 413.59375 L 1242.371094 420.9375 L 1244.574219 413.550781 C 1245.78125 409.492188 1247.386719 407.15625 1248.136719 408.367188 C 1249.253906 410.167969 1246.402344 422.40625 1244.253906 425.035156 C 1243.929688 425.433594 1240.375 423.253906 1236.355469 420.195312 L 1229.042969 414.636719 L 1229.015625 424.589844 C 1228.996094 430.0625 1228.429688 436.609375 1227.75 439.136719 C 1226.421875 444.082031 1222.894531 445.476562 1222.894531 441.054688 Z M 1168.214844 361.710938 C 1155.179688 350.257812 1153.203125 347.636719 1153.492188 342.207031 L 1153.796875 336.429688 L 1154.648438 342.011719 C 1155.144531 345.269531 1158.617188 350.152344 1162.992188 353.746094 L 1170.484375 359.902344 L 1175.085938 354.300781 C 1177.617188 351.214844 1179.722656 347.542969 1179.765625 346.140625 C 1179.871094 342.476562 1180.496094 342.78125 1189.320312 350.839844 C 1197.160156 358.003906 1197.28125 358.035156 1198.445312 353.398438 C 1199.097656 350.808594 1198.867188 345.941406 1197.933594 342.574219 C 1195.371094 333.324219 1195.875 331.929688 1199.757812 337.507812 C 1201.691406 340.289062 1204.800781 344.21875 1206.667969 346.238281 C 1209.917969 349.761719 1210.113281 349.71875 1211.324219 345.21875 C 1212.019531 342.632812 1212.597656 337.902344 1212.613281 334.703125 L 1212.644531 328.890625 L 1219.710938 337.324219 C 1226.316406 345.203125 1226.921875 345.492188 1228.9375 341.738281 C 1230.125 339.53125 1231.109375 334.210938 1231.128906 329.921875 C 1231.148438 324.378906 1231.703125 322.980469 1233.042969 325.09375 C 1235.277344 328.617188 1233.726562 338.210938 1229.597656 346.382812 L 1226.636719 352.25 L 1222.746094 345.875 C 1217.769531 337.71875 1216.113281 337.851562 1212.921875 346.648438 C 1209.90625 354.964844 1207.945312 355.597656 1205.003906 349.203125 C 1203.101562 345.066406 1202.742188 345.574219 1201.390625 354.265625 L 1199.890625 363.929688 L 1190.898438 356.582031 L 1181.90625 349.238281 L 1177.867188 354.078125 C 1175.644531 356.738281 1173.792969 360.0625 1173.757812 361.46875 C 1173.675781 364.515625 1171.511719 364.609375 1168.214844 361.710938 Z M 1284.152344 319.054688 C 1279.40625 314.554688 1276.140625 310.261719 1276.886719 309.515625 C 1277.636719 308.765625 1278.480469 308.554688 1278.765625 309.039062 C 1279.046875 309.523438 1282.921875 313.816406 1287.382812 318.578125 C 1297.644531 329.539062 1295.535156 329.847656 1284.152344 319.054688 Z M 1129.722656 302.25 C 1125.40625 296.109375 1125.703125 292.039062 1130.957031 285.382812 C 1134.753906 280.570312 1136.488281 279.917969 1143.117188 280.804688 C 1147.367188 281.375 1156.515625 285.328125 1163.449219 289.59375 C 1171.453125 294.519531 1179.730469 297.816406 1186.144531 298.636719 C 1191.695312 299.347656 1196.238281 299.613281 1196.238281 299.230469 C 1196.238281 298.847656 1193.933594 294.894531 1191.113281 290.441406 C 1184.417969 279.871094 1184.648438 278.734375 1192.199219 285.070312 C 1199.949219 291.570312 1209.222656 293.472656 1229.941406 292.808594 L 1240.0625 292.484375 L 1234.191406 286.375 C 1225.976562 277.828125 1228.507812 277.0625 1237.574219 285.347656 C 1246.082031 293.121094 1245.546875 293.667969 1227.644531 295.546875 C 1220.039062 296.347656 1211.855469 295.769531 1205.054688 293.949219 C 1194.882812 291.222656 1194.488281 291.265625 1196.414062 294.855469 C 1197.527344 296.925781 1199.324219 298.617188 1200.414062 298.617188 C 1201.5 298.617188 1202.390625 299.664062 1202.390625 300.949219 C 1202.390625 304.886719 1180.417969 301.421875 1169.914062 295.824219 C 1145.925781 283.039062 1142.90625 281.933594 1137.199219 283.828125 C 1134.019531 284.882812 1130.839844 287.964844 1129.746094 291.058594 C 1126.089844 301.371094 1139.980469 309.386719 1145.710938 300.269531 C 1147.375 297.628906 1146.984375 295.820312 1144.066406 292.605469 C 1140.070312 288.203125 1140.445312 287.574219 1145.839844 289.636719 C 1149.671875 291.105469 1150.1875 300.789062 1146.625 304.339844 C 1142.542969 308.40625 1133.238281 307.253906 1129.722656 302.25 Z M 1224.222656 276.777344 C 1221.222656 273.789062 1223.574219 273.054688 1237.023438 272.792969 C 1253.664062 272.464844 1263.765625 269.546875 1275.6875 261.625 C 1285.242188 255.277344 1287.832031 256.523438 1278.765625 263.105469 C 1270.492188 269.109375 1257.589844 273.726562 1245.136719 275.136719 C 1239.105469 275.820312 1232.230469 276.769531 1229.863281 277.242188 C 1227.492188 277.714844 1224.953125 277.507812 1224.222656 276.777344 Z M 1367.132812 798.433594 L 1374.578125 793.398438 L 1379.628906 798.433594 C 1386.246094 805.03125 1394 804.882812 1400.363281 798.039062 C 1403.136719 795.054688 1405.632812 792.984375 1405.902344 793.441406 C 1406.171875 793.898438 1407.410156 796.113281 1408.652344 798.359375 C 1410.226562 801.207031 1413.460938 802.636719 1419.296875 803.070312 C 1426.328125 803.59375 1428.21875 802.875 1431.011719 798.625 L 1434.34375 793.558594 L 1441.671875 798.515625 C 1461.730469 812.085938 1472.417969 797.847656 1463.453125 769.496094 C 1458.894531 755.078125 1461.402344 746.976562 1476.09375 728.625 C 1482.289062 720.890625 1487.363281 712.632812 1487.371094 710.273438 C 1487.371094 706.519531 1486.222656 706.015625 1477.976562 706.1875 C 1470.085938 706.351562 1467.78125 705.460938 1463.625 700.648438 C 1456.871094 692.820312 1457.273438 683.855469 1464.824219 673.910156 L 1470.855469 665.960938 L 1460.152344 658.316406 C 1454.265625 654.113281 1443.652344 644.164062 1436.5625 636.207031 C 1420.644531 618.34375 1404.992188 609.871094 1384.355469 607.949219 L 1370.515625 606.660156 L 1370.535156 617.6875 C 1370.5625 631.882812 1376.890625 645.539062 1394.164062 668.667969 C 1413.808594 694.964844 1415.179688 699.035156 1415.972656 733.410156 L 1416.644531 762.480469 L 1410.960938 768.15625 C 1405.828125 773.285156 1403.511719 773.941406 1386.941406 774.945312 C 1371.164062 775.90625 1367.847656 776.761719 1363.21875 781.078125 C 1357.070312 786.8125 1355.230469 789.929688 1353.332031 797.847656 C 1352.226562 802.464844 1352.675781 803.46875 1355.835938 803.46875 C 1357.957031 803.46875 1363.039062 801.203125 1367.132812 798.433594 Z M 944.964844 723.300781 C 946.71875 720.804688 948.15625 716.769531 948.15625 714.335938 C 948.15625 710.660156 949.714844 709.679688 957.386719 708.53125 L 966.621094 707.152344 L 960.464844 701.988281 C 953.148438 695.851562 952.472656 691.058594 958.917969 691.046875 C 965.339844 691.046875 976.21875 684.027344 977.871094 678.832031 C 978.640625 676.417969 978.15625 673.195312 976.777344 671.539062 C 973.175781 667.214844 966.410156 667.867188 965.152344 672.660156 C 963.800781 677.808594 961.539062 677.824219 956.410156 672.710938 C 948.691406 665.015625 948.519531 649.09375 956.050781 639.824219 C 959.601562 635.453125 959.570312 635.167969 955.042969 630.65625 C 950.175781 625.800781 946.699219 616.199219 948.984375 613.917969 C 949.714844 613.191406 953.558594 613.769531 957.53125 615.203125 C 963.179688 617.238281 965.40625 617.269531 967.730469 615.34375 C 974.777344 609.515625 967.144531 602.019531 955.847656 603.671875 C 951.300781 604.339844 949.421875 603.671875 948.769531 601.191406 C 948.273438 599.308594 944.296875 596.847656 939.816406 595.65625 C 931.808594 593.527344 931.753906 593.550781 931.753906 599.359375 C 931.753906 605.722656 928.300781 606.921875 921.746094 602.839844 C 916.417969 599.523438 911.25 602.097656 911.25 608.070312 C 911.25 613.644531 916.574219 616.390625 926.113281 615.742188 C 933.433594 615.246094 933.703125 620.976562 926.753906 629.210938 L 921.757812 635.132812 L 925.714844 641.121094 C 931.582031 649.988281 931.085938 664.714844 924.679688 672.03125 L 919.65625 677.765625 L 916.363281 673.167969 C 911.785156 666.777344 905.519531 667.203125 903.804688 674.027344 C 902.679688 678.492188 903.609375 680.535156 908.921875 685.269531 C 912.492188 688.449219 917.707031 691.050781 920.507812 691.050781 C 927.441406 691.050781 927.171875 696.789062 919.964844 702.589844 L 914.324219 707.125 L 923.039062 708.546875 C 927.832031 709.328125 931.753906 710.800781 931.753906 711.816406 C 931.753906 715.714844 937.792969 727.84375 939.734375 727.84375 C 940.855469 727.84375 943.207031 725.796875 944.964844 723.300781 Z M 1058.425781 671.539062 C 1066.339844 668.253906 1083.472656 652.980469 1083.472656 649.210938 C 1083.472656 648.023438 1078.746094 642.546875 1072.964844 637.042969 C 1060.800781 625.457031 1047.570312 605.949219 1044.140625 594.542969 C 1042.355469 588.59375 1033.71875 578.410156 1009.386719 553.574219 L 977.011719 520.519531 L 967.679688 523.007812 C 962.546875 524.375 956.285156 525.527344 953.765625 525.566406 C 949.417969 525.636719 949.5 525.902344 955.273438 530.605469 L 961.367188 535.570312 L 969.910156 530.578125 C 978.191406 525.742188 978.488281 525.710938 979.507812 529.605469 C 980.105469 531.882812 978.816406 535.835938 976.527344 538.738281 C 974.308594 541.550781 973.042969 544.738281 973.71875 545.828125 C 974.390625 546.914062 972.257812 549.1875 968.980469 550.878906 C 962.898438 554.011719 958.679688 564.328125 963.476562 564.328125 C 967.792969 564.328125 977.3125 551.96875 976.214844 547.785156 C 975.652344 545.644531 975.925781 543.445312 976.820312 542.894531 C 980.527344 540.609375 980.292969 550.3125 976.527344 555.085938 C 974.308594 557.902344 973.042969 561.089844 973.71875 562.179688 C 974.390625 563.265625 972.257812 565.539062 968.980469 567.230469 C 962.9375 570.34375 958.675781 580.679688 963.433594 580.679688 C 968.09375 580.679688 977.457031 568.867188 976.296875 564.449219 C 975.691406 562.136719 975.925781 559.796875 976.820312 559.246094 C 979.316406 557.707031 980.664062 565.367188 978.554688 569.121094 C 977.425781 571.132812 977.4375 573.878906 978.582031 576.054688 C 980.65625 580 978.550781 587.574219 974.730469 589.925781 C 973.09375 590.9375 974.203125 592.917969 978.175781 596.074219 C 983.925781 600.644531 984.035156 601.125 984.035156 621.292969 C 984.035156 638.144531 984.683594 642.496094 987.625 645.429688 C 990.925781 648.722656 991.210938 648.734375 991.210938 645.574219 C 991.210938 642.128906 996.960938 637.914062 1001.667969 637.914062 C 1003.054688 637.914062 1011.722656 645.644531 1020.933594 655.097656 C 1030.195312 664.609375 1039.890625 672.699219 1042.632812 673.214844 C 1045.363281 673.726562 1048.316406 674.273438 1049.199219 674.425781 C 1050.082031 674.578125 1054.230469 673.28125 1058.425781 671.539062 Z M 959.433594 589.992188 C 959.433594 584.558594 948.785156 578.761719 936.050781 577.257812 C 925.769531 576.042969 925.601562 576.113281 925.601562 581.519531 C 925.601562 585.992188 927.21875 587.753906 934.316406 591.007812 C 945.71875 596.230469 959.433594 595.679688 959.433594 589.992188 Z M 971.109375 589.496094 C 976.300781 584.535156 978.761719 578.636719 975.636719 578.636719 C 972.042969 578.636719 962.507812 587.644531 962.507812 591.039062 C 962.507812 596.335938 964.277344 596.019531 971.109375 589.496094 Z M 960.03125 573.4375 C 960.472656 570.371094 958.671875 568.324219 953.269531 565.757812 C 941.625 560.222656 927.699219 557.65625 924.347656 560.433594 C 918.171875 565.542969 922.285156 572.402344 932.269531 573.636719 C 936.285156 574.132812 941.738281 575.425781 944.378906 576.503906 C 952.050781 579.640625 959.347656 578.210938 960.03125 573.4375 Z M 960.03125 557.019531 C 960.660156 552.644531 958.003906 551.082031 936.316406 543.046875 C 920.125 537.046875 912.960938 539.875 918.132812 550.222656 C 919.9375 553.828125 922.960938 555.472656 929.746094 556.542969 C 934.792969 557.335938 941.6875 558.894531 945.070312 560 C 954.109375 562.953125 959.332031 561.910156 960.03125 557.019531 Z M 970.902344 541.628906 C 974.175781 538.140625 976.851562 534.019531 976.851562 532.472656 C 976.851562 527.464844 963.929688 536.328125 962.28125 542.46875 C 960.304688 549.832031 963.507812 549.519531 970.902344 541.628906 Z M 960.042969 540.597656 C 960.753906 535.613281 952.882812 531.117188 937.410156 527.660156 C 926.054688 525.121094 921.046875 526.5625 921.898438 532.113281 C 922.359375 535.148438 926.140625 537.363281 936.871094 540.886719 C 954.039062 546.527344 959.203125 546.460938 960.042969 540.597656 Z M 975.175781 517.410156 C 995.003906 508.117188 996.71875 484.683594 978.019531 478.53125 C 970.257812 475.976562 965.300781 477.355469 962.328125 482.890625 C 960.050781 487.128906 961.574219 494.835938 964.6875 494.835938 C 965.738281 494.835938 966.597656 496.261719 966.597656 498.003906 C 966.597656 506.140625 936.320312 509.828125 923.90625 503.203125 C 919.542969 500.875 917.644531 494.835938 921.273438 494.835938 C 923.988281 494.835938 925.863281 488.679688 924.476562 484.324219 C 922.585938 478.394531 916.90625 476.339844 908.667969 478.605469 C 890.082031 483.722656 890.601562 506.714844 909.527344 516.472656 C 925.046875 524.472656 959.066406 524.957031 975.175781 517.410156 Z M 962.835938 499.40625 C 963.984375 498.257812 963.484375 496.5 961.558594 494.90625 C 957.34375 491.417969 957.570312 486.230469 962.195312 480.292969 C 965.667969 475.832031 966.101562 469.160156 967.296875 401.835938 C 969.355469 285.816406 977.550781 198.550781 988.355469 177.617188 C 992.65625 169.28125 992.050781 169.246094 980.9375 177.207031 C 966.621094 187.460938 955.722656 200.8125 946.0625 219.925781 C 927.828125 256.011719 921.492188 304.558594 921.492188 408.1875 C 921.492188 467.027344 921.875 474.726562 925.058594 480.257812 C 928.082031 485.511719 928.242188 487.453125 926.117188 493.0625 C 924.742188 496.699219 924.117188 500.175781 924.730469 500.789062 C 928.800781 504.847656 958.457031 503.769531 962.835938 499.40625 Z M 1129.460938 388.773438 C 1130.082031 387.769531 1128.707031 382.710938 1126.410156 377.53125 C 1122.824219 369.453125 1121.382812 368.113281 1116.277344 368.113281 C 1100.28125 368.113281 1074.570312 360.585938 1048.0625 348.152344 C 1032.753906 340.96875 1027.464844 339.320312 1025.628906 341.148438 C 1020.945312 345.816406 1028.730469 356.898438 1040.785156 362.726562 C 1051.480469 367.894531 1081.375 374.242188 1095.011719 374.242188 C 1102.921875 374.242188 1103.109375 374.617188 1098.609375 381.46875 L 1095.296875 386.507812 L 1104.246094 386.75 C 1109.167969 386.882812 1115.964844 387.691406 1119.347656 388.550781 C 1128.132812 390.78125 1128.214844 390.78125 1129.460938 388.773438 Z M 1129.460938 388.773438 "/>
</g>
</svg>
