<?xml version="1.0" encoding="UTF-8"?>
<svg xmlns="http://www.w3.org/2000/svg" xmlns:xlink="http://www.w3.org/1999/xlink" width="380pt" height="200pt" viewBox="0 0 1900 1000" version="1.1">
<defs>
<clipPath id="clip1">
  <path d="M 447 548 L 889 548 L 889 750 L 447 750 Z M 447 548 "/>
</clipPath>
<clipPath id="clip2">
  <path d="M 667.644531 750 C 563.484375 710.386719 414.492188 631.769531 414.492188 476.246094 C 414.492188 320.726562 423.910156 250 423.910156 250 L 911.390625 250 C 911.390625 250 920.816406 320.726562 920.816406 476.246094 C 920.816406 631.769531 771.8125 710.386719 667.644531 750 Z M 667.644531 750 "/>
</clipPath>
</defs>
<g id="surface1">
<rect x="0" y="0" width="1900" height="1000" style="fill:rgb(93.333333%,10.980392%,14.509804%);fill-opacity:1;stroke:none;"/>
<path style=" stroke:none;fill-rule:nonzero;fill:rgb(4.313725%,30.588235%,63.529412%);fill-opacity:1;" d="M 0 0 L 1900 0 L 1900 666.667969 L 0 666.667969 Z M 0 0 "/>
<path style=" stroke:none;fill-rule:nonzero;fill:rgb(100%,100%,100%);fill-opacity:1;" d="M 0 0 L 1900 0 L 1900 333.332031 L 0 333.332031 Z M 0 0 "/>
<path style=" stroke:none;fill-rule:nonzero;fill:rgb(100%,100%,100%);fill-opacity:1;" d="M 667.644531 772.5 C 554.113281 729.320312 391.707031 643.628906 391.707031 474.109375 C 391.707031 304.59375 401.972656 227.5 401.972656 227.5 L 933.328125 227.5 C 933.328125 227.5 943.601562 304.59375 943.601562 474.109375 C 943.601562 643.628906 781.1875 729.320312 667.644531 772.5 Z M 667.644531 772.5 "/>
<path style=" stroke:none;fill-rule:nonzero;fill:rgb(93.333333%,10.980392%,14.509804%);fill-opacity:1;" d="M 667.644531 750 C 563.484375 710.386719 414.492188 631.769531 414.492188 476.246094 C 414.492188 320.726562 423.910156 250 423.910156 250 L 911.390625 250 C 911.390625 250 920.816406 320.726562 920.816406 476.246094 C 920.816406 631.769531 771.8125 710.386719 667.644531 750 Z M 667.644531 750 "/>
<path style=" stroke:none;fill-rule:nonzero;fill:rgb(100%,100%,100%);fill-opacity:1;" d="M 689.925781 557.46875 L 645.375 557.46875 L 645.375 471.574219 C 613.59375 471.253906 558.09375 471.503906 513.148438 483.375 C 513.148438 483.375 514.441406 469.53125 514.441406 453.40625 C 514.441406 437.28125 513.148438 423.4375 513.148438 423.4375 C 562.144531 436.382812 617.171875 435.511719 645.375 435.152344 L 645.375 381.203125 C 619.667969 381.023438 582.628906 381.996094 540.742188 393.058594 C 540.742188 393.058594 542.035156 379.21875 542.035156 363.089844 C 542.035156 346.964844 540.742188 333.121094 540.742188 333.121094 C 582.5625 344.167969 619.558594 345.152344 645.257812 344.976562 C 643.941406 310.816406 631.335938 267.761719 631.335938 267.761719 C 631.335938 267.761719 657.277344 269.359375 667.644531 269.359375 Z M 689.925781 557.46875 "/>
<path style=" stroke:none;fill-rule:nonzero;fill:rgb(100%,100%,100%);fill-opacity:1;" d="M 645.363281 557.46875 L 689.914062 557.46875 L 689.914062 471.574219 C 721.699219 471.253906 777.195312 471.503906 822.144531 483.375 C 822.144531 483.375 820.847656 469.53125 820.847656 453.40625 C 820.847656 437.28125 822.144531 423.4375 822.144531 423.4375 C 773.148438 436.382812 718.117188 435.511719 689.914062 435.152344 L 689.914062 381.203125 C 715.621094 381.023438 752.664062 381.996094 794.546875 393.058594 C 794.546875 393.058594 793.253906 379.21875 793.253906 363.089844 C 793.253906 346.964844 794.546875 333.121094 794.546875 333.121094 C 752.726562 344.167969 715.730469 345.152344 690.03125 344.976562 C 691.351562 310.816406 703.957031 267.761719 703.957031 267.761719 C 703.957031 267.761719 678.011719 269.359375 667.644531 269.359375 Z M 645.363281 557.46875 "/>
<g clip-path="url(#clip1)" clip-rule="nonzero">
<g clip-path="url(#clip2)" clip-rule="nonzero">
<path style=" stroke:none;fill-rule:nonzero;fill:rgb(4.313725%,30.588235%,63.529412%);fill-opacity:1;" d="M 663.058594 801.015625 L 447.230469 649.136719 C 447.230469 649.136719 474.820312 578.6875 528.679688 578.6875 C 571.476562 578.6875 587.09375 605.925781 587.09375 605.925781 C 587.09375 605.925781 615.195312 548.5 667.644531 548.5 C 720.105469 548.5 748.203125 605.925781 748.203125 605.925781 C 748.203125 605.925781 763.824219 578.6875 806.621094 578.6875 C 860.480469 578.6875 888.070312 649.136719 888.070312 649.136719 Z M 663.058594 801.015625 "/>
</g>
</g>
</g>
</svg>
