<?xml version="1.0" encoding="UTF-8"?>
<svg xmlns="http://www.w3.org/2000/svg" xmlns:xlink="http://www.w3.org/1999/xlink" width="1900pt" height="1000pt" viewBox="0 0 1900 1000" version="1.1">
<g id="surface1">
<path style=" stroke:none;fill-rule:nonzero;fill:rgb(82.352941%,6.27451%,20.392157%);fill-opacity:1;" d="M 0 0 L 1900 0 L 1900 500 L 0 500 Z M 0 0 "/>
<path style=" stroke:none;fill-rule:nonzero;fill:rgb(0%,58.431373%,26.27451%);fill-opacity:1;" d="M 0 500 L 1900 500 L 1900 1000 L 0 1000 Z M 0 500 "/>
<path style=" stroke:none;fill-rule:nonzero;fill:rgb(0%,0%,0%);fill-opacity:1;" d="M 0 0 L 1105.625 500 L 0 1000 Z M 0 0 "/>
<path style=" stroke:none;fill-rule:nonzero;fill:rgb(0%,0%,0%);fill-opacity:1;" d="M 0 410.527344 L 1900 410.527344 L 1900 589.472656 L 0 589.472656 Z M 0 410.527344 "/>
<path style=" stroke:none;fill-rule:nonzero;fill:rgb(99.215686%,80.784314%,7.058824%);fill-opacity:1;" d="M 0 71.054688 L 948.503906 500 L 0 928.941406 Z M 0 71.054688 "/>
<path style=" stroke:none;fill-rule:nonzero;fill:rgb(99.215686%,80.784314%,7.058824%);fill-opacity:1;" d="M 0 473.683594 L 1900 473.683594 L 1900 526.316406 L 0 526.316406 Z M 0 473.683594 "/>
<path style=" stroke:none;fill-rule:nonzero;fill:rgb(0%,0%,0%);fill-opacity:1;" d="M 0 130.269531 L 817.5625 500 L 0 869.726562 Z M 0 130.269531 "/>
<path style=" stroke:none;fill-rule:nonzero;fill:rgb(99.215686%,80.784314%,7.058824%);fill-opacity:1;" d="M 230.960938 595.65625 C 230.960938 595.65625 230.960938 631.789062 230.960938 652.632812 C 287.46875 652.632812 398.363281 614.648438 398.363281 492.359375 C 398.363281 370.066406 280.074219 347.367188 244.691406 347.367188 C 209.3125 347.367188 100 369.601562 100 469.660156 C 100 569.714844 207.199219 578.980469 228.320312 578.980469 C 249.445312 578.980469 328.65625 562.304688 319.679688 487.261719 C 319.679688 508.570312 292.21875 553.503906 234.65625 553.503906 C 177.097656 553.503906 141.191406 515.980469 141.191406 478.925781 C 141.191406 441.863281 176.042969 392.300781 236.769531 392.300781 C 297.496094 392.300781 341.855469 439.546875 341.855469 487.261719 C 341.855469 534.972656 299.085938 595.65625 230.960938 595.65625 Z M 230.960938 595.65625 "/>
<path style="fill-rule:nonzero;fill:rgb(99.215686%,80.784314%,7.058824%);fill-opacity:1;stroke-width:1;stroke-linecap:butt;stroke-linejoin:miter;stroke:rgb(99.215686%,80.784314%,7.058824%);stroke-opacity:1;stroke-miterlimit:4;" d="M 90.728516 297.246094 L 92.410156 298.334883 C 92.410156 298.334883 105.777344 267.837656 141.720703 246.153164 C 137.164063 248.629102 113.105469 260.610234 90.728516 297.246094 Z M 90.728516 297.246094 " transform="matrix(2,0,0,1.754386,0,0)"/>
<path style=" stroke:none;fill-rule:nonzero;fill:rgb(99.215686%,80.784314%,7.058824%);fill-opacity:1;" d="M 188.386719 512.277344 C 188.386719 512.277344 180.070312 497.335938 187.394531 490.738281 C 194.722656 484.136719 191.359375 508.28125 191.359375 508.28125 L 194.527344 504.285156 C 194.527344 504.285156 189.574219 486.046875 195.121094 482.222656 C 200.664062 478.402344 197.890625 499.769531 197.890625 499.769531 L 201.257812 495.949219 C 201.257812 495.949219 197.695312 478.230469 203.039062 474.929688 C 208.386719 471.628906 205.023438 491.605469 205.023438 491.605469 L 208.980469 487.609375 C 208.980469 487.609375 206.011719 470.757812 212.546875 466.765625 C 219.082031 462.769531 213.339844 482.746094 213.339844 482.746094 L 217.695312 478.578125 C 217.695312 478.578125 215.714844 463.117188 221.261719 459.640625 C 226.804688 456.167969 222.050781 474.234375 222.050781 474.234375 L 226.011719 470.585938 C 226.011719 470.585938 224.824219 456.167969 230.171875 452.867188 C 235.519531 449.566406 230.566406 466.589844 230.566406 466.589844 L 234.726562 463.117188 C 234.726562 463.117188 233.734375 448.699219 240.46875 445.917969 C 247.199219 443.140625 239.28125 459.46875 239.28125 459.46875 L 243.835938 455.996094 C 243.835938 455.996094 245.21875 439.144531 250.964844 437.582031 C 256.707031 436.015625 248.390625 452.519531 248.390625 452.519531 L 252.546875 449.566406 C 252.546875 449.566406 254.726562 435.148438 261.0625 433.414062 C 267.398438 431.675781 257.101562 446.613281 257.101562 446.613281 L 261.261719 443.835938 C 261.261719 443.835938 265.816406 429.417969 271.757812 427.855469 C 277.699219 426.292969 265.617188 441.402344 265.617188 441.402344 L 269.578125 438.972656 C 269.578125 438.972656 276.113281 425.941406 281.460938 425.074219 C 286.804688 424.207031 275.519531 435.84375 275.519531 435.84375 L 280.46875 433.238281 C 280.46875 433.238281 288.984375 419.691406 291.957031 423.859375 C 294.925781 428.027344 280.074219 434.105469 280.074219 434.105469 L 275.121094 436.539062 C 275.121094 436.539062 293.144531 429.070312 295.320312 432.890625 C 297.5 436.710938 270.566406 439.144531 270.566406 439.144531 L 266.210938 441.75 C 266.210938 441.75 284.230469 437.40625 282.054688 441.402344 C 279.875 445.398438 262.054688 444.53125 262.054688 444.53125 L 257.894531 447.136719 C 257.894531 447.136719 275.914062 443.3125 273.539062 446.960938 C 271.160156 450.609375 253.539062 450.261719 253.539062 450.261719 L 249.183594 453.390625 C 249.183594 453.390625 266.804688 449.394531 264.230469 454.085938 C 261.65625 458.773438 241.65625 458.601562 241.65625 458.601562 L 236.707031 462.59375 C 236.707031 462.59375 255.320312 457.035156 253.734375 461.378906 C 252.152344 465.722656 230.960938 467.980469 230.960938 467.980469 L 226.210938 472.148438 C 226.210938 472.148438 246.210938 466.242188 240.269531 471.628906 C 234.328125 477.015625 219.875 478.402344 219.875 478.402344 L 214.128906 484.484375 C 214.128906 484.484375 233.933594 474.058594 231.160156 479.964844 C 228.386719 485.871094 208.980469 489.867188 208.980469 489.867188 L 205.023438 494.035156 C 205.023438 494.035156 222.84375 485.003906 221.0625 490.042969 C 219.28125 495.078125 200.269531 500.464844 200.269531 500.464844 L 197.101562 504.285156 C 197.101562 504.285156 218.089844 493.34375 216.308594 498.898438 C 214.527344 504.460938 194.527344 508.453125 194.527344 508.453125 L 191.953125 511.929688 C 191.953125 511.929688 211.359375 502.203125 211.554688 506.890625 C 211.753906 511.582031 188.78125 516.273438 188.78125 516.273438 Z M 188.386719 512.277344 "/>
<path style="fill-rule:nonzero;fill:rgb(99.215686%,80.784314%,7.058824%);fill-opacity:1;stroke-width:1;stroke-linecap:butt;stroke-linejoin:miter;stroke:rgb(99.215686%,80.784314%,7.058824%);stroke-opacity:1;stroke-miterlimit:4;" d="M 90.728516 297.246094 L 92.410156 298.334883 C 92.410156 298.334883 105.777344 267.837656 141.720703 246.153164 C 137.164062 248.629102 113.105469 260.610234 90.728516 297.246094 Z M 90.728516 297.246094 " transform="matrix(-2,0,0,1.754386,477,0)"/>
<path style=" stroke:none;fill-rule:nonzero;fill:rgb(99.215686%,80.784314%,7.058824%);fill-opacity:1;" d="M 288.613281 512.277344 C 288.613281 512.277344 296.929688 497.335938 289.605469 490.738281 C 282.277344 484.136719 285.640625 508.28125 285.640625 508.28125 L 282.472656 504.285156 C 282.472656 504.285156 287.425781 486.046875 281.878906 482.222656 C 276.335938 478.402344 279.109375 499.769531 279.109375 499.769531 L 275.742188 495.949219 C 275.742188 495.949219 279.304688 478.230469 273.960938 474.929688 C 268.613281 471.628906 271.976562 491.605469 271.976562 491.605469 L 268.019531 487.609375 C 268.019531 487.609375 270.988281 470.757812 264.453125 466.765625 C 257.917969 462.769531 263.660156 482.746094 263.660156 482.746094 L 259.304688 478.578125 C 259.304688 478.578125 261.285156 463.117188 255.738281 459.640625 C 250.195312 456.167969 254.949219 474.234375 254.949219 474.234375 L 250.988281 470.585938 C 250.988281 470.585938 252.175781 456.167969 246.828125 452.867188 C 241.480469 449.566406 246.433594 466.589844 246.433594 466.589844 L 242.273438 463.117188 C 242.273438 463.117188 243.265625 448.699219 236.53125 445.917969 C 229.800781 443.140625 237.71875 459.46875 237.71875 459.46875 L 233.164062 455.996094 C 233.164062 455.996094 231.78125 439.144531 226.035156 437.582031 C 220.292969 436.015625 228.609375 452.519531 228.609375 452.519531 L 224.453125 449.566406 C 224.453125 449.566406 222.273438 435.148438 215.9375 433.414062 C 209.601562 431.675781 219.898438 446.613281 219.898438 446.613281 L 215.738281 443.835938 C 215.738281 443.835938 211.183594 429.417969 205.242188 427.855469 C 199.300781 426.292969 211.382812 441.402344 211.382812 441.402344 L 207.421875 438.972656 C 207.421875 438.972656 200.886719 425.941406 195.539062 425.074219 C 190.195312 424.207031 201.480469 435.84375 201.480469 435.84375 L 196.53125 433.238281 C 196.53125 433.238281 188.015625 419.691406 185.042969 423.859375 C 182.074219 428.027344 196.925781 434.105469 196.925781 434.105469 L 201.878906 436.539062 C 201.878906 436.539062 183.855469 429.070312 181.679688 432.890625 C 179.5 436.710938 206.433594 439.144531 206.433594 439.144531 L 210.789062 441.75 C 210.789062 441.75 192.769531 437.40625 194.945312 441.402344 C 197.125 445.398438 214.945312 444.53125 214.945312 444.53125 L 219.105469 447.136719 C 219.105469 447.136719 201.085938 443.3125 203.460938 446.960938 C 205.839844 450.609375 223.460938 450.261719 223.460938 450.261719 L 227.816406 453.390625 C 227.816406 453.390625 210.195312 449.394531 212.769531 454.085938 C 215.34375 458.773438 235.34375 458.601562 235.34375 458.601562 L 240.292969 462.59375 C 240.292969 462.59375 221.679688 457.035156 223.265625 461.378906 C 224.847656 465.722656 246.039062 467.980469 246.039062 467.980469 L 250.789062 472.148438 C 250.789062 472.148438 230.789062 466.242188 236.730469 471.628906 C 242.671875 477.015625 257.125 478.402344 257.125 478.402344 L 262.871094 484.484375 C 262.871094 484.484375 243.066406 474.058594 245.839844 479.964844 C 248.613281 485.871094 268.019531 489.867188 268.019531 489.867188 L 271.976562 494.035156 C 271.976562 494.035156 254.15625 485.003906 255.9375 490.042969 C 257.71875 495.078125 276.730469 500.464844 276.730469 500.464844 L 279.898438 504.285156 C 279.898438 504.285156 258.910156 493.34375 260.691406 498.898438 C 262.472656 504.460938 282.472656 508.453125 282.472656 508.453125 L 285.046875 511.929688 C 285.046875 511.929688 265.640625 502.203125 265.445312 506.890625 C 265.246094 511.582031 288.21875 516.273438 288.21875 516.273438 Z M 288.613281 512.277344 "/>
</g>
</svg>
