<?xml version="1.0" encoding="UTF-8"?>
<svg xmlns="http://www.w3.org/2000/svg" xmlns:xlink="http://www.w3.org/1999/xlink" width="380pt" height="200pt" viewBox="0 0 1900 1000" version="1.1">
<g id="surface1">
<rect x="0" y="0" width="1900" height="1000" style="fill:rgb(80%,3.529412%,18.431373%);fill-opacity:1;stroke:none;"/>
<path style=" stroke:none;fill-rule:nonzero;fill:rgb(100%,82.352941%,0%);fill-opacity:1;" d="M 0 0 L 1266.667969 0 L 1266.667969 1000 L 0 1000 Z M 0 0 "/>
<path style=" stroke:none;fill-rule:nonzero;fill:rgb(0%,27.45098%,68.235294%);fill-opacity:1;" d="M 0 0 L 633.332031 0 L 633.332031 1000 L 0 1000 Z M 0 0 "/>
<path style=" stroke:none;fill-rule:nonzero;fill:rgb(69.019608%,49.803922%,33.333333%);fill-opacity:1;" d="M 861.859375 591.066406 L 870.6875 590.378906 L 871.457031 598.300781 L 879.574219 594.6875 L 881.769531 605.601562 L 899.660156 586.511719 L 924.539062 599.421875 L 877.324219 687.988281 L 860.5 701.078125 L 890.824219 713.054688 L 921.933594 674.890625 L 917.4375 699.957031 L 908.1875 724.277344 L 946.050781 747.234375 L 987.175781 721.667969 L 966.960938 677.011719 L 973.539062 673.832031 L 1000.203125 714.488281 L 1029.242188 699.332031 L 991.492188 652.878906 L 966.667969 596.988281 L 992.855469 587.890625 L 1010.695312 605.910156 L 1013.355469 594.1875 L 1022.78125 598.988281 L 1021.585938 589.199219 L 1031.066406 591.378906 L 1019.519531 572.109375 L 1048.84375 546.222656 L 1067.378906 607.222656 L 1094.714844 640.089844 L 1100.523438 639.332031 L 1120.367188 665.15625 L 1120.15625 307.367188 L 1083.527344 266.765625 L 1047.890625 297.320312 L 1049.378906 330.253906 L 1033.378906 330.878906 L 1009.566406 343.722656 L 996.234375 348.332031 L 989.953125 349.644531 L 981.773438 340.289062 L 970.816406 317.210938 L 970.097656 294.457031 L 976.851562 279.609375 L 975.609375 265.578125 L 981.667969 265.699219 L 977.804688 256.222656 L 983.144531 253.976562 L 975.144531 246.554688 L 977.929688 243.121094 L 947.710938 229.464844 L 924.65625 227.84375 L 918.4375 230.710938 L 915.421875 236.644531 L 921.519531 254.789062 L 914.996094 261.644531 L 921.457031 274.933594 L 921.699219 304.054688 L 916.539062 328.632812 L 906.171875 347.210938 L 900.726562 349.398438 L 887.742188 346.277344 L 860.550781 331.1875 L 843.367188 330.1875 L 842.1875 295.132812 L 809.242188 267.265625 L 775.652344 305.433594 L 770.851562 316.65625 L 772.390625 663.910156 L 794.136719 636.222656 L 798.695312 637.410156 L 821.148438 611.832031 L 840.234375 561.199219 L 845.859375 540.179688 L 871.570312 572.167969 Z M 861.859375 591.066406 "/>
<path style=" stroke:none;fill-rule:nonzero;fill:rgb(0%,0%,0%);fill-opacity:1;" d="M 894.785156 203.601562 C 891.382812 203.601562 888.410156 204.511719 886.675781 205.933594 C 889.429688 206.777344 891.433594 209.449219 891.433594 212.703125 L 891.433594 220.949219 L 883.597656 220.949219 C 880.53125 220.949219 877.988281 218.871094 877.167969 216 C 875.820312 217.824219 874.953125 220.953125 874.953125 224.535156 C 874.953125 228.113281 875.820312 231.242188 877.167969 233.066406 C 877.972656 230.164062 880.507812 228.058594 883.597656 228.058594 L 891.433594 228.058594 L 891.433594 267.703125 C 891.433594 270.820312 889.582031 273.40625 887.003906 274.359375 C 890.738281 274.894531 893.957031 280.175781 894.835938 283.0625 C 895.722656 280.179688 898.9375 274.894531 902.675781 274.359375 C 900.066406 273.421875 898.1875 270.839844 898.1875 267.703125 L 898.1875 228.058594 L 906.023438 228.058594 C 909.09375 228.058594 911.632812 230.132812 912.453125 233.007812 C 913.804688 231.183594 914.667969 228.054688 914.667969 224.472656 C 914.667969 220.894531 913.804688 217.765625 912.453125 215.941406 C 911.652344 218.839844 909.113281 220.945312 906.023438 220.945312 L 898.1875 220.945312 L 898.1875 212.699219 C 898.1875 209.46875 900.160156 206.792969 902.890625 205.929688 C 901.160156 204.511719 898.183594 203.597656 894.785156 203.597656 Z M 894.785156 203.601562 "/>
<path style=" stroke:none;fill-rule:nonzero;fill:rgb(96.078431%,83.137255%,0.784314%);fill-opacity:1;" d="M 894.785156 205.3125 C 893.011719 205.3125 891.453125 205.660156 890.136719 206.105469 C 891.894531 207.714844 893.054688 210.042969 893.054688 212.707031 L 893.054688 220.953125 C 893.054688 221.070312 893.023438 221.183594 893 221.296875 L 893 222.601562 L 891.757812 222.601562 C 891.652344 222.625 891.542969 222.660156 891.433594 222.660156 L 883.597656 222.660156 C 881.097656 222.660156 878.910156 221.457031 877.382812 219.648438 C 876.945312 221.046875 876.574219 222.644531 876.574219 224.539062 C 876.574219 226.402344 876.90625 228.046875 877.328125 229.429688 C 878.855469 227.582031 881.070312 226.359375 883.597656 226.359375 L 893.054688 226.359375 C 893.042969 226.53125 893 226.695312 893 226.871094 L 893 227.722656 C 893.019531 227.835938 893.054688 227.945312 893.054688 228.0625 L 893.054688 267.710938 C 893.054688 270.285156 891.792969 272.308594 890.136719 273.910156 C 891.320312 274.679688 892.339844 275.648438 893.214844 276.753906 C 893.992188 277.738281 894.300781 278.699219 894.835938 279.710938 C 895.371094 278.703125 895.679688 277.738281 896.457031 276.753906 C 897.316406 275.667969 898.324219 274.734375 899.484375 273.96875 C 897.8125 272.371094 896.566406 270.296875 896.566406 267.710938 L 896.566406 226.414062 L 897.863281 226.414062 C 897.96875 226.390625 898.074219 226.359375 898.1875 226.359375 L 906.023438 226.359375 C 908.519531 226.359375 910.707031 227.5625 912.234375 229.371094 C 912.671875 227.972656 913.046875 226.375 913.046875 224.480469 C 913.046875 222.617188 912.714844 220.972656 912.289062 219.589844 C 910.761719 221.4375 908.550781 222.660156 906.023438 222.660156 L 898.1875 222.660156 C 898.074219 222.660156 897.96875 222.625 897.863281 222.601562 L 896.621094 222.601562 L 896.621094 221.292969 C 896.597656 221.183594 896.566406 221.070312 896.566406 220.949219 L 896.566406 212.703125 C 896.566406 210.074219 897.707031 207.773438 899.429688 206.164062 C 898.097656 205.703125 896.582031 205.308594 894.78125 205.308594 Z M 894.785156 205.3125 "/>
<path style=" stroke:none;fill-rule:nonzero;fill:rgb(81.960784%,1.568627%,16.078431%);fill-opacity:1;" d="M 843.007812 628.34375 L 831.945312 627.988281 L 820.558594 633.632812 L 816.863281 646.6875 L 818.542969 652.6875 L 830.945312 666.800781 L 841.003906 660.800781 L 849.046875 651.632812 L 851.050781 643.511719 L 879.878906 604 L 878.539062 594.121094 L 872.164062 598.355469 L 869.820312 590.246094 L 865.796875 591.65625 Z M 843.007812 628.34375 "/>
<path style=" stroke:none;fill-rule:nonzero;fill:rgb(81.960784%,1.568627%,16.078431%);fill-opacity:1;" d="M 1045.117188 654.445312 L 1058.511719 667.15625 L 1062.523438 666.089844 L 1077.300781 648.101562 L 1073.921875 635.753906 L 1060.199219 626.933594 L 1049.804688 627.988281 L 1026.675781 591.65625 L 1022.652344 589.890625 L 1020.984375 596.945312 L 1014.273438 594.832031 L 1011.589844 602.589844 L 1042.085938 645.988281 Z M 1045.117188 654.445312 "/>
<path style=" stroke:none;fill-rule:nonzero;fill:rgb(0%,0%,0%);fill-opacity:1;" d="M 845.894531 657.722656 L 862.996094 667.546875 L 858.847656 687.578125 L 841.746094 677.753906 Z M 845.894531 657.722656 "/>
<path style=" stroke:none;fill-rule:nonzero;fill:rgb(0%,0%,0%);fill-opacity:1;" d="M 766.226562 465.253906 L 760.066406 468.214844 L 829.667969 628.679688 L 837.070312 628.679688 L 766.226562 465.257812 Z M 848.308594 654.5 L 843.285156 659.960938 L 846.417969 667.242188 L 852.523438 664.285156 L 848.3125 654.5 Z M 848.308594 654.5 "/>
<path style=" stroke:none;fill-rule:nonzero;fill:rgb(96.078431%,83.137255%,0.784314%);fill-opacity:1;" d="M 848.359375 663.402344 L 858.96875 669.492188 L 856.394531 681.917969 L 845.785156 675.828125 Z M 848.359375 663.402344 "/>
<path style=" stroke:none;fill-rule:nonzero;fill:rgb(4.313725%,27.058824%,73.333333%);fill-opacity:1;" d="M 945.230469 612.464844 L 987.472656 588.121094 L 1037.0625 563.433594 L 1046.457031 548.253906 L 1046.457031 463.234375 L 845.351562 462.890625 L 845.691406 549.320312 L 851.726562 559.554688 L 889.929688 581.777344 L 938.863281 605.410156 Z M 945.230469 612.464844 "/>
<path style=" stroke:none;fill-rule:nonzero;fill:rgb(81.960784%,1.568627%,16.078431%);fill-opacity:1;" d="M 843.019531 358.832031 L 845.558594 366.625 C 845.558594 366.625 844.964844 465.882812 844.964844 465.882812 C 844.964844 465.882812 848.476562 469.980469 848.476562 469.980469 C 848.476562 469.980469 877.496094 473.621094 877.496094 473.621094 L 908.890625 468.785156 C 908.890625 468.785156 927.121094 471.746094 939.695312 473.792969 C 939.707031 473.859375 940.070312 475.78125 940.070312 475.78125 C 940.070312 475.78125 944.632812 475.050781 946.070312 474.8125 C 947.480469 475.042969 952.011719 475.78125 952.011719 475.78125 L 952.390625 473.792969 C 964.960938 471.746094 983.195312 468.785156 983.195312 468.785156 L 1014.589844 473.621094 C 1014.589844 473.621094 1043.609375 469.980469 1043.609375 469.980469 C 1043.609375 469.980469 1047.121094 465.882812 1047.121094 465.882812 C 1047.121094 465.882812 1046.523438 366.625 1046.523438 366.625 L 1049.066406 358.832031 L 1014.320312 359.117188 C 1014.320312 359.117188 974.609375 359.53125 946.070312 359.855469 C 917.539062 359.53125 877.765625 359.117188 877.765625 359.117188 L 843.023438 358.832031 Z M 843.019531 358.832031 "/>
<path style=" stroke:none;fill-rule:nonzero;fill:rgb(0%,0%,0%);fill-opacity:1;" d="M 908.886719 468.789062 C 908.886719 468.789062 887.367188 463.25 879.328125 452.066406 C 865.277344 465.371094 848.472656 469.984375 848.472656 469.984375 C 848.472656 469.984375 866.003906 478.3125 879.328125 488.925781 C 885.46875 479.664062 908.886719 468.789062 908.886719 468.789062 Z M 908.886719 468.789062 "/>
<path style=" stroke:none;fill-rule:nonzero;fill:rgb(0%,0%,0%);fill-opacity:1;" d="M 983.1875 468.789062 C 983.1875 468.789062 1006.605469 479.664062 1012.746094 488.925781 C 1026.070312 478.3125 1043.597656 469.984375 1043.597656 469.984375 C 1043.597656 469.984375 1026.796875 465.371094 1012.746094 452.066406 C 1004.707031 463.25 983.1875 468.789062 983.1875 468.789062 Z M 983.1875 468.789062 "/>
<path style=" stroke:none;fill-rule:nonzero;fill:rgb(0%,0%,0%);fill-opacity:1;" d="M 946.011719 367.132812 L 939.957031 385.222656 L 923.476562 376.972656 L 931.308594 394.324219 L 914.125 400.75 L 931.308594 407.179688 L 923.476562 424.472656 L 939.957031 416.222656 L 946.011719 434.3125 L 952.117188 416.222656 L 968.597656 424.472656 L 960.761719 407.179688 L 977.945312 400.75 L 960.761719 394.324219 L 968.597656 376.972656 L 952.117188 385.222656 Z M 946.011719 367.132812 "/>
<path style=" stroke:none;fill-rule:nonzero;fill:rgb(96.078431%,83.137255%,0.784314%);fill-opacity:1;" d="M 911.621094 501.890625 L 917.550781 495.144531 L 924.179688 502.132812 L 918.027344 508.621094 Z M 911.621094 501.890625 "/>
<path style=" stroke:none;fill-rule:nonzero;fill:rgb(96.078431%,83.137255%,0.784314%);fill-opacity:1;" d="M 981.066406 501.890625 L 974.667969 494.398438 L 968.027344 501.632812 L 973.960938 508.367188 Z M 981.066406 501.890625 "/>
<path style=" stroke:none;fill-rule:nonzero;fill:rgb(96.078431%,83.137255%,0.784314%);fill-opacity:1;" d="M 967.554688 515.855469 L 964.480469 523.089844 L 964.238281 543.042969 L 969.222656 554.265625 L 975.851562 557.265625 L 974.910156 531.066406 L 979.40625 512.855469 Z M 967.554688 515.855469 "/>
<path style=" stroke:none;fill-rule:nonzero;fill:rgb(96.078431%,83.137255%,0.784314%);fill-opacity:1;" d="M 917.078125 535.3125 L 917.078125 556.765625 L 923 552.277344 L 927.03125 542.542969 L 927.738281 525.589844 L 924.65625 515.355469 L 912.8125 513.109375 Z M 917.078125 535.3125 "/>
<path style=" stroke:none;fill-rule:nonzero;fill:rgb(96.078431%,83.137255%,0.784314%);fill-opacity:1;" d="M 999.074219 561.753906 L 998.839844 548.777344 L 1009.269531 533.820312 L 1021.585938 530.820312 L 1007.84375 523.832031 L 994.574219 526.832031 L 987.703125 535.3125 L 986.988281 549.035156 L 996.707031 561.011719 Z M 999.074219 561.753906 "/>
<path style=" stroke:none;fill-rule:nonzero;fill:rgb(96.078431%,83.137255%,0.784314%);fill-opacity:1;" d="M 885.558594 562.511719 L 889.117188 555.523438 L 894.792969 559.511719 L 901.667969 558.011719 L 906.171875 550.777344 L 903.089844 544.042969 L 899.777344 541.300781 L 904.515625 538.554688 L 906.417969 530.320312 L 900.007812 522.589844 L 893.855469 523.589844 L 890.773438 526.078125 L 889.347656 520.101562 L 882 515.601562 L 875.835938 518.101562 L 872.753906 524.832031 L 874.421875 530.820312 L 868.015625 530.078125 L 862.800781 535.3125 L 862.09375 542.300781 L 865.652344 546.789062 L 870.621094 548.535156 L 873.472656 548.289062 L 871.097656 554.523438 L 872.996094 560.753906 L 878.917969 564.246094 Z M 885.558594 562.511719 "/>
<path style=" stroke:none;fill-rule:nonzero;fill:rgb(100%,82.352941%,0%);fill-opacity:1;" d="M 946.074219 379.3125 L 949.964844 390.859375 L 960.445312 385.570312 L 955.476562 396.660156 L 966.390625 400.757812 L 955.476562 404.851562 L 960.445312 415.886719 L 949.964844 410.65625 L 946.019531 422.144531 L 942.128906 410.65625 L 931.644531 415.886719 L 936.617188 404.851562 L 925.703125 400.757812 L 936.617188 396.660156 L 931.644531 385.570312 L 942.128906 390.859375 Z M 946.074219 379.3125 "/>
<path style=" stroke:none;fill-rule:nonzero;fill:rgb(0%,0%,0%);fill-opacity:1;" d="M 911.429688 364.410156 C 910.4375 371.71875 875.496094 386.910156 875.496094 417.539062 C 875.496094 456.75 910.351562 466 910.351562 466 L 908.890625 468.789062 L 900.40625 485.054688 C 900.40625 485.054688 914.808594 485.8125 922.453125 492.679688 C 931.671875 500.953125 930.773438 518.488281 930.773438 531.246094 C 930.773438 541.292969 929.570312 551.898438 924.667969 556.269531 C 918.089844 562.140625 913.644531 562.578125 913.644531 569.46875 C 913.644531 575.21875 917.84375 576.371094 924.667969 580.164062 C 933.417969 585.023438 933.011719 591.539062 946.011719 591.539062 C 959.019531 591.539062 958.664062 585.023438 967.414062 580.164062 C 974.238281 576.371094 978.4375 575.21875 978.4375 569.46875 C 978.4375 562.578125 973.988281 562.140625 967.414062 556.269531 C 962.511719 551.898438 961.308594 541.292969 961.308594 531.246094 C 961.308594 518.488281 960.410156 500.953125 969.628906 492.679688 C 977.273438 485.816406 991.675781 485.054688 991.675781 485.054688 L 983.191406 468.789062 L 981.734375 466 C 981.734375 466 1016.585938 456.75 1016.585938 417.539062 C 1016.585938 386.914062 981.644531 371.71875 980.652344 364.410156 C 977.238281 377.058594 992.324219 394.523438 992.324219 415.207031 C 992.324219 441.96875 973.574219 443.25 973.574219 443.25 C 969.183594 443.25 967.40625 446.546875 965.683594 446.546875 C 961.992188 446.140625 960.253906 441.199219 956.605469 441.199219 C 953.175781 441.199219 950.542969 446.773438 946.011719 446.773438 C 941.484375 446.773438 938.902344 441.199219 935.476562 441.199219 C 931.828125 441.199219 930.089844 446.140625 926.398438 446.546875 C 924.671875 446.546875 922.894531 443.25 918.507812 443.25 C 918.507812 443.25 899.757812 441.96875 899.757812 415.207031 C 899.757812 394.523438 914.847656 377.054688 911.429688 364.410156 Z M 911.429688 364.410156 "/>
<path style=" stroke:none;fill-rule:nonzero;fill:rgb(100%,82.352941%,0%);fill-opacity:1;" d="M 879.003906 457.644531 C 886.105469 466.203125 897.378906 469.476562 897.378906 469.476562 C 897.375 469.476562 879.328125 483.582031 879.328125 483.582031 L 879.109375 483.867188 L 878.734375 483.523438 L 858.738281 470.328125 C 858.738281 470.328125 871.5 465.699219 879.003906 457.644531 Z M 879.003906 457.644531 "/>
<path style=" stroke:none;fill-rule:nonzero;fill:rgb(100%,82.352941%,0%);fill-opacity:1;" d="M 906.351562 375.5 C 907.785156 378.75 894.679688 398.777344 894.679688 415.203125 C 894.679688 435.347656 904.882812 447.226562 918.511719 447.226562 C 921.109375 447.226562 923.953125 450.925781 926.402344 450.925781 C 930.394531 450.925781 933.050781 446.261719 935.480469 446.261719 C 938.570312 446.261719 940.652344 451.378906 946.015625 451.378906 C 951.382812 451.378906 953.519531 446.261719 956.609375 446.261719 C 959.039062 446.261719 961.695312 450.925781 965.6875 450.925781 C 968.136719 450.925781 970.976562 447.226562 973.574219 447.226562 C 987.203125 447.226562 997.40625 435.347656 997.40625 415.203125 C 997.40625 398.777344 984.300781 378.75 985.734375 375.5 C 985.734375 375.5 1011.292969 394.800781 1011.292969 417.535156 C 1011.292969 454.160156 976.007812 463.210938 976.007812 463.210938 L 983.949219 482.039062 C 983.949219 482.039062 973.011719 483.765625 966.335938 489.433594 C 957.425781 496.996094 957.308594 517.425781 957.308594 531.242188 C 957.308594 547.515625 957.886719 554.414062 963.472656 558.828125 C 969.359375 563.488281 973.792969 564.492188 973.792969 569.238281 C 973.792969 573.375 969.203125 575.066406 963.253906 577.828125 C 956.484375 580.96875 955.808594 586.417969 946.015625 586.417969 C 936.222656 586.417969 935.601562 580.96875 928.832031 577.828125 C 922.882812 575.066406 918.292969 573.375 918.292969 569.238281 C 918.292969 564.492188 922.722656 563.488281 928.613281 558.828125 C 934.199219 554.414062 934.773438 547.515625 934.773438 531.242188 C 934.773438 517.425781 934.660156 496.996094 925.75 489.433594 C 919.070312 483.761719 908.132812 482.039062 908.132812 482.039062 L 916.078125 463.210938 C 916.078125 463.210938 880.792969 454.164062 880.792969 417.535156 C 880.792969 394.800781 906.351562 375.5 906.351562 375.5 Z M 906.351562 375.5 "/>
<path style=" stroke:none;fill-rule:nonzero;fill:rgb(100%,82.352941%,0%);fill-opacity:1;" d="M 1013.070312 457.644531 C 1020.578125 465.699219 1033.335938 470.328125 1033.335938 470.328125 C 1033.335938 470.328125 1020.023438 477.304688 1013.339844 483.523438 C 1013.589844 484.808594 1013.007812 483.820312 1012.960938 483.867188 C 1012.648438 484.285156 1012.84375 483.707031 1012.746094 483.582031 C 1006.429688 475.949219 994.699219 469.476562 994.699219 469.476562 C 994.699219 469.476562 1005.96875 466.203125 1013.070312 457.644531 Z M 1013.070312 457.644531 "/>
<path style=" stroke:none;fill-rule:nonzero;fill:rgb(0%,0%,0%);fill-opacity:1;" d="M 917.699219 492.898438 L 909.324219 501.714844 L 917.699219 510.53125 L 926.074219 501.714844 Z M 917.699219 492.898438 "/>
<path style=" stroke:none;fill-rule:nonzero;fill:rgb(0%,0%,0%);fill-opacity:1;" d="M 974.382812 492.898438 L 966.007812 501.714844 L 974.382812 510.53125 L 982.757812 501.714844 Z M 974.382812 492.898438 "/>
<path style=" stroke:none;fill-rule:nonzero;fill:rgb(100%,82.352941%,0%);fill-opacity:1;" d="M 917.699219 497.109375 L 922.078125 501.714844 L 917.699219 506.382812 L 913.269531 501.714844 Z M 917.699219 497.109375 "/>
<path style=" stroke:none;fill-rule:nonzero;fill:rgb(100%,82.352941%,0%);fill-opacity:1;" d="M 974.382812 497.109375 L 978.816406 501.714844 L 974.382812 506.382812 L 970.007812 501.714844 Z M 974.382812 497.109375 "/>
<path style=" stroke:none;fill-rule:nonzero;fill:rgb(0%,0%,0%);fill-opacity:1;" d="M 909.972656 510.535156 C 911.636719 514.867188 915.59375 528.285156 915.59375 544.378906 C 915.59375 555.515625 914.566406 561.386719 914.566406 561.386719 C 914.566406 561.386719 926.375 557.726562 928.726562 545.117188 C 929.828125 539.207031 931.054688 517.429688 925.375 513.71875 Z M 909.972656 510.535156 "/>
<path style=" stroke:none;fill-rule:nonzero;fill:rgb(0%,0%,0%);fill-opacity:1;" d="M 982.109375 510.535156 L 966.707031 513.71875 C 961.027344 517.429688 962.257812 539.207031 963.359375 545.117188 C 965.707031 557.726562 977.515625 561.386719 977.515625 561.386719 C 977.515625 561.386719 976.488281 555.519531 976.488281 544.378906 C 976.488281 528.285156 980.445312 514.867188 982.109375 510.535156 Z M 982.109375 510.535156 "/>
<path style=" stroke:none;fill-rule:nonzero;fill:rgb(0%,0%,0%);fill-opacity:1;" d="M 881.285156 514.066406 C 880.625 514.097656 879.945312 514.175781 879.28125 514.351562 C 873.972656 515.753906 870.761719 521.445312 872.097656 527.035156 C 872.300781 527.890625 872.636719 528.679688 873.015625 529.421875 C 872.242188 529.152344 871.433594 528.972656 870.582031 528.910156 C 870.242188 528.886719 869.890625 528.898438 869.558594 528.910156 C 864.53125 529.089844 860.34375 533.246094 859.992188 538.640625 C 859.617188 544.386719 863.769531 549.335938 869.234375 549.730469 C 870.050781 549.789062 870.839844 549.757812 871.609375 549.617188 C 871.140625 550.296875 870.734375 551.019531 870.421875 551.835938 C 868.378906 557.183594 870.855469 563.335938 875.933594 565.488281 C 881.015625 567.636719 886.804688 564.976562 888.847656 559.628906 C 889.160156 558.8125 889.335938 558.015625 889.445312 557.183594 C 889.910156 557.867188 890.472656 558.492188 891.117188 559.058594 C 895.316406 562.757812 901.601562 562.171875 905.113281 557.75 C 908.628906 553.332031 908.070312 546.773438 903.871094 543.074219 C 903.234375 542.515625 902.53125 542.074219 901.816406 541.710938 C 902.582031 541.453125 903.324219 541.097656 904.03125 540.632812 C 908.671875 537.570312 910.074219 531.066406 907.164062 526.183594 C 905.167969 522.824219 901.652344 521.101562 898.140625 521.347656 C 896.542969 521.460938 894.945312 521.984375 893.492188 522.941406 C 892.785156 523.410156 892.15625 523.929688 891.601562 524.535156 C 891.605469 523.691406 891.535156 522.828125 891.332031 521.972656 C 890.167969 517.082031 885.894531 513.859375 881.28125 514.066406 L 881.285156 514.066406 L 881.285156 514.070312 Z M 881.285156 514.066406 "/>
<path style=" stroke:none;fill-rule:nonzero;fill:rgb(100%,82.352941%,0%);fill-opacity:1;" d="M 915.378906 515.421875 L 923.644531 517.242188 C 926.703125 521.6875 926.183594 528.867188 926.183594 538.859375 C 926.183594 548.933594 919 552.792969 919 552.792969 C 919 528.578125 916.625 522.757812 915.378906 515.421875 Z M 915.378906 515.421875 "/>
<path style=" stroke:none;fill-rule:nonzero;fill:rgb(100%,82.352941%,0%);fill-opacity:1;" d="M 976.707031 515.421875 C 975.453125 522.757812 973.085938 528.578125 973.085938 552.792969 C 973.085938 552.792969 965.898438 548.933594 965.898438 538.859375 C 965.898438 528.867188 965.378906 521.6875 968.4375 517.242188 Z M 976.707031 515.421875 "/>
<path style=" stroke:none;fill-rule:nonzero;fill:rgb(100%,82.352941%,0%);fill-opacity:1;" d="M 881.875 518.445312 C 885.457031 518.28125 888.75 520.785156 889.65625 524.585938 C 889.871094 525.492188 889.894531 526.382812 889.816406 527.261719 C 889.753906 527.988281 889.570312 528.648438 889.332031 529.308594 C 888.136719 528.847656 886.84375 528.625 885.496094 528.625 C 882.160156 528.625 879.175781 530.167969 877.121094 532.609375 C 876.578125 532.105469 876.109375 531.550781 875.714844 530.902344 C 875.273438 530.179688 874.898438 529.390625 874.6875 528.511719 C 873.652344 524.164062 876.175781 519.761719 880.308594 518.671875 C 880.824219 518.535156 881.363281 518.464844 881.875 518.441406 Z M 881.875 518.445312 "/>
<path style=" stroke:none;fill-rule:nonzero;fill:rgb(0%,0%,0%);fill-opacity:1;" d="M 1005.34375 521.800781 C 992.65625 521.800781 983.375 532.089844 984.648438 544.722656 C 985.722656 555.375 993.945312 564.300781 1004.101562 566.847656 C 1002.367188 563.863281 1001.214844 560.535156 1000.859375 557.007812 C 999.585938 544.375 1008.867188 534.140625 1021.554688 534.140625 C 1023.554688 534.140625 1025.492188 534.402344 1027.390625 534.882812 C 1022.917969 527.164062 1014.496094 521.800781 1005.34375 521.800781 Z M 1005.34375 521.800781 "/>
<path style=" stroke:none;fill-rule:nonzero;fill:rgb(100%,82.352941%,0%);fill-opacity:1;" d="M 897.328125 524.699219 C 899.804688 524.785156 902.179688 526.136719 903.59375 528.511719 C 905.859375 532.308594 904.773438 537.335938 901.164062 539.714844 C 900.410156 540.214844 899.605469 540.542969 898.785156 540.742188 C 898.101562 540.90625 897.410156 540.890625 896.730469 540.855469 C 896.734375 540.738281 896.730469 540.632812 896.730469 540.511719 C 896.730469 535.679688 893.972656 531.5 890.03125 529.648438 C 890.308594 528.941406 890.636719 528.265625 891.109375 527.65625 C 891.621094 527.011719 892.234375 526.425781 892.949219 525.949219 C 894.300781 525.058594 895.835938 524.648438 897.324219 524.699219 Z M 897.328125 524.699219 "/>
<path style=" stroke:none;fill-rule:nonzero;fill:rgb(100%,82.352941%,0%);fill-opacity:1;" d="M 1005.34375 526.523438 C 1009.3125 526.523438 1013.128906 527.800781 1016.421875 529.9375 C 1004.039062 532.457031 995.128906 543.964844 996.425781 557.410156 C 992.480469 553.96875 989.59375 549.335938 989.078125 544.214844 C 988.074219 534.238281 994.957031 526.523438 1005.34375 526.523438 Z M 1005.34375 526.523438 "/>
<path style=" stroke:none;fill-rule:nonzero;fill:rgb(100%,82.352941%,0%);fill-opacity:1;" d="M 872.417969 531.410156 C 873.316406 531.476562 874.121094 531.738281 874.902344 532.09375 C 875.527344 532.378906 876.105469 532.75 876.628906 533.171875 C 875.128906 535.195312 874.253906 537.75 874.253906 540.511719 C 874.253906 542.675781 874.804688 544.683594 875.765625 546.429688 C 875.113281 546.859375 874.429688 547.199219 873.660156 547.394531 C 872.914062 547.585938 872.140625 547.679688 871.335938 547.621094 C 867.085938 547.316406 863.859375 543.449219 864.148438 538.976562 C 864.441406 534.503906 868.167969 531.105469 872.417969 531.410156 Z M 872.417969 531.410156 "/>
<path style=" stroke:none;fill-rule:nonzero;fill:rgb(100%,82.352941%,0%);fill-opacity:1;" d="M 885.496094 532.609375 C 889.617188 532.609375 892.953125 536.175781 892.953125 540.519531 C 892.953125 544.859375 889.617188 548.371094 885.496094 548.371094 C 881.367188 548.371094 878.035156 544.859375 878.035156 540.519531 C 878.035156 536.175781 881.371094 532.609375 885.496094 532.609375 Z M 885.496094 532.609375 "/>
<path style=" stroke:none;fill-rule:nonzero;fill:rgb(100%,82.352941%,0%);fill-opacity:1;" d="M 896.671875 541.644531 C 897.410156 541.730469 898.125 541.917969 898.835938 542.214844 C 899.570312 542.523438 900.300781 542.898438 900.941406 543.464844 C 904.207031 546.339844 904.59375 551.457031 901.859375 554.898438 C 899.128906 558.335938 894.265625 558.796875 891 555.921875 C 890.308594 555.3125 889.808594 554.585938 889.378906 553.816406 C 889.035156 553.203125 888.8125 552.554688 888.621094 551.882812 C 892.96875 550.5625 896.226562 546.527344 896.671875 541.644531 Z M 896.671875 541.644531 "/>
<path style=" stroke:none;fill-rule:nonzero;fill:rgb(100%,82.352941%,0%);fill-opacity:1;" d="M 876.144531 547.109375 C 878.160156 550.257812 881.605469 552.34375 885.492188 552.34375 C 886.308594 552.34375 887.101562 552.234375 887.867188 552.058594 C 888.03125 552.804688 888.128906 553.558594 888.085938 554.335938 C 888.035156 555.179688 887.914062 556.011719 887.597656 556.839844 C 886.011719 560.996094 881.5 563.003906 877.546875 561.332031 C 873.597656 559.660156 871.632812 554.914062 873.222656 550.753906 C 873.546875 549.914062 873.992188 549.183594 874.519531 548.535156 C 874.988281 547.964844 875.546875 547.511719 876.144531 547.113281 Z M 876.144531 547.109375 "/>
<path style=" stroke:none;fill-rule:nonzero;fill:rgb(0%,0%,0%);fill-opacity:1;" d="M 932.667969 566.457031 C 925.734375 566.457031 921.320312 567.996094 921.320312 570.210938 C 921.320312 572.425781 925.738281 573.90625 932.667969 573.90625 C 934.515625 573.90625 936.613281 572.777344 936.613281 570.210938 C 936.613281 567.644531 934.515625 566.457031 932.667969 566.457031 Z M 932.667969 566.457031 "/>
<path style=" stroke:none;fill-rule:nonzero;fill:rgb(0%,0%,0%);fill-opacity:1;" d="M 959.414062 566.457031 C 957.566406 566.457031 955.472656 567.644531 955.472656 570.210938 C 955.46875 572.777344 957.566406 573.90625 959.414062 573.90625 C 966.347656 573.90625 970.761719 572.425781 970.761719 570.210938 C 970.761719 567.996094 966.347656 566.457031 959.414062 566.457031 Z M 959.414062 566.457031 "/>
<path style=" stroke:none;fill-rule:nonzero;fill:rgb(0%,0%,0%);fill-opacity:1;" d="M 1161.214844 437.390625 L 1149.21875 446.605469 L 1150.574219 449.617188 C 1150.574219 449.617188 1148.375 450.410156 1147.382812 452.460938 C 1146.390625 454.511719 1148.03125 457.410156 1148.03125 457.410156 C 1148.03125 457.410156 1136.628906 456.363281 1134.847656 457.582031 C 1133.234375 458.683594 1135.53125 466.996094 1134.46875 474.019531 C 1132.988281 483.808594 1129.320312 482.988281 1129.171875 484.882812 C 1129.027344 486.726562 1130.578125 489.605469 1130.578125 489.605469 C 1130.578125 489.605469 1128.4375 490.3125 1127.984375 491.253906 C 1127.25 492.769531 1128.492188 495.5625 1127.605469 497.398438 C 1122.644531 507.644531 1115.316406 522.769531 1110.476562 532.777344 C 1109.796875 534.175781 1107.980469 534.707031 1107.070312 536.589844 C 1106.230469 538.324219 1106.910156 540.855469 1106.910156 540.855469 C 1106.910156 540.855469 1103.699219 541.058594 1102.585938 543.359375 C 1101.402344 545.804688 1102.097656 549.101562 1102.097656 549.101562 C 1102.097656 549.101562 1100.066406 549.375 1099.070312 551.4375 C 1098.003906 553.636719 1099.808594 554.792969 1099.34375 555.757812 C 1092.832031 569.207031 1085.164062 585.058594 1080.484375 594.722656 C 1078.761719 598.277344 1072.738281 598.988281 1069.242188 606.214844 C 1065.851562 613.21875 1070.703125 618.386719 1070.703125 618.386719 C 1070.703125 618.386719 1065.664062 618.867188 1064.324219 621.628906 C 1062.960938 624.445312 1064.042969 628.722656 1067.675781 630.671875 C 1071.3125 632.621094 1075.285156 631.042969 1076.648438 628.226562 C 1077.984375 625.464844 1075.296875 620.890625 1075.296875 620.890625 C 1075.296875 620.890625 1082.117188 621.921875 1085.507812 614.914062 C 1089.007812 607.691406 1086.058594 602.203125 1087.777344 598.648438 C 1092.457031 588.980469 1100.128906 573.132812 1106.636719 559.683594 C 1107.109375 558.714844 1109.03125 559.554688 1110.097656 557.351562 C 1111.09375 555.292969 1110.097656 553.429688 1110.097656 553.429688 C 1110.097656 553.429688 1113.074219 552.0625 1114.257812 549.617188 C 1115.371094 547.3125 1113.664062 544.441406 1113.664062 544.441406 C 1113.664062 544.441406 1116.011719 543.558594 1116.851562 541.824219 C 1117.761719 539.941406 1117.09375 538.101562 1117.769531 536.703125 C 1122.613281 526.695312 1129.941406 511.570312 1134.898438 501.324219 C 1135.789062 499.484375 1138.652344 498.855469 1139.382812 497.339844 C 1139.839844 496.402344 1139.117188 494.15625 1139.117188 494.15625 C 1139.117188 494.15625 1142.269531 493.828125 1143.597656 492.621094 C 1144.96875 491.378906 1142.1875 488.714844 1148.84375 481.699219 C 1153.617188 476.667969 1161.316406 473.707031 1161.214844 471.6875 C 1161.105469 469.453125 1153.597656 460.367188 1153.597656 460.367188 C 1153.597656 460.367188 1156.765625 460.085938 1157.757812 458.039062 C 1158.75 455.988281 1158.082031 453.601562 1158.082031 453.601562 L 1161.214844 453.03125 L 1161.214844 437.386719 Z M 1048.441406 662.699219 C 1046.902344 662.863281 1045.945312 663.820312 1045.632812 664.464844 C 1045.160156 665.4375 1045.074219 666.769531 1045.632812 667.933594 C 1045.632812 667.933594 1041.851562 666.6875 1040.554688 667.363281 C 1039.332031 668 1040.554688 686.761719 1040.554688 686.761719 C 1040.554688 686.761719 1055.640625 676.742188 1055.410156 675.328125 C 1055.167969 673.824219 1052.007812 671.289062 1052.007812 671.289062 C 1053.230469 671.082031 1054.183594 670.277344 1054.65625 669.300781 C 1055.152344 668.269531 1055.21875 665.335938 1051.792969 663.496094 C 1050.507812 662.808594 1049.363281 662.601562 1048.441406 662.699219 Z M 1048.441406 662.699219 "/>
<path style=" stroke:none;fill-rule:nonzero;fill:rgb(0%,0%,0%);fill-opacity:1;" d="M 931.75 225.957031 C 927.976562 225.957031 922.417969 226.0625 919.160156 228.34375 C 916.175781 230.429688 916.417969 233.140625 915.375 234.089844 C 912.917969 236.328125 908.703125 236.25 906.675781 236.25 C 893.542969 236.25 893.058594 251.042969 893.058594 251.042969 C 893.058594 251.042969 896.414062 245.691406 902.351562 245.691406 C 912.222656 245.691406 919.695312 251.351562 919.695312 253.484375 C 919.695312 254.347656 918.679688 254.507812 918.617188 254.507812 C 912.171875 254.507812 902.441406 250.601562 897.269531 250.414062 L 897.269531 252.574219 C 897.339844 252.625 897.386719 252.6875 897.488281 252.746094 C 897.414062 252.730469 897.34375 252.703125 897.269531 252.6875 L 897.269531 253.085938 C 908.808594 257.3125 920.507812 263.292969 920.507812 289.660156 C 920.507812 306.265625 918.617188 323.207031 910.726562 336.53125 C 907.933594 341.25 903.953125 345.289062 899.164062 348.875 C 897.03125 348.199219 887.011719 344.921875 879.980469 340.800781 C 867.601562 333.542969 861.183594 326.320312 846.476562 325.609375 L 846.476562 313.835938 C 846.476562 307.542969 848.640625 301.875 848.640625 295.859375 C 842.4375 294.109375 825.230469 271.960938 809.355469 262.128906 C 785.992188 278.058594 767.90625 304.203125 767.90625 316.226562 C 767.90625 316.226562 768.609375 574.570312 767.90625 664.570312 C 767.90625 669.757812 764.9375 677.085938 764.9375 677.085938 C 773.464844 673.285156 789.09375 650.773438 792.386719 642.214844 L 792.386719 646.3125 C 805.265625 640.128906 814.695312 623.886719 818.917969 615.480469 C 818.992188 616.695312 819.191406 619.746094 819.191406 619.746094 C 830.695312 609.128906 845.34375 546.371094 845.34375 546.371094 L 844.585938 533.175781 C 844.585938 533.175781 834.457031 584.414062 822.917969 594.949219 L 822.917969 374.304688 L 832.050781 383.230469 L 845.882812 369.636719 L 845.882812 359.285156 L 833.617188 371.34375 L 833.617188 340.117188 C 835.464844 337.171875 836.691406 334.976562 837.617188 333.234375 C 839.601562 336.875 846.019531 348.042969 853.554688 354.90625 C 854.796875 349.597656 862.957031 344.550781 862.957031 344.550781 C 862.957031 344.550781 865.882812 352.894531 870.359375 354.960938 C 871.933594 352.042969 881.332031 345.578125 881.332031 345.578125 C 881.332031 345.578125 873.292969 346.863281 870.039062 350.070312 C 867.242188 349.414062 866.523438 337.785156 866.523438 337.785156 C 866.523438 337.785156 854.695312 343.851562 852.636719 348.191406 C 850.382812 347.550781 846.871094 338.207031 845.503906 334.371094 C 847.566406 334.132812 850.480469 333.859375 854.3125 333.859375 C 857.683594 333.859375 862 335.542969 866.523438 337.785156 C 871.492188 340.246094 876.691406 343.363281 881.332031 345.578125 C 887.277344 348.410156 896.269531 348.988281 898.890625 349.105469 C 895.890625 351.328125 892.585938 353.355469 889.003906 355.246094 C 889.003906 355.246094 903.160156 355.109375 913.105469 349.898438 C 916.652344 347.496094 920.335938 345.105469 923.480469 342.277344 C 922.117188 346.269531 919.992188 350.988281 916.667969 355.019531 C 931.273438 353.71875 938.546875 344.9375 940.609375 341.992188 C 941.578125 344.632812 943.304688 348.867188 946.011719 352.515625 C 948.722656 348.867188 950.5 344.632812 951.46875 341.992188 C 953.535156 344.9375 960.804688 353.71875 975.410156 355.019531 C 972.089844 350.988281 969.964844 346.269531 968.601562 342.277344 C 971.746094 345.101562 975.429688 347.496094 978.976562 349.898438 C 988.917969 355.109375 1003.078125 355.246094 1003.078125 355.246094 C 999.492188 353.355469 996.136719 351.320312 993.132812 349.105469 C 995.65625 349.003906 1004.757812 348.433594 1010.75 345.578125 C 1015.390625 343.363281 1020.589844 340.246094 1025.554688 337.785156 C 1030.078125 335.542969 1034.394531 333.859375 1037.769531 333.859375 C 1041.601562 333.859375 1044.511719 334.132812 1046.578125 334.371094 C 1045.210938 338.207031 1041.699219 347.550781 1039.445312 348.191406 C 1037.386719 343.851562 1025.554688 337.785156 1025.554688 337.785156 C 1025.554688 337.785156 1024.839844 349.414062 1022.042969 350.070312 C 1018.789062 346.863281 1010.75 345.578125 1010.75 345.578125 C 1010.75 345.578125 1020.144531 352.042969 1021.71875 354.960938 C 1026.195312 352.894531 1029.070312 344.550781 1029.070312 344.550781 C 1029.070312 344.550781 1037.285156 349.597656 1038.523438 354.90625 C 1046.0625 348.042969 1052.480469 336.878906 1054.464844 333.234375 C 1055.425781 335.03125 1056.707031 337.316406 1058.464844 340.117188 L 1058.464844 371.34375 L 1046.199219 359.285156 L 1046.199219 369.636719 L 1060.03125 383.230469 L 1069.164062 374.304688 L 1069.164062 594.949219 C 1057.625 584.414062 1047.496094 533.175781 1047.496094 533.175781 L 1046.738281 546.371094 C 1046.738281 546.371094 1061.386719 609.128906 1072.890625 619.746094 C 1072.890625 619.746094 1073.085938 616.699219 1073.164062 615.480469 C 1077.382812 623.886719 1086.816406 640.128906 1099.695312 646.3125 L 1099.695312 642.214844 C 1102.984375 650.773438 1118.617188 673.285156 1127.144531 677.085938 C 1127.144531 677.085938 1124.171875 669.757812 1124.171875 664.570312 C 1123.472656 574.570312 1124.171875 316.226562 1124.171875 316.226562 C 1124.171875 304.199219 1106.085938 278.058594 1082.726562 262.128906 C 1066.855469 271.960938 1049.640625 294.113281 1043.441406 295.859375 C 1043.441406 301.875 1045.601562 307.542969 1045.601562 313.835938 L 1045.601562 325.554688 C 1030.925781 326.277344 1024.464844 333.546875 1012.101562 340.796875 C 1005.023438 344.949219 994.894531 348.238281 992.863281 348.875 C 988.078125 345.296875 984.148438 341.25 981.355469 336.53125 C 974.628906 325.171875 971.789062 311.226562 971.789062 297.054688 C 971.789062 291.066406 978.167969 284.320312 978.167969 279.476562 C 978.167969 272.15625 977.519531 267.761719 977.519531 267.761719 C 979.78125 268.085938 983.730469 272.3125 983.730469 272.3125 C 983.730469 272.3125 983.597656 260.160156 979.949219 258.035156 C 979.949219 258.035156 981.425781 256.4375 986.757812 256.273438 C 985.257812 252.277344 977.84375 247.398438 977.84375 247.398438 C 978.210938 246.699219 978.898438 246.09375 979.785156 245.578125 C 981.648438 244.496094 984.265625 243.777344 986.269531 243.359375 C 984.136719 242.894531 981.675781 242.179688 978.976562 241.253906 C 972.808594 239.140625 965.550781 236.035156 958.765625 232.609375 C 946.382812 226.355469 936.949219 225.953125 931.746094 225.953125 L 931.746094 225.957031 Z M 932.019531 229.539062 C 933.167969 229.550781 934.230469 229.597656 935.152344 229.597656 C 947.246094 229.597656 955.753906 235.402344 967.199219 240.746094 C 970.195312 242.144531 972.949219 243.277344 975.410156 244.15625 C 973.871094 245.59375 972.671875 247.035156 972.328125 248.253906 C 972.328125 248.253906 977.457031 249.253906 979.785156 253.773438 C 979.785156 253.773438 974.910156 254.355469 974.113281 257.355469 C 976.84375 257.570312 979.558594 261.195312 979.570312 264.691406 L 972.652344 262.417969 C 972.652344 262.417969 974.328125 270.59375 974.328125 279.480469 C 974.328125 284.019531 968.117188 289.363281 968.117188 297.058594 C 968.117188 321.207031 973.894531 330.488281 978.003906 337.953125 C 979.613281 340.875 980.917969 344.238281 983.625 346.769531 C 971.785156 340.132812 962.980469 331.839844 962.980469 324.132812 L 962.980469 294.953125 L 959.902344 294.953125 L 959.902344 324.132812 C 959.902344 329.722656 961.199219 332.324219 961.199219 332.324219 C 963.058594 338.507812 966.816406 348.050781 969.140625 351.890625 C 958.25 345.691406 952.714844 337.933594 952.714844 335.054688 L 952.714844 294.953125 L 949.632812 294.953125 L 949.632812 335.621094 L 950.226562 338.410156 C 948.90625 340.496094 947.191406 342.972656 946.011719 343.8125 C 944.839844 342.972656 943.171875 340.496094 941.851562 338.410156 L 942.445312 335.621094 L 942.445312 294.953125 L 939.367188 294.953125 L 939.367188 335.054688 C 939.367188 337.929688 933.832031 345.691406 922.9375 351.890625 C 925.265625 348.046875 929.023438 338.507812 930.878906 332.324219 C 930.878906 332.324219 932.179688 329.722656 932.179688 324.132812 L 932.179688 294.953125 L 929.097656 294.953125 L 929.097656 324.132812 C 929.097656 331.828125 920.328125 340.140625 908.507812 346.769531 C 911.1875 344.234375 912.476562 340.859375 914.074219 337.953125 C 918.570312 329.789062 924.125 319.417969 924.125 289.890625 C 924.125 278.808594 922.566406 271.273438 919.855469 266 C 919.03125 264.261719 917.921875 259.628906 924.234375 259.628906 C 927.5 259.628906 934.988281 265.714844 934.988281 265.714844 C 934.988281 265.714844 934.679688 260.859375 930.878906 258.09375 C 930.25 257.632812 929.207031 256.191406 929.207031 254.851562 C 929.207031 253.84375 930.84375 251.367188 932.121094 250.753906 C 933 250.335938 919.261719 247.8125 919.261719 241.253906 C 919.261719 239.890625 920.078125 238.980469 922.933594 238.980469 C 926.675781 238.980469 932.765625 243.699219 938.175781 243.699219 C 942.175781 243.699219 943.75 242.675781 947.847656 242.675781 C 952.851562 242.675781 963.292969 252.652344 966.867188 252.289062 C 962.875 249.648438 956.421875 239.660156 946.65625 239.660156 C 943.269531 239.660156 940.203125 240.457031 937.039062 240.457031 C 932.984375 240.457031 928.992188 236.53125 924.609375 236.53125 C 921.671875 236.53125 918.394531 236.703125 917.90625 235.90625 C 917.058594 234.511719 917.824219 233.703125 918.609375 232.550781 C 920.097656 230.375 924.273438 229.746094 928.394531 229.59375 C 929.628906 229.546875 930.859375 229.527344 932.011719 229.535156 L 932.015625 229.535156 Z M 809.355469 273.335938 L 809.355469 273.390625 C 809.355469 273.390625 831.0625 294.328125 838.371094 296.996094 L 838.640625 304.050781 L 838.640625 324.8125 C 833.34375 322.894531 826.6875 313.734375 823.457031 308.886719 L 823.457031 306.042969 C 823.457031 303.367188 824.953125 301.414062 826.050781 300.355469 L 822.863281 299.164062 C 821.648438 300.621094 820.324219 302.789062 820.324219 305.589844 L 820.324219 307.238281 L 819.296875 308.378906 L 818.757812 309.003906 L 810.8125 317.988281 L 801.464844 303.085938 L 801.464844 299.445312 C 801.464844 296.992188 803.257812 294.257812 804.761719 292.394531 L 801.628906 291.199219 C 800.046875 293.355469 798.386719 296.265625 798.386719 298.992188 L 798.386719 301.949219 C 796.1875 304.34375 787.632812 313.609375 787.632812 313.609375 C 787.632812 313.609375 783.339844 303.902344 782.175781 301.265625 C 788.726562 291.714844 799.34375 281.023438 809.355469 273.335938 Z M 1082.722656 273.335938 C 1092.710938 281.003906 1103.335938 291.734375 1109.902344 301.265625 C 1108.738281 303.898438 1104.445312 313.609375 1104.445312 313.609375 C 1104.445312 313.609375 1095.890625 304.34375 1093.695312 301.949219 L 1093.695312 298.988281 C 1093.695312 296.261719 1092.035156 293.355469 1090.449219 291.199219 L 1087.316406 292.390625 C 1088.820312 294.253906 1090.613281 296.992188 1090.613281 299.445312 L 1090.613281 303.085938 L 1081.261719 317.988281 L 1073.320312 309.003906 L 1072.78125 308.375 L 1071.753906 307.238281 L 1071.753906 305.585938 C 1071.753906 302.785156 1070.429688 300.617188 1069.214844 299.160156 L 1066.027344 300.355469 C 1067.125 301.414062 1068.621094 303.367188 1068.621094 306.042969 L 1068.621094 308.886719 C 1065.390625 313.734375 1058.734375 322.894531 1053.4375 324.8125 L 1053.4375 304.050781 L 1053.707031 296.996094 C 1061.015625 294.328125 1082.722656 273.390625 1082.722656 273.390625 Z M 778.382812 307.636719 L 783.355469 317.132812 L 783.355469 334.257812 L 775.792969 341.652344 L 775.792969 316.226562 C 775.792969 313.792969 776.761719 310.859375 778.382812 307.636719 Z M 1113.679688 307.636719 C 1115.308594 310.859375 1116.273438 313.792969 1116.273438 316.226562 L 1116.273438 341.652344 L 1108.710938 334.257812 L 1108.710938 317.132812 Z M 798.21875 309.796875 L 806.917969 323.730469 L 806.917969 334.3125 L 798.21875 342.902344 Z M 1093.859375 309.796875 L 1093.859375 342.902344 L 1085.15625 334.3125 L 1085.15625 323.734375 L 1093.859375 309.800781 Z M 795.136719 312.300781 L 795.136719 342.84375 L 786.433594 334.3125 L 786.433594 321.914062 Z M 1096.929688 312.300781 L 1105.628906 321.914062 L 1105.628906 334.3125 L 1096.929688 342.84375 L 1096.929688 312.296875 Z M 821.832031 314.519531 C 823.140625 316.8125 829.148438 327.046875 834.851562 329.988281 C 832.832031 332.996094 827.539062 340.347656 821.832031 343.585938 Z M 1070.234375 314.519531 L 1070.234375 343.585938 C 1064.523438 340.347656 1059.234375 332.996094 1057.210938 329.988281 C 1062.917969 327.046875 1068.925781 316.8125 1070.234375 314.515625 Z M 818.746094 315.996094 L 818.746094 342.84375 L 810.046875 334.3125 L 810.046875 324.8125 Z M 1073.316406 315.996094 L 1082.015625 324.8125 L 1082.015625 334.3125 L 1073.316406 342.84375 Z M 783.355469 344.609375 L 783.355469 371.398438 L 775.789062 363.949219 L 775.789062 352.058594 Z M 1108.710938 344.609375 L 1116.273438 352.058594 L 1116.273438 363.949219 L 1108.710938 371.398438 Z M 786.425781 344.667969 L 791.398438 349.558594 L 795.128906 353.199219 L 795.128906 362.808594 L 791.398438 366.449219 L 786.425781 371.339844 L 786.425781 344.664062 Z M 806.90625 344.667969 L 806.90625 371.34375 L 801.933594 366.453125 L 798.207031 362.753906 L 798.207031 353.253906 L 801.933594 349.558594 Z M 810.042969 344.667969 L 818.742188 353.253906 L 818.742188 362.753906 L 814.957031 366.507812 L 810.042969 371.34375 L 810.042969 344.664062 Z M 830.523438 344.667969 L 830.523438 371.398438 L 825.550781 366.507812 L 821.820312 362.808594 L 821.820312 353.882812 C 824.820312 351.953125 827.839844 348.410156 830.519531 344.664062 L 830.519531 344.667969 Z M 1061.53125 344.667969 C 1064.214844 348.40625 1067.230469 351.953125 1070.230469 353.878906 L 1070.230469 362.808594 L 1066.5 366.507812 L 1061.53125 371.398438 L 1061.53125 344.664062 Z M 1082.011719 344.667969 L 1082.011719 371.34375 L 1077.09375 366.507812 L 1073.308594 362.753906 L 1073.308594 353.257812 Z M 1085.144531 344.667969 L 1090.117188 349.558594 L 1093.84375 353.253906 L 1093.84375 362.753906 L 1090.117188 366.453125 L 1085.144531 371.34375 L 1085.144531 344.664062 Z M 1105.625 344.667969 L 1105.625 371.34375 L 1100.652344 366.453125 L 1096.921875 362.8125 L 1096.921875 353.199219 L 1100.652344 349.558594 Z M 799.289062 374.1875 L 808.476562 383.230469 L 817.664062 374.242188 L 817.664062 594.941406 C 817.664062 594.941406 818.304688 605.894531 818.742188 613.03125 C 814.660156 617.378906 799.289062 633.734375 799.289062 633.734375 L 799.289062 374.179688 Z M 1092.765625 374.1875 L 1092.765625 633.730469 C 1092.765625 633.730469 1077.398438 617.375 1073.3125 613.027344 C 1073.753906 605.890625 1074.394531 594.941406 1074.394531 594.941406 L 1074.394531 374.238281 L 1083.578125 383.226562 L 1092.765625 374.183594 Z M 794.042969 374.246094 L 794.042969 625.488281 C 794.042969 632.582031 781.738281 649.125 775.78125 652.90625 L 775.78125 374.304688 L 784.859375 383.234375 Z M 1098.003906 374.246094 L 1107.1875 383.230469 L 1116.269531 374.300781 L 1116.269531 652.902344 C 1110.3125 649.121094 1098.003906 632.578125 1098.003906 625.484375 L 1098.003906 374.242188 Z M 869.75 571.621094 C 869.75 571.621094 860.921875 590.484375 857.484375 593.859375 C 857.484375 593.859375 859.789062 594.167969 862.402344 594.144531 C 860.796875 596.578125 848.523438 615.171875 844.675781 622.1875 C 841.078125 628.75 838.539062 625.828125 833.003906 625.828125 C 828.417969 625.828125 818.015625 633.523438 816.308594 636.636719 C 814.511719 639.910156 813.175781 643.882812 813.175781 647.160156 C 813.175781 650.761719 816.796875 655.691406 816.796875 655.691406 C 817.1875 653.96875 817.875 653.359375 817.875 653.359375 C 817.875 653.359375 827.390625 665.835938 828.792969 667.464844 C 829.882812 668.734375 834.75 669.5625 836.464844 667.921875 C 840.757812 663.8125 844.910156 660.941406 848.730469 655.011719 C 850.699219 651.953125 850.847656 648.449219 853.109375 645.167969 C 860.667969 634.191406 875.714844 613.167969 879.152344 608.367188 C 879.382812 609.703125 879.582031 610.816406 879.800781 612.179688 C 883.699219 603.890625 902.441406 588.058594 902.441406 588.058594 L 897.253906 584.476562 C 897.253906 584.476562 885.957031 598.339844 882.289062 600.914062 C 882.289062 600.914062 880.71875 594.019531 879.800781 591.585938 C 879.800781 591.585938 875.472656 595.035156 873.101562 595.117188 C 873.101562 595.117188 872.394531 590.4375 871.859375 587.378906 C 868.878906 589.46875 863.917969 589.027344 863.917969 589.027344 C 868.273438 586.855469 873.425781 573.554688 873.425781 573.554688 L 869.753906 571.621094 L 869.75 571.625 Z M 1022.296875 571.621094 L 1018.625 573.554688 C 1018.625 573.554688 1023.777344 586.855469 1028.132812 589.027344 C 1028.132812 589.027344 1023.171875 589.472656 1020.191406 587.378906 C 1019.65625 590.4375 1018.949219 595.117188 1018.949219 595.117188 C 1016.578125 595.035156 1012.246094 591.585938 1012.246094 591.585938 C 1011.328125 594.019531 1009.761719 600.917969 1009.761719 600.917969 C 1006.09375 598.34375 994.792969 584.476562 994.792969 584.476562 L 989.605469 588.058594 C 989.605469 588.058594 1008.347656 603.890625 1012.246094 612.179688 C 1012.46875 610.816406 1012.664062 609.703125 1012.894531 608.367188 C 1016.335938 613.171875 1031.378906 634.191406 1038.941406 645.167969 C 1041.199219 648.449219 1041.351562 651.953125 1043.320312 655.011719 C 1047.136719 660.941406 1051.292969 663.8125 1055.585938 667.921875 C 1057.296875 669.5625 1062.167969 668.738281 1063.257812 667.464844 C 1064.660156 665.835938 1074.171875 653.359375 1074.171875 653.359375 C 1074.171875 653.359375 1074.863281 653.96875 1075.253906 655.691406 C 1075.253906 655.691406 1078.875 650.761719 1078.875 647.160156 C 1078.875 643.882812 1077.535156 639.910156 1075.742188 636.636719 C 1074.03125 633.523438 1063.632812 625.828125 1059.042969 625.828125 C 1053.511719 625.828125 1050.972656 628.75 1047.371094 622.1875 C 1043.523438 615.175781 1031.253906 596.578125 1029.648438 594.148438 C 1032.261719 594.171875 1034.566406 593.863281 1034.566406 593.863281 C 1031.125 590.484375 1022.296875 571.621094 1022.296875 571.621094 L 1022.300781 571.621094 Z M 868.503906 592.894531 C 868.503906 592.894531 868.433594 599.289062 870.34375 601.542969 L 877.042969 596.707031 C 877.042969 596.707031 877.488281 599.039062 878.070312 602.226562 C 875.199219 606.355469 858.71875 630.03125 850.566406 641.585938 C 848.535156 644.457031 846.835938 651.769531 846.835938 651.769531 C 846.835938 651.769531 843.863281 650.289062 843.863281 647.617188 C 843.863281 644.992188 844.1875 641.871094 844.1875 641.871094 C 844.1875 641.871094 841.972656 644.542969 838.136719 644.542969 C 838.136719 641.320312 844.0625 637.820312 844.296875 633.226562 C 839.777344 636.753906 835.851562 634.941406 830.625 636.640625 C 824.933594 638.484375 823.347656 641.003906 821.601562 640.90625 C 820.574219 640.847656 819.640625 638.980469 820.035156 637.835938 C 820.714844 635.847656 827.753906 630.351562 832.675781 629.359375 C 833.855469 629.121094 843.128906 631.484375 845 628.449219 C 852.695312 615.949219 865.191406 595.652344 866.398438 593.695312 C 867.191406 593.496094 867.921875 593.285156 868.503906 592.898438 Z M 1023.53125 592.894531 C 1024.117188 593.28125 1024.847656 593.492188 1025.640625 593.691406 C 1026.847656 595.648438 1039.34375 615.941406 1047.039062 628.445312 C 1048.90625 631.480469 1058.179688 629.117188 1059.359375 629.355469 C 1064.285156 630.351562 1071.324219 635.847656 1072.003906 637.828125 C 1072.398438 638.976562 1071.464844 640.84375 1070.4375 640.902344 C 1068.691406 641 1067.105469 638.480469 1061.414062 636.636719 C 1056.183594 634.9375 1052.261719 636.75 1047.742188 633.222656 C 1047.976562 637.8125 1053.902344 641.316406 1053.902344 644.542969 C 1050.070312 644.542969 1047.851562 641.867188 1047.851562 641.867188 C 1047.851562 641.867188 1048.175781 644.988281 1048.175781 647.613281 C 1048.175781 650.285156 1045.203125 651.765625 1045.203125 651.765625 C 1045.203125 651.765625 1043.5 644.453125 1041.472656 641.582031 C 1033.316406 630.027344 1016.835938 606.351562 1013.96875 602.21875 C 1014.550781 599.035156 1014.996094 596.699219 1014.996094 596.699219 L 1021.695312 601.535156 C 1023.605469 599.285156 1023.53125 592.890625 1023.53125 592.890625 Z M 922.054688 597.558594 C 922.054688 597.558594 885.4375 686.15625 852.941406 699.777344 C 852.941406 699.777344 867.078125 706.101562 884.441406 715.589844 C 886.976562 716.972656 889.585938 718.460938 892.222656 719.972656 C 894.410156 717.199219 896.710938 714.121094 898.980469 710.925781 C 909.359375 696.304688 919.515625 679.355469 919.515625 679.355469 C 920.222656 683.757812 914.738281 697.351562 905.464844 714.113281 C 903.640625 717.40625 901.738281 720.851562 899.628906 724.351562 C 901.980469 725.765625 904.316406 727.191406 906.652344 728.675781 C 923.855469 739.570312 940.007812 752.09375 945.992188 763.597656 C 951.976562 752.09375 968.128906 739.570312 985.332031 728.675781 C 987.667969 727.191406 990.003906 725.765625 992.355469 724.351562 C 990.246094 720.851562 988.34375 717.410156 986.519531 714.113281 C 977.246094 697.351562 971.761719 683.757812 972.46875 679.355469 C 972.46875 679.355469 982.625 696.304688 993.007812 710.925781 C 995.273438 714.121094 997.574219 717.199219 999.761719 719.972656 C 1002.398438 718.460938 1005.007812 716.976562 1007.542969 715.589844 C 1024.90625 706.097656 1039.042969 699.777344 1039.042969 699.777344 C 1006.546875 686.15625 969.929688 597.558594 969.929688 597.558594 L 964.527344 599.207031 C 964.527344 599.207031 993.730469 675.761719 1022.292969 698.921875 C 1015.796875 700.980469 1008.195312 703.933594 1000.351562 707.457031 C 990.824219 695.703125 980.964844 679.851562 972.957031 665.761719 C 964.308594 650.542969 957.230469 623.839844 957.230469 623.839844 C 953.222656 634.089844 961.765625 685.574219 979.007812 718.148438 C 964.75 725.960938 952.0625 734.429688 945.992188 741.355469 C 939.921875 734.429688 927.234375 725.960938 912.976562 718.148438 C 930.214844 685.578125 938.761719 634.089844 934.75 623.839844 C 934.75 623.839844 927.675781 650.542969 919.027344 665.761719 C 911.019531 679.851562 901.160156 695.703125 891.628906 707.457031 C 883.789062 703.933594 876.1875 700.980469 869.691406 698.921875 C 898.25 675.761719 927.457031 599.207031 927.457031 599.207031 L 922.054688 597.558594 L 922.050781 597.558594 Z M 826.558594 640.105469 C 826.808594 640.132812 827.070312 640.273438 827.261719 640.503906 C 827.632812 640.957031 827.601562 641.621094 827.203125 641.980469 L 824.179688 644.765625 C 823.78125 645.125 823.148438 645.050781 822.773438 644.59375 C 822.402344 644.140625 822.433594 643.476562 822.828125 643.117188 L 825.855469 640.328125 C 826.050781 640.148438 826.308594 640.070312 826.558594 640.101562 Z M 1065.777344 640.105469 C 1066.027344 640.070312 1066.28125 640.148438 1066.480469 640.332031 L 1069.507812 643.117188 C 1069.902344 643.480469 1069.933594 644.144531 1069.5625 644.597656 C 1069.1875 645.050781 1068.550781 645.128906 1068.15625 644.769531 L 1065.128906 641.980469 C 1064.734375 641.621094 1064.699219 640.957031 1065.074219 640.503906 C 1065.261719 640.277344 1065.527344 640.132812 1065.777344 640.105469 Z M 829.746094 642.890625 C 830.496094 642.828125 831.285156 643.171875 831.851562 643.859375 C 832.757812 644.957031 832.699219 646.511719 831.742188 647.386719 L 824.394531 654.152344 C 823.4375 655.027344 821.898438 654.851562 820.988281 653.757812 C 820.085938 652.660156 820.140625 651.046875 821.097656 650.171875 L 828.449219 643.460938 C 828.804688 643.132812 829.292969 642.929688 829.746094 642.890625 Z M 1062 642.890625 C 1062.1875 642.859375 1062.402344 642.875 1062.59375 642.890625 C 1063.046875 642.929688 1063.53125 643.132812 1063.890625 643.457031 L 1071.238281 650.171875 C 1072.195312 651.042969 1072.253906 652.65625 1071.347656 653.753906 C 1070.441406 654.851562 1068.898438 655.027344 1067.945312 654.152344 L 1060.59375 647.382812 C 1059.636719 646.511719 1059.582031 644.957031 1060.488281 643.855469 C 1060.910156 643.34375 1061.433594 642.992188 1062 642.890625 Z M 833.902344 648.125 C 834.652344 648.058594 835.496094 648.40625 836.0625 649.089844 C 836.96875 650.1875 836.910156 651.742188 835.957031 652.617188 L 828.554688 659.386719 C 827.597656 660.261719 826.109375 660.085938 825.203125 658.988281 C 824.296875 657.890625 824.355469 656.28125 825.3125 655.40625 L 832.660156 648.695312 C 833.019531 648.367188 833.453125 648.164062 833.902344 648.125 L 833.90625 648.125 Z M 1057.828125 648.125 C 1058.023438 648.089844 1058.234375 648.109375 1058.421875 648.125 C 1058.875 648.164062 1059.308594 648.367188 1059.664062 648.691406 L 1067.015625 655.40625 C 1067.972656 656.277344 1068.03125 657.890625 1067.121094 658.988281 C 1066.21875 660.085938 1064.726562 660.261719 1063.773438 659.386719 L 1056.371094 652.617188 C 1055.414062 651.742188 1055.355469 650.1875 1056.261719 649.089844 C 1056.6875 648.578125 1057.25 648.226562 1057.832031 648.121094 L 1057.832031 648.125 Z M 838.601562 653.242188 C 839.351562 653.179688 840.144531 653.464844 840.707031 654.152344 C 841.613281 655.25 841.554688 656.863281 840.601562 657.738281 L 833.25 664.449219 C 832.296875 665.324219 830.808594 665.148438 829.902344 664.050781 C 828.996094 662.953125 829 661.398438 829.953125 660.523438 L 837.359375 653.753906 C 837.714844 653.425781 838.148438 653.28125 838.601562 653.242188 Z M 1053.132812 653.242188 C 1053.320312 653.214844 1053.539062 653.226562 1053.726562 653.242188 C 1054.179688 653.28125 1054.609375 653.429688 1054.96875 653.753906 L 1062.375 660.523438 C 1063.328125 661.398438 1063.332031 662.953125 1062.425781 664.050781 C 1061.519531 665.148438 1060.03125 665.324219 1059.074219 664.449219 L 1051.726562 657.738281 C 1050.769531 656.863281 1050.710938 655.25 1051.617188 654.152344 C 1052.042969 653.640625 1052.566406 653.328125 1053.132812 653.242188 Z M 1053.132812 653.242188 "/>
<path style=" stroke:none;fill-rule:nonzero;fill:rgb(96.078431%,83.137255%,0.784314%);fill-opacity:1;" d="M 1159 442 L 1151.972656 447.234375 L 1155.539062 449.167969 L 1159.105469 451.046875 Z M 1152.191406 450.703125 C 1150.914062 450.796875 1149.792969 451.511719 1149.21875 452.695312 C 1148.300781 454.585938 1149.191406 457.011719 1151.21875 458.097656 C 1153.242188 459.183594 1155.597656 458.511719 1156.515625 456.621094 C 1157.429688 454.726562 1156.539062 452.304688 1154.515625 451.214844 C 1153.753906 450.808594 1152.957031 450.648438 1152.191406 450.703125 Z M 1138.949219 459.40625 C 1137.894531 459.421875 1137.125 459.457031 1136.953125 459.578125 C 1136.199219 460.089844 1137.222656 466.851562 1137.003906 472.601562 C 1136.800781 478.027344 1135.152344 479.554688 1134.25 481.417969 C 1133.417969 483.140625 1130.414062 485.171875 1130.414062 485.171875 C 1130.414062 485.171875 1132.898438 487.789062 1132.898438 487.789062 C 1132.898438 487.789062 1134.515625 485.140625 1137.058594 479.882812 C 1140.058594 473.683594 1139.964844 462.449219 1140.84375 461.851562 C 1141.609375 461.328125 1147.867188 459.6875 1147.867188 459.6875 C 1147.867188 459.6875 1142.125 459.363281 1138.953125 459.40625 Z M 1149.863281 460.941406 C 1149.863281 460.941406 1143.285156 462.269531 1142.351562 463.21875 C 1141.453125 464.132812 1141.851562 473.515625 1138.355469 480.738281 C 1135.457031 486.722656 1134.03125 488.929688 1134.03125 488.929688 L 1135.816406 489.894531 L 1137.601562 490.804688 C 1137.601562 490.804688 1138.429688 488.375 1141.328125 482.386719 C 1144.824219 475.164062 1152.285156 469.929688 1152.457031 468.621094 C 1152.640625 467.273438 1149.867188 460.941406 1149.867188 460.941406 Z M 1151.972656 461.851562 C 1151.972656 461.851562 1154.355469 468.175781 1154.40625 469.132812 C 1154.460938 470.230469 1145.789062 476.757812 1142.785156 482.953125 C 1140.242188 488.210938 1139.167969 491.148438 1139.167969 491.148438 L 1142.625 491.714844 C 1142.625 491.714844 1142.386719 487.972656 1143.21875 486.253906 C 1144.121094 484.390625 1144.359375 482.109375 1148.40625 478.746094 C 1152.703125 475.179688 1158.507812 472.0625 1158.457031 471.125 C 1158.414062 470.253906 1151.972656 461.851562 1151.972656 461.851562 Z M 1132.414062 491.660156 C 1131.324219 491.78125 1130.53125 492.511719 1130.089844 493.421875 C 1129.433594 494.777344 1129.789062 496.59375 1124.578125 507.359375 C 1122.292969 512.078125 1121.371094 513.976562 1118.902344 519.074219 C 1116.390625 524.265625 1112.742188 531.761719 1112.742188 531.761719 C 1112.742188 531.761719 1111.5 534.15625 1113.820312 535.398438 C 1116.144531 536.644531 1117.171875 534.148438 1117.171875 534.148438 C 1117.171875 534.148438 1120.824219 526.652344 1123.332031 521.464844 C 1125.804688 516.363281 1126.722656 514.410156 1129.007812 509.6875 C 1134.21875 498.925781 1135.808594 498.191406 1136.464844 496.835938 C 1137.171875 495.375 1137.003906 493.414062 1134.683594 492.167969 C 1133.8125 491.703125 1133.066406 491.585938 1132.414062 491.660156 L 1132.414062 491.65625 Z M 1109.988281 536.539062 C 1109.109375 536.617188 1108.417969 537.011719 1108.097656 537.675781 C 1107.449219 539.011719 1108.554688 540.96875 1110.582031 542.058594 C 1112.605469 543.140625 1114.800781 542.9375 1115.445312 541.601562 C 1116.089844 540.269531 1114.929688 538.308594 1112.90625 537.21875 C 1111.894531 536.675781 1110.863281 536.457031 1109.988281 536.539062 Z M 1106.960938 543.078125 C 1105.507812 543.007812 1104.242188 543.535156 1103.71875 544.613281 C 1102.882812 546.339844 1104.1875 548.816406 1106.636719 550.132812 C 1109.089844 551.449219 1111.746094 551.117188 1112.582031 549.394531 C 1113.417969 547.667969 1112.113281 545.191406 1109.664062 543.875 C 1108.742188 543.382812 1107.832031 543.121094 1106.960938 543.078125 Z M 1102.855469 551.214844 C 1101.980469 551.292969 1101.285156 551.683594 1100.960938 552.351562 C 1100.316406 553.683594 1101.421875 555.644531 1103.449219 556.730469 C 1105.472656 557.816406 1107.664062 557.609375 1108.3125 556.277344 C 1108.957031 554.941406 1107.851562 552.984375 1105.828125 551.898438 C 1104.8125 551.351562 1103.730469 551.132812 1102.855469 551.214844 Z M 1101.070312 558.210938 C 1099.792969 558.382812 1099.179688 559.746094 1099.179688 559.746094 C 1099.179688 559.746094 1086.039062 586.96875 1081.402344 596.546875 C 1079.921875 599.609375 1073.683594 601.515625 1071.242188 606.558594 C 1068.785156 611.636719 1070.519531 616.386719 1073.726562 618.105469 C 1076.9375 619.828125 1081.648438 618.578125 1084.105469 613.5 C 1086.546875 608.457031 1084.351562 601.996094 1085.832031 598.9375 C 1090.46875 589.355469 1103.609375 562.136719 1103.609375 562.136719 C 1103.609375 562.136719 1104.90625 559.738281 1102.582031 558.496094 C 1102.003906 558.183594 1101.5 558.152344 1101.070312 558.210938 Z M 1069.351562 620.894531 C 1067.875 620.9375 1066.5625 621.671875 1065.945312 622.941406 C 1064.960938 624.972656 1066.085938 627.683594 1068.484375 628.96875 C 1070.882812 630.253906 1073.660156 629.636719 1074.644531 627.605469 C 1075.632812 625.570312 1074.449219 622.859375 1072.054688 621.574219 C 1071.152344 621.089844 1070.234375 620.867188 1069.351562 620.890625 Z M 1048.4375 664.519531 C 1047.6875 664.546875 1047.066406 664.796875 1046.816406 665.316406 C 1046.3125 666.355469 1047.355469 668 1049.140625 668.957031 C 1050.929688 669.914062 1052.796875 669.828125 1053.300781 668.785156 C 1053.804688 667.746094 1052.761719 666.105469 1050.980469 665.148438 C 1050.085938 664.667969 1049.191406 664.492188 1048.4375 664.519531 Z M 1042.277344 669.640625 L 1042.277344 683.0625 L 1052.652344 675.214844 C 1052.652344 675.214844 1051.246094 672.597656 1048.167969 670.945312 C 1045.089844 669.296875 1042.277344 669.636719 1042.277344 669.636719 Z M 1042.277344 669.640625 "/>
<path style=" stroke:none;fill-rule:nonzero;fill:rgb(0%,0%,0%);fill-opacity:1;" d="M 787.855469 591.777344 C 787.855469 591.777344 793.71875 604.523438 798.175781 606.273438 C 795.871094 605.609375 788.386719 608.5 788.386719 608.5 C 788.386719 608.5 801.582031 620.90625 812.769531 621.722656 C 822.261719 622.410156 826.867188 617.421875 826.867188 617.421875 L 824.96875 606.839844 C 824.96875 606.839844 819.160156 599.460938 809.871094 596.054688 C 800.484375 592.613281 787.855469 591.78125 787.855469 591.78125 Z M 787.855469 591.777344 "/>
<path style=" stroke:none;fill-rule:nonzero;fill:rgb(0%,0%,0%);fill-opacity:1;" d="M 832.050781 568.945312 C 832.050781 568.945312 823.957031 576.238281 821.742188 584.6875 C 819.523438 593.136719 823.1875 602.738281 823.1875 602.738281 L 829.988281 616.097656 C 829.988281 616.097656 839.414062 610.816406 843.425781 602.917969 C 847.433594 595.019531 845.964844 584.367188 845.964844 584.367188 C 845.964844 584.367188 838.496094 587.292969 837.546875 588.585938 C 839.121094 579.828125 832.050781 568.945312 832.050781 568.945312 Z M 832.050781 568.945312 "/>
<path style=" stroke:none;fill-rule:nonzero;fill:rgb(0%,0%,0%);fill-opacity:1;" d="M 806.03125 565.535156 C 806.03125 565.535156 796.828125 568.808594 787.886719 568.242188 C 779.371094 567.699219 772.289062 560.171875 772.289062 560.171875 C 772.289062 560.171875 779.347656 555.144531 782.832031 555.8125 C 779 554.339844 773.441406 544.234375 773.441406 544.234375 C 773.441406 544.234375 781.339844 541.722656 788.339844 544.5 C 795.34375 547.28125 801.449219 555.355469 801.449219 555.355469 L 806.035156 565.535156 Z M 806.03125 565.535156 "/>
<path style=" stroke:none;fill-rule:nonzero;fill:rgb(0%,0%,0%);fill-opacity:1;" d="M 809.199219 518.199219 C 809.199219 518.199219 813.804688 528.234375 812.710938 531.722656 C 814.140625 529.402344 819.546875 525.785156 819.546875 525.785156 C 819.546875 525.785156 822.8125 542.035156 819.6875 552.070312 C 816.5625 562.101562 807.050781 565.925781 807.050781 565.925781 L 796.554688 544.4375 C 796.554688 544.4375 794.992188 536.480469 798.265625 530.175781 C 801.539062 523.871094 809.199219 518.199219 809.199219 518.199219 Z M 809.199219 518.199219 "/>
<path style=" stroke:none;fill-rule:nonzero;fill:rgb(0%,0%,0%);fill-opacity:1;" d="M 749.296875 491.632812 C 749.296875 491.632812 759.246094 490.535156 768.351562 494.503906 C 775.960938 497.828125 778.292969 503.875 778.292969 503.875 L 782.042969 514.449219 C 782.042969 514.449219 771.210938 518.726562 762.652344 515.457031 C 754.09375 512.1875 747.808594 501.367188 747.808594 501.367188 C 747.808594 501.367188 753.789062 498.980469 756.066406 499.875 C 752.75 498.332031 749.296875 491.632812 749.296875 491.632812 Z M 749.296875 491.632812 "/>
<path style=" stroke:none;fill-rule:nonzero;fill:rgb(0%,0%,0%);fill-opacity:1;" d="M 780.59375 472 C 780.59375 472 784.960938 477.902344 785.089844 484.691406 C 786.257812 481.082031 791.707031 477.09375 791.707031 477.09375 C 791.707031 477.09375 797.316406 491.375 796.085938 501.519531 C 794.851562 511.660156 786.785156 517.660156 786.785156 517.660156 L 776.726562 497.558594 C 776.726562 497.558594 773.445312 489.316406 774.414062 482.925781 C 775.378906 476.539062 780.59375 471.996094 780.59375 471.996094 Z M 780.59375 472 "/>
<path style=" stroke:none;fill-rule:nonzero;fill:rgb(0%,0%,0%);fill-opacity:1;" d="M 746.128906 433.554688 C 746.128906 433.554688 744.324219 444.503906 747.394531 450.8125 C 750.136719 456.4375 751.882812 457.671875 751.882812 457.671875 C 746.65625 454.042969 738.75 453.726562 738.75 453.726562 C 738.75 453.726562 741.5625 465.640625 748.289062 471.074219 C 755.011719 476.507812 765.382812 475.238281 765.382812 475.238281 C 765.382812 475.238281 772.199219 465.683594 771.726562 455.390625 C 771.253906 445.09375 763.484375 434.058594 763.484375 434.058594 C 763.484375 434.058594 760.421875 440.746094 760.152344 445.742188 C 758.167969 440.59375 746.128906 433.558594 746.128906 433.558594 Z M 746.128906 433.554688 "/>
<path style=" stroke:none;fill-rule:nonzero;fill:rgb(3.529412%,46.666667%,32.941176%);fill-opacity:1;" d="M 749.191406 440.210938 C 749.191406 440.210938 748.921875 448.210938 751.4375 452.75 C 753.953125 457.289062 759.566406 459.101562 759.566406 459.101562 C 759.566406 459.101562 759.835938 451.101562 757.320312 446.5625 C 754.808594 442.023438 749.191406 440.210938 749.191406 440.210938 Z M 749.191406 440.210938 "/>
<path style=" stroke:none;fill-rule:nonzero;fill:rgb(3.529412%,46.666667%,32.941176%);fill-opacity:1;" d="M 743.933594 458.3125 C 743.933594 458.3125 750.535156 458.71875 754.351562 461.796875 C 758.160156 464.871094 759.636719 471.277344 759.636719 471.277344 C 759.636719 471.277344 755.261719 471.746094 751.449219 468.671875 C 747.640625 465.59375 743.933594 458.3125 743.933594 458.3125 Z M 743.933594 458.3125 "/>
<path style=" stroke:none;fill-rule:nonzero;fill:rgb(3.529412%,46.666667%,32.941176%);fill-opacity:1;" d="M 764.65625 442.15625 C 764.65625 442.15625 762.460938 447.457031 762.710938 453.167969 C 762.964844 458.882812 766.132812 465.320312 766.132812 465.320312 C 766.132812 465.320312 768.996094 458.460938 768.746094 452.746094 C 768.492188 447.03125 765.421875 443.773438 764.65625 442.15625 Z M 764.65625 442.15625 "/>
<path style=" stroke:none;fill-rule:nonzero;fill:rgb(3.529412%,46.666667%,32.941176%);fill-opacity:1;" d="M 753.539062 493.667969 C 753.539062 493.667969 756.78125 498.429688 761.773438 501.027344 C 766.761719 503.625 774.199219 503.722656 774.199219 503.722656 C 774.199219 503.722656 770.488281 498.652344 765.496094 496.054688 C 760.503906 493.457031 753.539062 493.664062 753.539062 493.664062 Z M 753.539062 493.667969 "/>
<path style=" stroke:none;fill-rule:nonzero;fill:rgb(3.529412%,46.666667%,32.941176%);fill-opacity:1;" d="M 755.144531 504.734375 C 755.144531 504.734375 757.527344 509.644531 761.882812 511.75 C 766.242188 513.859375 775.15625 513.683594 775.15625 513.683594 C 775.15625 513.683594 771.734375 509.09375 767.378906 506.988281 C 763.019531 504.878906 755.144531 504.734375 755.144531 504.734375 Z M 755.144531 504.734375 "/>
<path style=" stroke:none;fill-rule:nonzero;fill:rgb(3.529412%,46.666667%,32.941176%);fill-opacity:1;" d="M 780.234375 478.535156 C 780.234375 478.535156 777.601562 483.113281 777.859375 488.164062 C 778.117188 493.210938 781.265625 498.730469 781.265625 498.730469 C 781.265625 498.730469 783.480469 492.40625 783.21875 487.355469 C 782.960938 482.304688 780.234375 478.535156 780.234375 478.535156 Z M 780.234375 478.535156 "/>
<path style=" stroke:none;fill-rule:nonzero;fill:rgb(3.529412%,46.666667%,32.941176%);fill-opacity:1;" d="M 789.9375 485.011719 C 789.9375 485.011719 785.429688 491.378906 784.78125 497.921875 C 784.136719 504.46875 787.34375 511.191406 787.34375 511.191406 C 787.34375 511.191406 792.789062 505.4375 793.4375 498.894531 C 794.082031 492.347656 789.9375 485.011719 789.9375 485.011719 Z M 789.9375 485.011719 "/>
<path style=" stroke:none;fill-rule:nonzero;fill:rgb(3.529412%,46.666667%,32.941176%);fill-opacity:1;" d="M 777.511719 545.457031 C 777.511719 545.457031 778.054688 547.808594 779.9375 550.308594 C 781.816406 552.808594 785.039062 555.453125 785.039062 555.453125 C 785.039062 555.453125 788.152344 554.402344 792.023438 555.28125 C 795.890625 556.164062 801.039062 559.792969 801.039062 559.792969 C 801.039062 559.792969 795.5 551.09375 789.75 547.707031 C 784 544.328125 777.515625 545.453125 777.515625 545.453125 L 777.511719 545.453125 Z M 777.511719 545.457031 "/>
<path style=" stroke:none;fill-rule:nonzero;fill:rgb(3.529412%,46.666667%,32.941176%);fill-opacity:1;" d="M 776.941406 560.410156 C 776.941406 560.410156 784.113281 557.1875 790.015625 558.019531 C 795.921875 558.851562 801.246094 563.765625 801.246094 563.765625 C 801.246094 563.765625 793.265625 566.671875 787.359375 565.839844 C 781.453125 565.007812 776.941406 560.410156 776.941406 560.410156 Z M 776.941406 560.410156 "/>
<path style=" stroke:none;fill-rule:nonzero;fill:rgb(3.529412%,46.666667%,32.941176%);fill-opacity:1;" d="M 807.246094 525.320312 C 807.246094 525.320312 800.90625 532.394531 800.375 538.53125 C 799.84375 544.664062 805.515625 550.382812 805.515625 550.382812 C 805.515625 550.382812 805.238281 546.449219 806.214844 543.859375 C 807.191406 541.265625 809.265625 538.5 809.265625 538.5 C 809.265625 538.5 810.152344 535.339844 809.808594 532.808594 C 809.332031 529.269531 807.246094 525.320312 807.246094 525.320312 Z M 807.246094 525.320312 "/>
<path style=" stroke:none;fill-rule:nonzero;fill:rgb(3.529412%,46.666667%,32.941176%);fill-opacity:1;" d="M 816.34375 533.511719 C 816.34375 533.511719 810.367188 539.875 808.789062 546.691406 C 807.210938 553.511719 810.023438 560.777344 810.023438 560.777344 C 810.023438 560.777344 815.460938 556.265625 817.039062 549.449219 C 818.621094 542.632812 816.34375 533.511719 816.34375 533.511719 Z M 816.34375 533.511719 "/>
<path style=" stroke:none;fill-rule:nonzero;fill:rgb(3.529412%,46.666667%,32.941176%);fill-opacity:1;" d="M 831.3125 574.601562 C 831.3125 574.601562 834.019531 580.550781 834.707031 585.527344 C 835.394531 590.5 834.757812 592.222656 834.757812 592.222656 C 834.757812 592.222656 831.957031 595.117188 830.703125 596.820312 C 829.089844 599.011719 828.855469 603.019531 828.855469 603.019531 C 828.855469 603.019531 823.234375 594.222656 824.101562 587.792969 C 824.964844 581.363281 831.3125 574.597656 831.3125 574.597656 Z M 831.3125 574.601562 "/>
<path style=" stroke:none;fill-rule:nonzero;fill:rgb(3.529412%,46.666667%,32.941176%);fill-opacity:1;" d="M 843.15625 588.367188 C 843.15625 588.367188 835.960938 593.371094 833.105469 598.503906 C 830.246094 603.632812 831.726562 608.890625 831.726562 608.890625 C 831.726562 608.890625 836.855469 608.414062 839.714844 603.285156 C 842.570312 598.152344 843.15625 588.367188 843.15625 588.367188 Z M 843.15625 588.367188 "/>
<path style=" stroke:none;fill-rule:nonzero;fill:rgb(3.529412%,46.666667%,32.941176%);fill-opacity:1;" d="M 795.867188 609.5 C 795.867188 609.5 806.238281 609.203125 812.578125 610.84375 C 818.917969 612.480469 821.226562 616.058594 821.226562 616.058594 C 821.226562 616.058594 814.097656 619.574219 807.757812 617.933594 C 801.417969 616.292969 795.867188 609.5 795.867188 609.5 Z M 795.867188 609.5 "/>
<path style=" stroke:none;fill-rule:nonzero;fill:rgb(3.529412%,46.666667%,32.941176%);fill-opacity:1;" d="M 794.117188 596.542969 C 794.117188 596.542969 798.792969 604.179688 804.84375 606.953125 C 813.179688 610.769531 822.835938 608.917969 822.835938 608.917969 C 822.835938 608.917969 817.589844 602.152344 810.375 599.167969 C 803.15625 596.179688 794.117188 596.546875 794.117188 596.546875 Z M 794.117188 596.542969 "/>
<path style=" stroke:none;fill-rule:nonzero;fill:rgb(0%,0%,0%);fill-opacity:1;" d="M 827.40625 616.964844 L 827.6875 620.898438 C 833.890625 620.957031 834.8125 620.308594 836.402344 622.367188 C 837.460938 623.738281 839.980469 624.933594 842.511719 623.714844 C 845.042969 622.5 846.179688 619.296875 845.023438 616.632812 C 843.867188 613.964844 841.511719 613.386719 839.242188 613.859375 C 837.851562 614.148438 836.933594 615.316406 835.753906 615.957031 C 833.507812 617.183594 827.40625 616.96875 827.40625 616.96875 Z M 827.40625 616.964844 "/>
<path style=" stroke:none;fill-rule:nonzero;fill:rgb(0%,0%,0%);fill-opacity:1;" d="M 826.871094 613.964844 L 829.886719 616.292969 C 826.648438 621.867188 825.640625 622.34375 826.457031 624.855469 C 827 626.527344 826.632812 629.40625 824.308594 631.027344 C 821.984375 632.640625 818.804688 631.960938 817.269531 629.515625 C 815.734375 627.070312 816.511719 624.664062 818.09375 622.890625 C 819.066406 621.796875 820.492188 621.601562 821.632812 620.886719 C 823.808594 619.527344 826.867188 613.964844 826.867188 613.964844 Z M 826.871094 613.964844 "/>
<path style=" stroke:none;fill-rule:nonzero;fill:rgb(0%,0%,0%);fill-opacity:1;" d="M 805.863281 567.300781 L 806.140625 571.230469 C 812.34375 571.289062 813.265625 570.640625 814.855469 572.699219 C 815.914062 574.066406 818.433594 575.265625 820.964844 574.046875 C 823.5 572.832031 824.636719 569.628906 823.476562 566.964844 C 822.320312 564.296875 819.96875 563.71875 817.699219 564.191406 C 816.304688 564.480469 815.390625 565.648438 814.210938 566.292969 C 811.960938 567.515625 805.863281 567.300781 805.863281 567.300781 Z M 805.863281 567.300781 "/>
<path style=" stroke:none;fill-rule:nonzero;fill:rgb(0%,0%,0%);fill-opacity:1;" d="M 807.121094 568.6875 L 809.757812 571.484375 C 805.738281 576.457031 804.667969 576.765625 805.101562 579.378906 C 805.394531 581.121094 804.605469 583.90625 802.070312 585.125 C 799.535156 586.339844 796.496094 585.148438 795.339844 582.480469 C 794.183594 579.8125 795.308594 577.5625 797.132812 576.066406 C 798.253906 575.152344 799.695312 575.1875 800.925781 574.671875 C 803.277344 573.683594 807.121094 568.691406 807.121094 568.691406 L 807.117188 568.691406 L 807.121094 568.691406 Z M 807.121094 568.6875 "/>
<path style=" stroke:none;fill-rule:nonzero;fill:rgb(0%,0%,0%);fill-opacity:1;" d="M 784.984375 520.800781 L 785.265625 524.730469 C 791.46875 524.789062 792.390625 524.140625 793.980469 526.199219 C 795.039062 527.566406 797.558594 528.765625 800.089844 527.546875 C 802.621094 526.332031 803.757812 523.132812 802.601562 520.460938 C 801.441406 517.796875 799.089844 517.21875 796.820312 517.691406 C 795.425781 517.980469 794.511719 519.148438 793.332031 519.792969 C 791.085938 521.015625 784.984375 520.800781 784.984375 520.800781 Z M 784.984375 520.800781 "/>
<path style=" stroke:none;fill-rule:nonzero;fill:rgb(0%,0%,0%);fill-opacity:1;" d="M 786.707031 519.976562 L 789.34375 522.773438 C 785.324219 527.746094 784.253906 528.054688 784.6875 530.667969 C 784.980469 532.40625 784.1875 535.195312 781.65625 536.410156 C 779.121094 537.625 776.082031 536.433594 774.925781 533.769531 C 773.769531 531.101562 774.894531 528.851562 776.71875 527.355469 C 777.839844 526.4375 779.277344 526.472656 780.511719 525.957031 C 782.863281 524.96875 786.707031 519.976562 786.707031 519.976562 L 786.707031 519.980469 Z M 786.707031 519.976562 "/>
<path style=" stroke:none;fill-rule:nonzero;fill:rgb(0%,0%,0%);fill-opacity:1;" d="M 762.746094 471.710938 L 763.023438 475.640625 C 769.226562 475.699219 770.148438 475.050781 771.738281 477.109375 C 772.796875 478.480469 775.316406 479.675781 777.847656 478.460938 C 780.378906 477.242188 781.515625 474.042969 780.359375 471.375 C 779.203125 468.707031 776.847656 468.128906 774.578125 468.601562 C 773.1875 468.890625 772.273438 470.0625 771.089844 470.703125 C 768.84375 471.925781 762.742188 471.710938 762.742188 471.710938 Z M 762.746094 471.710938 "/>
<path style=" stroke:none;fill-rule:nonzero;fill:rgb(0%,0%,0%);fill-opacity:1;" d="M 764.464844 470.890625 L 767.101562 473.6875 C 763.082031 478.65625 762.011719 478.964844 762.445312 481.578125 C 762.738281 483.320312 761.945312 486.105469 759.414062 487.324219 C 756.878906 488.539062 753.839844 487.347656 752.683594 484.679688 C 751.527344 482.015625 752.65625 479.761719 754.476562 478.269531 C 755.597656 477.351562 757.039062 477.386719 758.273438 476.867188 C 760.621094 475.882812 764.464844 470.890625 764.464844 470.890625 Z M 764.464844 470.890625 "/>
<path style=" stroke:none;fill-rule:nonzero;fill:rgb(96.078431%,83.137255%,0.784314%);fill-opacity:1;" d="M 801.925781 555.65625 C 799.703125 556.625 796.40625 546.4375 793.984375 540.859375 C 791.5 535.128906 786.457031 526.300781 787.890625 525.613281 C 789.460938 524.859375 791.53125 529.492188 794.074219 535.355469 C 796.617188 541.214844 804.007812 554.742188 801.925781 555.652344 Z M 801.925781 555.65625 "/>
<path style=" stroke:none;fill-rule:nonzero;fill:rgb(96.078431%,83.137255%,0.784314%);fill-opacity:1;" d="M 779.09375 502 C 776.875 502.972656 774.441406 496.304688 772.019531 490.722656 C 769.535156 484.996094 767.117188 480.949219 768.550781 480.261719 C 770.121094 479.503906 772.445312 484.523438 774.476562 489.210938 C 776.445312 493.753906 781.175781 501.085938 779.09375 502 Z M 779.09375 502 "/>
<path style=" stroke:none;fill-rule:nonzero;fill:rgb(96.078431%,83.137255%,0.784314%);fill-opacity:1;" d="M 831.914062 623.65625 C 830.171875 624.148438 822.554688 607.363281 816.394531 593.164062 C 810.238281 578.964844 805.652344 567.476562 807.085938 566.792969 C 808.65625 566.035156 813.644531 579.449219 819.804688 593.648438 C 825.960938 607.851562 833.222656 623.285156 831.917969 623.65625 Z M 831.914062 623.65625 "/>
<path style=" stroke:none;fill-rule:nonzero;fill:rgb(80%,3.529412%,18.431373%);fill-opacity:1;" d="M 895.882812 245.210938 C 895.882812 245.210938 898.433594 240.121094 904.890625 240.121094 C 907.585938 240.121094 916.492188 239.925781 916.492188 239.925781 C 917.679688 243.171875 923.089844 248.59375 923.089844 254.234375 C 923.089844 254.234375 917.597656 243.8125 902.269531 243.8125 C 898.417969 243.8125 895.878906 245.210938 895.878906 245.210938 Z M 895.882812 245.210938 "/>
<path style=" stroke:none;fill-rule:nonzero;fill:rgb(0%,0%,0%);fill-opacity:1;" d="M 915.632812 246.632812 C 915.632812 246.632812 911.863281 245.363281 911.863281 244.03125 C 911.863281 242.335938 913.695312 242.335938 914.789062 243.65625 C 915.539062 244.566406 915.628906 246.632812 915.628906 246.632812 Z M 915.632812 246.632812 "/>
<path style=" stroke:none;fill-rule:nonzero;fill:rgb(81.960784%,1.568627%,16.078431%);fill-opacity:1;" d="M 920.804688 256.222656 C 920.804688 256.222656 917.539062 259.84375 916.828125 261.773438 C 913.597656 260.484375 907.964844 254.375 907.964844 254.375 C 907.964844 254.375 912.738281 257.308594 920.800781 256.222656 Z M 920.804688 256.222656 "/>
<path style=" stroke:none;fill-rule:nonzero;fill:rgb(0%,0%,0%);fill-opacity:1;" d="M 937.238281 246.734375 C 937.238281 249.214844 934.824219 251.226562 931.84375 251.226562 C 928.863281 251.226562 926.445312 249.214844 926.445312 246.734375 C 926.445312 244.253906 928.863281 242.242188 931.84375 242.242188 C 934.824219 242.242188 937.238281 244.253906 937.238281 246.734375 Z M 937.238281 246.734375 "/>
<path style=" stroke:none;fill-rule:nonzero;fill:rgb(96.078431%,83.137255%,0.784314%);fill-opacity:1;" d="M 935.601562 246.734375 C 935.601562 248.917969 933.917969 250.6875 931.84375 250.6875 C 929.769531 250.6875 928.085938 248.917969 928.085938 246.734375 C 928.085938 244.546875 929.769531 242.777344 931.84375 242.777344 C 933.917969 242.777344 935.601562 244.546875 935.601562 246.734375 Z M 935.601562 246.734375 "/>
<path style=" stroke:none;fill-rule:nonzero;fill:rgb(0%,0%,0%);fill-opacity:1;" d="M 933.4375 246.734375 C 933.453125 247.34375 933.152344 247.914062 932.652344 248.222656 C 932.152344 248.53125 931.535156 248.53125 931.035156 248.222656 C 930.535156 247.914062 930.234375 247.34375 930.25 246.734375 C 930.234375 246.125 930.535156 245.554688 931.035156 245.242188 C 931.535156 244.933594 932.152344 244.933594 932.652344 245.242188 C 933.152344 245.554688 933.453125 246.125 933.4375 246.734375 Z M 933.4375 246.734375 "/>
<path style=" stroke:none;fill-rule:nonzero;fill:rgb(96.078431%,83.137255%,0.784314%);fill-opacity:1;" d="M 833.996094 356.042969 C 833.996094 356.042969 843.179688 363.300781 843.179688 370.664062 L 843.179688 546.203125 C 843.179688 550.828125 844.539062 553.839844 846.695312 556.78125 C 848.847656 559.953125 853.4375 564.332031 858.203125 567.589844 C 872.917969 577.648438 897.519531 588.253906 916.132812 597.167969 C 931.640625 604.59375 937.949219 607.59375 946.011719 618.101562 C 954.078125 607.59375 960.4375 604.597656 975.949219 597.167969 C 994.558594 588.257812 1019.164062 577.648438 1033.878906 567.589844 C 1038.644531 564.332031 1043.234375 559.953125 1045.386719 556.78125 C 1047.542969 553.839844 1048.84375 550.828125 1048.84375 546.203125 L 1048.84375 370.664062 C 1048.84375 363.300781 1058.03125 356.042969 1058.03125 356.042969 Z M 845.773438 361.617188 L 1046.253906 361.617188 C 1046.253906 361.617188 1043.550781 365.042969 1043.550781 370.664062 L 1043.550781 546.203125 C 1043.550781 550.035156 1039.773438 559.007812 1017.992188 570.433594 C 981.984375 589.316406 954.308594 598.136719 946.015625 608.882812 C 937.71875 598.136719 910.042969 589.320312 874.035156 570.433594 C 852.253906 559.007812 848.476562 550.035156 848.476562 546.203125 L 848.476562 370.664062 C 848.476562 365.042969 845.773438 361.617188 845.773438 361.617188 Z M 845.773438 361.617188 "/>
</g>
</svg>
