<?xml version="1.0" encoding="UTF-8"?>
<svg xmlns="http://www.w3.org/2000/svg" xmlns:xlink="http://www.w3.org/1999/xlink" width="1900pt" height="1000pt" viewBox="0 0 1900 1000" version="1.1">
<g id="surface1">
<rect x="0" y="0" width="1900" height="1000" style="fill:rgb(0%,21.960784%,57.647059%);fill-opacity:1;stroke:none;"/>
<path style=" stroke:none;fill-rule:nonzero;fill:rgb(100%,100%,100%);fill-opacity:1;" d="M 0 500 L 1900 500 L 1900 750 L 0 750 Z M 0 500 "/>
<path style=" stroke:none;fill-rule:nonzero;fill:rgb(80.784314%,6.666667%,14.901961%);fill-opacity:1;" d="M 0 583.332031 L 1900 583.332031 L 1900 666.667969 L 0 666.667969 Z M 0 583.332031 "/>
<path style=" stroke:none;fill-rule:nonzero;fill:rgb(100%,80%,0%);fill-opacity:1;" d="M 712.5 325 L 695.230469 372.554688 L 721.804688 380.277344 "/>
<path style=" stroke:none;fill-rule:nonzero;fill:rgb(100%,80%,0%);fill-opacity:1;" d="M 712.5 325 L 729.769531 372.554688 L 703.195312 380.277344 "/>
<path style=" stroke:none;fill-rule:nonzero;fill:rgb(100%,80%,0%);fill-opacity:1;" d="M 765.648438 359.550781 L 709.765625 359.550781 L 709.765625 384.550781 "/>
<path style=" stroke:none;fill-rule:nonzero;fill:rgb(100%,80%,0%);fill-opacity:1;" d="M 765.648438 359.550781 L 720.4375 388.9375 L 704.015625 368.714844 "/>
<path style=" stroke:none;fill-rule:nonzero;fill:rgb(100%,80%,0%);fill-opacity:1;" d="M 745.347656 415.449219 L 728.078125 367.898438 L 701.503906 375.625 "/>
<path style=" stroke:none;fill-rule:nonzero;fill:rgb(100%,80%,0%);fill-opacity:1;" d="M 745.347656 415.449219 L 700.136719 386.0625 L 716.558594 365.835938 "/>
<path style=" stroke:none;fill-rule:nonzero;fill:rgb(100%,80%,0%);fill-opacity:1;" d="M 679.652344 415.449219 L 724.863281 386.0625 L 708.441406 365.835938 "/>
<path style=" stroke:none;fill-rule:nonzero;fill:rgb(100%,80%,0%);fill-opacity:1;" d="M 679.652344 415.449219 L 696.921875 367.898438 L 723.496094 375.625 "/>
<path style=" stroke:none;fill-rule:nonzero;fill:rgb(100%,80%,0%);fill-opacity:1;" d="M 659.351562 359.550781 L 704.5625 388.9375 L 720.984375 368.714844 "/>
<path style=" stroke:none;fill-rule:nonzero;fill:rgb(100%,80%,0%);fill-opacity:1;" d="M 659.351562 359.550781 L 715.234375 359.550781 L 715.234375 384.550781 "/>
<path style=" stroke:none;fill-rule:nonzero;fill:rgb(100%,80%,0%);fill-opacity:1;" d="M 548.28125 372.734375 L 531.011719 420.285156 L 557.585938 428.011719 "/>
<path style=" stroke:none;fill-rule:nonzero;fill:rgb(100%,80%,0%);fill-opacity:1;" d="M 548.28125 372.734375 L 565.550781 420.285156 L 538.976562 428.011719 "/>
<path style=" stroke:none;fill-rule:nonzero;fill:rgb(100%,80%,0%);fill-opacity:1;" d="M 601.425781 407.28125 L 545.546875 407.28125 L 545.546875 432.28125 "/>
<path style=" stroke:none;fill-rule:nonzero;fill:rgb(100%,80%,0%);fill-opacity:1;" d="M 601.425781 407.28125 L 556.21875 436.671875 L 539.792969 416.445312 "/>
<path style=" stroke:none;fill-rule:nonzero;fill:rgb(100%,80%,0%);fill-opacity:1;" d="M 581.128906 463.183594 L 563.859375 415.632812 L 537.285156 423.355469 "/>
<path style=" stroke:none;fill-rule:nonzero;fill:rgb(100%,80%,0%);fill-opacity:1;" d="M 581.128906 463.183594 L 535.917969 433.792969 L 552.339844 413.570312 "/>
<path style=" stroke:none;fill-rule:nonzero;fill:rgb(100%,80%,0%);fill-opacity:1;" d="M 515.433594 463.183594 L 560.644531 433.792969 L 544.21875 413.570312 "/>
<path style=" stroke:none;fill-rule:nonzero;fill:rgb(100%,80%,0%);fill-opacity:1;" d="M 515.433594 463.183594 L 532.703125 415.632812 L 559.277344 423.355469 "/>
<path style=" stroke:none;fill-rule:nonzero;fill:rgb(100%,80%,0%);fill-opacity:1;" d="M 495.132812 407.28125 L 540.34375 436.671875 L 556.765625 416.445312 "/>
<path style=" stroke:none;fill-rule:nonzero;fill:rgb(100%,80%,0%);fill-opacity:1;" d="M 495.132812 407.28125 L 551.015625 407.28125 L 551.015625 432.28125 "/>
<path style=" stroke:none;fill-rule:nonzero;fill:rgb(100%,80%,0%);fill-opacity:1;" d="M 876.71875 372.734375 L 859.449219 420.285156 L 886.023438 428.011719 "/>
<path style=" stroke:none;fill-rule:nonzero;fill:rgb(100%,80%,0%);fill-opacity:1;" d="M 876.71875 372.734375 L 893.988281 420.285156 L 867.414062 428.011719 "/>
<path style=" stroke:none;fill-rule:nonzero;fill:rgb(100%,80%,0%);fill-opacity:1;" d="M 929.867188 407.28125 L 873.984375 407.28125 L 873.984375 432.28125 "/>
<path style=" stroke:none;fill-rule:nonzero;fill:rgb(100%,80%,0%);fill-opacity:1;" d="M 929.867188 407.28125 L 884.65625 436.671875 L 868.234375 416.445312 "/>
<path style=" stroke:none;fill-rule:nonzero;fill:rgb(100%,80%,0%);fill-opacity:1;" d="M 909.566406 463.183594 L 892.296875 415.632812 L 865.722656 423.355469 "/>
<path style=" stroke:none;fill-rule:nonzero;fill:rgb(100%,80%,0%);fill-opacity:1;" d="M 909.566406 463.183594 L 864.355469 433.792969 L 880.78125 413.570312 "/>
<path style=" stroke:none;fill-rule:nonzero;fill:rgb(100%,80%,0%);fill-opacity:1;" d="M 843.871094 463.183594 L 889.082031 433.792969 L 872.660156 413.570312 "/>
<path style=" stroke:none;fill-rule:nonzero;fill:rgb(100%,80%,0%);fill-opacity:1;" d="M 843.871094 463.183594 L 861.140625 415.632812 L 887.714844 423.355469 "/>
<path style=" stroke:none;fill-rule:nonzero;fill:rgb(100%,80%,0%);fill-opacity:1;" d="M 823.574219 407.28125 L 868.78125 436.671875 L 885.207031 416.445312 "/>
<path style=" stroke:none;fill-rule:nonzero;fill:rgb(100%,80%,0%);fill-opacity:1;" d="M 823.574219 407.28125 L 879.453125 407.28125 L 879.453125 432.28125 "/>
<path style=" stroke:none;fill-rule:nonzero;fill:rgb(100%,80%,0%);fill-opacity:1;" d="M 978.238281 497.734375 L 960.96875 545.285156 L 987.542969 553.011719 "/>
<path style=" stroke:none;fill-rule:nonzero;fill:rgb(100%,80%,0%);fill-opacity:1;" d="M 978.238281 497.734375 L 995.507812 545.285156 L 968.933594 553.011719 "/>
<path style=" stroke:none;fill-rule:nonzero;fill:rgb(100%,80%,0%);fill-opacity:1;" d="M 1031.386719 532.28125 L 975.503906 532.28125 L 975.503906 557.28125 "/>
<path style=" stroke:none;fill-rule:nonzero;fill:rgb(100%,80%,0%);fill-opacity:1;" d="M 1031.386719 532.28125 L 986.175781 561.671875 L 969.753906 541.445312 "/>
<path style=" stroke:none;fill-rule:nonzero;fill:rgb(100%,80%,0%);fill-opacity:1;" d="M 1011.085938 588.183594 L 993.816406 540.632812 L 967.242188 548.355469 "/>
<path style=" stroke:none;fill-rule:nonzero;fill:rgb(100%,80%,0%);fill-opacity:1;" d="M 1011.085938 588.183594 L 965.875 558.792969 L 982.300781 538.570312 "/>
<path style=" stroke:none;fill-rule:nonzero;fill:rgb(100%,80%,0%);fill-opacity:1;" d="M 945.390625 588.183594 L 990.601562 558.792969 L 974.179688 538.570312 "/>
<path style=" stroke:none;fill-rule:nonzero;fill:rgb(100%,80%,0%);fill-opacity:1;" d="M 945.390625 588.183594 L 962.660156 540.632812 L 989.234375 548.355469 "/>
<path style=" stroke:none;fill-rule:nonzero;fill:rgb(100%,80%,0%);fill-opacity:1;" d="M 925.09375 532.28125 L 970.300781 561.671875 L 986.726562 541.445312 "/>
<path style=" stroke:none;fill-rule:nonzero;fill:rgb(100%,80%,0%);fill-opacity:1;" d="M 925.09375 532.28125 L 980.972656 532.28125 L 980.972656 557.28125 "/>
<path style=" stroke:none;fill-rule:nonzero;fill:rgb(100%,80%,0%);fill-opacity:1;" d="M 978.238281 652.265625 L 960.96875 699.820312 L 987.542969 707.542969 "/>
<path style=" stroke:none;fill-rule:nonzero;fill:rgb(100%,80%,0%);fill-opacity:1;" d="M 978.238281 652.265625 L 995.507812 699.820312 L 968.933594 707.542969 "/>
<path style=" stroke:none;fill-rule:nonzero;fill:rgb(100%,80%,0%);fill-opacity:1;" d="M 1031.386719 686.816406 L 975.503906 686.816406 L 975.503906 711.816406 "/>
<path style=" stroke:none;fill-rule:nonzero;fill:rgb(100%,80%,0%);fill-opacity:1;" d="M 1031.386719 686.816406 L 986.175781 716.207031 L 969.753906 695.980469 "/>
<path style=" stroke:none;fill-rule:nonzero;fill:rgb(100%,80%,0%);fill-opacity:1;" d="M 1011.085938 742.71875 L 993.816406 695.164062 L 967.242188 702.890625 "/>
<path style=" stroke:none;fill-rule:nonzero;fill:rgb(100%,80%,0%);fill-opacity:1;" d="M 1011.085938 742.71875 L 965.875 713.328125 L 982.300781 693.101562 "/>
<path style=" stroke:none;fill-rule:nonzero;fill:rgb(100%,80%,0%);fill-opacity:1;" d="M 945.390625 742.71875 L 990.601562 713.328125 L 974.179688 693.101562 "/>
<path style=" stroke:none;fill-rule:nonzero;fill:rgb(100%,80%,0%);fill-opacity:1;" d="M 945.390625 742.71875 L 962.660156 695.164062 L 989.234375 702.890625 "/>
<path style=" stroke:none;fill-rule:nonzero;fill:rgb(100%,80%,0%);fill-opacity:1;" d="M 925.09375 686.816406 L 970.300781 716.207031 L 986.726562 695.980469 "/>
<path style=" stroke:none;fill-rule:nonzero;fill:rgb(100%,80%,0%);fill-opacity:1;" d="M 925.09375 686.816406 L 980.972656 686.816406 L 980.972656 711.816406 "/>
<path style=" stroke:none;fill-rule:nonzero;fill:rgb(100%,80%,0%);fill-opacity:1;" d="M 876.71875 777.265625 L 859.449219 824.820312 L 886.023438 832.542969 "/>
<path style=" stroke:none;fill-rule:nonzero;fill:rgb(100%,80%,0%);fill-opacity:1;" d="M 876.71875 777.265625 L 893.988281 824.820312 L 867.414062 832.542969 "/>
<path style=" stroke:none;fill-rule:nonzero;fill:rgb(100%,80%,0%);fill-opacity:1;" d="M 929.867188 811.816406 L 873.984375 811.816406 L 873.984375 836.816406 "/>
<path style=" stroke:none;fill-rule:nonzero;fill:rgb(100%,80%,0%);fill-opacity:1;" d="M 929.867188 811.816406 L 884.65625 841.207031 L 868.234375 820.980469 "/>
<path style=" stroke:none;fill-rule:nonzero;fill:rgb(100%,80%,0%);fill-opacity:1;" d="M 909.566406 867.71875 L 892.296875 820.164062 L 865.722656 827.890625 "/>
<path style=" stroke:none;fill-rule:nonzero;fill:rgb(100%,80%,0%);fill-opacity:1;" d="M 909.566406 867.71875 L 864.355469 838.328125 L 880.78125 818.101562 "/>
<path style=" stroke:none;fill-rule:nonzero;fill:rgb(100%,80%,0%);fill-opacity:1;" d="M 843.871094 867.71875 L 889.082031 838.328125 L 872.660156 818.101562 "/>
<path style=" stroke:none;fill-rule:nonzero;fill:rgb(100%,80%,0%);fill-opacity:1;" d="M 843.871094 867.71875 L 861.140625 820.164062 L 887.714844 827.890625 "/>
<path style=" stroke:none;fill-rule:nonzero;fill:rgb(100%,80%,0%);fill-opacity:1;" d="M 823.574219 811.816406 L 868.78125 841.207031 L 885.207031 820.980469 "/>
<path style=" stroke:none;fill-rule:nonzero;fill:rgb(100%,80%,0%);fill-opacity:1;" d="M 823.574219 811.816406 L 879.453125 811.816406 L 879.453125 836.816406 "/>
<path style=" stroke:none;fill-rule:nonzero;fill:rgb(100%,80%,0%);fill-opacity:1;" d="M 712.5 825 L 695.230469 872.554688 L 721.804688 880.277344 "/>
<path style=" stroke:none;fill-rule:nonzero;fill:rgb(100%,80%,0%);fill-opacity:1;" d="M 712.5 825 L 729.769531 872.554688 L 703.195312 880.277344 "/>
<path style=" stroke:none;fill-rule:nonzero;fill:rgb(100%,80%,0%);fill-opacity:1;" d="M 765.648438 859.550781 L 709.765625 859.550781 L 709.765625 884.550781 "/>
<path style=" stroke:none;fill-rule:nonzero;fill:rgb(100%,80%,0%);fill-opacity:1;" d="M 765.648438 859.550781 L 720.4375 888.9375 L 704.015625 868.714844 "/>
<path style=" stroke:none;fill-rule:nonzero;fill:rgb(100%,80%,0%);fill-opacity:1;" d="M 745.347656 915.449219 L 728.078125 867.898438 L 701.503906 875.625 "/>
<path style=" stroke:none;fill-rule:nonzero;fill:rgb(100%,80%,0%);fill-opacity:1;" d="M 745.347656 915.449219 L 700.136719 886.0625 L 716.558594 865.835938 "/>
<path style=" stroke:none;fill-rule:nonzero;fill:rgb(100%,80%,0%);fill-opacity:1;" d="M 679.652344 915.449219 L 724.863281 886.0625 L 708.441406 865.835938 "/>
<path style=" stroke:none;fill-rule:nonzero;fill:rgb(100%,80%,0%);fill-opacity:1;" d="M 679.652344 915.449219 L 696.921875 867.898438 L 723.496094 875.625 "/>
<path style=" stroke:none;fill-rule:nonzero;fill:rgb(100%,80%,0%);fill-opacity:1;" d="M 659.351562 859.550781 L 704.5625 888.9375 L 720.984375 868.714844 "/>
<path style=" stroke:none;fill-rule:nonzero;fill:rgb(100%,80%,0%);fill-opacity:1;" d="M 659.351562 859.550781 L 715.234375 859.550781 L 715.234375 884.550781 "/>
<path style=" stroke:none;fill-rule:nonzero;fill:rgb(100%,80%,0%);fill-opacity:1;" d="M 548.28125 777.265625 L 531.011719 824.820312 L 557.585938 832.542969 "/>
<path style=" stroke:none;fill-rule:nonzero;fill:rgb(100%,80%,0%);fill-opacity:1;" d="M 548.28125 777.265625 L 565.550781 824.820312 L 538.976562 832.542969 "/>
<path style=" stroke:none;fill-rule:nonzero;fill:rgb(100%,80%,0%);fill-opacity:1;" d="M 601.425781 811.816406 L 545.546875 811.816406 L 545.546875 836.816406 "/>
<path style=" stroke:none;fill-rule:nonzero;fill:rgb(100%,80%,0%);fill-opacity:1;" d="M 601.425781 811.816406 L 556.21875 841.207031 L 539.792969 820.980469 "/>
<path style=" stroke:none;fill-rule:nonzero;fill:rgb(100%,80%,0%);fill-opacity:1;" d="M 581.128906 867.71875 L 563.859375 820.164062 L 537.285156 827.890625 "/>
<path style=" stroke:none;fill-rule:nonzero;fill:rgb(100%,80%,0%);fill-opacity:1;" d="M 581.128906 867.71875 L 535.917969 838.328125 L 552.339844 818.101562 "/>
<path style=" stroke:none;fill-rule:nonzero;fill:rgb(100%,80%,0%);fill-opacity:1;" d="M 515.433594 867.71875 L 560.644531 838.328125 L 544.21875 818.101562 "/>
<path style=" stroke:none;fill-rule:nonzero;fill:rgb(100%,80%,0%);fill-opacity:1;" d="M 515.433594 867.71875 L 532.703125 820.164062 L 559.277344 827.890625 "/>
<path style=" stroke:none;fill-rule:nonzero;fill:rgb(100%,80%,0%);fill-opacity:1;" d="M 495.132812 811.816406 L 540.34375 841.207031 L 556.765625 820.980469 "/>
<path style=" stroke:none;fill-rule:nonzero;fill:rgb(100%,80%,0%);fill-opacity:1;" d="M 495.132812 811.816406 L 551.015625 811.816406 L 551.015625 836.816406 "/>
<path style=" stroke:none;fill-rule:nonzero;fill:rgb(100%,80%,0%);fill-opacity:1;" d="M 446.761719 652.265625 L 429.492188 699.820312 L 456.066406 707.542969 "/>
<path style=" stroke:none;fill-rule:nonzero;fill:rgb(100%,80%,0%);fill-opacity:1;" d="M 446.761719 652.265625 L 464.03125 699.820312 L 437.457031 707.542969 "/>
<path style=" stroke:none;fill-rule:nonzero;fill:rgb(100%,80%,0%);fill-opacity:1;" d="M 499.90625 686.816406 L 444.027344 686.816406 L 444.027344 711.816406 "/>
<path style=" stroke:none;fill-rule:nonzero;fill:rgb(100%,80%,0%);fill-opacity:1;" d="M 499.90625 686.816406 L 454.699219 716.207031 L 438.273438 695.980469 "/>
<path style=" stroke:none;fill-rule:nonzero;fill:rgb(100%,80%,0%);fill-opacity:1;" d="M 479.609375 742.71875 L 462.339844 695.164062 L 435.765625 702.890625 "/>
<path style=" stroke:none;fill-rule:nonzero;fill:rgb(100%,80%,0%);fill-opacity:1;" d="M 479.609375 742.71875 L 434.398438 713.328125 L 450.820312 693.101562 "/>
<path style=" stroke:none;fill-rule:nonzero;fill:rgb(100%,80%,0%);fill-opacity:1;" d="M 413.914062 742.71875 L 459.125 713.328125 L 442.699219 693.101562 "/>
<path style=" stroke:none;fill-rule:nonzero;fill:rgb(100%,80%,0%);fill-opacity:1;" d="M 413.914062 742.71875 L 431.183594 695.164062 L 457.757812 702.890625 "/>
<path style=" stroke:none;fill-rule:nonzero;fill:rgb(100%,80%,0%);fill-opacity:1;" d="M 393.613281 686.816406 L 438.824219 716.207031 L 455.246094 695.980469 "/>
<path style=" stroke:none;fill-rule:nonzero;fill:rgb(100%,80%,0%);fill-opacity:1;" d="M 393.613281 686.816406 L 449.496094 686.816406 L 449.496094 711.816406 "/>
<path style=" stroke:none;fill-rule:nonzero;fill:rgb(100%,80%,0%);fill-opacity:1;" d="M 446.761719 497.734375 L 429.492188 545.285156 L 456.066406 553.011719 "/>
<path style=" stroke:none;fill-rule:nonzero;fill:rgb(100%,80%,0%);fill-opacity:1;" d="M 446.761719 497.734375 L 464.03125 545.285156 L 437.457031 553.011719 "/>
<path style=" stroke:none;fill-rule:nonzero;fill:rgb(100%,80%,0%);fill-opacity:1;" d="M 499.90625 532.28125 L 444.027344 532.28125 L 444.027344 557.28125 "/>
<path style=" stroke:none;fill-rule:nonzero;fill:rgb(100%,80%,0%);fill-opacity:1;" d="M 499.90625 532.28125 L 454.699219 561.671875 L 438.273438 541.445312 "/>
<path style=" stroke:none;fill-rule:nonzero;fill:rgb(100%,80%,0%);fill-opacity:1;" d="M 479.609375 588.183594 L 462.339844 540.632812 L 435.765625 548.355469 "/>
<path style=" stroke:none;fill-rule:nonzero;fill:rgb(100%,80%,0%);fill-opacity:1;" d="M 479.609375 588.183594 L 434.398438 558.792969 L 450.820312 538.570312 "/>
<path style=" stroke:none;fill-rule:nonzero;fill:rgb(100%,80%,0%);fill-opacity:1;" d="M 413.914062 588.183594 L 459.125 558.792969 L 442.699219 538.570312 "/>
<path style=" stroke:none;fill-rule:nonzero;fill:rgb(100%,80%,0%);fill-opacity:1;" d="M 413.914062 588.183594 L 431.183594 540.632812 L 457.757812 548.355469 "/>
<path style=" stroke:none;fill-rule:nonzero;fill:rgb(100%,80%,0%);fill-opacity:1;" d="M 393.613281 532.28125 L 438.824219 561.671875 L 455.246094 541.445312 "/>
<path style=" stroke:none;fill-rule:nonzero;fill:rgb(100%,80%,0%);fill-opacity:1;" d="M 393.613281 532.28125 L 449.496094 532.28125 L 449.496094 557.28125 "/>
</g>
</svg>
