<?xml version="1.0" encoding="UTF-8"?>
<svg xmlns="http://www.w3.org/2000/svg" xmlns:xlink="http://www.w3.org/1999/xlink" width="1900pt" height="1000pt" viewBox="0 0 1900 1000" version="1.1">
<g id="surface1">
<rect x="0" y="0" width="1900" height="1000" style="fill:rgb(0%,45.098039%,81.176471%);fill-opacity:1;stroke:none;"/>
<path style=" stroke:none;fill-rule:nonzero;fill:rgb(100%,100%,100%);fill-opacity:1;" d="M 0 333.332031 L 1900 333.332031 L 1900 666.667969 L 0 666.667969 Z M 0 333.332031 "/>
<path style=" stroke:none;fill-rule:nonzero;fill:rgb(0%,45.098039%,81.176471%);fill-opacity:1;" d="M 950 444.445312 L 933.691406 497.28125 L 958.789062 505.863281 Z M 950 444.445312 "/>
<path style=" stroke:none;fill-rule:nonzero;fill:rgb(0%,45.098039%,81.176471%);fill-opacity:1;" d="M 950 444.445312 L 966.308594 497.28125 L 941.210938 505.863281 Z M 950 444.445312 "/>
<path style=" stroke:none;fill-rule:nonzero;fill:rgb(0%,45.098039%,81.176471%);fill-opacity:1;" d="M 1000.195312 482.832031 L 947.417969 482.832031 L 947.417969 510.609375 Z M 1000.195312 482.832031 "/>
<path style=" stroke:none;fill-rule:nonzero;fill:rgb(0%,45.098039%,81.176471%);fill-opacity:1;" d="M 1000.195312 482.832031 L 957.496094 515.488281 L 941.984375 493.015625 Z M 1000.195312 482.832031 "/>
<path style=" stroke:none;fill-rule:nonzero;fill:rgb(0%,45.098039%,81.176471%);fill-opacity:1;" d="M 899.804688 482.832031 L 942.503906 515.488281 L 958.015625 493.015625 Z M 899.804688 482.832031 "/>
<path style=" stroke:none;fill-rule:nonzero;fill:rgb(0%,45.098039%,81.176471%);fill-opacity:1;" d="M 899.804688 482.832031 L 952.582031 482.832031 L 952.582031 510.609375 Z M 899.804688 482.832031 "/>
<path style=" stroke:none;fill-rule:nonzero;fill:rgb(0%,45.098039%,81.176471%);fill-opacity:1;" d="M 981.023438 544.945312 L 964.710938 492.109375 L 939.617188 500.691406 Z M 981.023438 544.945312 "/>
<path style=" stroke:none;fill-rule:nonzero;fill:rgb(0%,45.098039%,81.176471%);fill-opacity:1;" d="M 981.023438 544.945312 L 938.324219 512.289062 L 953.835938 489.816406 Z M 981.023438 544.945312 "/>
<path style=" stroke:none;fill-rule:nonzero;fill:rgb(0%,45.098039%,81.176471%);fill-opacity:1;" d="M 918.976562 544.945312 L 961.675781 512.289062 L 946.164062 489.816406 Z M 918.976562 544.945312 "/>
<path style=" stroke:none;fill-rule:nonzero;fill:rgb(0%,45.098039%,81.176471%);fill-opacity:1;" d="M 918.976562 544.945312 L 935.289062 492.109375 L 960.382812 500.691406 Z M 918.976562 544.945312 "/>
<path style=" stroke:none;fill-rule:nonzero;fill:rgb(0%,45.098039%,81.176471%);fill-opacity:1;" d="M 1213.890625 355.554688 L 1197.578125 408.390625 L 1222.675781 416.976562 Z M 1213.890625 355.554688 "/>
<path style=" stroke:none;fill-rule:nonzero;fill:rgb(0%,45.098039%,81.176471%);fill-opacity:1;" d="M 1213.890625 355.554688 L 1230.199219 408.390625 L 1205.101562 416.976562 Z M 1213.890625 355.554688 "/>
<path style=" stroke:none;fill-rule:nonzero;fill:rgb(0%,45.098039%,81.176471%);fill-opacity:1;" d="M 1264.082031 393.945312 L 1211.304688 393.945312 L 1211.304688 421.722656 Z M 1264.082031 393.945312 "/>
<path style=" stroke:none;fill-rule:nonzero;fill:rgb(0%,45.098039%,81.176471%);fill-opacity:1;" d="M 1264.082031 393.945312 L 1221.386719 426.597656 L 1205.875 404.125 Z M 1264.082031 393.945312 "/>
<path style=" stroke:none;fill-rule:nonzero;fill:rgb(0%,45.098039%,81.176471%);fill-opacity:1;" d="M 1163.695312 393.945312 L 1206.390625 426.597656 L 1221.902344 404.125 Z M 1163.695312 393.945312 "/>
<path style=" stroke:none;fill-rule:nonzero;fill:rgb(0%,45.098039%,81.176471%);fill-opacity:1;" d="M 1163.695312 393.945312 L 1216.472656 393.945312 L 1216.472656 421.722656 Z M 1163.695312 393.945312 "/>
<path style=" stroke:none;fill-rule:nonzero;fill:rgb(0%,45.098039%,81.176471%);fill-opacity:1;" d="M 1244.910156 456.054688 L 1228.601562 403.21875 L 1203.503906 411.804688 Z M 1244.910156 456.054688 "/>
<path style=" stroke:none;fill-rule:nonzero;fill:rgb(0%,45.098039%,81.176471%);fill-opacity:1;" d="M 1244.910156 456.054688 L 1202.210938 423.402344 L 1217.722656 400.929688 Z M 1244.910156 456.054688 "/>
<path style=" stroke:none;fill-rule:nonzero;fill:rgb(0%,45.098039%,81.176471%);fill-opacity:1;" d="M 1182.867188 456.054688 L 1225.566406 423.402344 L 1210.054688 400.929688 Z M 1182.867188 456.054688 "/>
<path style=" stroke:none;fill-rule:nonzero;fill:rgb(0%,45.098039%,81.176471%);fill-opacity:1;" d="M 1182.867188 456.054688 L 1199.175781 403.21875 L 1224.273438 411.804688 Z M 1182.867188 456.054688 "/>
<path style=" stroke:none;fill-rule:nonzero;fill:rgb(0%,45.098039%,81.176471%);fill-opacity:1;" d="M 1213.890625 522.222656 L 1197.578125 575.058594 L 1222.675781 583.640625 Z M 1213.890625 522.222656 "/>
<path style=" stroke:none;fill-rule:nonzero;fill:rgb(0%,45.098039%,81.176471%);fill-opacity:1;" d="M 1213.890625 522.222656 L 1230.199219 575.058594 L 1205.101562 583.640625 Z M 1213.890625 522.222656 "/>
<path style=" stroke:none;fill-rule:nonzero;fill:rgb(0%,45.098039%,81.176471%);fill-opacity:1;" d="M 1264.082031 560.609375 L 1211.304688 560.609375 L 1211.304688 588.386719 Z M 1264.082031 560.609375 "/>
<path style=" stroke:none;fill-rule:nonzero;fill:rgb(0%,45.098039%,81.176471%);fill-opacity:1;" d="M 1264.082031 560.609375 L 1221.386719 593.265625 L 1205.875 570.792969 Z M 1264.082031 560.609375 "/>
<path style=" stroke:none;fill-rule:nonzero;fill:rgb(0%,45.098039%,81.176471%);fill-opacity:1;" d="M 1163.695312 560.609375 L 1206.390625 593.265625 L 1221.902344 570.792969 Z M 1163.695312 560.609375 "/>
<path style=" stroke:none;fill-rule:nonzero;fill:rgb(0%,45.098039%,81.176471%);fill-opacity:1;" d="M 1163.695312 560.609375 L 1216.472656 560.609375 L 1216.472656 588.386719 Z M 1163.695312 560.609375 "/>
<path style=" stroke:none;fill-rule:nonzero;fill:rgb(0%,45.098039%,81.176471%);fill-opacity:1;" d="M 1244.910156 622.722656 L 1228.601562 569.886719 L 1203.503906 578.46875 Z M 1244.910156 622.722656 "/>
<path style=" stroke:none;fill-rule:nonzero;fill:rgb(0%,45.098039%,81.176471%);fill-opacity:1;" d="M 1244.910156 622.722656 L 1202.210938 590.070312 L 1217.722656 567.597656 Z M 1244.910156 622.722656 "/>
<path style=" stroke:none;fill-rule:nonzero;fill:rgb(0%,45.098039%,81.176471%);fill-opacity:1;" d="M 1182.867188 622.722656 L 1225.566406 590.070312 L 1210.054688 567.597656 Z M 1182.867188 622.722656 "/>
<path style=" stroke:none;fill-rule:nonzero;fill:rgb(0%,45.098039%,81.176471%);fill-opacity:1;" d="M 1182.867188 622.722656 L 1199.175781 569.886719 L 1224.273438 578.46875 Z M 1182.867188 622.722656 "/>
<path style=" stroke:none;fill-rule:nonzero;fill:rgb(0%,45.098039%,81.176471%);fill-opacity:1;" d="M 686.109375 355.554688 L 669.800781 408.390625 L 694.898438 416.976562 Z M 686.109375 355.554688 "/>
<path style=" stroke:none;fill-rule:nonzero;fill:rgb(0%,45.098039%,81.176471%);fill-opacity:1;" d="M 686.109375 355.554688 L 702.421875 408.390625 L 677.324219 416.976562 Z M 686.109375 355.554688 "/>
<path style=" stroke:none;fill-rule:nonzero;fill:rgb(0%,45.098039%,81.176471%);fill-opacity:1;" d="M 736.304688 393.945312 L 683.527344 393.945312 L 683.527344 421.722656 Z M 736.304688 393.945312 "/>
<path style=" stroke:none;fill-rule:nonzero;fill:rgb(0%,45.098039%,81.176471%);fill-opacity:1;" d="M 736.304688 393.945312 L 693.609375 426.597656 L 678.097656 404.125 Z M 736.304688 393.945312 "/>
<path style=" stroke:none;fill-rule:nonzero;fill:rgb(0%,45.098039%,81.176471%);fill-opacity:1;" d="M 635.917969 393.945312 L 678.613281 426.597656 L 694.125 404.125 Z M 635.917969 393.945312 "/>
<path style=" stroke:none;fill-rule:nonzero;fill:rgb(0%,45.098039%,81.176471%);fill-opacity:1;" d="M 635.917969 393.945312 L 688.695312 393.945312 L 688.695312 421.722656 Z M 635.917969 393.945312 "/>
<path style=" stroke:none;fill-rule:nonzero;fill:rgb(0%,45.098039%,81.176471%);fill-opacity:1;" d="M 717.132812 456.054688 L 700.824219 403.21875 L 675.726562 411.804688 Z M 717.132812 456.054688 "/>
<path style=" stroke:none;fill-rule:nonzero;fill:rgb(0%,45.098039%,81.176471%);fill-opacity:1;" d="M 717.132812 456.054688 L 674.433594 423.402344 L 689.945312 400.929688 Z M 717.132812 456.054688 "/>
<path style=" stroke:none;fill-rule:nonzero;fill:rgb(0%,45.098039%,81.176471%);fill-opacity:1;" d="M 655.089844 456.054688 L 697.789062 423.402344 L 682.277344 400.929688 Z M 655.089844 456.054688 "/>
<path style=" stroke:none;fill-rule:nonzero;fill:rgb(0%,45.098039%,81.176471%);fill-opacity:1;" d="M 655.089844 456.054688 L 671.398438 403.21875 L 696.496094 411.804688 Z M 655.089844 456.054688 "/>
<path style=" stroke:none;fill-rule:nonzero;fill:rgb(0%,45.098039%,81.176471%);fill-opacity:1;" d="M 686.109375 522.222656 L 669.800781 575.058594 L 694.898438 583.640625 Z M 686.109375 522.222656 "/>
<path style=" stroke:none;fill-rule:nonzero;fill:rgb(0%,45.098039%,81.176471%);fill-opacity:1;" d="M 686.109375 522.222656 L 702.421875 575.058594 L 677.324219 583.640625 Z M 686.109375 522.222656 "/>
<path style=" stroke:none;fill-rule:nonzero;fill:rgb(0%,45.098039%,81.176471%);fill-opacity:1;" d="M 736.304688 560.609375 L 683.527344 560.609375 L 683.527344 588.386719 Z M 736.304688 560.609375 "/>
<path style=" stroke:none;fill-rule:nonzero;fill:rgb(0%,45.098039%,81.176471%);fill-opacity:1;" d="M 736.304688 560.609375 L 693.609375 593.265625 L 678.097656 570.792969 Z M 736.304688 560.609375 "/>
<path style=" stroke:none;fill-rule:nonzero;fill:rgb(0%,45.098039%,81.176471%);fill-opacity:1;" d="M 635.917969 560.609375 L 678.613281 593.265625 L 694.125 570.792969 Z M 635.917969 560.609375 "/>
<path style=" stroke:none;fill-rule:nonzero;fill:rgb(0%,45.098039%,81.176471%);fill-opacity:1;" d="M 635.917969 560.609375 L 688.695312 560.609375 L 688.695312 588.386719 Z M 635.917969 560.609375 "/>
<path style=" stroke:none;fill-rule:nonzero;fill:rgb(0%,45.098039%,81.176471%);fill-opacity:1;" d="M 717.132812 622.722656 L 700.824219 569.886719 L 675.726562 578.46875 Z M 717.132812 622.722656 "/>
<path style=" stroke:none;fill-rule:nonzero;fill:rgb(0%,45.098039%,81.176471%);fill-opacity:1;" d="M 717.132812 622.722656 L 674.433594 590.070312 L 689.945312 567.597656 Z M 717.132812 622.722656 "/>
<path style=" stroke:none;fill-rule:nonzero;fill:rgb(0%,45.098039%,81.176471%);fill-opacity:1;" d="M 655.089844 622.722656 L 697.789062 590.070312 L 682.277344 567.597656 Z M 655.089844 622.722656 "/>
<path style=" stroke:none;fill-rule:nonzero;fill:rgb(0%,45.098039%,81.176471%);fill-opacity:1;" d="M 655.089844 622.722656 L 671.398438 569.886719 L 696.496094 578.46875 Z M 655.089844 622.722656 "/>
</g>
</svg>
