<?xml version="1.0" encoding="UTF-8"?>
<svg xmlns="http://www.w3.org/2000/svg" xmlns:xlink="http://www.w3.org/1999/xlink" width="380pt" height="200pt" viewBox="0 0 1900 1000" version="1.1">
<g id="surface1">
<rect x="0" y="0" width="1900" height="1000" style="fill:rgb(80.784314%,6.666667%,14.901961%);fill-opacity:1;stroke:none;"/>
<path style=" stroke:none;fill-rule:nonzero;fill:rgb(0%,0%,0%);fill-opacity:1;" d="M 0 500 L 1900 500 L 1900 1000 L 0 1000 Z M 0 500 "/>
<path style=" stroke:none;fill-rule:nonzero;fill:rgb(97.647059%,83.921569%,8.627451%);fill-opacity:1;" d="M 841.59375 382.1875 L 924.414062 382.1875 L 950 320 L 975.585938 382.1875 L 1058.40625 382.1875 L 991.410156 420.613281 L 1016.996094 482.800781 L 950 444.375 L 883.003906 482.800781 L 908.589844 420.613281 Z M 841.59375 382.1875 "/>
<path style=" stroke:none;fill-rule:nonzero;fill:rgb(97.647059%,83.921569%,8.627451%);fill-opacity:1;" d="M 1277.746094 474.515625 C 1279.863281 491.464844 1279.863281 508.535156 1277.746094 525.484375 L 1214.71875 520.585938 C 1216.425781 506.894531 1216.425781 493.105469 1214.71875 479.417969 L 1277.746094 474.515625 M 1265.152344 575.476562 C 1258.890625 591.773438 1250.613281 607.542969 1240.445312 622.5625 L 1184.589844 598.996094 C 1192.804688 586.863281 1199.488281 574.125 1204.546875 560.960938 L 1265.152344 575.476562 M 1204.578125 664.941406 C 1190.894531 678.109375 1175.601562 690.179688 1158.925781 700.984375 L 1118.75 662.332031 C 1132.21875 653.605469 1144.566406 643.855469 1155.621094 633.222656 L 1204.578125 664.941406 M 1105.246094 729.300781 C 1086.222656 737.328125 1066.242188 743.863281 1045.601562 748.804688 L 1027.214844 700.957031 C 1043.890625 696.964844 1060.023438 691.6875 1075.390625 685.203125 L 1105.246094 729.300781 M 982.28125 758.75 C 960.8125 760.417969 939.1875 760.417969 917.71875 758.75 L 923.925781 708.988281 C 941.265625 710.339844 958.734375 710.339844 976.074219 708.988281 L 982.28125 758.75 M 854.398438 748.804688 C 833.757812 743.863281 813.777344 737.328125 794.753906 729.300781 L 824.609375 685.203125 C 839.972656 691.6875 856.109375 696.964844 872.785156 700.957031 L 854.398438 748.804688 M 1045.601562 251.195312 C 1066.242188 256.140625 1086.222656 262.671875 1105.246094 270.703125 L 1075.390625 314.796875 C 1060.023438 308.3125 1043.890625 303.035156 1027.214844 299.042969 L 1045.601562 251.195312 M 1158.925781 299.019531 C 1175.601562 309.824219 1190.894531 321.894531 1204.578125 335.058594 L 1155.621094 366.777344 C 1144.566406 356.144531 1132.21875 346.394531 1118.75 337.667969 L 1158.925781 299.019531 M 1240.445312 377.4375 C 1250.613281 392.457031 1258.890625 408.230469 1265.152344 424.527344 L 1204.546875 439.042969 C 1199.488281 425.878906 1192.804688 413.140625 1184.589844 401.007812 Z M 1240.445312 377.4375 "/>
<path style=" stroke:none;fill-rule:nonzero;fill:rgb(97.647059%,83.921569%,8.627451%);fill-opacity:1;" d="M 1184.699219 749.554688 L 1215.488281 721.046875 C 1231.695312 733.429688 1253.515625 745.632812 1269.34375 756.722656 C 1285.167969 767.8125 1297.296875 777.03125 1307.113281 789.628906 C 1321.496094 808.09375 1305.34375 829.003906 1282.941406 816.730469 C 1270.828125 810.089844 1263.21875 792.171875 1244.660156 777.347656 C 1230.914062 768.109375 1220.085938 758.425781 1185.539062 753.753906 C 1183.878906 753.527344 1183.394531 750.761719 1184.699219 749.554688 Z M 1184.699219 749.554688 "/>
<path style=" stroke:none;fill-rule:nonzero;fill:rgb(0%,0%,0%);fill-opacity:1;" d="M 1230.382812 740.988281 C 1230.382812 742.191406 1229.574219 743.300781 1228.257812 743.902344 C 1226.941406 744.5 1225.320312 744.5 1224.003906 743.902344 C 1222.6875 743.300781 1221.875 742.191406 1221.878906 740.988281 C 1221.875 739.789062 1222.6875 738.679688 1224.003906 738.078125 C 1225.320312 737.476562 1226.941406 737.476562 1228.257812 738.078125 C 1229.574219 738.679688 1230.382812 739.789062 1230.382812 740.988281 Z M 1230.382812 740.988281 "/>
<path style=" stroke:none;fill-rule:nonzero;fill:rgb(97.647059%,83.921569%,8.627451%);fill-opacity:1;" d="M 981.667969 262.601562 L 975.648438 307.101562 C 1099.773438 317.378906 1197 399.402344 1197 500.101562 C 1197 607.742188 1086.34375 695.101562 950 695.101562 C 890.554688 695.101562 836.835938 677.757812 794.199219 650.101562 L 758.101562 684.851562 C 810.566406 718.859375 876.867188 740.101562 950 740.101562 C 1117.808594 740.101562 1254 632.582031 1254 500.101562 C 1254 376.199219 1134.371094 275.300781 981.667969 262.601562 Z M 981.667969 262.601562 "/>
<path style=" stroke:none;fill-rule:nonzero;fill:rgb(0%,0%,0%);fill-opacity:1;" d="M 976.855469 659.484375 L 1062.34375 699.390625 L 1080.929688 756.320312 L 1179.054688 750.449219 L 1222.171875 710.542969 L 1062.34375 623.097656 Z M 976.855469 659.484375 "/>
<path style=" stroke:none;fill-rule:nonzero;fill:rgb(97.647059%,83.921569%,8.627451%);fill-opacity:1;" d="M 1180.800781 745.632812 C 1070.875 687.917969 1000.972656 656.753906 895.625 609.464844 C 854.238281 590.886719 789.972656 544.191406 840.667969 466.0625 C 843.859375 517.355469 1100.625 658.140625 1209.117188 719.355469 Z M 1180.800781 745.632812 "/>
<path style="fill:none;stroke-width:1.5;stroke-linecap:round;stroke-linejoin:miter;stroke:rgb(0%,0%,0%);stroke-opacity:1;stroke-miterlimit:4;" d="M 216.08604 167.519531 C 236.131579 186.410156 261.375617 201.821484 283.897821 218.854687 " transform="matrix(4.222222,0,0,3.333333,0,0)"/>
<path style=" stroke:none;fill-rule:nonzero;fill:rgb(0%,0%,0%);fill-opacity:1;" d="M 1261.707031 762.542969 C 1261.710938 763.742188 1260.902344 764.851562 1259.585938 765.453125 C 1258.269531 766.054688 1256.644531 766.054688 1255.328125 765.453125 C 1254.011719 764.851562 1253.203125 763.742188 1253.207031 762.542969 C 1253.203125 761.339844 1254.011719 760.230469 1255.328125 759.628906 C 1256.644531 759.03125 1258.269531 759.03125 1259.585938 759.628906 C 1260.902344 760.230469 1261.710938 761.339844 1261.707031 762.542969 Z M 1261.707031 762.542969 "/>
<path style=" stroke:none;fill-rule:nonzero;fill:rgb(0%,0%,0%);fill-opacity:1;" d="M 1289.230469 784.625 C 1289.234375 785.824219 1288.421875 786.933594 1287.105469 787.535156 C 1285.789062 788.136719 1284.167969 788.136719 1282.851562 787.535156 C 1281.535156 786.933594 1280.726562 785.824219 1280.726562 784.625 C 1280.726562 783.421875 1281.535156 782.3125 1282.851562 781.714844 C 1284.167969 781.113281 1285.789062 781.113281 1287.105469 781.714844 C 1288.421875 782.3125 1289.234375 783.421875 1289.230469 784.625 Z M 1289.230469 784.625 "/>
</g>
</svg>
