<?xml version="1.0" encoding="UTF-8"?>
<svg xmlns="http://www.w3.org/2000/svg" xmlns:xlink="http://www.w3.org/1999/xlink" width="1900pt" height="1000pt" viewBox="0 0 1900 1000" version="1.1">
<g id="surface1">
<rect x="0" y="0" width="1900" height="1000" style="fill:rgb(0%,13.72549%,58.431373%);fill-opacity:1;stroke:none;"/>
<path style=" stroke:none;fill-rule:nonzero;fill:rgb(100%,100%,100%);fill-opacity:1;" d="M 1110.703125 940.605469 L 1163.75 768.75 L 1216.796875 940.605469 L 1077.917969 834.394531 L 1249.582031 834.394531 Z M 1110.703125 940.605469 "/>
<path style=" stroke:none;fill-rule:nonzero;fill:rgb(99.607843%,79.607843%,0%);fill-opacity:1;" d="M 503.5 0 L 1453.5 0 L 1453.5 1000 Z M 503.5 0 "/>
<path style=" stroke:none;fill-rule:nonzero;fill:rgb(100%,100%,100%);fill-opacity:1;" d="M 299.546875 0 L 365.453125 0 L 385.546875 65.605469 L 332.5 25 L 279.453125 65.605469 Z M 299.546875 0 "/>
<path style=" stroke:none;fill-rule:nonzero;fill:rgb(100%,100%,100%);fill-opacity:1;" d="M 1249.546875 1000 L 1196.667969 959.394531 L 1262.3125 959.375 L 1282.5 893.75 L 1302.6875 959.375 L 1368.332031 959.394531 L 1315.453125 1000 Z M 1249.546875 1000 "/>
<path style=" stroke:none;fill-rule:nonzero;fill:rgb(100%,100%,100%);fill-opacity:1;" d="M 398.203125 190.605469 L 451.25 18.75 L 504.296875 190.605469 L 365.417969 84.394531 L 537.082031 84.394531 Z M 398.203125 190.605469 "/>
<path style=" stroke:none;fill-rule:nonzero;fill:rgb(100%,100%,100%);fill-opacity:1;" d="M 516.953125 315.605469 L 570 143.75 L 623.046875 315.605469 L 484.167969 209.394531 L 655.832031 209.394531 Z M 516.953125 315.605469 "/>
<path style=" stroke:none;fill-rule:nonzero;fill:rgb(100%,100%,100%);fill-opacity:1;" d="M 635.703125 440.605469 L 688.75 268.75 L 741.796875 440.605469 L 602.917969 334.394531 L 774.582031 334.394531 Z M 635.703125 440.605469 "/>
<path style=" stroke:none;fill-rule:nonzero;fill:rgb(100%,100%,100%);fill-opacity:1;" d="M 754.453125 565.605469 L 807.5 393.75 L 860.546875 565.605469 L 721.667969 459.394531 L 893.332031 459.394531 Z M 754.453125 565.605469 "/>
<path style=" stroke:none;fill-rule:nonzero;fill:rgb(100%,100%,100%);fill-opacity:1;" d="M 873.203125 690.605469 L 926.25 518.75 L 979.296875 690.605469 L 840.417969 584.394531 L 1012.082031 584.394531 Z M 873.203125 690.605469 "/>
<path style=" stroke:none;fill-rule:nonzero;fill:rgb(100%,100%,100%);fill-opacity:1;" d="M 991.953125 815.605469 L 1045 643.75 L 1098.046875 815.605469 L 959.167969 709.394531 L 1130.832031 709.394531 Z M 991.953125 815.605469 "/>
</g>
</svg>
