<?xml version="1.0" encoding="UTF-8"?>
<svg xmlns="http://www.w3.org/2000/svg" xmlns:xlink="http://www.w3.org/1999/xlink" width="380pt" height="200pt" viewBox="0 0 1900 1000" version="1.1">
<g id="surface1">
<path style=" stroke:none;fill-rule:nonzero;fill:rgb(0%,60%,70.980392%);fill-opacity:1;" d="M 0 0 L 1900 0 L 1900 320 L 0 320 Z M 0 0 "/>
<path style=" stroke:none;fill-rule:nonzero;fill:rgb(80.784314%,6.666667%,14.901961%);fill-opacity:1;" d="M 0 320 L 1900 320 L 1900 680 L 0 680 Z M 0 320 "/>
<path style=" stroke:none;fill-rule:nonzero;fill:rgb(100%,100%,100%);fill-opacity:1;" d="M 0 340 L 1900 340 L 1900 660 L 0 660 Z M 0 340 "/>
<path style=" stroke:none;fill-rule:nonzero;fill:rgb(11.764706%,70.980392%,22.745098%);fill-opacity:1;" d="M 0 680 L 1900 680 L 1900 1000 L 0 1000 Z M 0 680 "/>
<path style=" stroke:none;fill-rule:nonzero;fill:rgb(100%,100%,100%);fill-opacity:1;" d="M 380 160 C 380 226.273438 328.960938 280 266 280 C 203.039062 280 152 226.273438 152 160 C 152 93.726562 203.039062 40 266 40 C 328.960938 40 380 93.726562 380 160 Z M 380 160 "/>
<path style=" stroke:none;fill-rule:nonzero;fill:rgb(0%,60%,70.980392%);fill-opacity:1;" d="M 418 160 C 418 226.273438 366.960938 280 304 280 C 241.039062 280 190 226.273438 190 160 C 190 93.726562 241.039062 40 304 40 C 366.960938 40 418 93.726562 418 160 Z M 418 160 "/>
<path style=" stroke:none;fill-rule:nonzero;fill:rgb(100%,100%,100%);fill-opacity:1;" d="M 334.398438 232 L 327.355469 254.824219 L 338.195312 258.535156 "/>
<path style=" stroke:none;fill-rule:nonzero;fill:rgb(100%,100%,100%);fill-opacity:1;" d="M 334.398438 232 L 341.445312 254.824219 L 330.605469 258.535156 "/>
<path style=" stroke:none;fill-rule:nonzero;fill:rgb(100%,100%,100%);fill-opacity:1;" d="M 356.085938 248.582031 L 333.285156 248.582031 L 333.285156 260.582031 "/>
<path style=" stroke:none;fill-rule:nonzero;fill:rgb(100%,100%,100%);fill-opacity:1;" d="M 356.085938 248.582031 L 337.636719 262.691406 L 330.9375 252.980469 "/>
<path style=" stroke:none;fill-rule:nonzero;fill:rgb(100%,100%,100%);fill-opacity:1;" d="M 347.800781 275.417969 L 340.757812 252.589844 L 329.914062 256.300781 "/>
<path style=" stroke:none;fill-rule:nonzero;fill:rgb(100%,100%,100%);fill-opacity:1;" d="M 347.800781 275.417969 L 329.355469 261.308594 L 336.058594 251.601562 "/>
<path style=" stroke:none;fill-rule:nonzero;fill:rgb(100%,100%,100%);fill-opacity:1;" d="M 321 275.417969 L 339.445312 261.308594 L 332.742188 251.601562 "/>
<path style=" stroke:none;fill-rule:nonzero;fill:rgb(100%,100%,100%);fill-opacity:1;" d="M 321 275.417969 L 328.042969 252.589844 L 338.886719 256.300781 "/>
<path style=" stroke:none;fill-rule:nonzero;fill:rgb(100%,100%,100%);fill-opacity:1;" d="M 312.714844 248.582031 L 331.160156 262.691406 L 337.863281 252.980469 "/>
<path style=" stroke:none;fill-rule:nonzero;fill:rgb(100%,100%,100%);fill-opacity:1;" d="M 312.714844 248.582031 L 335.515625 248.582031 L 335.515625 260.582031 "/>
<path style=" stroke:none;fill-rule:nonzero;fill:rgb(100%,100%,100%);fill-opacity:1;" d="M 425.601562 232 L 418.554688 254.824219 L 429.394531 258.535156 "/>
<path style=" stroke:none;fill-rule:nonzero;fill:rgb(100%,100%,100%);fill-opacity:1;" d="M 425.601562 232 L 432.644531 254.824219 L 421.804688 258.535156 "/>
<path style=" stroke:none;fill-rule:nonzero;fill:rgb(100%,100%,100%);fill-opacity:1;" d="M 447.285156 248.582031 L 424.484375 248.582031 L 424.484375 260.582031 "/>
<path style=" stroke:none;fill-rule:nonzero;fill:rgb(100%,100%,100%);fill-opacity:1;" d="M 447.285156 248.582031 L 428.839844 262.691406 L 422.136719 252.980469 "/>
<path style=" stroke:none;fill-rule:nonzero;fill:rgb(100%,100%,100%);fill-opacity:1;" d="M 439 275.417969 L 431.957031 252.589844 L 421.113281 256.300781 "/>
<path style=" stroke:none;fill-rule:nonzero;fill:rgb(100%,100%,100%);fill-opacity:1;" d="M 439 275.417969 L 420.554688 261.308594 L 427.257812 251.601562 "/>
<path style=" stroke:none;fill-rule:nonzero;fill:rgb(100%,100%,100%);fill-opacity:1;" d="M 412.199219 275.417969 L 430.644531 261.308594 L 423.941406 251.601562 "/>
<path style=" stroke:none;fill-rule:nonzero;fill:rgb(100%,100%,100%);fill-opacity:1;" d="M 412.199219 275.417969 L 419.242188 252.589844 L 430.085938 256.300781 "/>
<path style=" stroke:none;fill-rule:nonzero;fill:rgb(100%,100%,100%);fill-opacity:1;" d="M 403.914062 248.582031 L 422.363281 262.691406 L 429.0625 252.980469 "/>
<path style=" stroke:none;fill-rule:nonzero;fill:rgb(100%,100%,100%);fill-opacity:1;" d="M 403.914062 248.582031 L 426.714844 248.582031 L 426.714844 260.582031 "/>
<path style=" stroke:none;fill-rule:nonzero;fill:rgb(100%,100%,100%);fill-opacity:1;" d="M 516.800781 232 L 509.753906 254.824219 L 520.597656 258.535156 "/>
<path style=" stroke:none;fill-rule:nonzero;fill:rgb(100%,100%,100%);fill-opacity:1;" d="M 516.800781 232 L 523.84375 254.824219 L 513.003906 258.535156 "/>
<path style=" stroke:none;fill-rule:nonzero;fill:rgb(100%,100%,100%);fill-opacity:1;" d="M 538.484375 248.582031 L 515.683594 248.582031 L 515.683594 260.582031 "/>
<path style=" stroke:none;fill-rule:nonzero;fill:rgb(100%,100%,100%);fill-opacity:1;" d="M 538.484375 248.582031 L 520.039062 262.691406 L 513.335938 252.980469 "/>
<path style=" stroke:none;fill-rule:nonzero;fill:rgb(100%,100%,100%);fill-opacity:1;" d="M 530.203125 275.417969 L 523.15625 252.589844 L 512.3125 256.300781 "/>
<path style=" stroke:none;fill-rule:nonzero;fill:rgb(100%,100%,100%);fill-opacity:1;" d="M 530.203125 275.417969 L 511.757812 261.308594 L 518.457031 251.601562 "/>
<path style=" stroke:none;fill-rule:nonzero;fill:rgb(100%,100%,100%);fill-opacity:1;" d="M 503.398438 275.417969 L 521.84375 261.308594 L 515.144531 251.601562 "/>
<path style=" stroke:none;fill-rule:nonzero;fill:rgb(100%,100%,100%);fill-opacity:1;" d="M 503.398438 275.417969 L 510.445312 252.589844 L 521.285156 256.300781 "/>
<path style=" stroke:none;fill-rule:nonzero;fill:rgb(100%,100%,100%);fill-opacity:1;" d="M 495.117188 248.582031 L 513.5625 262.691406 L 520.261719 252.980469 "/>
<path style=" stroke:none;fill-rule:nonzero;fill:rgb(100%,100%,100%);fill-opacity:1;" d="M 495.117188 248.582031 L 517.914062 248.582031 L 517.914062 260.582031 "/>
<path style=" stroke:none;fill-rule:nonzero;fill:rgb(100%,100%,100%);fill-opacity:1;" d="M 608 232 L 600.953125 254.824219 L 611.796875 258.535156 "/>
<path style=" stroke:none;fill-rule:nonzero;fill:rgb(100%,100%,100%);fill-opacity:1;" d="M 608 232 L 615.046875 254.824219 L 604.203125 258.535156 "/>
<path style=" stroke:none;fill-rule:nonzero;fill:rgb(100%,100%,100%);fill-opacity:1;" d="M 629.683594 248.582031 L 606.882812 248.582031 L 606.882812 260.582031 "/>
<path style=" stroke:none;fill-rule:nonzero;fill:rgb(100%,100%,100%);fill-opacity:1;" d="M 629.683594 248.582031 L 611.238281 262.691406 L 604.539062 252.980469 "/>
<path style=" stroke:none;fill-rule:nonzero;fill:rgb(100%,100%,100%);fill-opacity:1;" d="M 621.402344 275.417969 L 614.355469 252.589844 L 603.515625 256.300781 "/>
<path style=" stroke:none;fill-rule:nonzero;fill:rgb(100%,100%,100%);fill-opacity:1;" d="M 621.402344 275.417969 L 602.957031 261.308594 L 609.65625 251.601562 "/>
<path style=" stroke:none;fill-rule:nonzero;fill:rgb(100%,100%,100%);fill-opacity:1;" d="M 594.597656 275.417969 L 613.042969 261.308594 L 606.34375 251.601562 "/>
<path style=" stroke:none;fill-rule:nonzero;fill:rgb(100%,100%,100%);fill-opacity:1;" d="M 594.597656 275.417969 L 601.644531 252.589844 L 612.484375 256.300781 "/>
<path style=" stroke:none;fill-rule:nonzero;fill:rgb(100%,100%,100%);fill-opacity:1;" d="M 586.316406 248.582031 L 604.761719 262.691406 L 611.460938 252.980469 "/>
<path style=" stroke:none;fill-rule:nonzero;fill:rgb(100%,100%,100%);fill-opacity:1;" d="M 586.316406 248.582031 L 609.117188 248.582031 L 609.117188 260.582031 "/>
<path style=" stroke:none;fill-rule:nonzero;fill:rgb(100%,100%,100%);fill-opacity:1;" d="M 699.199219 232 L 692.15625 254.824219 L 702.996094 258.535156 "/>
<path style=" stroke:none;fill-rule:nonzero;fill:rgb(100%,100%,100%);fill-opacity:1;" d="M 699.199219 232 L 706.246094 254.824219 L 695.402344 258.535156 "/>
<path style=" stroke:none;fill-rule:nonzero;fill:rgb(100%,100%,100%);fill-opacity:1;" d="M 720.882812 248.582031 L 698.085938 248.582031 L 698.085938 260.582031 "/>
<path style=" stroke:none;fill-rule:nonzero;fill:rgb(100%,100%,100%);fill-opacity:1;" d="M 720.882812 248.582031 L 702.4375 262.691406 L 695.738281 252.980469 "/>
<path style=" stroke:none;fill-rule:nonzero;fill:rgb(100%,100%,100%);fill-opacity:1;" d="M 712.601562 275.417969 L 705.554688 252.589844 L 694.714844 256.300781 "/>
<path style=" stroke:none;fill-rule:nonzero;fill:rgb(100%,100%,100%);fill-opacity:1;" d="M 712.601562 275.417969 L 694.15625 261.308594 L 700.855469 251.601562 "/>
<path style=" stroke:none;fill-rule:nonzero;fill:rgb(100%,100%,100%);fill-opacity:1;" d="M 685.796875 275.417969 L 704.242188 261.308594 L 697.542969 251.601562 "/>
<path style=" stroke:none;fill-rule:nonzero;fill:rgb(100%,100%,100%);fill-opacity:1;" d="M 685.796875 275.417969 L 692.84375 252.589844 L 703.6875 256.300781 "/>
<path style=" stroke:none;fill-rule:nonzero;fill:rgb(100%,100%,100%);fill-opacity:1;" d="M 677.515625 248.582031 L 695.960938 262.691406 L 702.664062 252.980469 "/>
<path style=" stroke:none;fill-rule:nonzero;fill:rgb(100%,100%,100%);fill-opacity:1;" d="M 677.515625 248.582031 L 700.316406 248.582031 L 700.316406 260.582031 "/>
<path style=" stroke:none;fill-rule:nonzero;fill:rgb(100%,100%,100%);fill-opacity:1;" d="M 425.601562 136 L 418.554688 158.824219 L 429.394531 162.535156 "/>
<path style=" stroke:none;fill-rule:nonzero;fill:rgb(100%,100%,100%);fill-opacity:1;" d="M 425.601562 136 L 432.644531 158.824219 L 421.804688 162.535156 "/>
<path style=" stroke:none;fill-rule:nonzero;fill:rgb(100%,100%,100%);fill-opacity:1;" d="M 447.285156 152.582031 L 424.484375 152.582031 L 424.484375 164.582031 "/>
<path style=" stroke:none;fill-rule:nonzero;fill:rgb(100%,100%,100%);fill-opacity:1;" d="M 447.285156 152.582031 L 428.839844 166.691406 L 422.136719 156.980469 "/>
<path style=" stroke:none;fill-rule:nonzero;fill:rgb(100%,100%,100%);fill-opacity:1;" d="M 439 179.417969 L 431.957031 156.589844 L 421.113281 160.300781 "/>
<path style=" stroke:none;fill-rule:nonzero;fill:rgb(100%,100%,100%);fill-opacity:1;" d="M 439 179.417969 L 420.554688 165.308594 L 427.257812 155.601562 "/>
<path style=" stroke:none;fill-rule:nonzero;fill:rgb(100%,100%,100%);fill-opacity:1;" d="M 412.199219 179.417969 L 430.644531 165.308594 L 423.941406 155.601562 "/>
<path style=" stroke:none;fill-rule:nonzero;fill:rgb(100%,100%,100%);fill-opacity:1;" d="M 412.199219 179.417969 L 419.242188 156.589844 L 430.085938 160.300781 "/>
<path style=" stroke:none;fill-rule:nonzero;fill:rgb(100%,100%,100%);fill-opacity:1;" d="M 403.914062 152.582031 L 422.363281 166.691406 L 429.0625 156.980469 "/>
<path style=" stroke:none;fill-rule:nonzero;fill:rgb(100%,100%,100%);fill-opacity:1;" d="M 403.914062 152.582031 L 426.714844 152.582031 L 426.714844 164.582031 "/>
<path style=" stroke:none;fill-rule:nonzero;fill:rgb(100%,100%,100%);fill-opacity:1;" d="M 516.800781 136 L 509.753906 158.824219 L 520.597656 162.535156 "/>
<path style=" stroke:none;fill-rule:nonzero;fill:rgb(100%,100%,100%);fill-opacity:1;" d="M 516.800781 136 L 523.84375 158.824219 L 513.003906 162.535156 "/>
<path style=" stroke:none;fill-rule:nonzero;fill:rgb(100%,100%,100%);fill-opacity:1;" d="M 538.484375 152.582031 L 515.683594 152.582031 L 515.683594 164.582031 "/>
<path style=" stroke:none;fill-rule:nonzero;fill:rgb(100%,100%,100%);fill-opacity:1;" d="M 538.484375 152.582031 L 520.039062 166.691406 L 513.335938 156.980469 "/>
<path style=" stroke:none;fill-rule:nonzero;fill:rgb(100%,100%,100%);fill-opacity:1;" d="M 530.203125 179.417969 L 523.15625 156.589844 L 512.3125 160.300781 "/>
<path style=" stroke:none;fill-rule:nonzero;fill:rgb(100%,100%,100%);fill-opacity:1;" d="M 530.203125 179.417969 L 511.757812 165.308594 L 518.457031 155.601562 "/>
<path style=" stroke:none;fill-rule:nonzero;fill:rgb(100%,100%,100%);fill-opacity:1;" d="M 503.398438 179.417969 L 521.84375 165.308594 L 515.144531 155.601562 "/>
<path style=" stroke:none;fill-rule:nonzero;fill:rgb(100%,100%,100%);fill-opacity:1;" d="M 503.398438 179.417969 L 510.445312 156.589844 L 521.285156 160.300781 "/>
<path style=" stroke:none;fill-rule:nonzero;fill:rgb(100%,100%,100%);fill-opacity:1;" d="M 495.117188 152.582031 L 513.5625 166.691406 L 520.261719 156.980469 "/>
<path style=" stroke:none;fill-rule:nonzero;fill:rgb(100%,100%,100%);fill-opacity:1;" d="M 495.117188 152.582031 L 517.914062 152.582031 L 517.914062 164.582031 "/>
<path style=" stroke:none;fill-rule:nonzero;fill:rgb(100%,100%,100%);fill-opacity:1;" d="M 608 136 L 600.953125 158.824219 L 611.796875 162.535156 "/>
<path style=" stroke:none;fill-rule:nonzero;fill:rgb(100%,100%,100%);fill-opacity:1;" d="M 608 136 L 615.046875 158.824219 L 604.203125 162.535156 "/>
<path style=" stroke:none;fill-rule:nonzero;fill:rgb(100%,100%,100%);fill-opacity:1;" d="M 629.683594 152.582031 L 606.882812 152.582031 L 606.882812 164.582031 "/>
<path style=" stroke:none;fill-rule:nonzero;fill:rgb(100%,100%,100%);fill-opacity:1;" d="M 629.683594 152.582031 L 611.238281 166.691406 L 604.539062 156.980469 "/>
<path style=" stroke:none;fill-rule:nonzero;fill:rgb(100%,100%,100%);fill-opacity:1;" d="M 621.402344 179.417969 L 614.355469 156.589844 L 603.515625 160.300781 "/>
<path style=" stroke:none;fill-rule:nonzero;fill:rgb(100%,100%,100%);fill-opacity:1;" d="M 621.402344 179.417969 L 602.957031 165.308594 L 609.65625 155.601562 "/>
<path style=" stroke:none;fill-rule:nonzero;fill:rgb(100%,100%,100%);fill-opacity:1;" d="M 594.597656 179.417969 L 613.042969 165.308594 L 606.34375 155.601562 "/>
<path style=" stroke:none;fill-rule:nonzero;fill:rgb(100%,100%,100%);fill-opacity:1;" d="M 594.597656 179.417969 L 601.644531 156.589844 L 612.484375 160.300781 "/>
<path style=" stroke:none;fill-rule:nonzero;fill:rgb(100%,100%,100%);fill-opacity:1;" d="M 586.316406 152.582031 L 604.761719 166.691406 L 611.460938 156.980469 "/>
<path style=" stroke:none;fill-rule:nonzero;fill:rgb(100%,100%,100%);fill-opacity:1;" d="M 586.316406 152.582031 L 609.117188 152.582031 L 609.117188 164.582031 "/>
<path style=" stroke:none;fill-rule:nonzero;fill:rgb(100%,100%,100%);fill-opacity:1;" d="M 699.199219 136 L 692.15625 158.824219 L 702.996094 162.535156 "/>
<path style=" stroke:none;fill-rule:nonzero;fill:rgb(100%,100%,100%);fill-opacity:1;" d="M 699.199219 136 L 706.246094 158.824219 L 695.402344 162.535156 "/>
<path style=" stroke:none;fill-rule:nonzero;fill:rgb(100%,100%,100%);fill-opacity:1;" d="M 720.882812 152.582031 L 698.085938 152.582031 L 698.085938 164.582031 "/>
<path style=" stroke:none;fill-rule:nonzero;fill:rgb(100%,100%,100%);fill-opacity:1;" d="M 720.882812 152.582031 L 702.4375 166.691406 L 695.738281 156.980469 "/>
<path style=" stroke:none;fill-rule:nonzero;fill:rgb(100%,100%,100%);fill-opacity:1;" d="M 712.601562 179.417969 L 705.554688 156.589844 L 694.714844 160.300781 "/>
<path style=" stroke:none;fill-rule:nonzero;fill:rgb(100%,100%,100%);fill-opacity:1;" d="M 712.601562 179.417969 L 694.15625 165.308594 L 700.855469 155.601562 "/>
<path style=" stroke:none;fill-rule:nonzero;fill:rgb(100%,100%,100%);fill-opacity:1;" d="M 685.796875 179.417969 L 704.242188 165.308594 L 697.542969 155.601562 "/>
<path style=" stroke:none;fill-rule:nonzero;fill:rgb(100%,100%,100%);fill-opacity:1;" d="M 685.796875 179.417969 L 692.84375 156.589844 L 703.6875 160.300781 "/>
<path style=" stroke:none;fill-rule:nonzero;fill:rgb(100%,100%,100%);fill-opacity:1;" d="M 677.515625 152.582031 L 695.960938 166.691406 L 702.664062 156.980469 "/>
<path style=" stroke:none;fill-rule:nonzero;fill:rgb(100%,100%,100%);fill-opacity:1;" d="M 677.515625 152.582031 L 700.316406 152.582031 L 700.316406 164.582031 "/>
<path style=" stroke:none;fill-rule:nonzero;fill:rgb(100%,100%,100%);fill-opacity:1;" d="M 516.800781 40 L 509.753906 62.824219 L 520.597656 66.535156 "/>
<path style=" stroke:none;fill-rule:nonzero;fill:rgb(100%,100%,100%);fill-opacity:1;" d="M 516.800781 40 L 523.84375 62.824219 L 513.003906 66.535156 "/>
<path style=" stroke:none;fill-rule:nonzero;fill:rgb(100%,100%,100%);fill-opacity:1;" d="M 538.484375 56.582031 L 515.683594 56.582031 L 515.683594 68.582031 "/>
<path style=" stroke:none;fill-rule:nonzero;fill:rgb(100%,100%,100%);fill-opacity:1;" d="M 538.484375 56.582031 L 520.039062 70.691406 L 513.335938 60.980469 "/>
<path style=" stroke:none;fill-rule:nonzero;fill:rgb(100%,100%,100%);fill-opacity:1;" d="M 530.203125 83.417969 L 523.15625 60.589844 L 512.3125 64.300781 "/>
<path style=" stroke:none;fill-rule:nonzero;fill:rgb(100%,100%,100%);fill-opacity:1;" d="M 530.203125 83.417969 L 511.757812 69.308594 L 518.457031 59.601562 "/>
<path style=" stroke:none;fill-rule:nonzero;fill:rgb(100%,100%,100%);fill-opacity:1;" d="M 503.398438 83.417969 L 521.84375 69.308594 L 515.144531 59.601562 "/>
<path style=" stroke:none;fill-rule:nonzero;fill:rgb(100%,100%,100%);fill-opacity:1;" d="M 503.398438 83.417969 L 510.445312 60.589844 L 521.285156 64.300781 "/>
<path style=" stroke:none;fill-rule:nonzero;fill:rgb(100%,100%,100%);fill-opacity:1;" d="M 495.117188 56.582031 L 513.5625 70.691406 L 520.261719 60.980469 "/>
<path style=" stroke:none;fill-rule:nonzero;fill:rgb(100%,100%,100%);fill-opacity:1;" d="M 495.117188 56.582031 L 517.914062 56.582031 L 517.914062 68.582031 "/>
<path style=" stroke:none;fill-rule:nonzero;fill:rgb(100%,100%,100%);fill-opacity:1;" d="M 608 40 L 600.953125 62.824219 L 611.796875 66.535156 "/>
<path style=" stroke:none;fill-rule:nonzero;fill:rgb(100%,100%,100%);fill-opacity:1;" d="M 608 40 L 615.046875 62.824219 L 604.203125 66.535156 "/>
<path style=" stroke:none;fill-rule:nonzero;fill:rgb(100%,100%,100%);fill-opacity:1;" d="M 629.683594 56.582031 L 606.882812 56.582031 L 606.882812 68.582031 "/>
<path style=" stroke:none;fill-rule:nonzero;fill:rgb(100%,100%,100%);fill-opacity:1;" d="M 629.683594 56.582031 L 611.238281 70.691406 L 604.539062 60.980469 "/>
<path style=" stroke:none;fill-rule:nonzero;fill:rgb(100%,100%,100%);fill-opacity:1;" d="M 621.402344 83.417969 L 614.355469 60.589844 L 603.515625 64.300781 "/>
<path style=" stroke:none;fill-rule:nonzero;fill:rgb(100%,100%,100%);fill-opacity:1;" d="M 621.402344 83.417969 L 602.957031 69.308594 L 609.65625 59.601562 "/>
<path style=" stroke:none;fill-rule:nonzero;fill:rgb(100%,100%,100%);fill-opacity:1;" d="M 594.597656 83.417969 L 613.042969 69.308594 L 606.34375 59.601562 "/>
<path style=" stroke:none;fill-rule:nonzero;fill:rgb(100%,100%,100%);fill-opacity:1;" d="M 594.597656 83.417969 L 601.644531 60.589844 L 612.484375 64.300781 "/>
<path style=" stroke:none;fill-rule:nonzero;fill:rgb(100%,100%,100%);fill-opacity:1;" d="M 586.316406 56.582031 L 604.761719 70.691406 L 611.460938 60.980469 "/>
<path style=" stroke:none;fill-rule:nonzero;fill:rgb(100%,100%,100%);fill-opacity:1;" d="M 586.316406 56.582031 L 609.117188 56.582031 L 609.117188 68.582031 "/>
<path style=" stroke:none;fill-rule:nonzero;fill:rgb(100%,100%,100%);fill-opacity:1;" d="M 699.199219 40 L 692.15625 62.824219 L 702.996094 66.535156 "/>
<path style=" stroke:none;fill-rule:nonzero;fill:rgb(100%,100%,100%);fill-opacity:1;" d="M 699.199219 40 L 706.246094 62.824219 L 695.402344 66.535156 "/>
<path style=" stroke:none;fill-rule:nonzero;fill:rgb(100%,100%,100%);fill-opacity:1;" d="M 720.882812 56.582031 L 698.085938 56.582031 L 698.085938 68.582031 "/>
<path style=" stroke:none;fill-rule:nonzero;fill:rgb(100%,100%,100%);fill-opacity:1;" d="M 720.882812 56.582031 L 702.4375 70.691406 L 695.738281 60.980469 "/>
<path style=" stroke:none;fill-rule:nonzero;fill:rgb(100%,100%,100%);fill-opacity:1;" d="M 712.601562 83.417969 L 705.554688 60.589844 L 694.714844 64.300781 "/>
<path style=" stroke:none;fill-rule:nonzero;fill:rgb(100%,100%,100%);fill-opacity:1;" d="M 712.601562 83.417969 L 694.15625 69.308594 L 700.855469 59.601562 "/>
<path style=" stroke:none;fill-rule:nonzero;fill:rgb(100%,100%,100%);fill-opacity:1;" d="M 685.796875 83.417969 L 704.242188 69.308594 L 697.542969 59.601562 "/>
<path style=" stroke:none;fill-rule:nonzero;fill:rgb(100%,100%,100%);fill-opacity:1;" d="M 685.796875 83.417969 L 692.84375 60.589844 L 703.6875 64.300781 "/>
<path style=" stroke:none;fill-rule:nonzero;fill:rgb(100%,100%,100%);fill-opacity:1;" d="M 677.515625 56.582031 L 695.960938 70.691406 L 702.664062 60.980469 "/>
<path style=" stroke:none;fill-rule:nonzero;fill:rgb(100%,100%,100%);fill-opacity:1;" d="M 677.515625 56.582031 L 700.316406 56.582031 L 700.316406 68.582031 "/>
</g>
</svg>
