<?xml version="1.0" encoding="UTF-8"?>
<svg xmlns="http://www.w3.org/2000/svg" xmlns:xlink="http://www.w3.org/1999/xlink" width="1900pt" height="1000pt" viewBox="0 0 1900 1000" version="1.1">
<g id="surface1">
<rect x="0" y="0" width="1900" height="1000" style="fill:rgb(100%,100%,100%);fill-opacity:1;stroke:none;"/>
<path style=" stroke:none;fill-rule:nonzero;fill:rgb(0%,38.431373%,20%);fill-opacity:1;" d="M 0 0 L 950 0 L 950 1000 L 0 1000 Z M 0 0 "/>
<path style=" stroke:none;fill-rule:nonzero;fill:rgb(82.352941%,6.27451%,20.392157%);fill-opacity:1;" d="M 1224.445312 375 C 1152.78125 277.007812 1006.683594 229.234375 868.242188 258.519531 C 729.800781 287.804688 633.535156 386.847656 633.535156 500 C 633.535156 613.152344 729.800781 712.195312 868.242188 741.480469 C 1006.683594 770.765625 1152.78125 722.992188 1224.445312 625 C 1157.214844 691.292969 1044.28125 716.839844 942.785156 688.710938 C 841.285156 660.585938 773.351562 584.921875 773.351562 500 C 773.351562 415.078125 841.285156 339.414062 942.785156 311.289062 C 1044.28125 283.160156 1157.214844 308.707031 1224.445312 375 M 1235 500 L 950 426.667969 L 1127.332031 618.332031 L 1127.332031 381.667969 L 950 573.332031 Z M 1235 500 "/>
</g>
</svg>
