<?xml version="1.0" encoding="UTF-8"?>
<svg xmlns="http://www.w3.org/2000/svg" xmlns:xlink="http://www.w3.org/1999/xlink" width="1900pt" height="1000pt" viewBox="0 0 1900 1000" version="1.1">
<g id="surface1">
<rect x="0" y="0" width="1900" height="1000" style="fill:rgb(100%,77.647059%,11.764706%);fill-opacity:1;stroke:none;"/>
<path style=" stroke:none;fill-rule:nonzero;fill:rgb(100%,100%,100%);fill-opacity:1;" d="M 0 250 L 1900 250 L 1900 1000 L 0 1000 Z M 0 250 "/>
<path style=" stroke:none;fill-rule:nonzero;fill:rgb(80.784314%,6.666667%,14.901961%);fill-opacity:1;" d="M 0 500 L 1900 500 L 1900 1000 L 0 1000 Z M 0 500 "/>
<path style=" stroke:none;fill-rule:nonzero;fill:rgb(22.745098%,45.882353%,76.862745%);fill-opacity:1;" d="M 0 750 L 1900 750 L 1900 1000 L 0 1000 Z M 0 750 "/>
<path style=" stroke:none;fill-rule:nonzero;fill:rgb(23.921569%,55.686275%,20%);fill-opacity:1;" d="M 0 1000 L 950 500 L 0 0 Z M 0 1000 "/>
<path style=" stroke:none;fill-rule:nonzero;fill:rgb(100%,100%,100%);fill-opacity:1;" d="M 579.5 500 C 579.5 624.265625 464.660156 725 323 725 C 181.339844 725 66.5 624.265625 66.5 500 C 66.5 375.734375 181.339844 275 323 275 C 464.660156 275 579.5 375.734375 579.5 500 Z M 579.5 500 "/>
<path style=" stroke:none;fill-rule:nonzero;fill:rgb(23.921569%,55.686275%,20%);fill-opacity:1;" d="M 693.5 500 C 693.5 624.265625 578.660156 725 437 725 C 295.339844 725 180.5 624.265625 180.5 500 C 180.5 375.734375 295.339844 275 437 275 C 578.660156 275 693.5 375.734375 693.5 500 Z M 693.5 500 "/>
<path style=" stroke:none;fill-rule:nonzero;fill:rgb(100%,100%,100%);fill-opacity:1;" d="M 334.828125 326.082031 L 369.339844 326.082031 L 380 297.292969 L 390.660156 326.082031 L 425.171875 326.082031 L 397.257812 343.875 L 407.917969 372.667969 L 380 354.875 L 352.082031 372.667969 L 362.742188 343.875 Z M 334.828125 326.082031 "/>
<path style=" stroke:none;fill-rule:nonzero;fill:rgb(100%,100%,100%);fill-opacity:1;" d="M 334.828125 433.445312 L 369.339844 433.445312 L 380 404.652344 L 390.660156 433.445312 L 425.171875 433.445312 L 397.257812 451.234375 L 407.917969 480.027344 L 380 462.234375 L 352.082031 480.027344 L 362.742188 451.234375 Z M 334.828125 433.445312 "/>
<path style=" stroke:none;fill-rule:nonzero;fill:rgb(100%,100%,100%);fill-opacity:1;" d="M 334.828125 540.804688 L 369.339844 540.804688 L 380 512.011719 L 390.660156 540.804688 L 425.171875 540.804688 L 397.257812 558.597656 L 407.917969 587.386719 L 380 569.597656 L 352.082031 587.386719 L 362.742188 558.597656 Z M 334.828125 540.804688 "/>
<path style=" stroke:none;fill-rule:nonzero;fill:rgb(100%,100%,100%);fill-opacity:1;" d="M 334.828125 648.167969 L 369.339844 648.167969 L 380 619.375 L 390.660156 648.167969 L 425.171875 648.167969 L 397.257812 665.957031 L 407.917969 694.75 L 380 676.957031 L 352.082031 694.75 L 362.742188 665.957031 Z M 334.828125 648.167969 "/>
</g>
</svg>
