<?xml version="1.0" encoding="UTF-8"?>
<svg xmlns="http://www.w3.org/2000/svg" xmlns:xlink="http://www.w3.org/1999/xlink" width="380pt" height="200pt" viewBox="0 0 1900 1000" version="1.1">
<defs>
<clipPath id="clip1">
  <path d="M 0 0 L 950 0 L 950 1000 L 0 1000 Z M 0 0 "/>
</clipPath>
<clipPath id="clip2">
  <path d="M 0 0 L 950 500 L 0 1000 "/>
</clipPath>
</defs>
<g id="surface1">
<path style=" stroke:none;fill-rule:nonzero;fill:rgb(87.058824%,21.960784%,19.215686%);fill-opacity:1;" d="M 0 0 L 1900 0 L 1900 500 L 0 500 Z M 0 0 "/>
<path style=" stroke:none;fill-rule:nonzero;fill:rgb(0%,13.72549%,58.431373%);fill-opacity:1;" d="M 0 500 L 1900 500 L 1900 1000 L 0 1000 Z M 0 500 "/>
<path style=" stroke:none;fill-rule:nonzero;fill:rgb(0%,0%,0%);fill-opacity:1;" d="M 0 0 L 950 500 L 0 1000 "/>
<path style="fill:none;stroke-width:10;stroke-linecap:butt;stroke-linejoin:miter;stroke:rgb(100%,100%,100%);stroke-opacity:1;stroke-miterlimit:4;" d="M 0 0 L 22.5 15 L 45 15 M 0 30 L 22.5 15 " transform="matrix(42.222222,0,0,33.333333,0,0)"/>
<g clip-path="url(#clip1)" clip-rule="nonzero">
<g clip-path="url(#clip2)" clip-rule="nonzero">
<path style="fill:none;stroke-width:10;stroke-linecap:butt;stroke-linejoin:miter;stroke:rgb(100%,71.372549%,7.058824%);stroke-opacity:1;stroke-miterlimit:4;" d="M 0 0 L 22.5 15 L 0 30 " transform="matrix(42.222222,0,0,33.333333,0,0)"/>
<path style="fill:none;stroke-width:6;stroke-linecap:butt;stroke-linejoin:miter;stroke:rgb(0%,47.843137%,30.196078%);stroke-opacity:1;stroke-miterlimit:4;" d="M 0 0 L 22.5 15 L 0 30 " transform="matrix(42.222222,0,0,33.333333,0,0)"/>
</g>
</g>
<path style="fill:none;stroke-width:6;stroke-linecap:butt;stroke-linejoin:miter;stroke:rgb(0%,47.843137%,30.196078%);stroke-opacity:1;stroke-miterlimit:4;" d="M 0 0 L 22.5 15 L 45 15 M 0 30 L 22.5 15 " transform="matrix(42.222222,0,0,33.333333,0,0)"/>
</g>
</svg>
