<?xml version="1.0" encoding="UTF-8"?>
<svg xmlns="http://www.w3.org/2000/svg" xmlns:xlink="http://www.w3.org/1999/xlink" width="1900pt" height="1000pt" viewBox="0 0 1900 1000" version="1.1">
<g id="surface1">
<rect x="0" y="0" width="1900" height="1000" style="fill:rgb(0%,61.960784%,28.627451%);fill-opacity:1;stroke:none;"/>
<path style=" stroke:none;fill-rule:nonzero;fill:rgb(93.72549%,16.862745%,17.647059%);fill-opacity:1;" d="M 0 0 L 1900 0 L 1900 500 L 0 500 Z M 0 0 "/>
<path style=" stroke:none;fill-rule:nonzero;fill:rgb(98.823529%,81.960784%,8.627451%);fill-opacity:1;" d="M 950 333.332031 L 884.761719 491.84375 L 985.152344 517.59375 "/>
<path style=" stroke:none;fill-rule:nonzero;fill:rgb(98.823529%,81.960784%,8.627451%);fill-opacity:1;" d="M 950 333.332031 L 1015.238281 491.84375 L 914.847656 517.59375 "/>
<path style=" stroke:none;fill-rule:nonzero;fill:rgb(98.823529%,81.960784%,8.627451%);fill-opacity:1;" d="M 1150.777344 448.496094 L 939.667969 448.496094 L 939.667969 531.832031 "/>
<path style=" stroke:none;fill-rule:nonzero;fill:rgb(98.823529%,81.960784%,8.627451%);fill-opacity:1;" d="M 1150.777344 448.496094 L 979.984375 546.460938 L 917.941406 479.042969 "/>
<path style=" stroke:none;fill-rule:nonzero;fill:rgb(98.823529%,81.960784%,8.627451%);fill-opacity:1;" d="M 1074.089844 634.835938 L 1008.851562 476.328125 L 908.460938 502.078125 "/>
<path style=" stroke:none;fill-rule:nonzero;fill:rgb(98.823529%,81.960784%,8.627451%);fill-opacity:1;" d="M 1074.089844 634.835938 L 903.296875 536.871094 L 965.339844 469.453125 "/>
<path style=" stroke:none;fill-rule:nonzero;fill:rgb(98.823529%,81.960784%,8.627451%);fill-opacity:1;" d="M 825.910156 634.835938 L 996.703125 536.871094 L 934.660156 469.453125 "/>
<path style=" stroke:none;fill-rule:nonzero;fill:rgb(98.823529%,81.960784%,8.627451%);fill-opacity:1;" d="M 825.910156 634.835938 L 891.148438 476.328125 L 991.539062 502.078125 "/>
<path style=" stroke:none;fill-rule:nonzero;fill:rgb(98.823529%,81.960784%,8.627451%);fill-opacity:1;" d="M 749.222656 448.496094 L 920.015625 546.460938 L 982.058594 479.042969 "/>
<path style=" stroke:none;fill-rule:nonzero;fill:rgb(98.823529%,81.960784%,8.627451%);fill-opacity:1;" d="M 749.222656 448.496094 L 960.332031 448.496094 L 960.332031 531.832031 "/>
</g>
</svg>
