<?xml version="1.0" encoding="UTF-8"?>
<svg xmlns="http://www.w3.org/2000/svg" xmlns:xlink="http://www.w3.org/1999/xlink" width="1900pt" height="1000pt" viewBox="0 0 1900 1000" version="1.1">
<g id="surface1">
<rect x="0" y="0" width="1900" height="1000" style="fill:rgb(87.058824%,16.078431%,6.27451%);fill-opacity:1;stroke:none;"/>
<path style=" stroke:none;fill-rule:nonzero;fill:rgb(100%,87.058824%,0%);fill-opacity:1;" d="M 316.667969 100 L 428.347656 371.351562 L 135.964844 203.648438 L 497.367188 203.648438 L 204.988281 371.351562 Z M 316.667969 100 "/>
<path style=" stroke:none;fill-rule:nonzero;fill:rgb(100%,87.058824%,0%);fill-opacity:1;" d="M 579.027344 125.726562 L 658.117188 53.988281 L 647.542969 148.726562 L 585.5625 67.171875 L 696.421875 104.390625 Z M 579.027344 125.726562 "/>
<path style=" stroke:none;fill-rule:nonzero;fill:rgb(100%,87.058824%,0%);fill-opacity:1;" d="M 697.304688 207.070312 L 805.457031 165.183594 L 749.144531 249.261719 L 732.105469 155.109375 L 815.988281 223.375 Z M 697.304688 207.070312 "/>
<path style=" stroke:none;fill-rule:nonzero;fill:rgb(100%,87.058824%,0%);fill-opacity:1;" d="M 699.101562 336.265625 L 819.492188 332.855469 L 724.632812 391.476562 L 757.730469 300.03125 L 799.039062 389.371094 Z M 699.101562 336.265625 "/>
<path style=" stroke:none;fill-rule:nonzero;fill:rgb(100%,87.058824%,0%);fill-opacity:1;" d="M 583.878906 418.765625 L 696.597656 452.320312 L 580.421875 477.480469 L 655.679688 403.214844 L 650.089844 498.21875 Z M 583.878906 418.765625 "/>
</g>
</svg>
