<?xml version="1.0" encoding="UTF-8"?>
<svg xmlns="http://www.w3.org/2000/svg" xmlns:xlink="http://www.w3.org/1999/xlink" width="380pt" height="200pt" viewBox="0 0 1900 1000" version="1.1">
<g id="surface1">
<rect x="0" y="0" width="1900" height="1000" style="fill:rgb(0%,0%,0%);fill-opacity:1;stroke:none;"/>
<path style=" stroke:none;fill-rule:nonzero;fill:rgb(80.784314%,6.666667%,14.901961%);fill-opacity:1;" d="M 1222.332031 380 C 1222.332031 498.742188 1100.40625 595 950 595 C 799.59375 595 677.667969 498.742188 677.667969 380 C 677.667969 261.257812 799.59375 165 950 165 C 1100.40625 165 1222.332031 261.257812 1222.332031 380 Z M 1222.332031 380 "/>
<path style=" stroke:none;fill-rule:nonzero;fill:rgb(80.784314%,6.666667%,14.901961%);fill-opacity:1;" d="M 0 333.332031 L 1900 333.332031 L 1900 666.667969 L 0 666.667969 Z M 0 333.332031 "/>
<path style=" stroke:none;fill-rule:nonzero;fill:rgb(80.784314%,6.666667%,14.901961%);fill-opacity:1;" d="M 950 40 C 940.710938 40 937.332031 51 937.332031 61.667969 C 937.332031 88.332031 941.554688 101.667969 950 140 C 958.613281 101.667969 962.667969 88 962.667969 61.667969 C 962.667969 50.667969 958.445312 40 950 40 "/>
<path style=" stroke:none;fill-rule:nonzero;fill:rgb(80.784314%,6.666667%,14.901961%);fill-opacity:1;" d="M 987.535156 41.292969 C 978.28125 40.65625 973.703125 51.378906 972.523438 62.007812 C 969.582031 88.570312 972.316406 102.144531 976.496094 140.914062 C 989.308594 103.320312 994.855469 89.984375 997.761719 63.75 C 998.976562 52.792969 995.949219 41.875 987.535156 41.292969 "/>
<path style=" stroke:none;fill-rule:nonzero;fill:rgb(80.784314%,6.666667%,14.901961%);fill-opacity:1;" d="M 1024.785156 45.164062 C 1015.636719 43.890625 1009.890625 54.261719 1007.542969 64.765625 C 1001.679688 91.027344 1002.90625 104.738281 1002.789062 143.644531 C 1019.703125 107.074219 1026.699219 94.171875 1032.492188 68.238281 C 1034.914062 57.40625 1033.101562 46.324219 1024.785156 45.164062 "/>
<path style=" stroke:none;fill-rule:nonzero;fill:rgb(80.784314%,6.666667%,14.901961%);fill-opacity:1;" d="M 1061.464844 51.585938 C 1052.492188 49.6875 1045.625 59.621094 1042.125 69.925781 C 1033.382812 95.683594 1033.089844 109.425781 1028.679688 148.179688 C 1049.566406 112.910156 1057.964844 100.539062 1066.597656 75.101562 C 1070.203125 64.476562 1069.621094 53.3125 1061.464844 51.585938 "/>
<path style=" stroke:none;fill-rule:nonzero;fill:rgb(80.784314%,6.666667%,14.901961%);fill-opacity:1;" d="M 1097.296875 60.503906 C 1088.566406 57.996094 1080.628906 67.421875 1076.007812 77.445312 C 1064.453125 102.503906 1062.644531 116.171875 1053.972656 154.472656 C 1078.675781 120.777344 1088.40625 109.03125 1099.8125 84.285156 C 1104.578125 73.949219 1105.230469 62.785156 1097.296875 60.503906 "/>
<path style=" stroke:none;fill-rule:nonzero;fill:rgb(80.784314%,6.666667%,14.901961%);fill-opacity:1;" d="M 1132.007812 71.855469 C 1123.589844 68.757812 1114.640625 77.597656 1108.929688 87.265625 C 1094.652344 111.433594 1091.34375 124.925781 1078.476562 162.484375 C 1106.804688 130.617188 1117.792969 119.585938 1131.890625 95.71875 C 1137.777344 85.75 1139.660156 74.671875 1132.007812 71.855469 "/>
<path style=" stroke:none;fill-rule:nonzero;fill:rgb(80.784314%,6.666667%,14.901961%);fill-opacity:1;" d="M 1165.332031 85.550781 C 1157.289062 81.882812 1147.398438 90.078125 1140.640625 99.316406 C 1123.753906 122.410156 1118.964844 135.621094 1102 172.152344 C 1133.738281 142.355469 1145.902344 132.121094 1162.582031 109.316406 C 1169.546875 99.789062 1172.644531 88.882812 1165.332031 85.550781 "/>
<path style=" stroke:none;fill-rule:nonzero;fill:rgb(80.784314%,6.666667%,14.901961%);fill-opacity:1;" d="M 1197.019531 101.488281 C 1189.410156 97.28125 1178.652344 104.761719 1170.902344 113.5 C 1151.527344 135.34375 1145.300781 148.179688 1124.367188 183.402344 C 1159.273438 155.902344 1172.523438 146.542969 1191.65625 124.972656 C 1199.648438 115.960938 1203.9375 105.3125 1197.019531 101.488281 "/>
<path style=" stroke:none;fill-rule:nonzero;fill:rgb(80.784314%,6.666667%,14.901961%);fill-opacity:1;" d="M 1226.828125 119.542969 C 1219.710938 114.832031 1208.167969 121.542969 1199.484375 129.714844 C 1177.769531 150.140625 1170.148438 162.5 1145.40625 196.148438 C 1183.214844 171.15625 1197.449219 162.742188 1218.890625 142.570312 C 1227.84375 134.144531 1233.296875 123.832031 1226.828125 119.542969 "/>
<path style=" stroke:none;fill-rule:nonzero;fill:rgb(80.784314%,6.666667%,14.901961%);fill-opacity:1;" d="M 1254.527344 139.582031 C 1247.960938 134.398438 1235.71875 140.289062 1226.164062 147.832031 C 1202.28125 166.691406 1193.324219 178.472656 1164.960938 210.292969 C 1205.386719 187.996094 1220.492188 180.597656 1244.078125 161.976562 C 1253.929688 154.195312 1260.5 144.296875 1254.527344 139.582031 "/>
<path style=" stroke:none;fill-rule:nonzero;fill:rgb(80.784314%,6.666667%,14.901961%);fill-opacity:1;" d="M 1279.910156 161.453125 C 1273.9375 155.835938 1261.09375 160.863281 1250.746094 167.71875 C 1224.867188 184.859375 1214.644531 195.984375 1182.878906 225.730469 C 1225.609375 206.300781 1241.476562 199.964844 1267.027344 183.039062 C 1277.703125 175.96875 1285.335938 166.558594 1279.910156 161.453125 "/>
<path style=" stroke:none;fill-rule:nonzero;fill:rgb(80.784314%,6.666667%,14.901961%);fill-opacity:1;" d="M 1302.78125 184.984375 C 1297.453125 178.976562 1284.101562 183.101562 1273.035156 189.21875 C 1245.367188 204.515625 1233.953125 214.894531 1199.023438 242.339844 C 1243.738281 225.925781 1260.242188 220.707031 1287.566406 205.601562 C 1298.980469 199.292969 1307.625 190.445312 1302.78125 184.984375 "/>
<path style=" stroke:none;fill-rule:nonzero;fill:rgb(80.784314%,6.666667%,14.901961%);fill-opacity:1;" d="M 1322.96875 210 C 1318.324219 203.648438 1304.566406 206.839844 1292.867188 212.171875 C 1263.613281 225.507812 1251.101562 235.058594 1213.273438 260 C 1259.628906 246.722656 1276.648438 242.660156 1305.535156 229.492188 C 1317.601562 223.992188 1327.191406 215.773438 1322.96875 210 "/>
<path style=" stroke:none;fill-rule:nonzero;fill:rgb(80.784314%,6.666667%,14.901961%);fill-opacity:1;" d="M 1340.316406 236.308594 C 1336.390625 229.664062 1322.335938 231.894531 1310.089844 236.402344 C 1279.476562 247.671875 1265.953125 256.328125 1225.515625 278.570312 C 1273.164062 268.535156 1290.566406 265.660156 1320.796875 254.53125 C 1333.425781 249.878906 1343.886719 242.351562 1340.316406 236.308594 "/>
<path style=" stroke:none;fill-rule:nonzero;fill:rgb(80.784314%,6.666667%,14.901961%);fill-opacity:1;" d="M 1354.695312 263.714844 C 1351.515625 256.820312 1337.269531 258.078125 1324.574219 261.726562 C 1292.832031 270.847656 1278.40625 278.539062 1235.667969 297.914062 C 1284.238281 291.195312 1301.894531 289.527344 1333.238281 280.519531 C 1346.332031 276.757812 1357.582031 269.976562 1354.695312 263.714844 "/>
<path style=" stroke:none;fill-rule:nonzero;fill:rgb(80.784314%,6.666667%,14.901961%);fill-opacity:1;" d="M 1365.992188 292 C 1363.589844 284.917969 1349.253906 285.1875 1336.203125 287.949219 C 1303.578125 294.851562 1288.355469 301.523438 1243.640625 317.882812 C 1292.773438 314.53125 1310.542969 314.085938 1342.761719 307.269531 C 1356.21875 304.421875 1368.175781 298.441406 1365.992188 292 "/>
<path style=" stroke:none;fill-rule:nonzero;fill:rgb(80.784314%,6.666667%,14.901961%);fill-opacity:1;" d="M 525.875 320.960938 C 524.261719 328.179688 537.398438 332.71875 550.703125 334.570312 C 583.96875 339.199219 601.335938 338.234375 650.617188 338.324219 C 604.296875 324.972656 587.953125 319.445312 555.101562 314.875 C 541.382812 312.964844 527.34375 314.394531 525.875 320.960938 "/>
<path style=" stroke:none;fill-rule:nonzero;fill:rgb(80.784314%,6.666667%,14.901961%);fill-opacity:1;" d="M 534.007812 292 C 531.605469 299.085938 544.1875 304.507812 557.238281 307.269531 C 589.867188 314.171875 607.273438 314.402344 656.359375 317.882812 C 611.6875 301.394531 596.015625 294.765625 563.796875 287.949219 C 550.335938 285.101562 536.195312 285.5625 534.007812 292 "/>
<path style=" stroke:none;fill-rule:nonzero;fill:rgb(80.784314%,6.666667%,14.901961%);fill-opacity:1;" d="M 545.304688 263.714844 C 542.128906 270.605469 554.066406 276.871094 566.761719 280.519531 C 598.503906 289.640625 615.816406 291.070312 664.332031 297.914062 C 621.652344 278.414062 606.769531 270.734375 575.425781 261.726562 C 562.335938 257.964844 548.195312 257.449219 545.304688 263.714844 "/>
<path style=" stroke:none;fill-rule:nonzero;fill:rgb(80.784314%,6.666667%,14.901961%);fill-opacity:1;" d="M 559.683594 236.308594 C 555.757812 242.957031 566.957031 250.023438 579.203125 254.53125 C 609.816406 265.800781 626.90625 268.414062 674.484375 278.570312 C 634.117188 256.207031 620.140625 247.53125 589.910156 236.402344 C 577.28125 231.753906 563.253906 230.269531 559.683594 236.308594 "/>
<path style=" stroke:none;fill-rule:nonzero;fill:rgb(80.784314%,6.666667%,14.901961%);fill-opacity:1;" d="M 577.03125 210 C 572.386719 216.351562 582.765625 224.160156 594.464844 229.492188 C 623.71875 242.828125 640.457031 246.605469 686.726562 260 C 648.984375 234.945312 636.019531 225.339844 607.132812 212.171875 C 595.066406 206.671875 581.253906 204.226562 577.03125 210 "/>
<path style=" stroke:none;fill-rule:nonzero;fill:rgb(80.784314%,6.666667%,14.901961%);fill-opacity:1;" d="M 597.21875 184.984375 C 591.890625 190.992188 601.367188 199.484375 612.433594 205.601562 C 640.105469 220.898438 656.359375 225.816406 700.976562 242.339844 C 666.144531 214.785156 654.289062 204.324219 626.964844 189.21875 C 615.550781 182.910156 602.0625 179.523438 597.21875 184.984375 "/>
<path style=" stroke:none;fill-rule:nonzero;fill:rgb(80.784314%,6.666667%,14.901961%);fill-opacity:1;" d="M 620.089844 161.453125 C 614.121094 167.070312 622.621094 176.183594 632.972656 183.039062 C 658.847656 200.179688 674.5 206.199219 717.121094 225.730469 C 685.464844 195.882812 674.808594 184.644531 649.253906 167.71875 C 638.582031 160.648438 625.519531 156.34375 620.089844 161.453125 "/>
<path style=" stroke:none;fill-rule:nonzero;fill:rgb(80.784314%,6.666667%,14.901961%);fill-opacity:1;" d="M 645.472656 139.582031 C 638.90625 144.769531 646.367188 154.433594 655.921875 161.976562 C 679.808594 180.832031 694.734375 187.902344 735.039062 210.292969 C 706.796875 178.378906 697.421875 166.453125 673.835938 147.832031 C 663.984375 140.054688 651.445312 134.871094 645.472656 139.582031 "/>
<path style=" stroke:none;fill-rule:nonzero;fill:rgb(80.784314%,6.666667%,14.901961%);fill-opacity:1;" d="M 673.171875 119.542969 C 666.058594 124.257812 672.425781 134.398438 681.109375 142.570312 C 702.824219 163 716.914062 171.070312 754.59375 196.148438 C 729.980469 162.414062 721.957031 149.886719 700.515625 129.714844 C 691.5625 121.289062 679.640625 115.257812 673.171875 119.542969 "/>
<path style=" stroke:none;fill-rule:nonzero;fill:rgb(80.784314%,6.666667%,14.901961%);fill-opacity:1;" d="M 702.980469 101.488281 C 695.371094 105.695312 700.59375 116.234375 708.34375 124.972656 C 727.71875 146.816406 740.863281 155.828125 775.632812 183.402344 C 754.839844 148.101562 748.230469 135.070312 729.097656 113.5 C 721.105469 104.488281 709.898438 97.664062 702.980469 101.488281 "/>
<path style=" stroke:none;fill-rule:nonzero;fill:rgb(80.784314%,6.666667%,14.901961%);fill-opacity:1;" d="M 734.667969 85.550781 C 726.621094 89.21875 730.664062 100.078125 737.417969 109.316406 C 754.308594 132.410156 766.410156 142.289062 798 172.152344 C 781.179688 135.554688 776.035156 122.121094 759.359375 99.316406 C 752.390625 89.789062 741.980469 82.21875 734.667969 85.550781 "/>
<path style=" stroke:none;fill-rule:nonzero;fill:rgb(80.784314%,6.666667%,14.901961%);fill-opacity:1;" d="M 767.992188 71.855469 C 759.574219 74.953125 762.402344 86.050781 768.109375 95.71875 C 782.386719 119.886719 793.351562 130.5625 821.523438 162.484375 C 808.808594 124.871094 805.167969 111.132812 791.070312 87.265625 C 785.183594 77.296875 775.644531 69.039062 767.992188 71.855469 "/>
<path style=" stroke:none;fill-rule:nonzero;fill:rgb(80.784314%,6.666667%,14.901961%);fill-opacity:1;" d="M 802.703125 60.503906 C 793.976562 63.011719 795.566406 74.261719 800.1875 84.285156 C 811.738281 109.34375 821.484375 120.730469 846.027344 154.472656 C 837.511719 116.125 835.402344 102.191406 823.992188 77.445312 C 819.226562 67.109375 810.636719 58.222656 802.703125 60.503906 "/>
<path style=" stroke:none;fill-rule:nonzero;fill:rgb(80.784314%,6.666667%,14.901961%);fill-opacity:1;" d="M 838.535156 51.585938 C 829.5625 53.484375 829.90625 64.796875 833.402344 75.101562 C 842.144531 100.859375 850.59375 112.875 871.320312 148.179688 C 867.070312 109.390625 866.507812 95.363281 857.875 69.925781 C 854.265625 59.300781 846.691406 49.859375 838.535156 51.585938 "/>
<path style=" stroke:none;fill-rule:nonzero;fill:rgb(80.784314%,6.666667%,14.901961%);fill-opacity:1;" d="M 875.214844 45.164062 C 866.066406 46.4375 865.160156 57.734375 867.507812 68.238281 C 873.371094 94.5 880.464844 107.054688 897.210938 143.644531 C 897.261719 104.714844 898.246094 90.699219 892.457031 64.765625 C 890.035156 53.933594 883.53125 44.007812 875.214844 45.164062 "/>
<path style=" stroke:none;fill-rule:nonzero;fill:rgb(80.784314%,6.666667%,14.901961%);fill-opacity:1;" d="M 912.464844 41.292969 C 903.210938 41.933594 901.0625 53.125 902.238281 63.75 C 905.183594 90.316406 910.859375 103.308594 923.503906 140.914062 C 927.851562 102.132812 930.382812 88.238281 927.476562 62.007812 C 926.261719 51.046875 920.878906 40.710938 912.464844 41.292969 "/>
<path style=" stroke:none;fill-rule:nonzero;fill:rgb(0%,0%,0%);fill-opacity:1;" d="M 0 308.332031 L 1900 308.332031 L 1900 333.332031 L 0 333.332031 Z M 0 308.332031 "/>
<path style=" stroke:none;fill-rule:nonzero;fill:rgb(20%,61.960784%,20.784314%);fill-opacity:1;" d="M 0 666.667969 L 1900 666.667969 L 1900 1000 L 0 1000 Z M 0 666.667969 "/>
</g>
</svg>
