<?xml version="1.0" encoding="UTF-8"?>
<svg xmlns="http://www.w3.org/2000/svg" xmlns:xlink="http://www.w3.org/1999/xlink" width="1900pt" height="1000pt" viewBox="0 0 1900 1000" version="1.1">
<g id="surface1">
<rect x="0" y="0" width="1900" height="1000" style="fill:rgb(100%,100%,100%);fill-opacity:1;stroke:none;"/>
<path style=" stroke:none;fill-rule:nonzero;fill:rgb(0%,0%,0%);fill-opacity:1;" d="M 0 0 L 1900 0 L 1900 391.304688 L 0 391.304688 Z M 0 0 "/>
<path style=" stroke:none;fill-rule:nonzero;fill:rgb(98.823529%,81.960784%,8.627451%);fill-opacity:1;" d="M 536.957031 391.304688 L 942.0625 454.921875 L 962.207031 374.964844 "/>
<path style=" stroke:none;fill-rule:nonzero;fill:rgb(98.823529%,81.960784%,8.627451%);fill-opacity:1;" d="M 536.957031 391.304688 L 942.0625 327.6875 L 962.207031 407.644531 "/>
<path style=" stroke:none;fill-rule:nonzero;fill:rgb(98.823529%,81.960784%,8.627451%);fill-opacity:1;" d="M 568.398438 266.515625 L 911.832031 447.679688 L 969.199219 379.898438 "/>
<path style=" stroke:none;fill-rule:nonzero;fill:rgb(98.823529%,81.960784%,8.627451%);fill-opacity:1;" d="M 568.398438 266.515625 L 973.503906 330.132812 L 953.359375 410.089844 "/>
<path style=" stroke:none;fill-rule:nonzero;fill:rgb(98.823529%,81.960784%,8.627451%);fill-opacity:1;" d="M 657.933594 160.726562 L 887.410156 431.859375 L 973.265625 386.566406 "/>
<path style=" stroke:none;fill-rule:nonzero;fill:rgb(98.823529%,81.960784%,8.627451%);fill-opacity:1;" d="M 657.933594 160.726562 L 1001.367188 341.890625 L 944 409.671875 "/>
<path style=" stroke:none;fill-rule:nonzero;fill:rgb(98.823529%,81.960784%,8.627451%);fill-opacity:1;" d="M 791.933594 90.039062 L 872.515625 409.859375 L 973.792969 393.957031 "/>
<path style=" stroke:none;fill-rule:nonzero;fill:rgb(98.823529%,81.960784%,8.627451%);fill-opacity:1;" d="M 791.933594 90.039062 L 1021.410156 361.171875 L 935.550781 406.460938 "/>
<path style=" stroke:none;fill-rule:nonzero;fill:rgb(98.823529%,81.960784%,8.627451%);fill-opacity:1;" d="M 950 65.21875 L 869.417969 385.039062 L 970.695312 400.941406 "/>
<path style=" stroke:none;fill-rule:nonzero;fill:rgb(98.823529%,81.960784%,8.627451%);fill-opacity:1;" d="M 950 65.21875 L 1030.582031 385.039062 L 929.304688 400.941406 "/>
<path style=" stroke:none;fill-rule:nonzero;fill:rgb(98.823529%,81.960784%,8.627451%);fill-opacity:1;" d="M 1108.066406 90.039062 L 878.589844 361.171875 L 964.449219 406.460938 "/>
<path style=" stroke:none;fill-rule:nonzero;fill:rgb(98.823529%,81.960784%,8.627451%);fill-opacity:1;" d="M 1108.066406 90.039062 L 1027.484375 409.859375 L 926.207031 393.957031 "/>
<path style=" stroke:none;fill-rule:nonzero;fill:rgb(98.823529%,81.960784%,8.627451%);fill-opacity:1;" d="M 1242.066406 160.726562 L 898.632812 341.890625 L 956 409.671875 "/>
<path style=" stroke:none;fill-rule:nonzero;fill:rgb(98.823529%,81.960784%,8.627451%);fill-opacity:1;" d="M 1242.066406 160.726562 L 1012.589844 431.859375 L 926.734375 386.566406 "/>
<path style=" stroke:none;fill-rule:nonzero;fill:rgb(98.823529%,81.960784%,8.627451%);fill-opacity:1;" d="M 1331.601562 266.515625 L 926.496094 330.132812 L 946.640625 410.089844 "/>
<path style=" stroke:none;fill-rule:nonzero;fill:rgb(98.823529%,81.960784%,8.627451%);fill-opacity:1;" d="M 1331.601562 266.515625 L 988.167969 447.679688 L 930.800781 379.898438 "/>
<path style=" stroke:none;fill-rule:nonzero;fill:rgb(98.823529%,81.960784%,8.627451%);fill-opacity:1;" d="M 1363.042969 391.304688 L 957.9375 327.6875 L 937.792969 407.644531 "/>
<path style=" stroke:none;fill-rule:nonzero;fill:rgb(98.823529%,81.960784%,8.627451%);fill-opacity:1;" d="M 1363.042969 391.304688 L 957.9375 454.921875 L 937.792969 374.964844 "/>
<path style=" stroke:none;fill-rule:nonzero;fill:rgb(0%,44.705882%,77.647059%);fill-opacity:1;" d="M 0 391.304688 L 1900 391.304688 L 1900 608.695312 L 0 608.695312 Z M 0 391.304688 "/>
<path style=" stroke:none;fill-rule:nonzero;fill:rgb(80.784314%,6.666667%,14.901961%);fill-opacity:1;" d="M 0 0 L 0 1000 L 1900 1000 L 1900 0 L 950 1000 Z M 0 0 "/>
</g>
</svg>
