<?xml version="1.0" encoding="UTF-8"?>
<svg xmlns="http://www.w3.org/2000/svg" xmlns:xlink="http://www.w3.org/1999/xlink" width="1900pt" height="1000pt" viewBox="0 0 1900 1000" version="1.1">
<g id="surface1">
<rect x="0" y="0" width="1900" height="1000" style="fill:rgb(7.058824%,67.843137%,16.862745%);fill-opacity:1;stroke:none;"/>
<path style=" stroke:none;fill-rule:nonzero;fill:rgb(100%,80.784314%,0%);fill-opacity:1;" d="M 0 285.714844 L 1900 285.714844 L 1900 714.285156 L 0 714.285156 Z M 0 285.714844 "/>
<path style=" stroke:none;fill-rule:nonzero;fill:rgb(82.352941%,6.27451%,20.392157%);fill-opacity:1;" d="M 0 0 L 0 1000 L 475 500 "/>
<path style=" stroke:none;fill-rule:nonzero;fill:rgb(0%,0%,0%);fill-opacity:1;" d="M 950 357.144531 L 908.0625 493.007812 L 972.597656 515.082031 "/>
<path style=" stroke:none;fill-rule:nonzero;fill:rgb(0%,0%,0%);fill-opacity:1;" d="M 950 357.144531 L 991.9375 493.007812 L 927.402344 515.082031 "/>
<path style=" stroke:none;fill-rule:nonzero;fill:rgb(0%,0%,0%);fill-opacity:1;" d="M 1079.070312 455.855469 L 943.359375 455.855469 L 943.359375 527.285156 "/>
<path style=" stroke:none;fill-rule:nonzero;fill:rgb(0%,0%,0%);fill-opacity:1;" d="M 1079.070312 455.855469 L 969.277344 539.824219 L 929.390625 482.035156 "/>
<path style=" stroke:none;fill-rule:nonzero;fill:rgb(0%,0%,0%);fill-opacity:1;" d="M 1029.769531 615.574219 L 987.832031 479.707031 L 923.296875 501.78125 "/>
<path style=" stroke:none;fill-rule:nonzero;fill:rgb(0%,0%,0%);fill-opacity:1;" d="M 1029.769531 615.574219 L 919.976562 531.605469 L 959.859375 473.816406 "/>
<path style=" stroke:none;fill-rule:nonzero;fill:rgb(0%,0%,0%);fill-opacity:1;" d="M 870.230469 615.574219 L 980.023438 531.605469 L 940.140625 473.816406 "/>
<path style=" stroke:none;fill-rule:nonzero;fill:rgb(0%,0%,0%);fill-opacity:1;" d="M 870.230469 615.574219 L 912.167969 479.707031 L 976.703125 501.78125 "/>
<path style=" stroke:none;fill-rule:nonzero;fill:rgb(0%,0%,0%);fill-opacity:1;" d="M 820.929688 455.855469 L 930.722656 539.824219 L 970.609375 482.035156 "/>
<path style=" stroke:none;fill-rule:nonzero;fill:rgb(0%,0%,0%);fill-opacity:1;" d="M 820.929688 455.855469 L 956.640625 455.855469 L 956.640625 527.285156 "/>
<path style=" stroke:none;fill-rule:nonzero;fill:rgb(0%,0%,0%);fill-opacity:1;" d="M 1425 357.144531 L 1383.0625 493.007812 L 1447.597656 515.082031 "/>
<path style=" stroke:none;fill-rule:nonzero;fill:rgb(0%,0%,0%);fill-opacity:1;" d="M 1425 357.144531 L 1466.9375 493.007812 L 1402.402344 515.082031 "/>
<path style=" stroke:none;fill-rule:nonzero;fill:rgb(0%,0%,0%);fill-opacity:1;" d="M 1554.070312 455.855469 L 1418.359375 455.855469 L 1418.359375 527.285156 "/>
<path style=" stroke:none;fill-rule:nonzero;fill:rgb(0%,0%,0%);fill-opacity:1;" d="M 1554.070312 455.855469 L 1444.277344 539.824219 L 1404.390625 482.035156 "/>
<path style=" stroke:none;fill-rule:nonzero;fill:rgb(0%,0%,0%);fill-opacity:1;" d="M 1504.769531 615.574219 L 1462.832031 479.707031 L 1398.296875 501.78125 "/>
<path style=" stroke:none;fill-rule:nonzero;fill:rgb(0%,0%,0%);fill-opacity:1;" d="M 1504.769531 615.574219 L 1394.976562 531.605469 L 1434.859375 473.816406 "/>
<path style=" stroke:none;fill-rule:nonzero;fill:rgb(0%,0%,0%);fill-opacity:1;" d="M 1345.230469 615.574219 L 1455.023438 531.605469 L 1415.140625 473.816406 "/>
<path style=" stroke:none;fill-rule:nonzero;fill:rgb(0%,0%,0%);fill-opacity:1;" d="M 1345.230469 615.574219 L 1387.167969 479.707031 L 1451.703125 501.78125 "/>
<path style=" stroke:none;fill-rule:nonzero;fill:rgb(0%,0%,0%);fill-opacity:1;" d="M 1295.929688 455.855469 L 1405.722656 539.824219 L 1445.609375 482.035156 "/>
<path style=" stroke:none;fill-rule:nonzero;fill:rgb(0%,0%,0%);fill-opacity:1;" d="M 1295.929688 455.855469 L 1431.640625 455.855469 L 1431.640625 527.285156 "/>
</g>
</svg>
