<?xml version="1.0" encoding="UTF-8"?>
<svg xmlns="http://www.w3.org/2000/svg" xmlns:xlink="http://www.w3.org/1999/xlink" width="380pt" height="200pt" viewBox="0 0 1900 1000" version="1.1">
<g id="surface1">
<path style=" stroke:none;fill-rule:nonzero;fill:rgb(100%,80%,0%);fill-opacity:1;" d="M 0 0 L 1900 0 L 1900 350 L 0 350 Z M 0 0 "/>
<path style=" stroke:none;fill-rule:nonzero;fill:rgb(0%,14.117647%,49.019608%);fill-opacity:1;" d="M 0 333.332031 L 1900 333.332031 L 1900 683.332031 L 0 683.332031 Z M 0 333.332031 "/>
<path style=" stroke:none;fill-rule:nonzero;fill:rgb(81.176471%,7.843137%,16.862745%);fill-opacity:1;" d="M 0 666.667969 L 1900 666.667969 L 1900 1000 L 0 1000 Z M 0 666.667969 "/>
<path style=" stroke:none;fill-rule:nonzero;fill:rgb(100%,100%,100%);fill-opacity:1;" d="M 533.402344 580.292969 L 583.308594 611.074219 L 602.804688 591.375 "/>
<path style=" stroke:none;fill-rule:nonzero;fill:rgb(100%,100%,100%);fill-opacity:1;" d="M 533.402344 580.292969 L 596.699219 582.039062 L 595.59375 607.023438 "/>
<path style=" stroke:none;fill-rule:nonzero;fill:rgb(100%,100%,100%);fill-opacity:1;" d="M 595.128906 547.425781 L 573.464844 594.410156 L 603.222656 602.960938 "/>
<path style=" stroke:none;fill-rule:nonzero;fill:rgb(100%,100%,100%);fill-opacity:1;" d="M 595.128906 547.425781 L 612.585938 595.488281 L 582.144531 602.378906 "/>
<path style=" stroke:none;fill-rule:nonzero;fill:rgb(100%,100%,100%);fill-opacity:1;" d="M 653.796875 583.613281 L 590.503906 581.867188 L 589.398438 606.851562 "/>
<path style=" stroke:none;fill-rule:nonzero;fill:rgb(100%,100%,100%);fill-opacity:1;" d="M 653.796875 583.613281 L 601.289062 611.570312 L 583.582031 590.847656 "/>
<path style=" stroke:none;fill-rule:nonzero;fill:rgb(100%,100%,100%);fill-opacity:1;" d="M 628.332031 638.847656 L 610.875 590.78125 L 580.433594 597.671875 "/>
<path style=" stroke:none;fill-rule:nonzero;fill:rgb(100%,100%,100%);fill-opacity:1;" d="M 628.332031 638.847656 L 578.425781 608.0625 L 597.921875 588.363281 "/>
<path style=" stroke:none;fill-rule:nonzero;fill:rgb(100%,100%,100%);fill-opacity:1;" d="M 553.925781 636.792969 L 606.429688 608.835938 L 588.722656 588.109375 "/>
<path style=" stroke:none;fill-rule:nonzero;fill:rgb(100%,100%,100%);fill-opacity:1;" d="M 553.925781 636.792969 L 575.585938 589.808594 L 605.34375 598.359375 "/>
<path style=" stroke:none;fill-rule:nonzero;fill:rgb(100%,100%,100%);fill-opacity:1;" d="M 610.386719 475.023438 L 643.949219 517.425781 L 670.804688 504.179688 "/>
<path style=" stroke:none;fill-rule:nonzero;fill:rgb(100%,100%,100%);fill-opacity:1;" d="M 610.386719 475.023438 L 669.109375 493.753906 L 657.246094 516.933594 "/>
<path style=" stroke:none;fill-rule:nonzero;fill:rgb(100%,100%,100%);fill-opacity:1;" d="M 682.628906 460.804688 L 641.917969 499.105469 L 666.175781 515.175781 "/>
<path style=" stroke:none;fill-rule:nonzero;fill:rgb(100%,100%,100%);fill-opacity:1;" d="M 682.628906 460.804688 L 678.210938 510.683594 L 646.621094 508.9375 "/>
<path style=" stroke:none;fill-rule:nonzero;fill:rgb(100%,100%,100%);fill-opacity:1;" d="M 722.082031 510.652344 L 663.359375 491.921875 L 651.496094 515.101562 "/>
<path style=" stroke:none;fill-rule:nonzero;fill:rgb(100%,100%,100%);fill-opacity:1;" d="M 722.082031 510.652344 L 660.628906 522.746094 L 652.96875 498.492188 "/>
<path style=" stroke:none;fill-rule:nonzero;fill:rgb(100%,100%,100%);fill-opacity:1;" d="M 674.226562 555.679688 L 678.644531 505.800781 L 647.054688 504.054688 "/>
<path style=" stroke:none;fill-rule:nonzero;fill:rgb(100%,100%,100%);fill-opacity:1;" d="M 674.226562 555.679688 L 640.664062 513.277344 L 667.519531 500.027344 "/>
<path style=" stroke:none;fill-rule:nonzero;fill:rgb(100%,100%,100%);fill-opacity:1;" d="M 605.195312 533.660156 L 666.644531 521.5625 L 658.984375 497.304688 "/>
<path style=" stroke:none;fill-rule:nonzero;fill:rgb(100%,100%,100%);fill-opacity:1;" d="M 605.195312 533.660156 L 645.902344 495.359375 L 670.160156 511.425781 "/>
<path style=" stroke:none;fill-rule:nonzero;fill:rgb(100%,100%,100%);fill-opacity:1;" d="M 728.332031 396.890625 L 741.5 445.796875 L 772.476562 440.601562 "/>
<path style=" stroke:none;fill-rule:nonzero;fill:rgb(100%,100%,100%);fill-opacity:1;" d="M 728.332031 396.890625 L 775.398438 430.347656 L 754.210938 448.925781 "/>
<path style=" stroke:none;fill-rule:nonzero;fill:rgb(100%,100%,100%);fill-opacity:1;" d="M 802.378906 403.035156 L 747.53125 428.035156 L 763.363281 449.6875 "/>
<path style=" stroke:none;fill-rule:nonzero;fill:rgb(100%,100%,100%);fill-opacity:1;" d="M 802.378906 403.035156 L 776.617188 448.710938 L 747.6875 438.542969 "/>
<path style=" stroke:none;fill-rule:nonzero;fill:rgb(100%,100%,100%);fill-opacity:1;" d="M 817.859375 460.527344 L 770.792969 427.074219 L 749.601562 445.652344 "/>
<path style=" stroke:none;fill-rule:nonzero;fill:rgb(100%,100%,100%);fill-opacity:1;" d="M 817.859375 460.527344 L 754.871094 455.304688 L 758.179688 430.441406 "/>
<path style=" stroke:none;fill-rule:nonzero;fill:rgb(100%,100%,100%);fill-opacity:1;" d="M 753.378906 489.917969 L 779.140625 444.242188 L 750.210938 434.074219 "/>
<path style=" stroke:none;fill-rule:nonzero;fill:rgb(100%,100%,100%);fill-opacity:1;" d="M 753.378906 489.917969 L 740.210938 441.011719 L 771.1875 435.8125 "/>
<path style=" stroke:none;fill-rule:nonzero;fill:rgb(100%,100%,100%);fill-opacity:1;" d="M 698.050781 450.589844 L 761.035156 455.8125 L 764.347656 430.953125 "/>
<path style=" stroke:none;fill-rule:nonzero;fill:rgb(100%,100%,100%);fill-opacity:1;" d="M 698.050781 450.589844 L 752.898438 425.589844 L 768.730469 447.238281 "/>
<path style=" stroke:none;fill-rule:nonzero;fill:rgb(100%,100%,100%);fill-opacity:1;" d="M 873.015625 355.316406 L 864.203125 404.832031 L 895.558594 408.308594 "/>
<path style=" stroke:none;fill-rule:nonzero;fill:rgb(100%,100%,100%);fill-opacity:1;" d="M 873.015625 355.316406 L 902.75 399.464844 L 874.789062 411.203125 "/>
<path style=" stroke:none;fill-rule:nonzero;fill:rgb(100%,100%,100%);fill-opacity:1;" d="M 939.933594 381.085938 L 877.5625 389.765625 L 883.0625 414.386719 "/>
<path style=" stroke:none;fill-rule:nonzero;fill:rgb(100%,100%,100%);fill-opacity:1;" d="M 939.933594 381.085938 L 895.9375 417.050781 L 873.160156 399.683594 "/>
<path style=" stroke:none;fill-rule:nonzero;fill:rgb(100%,100%,100%);fill-opacity:1;" d="M 929.570312 439.289062 L 899.839844 395.144531 L 871.878906 406.878906 "/>
<path style=" stroke:none;fill-rule:nonzero;fill:rgb(100%,100%,100%);fill-opacity:1;" d="M 929.570312 439.289062 L 872.648438 417.371094 L 886.53125 394.902344 "/>
<path style=" stroke:none;fill-rule:nonzero;fill:rgb(100%,100%,100%);fill-opacity:1;" d="M 856.25 449.496094 L 900.246094 413.53125 L 877.464844 396.164062 "/>
<path style=" stroke:none;fill-rule:nonzero;fill:rgb(100%,100%,100%);fill-opacity:1;" d="M 856.25 449.496094 L 865.066406 399.984375 L 896.421875 403.464844 "/>
<path style=" stroke:none;fill-rule:nonzero;fill:rgb(100%,100%,100%);fill-opacity:1;" d="M 821.296875 397.597656 L 878.21875 419.515625 L 892.101562 397.046875 "/>
<path style=" stroke:none;fill-rule:nonzero;fill:rgb(100%,100%,100%);fill-opacity:1;" d="M 821.296875 397.597656 L 883.667969 388.917969 L 889.167969 413.535156 "/>
<path style=" stroke:none;fill-rule:nonzero;fill:rgb(100%,100%,100%);fill-opacity:1;" d="M 1026.984375 355.316406 L 997.25 399.464844 L 1025.210938 411.203125 "/>
<path style=" stroke:none;fill-rule:nonzero;fill:rgb(100%,100%,100%);fill-opacity:1;" d="M 1026.984375 355.316406 L 1035.796875 404.832031 L 1004.441406 408.308594 "/>
<path style=" stroke:none;fill-rule:nonzero;fill:rgb(100%,100%,100%);fill-opacity:1;" d="M 1078.703125 397.597656 L 1016.332031 388.917969 L 1010.832031 413.535156 "/>
<path style=" stroke:none;fill-rule:nonzero;fill:rgb(100%,100%,100%);fill-opacity:1;" d="M 1078.703125 397.597656 L 1021.78125 419.515625 L 1007.898438 397.046875 "/>
<path style=" stroke:none;fill-rule:nonzero;fill:rgb(100%,100%,100%);fill-opacity:1;" d="M 1043.75 449.496094 L 1034.933594 399.984375 L 1003.578125 403.464844 "/>
<path style=" stroke:none;fill-rule:nonzero;fill:rgb(100%,100%,100%);fill-opacity:1;" d="M 1043.75 449.496094 L 999.753906 413.53125 L 1022.535156 396.164062 "/>
<path style=" stroke:none;fill-rule:nonzero;fill:rgb(100%,100%,100%);fill-opacity:1;" d="M 970.429688 439.289062 L 1027.351562 417.371094 L 1013.46875 394.902344 "/>
<path style=" stroke:none;fill-rule:nonzero;fill:rgb(100%,100%,100%);fill-opacity:1;" d="M 970.429688 439.289062 L 1000.160156 395.144531 L 1028.121094 406.878906 "/>
<path style=" stroke:none;fill-rule:nonzero;fill:rgb(100%,100%,100%);fill-opacity:1;" d="M 960.066406 381.085938 L 1004.0625 417.050781 L 1026.839844 399.683594 "/>
<path style=" stroke:none;fill-rule:nonzero;fill:rgb(100%,100%,100%);fill-opacity:1;" d="M 960.066406 381.085938 L 1022.4375 389.765625 L 1016.9375 414.386719 "/>
<path style=" stroke:none;fill-rule:nonzero;fill:rgb(100%,100%,100%);fill-opacity:1;" d="M 1171.667969 396.890625 L 1124.601562 430.347656 L 1145.789062 448.925781 "/>
<path style=" stroke:none;fill-rule:nonzero;fill:rgb(100%,100%,100%);fill-opacity:1;" d="M 1171.667969 396.890625 L 1158.5 445.796875 L 1127.523438 440.601562 "/>
<path style=" stroke:none;fill-rule:nonzero;fill:rgb(100%,100%,100%);fill-opacity:1;" d="M 1201.949219 450.589844 L 1147.101562 425.589844 L 1131.269531 447.238281 "/>
<path style=" stroke:none;fill-rule:nonzero;fill:rgb(100%,100%,100%);fill-opacity:1;" d="M 1201.949219 450.589844 L 1138.964844 455.8125 L 1135.652344 430.953125 "/>
<path style=" stroke:none;fill-rule:nonzero;fill:rgb(100%,100%,100%);fill-opacity:1;" d="M 1146.621094 489.917969 L 1159.789062 441.011719 L 1128.8125 435.8125 "/>
<path style=" stroke:none;fill-rule:nonzero;fill:rgb(100%,100%,100%);fill-opacity:1;" d="M 1146.621094 489.917969 L 1120.859375 444.242188 L 1149.789062 434.074219 "/>
<path style=" stroke:none;fill-rule:nonzero;fill:rgb(100%,100%,100%);fill-opacity:1;" d="M 1082.140625 460.527344 L 1145.128906 455.304688 L 1141.820312 430.441406 "/>
<path style=" stroke:none;fill-rule:nonzero;fill:rgb(100%,100%,100%);fill-opacity:1;" d="M 1082.140625 460.527344 L 1129.207031 427.074219 L 1150.398438 445.652344 "/>
<path style=" stroke:none;fill-rule:nonzero;fill:rgb(100%,100%,100%);fill-opacity:1;" d="M 1097.621094 403.035156 L 1123.382812 448.710938 L 1152.3125 438.542969 "/>
<path style=" stroke:none;fill-rule:nonzero;fill:rgb(100%,100%,100%);fill-opacity:1;" d="M 1097.621094 403.035156 L 1152.46875 428.035156 L 1136.636719 449.6875 "/>
<path style=" stroke:none;fill-rule:nonzero;fill:rgb(100%,100%,100%);fill-opacity:1;" d="M 1289.613281 475.023438 L 1230.890625 493.753906 L 1242.753906 516.933594 "/>
<path style=" stroke:none;fill-rule:nonzero;fill:rgb(100%,100%,100%);fill-opacity:1;" d="M 1289.613281 475.023438 L 1256.050781 517.425781 L 1229.195312 504.179688 "/>
<path style=" stroke:none;fill-rule:nonzero;fill:rgb(100%,100%,100%);fill-opacity:1;" d="M 1294.804688 533.660156 L 1254.097656 495.359375 L 1229.839844 511.425781 "/>
<path style=" stroke:none;fill-rule:nonzero;fill:rgb(100%,100%,100%);fill-opacity:1;" d="M 1294.804688 533.660156 L 1233.355469 521.5625 L 1241.015625 497.304688 "/>
<path style=" stroke:none;fill-rule:nonzero;fill:rgb(100%,100%,100%);fill-opacity:1;" d="M 1225.773438 555.679688 L 1259.335938 513.277344 L 1232.480469 500.027344 "/>
<path style=" stroke:none;fill-rule:nonzero;fill:rgb(100%,100%,100%);fill-opacity:1;" d="M 1225.773438 555.679688 L 1221.355469 505.800781 L 1252.945312 504.054688 "/>
<path style=" stroke:none;fill-rule:nonzero;fill:rgb(100%,100%,100%);fill-opacity:1;" d="M 1177.917969 510.652344 L 1239.371094 522.746094 L 1247.03125 498.492188 "/>
<path style=" stroke:none;fill-rule:nonzero;fill:rgb(100%,100%,100%);fill-opacity:1;" d="M 1177.917969 510.652344 L 1236.640625 491.921875 L 1248.503906 515.101562 "/>
<path style=" stroke:none;fill-rule:nonzero;fill:rgb(100%,100%,100%);fill-opacity:1;" d="M 1217.371094 460.804688 L 1221.789062 510.683594 L 1253.378906 508.9375 "/>
<path style=" stroke:none;fill-rule:nonzero;fill:rgb(100%,100%,100%);fill-opacity:1;" d="M 1217.371094 460.804688 L 1258.082031 499.105469 L 1233.824219 515.175781 "/>
<path style=" stroke:none;fill-rule:nonzero;fill:rgb(100%,100%,100%);fill-opacity:1;" d="M 1366.597656 580.292969 L 1303.300781 582.039062 L 1304.40625 607.023438 "/>
<path style=" stroke:none;fill-rule:nonzero;fill:rgb(100%,100%,100%);fill-opacity:1;" d="M 1366.597656 580.292969 L 1316.691406 611.074219 L 1297.195312 591.375 "/>
<path style=" stroke:none;fill-rule:nonzero;fill:rgb(100%,100%,100%);fill-opacity:1;" d="M 1346.074219 636.792969 L 1324.414062 589.808594 L 1294.65625 598.359375 "/>
<path style=" stroke:none;fill-rule:nonzero;fill:rgb(100%,100%,100%);fill-opacity:1;" d="M 1346.074219 636.792969 L 1293.570312 608.835938 L 1311.277344 588.109375 "/>
<path style=" stroke:none;fill-rule:nonzero;fill:rgb(100%,100%,100%);fill-opacity:1;" d="M 1271.667969 638.847656 L 1321.574219 608.0625 L 1302.078125 588.363281 "/>
<path style=" stroke:none;fill-rule:nonzero;fill:rgb(100%,100%,100%);fill-opacity:1;" d="M 1271.667969 638.847656 L 1289.125 590.78125 L 1319.566406 597.671875 "/>
<path style=" stroke:none;fill-rule:nonzero;fill:rgb(100%,100%,100%);fill-opacity:1;" d="M 1246.203125 583.613281 L 1298.710938 611.570312 L 1316.417969 590.847656 "/>
<path style=" stroke:none;fill-rule:nonzero;fill:rgb(100%,100%,100%);fill-opacity:1;" d="M 1246.203125 583.613281 L 1309.496094 581.867188 L 1310.601562 606.851562 "/>
<path style=" stroke:none;fill-rule:nonzero;fill:rgb(100%,100%,100%);fill-opacity:1;" d="M 1304.871094 547.425781 L 1287.414062 595.488281 L 1317.855469 602.378906 "/>
<path style=" stroke:none;fill-rule:nonzero;fill:rgb(100%,100%,100%);fill-opacity:1;" d="M 1304.871094 547.425781 L 1326.535156 594.410156 L 1296.777344 602.960938 "/>
</g>
</svg>
