<?xml version="1.0" encoding="UTF-8"?>
<svg xmlns="http://www.w3.org/2000/svg" xmlns:xlink="http://www.w3.org/1999/xlink" width="1900pt" height="1000pt" viewBox="0 0 1900 1000" version="1.1">
<g id="surface1">
<rect x="0" y="0" width="1900" height="1000" style="fill:rgb(0%,14.901961%,49.803922%);fill-opacity:1;stroke:none;"/>
<path style=" stroke:none;fill-rule:nonzero;fill:rgb(100%,78.039216%,14.901961%);fill-opacity:1;" d="M 633.332031 0 L 1266.667969 0 L 1266.667969 1000 L 633.332031 1000 Z M 633.332031 0 "/>
<path style=" stroke:none;fill-rule:nonzero;fill:rgb(0%,0%,0%);fill-opacity:1;" d="M 950 257.75 C 929.417969 302.0625 908.4375 348.1875 863.550781 383.5 C 877.484375 379.875 901.867188 376.625 917.542969 376.9375 L 917.542969 563.3125 L 850.882812 571.125 C 848.507812 570.9375 847.714844 568 847.714844 564 C 841.304688 506.125 823.964844 457.5 804.015625 407.1875 C 802.589844 400.3125 777.335938 374.0625 796.8125 378.6875 C 799.1875 378.9375 825.234375 387.3125 821.117188 383.3125 C 785.648438 354.3125 733.796875 333.4375 683.445312 327.25 C 679.011719 326.375 676.398438 328.125 680.359375 332.1875 C 747.175781 413.375 803.066406 509.1875 802.589844 622.875 C 828.558594 622.875 891.496094 610.75 917.542969 610.75 C 917.542969 610.75 917.542969 742.25 917.542969 742.25 L 950.394531 742.25 L 957.917969 375 Z M 950 257.75 "/>
<path style=" stroke:none;fill-rule:nonzero;fill:rgb(0%,0%,0%);fill-opacity:1;" d="M 950 257.75 C 970.582031 302.0625 991.5625 348.1875 1036.449219 383.5 C 1022.515625 379.875 998.132812 376.625 982.457031 376.9375 L 982.457031 563.3125 L 1049.117188 571.125 C 1051.492188 570.9375 1052.285156 568 1052.285156 564 C 1058.695312 506.125 1076.035156 457.5 1095.984375 407.1875 C 1097.410156 400.3125 1122.664062 374.0625 1103.1875 378.6875 C 1100.8125 378.9375 1074.765625 387.3125 1078.882812 383.3125 C 1114.351562 354.3125 1166.203125 333.4375 1216.554688 327.25 C 1220.988281 326.375 1223.601562 328.125 1219.640625 332.1875 C 1152.824219 413.375 1096.933594 509.1875 1097.410156 622.875 C 1071.441406 622.875 1008.503906 610.75 982.457031 610.75 C 982.457031 610.75 982.457031 742.25 982.457031 742.25 L 949.605469 742.25 L 942.082031 375 Z M 950 257.75 "/>
</g>
</svg>
