<?xml version="1.0" encoding="UTF-8"?>
<svg xmlns="http://www.w3.org/2000/svg" xmlns:xlink="http://www.w3.org/1999/xlink" width="1900pt" height="1000pt" viewBox="0 0 1900 1000" version="1.1">
<defs>
<clipPath id="clip1">
  <path d="M 867 409 L 1104 409 L 1104 630 L 867 630 Z M 867 409 "/>
</clipPath>
<clipPath id="clip2">
  <path d="M 1106.855469 491.175781 C 1106.855469 567.367188 1037.207031 629.136719 951.292969 629.136719 C 865.375 629.136719 795.726562 567.367188 795.726562 491.175781 C 795.726562 414.984375 865.375 353.21875 951.292969 353.21875 C 1037.207031 353.21875 1106.855469 414.984375 1106.855469 491.175781 Z M 1106.855469 491.175781 "/>
</clipPath>
<clipPath id="clip3">
  <path d="M 832 396 L 1084 396 L 1084 630 L 832 630 Z M 832 396 "/>
</clipPath>
<clipPath id="clip4">
  <path d="M 1106.855469 491.175781 C 1106.855469 567.367188 1037.207031 629.136719 951.292969 629.136719 C 865.375 629.136719 795.726562 567.367188 795.726562 491.175781 C 795.726562 414.984375 865.375 353.21875 951.292969 353.21875 C 1037.207031 353.21875 1106.855469 414.984375 1106.855469 491.175781 Z M 1106.855469 491.175781 "/>
</clipPath>
<clipPath id="clip5">
  <path d="M 795 381 L 1063 381 L 1063 630 L 795 630 Z M 795 381 "/>
</clipPath>
<clipPath id="clip6">
  <path d="M 1106.855469 491.175781 C 1106.855469 567.367188 1037.207031 629.136719 951.292969 629.136719 C 865.375 629.136719 795.726562 567.367188 795.726562 491.175781 C 795.726562 414.984375 865.375 353.21875 951.292969 353.21875 C 1037.207031 353.21875 1106.855469 414.984375 1106.855469 491.175781 Z M 1106.855469 491.175781 "/>
</clipPath>
<clipPath id="clip7">
  <path d="M 799 409 L 1035 409 L 1035 630 L 799 630 Z M 799 409 "/>
</clipPath>
<clipPath id="clip8">
  <path d="M 1106.855469 491.175781 C 1106.855469 567.367188 1037.207031 629.136719 951.292969 629.136719 C 865.375 629.136719 795.726562 567.367188 795.726562 491.175781 C 795.726562 414.984375 865.375 353.21875 951.292969 353.21875 C 1037.207031 353.21875 1106.855469 414.984375 1106.855469 491.175781 Z M 1106.855469 491.175781 "/>
</clipPath>
<clipPath id="clip9">
  <path d="M 819 396 L 1071 396 L 1071 630 L 819 630 Z M 819 396 "/>
</clipPath>
<clipPath id="clip10">
  <path d="M 1106.855469 491.175781 C 1106.855469 567.367188 1037.207031 629.136719 951.292969 629.136719 C 865.375 629.136719 795.726562 567.367188 795.726562 491.175781 C 795.726562 414.984375 865.375 353.21875 951.292969 353.21875 C 1037.207031 353.21875 1106.855469 414.984375 1106.855469 491.175781 Z M 1106.855469 491.175781 "/>
</clipPath>
<clipPath id="clip11">
  <path d="M 839 381 L 1107 381 L 1107 630 L 839 630 Z M 839 381 "/>
</clipPath>
<clipPath id="clip12">
  <path d="M 1106.855469 491.175781 C 1106.855469 567.367188 1037.207031 629.136719 951.292969 629.136719 C 865.375 629.136719 795.726562 567.367188 795.726562 491.175781 C 795.726562 414.984375 865.375 353.21875 951.292969 353.21875 C 1037.207031 353.21875 1106.855469 414.984375 1106.855469 491.175781 Z M 1106.855469 491.175781 "/>
</clipPath>
</defs>
<g id="surface1">
<rect x="0" y="0" width="1900" height="1000" style="fill:rgb(90.980392%,6.666667%,17.647059%);fill-opacity:1;stroke:none;"/>
<path style=" stroke:none;fill-rule:nonzero;fill:rgb(100%,93.72549%,0%);fill-opacity:1;" d="M 967.25 321.007812 C 951.292969 284.34375 985.492188 227.675781 951.292969 201.007812 C 962.691406 241.007812 924.691406 284.34375 935.332031 321.007812 C 945.972656 357.675781 983.210938 357.675781 967.25 321.007812 Z M 967.25 321.007812 "/>
<path style=" stroke:none;fill-rule:nonzero;fill:rgb(100%,93.72549%,0%);fill-opacity:1;" d="M 999.15625 325.414062 C 989.929688 287.007812 1033.816406 235.734375 1004.792969 204.703125 C 1008.917969 245.773438 963.660156 283.359375 967.628906 321.035156 C 971.597656 358.710938 1008.378906 363.820312 999.15625 325.414062 Z M 999.15625 325.414062 "/>
<path style=" stroke:none;fill-rule:nonzero;fill:rgb(100%,93.72549%,0%);fill-opacity:1;" d="M 1029.882812 334.144531 C 1027.617188 294.945312 1080.109375 250.324219 1056.976562 215.691406 C 1053.726562 256.824219 1002.320312 287.734375 999.523438 325.492188 C 996.726562 363.25 1032.144531 373.34375 1029.882812 334.144531 Z M 1029.882812 334.144531 "/>
<path style=" stroke:none;fill-rule:nonzero;fill:rgb(100%,93.72549%,0%);fill-opacity:1;" d="M 1058.671875 346.984375 C 1063.425781 307.957031 1123.226562 271.085938 1106.554688 233.707031 C 1096.011719 273.886719 1039.726562 297.363281 1030.230469 334.273438 C 1020.734375 371.179688 1053.914062 386.007812 1058.671875 346.984375 Z M 1058.671875 346.984375 "/>
<path style=" stroke:none;fill-rule:nonzero;fill:rgb(100%,93.72549%,0%);fill-opacity:1;" d="M 1084.816406 363.613281 C 1096.476562 325.722656 1162.113281 297.511719 1152.3125 258.304688 C 1134.734375 296.542969 1074.953125 312.007812 1058.992188 347.15625 C 1043.03125 382.304688 1073.160156 401.507812 1084.816406 363.613281 Z M 1084.816406 363.613281 "/>
<path style=" stroke:none;fill-rule:nonzero;fill:rgb(100%,93.72549%,0%);fill-opacity:1;" d="M 1107.675781 383.628906 C 1125.945312 347.800781 1195.808594 328.945312 1193.121094 288.875 C 1168.9375 324.230469 1107.136719 331.304688 1085.105469 363.828125 C 1063.070312 396.355469 1089.402344 419.457031 1107.675781 383.628906 Z M 1107.675781 383.628906 "/>
<path style=" stroke:none;fill-rule:nonzero;fill:rgb(100%,93.72549%,0%);fill-opacity:1;" d="M 1126.683594 406.535156 C 1151.117188 373.65625 1223.484375 364.617188 1227.976562 324.671875 C 1197.785156 356.273438 1135.484375 354.777344 1107.921875 383.882812 C 1080.359375 412.984375 1102.246094 439.410156 1126.683594 406.535156 Z M 1126.683594 406.535156 "/>
<path style=" stroke:none;fill-rule:nonzero;fill:rgb(100%,93.72549%,0%);fill-opacity:1;" d="M 1141.371094 431.765625 C 1171.371094 402.644531 1244.457031 403.648438 1256.015625 364.8125 C 1220.5625 391.882812 1159.292969 381.855469 1126.878906 406.816406 C 1094.46875 431.777344 1111.375 460.886719 1141.371094 431.765625 Z M 1141.371094 431.765625 "/>
<path style=" stroke:none;fill-rule:nonzero;fill:rgb(100%,93.72549%,0%);fill-opacity:1;" d="M 1151.378906 458.699219 C 1186.203125 434.054688 1258.210938 445.074219 1276.554688 408.304688 C 1236.707031 430.175781 1177.984375 411.863281 1141.515625 432.070312 C 1105.050781 452.277344 1116.558594 483.347656 1151.378906 458.699219 Z M 1151.378906 458.699219 "/>
<path style=" stroke:none;fill-rule:nonzero;fill:rgb(100%,93.72549%,0%);fill-opacity:1;" d="M 1156.460938 486.679688 C 1195.25 467.113281 1264.40625 487.878906 1289.082031 454.078125 C 1245.824219 470.210938 1191.089844 444.070312 1151.46875 459.023438 C 1111.847656 473.976562 1117.671875 506.242188 1156.460938 486.679688 Z M 1156.460938 486.679688 "/>
<path style=" stroke:none;fill-rule:nonzero;fill:rgb(100%,93.72549%,0%);fill-opacity:1;" d="M 1156.492188 515.007812 C 1198.292969 501.007812 1262.890625 531.007812 1293.292969 501.007812 C 1247.691406 511.007812 1198.292969 477.675781 1156.492188 487.007812 C 1114.691406 496.34375 1114.691406 529.007812 1156.492188 515.007812 Z M 1156.492188 515.007812 "/>
<path style=" stroke:none;fill-rule:nonzero;fill:rgb(100%,93.72549%,0%);fill-opacity:1;" d="M 1151.46875 542.996094 C 1195.25 534.902344 1253.707031 573.398438 1289.082031 547.9375 C 1242.257812 551.558594 1199.410156 511.855469 1156.460938 515.339844 C 1113.511719 518.820312 1107.6875 551.085938 1151.46875 542.996094 Z M 1151.46875 542.996094 "/>
<path style=" stroke:none;fill-rule:nonzero;fill:rgb(100%,93.72549%,0%);fill-opacity:1;" d="M 1141.515625 569.945312 C 1186.203125 567.960938 1237.074219 614.003906 1276.554688 593.714844 C 1229.664062 590.863281 1194.421875 545.769531 1151.378906 543.316406 C 1108.339844 540.863281 1096.832031 571.929688 1141.515625 569.945312 Z M 1141.515625 569.945312 "/>
<path style=" stroke:none;fill-rule:nonzero;fill:rgb(100%,93.72549%,0%);fill-opacity:1;" d="M 1126.878906 595.199219 C 1171.371094 599.375 1213.402344 651.828125 1256.015625 637.207031 C 1210.210938 627.957031 1183.445312 578.582031 1141.371094 570.253906 C 1099.296875 561.921875 1082.390625 591.027344 1126.878906 595.199219 Z M 1126.878906 595.199219 "/>
<path style=" stroke:none;fill-rule:nonzero;fill:rgb(100%,93.72549%,0%);fill-opacity:1;" d="M 1107.921875 618.136719 C 1151.117188 628.363281 1183.28125 685.941406 1227.976562 677.34375 C 1184.382812 661.921875 1166.753906 609.484375 1126.683594 595.484375 C 1086.613281 581.484375 1064.722656 607.910156 1107.921875 618.136719 Z M 1107.921875 618.136719 "/>
<path style=" stroke:none;fill-rule:nonzero;fill:rgb(100%,93.72549%,0%);fill-opacity:1;" d="M 1085.105469 638.1875 C 1125.945312 654.214844 1147.441406 715.496094 1193.121094 713.140625 C 1152.816406 691.925781 1144.757812 637.714844 1107.675781 618.386719 C 1070.59375 599.0625 1044.261719 622.160156 1085.105469 638.1875 Z M 1085.105469 638.1875 "/>
<path style=" stroke:none;fill-rule:nonzero;fill:rgb(100%,93.72549%,0%);fill-opacity:1;" d="M 1058.992188 654.859375 C 1096.476562 676.296875 1106.777344 739.773438 1152.3125 743.714844 C 1116.289062 717.230469 1117.996094 662.582031 1084.816406 638.402344 C 1051.640625 614.226562 1021.511719 633.425781 1058.992188 654.859375 Z M 1058.992188 654.859375 "/>
<path style=" stroke:none;fill-rule:nonzero;fill:rgb(100%,93.72549%,0%);fill-opacity:1;" d="M 1030.230469 667.746094 C 1063.425781 694.058594 1062.28125 758.171875 1106.554688 768.3125 C 1075.695312 737.210938 1087.128906 683.46875 1058.671875 655.035156 C 1030.214844 626.601562 997.03125 641.429688 1030.230469 667.746094 Z M 1030.230469 667.746094 "/>
<path style=" stroke:none;fill-rule:nonzero;fill:rgb(100%,93.72549%,0%);fill-opacity:1;" d="M 999.523438 676.523438 C 1027.617188 707.070312 1015.054688 770.234375 1056.976562 786.324219 C 1032.042969 751.375 1052.917969 699.859375 1029.882812 667.871094 C 1006.84375 635.882812 971.425781 645.980469 999.523438 676.523438 Z M 999.523438 676.523438 "/>
<path style=" stroke:none;fill-rule:nonzero;fill:rgb(100%,93.72549%,0%);fill-opacity:1;" d="M 967.628906 680.984375 C 989.929688 715.007812 966.257812 775.667969 1004.792969 797.316406 C 986.398438 759.371094 1016.203125 711.359375 999.15625 676.601562 C 982.109375 641.847656 945.328125 646.957031 967.628906 680.984375 Z M 967.628906 680.984375 "/>
<path style=" stroke:none;fill-rule:nonzero;fill:rgb(100%,93.72549%,0%);fill-opacity:1;" d="M 935.332031 681.007812 C 951.292969 717.675781 917.09375 774.34375 951.292969 801.007812 C 939.890625 761.007812 977.890625 717.675781 967.25 681.007812 C 956.613281 644.34375 919.371094 644.34375 935.332031 681.007812 Z M 935.332031 681.007812 "/>
<path style=" stroke:none;fill-rule:nonzero;fill:rgb(100%,93.72549%,0%);fill-opacity:1;" d="M 903.429688 676.601562 C 912.652344 715.007812 868.769531 766.285156 897.792969 797.316406 C 893.664062 756.242188 938.925781 718.65625 934.953125 680.984375 C 930.984375 643.308594 894.203125 638.195312 903.429688 676.601562 Z M 903.429688 676.601562 "/>
<path style=" stroke:none;fill-rule:nonzero;fill:rgb(100%,93.72549%,0%);fill-opacity:1;" d="M 872.703125 667.871094 C 874.964844 707.070312 822.476562 751.695312 845.609375 786.324219 C 848.855469 745.191406 900.261719 714.28125 903.058594 676.523438 C 905.859375 638.769531 870.441406 628.675781 872.703125 667.871094 Z M 872.703125 667.871094 "/>
<path style=" stroke:none;fill-rule:nonzero;fill:rgb(100%,93.72549%,0%);fill-opacity:1;" d="M 843.914062 655.035156 C 839.15625 694.058594 779.355469 730.929688 796.027344 768.3125 C 806.570312 728.128906 862.855469 704.652344 872.351562 667.746094 C 881.851562 630.839844 848.667969 616.007812 843.914062 655.035156 Z M 843.914062 655.035156 "/>
<path style=" stroke:none;fill-rule:nonzero;fill:rgb(100%,93.72549%,0%);fill-opacity:1;" d="M 817.765625 638.402344 C 806.109375 676.296875 740.46875 704.507812 750.269531 743.714844 C 767.847656 705.476562 827.628906 690.011719 843.589844 654.859375 C 859.550781 619.710938 829.425781 600.511719 817.765625 638.402344 Z M 817.765625 638.402344 "/>
<path style=" stroke:none;fill-rule:nonzero;fill:rgb(100%,93.72549%,0%);fill-opacity:1;" d="M 794.90625 618.386719 C 776.636719 654.214844 706.773438 673.070312 709.460938 713.140625 C 733.644531 677.785156 795.445312 670.714844 817.480469 638.1875 C 839.511719 605.660156 813.179688 582.5625 794.90625 618.386719 Z M 794.90625 618.386719 "/>
<path style=" stroke:none;fill-rule:nonzero;fill:rgb(100%,93.72549%,0%);fill-opacity:1;" d="M 775.902344 595.484375 C 751.464844 628.363281 679.101562 637.398438 674.609375 677.34375 C 704.796875 645.742188 767.101562 647.238281 794.664062 618.136719 C 822.226562 589.035156 800.335938 562.605469 775.902344 595.484375 Z M 775.902344 595.484375 "/>
<path style=" stroke:none;fill-rule:nonzero;fill:rgb(100%,93.72549%,0%);fill-opacity:1;" d="M 761.210938 570.253906 C 731.214844 599.375 658.128906 598.371094 646.566406 637.207031 C 682.023438 610.136719 743.289062 620.164062 775.703125 595.199219 C 808.117188 570.238281 791.210938 541.132812 761.210938 570.253906 Z M 761.210938 570.253906 "/>
<path style=" stroke:none;fill-rule:nonzero;fill:rgb(100%,93.72549%,0%);fill-opacity:1;" d="M 751.203125 543.316406 C 716.382812 567.960938 644.375 556.941406 626.03125 593.714844 C 665.875 571.84375 724.601562 590.152344 761.066406 569.945312 C 797.535156 549.738281 786.027344 518.671875 751.203125 543.316406 Z M 751.203125 543.316406 "/>
<path style=" stroke:none;fill-rule:nonzero;fill:rgb(100%,93.72549%,0%);fill-opacity:1;" d="M 746.121094 515.339844 C 707.332031 534.902344 638.179688 514.136719 613.503906 547.9375 C 656.757812 531.804688 711.492188 557.949219 751.113281 542.996094 C 790.734375 528.039062 784.910156 495.777344 746.121094 515.339844 Z M 746.121094 515.339844 "/>
<path style=" stroke:none;fill-rule:nonzero;fill:rgb(100%,93.72549%,0%);fill-opacity:1;" d="M 746.09375 487.007812 C 704.292969 501.007812 639.691406 471.007812 609.292969 501.007812 C 654.890625 491.007812 704.292969 524.34375 746.09375 515.007812 C 787.890625 505.675781 787.890625 473.007812 746.09375 487.007812 Z M 746.09375 487.007812 "/>
<path style=" stroke:none;fill-rule:nonzero;fill:rgb(100%,93.72549%,0%);fill-opacity:1;" d="M 751.113281 459.023438 C 707.332031 467.113281 648.878906 428.621094 613.503906 454.078125 C 660.324219 450.457031 703.171875 490.160156 746.121094 486.679688 C 789.070312 483.195312 794.898438 450.929688 751.113281 459.023438 Z M 751.113281 459.023438 "/>
<path style=" stroke:none;fill-rule:nonzero;fill:rgb(100%,93.72549%,0%);fill-opacity:1;" d="M 761.066406 432.070312 C 716.382812 434.054688 665.511719 388.011719 626.03125 408.304688 C 672.921875 411.152344 708.160156 456.246094 751.203125 458.699219 C 794.246094 461.15625 805.753906 430.085938 761.066406 432.070312 Z M 761.066406 432.070312 "/>
<path style=" stroke:none;fill-rule:nonzero;fill:rgb(100%,93.72549%,0%);fill-opacity:1;" d="M 775.703125 406.816406 C 731.214844 402.644531 689.179688 350.1875 646.566406 364.8125 C 692.371094 374.0625 719.136719 423.433594 761.210938 431.765625 C 803.285156 440.09375 820.191406 410.988281 775.703125 406.816406 Z M 775.703125 406.816406 "/>
<path style=" stroke:none;fill-rule:nonzero;fill:rgb(100%,93.72549%,0%);fill-opacity:1;" d="M 794.664062 383.882812 C 751.464844 373.65625 719.304688 316.078125 674.609375 324.671875 C 718.199219 340.09375 735.828125 392.53125 775.902344 406.535156 C 815.972656 420.535156 837.859375 394.105469 794.664062 383.882812 Z M 794.664062 383.882812 "/>
<path style=" stroke:none;fill-rule:nonzero;fill:rgb(100%,93.72549%,0%);fill-opacity:1;" d="M 817.480469 363.828125 C 776.636719 347.800781 755.140625 286.519531 709.460938 288.875 C 749.765625 310.089844 757.828125 364.300781 794.90625 383.628906 C 831.988281 402.957031 858.320312 379.859375 817.480469 363.828125 Z M 817.480469 363.828125 "/>
<path style=" stroke:none;fill-rule:nonzero;fill:rgb(100%,93.72549%,0%);fill-opacity:1;" d="M 843.589844 347.15625 C 806.109375 325.722656 795.804688 262.242188 750.269531 258.304688 C 786.296875 284.785156 784.589844 339.4375 817.765625 363.613281 C 850.945312 387.792969 881.070312 368.589844 843.589844 347.15625 Z M 843.589844 347.15625 "/>
<path style=" stroke:none;fill-rule:nonzero;fill:rgb(100%,93.72549%,0%);fill-opacity:1;" d="M 872.351562 334.273438 C 839.15625 307.957031 840.300781 243.847656 796.027344 233.707031 C 826.886719 264.808594 815.457031 318.550781 843.914062 346.984375 C 872.371094 375.417969 905.550781 360.585938 872.351562 334.273438 Z M 872.351562 334.273438 "/>
<path style=" stroke:none;fill-rule:nonzero;fill:rgb(100%,93.72549%,0%);fill-opacity:1;" d="M 903.058594 325.492188 C 874.964844 294.945312 887.527344 231.78125 845.609375 215.691406 C 870.542969 250.644531 849.667969 302.15625 872.703125 334.144531 C 895.738281 366.132812 931.15625 356.039062 903.058594 325.492188 Z M 903.058594 325.492188 "/>
<path style=" stroke:none;fill-rule:nonzero;fill:rgb(100%,93.72549%,0%);fill-opacity:1;" d="M 934.953125 321.035156 C 912.652344 287.007812 936.324219 226.347656 897.792969 204.703125 C 916.183594 242.644531 886.378906 290.660156 903.429688 325.414062 C 920.476562 360.171875 957.257812 355.058594 934.953125 321.035156 Z M 934.953125 321.035156 "/>
<path style=" stroke:none;fill-rule:nonzero;fill:rgb(90.980392%,6.666667%,17.647059%);fill-opacity:1;" d="M 1156.492188 501.007812 C 1156.492188 600.421875 1064.621094 681.007812 951.292969 681.007812 C 837.964844 681.007812 746.09375 600.421875 746.09375 501.007812 C 746.09375 401.597656 837.964844 321.007812 951.292969 321.007812 C 1064.621094 321.007812 1156.492188 401.597656 1156.492188 501.007812 Z M 1156.492188 501.007812 "/>
<path style="fill:none;stroke-width:8;stroke-linecap:round;stroke-linejoin:round;stroke:rgb(100%,93.72549%,0%);stroke-opacity:1;stroke-miterlimit:4;" d="M -158.958554 112.063752 C -158.953293 133.50936 -176.337931 150.897019 -197.783493 150.897019 C -219.229807 150.897019 -236.613693 133.50936 -236.609183 112.063752 C -236.613693 90.617288 -219.229807 73.229629 -197.783493 73.229629 C -176.337931 73.229629 -158.953293 90.617288 -158.958554 112.063752 Z M -158.958554 112.063752 " transform="matrix(5.197207,0,0,4.558954,1979.433509,-12.58486)"/>
<path style=" stroke:none;fill-rule:nonzero;fill:rgb(100%,93.72549%,0%);fill-opacity:1;" d="M 1103.472656 491.175781 C 1103.472656 565.710938 1035.339844 626.136719 951.292969 626.136719 C 867.242188 626.136719 799.109375 565.710938 799.109375 491.175781 C 799.109375 416.640625 867.242188 356.214844 951.292969 356.214844 C 1035.339844 356.214844 1103.472656 416.640625 1103.472656 491.175781 Z M 1103.472656 491.175781 "/>
<g clip-path="url(#clip1)" clip-rule="nonzero">
<g clip-path="url(#clip2)" clip-rule="nonzero">
<path style=" stroke:none;fill-rule:nonzero;fill:rgb(90.980392%,6.666667%,17.647059%);fill-opacity:1;" d="M 1103.472656 417.277344 C 984.613281 417.277344 888.257812 502.730469 888.257812 608.140625 C 888.257812 713.550781 984.613281 799.003906 1103.472656 799.003906 L 1091.300781 806.394531 C 967.832031 806.394531 867.746094 717.632812 867.746094 608.140625 C 867.746094 498.648438 967.832031 409.886719 1091.300781 409.886719 Z M 1103.472656 417.277344 "/>
</g>
</g>
<g clip-path="url(#clip3)" clip-rule="nonzero">
<g clip-path="url(#clip4)" clip-rule="nonzero">
<path style=" stroke:none;fill-rule:nonzero;fill:rgb(90.980392%,6.666667%,17.647059%);fill-opacity:1;" d="M 1083.183594 404.652344 C 956.460938 404.652344 853.730469 495.757812 853.730469 608.140625 C 853.730469 720.523438 956.460938 811.628906 1083.183594 811.628906 L 1071.007812 819.886719 C 939.140625 819.886719 832.242188 725.085938 832.242188 608.140625 C 832.242188 491.199219 939.140625 396.398438 1071.007812 396.398438 Z M 1083.183594 404.652344 "/>
</g>
</g>
<g clip-path="url(#clip5)" clip-rule="nonzero">
<g clip-path="url(#clip6)" clip-rule="nonzero">
<path style=" stroke:none;fill-rule:nonzero;fill:rgb(90.980392%,6.666667%,17.647059%);fill-opacity:1;" d="M 1062.890625 390.644531 C 927.441406 390.644531 817.640625 488.019531 817.640625 608.140625 C 817.640625 728.261719 927.441406 825.640625 1062.890625 825.640625 L 1050.71875 834.605469 C 909.683594 834.605469 795.355469 733.214844 795.355469 608.140625 C 795.355469 483.070312 909.683594 381.675781 1050.71875 381.675781 Z M 1062.890625 390.644531 "/>
</g>
</g>
<g clip-path="url(#clip7)" clip-rule="nonzero">
<g clip-path="url(#clip8)" clip-rule="nonzero">
<path style=" stroke:none;fill-rule:nonzero;fill:rgb(90.980392%,6.666667%,17.647059%);fill-opacity:1;" d="M 799.109375 417.277344 C 917.972656 417.277344 1014.328125 502.730469 1014.328125 608.140625 C 1014.328125 713.550781 917.972656 799.003906 799.109375 799.003906 L 811.285156 806.394531 C 934.75 806.394531 1034.839844 717.632812 1034.839844 608.140625 C 1034.839844 498.648438 934.75 409.886719 811.285156 409.886719 Z M 799.109375 417.277344 "/>
</g>
</g>
<g clip-path="url(#clip9)" clip-rule="nonzero">
<g clip-path="url(#clip10)" clip-rule="nonzero">
<path style=" stroke:none;fill-rule:nonzero;fill:rgb(90.980392%,6.666667%,17.647059%);fill-opacity:1;" d="M 819.402344 404.652344 C 946.125 404.652344 1048.855469 495.757812 1048.855469 608.140625 C 1048.855469 720.523438 946.125 811.628906 819.402344 811.628906 L 831.574219 819.886719 C 963.441406 819.886719 1070.339844 725.085938 1070.339844 608.140625 C 1070.339844 491.199219 963.441406 396.398438 831.574219 396.398438 Z M 819.402344 404.652344 "/>
</g>
</g>
<g clip-path="url(#clip11)" clip-rule="nonzero">
<g clip-path="url(#clip12)" clip-rule="nonzero">
<path style=" stroke:none;fill-rule:nonzero;fill:rgb(90.980392%,6.666667%,17.647059%);fill-opacity:1;" d="M 839.691406 390.644531 C 975.140625 390.644531 1084.945312 488.019531 1084.945312 608.140625 C 1084.945312 728.261719 975.140625 825.640625 839.691406 825.640625 L 851.867188 834.605469 C 992.898438 834.605469 1107.230469 733.214844 1107.230469 608.140625 C 1107.230469 483.070312 992.898438 381.675781 851.867188 381.675781 Z M 839.691406 390.644531 "/>
</g>
</g>
</g>
</svg>
