<?xml version="1.0" encoding="UTF-8"?>
<svg xmlns="http://www.w3.org/2000/svg" xmlns:xlink="http://www.w3.org/1999/xlink" width="380pt" height="200pt" viewBox="0 0 1900 1000" version="1.1">
<g id="surface1">
<rect x="0" y="0" width="1900" height="1000" style="fill:rgb(82.352941%,6.27451%,20.392157%);fill-opacity:1;stroke:none;"/>
<path style=" stroke:none;fill-rule:nonzero;fill:rgb(0%,49.411765%,22.745098%);fill-opacity:1;" d="M 316.667969 250 L 1583.332031 250 L 1583.332031 750 L 316.667969 750 Z M 316.667969 250 "/>
<path style=" stroke:none;fill-rule:nonzero;fill:rgb(100%,100%,100%);fill-opacity:1;" d="M 1240.277344 500 C 1240.277344 592.046875 1145.761719 666.667969 1029.167969 666.667969 C 912.574219 666.667969 818.054688 592.046875 818.054688 500 C 818.054688 407.953125 912.574219 333.332031 1029.167969 333.332031 C 1145.761719 333.332031 1240.277344 407.953125 1240.277344 500 Z M 1240.277344 500 "/>
<path style=" stroke:none;fill-rule:nonzero;fill:rgb(0%,49.411765%,22.745098%);fill-opacity:1;" d="M 1319.445312 500 C 1319.445312 592.046875 1224.925781 666.667969 1108.332031 666.667969 C 991.738281 666.667969 897.222656 592.046875 897.222656 500 C 897.222656 407.953125 991.738281 333.332031 1108.332031 333.332031 C 1224.925781 333.332031 1319.445312 407.953125 1319.445312 500 Z M 1319.445312 500 "/>
</g>
</svg>
