<?xml version="1.0" encoding="UTF-8"?>
<svg xmlns="http://www.w3.org/2000/svg" xmlns:xlink="http://www.w3.org/1999/xlink" width="380pt" height="200pt" viewBox="0 0 1900 1000" version="1.1">
<g id="surface1">
<rect x="0" y="0" width="1900" height="1000" style="fill:rgb(0%,0%,0%);fill-opacity:1;stroke:none;"/>
<path style=" stroke:none;fill-rule:nonzero;fill:rgb(98.823529%,86.27451%,1.568627%);fill-opacity:1;" d="M 0 166.667969 L 1900 166.667969 L 1900 333.332031 L 0 333.332031 Z M 0 166.667969 "/>
<path style=" stroke:none;fill-rule:nonzero;fill:rgb(85.098039%,0%,0%);fill-opacity:1;" d="M 0 333.332031 L 1900 333.332031 L 1900 500 L 0 500 Z M 0 333.332031 "/>
<path style=" stroke:none;fill-rule:nonzero;fill:rgb(98.823529%,86.27451%,1.568627%);fill-opacity:1;" d="M 0 666.667969 L 1900 666.667969 L 1900 833.332031 L 0 833.332031 Z M 0 666.667969 "/>
<path style=" stroke:none;fill-rule:nonzero;fill:rgb(85.098039%,0%,0%);fill-opacity:1;" d="M 0 833.332031 L 1900 833.332031 L 1900 1000 L 0 1000 Z M 0 833.332031 "/>
<path style=" stroke:none;fill-rule:nonzero;fill:rgb(100%,100%,100%);fill-opacity:1;" d="M 1147.390625 500 C 1147.390625 586.0625 1059.015625 655.832031 950 655.832031 C 840.984375 655.832031 752.609375 586.0625 752.609375 500 C 752.609375 413.9375 840.984375 344.167969 950 344.167969 C 1059.015625 344.167969 1147.390625 413.9375 1147.390625 500 Z M 1147.390625 500 "/>
<path style="fill-rule:nonzero;fill:rgb(85.098039%,0%,0%);fill-opacity:1;stroke-width:1;stroke-linecap:butt;stroke-linejoin:miter;stroke:rgb(0%,0%,0%);stroke-opacity:1;stroke-miterlimit:4;" d="M 433.52097 228.391406 L 427.455592 217.221094 C 429.796258 214.879687 433.733758 213.070312 440.010074 213.070312 C 440.010074 213.496875 439.371711 225.304688 439.371711 225.304688 Z M 433.52097 228.391406 " transform="matrix(2.111111,0,0,1.666667,0,0)"/>
<path style="fill-rule:nonzero;fill:rgb(98.823529%,86.27451%,1.568627%);fill-opacity:1;stroke-width:1;stroke-linecap:butt;stroke-linejoin:miter;stroke:rgb(0%,0%,0%);stroke-opacity:1;stroke-miterlimit:4;" d="M 439.371711 225.4125 L 440.222862 213.070312 C 440.222862 213.070312 452.775493 212.327344 459.584704 220.51875 C 459.690173 220.410937 452.882812 230.092969 452.882812 230.092969 Z M 439.371711 225.4125 " transform="matrix(2.111111,0,0,1.666667,0,0)"/>
<path style="fill-rule:nonzero;fill:rgb(85.098039%,0%,0%);fill-opacity:1;stroke-width:1;stroke-linecap:butt;stroke-linejoin:miter;stroke:rgb(0%,0%,0%);stroke-opacity:1;stroke-miterlimit:4;" d="M 453.0956 229.985156 L 459.264597 220.410937 C 463.414885 224.772656 465.115337 227.859375 465.753701 232.539844 C 465.86102 232.645312 455.967311 234.986719 455.967311 234.878906 C 455.967311 234.773438 453.201069 230.092969 453.0956 229.985156 Z M 453.0956 229.985156 " transform="matrix(2.111111,0,0,1.666667,0,0)"/>
<path style="fill-rule:nonzero;fill:rgb(0%,0%,0%);fill-opacity:1;stroke-width:1;stroke-linecap:butt;stroke-linejoin:miter;stroke:rgb(0%,0%,0%);stroke-opacity:1;stroke-miterlimit:4;" d="M 436.605469 388.073438 C 436.605469 388.073438 448.20148 374.775 470.75514 377.648438 C 467.350535 372.114844 456.392887 372.754687 456.392887 372.754687 C 456.392887 372.754687 452.988281 346.903125 455.647204 345.625781 C 458.307977 344.348437 469.583882 345.73125 469.583882 345.73125 C 471.073396 345.73125 473.62685 341.690625 471.606291 339.135938 C 469.583882 336.583594 463.627673 326.796094 466.073808 324.88125 C 468.519942 322.966406 481.818257 325.945312 481.818257 325.945312 L 444.265831 277.858594 C 444.265831 277.858594 440.43565 259.774219 448.094161 251.050781 C 457.351357 243.391406 456.392887 235.092187 456.07278 235.2 C 454.796053 226.795312 442.030633 220.729687 433.413651 228.496875 C 428.306743 234.667969 431.711349 239.348437 431.711349 239.348437 C 431.711349 239.348437 418.307566 242.964844 417.774671 245.30625 C 417.243627 247.645312 432.882607 244.879687 432.882607 244.879687 L 431.393092 255.625781 C 431.393092 255.625781 400.966283 283.284375 424.263775 307.221094 C 424.476562 307.115625 425.009457 306.157031 425.009457 306.157031 C 425.009457 306.157031 433.200863 316.263281 441.817845 318.496875 C 449.903783 326.796094 449.1581 325.51875 449.1581 325.51875 C 449.1581 325.51875 450.754934 338.603906 449.265419 341.158594 C 447.24301 340.51875 426.606291 339.775781 423.519942 340.945312 C 420.753701 341.796094 410.11616 341.264062 412.775082 358.605469 C 414.795641 353.925 416.605263 349.774219 416.605263 349.774219 C 416.605263 349.774219 416.285156 356.050781 418.83861 358.286719 C 418.413035 351.689062 421.286595 347.221875 421.286595 347.221875 C 421.286595 347.221875 421.81764 354.457031 423.412623 355.51875 C 425.009457 356.582812 425.009457 343.816406 433.839227 344.880469 C 442.668997 345.944531 449.052632 345.625781 449.052632 345.625781 C 449.052632 345.625781 452.031661 370.626562 451.073191 372.965625 C 444.689556 371.477344 429.478002 373.605469 428.519531 377.435156 C 437.45662 376.903125 441.605058 377.967187 441.605058 377.967187 C 441.605058 377.967187 434.372122 384.349219 436.605469 388.073438 Z M 436.605469 388.073438 " transform="matrix(2.111111,0,0,1.666667,0,0)"/>
<path style="fill-rule:nonzero;fill:rgb(61.176471%,65.098039%,61.176471%);fill-opacity:1;stroke-width:1;stroke-linecap:butt;stroke-linejoin:miter;stroke:rgb(61.176471%,65.098039%,61.176471%);stroke-opacity:1;stroke-miterlimit:4;" d="M 440.191406 251.660156 C 440.191406 251.660156 418.05222 276.063281 427.603618 294.735937 C 428.112459 292.132031 427.890419 290.496094 428.210526 290.601562 C 427.677632 290.282812 430.954564 292.849219 430.70662 292.35 C 430.775082 291 429.707442 288.105469 429.707442 288.105469 C 430.70662 288.35625 431.705798 288.604688 432.703125 288.855469 C 432.120271 287.772656 431.537418 286.692187 430.954564 285.609375 C 432.370066 285.775781 433.783717 285.942187 435.199219 286.108594 C 435.199219 286.108594 433.702303 282.114844 434.201891 282.114844 C 434.69963 282.114844 437.695312 282.363281 437.695312 282.363281 C 431.398643 271.066406 437.338199 261.682031 440.191406 251.660156 Z M 440.191406 251.660156 " transform="matrix(2.111111,0,0,1.666667,0,0)"/>
<path style="fill-rule:nonzero;fill:rgb(61.176471%,65.098039%,61.176471%);fill-opacity:1;stroke-width:1;stroke-linecap:butt;stroke-linejoin:miter;stroke:rgb(61.176471%,65.098039%,61.176471%);stroke-opacity:1;stroke-miterlimit:4;" d="M 447.881373 230.730469 C 447.881373 230.730469 449.052632 239.135156 444.478618 241.582031 C 443.732936 242.114062 440.861225 243.072656 441.286801 244.774219 C 441.817845 247.113281 443.094572 246.689062 444.904194 246.2625 C 449.690995 245.411719 455.221628 235.2 447.881373 230.730469 Z M 447.881373 230.730469 " transform="matrix(2.111111,0,0,1.666667,0,0)"/>
<path style=" stroke:none;fill-rule:nonzero;fill:rgb(100%,100%,100%);fill-opacity:1;" d="M 928.464844 396.667969 C 928.464844 398.324219 926.765625 399.667969 924.667969 399.667969 C 922.566406 399.667969 920.867188 398.324219 920.867188 396.667969 C 920.867188 395.011719 922.566406 393.667969 924.667969 393.667969 C 926.765625 393.667969 928.464844 395.011719 928.464844 396.667969 Z M 928.464844 396.667969 "/>
<path style="fill-rule:nonzero;fill:rgb(85.098039%,0%,0%);fill-opacity:1;stroke-width:1;stroke-linecap:butt;stroke-linejoin:miter;stroke:rgb(0%,0%,0%);stroke-opacity:1;stroke-miterlimit:4;" d="M 432.5625 244.985156 C 431.393092 245.94375 425.222245 252.328125 431.285773 254.667187 C 437.562089 252.965625 435.859786 251.796094 437.243832 250.410937 C 437.278988 247.539844 434.122327 246.794531 432.5625 244.985156 Z M 432.5625 244.985156 " transform="matrix(2.111111,0,0,1.666667,0,0)"/>
<path style="fill-rule:nonzero;fill:rgb(61.176471%,65.098039%,61.176471%);fill-opacity:1;stroke-width:1;stroke-linecap:butt;stroke-linejoin:miter;stroke:rgb(61.176471%,65.098039%,61.176471%);stroke-opacity:1;stroke-miterlimit:4;" d="M 445.966283 305.30625 C 445.648026 306.689062 444.265831 311.796094 446.179071 315.73125 C 451.498766 313.497656 453.944901 314.135156 455.754523 315.307031 C 451.393298 311.796094 449.690995 310.305469 445.966283 305.30625 Z M 445.966283 305.30625 " transform="matrix(2.111111,0,0,1.666667,0,0)"/>
<path style="fill-rule:nonzero;fill:rgb(100%,100%,100%);fill-opacity:1;stroke-width:1;stroke-linecap:butt;stroke-linejoin:miter;stroke:rgb(100%,100%,100%);stroke-opacity:1;stroke-miterlimit:4;" d="M 455.11616 329.45625 L 455.434416 341.369531 C 455.434416 341.369531 459.584704 342.114844 461.497944 341.369531 C 463.414885 340.626562 461.392475 333.072656 455.11616 329.45625 Z M 455.11616 329.45625 " transform="matrix(2.111111,0,0,1.666667,0,0)"/>
<path style="fill-rule:nonzero;fill:rgb(61.176471%,65.098039%,61.176471%);fill-opacity:1;stroke-width:1;stroke-linecap:butt;stroke-linejoin:miter;stroke:rgb(0%,0%,0%);stroke-opacity:1;stroke-miterlimit:4;" d="M 485.222862 330.944531 C 485.222862 330.944531 477.5625 312.433594 457.98787 307.753125 C 438.41324 303.072656 440.966694 282.220312 442.561678 280.945312 C 443.412829 279.135938 444.053043 276.370313 449.690995 279.030469 C 455.328947 281.688281 481.287212 294.773438 485.010074 295.413281 C 488.732936 296.050781 485.541118 331.371094 485.222862 330.944531 Z M 485.222862 330.944531 " transform="matrix(2.111111,0,0,1.666667,0,0)"/>
<path style="fill-rule:nonzero;fill:rgb(85.098039%,0%,0%);fill-opacity:1;stroke-width:1;stroke-linecap:butt;stroke-linejoin:miter;stroke:rgb(0%,0%,0%);stroke-opacity:1;stroke-miterlimit:4;" d="M 466.604852 307.647656 C 466.286595 307.858594 492.775905 323.285156 484.797286 336.583594 C 492.350329 331.582031 489.904194 322.858594 489.904194 322.858594 C 489.904194 322.858594 496.073191 338.922656 481.074424 346.795312 C 482.669408 348.180469 483.733347 347.859375 483.733347 347.859375 L 481.179893 350.414062 C 481.179893 350.414062 480.008635 352.328906 490.116982 347.432813 C 487.35074 349.66875 487.137952 351.264844 487.137952 351.264844 C 487.137952 351.264844 487.881785 353.392969 494.478207 347.646094 C 489.158512 353.392969 487.989104 356.369531 487.989104 356.264062 C 502.349507 354.986719 533.627467 308.285156 478.095395 294.454687 C 481.074424 297.541406 480.648849 297.114844 480.648849 297.114844 Z M 466.604852 307.647656 " transform="matrix(2.111111,0,0,1.666667,0,0)"/>
<path style="fill-rule:nonzero;fill:rgb(100%,100%,100%);fill-opacity:1;stroke-width:1;stroke-linecap:butt;stroke-linejoin:miter;stroke:rgb(0%,0%,0%);stroke-opacity:1;stroke-miterlimit:4;" d="M 467.77611 303.072656 C 471.393503 305.625 472.66838 306.475781 473.093956 307.753125 C 469.796669 307.010156 466.81764 307.221094 466.81764 307.221094 C 466.81764 307.221094 459.690173 300.4125 458.413446 299.880469 C 457.456826 299.880469 451.924342 296.369531 451.924342 296.369531 C 449.1581 294.986719 446.606497 285.4125 456.818462 288.178125 C 467.348684 293.177344 468.840049 293.603906 468.840049 293.603906 C 473.023643 294.916406 477.207237 296.228906 481.392681 297.541406 C 483.80366 300.234375 486.214638 302.929688 488.627467 305.625 C 488.627467 305.625 475.754729 299.242969 474.157895 299.135156 C 477.669819 302.008594 479.690378 305.94375 479.690378 305.94375 C 475.612253 304.774219 472.067023 303.710156 467.77611 303.072656 Z M 467.77611 303.072656 " transform="matrix(2.111111,0,0,1.666667,0,0)"/>
<path style="fill-rule:nonzero;fill:rgb(0%,0%,0%);fill-opacity:1;stroke-width:1;stroke-linecap:butt;stroke-linejoin:miter;stroke:rgb(100%,100%,100%);stroke-opacity:1;stroke-miterlimit:4;" d="M 417.669202 245.94375 C 417.669202 245.94375 430.009046 242.964844 431.498561 243.391406 " transform="matrix(2.111111,0,0,1.666667,0,0)"/>
</g>
</svg>
