<?xml version="1.0" encoding="UTF-8"?>
<svg xmlns="http://www.w3.org/2000/svg" xmlns:xlink="http://www.w3.org/1999/xlink" width="380pt" height="200pt" viewBox="0 0 1900 1000" version="1.1">
<g id="surface1">
<rect x="0" y="0" width="1900" height="1000" style="fill:rgb(25.490196%,53.72549%,86.666667%);fill-opacity:1;stroke:none;"/>
<path style=" stroke:none;fill-rule:nonzero;fill:rgb(100%,100%,100%);fill-opacity:1;" d="M 950 259.257812 L 855.769531 488.21875 L 1000.777344 525.414062 Z M 950 259.257812 "/>
<path style=" stroke:none;fill-rule:nonzero;fill:rgb(100%,100%,100%);fill-opacity:1;" d="M 950 259.257812 L 1044.230469 488.21875 L 899.222656 525.414062 Z M 950 259.257812 "/>
<path style=" stroke:none;fill-rule:nonzero;fill:rgb(100%,100%,100%);fill-opacity:1;" d="M 1240.011719 425.605469 L 935.074219 425.605469 L 935.074219 545.976562 Z M 1240.011719 425.605469 "/>
<path style=" stroke:none;fill-rule:nonzero;fill:rgb(100%,100%,100%);fill-opacity:1;" d="M 1240.011719 425.605469 L 993.3125 567.109375 L 903.695312 469.730469 Z M 1240.011719 425.605469 "/>
<path style=" stroke:none;fill-rule:nonzero;fill:rgb(100%,100%,100%);fill-opacity:1;" d="M 659.988281 425.605469 L 906.6875 567.109375 L 996.304688 469.730469 Z M 659.988281 425.605469 "/>
<path style=" stroke:none;fill-rule:nonzero;fill:rgb(100%,100%,100%);fill-opacity:1;" d="M 659.988281 425.605469 L 964.925781 425.605469 L 964.925781 545.976562 Z M 659.988281 425.605469 "/>
<path style=" stroke:none;fill-rule:nonzero;fill:rgb(100%,100%,100%);fill-opacity:1;" d="M 1129.238281 694.761719 L 1035.007812 465.804688 L 890 503 Z M 1129.238281 694.761719 "/>
<path style=" stroke:none;fill-rule:nonzero;fill:rgb(100%,100%,100%);fill-opacity:1;" d="M 1129.238281 694.761719 L 882.539062 553.257812 L 972.15625 455.878906 Z M 1129.238281 694.761719 "/>
<path style=" stroke:none;fill-rule:nonzero;fill:rgb(100%,100%,100%);fill-opacity:1;" d="M 770.761719 694.761719 L 1017.460938 553.257812 L 927.84375 455.878906 Z M 770.761719 694.761719 "/>
<path style=" stroke:none;fill-rule:nonzero;fill:rgb(100%,100%,100%);fill-opacity:1;" d="M 770.761719 694.761719 L 864.992188 465.804688 L 1010 503 Z M 770.761719 694.761719 "/>
</g>
</svg>
