<?xml version="1.0" encoding="UTF-8"?>
<svg xmlns="http://www.w3.org/2000/svg" xmlns:xlink="http://www.w3.org/1999/xlink" width="380pt" height="200pt" viewBox="0 0 1900 1000" version="1.1">
<g id="surface1">
<rect x="0" y="0" width="1900" height="1000" style="fill:rgb(0%,0%,0%);fill-opacity:1;stroke:none;"/>
<path style=" stroke:none;fill-rule:evenodd;fill:rgb(80.784314%,6.666667%,14.901961%);fill-opacity:1;" d="M 0 0 L 1900 0 L 1900 1000 Z M 0 0 "/>
<path style=" stroke:none;fill-rule:nonzero;fill:rgb(98.823529%,81.960784%,8.627451%);fill-opacity:1;" d="M 1176.328125 290.542969 C 1162.296875 303.265625 1129.089844 277.75 1089.308594 277.167969 C 1049.527344 276.585938 1021.347656 303.917969 1009.746094 313.226562 C 998.144531 322.535156 960.847656 371.386719 961.675781 376.621094 C 962.503906 381.855469 984.882812 362.082031 993.171875 358.589844 C 994 365.570312 984.054688 373.714844 986.539062 376.039062 C 989.027344 378.363281 1015.546875 362.082031 1024.664062 361.5 C 1027.148438 366.152344 1019.691406 370.804688 1022.175781 377.785156 C 1025.492188 380.109375 1040.410156 366.152344 1050.355469 363.246094 C 1052.011719 368.480469 1041.238281 378.367188 1047.039062 384.761719 C 1051.183594 385.34375 1076.046875 364.988281 1084.335938 362.660156 C 1092.625 360.335938 1080.191406 381.855469 1084.335938 383.597656 C 1091.792969 380.109375 1115 361.496094 1122.460938 359.171875 C 1129.917969 356.847656 1121.632812 383.019531 1124.945312 383.019531 C 1134.0625 378.363281 1157.269531 356.265625 1159.753906 352.777344 C 1162.242188 349.285156 1157.269531 386.507812 1182.960938 406.285156 C 1208.652344 426.058594 1247.605469 448.738281 1251.75 448.738281 C 1256.722656 442.339844 1250.09375 428.964844 1254.234375 429.546875 C 1265.835938 438.269531 1287.386719 451.066406 1292.359375 451.066406 C 1297.332031 451.066406 1289.042969 437.105469 1295.671875 437.105469 C 1308.933594 445.832031 1347.058594 480.144531 1421.648438 495.847656 C 1416.675781 485.960938 1405.898438 477.238281 1405.070312 472.585938 C 1410.042969 473.167969 1427.449219 478.984375 1430.765625 478.402344 C 1434.078125 477.816406 1394.296875 443.503906 1396.785156 438.851562 C 1405.902344 438.269531 1410.046875 442.339844 1413.359375 439.433594 C 1409.214844 434.78125 1374.40625 407.445312 1374.40625 401.046875 C 1374.40625 394.648438 1385.183594 402.210938 1388.496094 401.046875 C 1391.8125 399.882812 1375.238281 375.457031 1378.550781 372.550781 C 1381.867188 369.644531 1418.332031 388.253906 1427.449219 388.253906 C 1436.566406 388.253906 1429.933594 365.570312 1434.078125 364.40625 C 1438.222656 363.242188 1468.890625 376.621094 1475.519531 376.621094 C 1482.148438 376.621094 1481.320312 366.730469 1483.804688 367.894531 C 1486.292969 369.058594 1558.394531 419.660156 1533.53125 478.980469 C 1508.667969 521.441406 1458.945312 544.121094 1386.011719 525.511719 C 1390.152344 530.164062 1429.105469 552.847656 1471.375 544.703125 C 1513.640625 536.558594 1565.023438 513.296875 1559.222656 455.136719 C 1553.421875 396.976562 1526.070312 388.835938 1521.929688 380.113281 C 1517.785156 371.386719 1528.5625 382.4375 1537.675781 384.765625 C 1546.792969 387.09375 1536.019531 372.550781 1533.53125 366.152344 C 1531.046875 359.753906 1560.882812 379.527344 1568.339844 381.273438 C 1575.800781 383.019531 1550.9375 333.582031 1543.476562 330.09375 C 1536.019531 326.605469 1550.9375 331.253906 1555.910156 332.417969 C 1560.882812 333.582031 1510.324219 278.332031 1499.550781 278.332031 C 1488.777344 278.332031 1508.667969 275.421875 1514.46875 275.421875 C 1520.273438 275.421875 1456.457031 239.363281 1445.683594 239.363281 C 1434.90625 239.363281 1468.886719 230.054688 1472.203125 229.476562 C 1478.003906 230.054688 1398.441406 199.8125 1327.167969 230.054688 C 1323.023438 227.730469 1360.734375 209.410156 1361.976562 201.558594 C 1362.390625 199.523438 1349.546875 195.160156 1348.714844 192.835938 C 1347.886719 190.511719 1368.605469 183.53125 1369.433594 178.296875 C 1364.460938 173.644531 1355.34375 175.386719 1350.371094 174.226562 C 1349.132812 169.863281 1367.777344 159.105469 1366.121094 154.453125 C 1364.878906 151.835938 1351.199219 150.960938 1347.886719 152.707031 C 1344.570312 154.453125 1356.589844 140.492188 1354.515625 136.421875 C 1352.859375 134.679688 1346.230469 135.84375 1339.597656 137.003906 C 1335.453125 136.421875 1361.148438 111.414062 1356.175781 107.925781 C 1351.203125 104.433594 1281.582031 133.511719 1255.890625 166.082031 C 1230.199219 198.652344 1250.09375 224.824219 1246.777344 235.875 C 1243.460938 246.925781 1239.316406 257.976562 1228.542969 257.976562 C 1217.769531 257.976562 1192.90625 246.34375 1184.617188 240.527344 C 1176.328125 234.710938 1174.671875 230.640625 1163.070312 228.316406 C 1151.464844 225.988281 1124.945312 232.96875 1115 233.550781 C 1105.054688 234.128906 1066.101562 228.316406 1063.617188 230.058594 C 1061.128906 231.804688 1101.738281 242.273438 1110.855469 245.761719 C 1119.972656 249.253906 1120.804688 253.90625 1127.433594 256.8125 C 1134.0625 259.71875 1196.21875 272.515625 1176.328125 290.542969 Z M 1419.160156 372.550781 C 1439.050781 386.507812 1573.3125 449.320312 1573.3125 526.089844 C 1573.3125 602.863281 1475.515625 600.539062 1447.339844 598.210938 C 1478.832031 616.820312 1598.175781 613.332031 1598.175781 526.089844 C 1598.175781 449.320312 1444.023438 372.550781 1424.132812 365.570312 C 1404.242188 358.589844 1399.269531 358.589844 1419.160156 372.550781 Z M 1419.160156 372.550781 "/>
<path style=" stroke:none;fill-rule:nonzero;fill:rgb(100%,100%,100%);fill-opacity:1;" d="M 692.707031 491.320312 L 713.488281 541.390625 L 785.277344 541.390625 L 728.601562 571.988281 L 749.382812 620.667969 L 692.707031 590.066406 L 636.03125 619.273438 L 656.8125 571.988281 L 600.136719 541.390625 L 670.035156 541.390625 Z M 692.707031 491.320312 "/>
<path style=" stroke:none;fill-rule:nonzero;fill:rgb(100%,100%,100%);fill-opacity:1;" d="M 476.035156 769.097656 L 496.816406 819.167969 L 568.605469 819.167969 L 511.925781 849.765625 L 532.710938 898.445312 L 476.035156 867.84375 L 419.359375 897.050781 L 440.140625 849.765625 L 383.464844 819.167969 L 453.363281 819.167969 Z M 476.035156 769.097656 "/>
<path style=" stroke:none;fill-rule:nonzero;fill:rgb(100%,100%,100%);fill-opacity:1;" d="M 573.238281 662.757812 L 583.628906 687.792969 L 619.523438 687.792969 L 591.183594 703.09375 L 601.578125 727.429688 L 573.238281 712.132812 L 544.902344 726.734375 L 555.292969 703.09375 L 526.953125 687.792969 L 561.902344 687.792969 Z M 573.238281 662.757812 "/>
<path style=" stroke:none;fill-rule:nonzero;fill:rgb(100%,100%,100%);fill-opacity:1;" d="M 476.035156 309.890625 L 496.816406 359.957031 L 568.605469 359.957031 L 511.925781 390.558594 L 532.710938 439.234375 L 476.035156 408.636719 L 419.359375 437.84375 L 440.140625 390.558594 L 383.464844 359.957031 L 453.363281 359.957031 Z M 476.035156 309.890625 "/>
<path style=" stroke:none;fill-rule:nonzero;fill:rgb(100%,100%,100%);fill-opacity:1;" d="M 258.324219 505.207031 L 279.105469 555.277344 L 350.894531 555.277344 L 294.21875 585.878906 L 315 634.554688 L 258.324219 603.957031 L 201.648438 633.164062 L 222.429688 585.878906 L 165.753906 555.277344 L 235.65625 555.277344 Z M 258.324219 505.207031 "/>
</g>
</svg>
