<?xml version="1.0" encoding="UTF-8"?>
<svg xmlns="http://www.w3.org/2000/svg" xmlns:xlink="http://www.w3.org/1999/xlink" width="380pt" height="200pt" viewBox="0 0 1900 1000" version="1.1">
<g id="surface1">
<rect x="0" y="0" width="1900" height="1000" style="fill:rgb(100%,100%,100%);fill-opacity:1;stroke:none;"/>
<path style=" stroke:none;fill-rule:nonzero;fill:rgb(0.392157%,25.490196%,10.980392%);fill-opacity:1;" d="M 475 0 L 1900 0 L 1900 1000 L 475 1000 Z M 475 0 "/>
<path style=" stroke:none;fill-rule:nonzero;fill:rgb(100%,100%,100%);fill-opacity:1;" d="M 1567.5 500 C 1567.5 665.683594 1397.367188 800 1187.5 800 C 977.632812 800 807.5 665.683594 807.5 500 C 807.5 334.316406 977.632812 200 1187.5 200 C 1397.367188 200 1567.5 334.316406 1567.5 500 Z M 1567.5 500 "/>
<path style=" stroke:none;fill-rule:nonzero;fill:rgb(0.392157%,25.490196%,10.980392%);fill-opacity:1;" d="M 1544.980469 249.136719 C 1672.789062 362.652344 1659.839844 536.472656 1516.054688 637.375 C 1372.265625 738.277344 1152.09375 728.050781 1024.285156 614.535156 C 896.476562 501.019531 909.425781 327.203125 1053.214844 226.300781 C 1197 125.398438 1417.171875 135.621094 1544.980469 249.136719 Z M 1544.980469 249.136719 "/>
<path style=" stroke:none;fill-rule:nonzero;fill:rgb(100%,100%,100%);fill-opacity:1;" d="M 1326.066406 275.515625 L 1486.132812 417.679688 L 1250.789062 376.945312 L 1471.515625 300.691406 L 1349.714844 464.808594 Z M 1326.066406 275.515625 "/>
</g>
</svg>
