<?xml version="1.0" encoding="UTF-8"?>
<svg xmlns="http://www.w3.org/2000/svg" xmlns:xlink="http://www.w3.org/1999/xlink" width="1900pt" height="1000pt" viewBox="0 0 1900 1000" version="1.1">
<g id="surface1">
<rect x="0" y="0" width="1900" height="1000" style="fill:rgb(100%,100%,100%);fill-opacity:1;stroke:none;"/>
<path style=" stroke:none;fill-rule:nonzero;fill:rgb(86.27451%,14.117647%,12.156863%);fill-opacity:1;" d="M 0 0 L 1900 0 L 1900 71.429688 L 0 71.429688 Z M 0 0 "/>
<path style=" stroke:none;fill-rule:nonzero;fill:rgb(86.27451%,14.117647%,12.156863%);fill-opacity:1;" d="M 0 142.855469 L 1900 142.855469 L 1900 214.285156 L 0 214.285156 Z M 0 142.855469 "/>
<path style=" stroke:none;fill-rule:nonzero;fill:rgb(86.27451%,14.117647%,12.156863%);fill-opacity:1;" d="M 0 285.714844 L 1900 285.714844 L 1900 357.144531 L 0 357.144531 Z M 0 285.714844 "/>
<path style=" stroke:none;fill-rule:nonzero;fill:rgb(86.27451%,14.117647%,12.156863%);fill-opacity:1;" d="M 0 428.570312 L 1900 428.570312 L 1900 500 L 0 500 Z M 0 428.570312 "/>
<path style=" stroke:none;fill-rule:nonzero;fill:rgb(86.27451%,14.117647%,12.156863%);fill-opacity:1;" d="M 0 428.570312 L 1900 428.570312 L 1900 500 L 0 500 Z M 0 428.570312 "/>
<path style=" stroke:none;fill-rule:nonzero;fill:rgb(86.27451%,14.117647%,12.156863%);fill-opacity:1;" d="M 0 571.429688 L 1900 571.429688 L 1900 642.855469 L 0 642.855469 Z M 0 571.429688 "/>
<path style=" stroke:none;fill-rule:nonzero;fill:rgb(86.27451%,14.117647%,12.156863%);fill-opacity:1;" d="M 0 714.285156 L 1900 714.285156 L 1900 785.714844 L 0 785.714844 Z M 0 714.285156 "/>
<path style=" stroke:none;fill-rule:nonzero;fill:rgb(86.27451%,14.117647%,12.156863%);fill-opacity:1;" d="M 0 857.144531 L 1900 857.144531 L 1900 928.570312 L 0 928.570312 Z M 0 857.144531 "/>
<path style=" stroke:none;fill-rule:nonzero;fill:rgb(0%,20.784314%,67.843137%);fill-opacity:1;" d="M 0 0 L 950 0 L 950 571.429688 L 0 571.429688 Z M 0 0 "/>
<path style=" stroke:none;fill-rule:nonzero;fill:rgb(100%,81.960784%,0%);fill-opacity:1;" d="M 593.75 285.714844 C 593.75 404.0625 502.609375 500 390.179688 500 C 277.75 500 186.605469 404.0625 186.605469 285.714844 C 186.605469 167.367188 277.75 71.429688 390.179688 71.429688 C 502.609375 71.429688 593.75 167.367188 593.75 285.714844 Z M 593.75 285.714844 "/>
<path style=" stroke:none;fill-rule:nonzero;fill:rgb(0%,20.784314%,67.843137%);fill-opacity:1;" d="M 616.359375 285.714844 C 616.359375 390.910156 535.347656 476.1875 435.414062 476.1875 C 335.476562 476.1875 254.464844 390.910156 254.464844 285.714844 C 254.464844 180.519531 335.476562 95.242188 435.414062 95.242188 C 535.347656 95.242188 616.359375 180.519531 616.359375 285.714844 Z M 616.359375 285.714844 "/>
<path style=" stroke:none;fill-rule:nonzero;fill:rgb(100%,81.960784%,0%);fill-opacity:1;" d="M 661.605469 285.714844 L 759.140625 325.449219 L 654.886719 316.707031 L 726.382812 397.050781 L 636.058594 341.558594 L 667.355469 446.601562 L 608.851562 355.351562 L 593.75 464.285156 L 573.394531 264.285156 Z M 661.605469 285.714844 "/>
<path style=" stroke:none;fill-rule:nonzero;fill:rgb(100%,81.960784%,0%);fill-opacity:1;" d="M 661.605469 285.714844 L 759.140625 245.976562 L 654.886719 254.722656 L 726.382812 174.375 L 636.058594 229.871094 L 667.355469 124.828125 L 608.851562 216.078125 L 593.75 107.144531 L 573.394531 307.144531 Z M 661.605469 285.714844 "/>
<path style=" stroke:none;fill-rule:nonzero;fill:rgb(100%,81.960784%,0%);fill-opacity:1;" d="M 525.894531 285.714844 L 428.359375 325.449219 L 532.613281 316.707031 L 461.117188 397.050781 L 551.441406 341.558594 L 520.144531 446.601562 L 578.648438 355.351562 L 593.75 464.285156 L 614.105469 264.285156 Z M 525.894531 285.714844 "/>
<path style=" stroke:none;fill-rule:nonzero;fill:rgb(100%,81.960784%,0%);fill-opacity:1;" d="M 525.894531 285.714844 L 428.359375 245.976562 L 532.613281 254.722656 L 461.117188 174.375 L 551.441406 229.871094 L 520.144531 124.828125 L 578.648438 216.078125 L 593.75 107.144531 L 614.105469 307.144531 Z M 525.894531 285.714844 "/>
</g>
</svg>
