<?xml version="1.0" encoding="UTF-8"?>
<svg xmlns="http://www.w3.org/2000/svg" xmlns:xlink="http://www.w3.org/1999/xlink" width="1900pt" height="1000pt" viewBox="0 0 1900 1000" version="1.1">
<g id="surface1">
<rect x="0" y="0" width="1900" height="1000" style="fill:rgb(92.941176%,10.980392%,14.117647%);fill-opacity:1;stroke:none;"/>
<path style=" stroke:none;fill-rule:nonzero;fill:rgb(100%,100%,100%);fill-opacity:1;" d="M 0 250 L 1900 250 L 1900 750 L 0 750 Z M 0 250 "/>
<path style=" stroke:none;fill-rule:nonzero;fill:rgb(0%,65.098039%,31.764706%);fill-opacity:1;" d="M 941.359375 250 L 930.972656 263.660156 C 925.261719 271.171875 911.417969 282.453125 900.257812 288.703125 C 889.101562 294.953125 875.648438 304.257812 870.292969 309.386719 L 860.503906 318.6875 L 870.890625 316.539062 C 876.582031 315.355469 883.996094 313.453125 887.40625 312.3125 C 890.816406 311.171875 893.609375 311.808594 893.609375 313.742188 C 893.609375 313.796875 893.613281 313.886719 893.609375 313.9375 C 893.59375 314.046875 893.566406 314.210938 893.535156 314.328125 C 892.03125 319.148438 874.203125 330.191406 860.054688 334.820312 C 846.515625 339.25 826.445312 350.816406 823.8125 355.4375 C 823.75 355.550781 823.703125 355.722656 823.664062 355.828125 C 823.644531 355.878906 823.601562 355.972656 823.589844 356.023438 C 823.578125 356.070312 823.59375 356.171875 823.589844 356.21875 C 823.589844 356.234375 823.589844 356.269531 823.589844 356.285156 C 823.589844 356.296875 823.589844 356.335938 823.589844 356.347656 C 823.589844 356.359375 823.585938 356.402344 823.589844 356.414062 C 823.59375 356.425781 823.585938 356.464844 823.589844 356.476562 C 823.605469 356.527344 823.640625 356.628906 823.664062 356.671875 C 823.683594 356.707031 823.714844 356.773438 823.738281 356.804688 C 823.746094 356.8125 823.804688 356.859375 823.8125 356.867188 C 823.832031 356.890625 823.867188 356.914062 823.886719 356.933594 C 823.898438 356.945312 823.949219 356.988281 823.964844 357 C 824.015625 357.035156 824.125 357.09375 824.1875 357.128906 C 825.773438 358.003906 830.136719 358.136719 835.171875 357.257812 C 844.007812 355.722656 847.648438 356.675781 850.566406 361.421875 C 855.03125 368.683594 852.472656 371.960938 842.195312 371.960938 C 829.769531 371.960938 812.082031 381.8125 809.691406 390.105469 C 808.085938 395.667969 801.308594 400.203125 786.75 405.457031 C 762.980469 414.03125 732.308594 430.402344 730.179688 435.441406 C 730.125 435.582031 730.113281 435.777344 730.105469 435.898438 C 730.105469 443.042969 750.125 442.542969 779.125 434.664062 C 785.628906 432.894531 788.496094 434.695312 793.398438 443.507812 C 799.46875 454.417969 799.375 454.6875 785.253906 469.070312 C 775.394531 479.117188 766.722656 484.296875 757.304688 485.851562 C 738.542969 488.953125 732.710938 491.960938 708.359375 511.15625 C 696.707031 520.339844 685.007812 527.941406 682.355469 528 C 681.3125 528.023438 680.621094 528.148438 680.261719 528.390625 C 680.25 528.402344 680.199219 528.449219 680.1875 528.457031 C 680.175781 528.464844 680.121094 528.511719 680.113281 528.523438 C 680.105469 528.53125 680.046875 528.578125 680.039062 528.585938 C 680.03125 528.597656 680.042969 528.640625 680.039062 528.652344 C 680.03125 528.664062 679.96875 528.707031 679.964844 528.71875 C 679.960938 528.726562 679.964844 528.769531 679.964844 528.78125 C 679.960938 528.792969 679.964844 528.835938 679.964844 528.847656 C 679.960938 528.859375 679.964844 528.902344 679.964844 528.914062 C 679.964844 528.9375 679.960938 529.019531 679.964844 529.042969 C 679.964844 529.054688 679.960938 529.09375 679.964844 529.109375 C 679.976562 529.160156 680.015625 529.25 680.039062 529.300781 C 680.050781 529.332031 680.097656 529.40625 680.113281 529.433594 C 680.128906 529.460938 680.167969 529.535156 680.1875 529.5625 C 682.144531 532.40625 695 538.019531 702.230469 538.019531 C 707.523438 538.019531 720.421875 533.242188 730.851562 527.417969 C 749.15625 517.191406 750.0625 517.039062 757.457031 522.863281 C 761.667969 526.183594 765.152344 532.617188 765.152344 537.109375 C 765.152344 543.957031 760.492188 547.085938 736.457031 556.75 C 718.675781 563.902344 697.792969 576.195312 681.457031 589.078125 C 659.503906 606.394531 653.277344 609.589844 643.945312 608.398438 C 638.050781 607.644531 634.757812 607.332031 633.707031 607.8125 C 633.671875 607.828125 633.585938 607.855469 633.558594 607.878906 C 633.542969 607.886719 633.496094 607.929688 633.484375 607.941406 C 633.472656 607.953125 633.417969 607.996094 633.40625 608.007812 C 633.371094 608.070312 633.339844 608.191406 633.332031 608.265625 C 633.328125 609.152344 635.308594 610.960938 638.863281 614.054688 C 642.226562 616.984375 650.039062 619.390625 656.199219 619.390625 C 673.007812 619.390625 726.140625 603.753906 742.511719 594.023438 C 757.707031 584.984375 772.484375 583.242188 784.730469 588.949219 C 803.679688 597.777344 771.992188 615.550781 712.320312 629.601562 C 690.367188 634.769531 671.347656 639.800781 668.902344 641.050781 C 668.867188 641.070312 668.78125 641.097656 668.753906 641.113281 C 668.742188 641.121094 668.6875 641.171875 668.679688 641.179688 C 668.671875 641.1875 668.613281 641.238281 668.605469 641.246094 C 668.597656 641.253906 668.613281 641.300781 668.605469 641.308594 C 667.75 642.425781 669.011719 645.367188 671.59375 648.074219 C 677.824219 654.609375 709.179688 654.925781 735.933594 648.660156 C 746.640625 646.152344 773.308594 637.636719 795.191406 629.796875 C 834.886719 615.578125 835.035156 615.605469 848.921875 621.339844 C 881.191406 634.671875 878.210938 657.992188 839.429688 696.339844 C 822.542969 713.035156 807.558594 720.484375 780.320312 725.738281 C 770.246094 727.683594 749.535156 743.085938 749.535156 748.632812 C 749.535156 749.179688 749.667969 749.613281 749.832031 750 L 756.78125 750 C 758.308594 749.121094 759.867188 747.851562 761.417969 746.226562 C 770.003906 737.222656 787.316406 731.214844 804.832031 731.136719 C 823.863281 731.050781 847.175781 722.800781 864.6875 709.933594 C 880.074219 698.625 895.53125 695.253906 907.210938 700.695312 C 913.679688 703.710938 919.566406 704.011719 927.386719 701.671875 C 941.289062 697.511719 948.160156 699.523438 948.160156 707.722656 C 948.160156 711.40625 953.054688 716.351562 959.742188 719.363281 C 966.136719 722.242188 977.550781 729.289062 985.074219 735.039062 C 990.804688 739.417969 994.980469 741.417969 997.179688 741.414062 C 997.265625 741.414062 997.402344 741.421875 997.480469 741.414062 C 997.539062 741.40625 997.648438 741.425781 997.703125 741.414062 C 997.738281 741.40625 997.820312 741.359375 997.855469 741.347656 C 997.886719 741.339844 997.972656 741.296875 998.003906 741.285156 C 998.09375 741.246094 998.222656 741.203125 998.300781 741.152344 C 998.316406 741.144531 998.363281 741.097656 998.375 741.089844 C 998.390625 741.078125 998.441406 741.035156 998.453125 741.023438 C 998.460938 741.011719 998.515625 740.96875 998.527344 740.957031 C 998.535156 740.949219 998.589844 740.90625 998.601562 740.894531 C 998.628906 740.859375 998.648438 740.800781 998.675781 740.761719 C 998.691406 740.738281 998.734375 740.660156 998.75 740.632812 C 998.765625 740.605469 998.8125 740.535156 998.824219 740.503906 C 998.84375 740.457031 998.886719 740.359375 998.898438 740.308594 C 998.917969 740.242188 998.890625 740.121094 998.898438 740.046875 C 999.125 738.121094 997.234375 734.246094 992.847656 728.796875 C 990.269531 725.589844 988.957031 722.398438 989.335938 720.792969 C 989.355469 720.71875 989.382812 720.605469 989.410156 720.535156 C 989.421875 720.507812 989.472656 720.429688 989.484375 720.40625 C 989.492188 720.390625 989.476562 720.351562 989.484375 720.339844 C 989.492188 720.328125 989.550781 720.285156 989.558594 720.273438 C 989.601562 720.21875 989.65625 720.125 989.707031 720.078125 C 989.71875 720.070312 989.773438 720.023438 989.78125 720.015625 C 989.816406 719.988281 989.894531 719.972656 989.933594 719.949219 C 989.945312 719.941406 989.992188 719.890625 990.007812 719.882812 C 990.039062 719.871094 990.121094 719.832031 990.15625 719.820312 C 992.585938 719.078125 1005.449219 719.457031 1019.523438 720.730469 C 1044.285156 722.972656 1047.285156 724.144531 1061.894531 737.511719 C 1069.109375 744.113281 1075.03125 748.257812 1079.828125 750 L 1089.769531 750 C 1091.886719 749.246094 1093.382812 748.15625 1093.730469 747.074219 C 1093.738281 747.042969 1093.796875 746.972656 1093.804688 746.941406 C 1093.8125 746.898438 1093.796875 746.792969 1093.804688 746.746094 C 1093.804688 746.71875 1093.804688 746.648438 1093.804688 746.617188 C 1093.804688 746.589844 1093.804688 746.515625 1093.804688 746.488281 C 1093.804688 746.480469 1093.804688 746.429688 1093.804688 746.421875 C 1093.800781 746.40625 1093.808594 746.375 1093.804688 746.359375 C 1092.953125 744.113281 1078.292969 733.101562 1060.699219 721.511719 C 1020.714844 695.167969 1014.585938 685.539062 1014.441406 649.050781 C 1014.359375 627.226562 1015.671875 621.640625 1022.140625 616.007812 C 1032.21875 607.234375 1037.753906 607.445312 1062.492188 617.632812 C 1081.175781 625.328125 1086.980469 625.96875 1129.449219 625.242188 C 1175.058594 624.464844 1176.394531 624.691406 1199.320312 635.324219 C 1212.167969 641.285156 1227.867188 649.269531 1234.292969 653.082031 C 1248.472656 661.5 1262.875 662.09375 1266.273438 654.382812 C 1270.289062 645.28125 1243.324219 627.621094 1192.667969 606.316406 C 1142.292969 585.128906 1137.015625 579.203125 1160.238281 569.566406 C 1173.441406 564.082031 1174.359375 564.1875 1195.285156 573.402344 C 1212.058594 580.789062 1219.730469 582.378906 1230.480469 580.625 L 1244.230469 578.347656 L 1213.964844 558.769531 C 1197.324219 548.003906 1181.226562 536.582031 1178.171875 533.335938 C 1169.332031 523.949219 1152.242188 517.726562 1135.425781 517.726562 C 1127.546875 517.726562 1120.1875 516.53125 1118.164062 515.058594 C 1118.097656 515.007812 1117.992188 514.914062 1117.941406 514.863281 C 1117.929688 514.851562 1117.878906 514.808594 1117.867188 514.796875 C 1117.84375 514.773438 1117.808594 514.695312 1117.792969 514.667969 C 1113.0625 508.007812 1127.304688 504.84375 1167.035156 503.609375 C 1220.566406 501.945312 1227.929688 497.023438 1191.023438 487.609375 C 1176.289062 483.851562 1154.203125 479.09375 1141.929688 477.007812 C 1126.960938 474.460938 1118.660156 471.6875 1116.59375 468.484375 C 1116.367188 468.121094 1116.214844 467.691406 1116.148438 467.316406 C 1116.105469 467.035156 1116.105469 466.691406 1116.148438 466.40625 C 1116.332031 465.316406 1117.148438 464.167969 1118.539062 462.957031 C 1121.050781 460.769531 1133.0625 461.011719 1153.511719 463.738281 C 1176.433594 466.792969 1188.980469 467.476562 1191.25 465.363281 C 1193.609375 462.933594 1183.046875 456.886719 1159.714844 446.695312 C 1138.457031 437.410156 1111.625 422.382812 1099.410156 412.871094 C 1087.300781 403.445312 1069.3125 392.726562 1059.503906 389.066406 C 1046.554688 384.234375 1042.363281 380.957031 1044.035156 377.164062 C 1046.953125 370.542969 1067.328125 370.476562 1080.503906 377.03125 C 1085.855469 379.695312 1099.886719 381.847656 1111.664062 381.78125 L 1133.109375 381.652344 L 1118.914062 377.097656 C 1104.730469 372.558594 1066.15625 350.894531 1063.164062 346.007812 C 1063.109375 345.910156 1063.039062 345.761719 1063.015625 345.679688 C 1063.007812 345.648438 1063.019531 345.582031 1063.015625 345.550781 C 1063.015625 345.542969 1063.015625 345.496094 1063.015625 345.484375 C 1063.019531 345.476562 1063.011719 345.429688 1063.015625 345.421875 C 1063.023438 345.414062 1063.082031 345.363281 1063.089844 345.355469 C 1063.105469 345.339844 1063.144531 345.308594 1063.164062 345.289062 C 1063.175781 345.28125 1063.226562 345.234375 1063.242188 345.226562 C 1064.816406 344.304688 1073.714844 343.914062 1084.386719 344.378906 L 1105.835938 345.355469 L 1074.972656 326.558594 C 1052.328125 312.785156 1038.375 306.855469 1022.4375 304.183594 C 1010.496094 302.179688 996.804688 299.800781 992.023438 298.914062 C 979.226562 296.542969 957.730469 278.855469 948.980469 263.464844 Z M 871.042969 344.835938 C 871.507812 344.820312 872.019531 344.835938 872.535156 344.835938 C 876.515625 344.835938 879.40625 345.601562 880.605469 346.785156 C 880.632812 346.816406 880.730469 346.886719 880.753906 346.917969 C 880.78125 346.945312 880.808594 347.019531 880.832031 347.046875 C 880.960938 347.222656 881.070312 347.441406 881.128906 347.632812 C 881.144531 347.679688 881.195312 347.777344 881.203125 347.828125 C 881.214844 347.894531 881.203125 348.019531 881.203125 348.085938 C 881.203125 348.136719 881.210938 348.230469 881.203125 348.28125 C 881.191406 348.371094 881.152344 348.519531 881.128906 348.609375 C 881.113281 348.660156 881.074219 348.75 881.054688 348.804688 C 880.222656 350.972656 875.742188 354.933594 871.042969 357.648438 C 867.449219 359.726562 865.300781 360.855469 864.089844 360.707031 C 864.007812 360.691406 863.867188 360.667969 863.792969 360.640625 C 863.757812 360.625 863.675781 360.59375 863.644531 360.578125 C 863.578125 360.539062 863.476562 360.433594 863.417969 360.382812 C 862.601562 359.59375 862.449219 357.484375 862.449219 353.746094 C 862.449219 346.90625 864.039062 345.035156 871.042969 344.835938 Z M 975.136719 353.292969 C 975.230469 353.289062 975.265625 353.292969 975.359375 353.292969 C 981.433594 353.292969 985.519531 355.535156 986.347656 359.273438 C 987.371094 363.910156 984.933594 365.195312 975.359375 365.195312 C 969.976562 365.195312 966.859375 364.753906 965.347656 363.570312 C 964.226562 362.648438 964.011719 361.265625 964.449219 359.273438 C 965.265625 355.59375 969.222656 353.359375 975.136719 353.292969 Z M 944.648438 355.308594 C 949.925781 354.984375 952.046875 357.449219 952.046875 362.722656 C 952.046875 369.070312 948.96875 371.050781 934.484375 373.976562 C 925.347656 375.820312 916.96875 376.667969 915.207031 375.992188 C 915.164062 375.972656 915.089844 375.945312 915.054688 375.925781 C 915.046875 375.921875 914.988281 375.867188 914.980469 375.863281 C 909.964844 371.496094 914.363281 365.894531 926.863281 360.707031 C 934.902344 357.367188 940.671875 355.550781 944.648438 355.308594 Z M 1014.816406 355.371094 C 1022.550781 355.171875 1023.527344 358.054688 1019.75 366.625 C 1018.449219 369.574219 1013.066406 371.960938 1007.792969 371.960938 C 1000.074219 371.960938 998.421875 370.484375 999.421875 364.347656 C 1000.3125 358.890625 1003.710938 356.402344 1011.378906 355.632812 C 1012.648438 355.503906 1013.789062 355.398438 1014.816406 355.371094 Z M 896.449219 371.960938 C 896.714844 371.941406 897.019531 371.960938 897.269531 371.960938 C 906.648438 371.960938 900.800781 385.921875 888.75 392.316406 C 878.023438 398.011719 866.617188 400.457031 863.417969 398.238281 C 863.40625 398.226562 863.359375 398.183594 863.34375 398.171875 C 863.136719 398.007812 862.945312 397.796875 862.820312 397.585938 C 862.804688 397.558594 862.761719 397.484375 862.746094 397.457031 C 862.726562 397.414062 862.6875 397.308594 862.671875 397.261719 C 862.660156 397.230469 862.605469 397.164062 862.597656 397.132812 C 862.585938 397.082031 862.605469 396.988281 862.597656 396.9375 C 862.585938 396.851562 862.523438 396.703125 862.523438 396.609375 C 862.523438 396.59375 862.523438 396.566406 862.523438 396.546875 C 862.78125 388.917969 885.367188 372.710938 896.449219 371.960938 Z M 984.550781 404.285156 C 989.019531 403.859375 991.851562 407.730469 990.304688 414.824219 C 989.445312 418.773438 984.976562 421.5 978.273438 422.171875 C 973.152344 422.6875 969.996094 422.507812 968.785156 421.394531 C 968.773438 421.382812 968.722656 421.339844 968.710938 421.328125 C 968.65625 421.273438 968.605469 421.195312 968.5625 421.132812 C 968.542969 421.109375 968.5 421.027344 968.484375 421.003906 C 968.480469 420.988281 968.417969 420.949219 968.410156 420.9375 C 968.378906 420.871094 968.359375 420.75 968.335938 420.679688 C 967.738281 418.785156 970.199219 415.261719 975.660156 409.554688 C 978.820312 406.25 981.960938 404.535156 984.550781 404.285156 Z M 949.503906 405.847656 C 949.722656 405.835938 949.917969 405.847656 950.101562 405.847656 C 959.078125 405.847656 960.527344 412.085938 952.417969 415.863281 C 948.675781 417.609375 945.039062 418.910156 943.824219 419.050781 C 943.785156 419.054688 943.710938 419.117188 943.675781 419.117188 C 943.644531 419.117188 943.550781 419.054688 943.527344 419.050781 C 942.851562 418.867188 937.894531 417.605469 932.542969 416.191406 L 922.828125 413.589844 L 933.8125 409.683594 C 939.464844 407.691406 946.25 406.046875 949.503906 405.847656 Z M 1025.054688 413.652344 C 1029.296875 413.476562 1033.886719 414.125 1038.355469 415.605469 C 1046.46875 418.289062 1048.042969 420.617188 1046.5 427.636719 C 1044.40625 437.171875 1037.8125 438.246094 1015.265625 432.582031 C 1004.1875 429.796875 1003.050781 428.460938 1006.597656 422.695312 C 1009.980469 417.191406 1016.957031 413.992188 1025.054688 413.652344 Z M 857.816406 415.996094 C 858.070312 415.992188 858.300781 415.996094 858.5625 415.996094 C 874.96875 415.996094 877.230469 418.246094 869.246094 426.53125 C 866.570312 429.308594 861.488281 433.539062 857.890625 435.898438 C 852.390625 439.503906 850.703125 439.121094 847.203125 433.425781 C 843.035156 426.648438 841.734375 422.191406 843.765625 419.507812 C 845.640625 417.113281 850.25 416.058594 857.816406 415.996094 Z M 814.621094 421.71875 C 821.621094 421.570312 825.933594 424.175781 831.511719 431.734375 L 839.355469 442.402344 L 827.625 445.980469 C 816.917969 449.230469 815.113281 448.617188 806.253906 438.761719 C 800.667969 432.546875 798.53125 428.425781 800.050781 425.816406 C 800.191406 425.585938 800.375 425.308594 800.574219 425.101562 C 800.625 425.050781 800.742188 424.957031 800.796875 424.90625 C 800.851562 424.855469 800.960938 424.757812 801.023438 424.710938 C 803.027344 423.128906 807.058594 422.269531 813.203125 421.847656 C 813.695312 421.816406 814.15625 421.726562 814.621094 421.71875 Z M 1073.03125 453.65625 C 1080.804688 453.160156 1088.738281 457.484375 1087.601562 464.453125 C 1086.15625 473.308594 1073.90625 475.867188 1063.839844 469.460938 C 1057.824219 465.636719 1057.605469 464.214844 1062.269531 458.664062 C 1064.941406 455.484375 1068.957031 453.914062 1073.03125 453.65625 Z M 926.339844 470.242188 C 926.625 470.226562 926.9375 470.242188 927.238281 470.242188 C 927.894531 470.242188 928.503906 470.351562 929.03125 470.503906 C 929.359375 470.601562 929.722656 470.734375 930 470.890625 C 930.078125 470.9375 930.226562 471.035156 930.300781 471.085938 C 930.335938 471.113281 930.414062 471.191406 930.449219 471.21875 C 930.484375 471.246094 930.566406 471.316406 930.597656 471.347656 C 930.632812 471.378906 930.714844 471.445312 930.75 471.476562 C 931.933594 472.683594 932.347656 474.75 931.871094 477.59375 C 930.328125 486.71875 922.671875 489.394531 919.390625 481.949219 C 916.460938 475.300781 919.304688 470.597656 926.339844 470.242188 Z M 877.320312 477.265625 C 880.613281 476.914062 886.023438 478.644531 891.441406 482.210938 C 895.125 484.632812 896.652344 486.988281 896.597656 488.714844 C 896.589844 488.875 896.558594 489.085938 896.523438 489.234375 C 896.5 489.328125 896.480469 489.472656 896.449219 489.558594 C 896.421875 489.628906 896.332031 489.753906 896.300781 489.820312 C 896.246094 489.917969 896.144531 490.054688 896.074219 490.144531 C 896.050781 490.175781 896.023438 490.246094 896 490.277344 C 895.976562 490.304688 895.878906 490.378906 895.851562 490.40625 C 895.726562 490.53125 895.554688 490.6875 895.402344 490.796875 C 895.367188 490.820312 895.289062 490.902344 895.253906 490.925781 C 893 492.300781 888.230469 491.976562 882.773438 488.648438 C 878.265625 485.898438 874.519531 482.304688 874.179688 480.453125 C 874.175781 480.425781 874.183594 480.351562 874.179688 480.324219 C 874.179688 480.296875 874.179688 480.222656 874.179688 480.195312 C 874.179688 478.429688 875.34375 477.480469 877.320312 477.265625 Z M 955.257812 478.566406 C 956.78125 478.464844 958.359375 479.640625 961.011719 481.949219 C 964.34375 484.851562 968.257812 490.402344 969.679688 494.308594 C 973.101562 503.691406 967.699219 507.609375 957.128906 503.351562 C 945.777344 498.773438 943.019531 491.535156 949.578125 483.382812 C 952.085938 480.269531 953.640625 478.679688 955.257812 478.566406 Z M 982.460938 491.316406 C 985.34375 491.003906 989.261719 494.414062 990.230469 500.164062 C 990.796875 503.515625 990.207031 506.371094 988.886719 507.253906 C 988.875 507.261719 988.824219 507.308594 988.8125 507.316406 C 988.773438 507.339844 988.703125 507.363281 988.664062 507.382812 C 988.609375 507.40625 988.492188 507.429688 988.4375 507.449219 C 988.425781 507.453125 988.378906 507.507812 988.363281 507.511719 C 988.347656 507.515625 988.304688 507.511719 988.289062 507.511719 C 988.261719 507.515625 988.167969 507.507812 988.140625 507.511719 C 988.125 507.515625 988.078125 507.511719 988.066406 507.511719 C 988.050781 507.511719 988.003906 507.511719 987.988281 507.511719 C 982.429688 507.511719 979.246094 503.554688 979.246094 496.519531 C 979.246094 493.15625 980.671875 491.507812 982.460938 491.316406 Z M 811.632812 504.847656 C 817.355469 504.839844 822.375 505.085938 825.683594 505.625 C 831.136719 506.515625 834.769531 507.746094 836.515625 509.203125 C 836.886719 509.519531 837.21875 509.902344 837.414062 510.246094 C 837.507812 510.417969 837.589844 510.652344 837.636719 510.828125 C 837.726562 511.1875 837.722656 511.617188 837.636719 512 C 836.988281 514.640625 832.1875 517.859375 823.289062 521.5625 C 815.910156 524.632812 803.425781 528.175781 795.492188 529.367188 C 782.316406 531.347656 780.507812 530.613281 775.015625 521.367188 C 771.761719 515.886719 769.121094 510.667969 769.039062 509.660156 C 769.039062 509.648438 769.035156 509.605469 769.039062 509.59375 C 769.042969 509.570312 769.027344 509.488281 769.039062 509.464844 C 769.042969 509.453125 769.105469 509.410156 769.113281 509.398438 C 769.132812 509.375 769.164062 509.292969 769.1875 509.269531 C 769.199219 509.257812 769.25 509.214844 769.261719 509.203125 C 772.015625 506.953125 794.835938 504.859375 811.632812 504.847656 Z M 1076.617188 535.285156 C 1091.960938 534.75 1100.238281 542.945312 1083.566406 553.109375 C 1072.839844 559.648438 1057.089844 559.910156 1047.324219 553.695312 C 1040.296875 549.222656 1040.652344 548.582031 1053.449219 541.792969 C 1061.542969 537.496094 1069.769531 535.527344 1076.617188 535.285156 Z M 1132.511719 544.847656 C 1132.785156 544.820312 1133.089844 544.847656 1133.335938 544.847656 C 1135.601562 544.839844 1140.835938 546.949219 1144.992188 549.597656 C 1152.398438 554.308594 1152.371094 554.621094 1143.125 563.191406 C 1138.335938 567.625 1133.457031 571.101562 1131.765625 571.386719 C 1131.75 571.390625 1131.703125 571.386719 1131.691406 571.386719 C 1131.675781 571.386719 1131.628906 571.386719 1131.617188 571.386719 C 1131.605469 571.386719 1131.550781 571.386719 1131.542969 571.386719 C 1131.53125 571.386719 1131.476562 571.386719 1131.464844 571.386719 C 1130.234375 571.089844 1123.480469 570.253906 1116.519531 569.5 C 1108.777344 568.664062 1103.890625 566.199219 1103.890625 563.191406 C 1103.890625 563.058594 1103.933594 562.882812 1103.964844 562.734375 C 1105.199219 557.667969 1124.359375 545.636719 1132.511719 544.847656 Z M 851.460938 558.378906 C 852.175781 558.347656 853.023438 558.378906 853.929688 558.378906 C 864.480469 558.378906 870.292969 565.234375 870.292969 577.695312 C 870.292969 594.441406 857.359375 593.097656 851.386719 575.746094 C 846.1875 560.636719 845.667969 558.632812 851.460938 558.378906 Z M 931.792969 563.125 C 938.15625 562.964844 953.550781 565.769531 955.558594 567.679688 C 955.566406 567.6875 955.625 567.734375 955.632812 567.746094 C 955.640625 567.753906 955.699219 567.800781 955.707031 567.808594 C 955.714844 567.820312 955.703125 567.863281 955.707031 567.875 C 955.710938 567.882812 955.777344 567.929688 955.78125 567.9375 C 955.785156 567.949219 955.78125 567.996094 955.78125 568.003906 C 955.78125 568.011719 955.78125 568.0625 955.78125 568.070312 C 955.78125 568.078125 955.785156 568.125 955.78125 568.132812 C 955.582031 569.429688 951.464844 574.707031 946.515625 579.972656 L 937.398438 589.664062 L 932.617188 577.175781 C 930.253906 570.949219 928.800781 565.335938 929.105469 563.90625 C 929.105469 563.894531 929.101562 563.851562 929.105469 563.839844 C 929.113281 563.820312 929.171875 563.792969 929.179688 563.777344 C 929.183594 563.769531 929.175781 563.71875 929.179688 563.710938 C 929.1875 563.695312 929.242188 563.660156 929.253906 563.644531 C 929.273438 563.632812 929.308594 563.59375 929.328125 563.582031 C 929.339844 563.574219 929.390625 563.523438 929.402344 563.515625 C 929.417969 563.511719 929.464844 563.523438 929.476562 563.515625 C 929.492188 563.511719 929.539062 563.457031 929.554688 563.453125 C 929.582031 563.441406 929.667969 563.398438 929.703125 563.386719 C 930.175781 563.242188 930.910156 563.148438 931.792969 563.125 Z M 892.710938 568.65625 C 893.863281 568.566406 895.667969 568.800781 898.167969 569.109375 C 903.175781 569.730469 907.785156 573.015625 908.554688 576.523438 C 909.488281 580.785156 908.96875 583.757812 907.65625 585.304688 C 907.554688 585.425781 907.398438 585.597656 907.285156 585.695312 C 907.152344 585.808594 906.976562 585.933594 906.835938 586.023438 C 906.78125 586.054688 906.667969 586.121094 906.613281 586.152344 C 906.351562 586.285156 906.007812 586.414062 905.714844 586.476562 C 905.589844 586.503906 905.398438 586.53125 905.265625 586.542969 C 905.046875 586.558594 904.753906 586.5625 904.519531 586.542969 C 901.921875 586.28125 898.558594 583.738281 895.625 578.800781 C 892.246094 573.113281 890.695312 570.417969 891.292969 569.304688 C 891.339844 569.226562 891.445312 569.105469 891.515625 569.046875 C 891.777344 568.84375 892.167969 568.699219 892.710938 568.65625 Z M 892.710938 568.65625 "/>
</g>
</svg>
