<?xml version="1.0" encoding="UTF-8"?>
<svg xmlns="http://www.w3.org/2000/svg" xmlns:xlink="http://www.w3.org/1999/xlink" width="1900pt" height="1000pt" viewBox="0 0 1900 1000" version="1.1">
<g id="surface1">
<rect x="0" y="0" width="1900" height="1000" style="fill:rgb(75.686275%,15.294118%,17.647059%);fill-opacity:1;stroke:none;"/>
<path style=" stroke:none;fill-rule:nonzero;fill:rgb(0%,38.431373%,20%);fill-opacity:1;" d="M 949.933594 333.332031 L 902.566406 448.800781 L 748.917969 448.90625 L 873.140625 520.261719 L 825.773438 635.832031 C 857.789062 617.296875 915.761719 584.074219 950 564.480469 L 1074.359375 635.78125 L 1026.859375 520.3125 L 1151.082031 448.855469 L 997.566406 448.855469 Z M 949.933594 412.394531 L 965.042969 448.800781 L 934.957031 448.855469 Z M 892.472656 473.230469 L 883.234375 495.886719 L 843.984375 473.332031 Z M 924.929688 473.230469 L 975.070312 473.230469 L 990.574219 510.9375 L 950 534.269531 L 909.425781 510.9375 Z M 1007.527344 473.230469 L 1055.953125 473.230469 L 1016.828125 495.886719 Z M 899.398438 535.417969 L 923.808594 549.324219 L 884.554688 571.875 Z M 1000.734375 535.417969 L 1015.578125 571.875 L 976.390625 549.375 L 976.390625 549.324219 Z M 1000.734375 535.417969 "/>
</g>
</svg>
