<?xml version="1.0" encoding="UTF-8"?>
<svg xmlns="http://www.w3.org/2000/svg" xmlns:xlink="http://www.w3.org/1999/xlink" width="1900pt" height="1000pt" viewBox="0 0 1900 1000" version="1.1">
<g id="surface1">
<rect x="0" y="0" width="1900" height="1000" style="fill:rgb(0%,16.862745%,49.803922%);fill-opacity:1;stroke:none;"/>
<path style=" stroke:none;fill-rule:nonzero;fill:rgb(100%,77.647059%,11.764706%);fill-opacity:1;" d="M 0 458.332031 L 1900 458.332031 L 1900 541.667969 L 0 541.667969 Z M 0 458.332031 "/>
<path style=" stroke:none;fill-rule:nonzero;fill:rgb(100%,100%,100%);fill-opacity:1;" d="M 475 875 L 454.511719 788.828125 L 395.832031 852.671875 L 419.019531 767.257812 L 337.878906 791.667969 L 398.53125 729.902344 L 316.667969 708.332031 L 398.53125 686.765625 L 337.878906 625 L 419.019531 649.40625 L 395.832031 563.996094 L 454.511719 627.839844 L 475 541.667969 L 495.488281 627.839844 L 554.167969 563.996094 L 530.980469 649.40625 L 612.121094 625 L 551.46875 686.765625 L 633.332031 708.332031 L 551.46875 729.902344 L 612.121094 791.667969 L 530.980469 767.257812 L 554.167969 852.671875 L 495.488281 788.828125 Z M 475 875 "/>
</g>
</svg>
