<?xml version="1.0" encoding="UTF-8"?>
<svg xmlns="http://www.w3.org/2000/svg" xmlns:xlink="http://www.w3.org/1999/xlink" width="1900pt" height="1000pt" viewBox="0 0 1900 1000" version="1.1">
<g id="surface1">
<rect x="0" y="0" width="1900" height="1000" style="fill:rgb(96.862745%,87.843137%,9.019608%);fill-opacity:1;stroke:none;"/>
<path style=" stroke:none;fill-rule:evenodd;fill:rgb(100%,100%,100%);fill-opacity:1;" d="M 1900 486.109375 L 1900 722.222656 L 0 305.554688 L 0 69.445312 Z M 1900 486.109375 "/>
<path style=" stroke:none;fill-rule:evenodd;fill:rgb(0%,0%,0%);fill-opacity:1;" d="M 1900 722.222656 L 1900 930.554688 L 0 513.890625 L 0 305.554688 Z M 1900 722.222656 "/>
<path style=" stroke:none;fill-rule:evenodd;fill:rgb(81.176471%,6.666667%,14.901961%);fill-opacity:1;" d="M 917.996094 791.273438 C 892.441406 787.710938 869.023438 779.148438 852.753906 767.421875 C 849.601562 765.152344 846.640625 763.292969 846.171875 763.292969 C 845.703125 763.292969 845.320312 765.816406 845.320312 768.9375 C 845.316406 777.796875 841.933594 782.246094 833.433594 784.566406 C 825.304688 786.785156 812.90625 782.308594 802.851562 773.527344 C 792.445312 764.429688 780.421875 757.492188 770.25 754.707031 C 761.867188 752.410156 750.753906 752.777344 742.714844 755.613281 C 738.984375 756.933594 734.726562 758.792969 733.253906 759.75 C 731.785156 760.707031 730.144531 761.488281 729.609375 761.488281 C 728.183594 761.488281 728.390625 751.96875 729.878906 748.933594 C 731.839844 744.941406 736.691406 741.015625 742.328125 738.851562 C 745.179688 737.757812 747.511719 736.347656 747.511719 735.71875 C 747.511719 735.089844 746.550781 732.808594 745.378906 730.648438 C 741.550781 723.597656 743.117188 716.761719 749.796875 711.390625 C 756.636719 705.894531 768.203125 704.941406 778.433594 709.035156 C 781.011719 710.066406 783.410156 710.910156 783.761719 710.910156 C 785.105469 710.914062 784.285156 708.9375 780.585938 703.246094 C 776.300781 696.664062 775.457031 693.414062 775.996094 685.589844 C 776.675781 675.660156 784.359375 667.554688 793.765625 666.839844 C 801.445312 666.253906 806.226562 668.96875 817.550781 680.335938 C 851.402344 714.3125 888.199219 733.027344 931.121094 738.097656 C 941.953125 739.378906 963.746094 738.691406 976.53125 736.664062 C 1015.152344 730.542969 1054.066406 710.105469 1084.457031 679.972656 C 1092.871094 671.625 1096.917969 669.414062 1103.824219 669.386719 C 1109.824219 669.363281 1114.03125 671.398438 1118.332031 676.410156 C 1122.257812 680.984375 1123.582031 685.335938 1123.160156 692.285156 C 1122.890625 696.753906 1122.195312 698.941406 1119.679688 703.257812 C 1115.957031 709.644531 1116.589844 710.230469 1123.949219 707.21875 C 1133.902344 703.144531 1146.15625 705.023438 1152.773438 711.636719 C 1158.589844 717.453125 1159.140625 723.273438 1154.625 731.167969 C 1152.972656 734.054688 1151.621094 736.769531 1151.621094 737.195312 C 1151.621094 737.988281 1152.875 738.363281 1158.914062 739.382812 C 1166.820312 740.71875 1171.355469 746.90625 1171.355469 756.355469 C 1171.355469 759.175781 1171.023438 761.488281 1170.617188 761.488281 C 1170.210938 761.488281 1167.21875 760.332031 1163.964844 758.921875 C 1154.746094 754.921875 1149.507812 753.886719 1138.753906 753.957031 C 1130.550781 754.011719 1127.726562 754.417969 1122.023438 756.375 C 1113.261719 759.382812 1103.910156 765.1875 1096.28125 772.351562 C 1087.882812 780.238281 1082.597656 782.726562 1074.40625 782.648438 C 1066.808594 782.574219 1061.613281 780.242188 1058.867188 775.675781 C 1057.402344 773.234375 1057.195312 771.746094 1057.546875 766.230469 C 1057.78125 762.628906 1057.738281 759.679688 1057.453125 759.679688 C 1057.167969 759.679688 1054.207031 761.660156 1050.871094 764.078125 C 1042.113281 770.421875 1036.523438 773.554688 1026.5 777.730469 C 995.914062 790.480469 951.785156 795.988281 917.996094 791.273438 Z M 917.996094 791.273438 "/>
<path style=" stroke:none;fill-rule:evenodd;fill:rgb(100%,80%,0%);fill-opacity:1;" d="M 1059.148438 749.648438 C 1064.589844 746.722656 1071.71875 739.082031 1074.640625 733.039062 C 1076.96875 728.222656 1077.296875 726.5625 1077.574219 718.136719 C 1077.832031 710.367188 1077.613281 708.082031 1076.363281 705.492188 C 1074.960938 702.59375 1074.515625 702.332031 1071.007812 702.332031 C 1067.613281 702.332031 1066.957031 702.679688 1065.214844 705.402344 C 1062.703125 709.324219 1062.449219 717.796875 1064.753906 720.792969 C 1066.191406 722.664062 1066.394531 722.6875 1069.445312 721.34375 C 1073.6875 719.480469 1074.40625 719.570312 1074.394531 721.976562 C 1074.371094 728.109375 1066.023438 739.917969 1057.261719 746.210938 C 1054.90625 747.90625 1052.789062 749.800781 1052.5625 750.421875 C 1051.925781 752.167969 1055.164062 751.785156 1059.148438 749.648438 Z M 1059.148438 749.648438 "/>
<path style=" stroke:none;fill-rule:evenodd;fill:rgb(100%,83.137255%,16.470588%);fill-opacity:1;" d="M 938.183594 783.082031 C 943.453125 781.246094 946.449219 777.894531 948.601562 771.421875 C 949.675781 768.195312 950.402344 764.839844 950.214844 763.972656 C 949.765625 761.902344 947.5 762.007812 944.984375 764.210938 C 943.265625 765.71875 943.058594 766.488281 943.554688 769.5625 C 944.804688 777.351562 942.179688 779.28125 928.183594 780.859375 C 926.804688 781.015625 922.789062 780.765625 919.257812 780.304688 C 912.609375 779.433594 910.234375 780.128906 912.644531 782.234375 C 913.375 782.871094 915.226562 783.730469 916.753906 784.144531 C 920.480469 785.152344 934.1875 784.472656 938.183594 783.082031 Z M 938.183594 783.082031 "/>
<path style=" stroke:none;fill-rule:evenodd;fill:rgb(100%,83.137255%,16.470588%);fill-opacity:1;" d="M 967.175781 781.789062 C 967.96875 781.035156 970.6875 779.714844 973.21875 778.855469 C 976.59375 777.710938 978.339844 776.484375 979.761719 774.257812 C 983.871094 767.820312 983.105469 762.285156 977.070312 754.800781 C 973.800781 750.746094 972.347656 750.859375 969.738281 755.359375 C 967.484375 759.253906 967.535156 759.5 970.785156 760.386719 C 972.484375 760.847656 974.117188 762.164062 975.015625 763.796875 C 978.550781 770.234375 977.511719 774.222656 972.277344 774.265625 C 967.523438 774.308594 966.21875 775.015625 964.933594 778.253906 C 964.269531 779.929688 963.726562 781.71875 963.726562 782.230469 C 963.726562 783.597656 965.519531 783.367188 967.175781 781.789062 Z M 967.175781 781.789062 "/>
<path style=" stroke:none;fill-rule:evenodd;fill:rgb(100%,83.137255%,16.470588%);fill-opacity:1;" d="M 957.671875 774.515625 C 958.566406 771.957031 958.875 767.363281 958.78125 757.988281 C 958.707031 750.847656 958.441406 744.785156 958.183594 744.515625 C 957.394531 743.683594 953.488281 746.328125 952.96875 748.039062 C 952.703125 748.929688 953.132812 750.980469 953.929688 752.601562 C 955.144531 755.078125 955.304688 757.398438 954.929688 767.136719 C 954.457031 779.445312 955.222656 781.511719 957.671875 774.515625 Z M 957.671875 774.515625 "/>
<path style=" stroke:none;fill-rule:evenodd;fill:rgb(100%,83.137255%,16.470588%);fill-opacity:1;" d="M 935.34375 768.652344 C 935.8125 766.355469 936.421875 761.667969 936.703125 758.242188 C 936.980469 754.8125 937.644531 750.46875 938.171875 748.589844 C 939.523438 743.792969 938.164062 742.523438 934.570312 745.21875 L 931.878906 747.238281 L 932.441406 754.136719 C 932.949219 760.355469 932.019531 771.964844 930.652344 776.460938 C 930.292969 777.648438 930.816406 777.34375 932.308594 775.511719 C 933.511719 774.035156 934.875 770.949219 935.34375 768.652344 Z M 935.34375 768.652344 "/>
<path style=" stroke:none;fill-rule:evenodd;fill:rgb(100%,83.137255%,16.470588%);fill-opacity:1;" d="M 915.542969 772.003906 C 918.683594 768.976562 919.328125 767.089844 920.519531 757.421875 C 921.128906 752.457031 921.878906 747.070312 922.183594 745.457031 C 922.863281 741.839844 921.507812 741.59375 917.859375 744.667969 C 915.46875 746.679688 915.378906 746.996094 916.277344 750.074219 C 917.464844 754.15625 916.402344 764.253906 914.449219 767.390625 C 912.96875 769.769531 909.929688 770.308594 907.066406 768.695312 C 905.808594 767.988281 905.550781 767.15625 905.941406 765.097656 C 906.671875 761.246094 904.574219 760.796875 898.78125 763.554688 C 893.363281 766.132812 891.273438 765.910156 892.011719 762.824219 C 892.304688 761.585938 891.992188 760.351562 891.210938 759.667969 C 890.023438 758.628906 888.855469 758.652344 880.929688 759.871094 C 879.605469 760.074219 879.214844 759.617188 879.214844 757.875 C 879.214844 756.632812 878.945312 755.1875 878.621094 754.660156 C 878.28125 754.117188 874.457031 753.644531 869.707031 753.558594 C 860.554688 753.398438 854.070312 751.804688 849.570312 748.613281 C 844.980469 745.359375 844.574219 742.792969 847.644531 736.519531 C 849.070312 733.613281 850.683594 729.777344 851.230469 727.996094 C 851.777344 726.214844 853.375 723.597656 854.78125 722.179688 C 856.1875 720.765625 857.335938 719.222656 857.335938 718.753906 C 857.335938 717.554688 851.558594 718.671875 849.144531 720.339844 C 847.503906 721.46875 847.226562 722.265625 847.609375 724.746094 C 848.128906 728.109375 846.101562 733.113281 842.285156 737.886719 C 838.089844 743.132812 831.917969 740.976562 823.71875 731.402344 C 820.628906 727.792969 819.46875 726.960938 818.679688 727.777344 C 817.203125 729.304688 818.363281 734.625 820.667969 736.894531 C 823.261719 739.445312 833.226562 744.324219 835.886719 744.339844 C 838.5625 744.359375 839.414062 745.011719 841.035156 748.28125 C 843.085938 752.417969 856.160156 756.613281 868.914062 757.21875 C 872.949219 757.410156 873.222656 757.582031 873.636719 760.132812 C 874.074219 762.820312 874.128906 762.84375 880.292969 763.109375 C 886.488281 763.371094 887.375 763.824219 885.535156 765.761719 C 885 766.324219 884.800781 767.441406 885.09375 768.238281 C 885.53125 769.445312 886.542969 769.605469 890.988281 769.167969 C 893.941406 768.875 897.128906 768.445312 898.078125 768.210938 C 899.382812 767.886719 900.117188 768.5 901.09375 770.730469 C 902.082031 772.996094 903.074219 773.8125 905.382812 774.246094 C 909.617188 775.046875 913.203125 774.253906 915.542969 772.003906 Z M 915.542969 772.003906 "/>
<path style=" stroke:none;fill-rule:evenodd;fill:rgb(100%,80%,0%);fill-opacity:1;" d="M 1030.09375 767.039062 C 1037.8125 763.039062 1042.363281 758.539062 1045.289062 752.023438 C 1046.671875 748.9375 1047.808594 746.007812 1047.808594 745.515625 C 1047.808594 744.394531 1044.007812 742.523438 1041.734375 742.523438 C 1039.457031 742.523438 1038.992188 740.878906 1039.96875 736.304688 C 1040.917969 731.847656 1039.78125 726.265625 1037.917969 726.265625 C 1037.246094 726.265625 1036.046875 727.300781 1035.261719 728.5625 C 1034.042969 730.523438 1033.984375 731.359375 1034.875 734.207031 C 1036.199219 738.433594 1035.160156 741.589844 1031.566406 744.285156 C 1029.863281 745.558594 1028.929688 747.03125 1028.929688 748.453125 C 1028.929688 749.660156 1029.074219 750.648438 1029.253906 750.648438 C 1029.429688 750.648438 1031.304688 749.632812 1033.421875 748.386719 L 1037.265625 746.125 L 1039.535156 748 C 1040.78125 749.03125 1041.800781 750.714844 1041.800781 751.738281 C 1041.800781 756.671875 1028.414062 764.988281 1019.21875 765.765625 C 1014.328125 766.179688 1013.488281 766.003906 1011.792969 764.21875 C 1010.410156 762.765625 1010.007812 761.535156 1010.351562 759.8125 C 1010.613281 758.5 1011.089844 756.101562 1011.40625 754.488281 C 1012.257812 750.183594 1010.488281 750.769531 1007.464844 755.792969 C 1004.964844 759.9375 1004.222656 764.371094 1005.632812 766.714844 C 1006.777344 768.609375 1014.402344 770.425781 1019.796875 770.085938 C 1023.1875 769.871094 1026.535156 768.882812 1030.09375 767.039062 Z M 1030.09375 767.039062 "/>
<path style=" stroke:none;fill-rule:evenodd;fill:rgb(81.176471%,6.666667%,14.901961%);fill-opacity:1;" d="M 1067.894531 714.980469 C 1065.851562 711.703125 1067.078125 707.75 1070.136719 707.75 C 1071.949219 707.75 1072.296875 708.21875 1072.515625 710.957031 C 1072.699219 713.246094 1072.285156 714.628906 1071.082031 715.777344 C 1069.445312 717.332031 1069.339844 717.304688 1067.894531 714.980469 Z M 1067.894531 714.980469 "/>
<path style=" stroke:none;fill-rule:evenodd;fill:rgb(100%,80%,0%);fill-opacity:1;" d="M 1081.605469 736.796875 C 1086.453125 731.695312 1088.511719 725.484375 1088.539062 715.894531 L 1088.5625 708.679688 L 1092.566406 706.679688 C 1097.78125 704.074219 1102.71875 698.867188 1102.71875 695.980469 C 1102.71875 693.015625 1101.464844 693.167969 1099.191406 696.402344 C 1097.542969 698.75 1095.335938 700.171875 1087.273438 704.066406 C 1085.238281 705.050781 1085.105469 705.578125 1084.644531 714.554688 C 1084.109375 724.90625 1082.769531 728.78125 1077.285156 735.839844 C 1073.929688 740.160156 1073.796875 740.714844 1076.144531 740.714844 C 1077.097656 740.714844 1079.558594 738.953125 1081.605469 736.796875 Z M 1081.605469 736.796875 "/>
<path style=" stroke:none;fill-rule:evenodd;fill:rgb(100%,83.137255%,16.470588%);fill-opacity:1;" d="M 836.6875 729.953125 C 838.152344 728.007812 840.339844 724.042969 841.550781 721.148438 C 842.761719 718.25 844.5625 714.960938 845.554688 713.835938 C 847.882812 711.199219 846.578125 709.574219 842.832031 710.441406 C 840.851562 710.898438 840.054688 711.671875 839.714844 713.46875 C 838.59375 719.363281 836.566406 725.382812 834.765625 728.1875 C 831.492188 733.28125 831.414062 733.492188 832.757812 733.492188 C 833.457031 733.492188 835.222656 731.898438 836.6875 729.953125 Z M 836.6875 729.953125 "/>
<path style=" stroke:none;fill-rule:evenodd;fill:rgb(100%,80%,0%);fill-opacity:1;" d="M 1028.71875 731.007812 C 1029.1875 729.523438 1026.496094 728.464844 1025.34375 729.679688 C 1024.851562 730.199219 1024.71875 731.085938 1025.054688 731.65625 C 1025.8125 732.945312 1028.238281 732.515625 1028.71875 731.007812 Z M 1028.71875 731.007812 "/>
<path style=" stroke:none;fill-rule:evenodd;fill:rgb(100%,83.137255%,16.470588%);fill-opacity:1;" d="M 818.75 721.285156 C 823.125 718.949219 827.304688 713.5 827.304688 710.128906 C 827.304688 707.925781 823.789062 705.492188 820.601562 705.492188 C 819.1875 705.492188 816.527344 706.710938 814.402344 708.332031 C 807.746094 713.40625 800.632812 712.371094 796.738281 705.761719 C 793.535156 700.324219 790.191406 697.363281 787.242188 697.363281 C 783.554688 697.363281 783.40625 699.800781 787.011719 701.125 C 788.757812 701.765625 790.207031 703.3125 791.402344 705.820312 C 794.910156 713.167969 796.957031 714.476562 806.285156 715.328125 L 812.289062 715.878906 L 812.554688 719.71875 C 812.699219 721.828125 813.195312 723.554688 813.65625 723.554688 C 814.117188 723.554688 816.410156 722.535156 818.75 721.285156 Z M 818.75 721.285156 "/>
<path style=" stroke:none;fill-rule:evenodd;fill:rgb(81.176471%,6.666667%,14.901961%);fill-opacity:1;" d="M 817.320312 714.976562 C 816.554688 712.875 817.632812 710.910156 819.558594 710.910156 C 821.316406 710.910156 821.734375 712.28125 820.777344 714.902344 C 820.117188 716.710938 817.96875 716.757812 817.320312 714.976562 Z M 817.320312 714.976562 "/>
<path style=" stroke:none;fill-rule:evenodd;fill:rgb(100%,80%,0%);fill-opacity:1;" d="M 1101.644531 711.136719 C 1102.113281 709.65625 1099.425781 708.597656 1098.273438 709.808594 C 1097.78125 710.328125 1097.648438 711.21875 1097.980469 711.785156 C 1098.738281 713.078125 1101.167969 712.648438 1101.644531 711.136719 Z M 1101.644531 711.136719 "/>
<path style=" stroke:none;fill-rule:evenodd;fill:rgb(81.176471%,6.666667%,14.901961%);fill-opacity:1;" d="M 931.980469 729.398438 C 931.273438 729.253906 927.21875 728.652344 922.96875 728.066406 C 901.101562 725.054688 875.082031 715.539062 856.011719 703.578125 C 812.980469 676.597656 781.507812 629.773438 771.605469 578.007812 C 760.289062 518.839844 768.351562 467.9375 794.90625 430.847656 C 799.746094 424.09375 804.84375 418.511719 803.902344 421.003906 C 803.621094 421.75 801.605469 426.921875 799.421875 432.5 C 787.148438 463.847656 785.625 496.992188 794.753906 533.898438 C 798.367188 548.507812 801.765625 557.898438 808.152344 570.945312 C 830.527344 616.628906 872.445312 650.328125 918.679688 659.800781 C 922.457031 660.574219 929.597656 662.027344 934.554688 663.03125 C 947.574219 665.664062 954.660156 665.398438 972.265625 661.621094 C 988.714844 658.089844 1001.972656 653.898438 1013.902344 648.453125 C 1050.105469 631.925781 1080.195312 600.386719 1095.617188 562.796875 C 1106.175781 537.0625 1111.140625 499.292969 1107.78125 470.226562 C 1105.75 452.664062 1100.496094 433.4375 1094.019531 419.875 C 1092.65625 417.019531 1091.914062 414.683594 1092.371094 414.683594 C 1093.792969 414.683594 1103.605469 427.3125 1109.34375 436.527344 C 1121.988281 456.84375 1130.542969 482.066406 1133.597656 508.0625 C 1136.109375 529.433594 1133.9375 563.664062 1128.808594 583.519531 C 1118.273438 624.296875 1095.21875 663.027344 1067.328125 686.792969 C 1037.777344 711.972656 1006.394531 725.015625 965.871094 728.957031 C 957.367188 729.785156 935.214844 730.074219 931.980469 729.398438 Z M 931.980469 729.398438 "/>
<path style=" stroke:none;fill-rule:evenodd;fill:rgb(100%,80%,0%);fill-opacity:1;" d="M 1006.820312 712.019531 C 1007.636719 711.273438 1008.554688 709.265625 1008.859375 707.554688 C 1009.164062 705.84375 1009.847656 704.320312 1010.378906 704.167969 C 1010.910156 704.015625 1012.972656 703.425781 1014.964844 702.859375 C 1017.402344 702.160156 1019.328125 700.800781 1020.84375 698.710938 C 1024.28125 693.964844 1023.957031 687.835938 1019.492188 673.371094 C 1017.511719 666.945312 1015.605469 660.675781 1015.261719 659.433594 C 1014.4375 656.484375 1013.710938 656.585938 1011.207031 660.003906 L 1009.136719 662.828125 L 1011.289062 665.523438 C 1014.140625 669.09375 1018.746094 683.753906 1018.878906 689.691406 C 1018.949219 692.859375 1018.476562 695.226562 1017.449219 696.878906 C 1015.792969 699.542969 1016.644531 699.488281 1004.265625 697.707031 C 1001.515625 697.3125 999.765625 697.648438 997.160156 699.078125 C 992.578125 701.59375 990.507812 701.492188 989.296875 698.695312 C 987.796875 695.226562 986.460938 696.546875 986.460938 701.503906 L 986.460938 705.945312 L 995.851562 705.945312 L 996.398438 709.425781 C 996.699219 711.339844 997.449219 713.234375 998.0625 713.632812 C 999.625 714.648438 1005.035156 713.652344 1006.820312 712.019531 Z M 1006.820312 712.019531 "/>
<path style=" stroke:none;fill-rule:evenodd;fill:rgb(83.137255%,0%,0%);fill-opacity:1;" d="M 1000.113281 707.757812 C 998.332031 704.890625 999.085938 702.785156 1001.898438 702.785156 C 1003.445312 702.785156 1004.332031 703.445312 1004.90625 705.035156 C 1006.632812 709.816406 1002.765625 712.015625 1000.113281 707.757812 Z M 1000.113281 707.757812 "/>
<path style=" stroke:none;fill-rule:evenodd;fill:rgb(100%,80%,0%);fill-opacity:1;" d="M 891.527344 703.65625 C 894.230469 702.433594 897.445312 699.859375 900.148438 696.753906 L 904.453125 691.804688 L 909.421875 692.441406 C 915.574219 693.226562 915.679688 693.289062 915.679688 696.382812 C 915.679688 698.84375 915.832031 698.925781 921.46875 699.484375 C 924.65625 699.800781 928.855469 700.0625 930.800781 700.066406 C 933.300781 700.070312 934.691406 700.582031 935.519531 701.800781 C 936.628906 703.425781 937.273438 703.472656 946.558594 702.589844 C 955.242188 701.769531 956.953125 701.847656 960.871094 703.246094 C 963.652344 704.242188 966.710938 704.675781 969.03125 704.398438 C 975.679688 703.609375 984.878906 697.851562 986.210938 693.644531 C 986.371094 693.136719 988.78125 692.242188 991.5625 691.65625 C 998.28125 690.242188 998.585938 688.726562 992.320312 687.902344 C 989.605469 687.542969 985.519531 686.480469 983.242188 685.535156 C 980.96875 684.589844 977.855469 683.816406 976.324219 683.816406 C 972.953125 683.816406 969.730469 686.015625 969.730469 688.320312 C 969.730469 689.816406 970.242188 689.953125 974.234375 689.527344 C 978 689.125 979.128906 689.371094 981.105469 691.019531 C 982.410156 692.105469 983.25 693.375 982.976562 693.839844 C 982.09375 695.347656 974.261719 699.109375 970.789062 699.695312 C 968.472656 700.082031 966.582031 699.808594 964.753906 698.8125 C 961.710938 697.15625 957.234375 696.902344 956.390625 698.335938 C 956.027344 698.957031 955.078125 698.574219 953.761719 697.269531 L 951.699219 695.230469 L 947.019531 697.273438 C 942.28125 699.339844 940.558594 699.230469 940.558594 696.855469 C 940.558594 695.765625 939.167969 695.644531 932.195312 696.117188 C 924.496094 696.640625 923.703125 696.542969 922.269531 694.855469 C 920.941406 693.296875 920.875 692.742188 921.816406 691.152344 C 922.695312 689.671875 922.707031 689.050781 921.871094 688.171875 C 921.039062 687.296875 919.992188 687.289062 916.949219 688.148438 C 909.304688 690.300781 907.097656 689.105469 907.097656 682.820312 C 907.097656 677.316406 902.828125 674.960938 898.558594 678.109375 C 891.546875 683.277344 889.730469 689.394531 894.492188 691.789062 C 897.996094 693.546875 897.105469 695.625 891.601562 698.523438 C 883.726562 702.671875 876.789062 702.144531 863.589844 696.390625 C 860.339844 694.972656 859.503906 695.542969 860.25 698.664062 C 860.980469 701.730469 863.628906 703.40625 870.257812 705 C 877.375 706.710938 885.984375 706.167969 891.527344 703.65625 Z M 891.527344 703.65625 "/>
<path style=" stroke:none;fill-rule:evenodd;fill:rgb(81.176471%,6.666667%,14.901961%);fill-opacity:1;" d="M 897.921875 685.945312 C 897.589844 685.035156 898 683.984375 898.984375 683.226562 C 900.34375 682.179688 900.769531 682.191406 901.8125 683.289062 C 902.488281 684 902.808594 685.222656 902.523438 686.003906 C 901.839844 687.878906 898.613281 687.839844 897.921875 685.945312 Z M 897.921875 685.945312 "/>
<path style=" stroke:none;fill-rule:evenodd;fill:rgb(100%,80%,0%);fill-opacity:1;" d="M 886.792969 688.335938 C 891.457031 685.222656 891.347656 685.464844 892.015625 676.816406 C 892.488281 670.722656 892.40625 670.269531 890.832031 670.269531 C 888.554688 670.269531 887.363281 672.902344 887.363281 677.929688 C 887.363281 681.144531 886.886719 682.597656 885.257812 684.308594 C 881.382812 688.390625 871.742188 686.527344 870.535156 681.464844 C 870.117188 679.714844 870.644531 678.152344 872.667969 675.132812 C 876.875 668.847656 875.921875 667.3125 870.765625 672.078125 C 867.222656 675.351562 866.582031 675.453125 867.253906 672.625 C 867.875 670.027344 866.589844 668.992188 863.695312 669.757812 C 862.210938 670.148438 861.417969 671.132812 861.058594 673.015625 C 860.710938 674.863281 859.90625 675.882812 858.507812 676.253906 C 856.167969 676.871094 852.1875 674.539062 852.1875 672.554688 C 852.1875 671.082031 858.148438 663.421875 865.8125 655.050781 C 868.699219 651.894531 871.0625 648.949219 871.0625 648.503906 C 871.0625 648.058594 869.519531 647.691406 867.628906 647.691406 C 864.867188 647.691406 864.199219 648.015625 864.199219 649.359375 C 864.199219 650.273438 860.339844 655.601562 855.617188 661.195312 C 845.777344 672.859375 844.960938 675.285156 849.828125 678.410156 C 853.75 680.925781 858.769531 680.734375 862.710938 677.914062 L 865.914062 675.625 L 865.914062 679.78125 C 865.914062 685.085938 866.917969 686.992188 870.875 689.1875 C 875.847656 691.953125 881.859375 691.628906 886.792969 688.335938 Z M 886.792969 688.335938 "/>
<path style=" stroke:none;fill-rule:evenodd;fill:rgb(100%,80%,0%);fill-opacity:1;" d="M 1028.511719 683.289062 C 1028.523438 677.554688 1028.664062 677.070312 1030.230469 677.363281 C 1040.054688 679.214844 1044.597656 677.832031 1048.839844 671.699219 C 1051.160156 668.347656 1051.363281 667.496094 1051.054688 662.285156 L 1050.71875 656.558594 L 1055.484375 657.160156 C 1064.121094 658.25 1064.21875 658.304688 1063.617188 662.019531 C 1061.980469 672.15625 1058.972656 677.742188 1051.546875 684.417969 C 1046.355469 689.085938 1046.371094 691.371094 1051.574219 688.773438 C 1055.980469 686.570312 1061.09375 681.039062 1063.84375 675.496094 C 1065.867188 671.425781 1066.222656 669.609375 1066.257812 663.171875 C 1066.296875 656.398438 1066.503906 655.449219 1068.285156 653.929688 C 1069.777344 652.65625 1071.4375 652.289062 1074.984375 652.449219 C 1079.242188 652.640625 1079.90625 652.40625 1081.839844 650.039062 C 1083.527344 647.976562 1083.875 646.800781 1083.46875 644.515625 C 1082.71875 640.308594 1083.5625 638.839844 1088.128906 636.40625 C 1094.308594 633.109375 1096.710938 629.597656 1096.710938 623.863281 C 1096.710938 618.585938 1095.164062 615.476562 1092.976562 616.359375 C 1091.3125 617.03125 1091.066406 621.59375 1092.558594 624.101562 C 1093.105469 625.023438 1093.308594 626.4375 1093.015625 627.246094 C 1092.214844 629.4375 1087.585938 632.085938 1083.386719 632.746094 C 1078.089844 633.582031 1074.425781 636.5625 1071.660156 642.28125 C 1067.265625 651.371094 1067.898438 650.953125 1064.0625 647.304688 C 1058.171875 641.703125 1052.964844 643.183594 1050.75 651.089844 L 1049.804688 654.464844 L 1048.21875 651.078125 C 1046.605469 647.636719 1044.691406 646.820312 1042.832031 648.777344 C 1041.167969 650.527344 1041.660156 653.292969 1044.390625 657.535156 C 1045.796875 659.722656 1046.949219 662.484375 1046.949219 663.679688 C 1046.949219 669.238281 1041.957031 673.734375 1037.183594 672.476562 C 1034.628906 671.800781 1032.363281 668.027344 1032.363281 664.445312 C 1032.363281 661.207031 1030.058594 661.511719 1029.363281 664.839844 C 1028.195312 670.4375 1025.808594 668.160156 1024.757812 660.453125 C 1024.050781 655.230469 1022.253906 654.949219 1020.042969 659.707031 C 1018.632812 662.75 1018.59375 663.316406 1019.71875 664.671875 C 1022.058594 667.503906 1025.726562 678.800781 1026.164062 684.527344 C 1026.761719 692.359375 1028.5 691.441406 1028.511719 683.289062 Z M 1028.511719 683.289062 "/>
<path style=" stroke:none;fill-rule:evenodd;fill:rgb(81.176471%,6.666667%,14.901961%);fill-opacity:1;" d="M 1056.839844 652.789062 C 1054.746094 651.179688 1055.707031 648.59375 1058.398438 648.59375 C 1060.847656 648.59375 1062.789062 650.726562 1062.085938 652.648438 C 1061.46875 654.34375 1058.949219 654.414062 1056.839844 652.789062 Z M 1056.839844 652.789062 "/>
<path style=" stroke:none;fill-rule:evenodd;fill:rgb(81.176471%,6.666667%,14.901961%);fill-opacity:1;" d="M 1075.679688 646.746094 C 1075.007812 644.523438 1076.578125 642.273438 1078.800781 642.273438 C 1080.445312 642.273438 1080.910156 644.363281 1079.890625 647.167969 C 1079.144531 649.210938 1076.335938 648.929688 1075.679688 646.746094 Z M 1075.679688 646.746094 "/>
<path style=" stroke:none;fill-rule:evenodd;fill:rgb(100%,80%,0%);fill-opacity:1;" d="M 851.175781 682.613281 C 851.339844 681.742188 850.90625 681.109375 850.15625 681.109375 C 848.5625 681.109375 847.601562 682.582031 848.355469 683.867188 C 849.128906 685.1875 850.84375 684.429688 851.175781 682.613281 Z M 851.175781 682.613281 "/>
<path style=" stroke:none;fill-rule:evenodd;fill:rgb(100%,80%,0%);fill-opacity:1;" d="M 918.25 674.71875 C 918.25 673.425781 917.789062 672.941406 916.761719 673.148438 C 914.523438 673.601562 914.273438 676.59375 916.472656 676.59375 C 917.699219 676.59375 918.25 676.011719 918.25 674.71875 Z M 918.25 674.71875 "/>
<path style=" stroke:none;fill-rule:evenodd;fill:rgb(100%,80%,0%);fill-opacity:1;" d="M 825.183594 666.996094 L 827.558594 663.71875 L 836.460938 664.347656 C 847.296875 665.113281 848.59375 664.472656 856.628906 654.414062 C 859.585938 650.71875 862.496094 647.691406 863.101562 647.691406 C 863.703125 647.691406 864.199219 646.675781 864.199219 645.433594 C 864.199219 642.160156 860.464844 642.304688 858.472656 645.660156 C 855.601562 650.488281 847.59375 659.597656 845.476562 660.445312 C 844.296875 660.917969 841.601562 661.035156 839.488281 660.699219 C 836.289062 660.195312 835.910156 659.941406 837.21875 659.171875 C 839.480469 657.835938 844.464844 652.433594 844.464844 651.3125 C 844.464844 649.851562 840.339844 648.523438 837.757812 649.148438 C 836.492188 649.457031 833.476562 650.855469 831.058594 652.257812 C 826.480469 654.910156 823.015625 654.976562 823.015625 652.410156 C 823.015625 651.644531 825.042969 648.710938 827.519531 645.894531 C 829.996094 643.078125 833.117188 639.488281 834.457031 637.910156 C 835.792969 636.335938 837.242188 635.046875 837.675781 635.046875 C 838.105469 635.046875 838.460938 634.4375 838.460938 633.695312 C 838.460938 632.730469 837.53125 632.339844 835.242188 632.339844 C 832.296875 632.339844 831.84375 632.691406 829.957031 636.433594 C 828.824219 638.6875 826.542969 641.777344 824.894531 643.304688 C 822.457031 645.554688 821.363281 645.984375 819.089844 645.597656 C 814.640625 644.839844 811.863281 642.46875 811.863281 639.433594 C 811.863281 637.984375 811.3125 636.574219 810.640625 636.304688 C 808.832031 635.574219 805.855469 637.574219 805.855469 639.523438 C 805.855469 642.835938 806.988281 644.199219 811.914062 646.816406 C 816.292969 649.144531 816.929688 649.824219 817.167969 652.417969 C 817.40625 655.03125 817.714844 655.347656 819.839844 655.191406 C 823.230469 654.945312 824.558594 658.125 822.671875 661.972656 C 821.203125 664.960938 820.808594 670.269531 822.054688 670.269531 C 822.472656 670.269531 823.878906 668.796875 825.183594 666.996094 Z M 825.183594 666.996094 "/>
<path style=" stroke:none;fill-rule:evenodd;fill:rgb(100%,0%,100%);fill-opacity:1;" d="M 829.023438 659.882812 C 829.023438 658.414062 829.804688 658.210938 832.027344 659.105469 C 833.167969 659.566406 833.222656 659.839844 832.3125 660.449219 C 830.53125 661.632812 829.023438 661.375 829.023438 659.882812 Z M 829.023438 659.882812 "/>
<path style=" stroke:none;fill-rule:evenodd;fill:rgb(81.176471%,6.666667%,14.901961%);fill-opacity:1;" d="M 832.453125 655.964844 C 832.453125 655.179688 836.210938 653.109375 837.640625 653.109375 C 839.3125 653.109375 838.390625 655.628906 836.527344 656.152344 C 833.828125 656.914062 832.453125 656.851562 832.453125 655.964844 Z M 832.453125 655.964844 "/>
<path style=" stroke:none;fill-rule:evenodd;fill:rgb(100%,80%,0%);fill-opacity:1;" d="M 889.507812 662.140625 C 889.507812 660.183594 886.160156 660.453125 885.796875 662.441406 C 885.5625 663.722656 885.945312 664.027344 887.503906 663.796875 C 888.605469 663.632812 889.507812 662.886719 889.507812 662.140625 Z M 889.507812 662.140625 "/>
<path style=" stroke:none;fill-rule:evenodd;fill:rgb(100%,80%,0%);fill-opacity:1;" d="M 1037.351562 648.355469 C 1037.691406 646.488281 1035.214844 645.230469 1033.90625 646.609375 C 1032.601562 647.984375 1033.796875 650.589844 1035.566406 650.230469 C 1036.390625 650.066406 1037.191406 649.222656 1037.351562 648.355469 Z M 1037.351562 648.355469 "/>
<path style=" stroke:none;fill-rule:evenodd;fill:rgb(100%,80%,0%);fill-opacity:1;" d="M 807.269531 629.292969 C 809.585938 627.195312 809.613281 627.054688 808.601562 622.453125 C 807.1875 615.988281 807.277344 615.292969 809.613281 614.675781 C 812.570312 613.894531 820.070312 618.128906 821.738281 621.519531 C 823.023438 624.140625 822.988281 624.320312 820.800781 626.457031 C 818.445312 628.757812 818.453125 631.4375 820.8125 631.4375 C 822.765625 631.4375 828.164062 626.058594 828.164062 624.121094 C 828.164062 621.445312 822.167969 615.113281 817.4375 612.789062 C 814.511719 611.351562 811.574219 610.679688 808.1875 610.671875 C 802.121094 610.660156 801.296875 612.039062 802.9375 619.472656 C 804.863281 628.179688 802.25 629.355469 795.582031 622.789062 C 790.636719 617.917969 788.691406 612.847656 788.710938 604.859375 C 788.730469 596.285156 791.84375 592.050781 798.851562 591.0625 C 803.511719 590.402344 803.402344 589.253906 798.605469 588.496094 C 791.617188 587.394531 785.703125 592.304688 783.457031 601.082031 C 780.96875 610.820312 786.675781 622.6875 796.78125 628.789062 C 802.074219 631.984375 804.183594 632.085938 807.269531 629.292969 Z M 807.269531 629.292969 "/>
<path style=" stroke:none;fill-rule:evenodd;fill:rgb(100%,80%,0%);fill-opacity:1;" d="M 1082.8125 618.609375 C 1083.378906 618.015625 1083.84375 616.671875 1083.84375 615.625 C 1083.84375 614.578125 1084.808594 612.347656 1085.988281 610.664062 C 1087.167969 608.980469 1088.132812 607.261719 1088.132812 606.847656 C 1088.132812 605.136719 1085.460938 605.195312 1083.335938 606.953125 C 1081.175781 608.742188 1079.550781 608.78125 1079.550781 607.046875 C 1079.550781 606.605469 1080.585938 605.714844 1081.847656 605.066406 C 1084.996094 603.453125 1085.261719 601.863281 1082.597656 600.585938 C 1079.195312 598.953125 1075.777344 601.929688 1075.429688 606.835938 C 1075.199219 610.117188 1075.453125 610.679688 1077.851562 612.164062 C 1080.050781 613.527344 1080.453125 614.253906 1080.085938 616.203125 C 1079.449219 619.570312 1080.78125 620.746094 1082.8125 618.609375 Z M 1082.8125 618.609375 "/>
<path style=" stroke:none;fill-rule:evenodd;fill:rgb(100%,80%,0%);fill-opacity:1;" d="M 1108.722656 615.527344 C 1110.609375 613.730469 1112.15625 611.699219 1112.15625 611.015625 C 1112.15625 610.332031 1113.796875 608.53125 1115.800781 607.015625 C 1121.492188 602.710938 1122.738281 598.359375 1120.199219 591.675781 C 1119.203125 589.058594 1116.085938 585.425781 1109.328125 579.011719 C 1104.117188 574.066406 1099.339844 570.023438 1098.710938 570.023438 C 1096.867188 570.023438 1097.195312 577.179688 1099.070312 577.808594 C 1102.453125 578.945312 1104.492188 580.394531 1109.804688 585.445312 C 1115.988281 591.320312 1118.835938 596.8125 1117.28125 599.867188 C 1115.785156 602.8125 1113.804688 601.902344 1108.355469 595.75 C 1105.492188 592.515625 1102.664062 589.875 1102.074219 589.878906 C 1101.449219 589.886719 1101 591.058594 1101 592.695312 C 1101 594.742188 1102.039062 596.710938 1104.863281 600.015625 C 1109.460938 605.402344 1109.914062 608.644531 1106.464844 611.5 C 1105.21875 612.53125 1103.945312 613.371094 1103.628906 613.371094 C 1103.3125 613.371094 1102.304688 611.769531 1101.386719 609.808594 C 1099.453125 605.6875 1087.675781 592.601562 1085.898438 592.601562 C 1085.101562 592.601562 1084.699219 593.65625 1084.699219 595.738281 C 1084.699219 598.25 1085.171875 599.132812 1087.070312 600.167969 C 1089.417969 601.445312 1095.1875 607.574219 1101 614.964844 C 1102.652344 617.066406 1104.292969 618.785156 1104.644531 618.785156 C 1105 618.789062 1106.832031 617.320312 1108.722656 615.527344 Z M 1108.722656 615.527344 "/>
<path style=" stroke:none;fill-rule:evenodd;fill:rgb(100%,80%,0%);fill-opacity:1;" d="M 1120.269531 580.703125 C 1119.503906 578.113281 1103.703125 560.992188 1102.078125 560.992188 C 1101.230469 560.992188 1100.976562 562.035156 1101.167969 564.769531 C 1101.398438 568.070312 1101.742188 568.632812 1103.894531 569.238281 C 1105.25 569.617188 1109.414062 573.050781 1113.144531 576.871094 C 1116.875 580.695312 1120.144531 583.589844 1120.410156 583.3125 C 1120.675781 583.03125 1120.613281 581.855469 1120.269531 580.703125 Z M 1120.269531 580.703125 "/>
<path style=" stroke:none;fill-rule:evenodd;fill:rgb(81.176471%,6.666667%,14.901961%);fill-opacity:1;" d="M 1224.414062 652.640625 C 1227.871094 652.257812 1231.347656 655.289062 1230.167969 659.164062 C 1229.878906 659.863281 1228.714844 661.222656 1226.773438 662.609375 C 1224.800781 664.019531 1222.039062 665.515625 1218.636719 666.871094 C 1211.832031 669.578125 1202.464844 671.671875 1191.550781 671.363281 C 1191.859375 671.363281 1192.648438 671.363281 1193.101562 671.363281 C 1182.023438 671.519531 1176.078125 670.4375 1168.332031 667.746094 C 1161.785156 665.492188 1156.136719 663.78125 1155.742188 657.6875 C 1155.742188 656.640625 1156.042969 656.023438 1156.546875 655.523438 C 1157.046875 655.023438 1157.824219 654.632812 1158.808594 654.40625 C 1160.777344 653.957031 1163.046875 655.152344 1165.023438 655.835938 C 1169.234375 657.292969 1178.15625 661.261719 1193.097656 661.363281 C 1200.976562 661.574219 1206.785156 659.601562 1212.796875 657.492188 C 1219.996094 654.96875 1221.003906 653.15625 1224.414062 652.640625 Z M 1224.414062 652.640625 "/>
<path style=" stroke:none;fill-rule:evenodd;fill:rgb(81.176471%,6.666667%,14.901961%);fill-opacity:1;" d="M 1264.652344 420.417969 C 1264.757812 420.425781 1264.84375 420.453125 1264.933594 420.484375 C 1265.292969 420.597656 1265.675781 420.875 1266.054688 421.632812 L 1266.054688 421.664062 C 1266.1875 421.898438 1266.519531 423.152344 1266.617188 424.878906 C 1266.714844 426.605469 1266.664062 428.859375 1266.523438 431.503906 C 1266.238281 436.796875 1265.507812 443.597656 1264.433594 450.855469 C 1262.289062 465.367188 1258.816406 481.742188 1255.148438 491.527344 C 1251.554688 500.585938 1243.683594 508.707031 1236.015625 516.027344 C 1228.355469 523.347656 1220.882812 529.734375 1218.195312 536.332031 C 1217.691406 537.511719 1217.453125 539.160156 1217.195312 541.511719 C 1216.9375 543.875 1216.746094 546.871094 1216.574219 550.367188 C 1216.230469 557.363281 1216.027344 566.339844 1215.949219 575.984375 C 1215.832031 591.308594 1215.980469 608.152344 1216.230469 621.511719 C 1215.871094 621.675781 1215.496094 621.847656 1215.109375 622.035156 C 1213.257812 622.929688 1211.082031 624.085938 1208.660156 625.25 C 1203.816406 627.578125 1197.964844 629.839844 1191.894531 629.644531 L 1191.863281 629.644531 C 1179.621094 629.550781 1174.167969 625.78125 1170.023438 624.101562 L 1169.992188 624.101562 C 1169.195312 623.78125 1168.324219 623.535156 1167.433594 623.378906 C 1167.589844 611.125 1168.667969 526.179688 1168.652344 511.4375 L 1168.652344 511.402344 C 1168.515625 507.367188 1172.152344 502.222656 1176.875 497.628906 C 1181.601562 493.03125 1187.199219 488.953125 1190.460938 486.378906 L 1190.492188 486.34375 L 1190.554688 486.3125 C 1192.496094 484.496094 1196.453125 480.105469 1200.183594 475.75 C 1202.050781 473.574219 1203.851562 471.398438 1205.261719 469.617188 C 1206.671875 467.835938 1207.644531 466.601562 1208.128906 465.582031 C 1208.265625 465.292969 1209.035156 464.234375 1210.09375 463.15625 C 1211.152344 462.078125 1212.515625 460.90625 1213.988281 459.910156 C 1215.457031 458.910156 1217.042969 458.085938 1218.445312 457.742188 C 1219.84375 457.402344 1220.996094 457.496094 1221.933594 458.105469 C 1222.773438 458.648438 1223.097656 459.515625 1223.054688 461.121094 C 1223.011719 462.726562 1222.460938 464.890625 1221.589844 467.15625 C 1219.851562 471.6875 1216.886719 476.730469 1214.734375 479.816406 C 1213.421875 481.703125 1212.210938 484.851562 1211.027344 488.507812 C 1209.84375 492.167969 1208.753906 496.273438 1207.972656 499.792969 C 1207.191406 503.3125 1206.679688 506.011719 1206.789062 507.730469 C 1206.816406 508.160156 1206.671875 508.664062 1207.445312 509.304688 C 1207.832031 509.625 1208.507812 509.679688 1208.878906 509.535156 C 1209.246094 509.386719 1209.433594 509.1875 1209.59375 509.007812 C 1210.234375 508.304688 1210.660156 507.382812 1211.371094 505.730469 L 1211.371094 505.695312 L 1211.402344 505.664062 C 1212.472656 502.78125 1216.652344 499.566406 1221.964844 496.316406 C 1227.277344 493.0625 1233.601562 489.660156 1238.695312 485.523438 C 1239.921875 484.476562 1240.234375 482.929688 1240.597656 481.097656 C 1240.960938 479.265625 1241.316406 476.980469 1242.0625 474.175781 C 1243.554688 468.570312 1246.636719 460.855469 1254.558594 451.054688 L 1254.960938 450.5625 L 1254.835938 449.90625 C 1253.101562 440.566406 1255.445312 431.578125 1258.640625 426.027344 C 1260.234375 423.25 1262.097656 421.359375 1263.4375 420.714844 C 1263.941406 420.46875 1264.339844 420.390625 1264.652344 420.417969 Z M 1264.652344 420.417969 "/>
<path style=" stroke:none;fill-rule:evenodd;fill:rgb(81.176471%,6.666667%,14.901961%);fill-opacity:1;" d="M 1251.566406 422.484375 C 1252.164062 422.5 1252.691406 422.738281 1253.1875 423.140625 C 1254.164062 423.929688 1254.925781 425.523438 1254.867188 427.632812 C 1252.277344 433.523438 1250.730469 441.4375 1252.125 449.773438 C 1244.273438 459.625 1241.089844 467.597656 1239.539062 473.421875 C 1238.75 476.382812 1238.382812 478.78125 1238.042969 480.507812 C 1237.703125 482.210938 1237.304688 483.125 1237.046875 483.359375 C 1232.234375 487.257812 1226.050781 490.617188 1220.65625 493.921875 C 1216.246094 496.621094 1212.296875 499.183594 1210.125 502.382812 C 1210.246094 501.75 1210.378906 501.097656 1210.527344 500.414062 C 1210.964844 498.449219 1211.523438 496.277344 1212.117188 494.117188 C 1212.996094 491.796875 1215.523438 488.824219 1218.445312 486.410156 C 1221.363281 484 1224.695312 482.105469 1226.917969 481.554688 L 1227.882812 481.328125 L 1227.945312 480.308594 C 1228.113281 477.660156 1230.167969 471.558594 1233.027344 465.84375 C 1235.886719 460.132812 1239.652344 454.617188 1242.625 452.59375 L 1243.246094 452.167969 L 1243.214844 451.378906 C 1242.734375 433.234375 1246.5625 425.265625 1249.539062 423.207031 C 1250.285156 422.691406 1250.96875 422.46875 1251.566406 422.484375 Z M 1251.566406 422.484375 "/>
<path style=" stroke:none;fill-rule:evenodd;fill:rgb(81.176471%,6.666667%,14.901961%);fill-opacity:1;" d="M 1240.628906 425.863281 C 1241.082031 425.890625 1241.414062 426.042969 1241.8125 426.550781 C 1242.1875 427.03125 1242.582031 427.894531 1242.839844 429.175781 C 1241.269531 434.054688 1240.363281 441.027344 1240.566406 450.722656 C 1236.9375 453.519531 1233.496094 458.925781 1230.6875 464.53125 C 1227.976562 469.949219 1225.929688 475.410156 1225.421875 479.128906 C 1222.722656 480.011719 1219.648438 481.914062 1216.824219 484.246094 C 1216.070312 484.867188 1215.335938 485.507812 1214.640625 486.179688 C 1215.445312 484.0625 1216.246094 482.328125 1216.855469 481.457031 C 1219.121094 478.199219 1222.144531 473.054688 1224.019531 468.175781 C 1224.65625 466.515625 1225.175781 464.902344 1225.453125 463.351562 C 1228.523438 459.980469 1231.441406 453.867188 1230.71875 447.839844 C 1230.078125 440.105469 1233.128906 432.511719 1236.421875 428.617188 C 1238.070312 426.667969 1239.722656 425.804688 1240.628906 425.863281 Z M 1240.628906 425.863281 "/>
<path style=" stroke:none;fill-rule:evenodd;fill:rgb(81.176471%,6.666667%,14.901961%);fill-opacity:1;" d="M 1228.195312 427.730469 C 1228.542969 427.757812 1228.925781 427.910156 1229.410156 428.289062 C 1230.042969 428.78125 1230.804688 429.691406 1231.59375 431.078125 C 1229.167969 435.664062 1227.570312 441.746094 1228.101562 448.101562 L 1228.101562 448.167969 C 1228.539062 451.746094 1227.175781 455.828125 1225.421875 458.824219 C 1225.085938 457.570312 1224.410156 456.460938 1223.304688 455.742188 C 1222.125 454.976562 1220.796875 454.75 1219.472656 454.824219 C 1220.082031 445.289062 1221.964844 436.472656 1224.363281 431.636719 C 1225.617188 429.105469 1226.960938 427.859375 1227.855469 427.730469 C 1227.964844 427.714844 1228.082031 427.722656 1228.195312 427.730469 Z M 1228.195312 427.730469 "/>
<path style=" stroke:none;fill-rule:evenodd;fill:rgb(81.176471%,6.666667%,14.901961%);fill-opacity:1;" d="M 1209.40625 507.46875 C 1209.542969 507.660156 1209.414062 507.6875 1209.40625 507.566406 C 1209.40625 507.539062 1209.40625 507.5 1209.40625 507.46875 Z M 1209.40625 507.46875 "/>
<path style=" stroke:none;fill-rule:evenodd;fill:rgb(81.176471%,6.666667%,14.901961%);fill-opacity:1;" d="M 1167.40625 626.203125 C 1167.988281 626.328125 1168.554688 626.488281 1169.054688 626.691406 C 1171.222656 627.570312 1174.4375 629.402344 1179.433594 630.761719 L 1167.34375 630.628906 C 1167.34375 630.628906 1167.398438 626.542969 1167.40625 626.203125 Z M 1167.40625 626.203125 "/>
<path style=" stroke:none;fill-rule:evenodd;fill:rgb(81.176471%,6.666667%,14.901961%);fill-opacity:1;" d="M 1216.15625 624.402344 C 1218.71875 624.015625 1221.296875 627.050781 1220.421875 630.925781 C 1220.207031 631.625 1219.34375 632.980469 1217.90625 634.367188 C 1216.441406 635.777344 1214.394531 637.277344 1211.871094 638.632812 C 1206.828125 641.339844 1199.882812 643.433594 1191.789062 643.125 C 1192.019531 643.125 1192.605469 643.125 1192.9375 643.125 C 1184.726562 643.277344 1180.320312 642.199219 1174.574219 639.507812 C 1169.722656 637.253906 1165.535156 635.542969 1165.242188 629.449219 C 1165.242188 628.398438 1165.464844 627.785156 1165.835938 627.285156 C 1166.207031 626.785156 1166.785156 626.394531 1167.515625 626.167969 C 1168.972656 625.71875 1170.65625 626.914062 1172.121094 627.597656 C 1175.246094 629.054688 1181.859375 633.023438 1192.9375 633.125 C 1198.777344 633.335938 1203.085938 631.363281 1207.542969 629.253906 C 1212.878906 626.730469 1213.625 624.917969 1216.15625 624.402344 Z M 1216.15625 624.402344 "/>
<path style=" stroke:none;fill-rule:evenodd;fill:rgb(81.176471%,6.666667%,14.901961%);fill-opacity:1;" d="M 1220.710938 638.226562 C 1223.714844 637.84375 1226.738281 640.875 1225.714844 644.75 C 1225.460938 645.449219 1224.449219 646.808594 1222.765625 648.191406 C 1221.050781 649.601562 1218.648438 651.101562 1215.691406 652.457031 C 1209.78125 655.164062 1201.644531 657.257812 1192.160156 656.949219 C 1192.429688 656.949219 1193.117188 656.949219 1193.507812 656.949219 C 1183.882812 657.105469 1178.71875 656.023438 1171.988281 653.332031 C 1166.300781 651.078125 1161.394531 649.367188 1161.050781 643.273438 C 1161.050781 642.226562 1161.3125 641.609375 1161.746094 641.109375 C 1162.183594 640.609375 1162.859375 640.21875 1163.714844 639.992188 C 1165.421875 639.542969 1167.398438 640.738281 1169.113281 641.421875 C 1172.773438 642.878906 1180.523438 646.847656 1193.507812 646.949219 C 1200.351562 647.160156 1205.398438 645.1875 1210.621094 643.078125 C 1216.875 640.554688 1217.75 638.742188 1220.710938 638.226562 Z M 1220.710938 638.226562 "/>
<path style=" stroke:none;fill-rule:evenodd;fill:rgb(81.176471%,6.666667%,14.901961%);fill-opacity:1;" d="M 675.585938 652.640625 C 672.128906 652.257812 668.652344 655.289062 669.832031 659.164062 C 670.121094 659.863281 671.285156 661.222656 673.226562 662.609375 C 675.199219 664.019531 677.960938 665.515625 681.363281 666.871094 C 688.167969 669.578125 697.535156 671.671875 708.449219 671.363281 C 708.140625 671.363281 707.351562 671.363281 706.898438 671.363281 C 717.976562 671.519531 723.921875 670.4375 731.667969 667.746094 C 738.214844 665.492188 743.863281 663.78125 744.257812 657.6875 C 744.257812 656.640625 743.957031 656.023438 743.453125 655.523438 C 742.953125 655.023438 742.175781 654.632812 741.191406 654.40625 C 739.222656 653.957031 736.953125 655.152344 734.976562 655.835938 C 730.765625 657.292969 721.84375 661.261719 706.902344 661.363281 C 699.023438 661.574219 693.214844 659.601562 687.203125 657.492188 C 680.003906 654.96875 678.996094 653.15625 675.585938 652.640625 Z M 675.585938 652.640625 "/>
<path style=" stroke:none;fill-rule:evenodd;fill:rgb(81.176471%,6.666667%,14.901961%);fill-opacity:1;" d="M 635.347656 420.417969 C 635.242188 420.425781 635.15625 420.453125 635.066406 420.484375 C 634.707031 420.597656 634.324219 420.875 633.945312 421.632812 L 633.945312 421.664062 C 633.8125 421.898438 633.480469 423.152344 633.382812 424.878906 C 633.285156 426.605469 633.335938 428.859375 633.476562 431.503906 C 633.761719 436.796875 634.492188 443.597656 635.566406 450.855469 C 637.710938 465.367188 641.183594 481.742188 644.851562 491.527344 C 648.445312 500.585938 656.316406 508.707031 663.984375 516.027344 C 671.644531 523.347656 679.117188 529.734375 681.804688 536.332031 C 682.308594 537.511719 682.546875 539.160156 682.804688 541.511719 C 683.0625 543.875 683.253906 546.871094 683.425781 550.367188 C 683.769531 557.363281 683.972656 566.339844 684.050781 575.984375 C 684.167969 591.308594 684.019531 608.152344 683.769531 621.511719 C 684.128906 621.675781 684.503906 621.847656 684.890625 622.035156 C 686.742188 622.929688 688.917969 624.085938 691.339844 625.25 C 696.183594 627.578125 702.035156 629.839844 708.105469 629.644531 L 708.136719 629.644531 C 720.378906 629.550781 725.832031 625.78125 729.976562 624.101562 L 730.007812 624.101562 C 730.804688 623.78125 731.675781 623.535156 732.566406 623.378906 C 732.410156 611.125 731.332031 526.179688 731.347656 511.4375 L 731.347656 511.402344 C 731.484375 507.367188 727.847656 502.222656 723.125 497.628906 C 718.398438 493.03125 712.800781 488.953125 709.539062 486.378906 L 709.507812 486.34375 L 709.445312 486.3125 C 707.503906 484.496094 703.546875 480.105469 699.816406 475.75 C 697.949219 473.574219 696.148438 471.398438 694.738281 469.617188 C 693.328125 467.835938 692.355469 466.601562 691.871094 465.582031 C 691.734375 465.292969 690.964844 464.234375 689.90625 463.15625 C 688.847656 462.078125 687.484375 460.90625 686.011719 459.910156 C 684.542969 458.910156 682.957031 458.085938 681.554688 457.742188 C 680.15625 457.402344 679.003906 457.496094 678.066406 458.105469 C 677.226562 458.648438 676.902344 459.515625 676.945312 461.121094 C 676.988281 462.726562 677.539062 464.890625 678.410156 467.15625 C 680.148438 471.6875 683.113281 476.730469 685.265625 479.816406 C 686.578125 481.703125 687.789062 484.851562 688.972656 488.507812 C 690.15625 492.167969 691.246094 496.273438 692.027344 499.792969 C 692.808594 503.3125 693.320312 506.011719 693.210938 507.730469 C 693.183594 508.160156 693.328125 508.664062 692.554688 509.304688 C 692.167969 509.625 691.492188 509.679688 691.121094 509.535156 C 690.753906 509.386719 690.566406 509.1875 690.40625 509.007812 C 689.765625 508.304688 689.339844 507.382812 688.628906 505.730469 L 688.628906 505.695312 L 688.597656 505.664062 C 687.527344 502.78125 683.347656 499.566406 678.035156 496.316406 C 672.722656 493.0625 666.398438 489.660156 661.304688 485.523438 C 660.078125 484.476562 659.765625 482.929688 659.402344 481.097656 C 659.039062 479.265625 658.683594 476.980469 657.9375 474.175781 C 656.445312 468.570312 653.363281 460.855469 645.441406 451.054688 L 645.039062 450.5625 L 645.164062 449.90625 C 646.898438 440.566406 644.554688 431.578125 641.359375 426.027344 C 639.765625 423.25 637.902344 421.359375 636.5625 420.714844 C 636.058594 420.46875 635.660156 420.390625 635.347656 420.417969 Z M 635.347656 420.417969 "/>
<path style=" stroke:none;fill-rule:evenodd;fill:rgb(81.176471%,6.666667%,14.901961%);fill-opacity:1;" d="M 648.433594 422.484375 C 647.835938 422.5 647.308594 422.738281 646.8125 423.140625 C 645.835938 423.929688 645.074219 425.523438 645.132812 427.632812 C 647.722656 433.523438 649.269531 441.4375 647.875 449.773438 C 655.726562 459.625 658.910156 467.597656 660.460938 473.421875 C 661.25 476.382812 661.617188 478.78125 661.957031 480.507812 C 662.296875 482.210938 662.695312 483.125 662.953125 483.359375 C 667.765625 487.257812 673.949219 490.617188 679.34375 493.921875 C 683.753906 496.621094 687.703125 499.183594 689.875 502.382812 C 689.753906 501.75 689.621094 501.097656 689.472656 500.414062 C 689.035156 498.449219 688.476562 496.277344 687.882812 494.117188 C 687.003906 491.796875 684.476562 488.824219 681.554688 486.410156 C 678.636719 484 675.304688 482.105469 673.082031 481.554688 L 672.117188 481.328125 L 672.054688 480.308594 C 671.886719 477.660156 669.832031 471.558594 666.972656 465.84375 C 664.113281 460.132812 660.347656 454.617188 657.375 452.59375 L 656.753906 452.167969 L 656.785156 451.378906 C 657.265625 433.234375 653.4375 425.265625 650.460938 423.207031 C 649.714844 422.691406 649.03125 422.46875 648.433594 422.484375 Z M 648.433594 422.484375 "/>
<path style=" stroke:none;fill-rule:evenodd;fill:rgb(81.176471%,6.666667%,14.901961%);fill-opacity:1;" d="M 659.371094 425.863281 C 658.917969 425.890625 658.585938 426.042969 658.1875 426.550781 C 657.8125 427.03125 657.417969 427.894531 657.160156 429.175781 C 658.730469 434.054688 659.636719 441.027344 659.433594 450.722656 C 663.0625 453.519531 666.503906 458.925781 669.3125 464.53125 C 672.023438 469.949219 674.070312 475.410156 674.578125 479.128906 C 677.277344 480.011719 680.351562 481.914062 683.175781 484.246094 C 683.929688 484.867188 684.664062 485.507812 685.359375 486.179688 C 684.554688 484.0625 683.753906 482.328125 683.144531 481.457031 C 680.878906 478.199219 677.855469 473.054688 675.980469 468.175781 C 675.34375 466.515625 674.824219 464.902344 674.546875 463.351562 C 671.476562 459.980469 668.558594 453.867188 669.28125 447.839844 C 669.921875 440.105469 666.871094 432.511719 663.578125 428.617188 C 661.929688 426.667969 660.277344 425.804688 659.371094 425.863281 Z M 659.371094 425.863281 "/>
<path style=" stroke:none;fill-rule:evenodd;fill:rgb(81.176471%,6.666667%,14.901961%);fill-opacity:1;" d="M 671.804688 427.730469 C 671.457031 427.757812 671.074219 427.910156 670.589844 428.289062 C 669.957031 428.78125 669.195312 429.691406 668.40625 431.078125 C 670.832031 435.664062 672.429688 441.746094 671.898438 448.101562 L 671.898438 448.167969 C 671.460938 451.746094 672.824219 455.828125 674.578125 458.824219 C 674.914062 457.570312 675.589844 456.460938 676.695312 455.742188 C 677.875 454.976562 679.203125 454.75 680.527344 454.824219 C 679.917969 445.289062 678.035156 436.472656 675.636719 431.636719 C 674.382812 429.105469 673.039062 427.859375 672.144531 427.730469 C 672.035156 427.714844 671.917969 427.722656 671.804688 427.730469 Z M 671.804688 427.730469 "/>
<path style=" stroke:none;fill-rule:evenodd;fill:rgb(81.176471%,6.666667%,14.901961%);fill-opacity:1;" d="M 690.59375 507.46875 C 690.457031 507.660156 690.585938 507.6875 690.59375 507.566406 C 690.59375 507.539062 690.59375 507.5 690.59375 507.46875 Z M 690.59375 507.46875 "/>
<path style=" stroke:none;fill-rule:evenodd;fill:rgb(81.176471%,6.666667%,14.901961%);fill-opacity:1;" d="M 732.59375 626.203125 C 732.011719 626.328125 731.445312 626.488281 730.945312 626.691406 C 728.777344 627.570312 725.5625 629.402344 720.566406 630.761719 L 732.65625 630.628906 C 732.65625 630.628906 732.601562 626.542969 732.59375 626.203125 Z M 732.59375 626.203125 "/>
<path style=" stroke:none;fill-rule:evenodd;fill:rgb(81.176471%,6.666667%,14.901961%);fill-opacity:1;" d="M 683.84375 624.402344 C 681.28125 624.015625 678.703125 627.050781 679.578125 630.925781 C 679.792969 631.625 680.65625 632.980469 682.09375 634.367188 C 683.558594 635.777344 685.605469 637.277344 688.128906 638.632812 C 693.171875 641.339844 700.117188 643.433594 708.210938 643.125 C 707.980469 643.125 707.394531 643.125 707.0625 643.125 C 715.273438 643.277344 719.679688 642.199219 725.425781 639.507812 C 730.277344 637.253906 734.464844 635.542969 734.757812 629.449219 C 734.757812 628.398438 734.535156 627.785156 734.164062 627.285156 C 733.792969 626.785156 733.214844 626.394531 732.484375 626.167969 C 731.027344 625.71875 729.34375 626.914062 727.878906 627.597656 C 724.753906 629.054688 718.140625 633.023438 707.0625 633.125 C 701.222656 633.335938 696.914062 631.363281 692.457031 629.253906 C 687.121094 626.730469 686.375 624.917969 683.84375 624.402344 Z M 683.84375 624.402344 "/>
<path style=" stroke:none;fill-rule:evenodd;fill:rgb(81.176471%,6.666667%,14.901961%);fill-opacity:1;" d="M 679.289062 638.226562 C 676.285156 637.84375 673.261719 640.875 674.285156 644.75 C 674.539062 645.449219 675.550781 646.808594 677.234375 648.191406 C 678.949219 649.601562 681.351562 651.101562 684.308594 652.457031 C 690.21875 655.164062 698.355469 657.257812 707.839844 656.949219 C 707.570312 656.949219 706.882812 656.949219 706.492188 656.949219 C 716.117188 657.105469 721.28125 656.023438 728.011719 653.332031 C 733.699219 651.078125 738.605469 649.367188 738.949219 643.273438 C 738.949219 642.226562 738.6875 641.609375 738.253906 641.109375 C 737.816406 640.609375 737.140625 640.21875 736.285156 639.992188 C 734.578125 639.542969 732.601562 640.738281 730.886719 641.421875 C 727.226562 642.878906 719.476562 646.847656 706.492188 646.949219 C 699.648438 647.160156 694.601562 645.1875 689.378906 643.078125 C 683.125 640.554688 682.25 638.742188 679.289062 638.226562 Z M 679.289062 638.226562 "/>
<path style=" stroke:none;fill-rule:evenodd;fill:rgb(81.176471%,6.666667%,14.901961%);fill-opacity:1;" d="M 944.28125 661.085938 C 927.816406 659.253906 913.472656 648.269531 906.53125 632.167969 C 904.207031 626.777344 904.269531 625.382812 906.746094 627.261719 C 910.933594 630.4375 916.90625 633.242188 919.476562 633.242188 C 921.59375 633.242188 923.347656 634.386719 927.488281 638.464844 C 935.515625 646.367188 944.511719 648.414062 940.601562 641.449219 C 937.859375 636.558594 938.625 633.261719 944.496094 624.664062 C 947.445312 620.34375 950.246094 616.78125 950.71875 616.742188 C 951.1875 616.707031 953.574219 619.613281 956.019531 623.203125 C 961.273438 630.914062 962.898438 636.714844 960.960938 640.832031 C 959.261719 644.441406 959.386719 646.789062 961.273438 646.789062 C 963.34375 646.789062 970.488281 642.011719 974.742188 637.789062 C 977.050781 635.496094 979.578125 634.027344 982.464844 633.304688 C 984.824219 632.710938 988.820312 631.003906 991.34375 629.511719 C 993.867188 628.023438 996.113281 626.988281 996.332031 627.21875 C 997.363281 628.304688 990.511719 640.558594 986.074219 645.5625 C 977.460938 655.273438 969.171875 659.617188 956.671875 660.96875 C 952.925781 661.371094 947.351562 661.425781 944.28125 661.085938 Z M 944.28125 661.085938 "/>
<path style=" stroke:none;fill-rule:evenodd;fill:rgb(81.176471%,6.666667%,14.901961%);fill-opacity:1;" d="M 965.214844 639.195312 C 964.945312 638.453125 964.941406 637.46875 965.210938 637.007812 C 966.246094 635.246094 962.976562 626.886719 958.925781 620.941406 C 956.597656 617.523438 954.070312 613.8125 953.308594 612.695312 C 952.546875 611.578125 951.441406 610.664062 950.851562 610.664062 C 949.601562 610.664062 941.472656 622.28125 938.0625 628.953125 C 936.765625 631.488281 935.703125 634.914062 935.703125 636.566406 C 935.703125 638.214844 935.292969 639.5625 934.789062 639.5625 C 932.425781 639.5625 927.773438 634.371094 925.199219 628.867188 C 922.59375 623.292969 922.40625 622.273438 922.449219 613.839844 C 922.503906 603.164062 923.996094 596.40625 929.535156 581.761719 C 933.089844 572.363281 933.46875 570.648438 933.507812 563.699219 C 933.554688 555.332031 932.050781 550.949219 927.660156 546.636719 C 925.046875 544.066406 925.433594 542.929688 928.925781 542.929688 C 932.175781 542.929688 937.273438 545.660156 939.828125 548.777344 C 942.265625 551.746094 943.832031 550.78125 944.582031 545.839844 C 944.863281 543.984375 946.234375 541.046875 947.625 539.3125 C 949.722656 536.695312 950.425781 536.320312 951.722656 537.113281 C 954.070312 538.550781 957.152344 545.554688 957.152344 549.441406 C 957.152344 553.898438 958.480469 553.835938 962.769531 549.175781 C 966.558594 545.058594 969.125 543.449219 973.238281 542.628906 C 976.953125 541.886719 976.890625 543.5 973.054688 547.414062 C 968.59375 551.964844 966.363281 557.652344 966.316406 564.601562 C 966.269531 571.296875 967.128906 574.554688 971.828125 585.460938 C 976.257812 595.742188 978.601562 605.707031 978.601562 614.257812 C 978.601562 623.464844 976.84375 629.300781 972.511719 634.480469 C 968.195312 639.644531 965.914062 641.117188 965.214844 639.195312 Z M 965.214844 639.195312 "/>
<path style=" stroke:none;fill-rule:evenodd;fill:rgb(81.176471%,6.666667%,14.901961%);fill-opacity:1;" d="M 958.878906 541.148438 C 956.71875 536.6875 952.203125 531.1875 950.703125 531.1875 C 949.347656 531.1875 942.566406 539.105469 942.566406 540.6875 C 942.566406 541.300781 942.035156 542.269531 941.382812 542.835938 C 940.46875 543.636719 939.414062 543.324219 936.6875 541.449219 C 932.257812 538.394531 930.261719 532.71875 930.316406 523.347656 C 930.367188 515.175781 931.613281 509.59375 935.90625 498.316406 C 939.019531 490.125 939.277344 488.804688 938.992188 482.511719 C 938.613281 474.191406 936.472656 469.082031 930.464844 462.164062 C 928.15625 459.503906 926.265625 457.082031 926.265625 456.777344 C 926.265625 456.472656 928.054688 456.226562 930.238281 456.226562 C 934.664062 456.226562 938.300781 458.175781 941.96875 462.507812 C 943.25 464.019531 944.628906 465.257812 945.035156 465.257812 C 945.445312 465.257812 946.042969 463.125 946.367188 460.515625 C 947.019531 455.300781 948.789062 451.710938 950.714844 451.710938 C 952.535156 451.710938 954.578125 456.480469 954.578125 460.726562 C 954.578125 465.890625 956.332031 466.21875 960.152344 461.769531 C 961.867188 459.769531 964.597656 457.671875 966.222656 457.109375 C 969.269531 456.050781 973.90625 456.609375 974.804688 458.140625 C 975.085938 458.625 973.707031 460.859375 971.734375 463.109375 C 963.097656 472.972656 961.355469 484.085938 966.433594 496.992188 C 970.570312 507.523438 971.960938 514.992188 971.527344 524.414062 C 971.054688 534.597656 969.3125 539.277344 964.828125 542.402344 C 962.984375 543.683594 961.285156 544.734375 961.050781 544.734375 C 960.8125 544.734375 959.835938 543.121094 958.878906 541.148438 Z M 958.878906 541.148438 "/>
<path style=" stroke:none;fill-rule:evenodd;fill:rgb(81.176471%,6.666667%,14.901961%);fill-opacity:1;" d="M 938.929688 454.019531 C 934.5 450.597656 933.03125 447.328125 933.03125 440.875 C 933.03125 437.5625 933.613281 435.78125 935.679688 432.777344 C 938.734375 428.339844 938.171875 426.9375 933.859375 428.238281 C 926.929688 430.332031 923.613281 428.421875 923.378906 422.195312 C 923.261719 419.15625 923.878906 417.855469 927.765625 412.9375 C 930.882812 408.996094 932.011719 406.925781 931.402344 406.28125 C 930.789062 405.640625 927.101562 409 919.546875 417.09375 C 913.515625 423.554688 906.734375 430.152344 904.476562 431.757812 C 891.5 440.992188 879.097656 442.417969 873.429688 435.324219 C 870.53125 431.699219 870.691406 429.648438 874.046875 427.460938 C 875.578125 426.457031 878.183594 424.152344 879.835938 422.339844 C 883.726562 418.066406 895.316406 409.257812 901.070312 406.203125 C 905.738281 403.726562 906.855469 402.039062 903.824219 402.039062 C 899.886719 402.039062 887.269531 410.6875 877.710938 419.9375 C 874.894531 422.664062 870.84375 425.710938 868.71875 426.699219 C 863.945312 428.921875 854.566406 429.734375 850.402344 428.285156 C 847.445312 427.261719 842.085938 421.933594 842.085938 420.027344 C 842.085938 419.523438 843.308594 418.421875 844.800781 417.574219 C 846.292969 416.730469 848.964844 414.699219 850.738281 413.0625 C 858.390625 405.996094 872.886719 398.726562 884.402344 396.183594 C 888.054688 395.378906 886.703125 393.429688 882.621094 393.621094 C 874.730469 393.988281 859.042969 401.71875 849.664062 409.859375 C 838.6875 419.390625 822.128906 418.488281 816.796875 408.070312 C 815.882812 406.28125 815.339844 404.601562 815.59375 404.332031 C 815.847656 404.066406 819.113281 403.035156 822.851562 402.039062 C 826.882812 400.96875 834.875 397.488281 842.515625 393.476562 C 854.542969 387.164062 858.09375 385.816406 866.378906 384.421875 C 870.097656 383.796875 870.289062 381.878906 866.671875 381.429688 C 862.011719 380.851562 854.878906 383.308594 842.269531 389.839844 C 826.070312 398.226562 821.523438 399.671875 812.988281 399.132812 C 805.199219 398.644531 800.816406 396.535156 794.496094 390.246094 C 790.363281 386.132812 784.496094 375.65625 785.648438 374.445312 C 785.921875 374.15625 787.824219 374.441406 789.875 375.074219 C 792.148438 375.777344 798.652344 376.242188 806.480469 376.265625 C 817.449219 376.292969 820.363281 375.988281 826.210938 374.207031 C 835.980469 371.230469 848.988281 364.28125 857.871094 357.289062 C 874.878906 343.902344 888.75 338.523438 906.433594 338.449219 C 922.757812 338.382812 933.136719 342.347656 942.335938 352.164062 C 945.445312 355.484375 948.101562 357.636719 948.53125 357.183594 C 948.941406 356.75 949.390625 350.945312 949.523438 344.285156 C 949.523438 344.285156 954.332031 343.796875 955.339844 345.214844 C 955.339844 356.027344 955.457031 356.882812 956.949219 356.882812 C 957.933594 356.882812 958.980469 355.824219 959.625 354.183594 C 961.019531 350.644531 966.195312 345.789062 971.710938 342.84375 C 983.664062 336.46875 1004.328125 336.273438 1020.917969 342.378906 C 1027.914062 344.953125 1035.671875 349.574219 1043.066406 355.566406 C 1050.46875 361.566406 1065.632812 369.601562 1074.597656 372.277344 C 1083.660156 374.984375 1099.632812 375.667969 1107.839844 373.703125 C 1111.214844 372.894531 1114.382812 372.234375 1114.878906 372.234375 C 1117.902344 372.234375 1112.75 382.839844 1106.710938 389.046875 C 1095.667969 400.394531 1081.300781 400.34375 1061.078125 388.878906 C 1048.480469 381.738281 1033.414062 377.835938 1033.414062 381.71875 C 1033.414062 382.527344 1034.207031 383.074219 1035.378906 383.074219 C 1039.753906 383.074219 1048.21875 386.160156 1060.011719 392.0625 C 1072.777344 398.449219 1079.941406 401.136719 1084.191406 401.136719 C 1087.273438 401.136719 1087.371094 403.152344 1084.496094 407.601562 C 1081.441406 412.335938 1076.265625 414.6875 1068.964844 414.664062 C 1061.976562 414.640625 1058.097656 413.03125 1051.863281 407.570312 C 1041.429688 398.433594 1015.421875 388.238281 1016.417969 393.675781 C 1016.617188 394.769531 1017.875 395.433594 1020.554688 395.863281 C 1029.605469 397.3125 1040.230469 402.65625 1051.097656 411.226562 C 1054.453125 413.871094 1057.925781 416.488281 1058.816406 417.035156 C 1060.304688 417.957031 1060.332031 418.238281 1059.152344 420.558594 C 1057.207031 424.382812 1052.285156 427.363281 1046.957031 427.941406 C 1040.054688 428.691406 1034.046875 426.53125 1027.839844 421.0625 C 1014.71875 409.5 1002.359375 401.136719 998.402344 401.136719 C 995.164062 401.136719 996.617188 403.011719 1002.320312 406.191406 C 1009.8125 410.375 1017.515625 416.03125 1023.183594 421.519531 C 1025.875 424.121094 1028.890625 426.710938 1029.886719 427.273438 C 1032.265625 428.613281 1032.175781 430.5625 1029.5625 434.167969 C 1026.902344 437.839844 1022.488281 439.441406 1016.777344 438.804688 C 1005.375 437.539062 996.480469 431.746094 982.507812 416.492188 C 977.046875 410.527344 972.175781 405.652344 971.679688 405.652344 C 969.816406 405.652344 970.90625 408.3125 974.507812 412.550781 C 978.972656 417.808594 979.835938 420.769531 978.148438 425.027344 C 976.648438 428.800781 974.171875 429.675781 969.074219 428.230469 C 963.863281 426.753906 963.050781 428.105469 966.464844 432.570312 C 971.5625 439.253906 970.804688 447.425781 964.558594 453.050781 C 962.621094 454.796875 960.589844 456.226562 960.046875 456.226562 C 959.503906 456.226562 958.125 454.734375 956.984375 452.914062 C 952.96875 446.5 949.441406 446.535156 945.539062 453.03125 C 944.1875 455.285156 943.039062 457.121094 942.988281 457.105469 C 942.9375 457.09375 941.113281 455.707031 938.929688 454.019531 Z M 938.929688 454.019531 "/>
<path style=" stroke:none;fill-rule:evenodd;fill:rgb(81.176471%,6.666667%,14.901961%);fill-opacity:1;" d="M 958.796875 323.648438 L 952.039062 329.289062 L 945.960938 324.464844 L 945.960938 363.007812 L 958.796875 363.171875 Z M 958.796875 323.648438 "/>
<path style=" stroke:none;fill-rule:evenodd;fill:rgb(81.176471%,6.666667%,14.901961%);fill-opacity:1;" d="M 945.980469 274.394531 C 940.097656 274.503906 933.886719 274.585938 928.3125 275.738281 C 924.441406 276.539062 920.929688 277.855469 918 280.035156 C 918.484375 291.886719 972.097656 296.828125 986.488281 280.265625 C 983.457031 277.941406 979.773438 276.570312 975.707031 275.738281 C 970.335938 274.644531 964.398438 274.523438 958.757812 274.429688 C 958.765625 277.6875 958.789062 280.945312 958.789062 284.203125 L 945.980469 284.167969 C 945.980469 280.832031 945.980469 277.289062 945.980469 274.394531 Z M 945.980469 274.394531 "/>
<path style=" stroke:none;fill-rule:evenodd;fill:rgb(81.176471%,6.666667%,14.901961%);fill-opacity:1;" d="M 956.457031 215.609375 L 953.265625 248.441406 L 985.363281 264.9375 L 969.117188 242.078125 L 991.300781 234.519531 Z M 956.457031 215.609375 "/>
<path style=" stroke:none;fill-rule:evenodd;fill:rgb(81.176471%,6.666667%,14.901961%);fill-opacity:1;" d="M 952.878906 207.058594 C 948.003906 207.058594 944.402344 208.972656 944.402344 211.246094 C 944.402344 213.523438 948.003906 215.453125 952.878906 215.453125 C 957.75 215.453125 961.324219 213.523438 961.324219 211.246094 C 961.324219 208.972656 957.75 207.058594 952.878906 207.058594 Z M 952.878906 207.058594 "/>
<path style=" stroke:none;fill-rule:evenodd;fill:rgb(81.176471%,6.666667%,14.901961%);fill-opacity:1;" d="M 956.46875 213.847656 L 948.136719 213.914062 L 948.136719 282.503906 L 956.632812 282.535156 Z M 956.46875 213.847656 "/>
<path style=" stroke:none;fill-rule:evenodd;fill:rgb(81.176471%,6.666667%,14.901961%);fill-opacity:1;" d="M 916.863281 283.675781 C 915.515625 301.894531 911.128906 314.601562 905.019531 328.617188 L 919.664062 314.320312 L 929.847656 327.054688 L 940.882812 314.097656 L 952.132812 325.042969 L 962.953125 313.652344 L 974.199219 327.5 L 983.960938 316.109375 L 1000.515625 328.617188 C 994.507812 314.597656 986.375 302.71875 987.398438 283.007812 C 971.363281 295.535156 933.261719 297.800781 916.863281 283.675781 Z M 916.863281 283.675781 "/>
<path style=" stroke:none;fill-rule:nonzero;fill:rgb(100%,80%,0%);fill-opacity:1;" d="M 1025.863281 773.460938 C 1025.867188 774.273438 1025.417969 775.023438 1024.691406 775.429688 C 1023.964844 775.835938 1023.066406 775.835938 1022.335938 775.429688 C 1021.609375 775.023438 1021.160156 774.273438 1021.164062 773.460938 C 1021.160156 772.648438 1021.609375 771.898438 1022.335938 771.488281 C 1023.066406 771.082031 1023.964844 771.082031 1024.691406 771.488281 C 1025.417969 771.898438 1025.867188 772.648438 1025.863281 773.460938 Z M 1025.863281 773.460938 "/>
<path style=" stroke:none;fill-rule:nonzero;fill:rgb(100%,80%,0%);fill-opacity:1;" d="M 1034.167969 770.546875 C 1034.171875 771.359375 1033.722656 772.109375 1032.996094 772.515625 C 1032.265625 772.921875 1031.371094 772.921875 1030.640625 772.515625 C 1029.914062 772.109375 1029.464844 771.359375 1029.46875 770.546875 C 1029.464844 769.734375 1029.914062 768.984375 1030.640625 768.578125 C 1031.371094 768.167969 1032.265625 768.167969 1032.996094 768.578125 C 1033.722656 768.984375 1034.171875 769.734375 1034.167969 770.546875 Z M 1034.167969 770.546875 "/>
</g>
</svg>
