<?xml version="1.0" encoding="UTF-8"?>
<svg xmlns="http://www.w3.org/2000/svg" xmlns:xlink="http://www.w3.org/1999/xlink" width="1900pt" height="1000pt" viewBox="0 0 1900 1000" version="1.1">
<defs>
<clipPath id="clip1">
  <path d="M 617 392 L 1283 392 L 1283 750 L 617 750 Z M 617 392 "/>
</clipPath>
<clipPath id="clip2">
  <path d="M 1282.5 500 C 1282.5 638.070312 1133.632812 750 950 750 C 766.367188 750 617.5 638.070312 617.5 500 C 617.5 361.929688 766.367188 250 950 250 C 1133.632812 250 1282.5 361.929688 1282.5 500 Z M 1282.5 500 "/>
</clipPath>
<clipPath id="clip3">
  <path d="M 1058 447 L 1088 447 L 1088 472 L 1058 472 Z M 1058 447 "/>
</clipPath>
<clipPath id="clip4">
  <path d="M 1053.136719 466.234375 L 1065.765625 444.398438 L 1091.902344 452.945312 L 1079.273438 474.777344 Z M 1074.683594 455.847656 L 1072.519531 459.589844 L 1085.585938 463.863281 L 1087.753906 460.117188 Z M 1074.683594 455.847656 "/>
</clipPath>
</defs>
<g id="surface1">
<rect x="0" y="0" width="1900" height="1000" style="fill:rgb(0%,60.784314%,22.745098%);fill-opacity:1;stroke:none;"/>
<path style=" stroke:none;fill-rule:nonzero;fill:rgb(99.607843%,87.45098%,0%);fill-opacity:1;" d="M 161.5 500 L 950 878.570312 L 1738.5 500 L 950 121.429688 Z M 161.5 500 "/>
<path style=" stroke:none;fill-rule:nonzero;fill:rgb(0%,15.294118%,46.27451%);fill-opacity:1;" d="M 1282.5 500 C 1282.5 638.070312 1133.632812 750 950 750 C 766.367188 750 617.5 638.070312 617.5 500 C 617.5 361.929688 766.367188 250 950 250 C 1133.632812 250 1282.5 361.929688 1282.5 500 Z M 1282.5 500 "/>
<g clip-path="url(#clip1)" clip-rule="nonzero">
<g clip-path="url(#clip2)" clip-rule="nonzero">
<path style=" stroke:none;fill-rule:nonzero;fill:rgb(100%,100%,100%);fill-opacity:1;" d="M -47.5 1000 C -47.5 664.683594 314.03125 392.855469 760 392.855469 C 1205.96875 392.855469 1567.5 664.683594 1567.5 1000 L 1520 1000 C 1520 684.410156 1179.738281 428.570312 760 428.570312 C 340.261719 428.570312 0 684.410156 0 1000 Z M -47.5 1000 "/>
</g>
</g>
<path style=" stroke:none;fill-rule:evenodd;fill:rgb(0%,60.784314%,22.745098%);fill-opacity:1;" d="M 666.414062 426.921875 C 674.226562 426.203125 679.695312 420.328125 678.628906 413.800781 C 677.5625 407.273438 670.367188 402.570312 662.554688 403.289062 C 654.742188 404.011719 649.277344 409.886719 650.339844 416.414062 C 651.40625 422.9375 658.601562 427.644531 666.414062 426.921875 M 665.699219 422.535156 C 670.285156 422.109375 673.460938 418.441406 672.792969 414.339844 C 672.121094 410.238281 667.859375 407.257812 663.273438 407.679688 C 658.683594 408.101562 655.507812 411.773438 656.179688 415.875 C 656.847656 419.976562 661.109375 422.957031 665.699219 422.535156 "/>
<path style=" stroke:none;fill-rule:evenodd;fill:rgb(0%,60.784314%,22.745098%);fill-opacity:1;" d="M 692.21875 424.773438 L 698.085938 424.464844 L 697.265625 415.640625 L 709.898438 414.976562 C 715.382812 414.691406 719.515625 411.113281 719.132812 406.992188 C 718.75 402.867188 713.996094 399.761719 708.511719 400.046875 L 690.460938 400.996094 Z M 696.851562 411.230469 L 709.039062 410.589844 C 711.28125 410.472656 712.972656 409.011719 712.816406 407.324219 C 712.660156 405.636719 710.714844 404.367188 708.46875 404.484375 L 696.285156 405.125 Z M 696.851562 411.230469 "/>
<path style=" stroke:none;fill-rule:nonzero;fill:rgb(0%,60.784314%,22.745098%);fill-opacity:1;" d="M 719.070312 423.359375 C 718.753906 419.96875 718.058594 412.503906 711.289062 412.859375 L 702.714844 413.308594 C 712.644531 412.789062 713.335938 420.253906 713.652344 423.644531 "/>
<path style=" stroke:none;fill-rule:evenodd;fill:rgb(0%,60.784314%,22.745098%);fill-opacity:1;" d="M 732.351562 422.894531 L 747.277344 422.699219 C 754.769531 422.601562 760.738281 417.953125 760.609375 412.316406 L 760.53125 408.917969 C 760.398438 403.28125 754.21875 398.792969 746.722656 398.890625 L 731.796875 399.089844 Z M 738.128906 418.394531 L 746.722656 418.28125 C 751.46875 418.21875 755.25 415.277344 755.164062 411.707031 L 755.117188 409.667969 C 755.035156 406.097656 751.121094 403.257812 746.375 403.320312 L 737.78125 403.433594 Z M 738.128906 418.394531 "/>
<path style=" stroke:none;fill-rule:nonzero;fill:rgb(0%,60.784314%,22.745098%);fill-opacity:1;" d="M 772.558594 422.597656 L 801.042969 423.34375 L 801.246094 418.925781 L 778.1875 418.320312 L 778.472656 412.203125 L 796.558594 412.675781 L 796.746094 408.597656 L 778.664062 408.121094 L 778.882812 403.363281 L 800.585938 403.933594 L 800.789062 399.515625 L 773.664062 398.800781 Z M 772.558594 422.597656 "/>
<path style=" stroke:none;fill-rule:nonzero;fill:rgb(0%,60.784314%,22.745098%);fill-opacity:1;" d="M 812.734375 423.882812 L 818.140625 424.238281 L 820.03125 407.972656 L 824.449219 424.652344 L 829.40625 424.980469 L 837.609375 409.128906 L 835.714844 425.394531 L 841.125 425.75 L 843.882812 402.03125 L 835.996094 401.511719 L 827.796875 417.363281 L 823.378906 400.683594 L 815.492188 400.164062 Z M 812.734375 423.882812 "/>
<path style=" stroke:none;fill-rule:nonzero;fill:rgb(0%,60.784314%,22.745098%);fill-opacity:1;" d="M 878.34375 429.445312 L 901.75 432.472656 L 902.667969 428.449219 L 884.613281 426.113281 L 885.839844 420.75 L 900.550781 422.652344 L 901.46875 418.628906 L 886.757812 416.730469 L 887.601562 413.042969 L 905.101562 415.300781 L 906.019531 411.28125 L 883.167969 408.328125 Z M 878.34375 429.445312 "/>
<path style=" stroke:none;fill-rule:evenodd;fill:rgb(0%,60.784314%,22.745098%);fill-opacity:1;" d="M 938.476562 438.328125 L 944.167969 439.433594 L 947.113281 430.871094 L 959.375 433.257812 C 964.699219 434.292969 970.128906 431.886719 971.503906 427.886719 C 972.878906 423.886719 969.683594 419.800781 964.359375 418.769531 L 946.839844 415.363281 Z M 948.585938 426.589844 L 960.410156 428.890625 C 962.589844 429.3125 964.808594 428.332031 965.371094 426.695312 C 965.933594 425.058594 964.625 423.386719 962.449219 422.964844 L 950.625 420.664062 Z M 948.585938 426.589844 "/>
<path style=" stroke:none;fill-rule:evenodd;fill:rgb(0%,60.784314%,22.745098%);fill-opacity:1;" d="M 977.328125 446.121094 L 982.933594 447.449219 L 986.472656 439.015625 L 998.550781 441.878906 C 1003.792969 443.121094 1009.382812 440.933594 1011.035156 436.992188 C 1012.691406 433.050781 1009.78125 428.847656 1004.539062 427.605469 L 987.28125 423.515625 Z M 988.242188 434.796875 L 999.890625 437.558594 C 1002.035156 438.070312 1004.320312 437.171875 1004.996094 435.5625 C 1005.671875 433.949219 1004.484375 432.230469 1002.339844 431.722656 L 990.6875 428.960938 Z M 988.242188 434.796875 "/>
<path style=" stroke:none;fill-rule:nonzero;fill:rgb(0%,60.784314%,22.745098%);fill-opacity:1;" d="M 1002.996094 452.207031 C 1004.359375 448.960938 1007.351562 441.824219 1000.878906 440.292969 L 992.679688 438.347656 C 1002.171875 440.597656 999.179688 447.734375 997.820312 450.976562 "/>
<path style=" stroke:none;fill-rule:evenodd;fill:rgb(0%,60.784314%,22.745098%);fill-opacity:1;" d="M 1028.929688 459.183594 C 1036.300781 461.253906 1044.761719 457.941406 1047.824219 451.785156 C 1050.886719 445.625 1047.390625 438.953125 1040.019531 436.882812 C 1032.648438 434.808594 1024.191406 438.121094 1021.128906 444.28125 C 1018.066406 450.4375 1021.558594 457.109375 1028.929688 459.183594 M 1030.988281 455.042969 C 1035.320312 456.257812 1040.390625 454.105469 1042.3125 450.234375 C 1044.238281 446.363281 1042.289062 442.242188 1037.960938 441.023438 C 1033.632812 439.804688 1028.5625 441.957031 1026.636719 445.828125 C 1024.710938 449.699219 1026.660156 453.824219 1030.988281 455.042969 "/>
<g clip-path="url(#clip3)" clip-rule="nonzero">
<g clip-path="url(#clip4)" clip-rule="nonzero">
<path style=" stroke:none;fill-rule:evenodd;fill:rgb(0%,60.784314%,22.745098%);fill-opacity:1;" d="M 1066.207031 470.507812 C 1073.421875 472.867188 1082.101562 469.890625 1085.585938 463.863281 C 1089.074219 457.832031 1086.050781 451.03125 1078.832031 448.671875 C 1071.617188 446.3125 1062.9375 449.289062 1059.453125 455.316406 C 1055.964844 461.347656 1058.988281 468.148438 1066.207031 470.507812 M 1068.550781 466.453125 C 1072.789062 467.835938 1078.003906 465.890625 1080.195312 462.097656 C 1082.386719 458.308594 1080.726562 454.113281 1076.488281 452.726562 C 1072.25 451.339844 1067.035156 453.289062 1064.84375 457.082031 C 1062.652344 460.871094 1064.3125 465.066406 1068.550781 466.453125 "/>
</g>
</g>
<path style=" stroke:none;fill-rule:nonzero;fill:rgb(0%,60.784314%,22.745098%);fill-opacity:1;" d="M 1074.59375 460.269531 L 1085.585938 463.863281 L 1083.785156 466.980469 L 1072.789062 463.386719 Z M 1074.59375 460.269531 "/>
<path style=" stroke:none;fill-rule:nonzero;fill:rgb(0%,60.784314%,22.745098%);fill-opacity:1;" d="M 1081.4375 462.503906 L 1085.585938 463.863281 L 1079.273438 474.777344 L 1075.125 473.421875 Z M 1081.4375 462.503906 "/>
<path style=" stroke:none;fill-rule:evenodd;fill:rgb(0%,60.784314%,22.745098%);fill-opacity:1;" d="M 1089.890625 478.5 L 1095.152344 480.472656 L 1100.402344 472.558594 L 1111.738281 476.808594 C 1116.65625 478.652344 1122.632812 477.148438 1125.085938 473.453125 C 1127.535156 469.753906 1125.539062 465.261719 1120.617188 463.414062 L 1104.425781 457.34375 Z M 1103.023438 468.601562 L 1113.957031 472.699219 C 1115.96875 473.453125 1118.414062 472.839844 1119.417969 471.328125 C 1120.417969 469.8125 1119.601562 467.976562 1117.589844 467.222656 L 1106.660156 463.125 Z M 1103.023438 468.601562 "/>
<path style=" stroke:none;fill-rule:nonzero;fill:rgb(0%,60.784314%,22.745098%);fill-opacity:1;" d="M 1113.980469 487.53125 C 1115.996094 484.488281 1120.4375 477.789062 1114.363281 475.515625 L 1106.671875 472.628906 C 1115.578125 475.96875 1111.140625 482.667969 1109.121094 485.710938 "/>
<path style=" stroke:none;fill-rule:nonzero;fill:rgb(0%,60.784314%,22.745098%);fill-opacity:1;" d="M 1125.738281 492.195312 L 1150.542969 502.75 L 1153.4375 498.902344 L 1133.359375 490.359375 L 1137.367188 485.03125 L 1153.117188 491.730469 L 1155.789062 488.175781 L 1140.042969 481.476562 L 1143.160156 477.332031 L 1162.058594 485.371094 L 1164.953125 481.523438 L 1141.332031 471.472656 Z M 1125.738281 492.195312 "/>
<path style=" stroke:none;fill-rule:nonzero;fill:rgb(0%,60.784314%,22.745098%);fill-opacity:1;" d="M 1171.941406 503.851562 C 1170.238281 505.859375 1171.960938 508.097656 1175.777344 509.925781 C 1179.59375 511.753906 1182.191406 511.6875 1183.289062 510.398438 C 1186.753906 506.308594 1166.730469 500.347656 1172.902344 493.222656 C 1178.222656 487.101562 1187.328125 491.863281 1190.761719 493.507812 C 1194.195312 495.152344 1199.707031 499.410156 1195.417969 504.3125 L 1189.601562 501.523438 C 1191.425781 499.371094 1189.421875 497.304688 1186.371094 495.84375 C 1183.414062 494.425781 1181.011719 493.78125 1179.25 495.859375 C 1176.296875 499.183594 1195.921875 505.460938 1189.90625 512.558594 C 1185.46875 517.792969 1177.753906 515.507812 1172.601562 513.042969 C 1168.214844 510.941406 1161.65625 505.984375 1165.929688 500.972656 Z M 1171.941406 503.851562 "/>
<path style=" stroke:none;fill-rule:nonzero;fill:rgb(0%,60.784314%,22.745098%);fill-opacity:1;" d="M 1205.910156 520.742188 C 1204.070312 522.679688 1205.636719 524.984375 1209.320312 526.957031 C 1213.003906 528.933594 1215.601562 528.96875 1216.789062 527.726562 C 1220.53125 523.78125 1200.949219 517.039062 1207.609375 510.164062 C 1213.351562 504.261719 1222.109375 509.375 1225.425781 511.152344 C 1228.738281 512.933594 1233.949219 517.398438 1229.328125 522.125 L 1223.710938 519.113281 C 1225.679688 517.035156 1223.824219 514.890625 1220.878906 513.3125 C 1218.023438 511.78125 1215.671875 511.039062 1213.765625 513.046875 C 1210.585938 516.253906 1229.75 523.289062 1223.246094 530.144531 C 1218.453125 535.199219 1210.902344 532.613281 1205.929688 529.945312 C 1201.695312 527.671875 1195.492188 522.46875 1200.109375 517.632812 Z M 1205.910156 520.742188 "/>
<path style=" stroke:none;fill-rule:evenodd;fill:rgb(0%,60.784314%,22.745098%);fill-opacity:1;" d="M 1238.039062 548.136719 C 1244.199219 551.820312 1253.605469 550.636719 1259.046875 545.488281 C 1264.492188 540.34375 1263.910156 533.1875 1257.753906 529.503906 C 1251.59375 525.820312 1242.1875 527.003906 1236.742188 532.152344 C 1231.300781 537.296875 1231.878906 544.453125 1238.039062 548.136719 M 1241.699219 544.675781 C 1245.316406 546.839844 1251.023438 545.972656 1254.445312 542.738281 C 1257.867188 539.503906 1257.707031 535.128906 1254.089844 532.964844 C 1250.472656 530.800781 1244.769531 531.667969 1241.347656 534.902344 C 1237.925781 538.136719 1238.082031 542.511719 1241.699219 544.675781 "/>
<path style=" stroke:none;fill-rule:nonzero;fill:rgb(100%,100%,100%);fill-opacity:1;" d="M 678.570312 444.386719 L 674.167969 454.578125 L 680.945312 456.234375 "/>
<path style=" stroke:none;fill-rule:nonzero;fill:rgb(100%,100%,100%);fill-opacity:1;" d="M 678.570312 444.386719 L 682.976562 454.578125 L 676.199219 456.234375 "/>
<path style=" stroke:none;fill-rule:nonzero;fill:rgb(100%,100%,100%);fill-opacity:1;" d="M 692.125 451.792969 L 677.875 451.792969 L 677.875 457.148438 "/>
<path style=" stroke:none;fill-rule:nonzero;fill:rgb(100%,100%,100%);fill-opacity:1;" d="M 692.125 451.792969 L 680.59375 458.089844 L 676.40625 453.753906 "/>
<path style=" stroke:none;fill-rule:nonzero;fill:rgb(100%,100%,100%);fill-opacity:1;" d="M 665.019531 451.792969 L 676.546875 458.089844 L 680.734375 453.753906 "/>
<path style=" stroke:none;fill-rule:nonzero;fill:rgb(100%,100%,100%);fill-opacity:1;" d="M 665.019531 451.792969 L 679.269531 451.792969 L 679.269531 457.148438 "/>
<path style=" stroke:none;fill-rule:nonzero;fill:rgb(100%,100%,100%);fill-opacity:1;" d="M 686.949219 463.769531 L 682.542969 453.582031 L 675.769531 455.234375 "/>
<path style=" stroke:none;fill-rule:nonzero;fill:rgb(100%,100%,100%);fill-opacity:1;" d="M 686.949219 463.769531 L 675.417969 457.472656 L 679.605469 453.136719 "/>
<path style=" stroke:none;fill-rule:nonzero;fill:rgb(100%,100%,100%);fill-opacity:1;" d="M 670.195312 463.769531 L 681.722656 457.472656 L 677.535156 453.136719 "/>
<path style=" stroke:none;fill-rule:nonzero;fill:rgb(100%,100%,100%);fill-opacity:1;" d="M 670.195312 463.769531 L 674.597656 453.582031 L 681.375 455.234375 "/>
<path style=" stroke:none;fill-rule:nonzero;fill:rgb(100%,100%,100%);fill-opacity:1;" d="M 707.976562 549.488281 L 703.574219 559.679688 L 710.347656 561.335938 "/>
<path style=" stroke:none;fill-rule:nonzero;fill:rgb(100%,100%,100%);fill-opacity:1;" d="M 707.976562 549.488281 L 712.378906 559.679688 L 705.601562 561.335938 "/>
<path style=" stroke:none;fill-rule:nonzero;fill:rgb(100%,100%,100%);fill-opacity:1;" d="M 721.527344 556.894531 L 707.277344 556.894531 L 707.277344 562.25 "/>
<path style=" stroke:none;fill-rule:nonzero;fill:rgb(100%,100%,100%);fill-opacity:1;" d="M 721.527344 556.894531 L 710 563.191406 L 705.8125 558.855469 "/>
<path style=" stroke:none;fill-rule:nonzero;fill:rgb(100%,100%,100%);fill-opacity:1;" d="M 694.421875 556.894531 L 705.953125 563.191406 L 710.140625 558.855469 "/>
<path style=" stroke:none;fill-rule:nonzero;fill:rgb(100%,100%,100%);fill-opacity:1;" d="M 694.421875 556.894531 L 708.671875 556.894531 L 708.671875 562.25 "/>
<path style=" stroke:none;fill-rule:nonzero;fill:rgb(100%,100%,100%);fill-opacity:1;" d="M 716.351562 568.871094 L 711.949219 558.683594 L 705.171875 560.335938 "/>
<path style=" stroke:none;fill-rule:nonzero;fill:rgb(100%,100%,100%);fill-opacity:1;" d="M 716.351562 568.871094 L 704.824219 562.574219 L 709.011719 558.242188 "/>
<path style=" stroke:none;fill-rule:nonzero;fill:rgb(100%,100%,100%);fill-opacity:1;" d="M 699.601562 568.871094 L 711.128906 562.574219 L 706.941406 558.242188 "/>
<path style=" stroke:none;fill-rule:nonzero;fill:rgb(100%,100%,100%);fill-opacity:1;" d="M 699.601562 568.871094 L 704.003906 558.683594 L 710.78125 560.335938 "/>
<path style=" stroke:none;fill-rule:nonzero;fill:rgb(100%,100%,100%);fill-opacity:1;" d="M 667.261719 573.722656 L 663.59375 582.214844 L 669.238281 583.59375 "/>
<path style=" stroke:none;fill-rule:nonzero;fill:rgb(100%,100%,100%);fill-opacity:1;" d="M 667.261719 573.722656 L 670.929688 582.214844 L 665.285156 583.59375 "/>
<path style=" stroke:none;fill-rule:nonzero;fill:rgb(100%,100%,100%);fill-opacity:1;" d="M 678.554688 579.894531 L 666.679688 579.894531 L 666.679688 584.359375 "/>
<path style=" stroke:none;fill-rule:nonzero;fill:rgb(100%,100%,100%);fill-opacity:1;" d="M 678.554688 579.894531 L 668.949219 585.140625 L 665.457031 581.53125 "/>
<path style=" stroke:none;fill-rule:nonzero;fill:rgb(100%,100%,100%);fill-opacity:1;" d="M 655.96875 579.894531 L 665.574219 585.140625 L 669.066406 581.53125 "/>
<path style=" stroke:none;fill-rule:nonzero;fill:rgb(100%,100%,100%);fill-opacity:1;" d="M 655.96875 579.894531 L 667.84375 579.894531 L 667.84375 584.359375 "/>
<path style=" stroke:none;fill-rule:nonzero;fill:rgb(100%,100%,100%);fill-opacity:1;" d="M 674.242188 589.875 L 670.574219 581.386719 L 664.925781 582.765625 "/>
<path style=" stroke:none;fill-rule:nonzero;fill:rgb(100%,100%,100%);fill-opacity:1;" d="M 674.242188 589.875 L 664.636719 584.628906 L 668.125 581.015625 "/>
<path style=" stroke:none;fill-rule:nonzero;fill:rgb(100%,100%,100%);fill-opacity:1;" d="M 660.28125 589.875 L 669.890625 584.628906 L 666.398438 581.015625 "/>
<path style=" stroke:none;fill-rule:nonzero;fill:rgb(100%,100%,100%);fill-opacity:1;" d="M 660.28125 589.875 L 663.953125 581.386719 L 669.597656 582.765625 "/>
<path style=" stroke:none;fill-rule:nonzero;fill:rgb(100%,100%,100%);fill-opacity:1;" d="M 740.546875 539.796875 L 738.449219 544.648438 L 741.675781 545.4375 "/>
<path style=" stroke:none;fill-rule:nonzero;fill:rgb(100%,100%,100%);fill-opacity:1;" d="M 740.546875 539.796875 L 742.644531 544.648438 L 739.417969 545.4375 "/>
<path style=" stroke:none;fill-rule:nonzero;fill:rgb(100%,100%,100%);fill-opacity:1;" d="M 747 543.320312 L 740.214844 543.320312 L 740.214844 545.871094 "/>
<path style=" stroke:none;fill-rule:nonzero;fill:rgb(100%,100%,100%);fill-opacity:1;" d="M 747 543.320312 L 741.511719 546.320312 L 739.515625 544.257812 "/>
<path style=" stroke:none;fill-rule:nonzero;fill:rgb(100%,100%,100%);fill-opacity:1;" d="M 734.09375 543.320312 L 739.582031 546.320312 L 741.578125 544.257812 "/>
<path style=" stroke:none;fill-rule:nonzero;fill:rgb(100%,100%,100%);fill-opacity:1;" d="M 734.09375 543.320312 L 740.878906 543.320312 L 740.878906 545.871094 "/>
<path style=" stroke:none;fill-rule:nonzero;fill:rgb(100%,100%,100%);fill-opacity:1;" d="M 744.535156 549.027344 L 742.4375 544.171875 L 739.210938 544.960938 "/>
<path style=" stroke:none;fill-rule:nonzero;fill:rgb(100%,100%,100%);fill-opacity:1;" d="M 744.535156 549.027344 L 739.046875 546.027344 L 741.039062 543.960938 "/>
<path style=" stroke:none;fill-rule:nonzero;fill:rgb(100%,100%,100%);fill-opacity:1;" d="M 736.558594 549.027344 L 742.050781 546.027344 L 740.054688 543.960938 "/>
<path style=" stroke:none;fill-rule:nonzero;fill:rgb(100%,100%,100%);fill-opacity:1;" d="M 736.558594 549.027344 L 738.65625 544.171875 L 741.882812 544.960938 "/>
<path style=" stroke:none;fill-rule:nonzero;fill:rgb(100%,100%,100%);fill-opacity:1;" d="M 777.191406 576.105469 L 773.519531 584.597656 L 779.167969 585.976562 "/>
<path style=" stroke:none;fill-rule:nonzero;fill:rgb(100%,100%,100%);fill-opacity:1;" d="M 777.191406 576.105469 L 780.859375 584.597656 L 775.214844 585.976562 "/>
<path style=" stroke:none;fill-rule:nonzero;fill:rgb(100%,100%,100%);fill-opacity:1;" d="M 788.484375 582.273438 L 776.609375 582.273438 L 776.609375 586.738281 "/>
<path style=" stroke:none;fill-rule:nonzero;fill:rgb(100%,100%,100%);fill-opacity:1;" d="M 788.484375 582.273438 L 778.878906 587.523438 L 775.386719 583.910156 "/>
<path style=" stroke:none;fill-rule:nonzero;fill:rgb(100%,100%,100%);fill-opacity:1;" d="M 765.898438 582.273438 L 775.503906 587.523438 L 778.992188 583.910156 "/>
<path style=" stroke:none;fill-rule:nonzero;fill:rgb(100%,100%,100%);fill-opacity:1;" d="M 765.898438 582.273438 L 777.773438 582.273438 L 777.773438 586.738281 "/>
<path style=" stroke:none;fill-rule:nonzero;fill:rgb(100%,100%,100%);fill-opacity:1;" d="M 784.171875 592.257812 L 780.5 583.765625 L 774.855469 585.144531 "/>
<path style=" stroke:none;fill-rule:nonzero;fill:rgb(100%,100%,100%);fill-opacity:1;" d="M 784.171875 592.257812 L 774.5625 587.007812 L 778.054688 583.398438 "/>
<path style=" stroke:none;fill-rule:nonzero;fill:rgb(100%,100%,100%);fill-opacity:1;" d="M 770.210938 592.257812 L 779.816406 587.007812 L 776.328125 583.398438 "/>
<path style=" stroke:none;fill-rule:nonzero;fill:rgb(100%,100%,100%);fill-opacity:1;" d="M 770.210938 592.257812 L 773.878906 583.765625 L 779.527344 585.144531 "/>
<path style=" stroke:none;fill-rule:nonzero;fill:rgb(100%,100%,100%);fill-opacity:1;" d="M 767.238281 602.722656 L 764.300781 609.515625 L 768.820312 610.617188 "/>
<path style=" stroke:none;fill-rule:nonzero;fill:rgb(100%,100%,100%);fill-opacity:1;" d="M 767.238281 602.722656 L 770.171875 609.515625 L 765.65625 610.617188 "/>
<path style=" stroke:none;fill-rule:nonzero;fill:rgb(100%,100%,100%);fill-opacity:1;" d="M 776.273438 607.65625 L 766.773438 607.65625 L 766.773438 611.226562 "/>
<path style=" stroke:none;fill-rule:nonzero;fill:rgb(100%,100%,100%);fill-opacity:1;" d="M 776.273438 607.65625 L 768.585938 611.855469 L 765.796875 608.964844 "/>
<path style=" stroke:none;fill-rule:nonzero;fill:rgb(100%,100%,100%);fill-opacity:1;" d="M 758.203125 607.65625 L 765.890625 611.855469 L 768.679688 608.964844 "/>
<path style=" stroke:none;fill-rule:nonzero;fill:rgb(100%,100%,100%);fill-opacity:1;" d="M 758.203125 607.65625 L 767.703125 607.65625 L 767.703125 611.226562 "/>
<path style=" stroke:none;fill-rule:nonzero;fill:rgb(100%,100%,100%);fill-opacity:1;" d="M 772.820312 615.644531 L 769.886719 608.847656 L 765.367188 609.953125 "/>
<path style=" stroke:none;fill-rule:nonzero;fill:rgb(100%,100%,100%);fill-opacity:1;" d="M 772.820312 615.644531 L 765.136719 611.445312 L 767.929688 608.554688 "/>
<path style=" stroke:none;fill-rule:nonzero;fill:rgb(100%,100%,100%);fill-opacity:1;" d="M 761.652344 615.644531 L 769.339844 611.445312 L 766.546875 608.554688 "/>
<path style=" stroke:none;fill-rule:nonzero;fill:rgb(100%,100%,100%);fill-opacity:1;" d="M 761.652344 615.644531 L 764.589844 608.847656 L 769.105469 609.953125 "/>
<path style=" stroke:none;fill-rule:nonzero;fill:rgb(100%,100%,100%);fill-opacity:1;" d="M 1053.144531 411.734375 L 1048.738281 421.925781 L 1055.515625 423.578125 "/>
<path style=" stroke:none;fill-rule:nonzero;fill:rgb(100%,100%,100%);fill-opacity:1;" d="M 1053.144531 411.734375 L 1057.546875 421.925781 L 1050.769531 423.578125 "/>
<path style=" stroke:none;fill-rule:nonzero;fill:rgb(100%,100%,100%);fill-opacity:1;" d="M 1066.695312 419.136719 L 1052.445312 419.136719 L 1052.445312 424.496094 "/>
<path style=" stroke:none;fill-rule:nonzero;fill:rgb(100%,100%,100%);fill-opacity:1;" d="M 1066.695312 419.136719 L 1055.167969 425.4375 L 1050.980469 421.101562 "/>
<path style=" stroke:none;fill-rule:nonzero;fill:rgb(100%,100%,100%);fill-opacity:1;" d="M 1039.589844 419.136719 L 1051.117188 425.4375 L 1055.308594 421.101562 "/>
<path style=" stroke:none;fill-rule:nonzero;fill:rgb(100%,100%,100%);fill-opacity:1;" d="M 1039.589844 419.136719 L 1053.839844 419.136719 L 1053.839844 424.496094 "/>
<path style=" stroke:none;fill-rule:nonzero;fill:rgb(100%,100%,100%);fill-opacity:1;" d="M 1061.519531 431.117188 L 1057.117188 420.925781 L 1050.339844 422.582031 "/>
<path style=" stroke:none;fill-rule:nonzero;fill:rgb(100%,100%,100%);fill-opacity:1;" d="M 1061.519531 431.117188 L 1049.992188 424.820312 L 1054.179688 420.484375 "/>
<path style=" stroke:none;fill-rule:nonzero;fill:rgb(100%,100%,100%);fill-opacity:1;" d="M 1044.765625 431.117188 L 1056.296875 424.820312 L 1052.109375 420.484375 "/>
<path style=" stroke:none;fill-rule:nonzero;fill:rgb(100%,100%,100%);fill-opacity:1;" d="M 1044.765625 431.117188 L 1049.171875 420.925781 L 1055.945312 422.582031 "/>
<path style=" stroke:none;fill-rule:nonzero;fill:rgb(100%,100%,100%);fill-opacity:1;" d="M 1182.976562 577.039062 L 1178.574219 587.230469 L 1185.347656 588.886719 "/>
<path style=" stroke:none;fill-rule:nonzero;fill:rgb(100%,100%,100%);fill-opacity:1;" d="M 1182.976562 577.039062 L 1187.378906 587.230469 L 1180.601562 588.886719 "/>
<path style=" stroke:none;fill-rule:nonzero;fill:rgb(100%,100%,100%);fill-opacity:1;" d="M 1196.527344 584.445312 L 1182.277344 584.445312 L 1182.277344 589.800781 "/>
<path style=" stroke:none;fill-rule:nonzero;fill:rgb(100%,100%,100%);fill-opacity:1;" d="M 1196.527344 584.445312 L 1185 590.742188 L 1180.8125 586.40625 "/>
<path style=" stroke:none;fill-rule:nonzero;fill:rgb(100%,100%,100%);fill-opacity:1;" d="M 1169.421875 584.445312 L 1180.953125 590.742188 L 1185.140625 586.40625 "/>
<path style=" stroke:none;fill-rule:nonzero;fill:rgb(100%,100%,100%);fill-opacity:1;" d="M 1169.421875 584.445312 L 1183.671875 584.445312 L 1183.671875 589.800781 "/>
<path style=" stroke:none;fill-rule:nonzero;fill:rgb(100%,100%,100%);fill-opacity:1;" d="M 1191.351562 596.421875 L 1186.949219 586.234375 L 1180.171875 587.890625 "/>
<path style=" stroke:none;fill-rule:nonzero;fill:rgb(100%,100%,100%);fill-opacity:1;" d="M 1191.351562 596.421875 L 1179.824219 590.125 L 1184.011719 585.792969 "/>
<path style=" stroke:none;fill-rule:nonzero;fill:rgb(100%,100%,100%);fill-opacity:1;" d="M 1174.601562 596.421875 L 1186.128906 590.125 L 1181.941406 585.792969 "/>
<path style=" stroke:none;fill-rule:nonzero;fill:rgb(100%,100%,100%);fill-opacity:1;" d="M 1174.601562 596.421875 L 1179.003906 586.234375 L 1185.78125 587.890625 "/>
<path style=" stroke:none;fill-rule:nonzero;fill:rgb(100%,100%,100%);fill-opacity:1;" d="M 1229.117188 582.992188 L 1226.183594 589.785156 L 1230.699219 590.890625 "/>
<path style=" stroke:none;fill-rule:nonzero;fill:rgb(100%,100%,100%);fill-opacity:1;" d="M 1229.117188 582.992188 L 1232.054688 589.785156 L 1227.539062 590.890625 "/>
<path style=" stroke:none;fill-rule:nonzero;fill:rgb(100%,100%,100%);fill-opacity:1;" d="M 1238.152344 587.929688 L 1228.652344 587.929688 L 1228.652344 591.5 "/>
<path style=" stroke:none;fill-rule:nonzero;fill:rgb(100%,100%,100%);fill-opacity:1;" d="M 1238.152344 587.929688 L 1230.46875 592.128906 L 1227.675781 589.238281 "/>
<path style=" stroke:none;fill-rule:nonzero;fill:rgb(100%,100%,100%);fill-opacity:1;" d="M 1220.085938 587.929688 L 1227.769531 592.128906 L 1230.5625 589.238281 "/>
<path style=" stroke:none;fill-rule:nonzero;fill:rgb(100%,100%,100%);fill-opacity:1;" d="M 1220.085938 587.929688 L 1229.585938 587.929688 L 1229.585938 591.5 "/>
<path style=" stroke:none;fill-rule:nonzero;fill:rgb(100%,100%,100%);fill-opacity:1;" d="M 1234.703125 595.914062 L 1231.765625 589.121094 L 1227.25 590.226562 "/>
<path style=" stroke:none;fill-rule:nonzero;fill:rgb(100%,100%,100%);fill-opacity:1;" d="M 1234.703125 595.914062 L 1227.015625 591.714844 L 1229.808594 588.828125 "/>
<path style=" stroke:none;fill-rule:nonzero;fill:rgb(100%,100%,100%);fill-opacity:1;" d="M 1223.535156 595.914062 L 1231.222656 591.714844 L 1228.429688 588.828125 "/>
<path style=" stroke:none;fill-rule:nonzero;fill:rgb(100%,100%,100%);fill-opacity:1;" d="M 1223.535156 595.914062 L 1226.472656 589.121094 L 1230.988281 590.226562 "/>
<path style=" stroke:none;fill-rule:nonzero;fill:rgb(100%,100%,100%);fill-opacity:1;" d="M 1196.546875 600.933594 L 1192.878906 609.425781 L 1198.523438 610.804688 "/>
<path style=" stroke:none;fill-rule:nonzero;fill:rgb(100%,100%,100%);fill-opacity:1;" d="M 1196.546875 600.933594 L 1200.21875 609.425781 L 1194.570312 610.804688 "/>
<path style=" stroke:none;fill-rule:nonzero;fill:rgb(100%,100%,100%);fill-opacity:1;" d="M 1207.839844 607.105469 L 1195.964844 607.105469 L 1195.964844 611.570312 "/>
<path style=" stroke:none;fill-rule:nonzero;fill:rgb(100%,100%,100%);fill-opacity:1;" d="M 1207.839844 607.105469 L 1198.234375 612.351562 L 1194.746094 608.742188 "/>
<path style=" stroke:none;fill-rule:nonzero;fill:rgb(100%,100%,100%);fill-opacity:1;" d="M 1185.253906 607.105469 L 1194.859375 612.351562 L 1198.351562 608.742188 "/>
<path style=" stroke:none;fill-rule:nonzero;fill:rgb(100%,100%,100%);fill-opacity:1;" d="M 1185.253906 607.105469 L 1197.128906 607.105469 L 1197.128906 611.570312 "/>
<path style=" stroke:none;fill-rule:nonzero;fill:rgb(100%,100%,100%);fill-opacity:1;" d="M 1203.527344 617.085938 L 1199.859375 608.597656 L 1194.210938 609.976562 "/>
<path style=" stroke:none;fill-rule:nonzero;fill:rgb(100%,100%,100%);fill-opacity:1;" d="M 1203.527344 617.085938 L 1193.921875 611.839844 L 1197.410156 608.226562 "/>
<path style=" stroke:none;fill-rule:nonzero;fill:rgb(100%,100%,100%);fill-opacity:1;" d="M 1189.566406 617.085938 L 1199.175781 611.839844 L 1195.683594 608.226562 "/>
<path style=" stroke:none;fill-rule:nonzero;fill:rgb(100%,100%,100%);fill-opacity:1;" d="M 1189.566406 617.085938 L 1193.238281 608.597656 L 1198.882812 609.976562 "/>
<path style=" stroke:none;fill-rule:nonzero;fill:rgb(100%,100%,100%);fill-opacity:1;" d="M 1116.476562 653.316406 L 1112.804688 661.808594 L 1118.453125 663.1875 "/>
<path style=" stroke:none;fill-rule:nonzero;fill:rgb(100%,100%,100%);fill-opacity:1;" d="M 1116.476562 653.316406 L 1120.144531 661.808594 L 1114.5 663.1875 "/>
<path style=" stroke:none;fill-rule:nonzero;fill:rgb(100%,100%,100%);fill-opacity:1;" d="M 1127.769531 659.484375 L 1115.894531 659.484375 L 1115.894531 663.949219 "/>
<path style=" stroke:none;fill-rule:nonzero;fill:rgb(100%,100%,100%);fill-opacity:1;" d="M 1127.769531 659.484375 L 1118.164062 664.734375 L 1114.671875 661.121094 "/>
<path style=" stroke:none;fill-rule:nonzero;fill:rgb(100%,100%,100%);fill-opacity:1;" d="M 1105.183594 659.484375 L 1114.789062 664.734375 L 1118.28125 661.121094 "/>
<path style=" stroke:none;fill-rule:nonzero;fill:rgb(100%,100%,100%);fill-opacity:1;" d="M 1105.183594 659.484375 L 1117.058594 659.484375 L 1117.058594 663.949219 "/>
<path style=" stroke:none;fill-rule:nonzero;fill:rgb(100%,100%,100%);fill-opacity:1;" d="M 1123.457031 669.46875 L 1119.785156 660.976562 L 1114.140625 662.355469 "/>
<path style=" stroke:none;fill-rule:nonzero;fill:rgb(100%,100%,100%);fill-opacity:1;" d="M 1123.457031 669.46875 L 1113.847656 664.21875 L 1117.339844 660.609375 "/>
<path style=" stroke:none;fill-rule:nonzero;fill:rgb(100%,100%,100%);fill-opacity:1;" d="M 1109.496094 669.46875 L 1119.101562 664.21875 L 1115.613281 660.609375 "/>
<path style=" stroke:none;fill-rule:nonzero;fill:rgb(100%,100%,100%);fill-opacity:1;" d="M 1109.496094 669.46875 L 1113.164062 660.976562 L 1118.8125 662.355469 "/>
<path style=" stroke:none;fill-rule:nonzero;fill:rgb(100%,100%,100%);fill-opacity:1;" d="M 1116.023438 680.273438 L 1113.089844 687.066406 L 1117.605469 688.167969 "/>
<path style=" stroke:none;fill-rule:nonzero;fill:rgb(100%,100%,100%);fill-opacity:1;" d="M 1116.023438 680.273438 L 1118.960938 687.066406 L 1114.441406 688.167969 "/>
<path style=" stroke:none;fill-rule:nonzero;fill:rgb(100%,100%,100%);fill-opacity:1;" d="M 1125.058594 685.207031 L 1115.558594 685.207031 L 1115.558594 688.777344 "/>
<path style=" stroke:none;fill-rule:nonzero;fill:rgb(100%,100%,100%);fill-opacity:1;" d="M 1125.058594 685.207031 L 1117.375 689.40625 L 1114.582031 686.515625 "/>
<path style=" stroke:none;fill-rule:nonzero;fill:rgb(100%,100%,100%);fill-opacity:1;" d="M 1106.988281 685.207031 L 1114.675781 689.40625 L 1117.464844 686.515625 "/>
<path style=" stroke:none;fill-rule:nonzero;fill:rgb(100%,100%,100%);fill-opacity:1;" d="M 1106.988281 685.207031 L 1116.488281 685.207031 L 1116.488281 688.777344 "/>
<path style=" stroke:none;fill-rule:nonzero;fill:rgb(100%,100%,100%);fill-opacity:1;" d="M 1121.609375 693.195312 L 1118.671875 686.402344 L 1114.15625 687.503906 "/>
<path style=" stroke:none;fill-rule:nonzero;fill:rgb(100%,100%,100%);fill-opacity:1;" d="M 1121.609375 693.195312 L 1113.921875 688.996094 L 1116.714844 686.105469 "/>
<path style=" stroke:none;fill-rule:nonzero;fill:rgb(100%,100%,100%);fill-opacity:1;" d="M 1110.441406 693.195312 L 1118.125 688.996094 L 1115.332031 686.105469 "/>
<path style=" stroke:none;fill-rule:nonzero;fill:rgb(100%,100%,100%);fill-opacity:1;" d="M 1110.441406 693.195312 L 1113.375 686.402344 L 1117.894531 687.503906 "/>
<path style=" stroke:none;fill-rule:nonzero;fill:rgb(100%,100%,100%);fill-opacity:1;" d="M 1149.5 635.375 L 1146.5625 642.167969 L 1151.082031 643.269531 "/>
<path style=" stroke:none;fill-rule:nonzero;fill:rgb(100%,100%,100%);fill-opacity:1;" d="M 1149.5 635.375 L 1152.4375 642.167969 L 1147.917969 643.269531 "/>
<path style=" stroke:none;fill-rule:nonzero;fill:rgb(100%,100%,100%);fill-opacity:1;" d="M 1158.535156 640.308594 L 1149.035156 640.308594 L 1149.035156 643.882812 "/>
<path style=" stroke:none;fill-rule:nonzero;fill:rgb(100%,100%,100%);fill-opacity:1;" d="M 1158.535156 640.308594 L 1150.847656 644.507812 L 1148.058594 641.617188 "/>
<path style=" stroke:none;fill-rule:nonzero;fill:rgb(100%,100%,100%);fill-opacity:1;" d="M 1140.464844 640.308594 L 1148.152344 644.507812 L 1150.941406 641.617188 "/>
<path style=" stroke:none;fill-rule:nonzero;fill:rgb(100%,100%,100%);fill-opacity:1;" d="M 1140.464844 640.308594 L 1149.964844 640.308594 L 1149.964844 643.882812 "/>
<path style=" stroke:none;fill-rule:nonzero;fill:rgb(100%,100%,100%);fill-opacity:1;" d="M 1155.082031 648.296875 L 1152.148438 641.503906 L 1147.628906 642.605469 "/>
<path style=" stroke:none;fill-rule:nonzero;fill:rgb(100%,100%,100%);fill-opacity:1;" d="M 1155.082031 648.296875 L 1147.398438 644.097656 L 1150.191406 641.207031 "/>
<path style=" stroke:none;fill-rule:nonzero;fill:rgb(100%,100%,100%);fill-opacity:1;" d="M 1143.917969 648.296875 L 1151.601562 644.097656 L 1148.808594 641.207031 "/>
<path style=" stroke:none;fill-rule:nonzero;fill:rgb(100%,100%,100%);fill-opacity:1;" d="M 1143.917969 648.296875 L 1146.851562 641.503906 L 1151.371094 642.605469 "/>
<path style=" stroke:none;fill-rule:nonzero;fill:rgb(100%,100%,100%);fill-opacity:1;" d="M 1176.191406 621.003906 L 1172.519531 629.496094 L 1178.167969 630.875 "/>
<path style=" stroke:none;fill-rule:nonzero;fill:rgb(100%,100%,100%);fill-opacity:1;" d="M 1176.191406 621.003906 L 1179.859375 629.496094 L 1174.214844 630.875 "/>
<path style=" stroke:none;fill-rule:nonzero;fill:rgb(100%,100%,100%);fill-opacity:1;" d="M 1187.484375 627.171875 L 1175.609375 627.171875 L 1175.609375 631.636719 "/>
<path style=" stroke:none;fill-rule:nonzero;fill:rgb(100%,100%,100%);fill-opacity:1;" d="M 1187.484375 627.171875 L 1177.878906 632.421875 L 1174.386719 628.808594 "/>
<path style=" stroke:none;fill-rule:nonzero;fill:rgb(100%,100%,100%);fill-opacity:1;" d="M 1164.898438 627.171875 L 1174.503906 632.421875 L 1177.992188 628.808594 "/>
<path style=" stroke:none;fill-rule:nonzero;fill:rgb(100%,100%,100%);fill-opacity:1;" d="M 1164.898438 627.171875 L 1176.773438 627.171875 L 1176.773438 631.636719 "/>
<path style=" stroke:none;fill-rule:nonzero;fill:rgb(100%,100%,100%);fill-opacity:1;" d="M 1183.171875 637.15625 L 1179.5 628.664062 L 1173.855469 630.042969 "/>
<path style=" stroke:none;fill-rule:nonzero;fill:rgb(100%,100%,100%);fill-opacity:1;" d="M 1183.171875 637.15625 L 1173.5625 631.90625 L 1177.054688 628.296875 "/>
<path style=" stroke:none;fill-rule:nonzero;fill:rgb(100%,100%,100%);fill-opacity:1;" d="M 1169.210938 637.15625 L 1178.816406 631.90625 L 1175.328125 628.296875 "/>
<path style=" stroke:none;fill-rule:nonzero;fill:rgb(100%,100%,100%);fill-opacity:1;" d="M 1169.210938 637.15625 L 1172.878906 628.664062 L 1178.527344 630.042969 "/>
<path style=" stroke:none;fill-rule:nonzero;fill:rgb(100%,100%,100%);fill-opacity:1;" d="M 1115.117188 630.613281 L 1112.183594 637.40625 L 1116.699219 638.507812 "/>
<path style=" stroke:none;fill-rule:nonzero;fill:rgb(100%,100%,100%);fill-opacity:1;" d="M 1115.117188 630.613281 L 1118.054688 637.40625 L 1113.539062 638.507812 "/>
<path style=" stroke:none;fill-rule:nonzero;fill:rgb(100%,100%,100%);fill-opacity:1;" d="M 1124.152344 635.546875 L 1114.652344 635.546875 L 1114.652344 639.121094 "/>
<path style=" stroke:none;fill-rule:nonzero;fill:rgb(100%,100%,100%);fill-opacity:1;" d="M 1124.152344 635.546875 L 1116.46875 639.746094 L 1113.675781 636.855469 "/>
<path style=" stroke:none;fill-rule:nonzero;fill:rgb(100%,100%,100%);fill-opacity:1;" d="M 1106.085938 635.546875 L 1113.769531 639.746094 L 1116.5625 636.855469 "/>
<path style=" stroke:none;fill-rule:nonzero;fill:rgb(100%,100%,100%);fill-opacity:1;" d="M 1106.085938 635.546875 L 1115.585938 635.546875 L 1115.585938 639.121094 "/>
<path style=" stroke:none;fill-rule:nonzero;fill:rgb(100%,100%,100%);fill-opacity:1;" d="M 1120.703125 643.535156 L 1117.765625 636.742188 L 1113.25 637.84375 "/>
<path style=" stroke:none;fill-rule:nonzero;fill:rgb(100%,100%,100%);fill-opacity:1;" d="M 1120.703125 643.535156 L 1113.015625 639.335938 L 1115.808594 636.445312 "/>
<path style=" stroke:none;fill-rule:nonzero;fill:rgb(100%,100%,100%);fill-opacity:1;" d="M 1109.535156 643.535156 L 1117.222656 639.335938 L 1114.429688 636.445312 "/>
<path style=" stroke:none;fill-rule:nonzero;fill:rgb(100%,100%,100%);fill-opacity:1;" d="M 1109.535156 643.535156 L 1112.472656 636.742188 L 1116.988281 637.84375 "/>
<path style=" stroke:none;fill-rule:nonzero;fill:rgb(100%,100%,100%);fill-opacity:1;" d="M 823.332031 501.277344 L 819.664062 509.765625 L 825.3125 511.148438 "/>
<path style=" stroke:none;fill-rule:nonzero;fill:rgb(100%,100%,100%);fill-opacity:1;" d="M 823.332031 501.277344 L 827.003906 509.765625 L 821.355469 511.148438 "/>
<path style=" stroke:none;fill-rule:nonzero;fill:rgb(100%,100%,100%);fill-opacity:1;" d="M 834.628906 507.445312 L 822.753906 507.445312 L 822.753906 511.910156 "/>
<path style=" stroke:none;fill-rule:nonzero;fill:rgb(100%,100%,100%);fill-opacity:1;" d="M 834.628906 507.445312 L 825.019531 512.691406 L 821.53125 509.082031 "/>
<path style=" stroke:none;fill-rule:nonzero;fill:rgb(100%,100%,100%);fill-opacity:1;" d="M 812.039062 507.445312 L 821.648438 512.691406 L 825.136719 509.082031 "/>
<path style=" stroke:none;fill-rule:nonzero;fill:rgb(100%,100%,100%);fill-opacity:1;" d="M 812.039062 507.445312 L 823.914062 507.445312 L 823.914062 511.910156 "/>
<path style=" stroke:none;fill-rule:nonzero;fill:rgb(100%,100%,100%);fill-opacity:1;" d="M 830.3125 517.425781 L 826.644531 508.9375 L 820.996094 510.316406 "/>
<path style=" stroke:none;fill-rule:nonzero;fill:rgb(100%,100%,100%);fill-opacity:1;" d="M 830.3125 517.425781 L 820.707031 512.179688 L 824.195312 508.566406 "/>
<path style=" stroke:none;fill-rule:nonzero;fill:rgb(100%,100%,100%);fill-opacity:1;" d="M 816.351562 517.425781 L 825.960938 512.179688 L 822.46875 508.566406 "/>
<path style=" stroke:none;fill-rule:nonzero;fill:rgb(100%,100%,100%);fill-opacity:1;" d="M 816.351562 517.425781 L 820.023438 508.9375 L 825.667969 510.316406 "/>
<path style=" stroke:none;fill-rule:nonzero;fill:rgb(100%,100%,100%);fill-opacity:1;" d="M 1040.476562 480.273438 L 1037.539062 487.066406 L 1042.058594 488.167969 "/>
<path style=" stroke:none;fill-rule:nonzero;fill:rgb(100%,100%,100%);fill-opacity:1;" d="M 1040.476562 480.273438 L 1043.410156 487.066406 L 1038.894531 488.167969 "/>
<path style=" stroke:none;fill-rule:nonzero;fill:rgb(100%,100%,100%);fill-opacity:1;" d="M 1049.511719 485.207031 L 1040.011719 485.207031 L 1040.011719 488.777344 "/>
<path style=" stroke:none;fill-rule:nonzero;fill:rgb(100%,100%,100%);fill-opacity:1;" d="M 1049.511719 485.207031 L 1041.824219 489.40625 L 1039.035156 486.515625 "/>
<path style=" stroke:none;fill-rule:nonzero;fill:rgb(100%,100%,100%);fill-opacity:1;" d="M 1031.441406 485.207031 L 1039.125 489.40625 L 1041.917969 486.515625 "/>
<path style=" stroke:none;fill-rule:nonzero;fill:rgb(100%,100%,100%);fill-opacity:1;" d="M 1031.441406 485.207031 L 1040.941406 485.207031 L 1040.941406 488.777344 "/>
<path style=" stroke:none;fill-rule:nonzero;fill:rgb(100%,100%,100%);fill-opacity:1;" d="M 1046.058594 493.195312 L 1043.125 486.402344 L 1038.605469 487.503906 "/>
<path style=" stroke:none;fill-rule:nonzero;fill:rgb(100%,100%,100%);fill-opacity:1;" d="M 1046.058594 493.195312 L 1038.375 488.996094 L 1041.167969 486.105469 "/>
<path style=" stroke:none;fill-rule:nonzero;fill:rgb(100%,100%,100%);fill-opacity:1;" d="M 1034.890625 493.195312 L 1042.578125 488.996094 L 1039.785156 486.105469 "/>
<path style=" stroke:none;fill-rule:nonzero;fill:rgb(100%,100%,100%);fill-opacity:1;" d="M 1034.890625 493.195312 L 1037.828125 486.402344 L 1042.34375 487.503906 "/>
<path style=" stroke:none;fill-rule:nonzero;fill:rgb(100%,100%,100%);fill-opacity:1;" d="M 950 601.53125 L 945.597656 611.71875 L 952.371094 613.375 "/>
<path style=" stroke:none;fill-rule:nonzero;fill:rgb(100%,100%,100%);fill-opacity:1;" d="M 950 601.53125 L 954.402344 611.71875 L 947.628906 613.375 "/>
<path style=" stroke:none;fill-rule:nonzero;fill:rgb(100%,100%,100%);fill-opacity:1;" d="M 963.550781 608.933594 L 949.300781 608.933594 L 949.300781 614.292969 "/>
<path style=" stroke:none;fill-rule:nonzero;fill:rgb(100%,100%,100%);fill-opacity:1;" d="M 963.550781 608.933594 L 952.023438 615.230469 L 947.835938 610.898438 "/>
<path style=" stroke:none;fill-rule:nonzero;fill:rgb(100%,100%,100%);fill-opacity:1;" d="M 936.449219 608.933594 L 947.976562 615.230469 L 952.164062 610.898438 "/>
<path style=" stroke:none;fill-rule:nonzero;fill:rgb(100%,100%,100%);fill-opacity:1;" d="M 936.449219 608.933594 L 950.699219 608.933594 L 950.699219 614.292969 "/>
<path style=" stroke:none;fill-rule:nonzero;fill:rgb(100%,100%,100%);fill-opacity:1;" d="M 958.375 620.914062 L 953.972656 610.722656 L 947.195312 612.378906 "/>
<path style=" stroke:none;fill-rule:nonzero;fill:rgb(100%,100%,100%);fill-opacity:1;" d="M 958.375 620.914062 L 946.847656 614.617188 L 951.035156 610.28125 "/>
<path style=" stroke:none;fill-rule:nonzero;fill:rgb(100%,100%,100%);fill-opacity:1;" d="M 941.625 620.914062 L 953.152344 614.617188 L 948.964844 610.28125 "/>
<path style=" stroke:none;fill-rule:nonzero;fill:rgb(100%,100%,100%);fill-opacity:1;" d="M 941.625 620.914062 L 946.027344 610.722656 L 952.804688 612.378906 "/>
<path style=" stroke:none;fill-rule:nonzero;fill:rgb(100%,100%,100%);fill-opacity:1;" d="M 988.453125 553.65625 L 984.78125 562.148438 L 990.429688 563.527344 "/>
<path style=" stroke:none;fill-rule:nonzero;fill:rgb(100%,100%,100%);fill-opacity:1;" d="M 988.453125 553.65625 L 992.121094 562.148438 L 986.476562 563.527344 "/>
<path style=" stroke:none;fill-rule:nonzero;fill:rgb(100%,100%,100%);fill-opacity:1;" d="M 999.746094 559.824219 L 987.871094 559.824219 L 987.871094 564.289062 "/>
<path style=" stroke:none;fill-rule:nonzero;fill:rgb(100%,100%,100%);fill-opacity:1;" d="M 999.746094 559.824219 L 990.140625 565.074219 L 986.648438 561.460938 "/>
<path style=" stroke:none;fill-rule:nonzero;fill:rgb(100%,100%,100%);fill-opacity:1;" d="M 977.160156 559.824219 L 986.765625 565.074219 L 990.253906 561.460938 "/>
<path style=" stroke:none;fill-rule:nonzero;fill:rgb(100%,100%,100%);fill-opacity:1;" d="M 977.160156 559.824219 L 989.035156 559.824219 L 989.035156 564.289062 "/>
<path style=" stroke:none;fill-rule:nonzero;fill:rgb(100%,100%,100%);fill-opacity:1;" d="M 995.433594 569.808594 L 991.761719 561.316406 L 986.117188 562.695312 "/>
<path style=" stroke:none;fill-rule:nonzero;fill:rgb(100%,100%,100%);fill-opacity:1;" d="M 995.433594 569.808594 L 985.824219 564.558594 L 989.316406 560.949219 "/>
<path style=" stroke:none;fill-rule:nonzero;fill:rgb(100%,100%,100%);fill-opacity:1;" d="M 981.472656 569.808594 L 991.078125 564.558594 L 987.589844 560.949219 "/>
<path style=" stroke:none;fill-rule:nonzero;fill:rgb(100%,100%,100%);fill-opacity:1;" d="M 981.472656 569.808594 L 985.140625 561.316406 L 990.789062 562.695312 "/>
<path style=" stroke:none;fill-rule:nonzero;fill:rgb(100%,100%,100%);fill-opacity:1;" d="M 950 531.207031 L 946.332031 539.699219 L 951.976562 541.078125 "/>
<path style=" stroke:none;fill-rule:nonzero;fill:rgb(100%,100%,100%);fill-opacity:1;" d="M 950 531.207031 L 953.667969 539.699219 L 948.023438 541.078125 "/>
<path style=" stroke:none;fill-rule:nonzero;fill:rgb(100%,100%,100%);fill-opacity:1;" d="M 961.292969 537.378906 L 949.417969 537.378906 L 949.417969 541.839844 "/>
<path style=" stroke:none;fill-rule:nonzero;fill:rgb(100%,100%,100%);fill-opacity:1;" d="M 961.292969 537.378906 L 951.6875 542.625 L 948.195312 539.011719 "/>
<path style=" stroke:none;fill-rule:nonzero;fill:rgb(100%,100%,100%);fill-opacity:1;" d="M 938.707031 537.378906 L 948.3125 542.625 L 951.804688 539.011719 "/>
<path style=" stroke:none;fill-rule:nonzero;fill:rgb(100%,100%,100%);fill-opacity:1;" d="M 938.707031 537.378906 L 950.582031 537.378906 L 950.582031 541.839844 "/>
<path style=" stroke:none;fill-rule:nonzero;fill:rgb(100%,100%,100%);fill-opacity:1;" d="M 956.980469 547.359375 L 953.308594 538.867188 L 947.664062 540.246094 "/>
<path style=" stroke:none;fill-rule:nonzero;fill:rgb(100%,100%,100%);fill-opacity:1;" d="M 956.980469 547.359375 L 947.371094 542.113281 L 950.863281 538.5 "/>
<path style=" stroke:none;fill-rule:nonzero;fill:rgb(100%,100%,100%);fill-opacity:1;" d="M 943.019531 547.359375 L 952.628906 542.113281 L 949.136719 538.5 "/>
<path style=" stroke:none;fill-rule:nonzero;fill:rgb(100%,100%,100%);fill-opacity:1;" d="M 943.019531 547.359375 L 946.691406 538.867188 L 952.335938 540.246094 "/>
<path style=" stroke:none;fill-rule:nonzero;fill:rgb(100%,100%,100%);fill-opacity:1;" d="M 916.523438 555.441406 L 913.589844 562.234375 L 918.105469 563.339844 "/>
<path style=" stroke:none;fill-rule:nonzero;fill:rgb(100%,100%,100%);fill-opacity:1;" d="M 916.523438 555.441406 L 919.460938 562.234375 L 914.941406 563.339844 "/>
<path style=" stroke:none;fill-rule:nonzero;fill:rgb(100%,100%,100%);fill-opacity:1;" d="M 925.558594 560.378906 L 916.058594 560.378906 L 916.058594 563.949219 "/>
<path style=" stroke:none;fill-rule:nonzero;fill:rgb(100%,100%,100%);fill-opacity:1;" d="M 925.558594 560.378906 L 917.875 564.578125 L 915.082031 561.6875 "/>
<path style=" stroke:none;fill-rule:nonzero;fill:rgb(100%,100%,100%);fill-opacity:1;" d="M 907.488281 560.378906 L 915.175781 564.578125 L 917.964844 561.6875 "/>
<path style=" stroke:none;fill-rule:nonzero;fill:rgb(100%,100%,100%);fill-opacity:1;" d="M 907.488281 560.378906 L 916.988281 560.378906 L 916.988281 563.949219 "/>
<path style=" stroke:none;fill-rule:nonzero;fill:rgb(100%,100%,100%);fill-opacity:1;" d="M 922.109375 568.363281 L 919.171875 561.570312 L 914.65625 562.675781 "/>
<path style=" stroke:none;fill-rule:nonzero;fill:rgb(100%,100%,100%);fill-opacity:1;" d="M 922.109375 568.363281 L 914.421875 564.164062 L 917.214844 561.277344 "/>
<path style=" stroke:none;fill-rule:nonzero;fill:rgb(100%,100%,100%);fill-opacity:1;" d="M 910.941406 568.363281 L 918.625 564.164062 L 915.832031 561.277344 "/>
<path style=" stroke:none;fill-rule:nonzero;fill:rgb(100%,100%,100%);fill-opacity:1;" d="M 910.941406 568.363281 L 913.875 561.570312 L 918.394531 562.675781 "/>
<path style=" stroke:none;fill-rule:nonzero;fill:rgb(100%,100%,100%);fill-opacity:1;" d="M 933.261719 574.828125 L 931.164062 579.683594 L 934.390625 580.46875 "/>
<path style=" stroke:none;fill-rule:nonzero;fill:rgb(100%,100%,100%);fill-opacity:1;" d="M 933.261719 574.828125 L 935.359375 579.683594 L 932.132812 580.46875 "/>
<path style=" stroke:none;fill-rule:nonzero;fill:rgb(100%,100%,100%);fill-opacity:1;" d="M 939.714844 578.355469 L 932.929688 578.355469 L 932.929688 580.90625 "/>
<path style=" stroke:none;fill-rule:nonzero;fill:rgb(100%,100%,100%);fill-opacity:1;" d="M 939.714844 578.355469 L 934.226562 581.355469 L 932.230469 579.289062 "/>
<path style=" stroke:none;fill-rule:nonzero;fill:rgb(100%,100%,100%);fill-opacity:1;" d="M 926.808594 578.355469 L 932.296875 581.355469 L 934.292969 579.289062 "/>
<path style=" stroke:none;fill-rule:nonzero;fill:rgb(100%,100%,100%);fill-opacity:1;" d="M 926.808594 578.355469 L 933.59375 578.355469 L 933.59375 580.90625 "/>
<path style=" stroke:none;fill-rule:nonzero;fill:rgb(100%,100%,100%);fill-opacity:1;" d="M 937.25 584.058594 L 935.152344 579.207031 L 931.925781 579.996094 "/>
<path style=" stroke:none;fill-rule:nonzero;fill:rgb(100%,100%,100%);fill-opacity:1;" d="M 937.25 584.058594 L 931.761719 581.0625 L 933.753906 578.996094 "/>
<path style=" stroke:none;fill-rule:nonzero;fill:rgb(100%,100%,100%);fill-opacity:1;" d="M 929.273438 584.058594 L 934.761719 581.0625 L 932.769531 578.996094 "/>
<path style=" stroke:none;fill-rule:nonzero;fill:rgb(100%,100%,100%);fill-opacity:1;" d="M 929.273438 584.058594 L 931.371094 579.207031 L 934.597656 579.996094 "/>
<path style=" stroke:none;fill-rule:nonzero;fill:rgb(100%,100%,100%);fill-opacity:1;" d="M 1049.523438 659.4375 L 1045.855469 667.929688 L 1051.5 669.308594 "/>
<path style=" stroke:none;fill-rule:nonzero;fill:rgb(100%,100%,100%);fill-opacity:1;" d="M 1049.523438 659.4375 L 1053.195312 667.929688 L 1047.546875 669.308594 "/>
<path style=" stroke:none;fill-rule:nonzero;fill:rgb(100%,100%,100%);fill-opacity:1;" d="M 1060.816406 665.609375 L 1048.941406 665.609375 L 1048.941406 670.074219 "/>
<path style=" stroke:none;fill-rule:nonzero;fill:rgb(100%,100%,100%);fill-opacity:1;" d="M 1060.816406 665.609375 L 1051.210938 670.855469 L 1047.71875 667.246094 "/>
<path style=" stroke:none;fill-rule:nonzero;fill:rgb(100%,100%,100%);fill-opacity:1;" d="M 1038.230469 665.609375 L 1047.835938 670.855469 L 1051.328125 667.246094 "/>
<path style=" stroke:none;fill-rule:nonzero;fill:rgb(100%,100%,100%);fill-opacity:1;" d="M 1038.230469 665.609375 L 1050.105469 665.609375 L 1050.105469 670.074219 "/>
<path style=" stroke:none;fill-rule:nonzero;fill:rgb(100%,100%,100%);fill-opacity:1;" d="M 1056.503906 675.589844 L 1052.835938 667.097656 L 1047.1875 668.480469 "/>
<path style=" stroke:none;fill-rule:nonzero;fill:rgb(100%,100%,100%);fill-opacity:1;" d="M 1056.503906 675.589844 L 1046.898438 670.34375 L 1050.386719 666.730469 "/>
<path style=" stroke:none;fill-rule:nonzero;fill:rgb(100%,100%,100%);fill-opacity:1;" d="M 1042.542969 675.589844 L 1052.152344 670.34375 L 1048.660156 666.730469 "/>
<path style=" stroke:none;fill-rule:nonzero;fill:rgb(100%,100%,100%);fill-opacity:1;" d="M 1042.542969 675.589844 L 1046.214844 667.097656 L 1051.859375 668.480469 "/>
<path style=" stroke:none;fill-rule:nonzero;fill:rgb(100%,100%,100%);fill-opacity:1;" d="M 1078.023438 639.117188 L 1075.089844 645.910156 L 1079.605469 647.011719 "/>
<path style=" stroke:none;fill-rule:nonzero;fill:rgb(100%,100%,100%);fill-opacity:1;" d="M 1078.023438 639.117188 L 1080.960938 645.910156 L 1076.441406 647.011719 "/>
<path style=" stroke:none;fill-rule:nonzero;fill:rgb(100%,100%,100%);fill-opacity:1;" d="M 1087.058594 644.050781 L 1077.558594 644.050781 L 1077.558594 647.621094 "/>
<path style=" stroke:none;fill-rule:nonzero;fill:rgb(100%,100%,100%);fill-opacity:1;" d="M 1087.058594 644.050781 L 1079.375 648.25 L 1076.582031 645.359375 "/>
<path style=" stroke:none;fill-rule:nonzero;fill:rgb(100%,100%,100%);fill-opacity:1;" d="M 1068.988281 644.050781 L 1076.675781 648.25 L 1079.464844 645.359375 "/>
<path style=" stroke:none;fill-rule:nonzero;fill:rgb(100%,100%,100%);fill-opacity:1;" d="M 1068.988281 644.050781 L 1078.488281 644.050781 L 1078.488281 647.621094 "/>
<path style=" stroke:none;fill-rule:nonzero;fill:rgb(100%,100%,100%);fill-opacity:1;" d="M 1083.609375 652.039062 L 1080.671875 645.242188 L 1076.15625 646.347656 "/>
<path style=" stroke:none;fill-rule:nonzero;fill:rgb(100%,100%,100%);fill-opacity:1;" d="M 1083.609375 652.039062 L 1075.921875 647.839844 L 1078.714844 644.949219 "/>
<path style=" stroke:none;fill-rule:nonzero;fill:rgb(100%,100%,100%);fill-opacity:1;" d="M 1072.441406 652.039062 L 1080.125 647.839844 L 1077.332031 644.949219 "/>
<path style=" stroke:none;fill-rule:nonzero;fill:rgb(100%,100%,100%);fill-opacity:1;" d="M 1072.441406 652.039062 L 1075.375 645.242188 L 1079.894531 646.347656 "/>
<path style=" stroke:none;fill-rule:nonzero;fill:rgb(100%,100%,100%);fill-opacity:1;" d="M 1023.285156 632.992188 L 1020.351562 639.785156 L 1024.867188 640.890625 "/>
<path style=" stroke:none;fill-rule:nonzero;fill:rgb(100%,100%,100%);fill-opacity:1;" d="M 1023.285156 632.992188 L 1026.222656 639.785156 L 1021.703125 640.890625 "/>
<path style=" stroke:none;fill-rule:nonzero;fill:rgb(100%,100%,100%);fill-opacity:1;" d="M 1032.320312 637.929688 L 1022.820312 637.929688 L 1022.820312 641.5 "/>
<path style=" stroke:none;fill-rule:nonzero;fill:rgb(100%,100%,100%);fill-opacity:1;" d="M 1032.320312 637.929688 L 1024.636719 642.128906 L 1021.84375 639.238281 "/>
<path style=" stroke:none;fill-rule:nonzero;fill:rgb(100%,100%,100%);fill-opacity:1;" d="M 1014.25 637.929688 L 1021.9375 642.128906 L 1024.726562 639.238281 "/>
<path style=" stroke:none;fill-rule:nonzero;fill:rgb(100%,100%,100%);fill-opacity:1;" d="M 1014.25 637.929688 L 1023.75 637.929688 L 1023.75 641.5 "/>
<path style=" stroke:none;fill-rule:nonzero;fill:rgb(100%,100%,100%);fill-opacity:1;" d="M 1028.871094 645.914062 L 1025.933594 639.121094 L 1021.417969 640.226562 "/>
<path style=" stroke:none;fill-rule:nonzero;fill:rgb(100%,100%,100%);fill-opacity:1;" d="M 1028.871094 645.914062 L 1021.183594 641.714844 L 1023.976562 638.828125 "/>
<path style=" stroke:none;fill-rule:nonzero;fill:rgb(100%,100%,100%);fill-opacity:1;" d="M 1017.703125 645.914062 L 1025.386719 641.714844 L 1022.59375 638.828125 "/>
<path style=" stroke:none;fill-rule:nonzero;fill:rgb(100%,100%,100%);fill-opacity:1;" d="M 1017.703125 645.914062 L 1020.636719 639.121094 L 1025.15625 640.226562 "/>
<path style=" stroke:none;fill-rule:nonzero;fill:rgb(100%,100%,100%);fill-opacity:1;" d="M 816.546875 621.9375 L 812.144531 632.128906 L 818.921875 633.785156 "/>
<path style=" stroke:none;fill-rule:nonzero;fill:rgb(100%,100%,100%);fill-opacity:1;" d="M 816.546875 621.9375 L 820.949219 632.128906 L 814.175781 633.785156 "/>
<path style=" stroke:none;fill-rule:nonzero;fill:rgb(100%,100%,100%);fill-opacity:1;" d="M 830.101562 629.34375 L 815.851562 629.34375 L 815.851562 634.699219 "/>
<path style=" stroke:none;fill-rule:nonzero;fill:rgb(100%,100%,100%);fill-opacity:1;" d="M 830.101562 629.34375 L 818.570312 635.640625 L 814.382812 631.304688 "/>
<path style=" stroke:none;fill-rule:nonzero;fill:rgb(100%,100%,100%);fill-opacity:1;" d="M 802.996094 629.34375 L 814.523438 635.640625 L 818.710938 631.304688 "/>
<path style=" stroke:none;fill-rule:nonzero;fill:rgb(100%,100%,100%);fill-opacity:1;" d="M 802.996094 629.34375 L 817.246094 629.34375 L 817.246094 634.699219 "/>
<path style=" stroke:none;fill-rule:nonzero;fill:rgb(100%,100%,100%);fill-opacity:1;" d="M 824.921875 641.320312 L 820.519531 631.132812 L 813.742188 632.785156 "/>
<path style=" stroke:none;fill-rule:nonzero;fill:rgb(100%,100%,100%);fill-opacity:1;" d="M 824.921875 641.320312 L 813.394531 635.023438 L 817.582031 630.6875 "/>
<path style=" stroke:none;fill-rule:nonzero;fill:rgb(100%,100%,100%);fill-opacity:1;" d="M 808.171875 641.320312 L 819.699219 635.023438 L 815.511719 630.6875 "/>
<path style=" stroke:none;fill-rule:nonzero;fill:rgb(100%,100%,100%);fill-opacity:1;" d="M 808.171875 641.320312 L 812.574219 631.132812 L 819.351562 632.785156 "/>
<path style=" stroke:none;fill-rule:nonzero;fill:rgb(100%,100%,100%);fill-opacity:1;" d="M 950 692.007812 L 948.53125 695.402344 L 950.789062 695.957031 "/>
<path style=" stroke:none;fill-rule:nonzero;fill:rgb(100%,100%,100%);fill-opacity:1;" d="M 950 692.007812 L 951.46875 695.402344 L 949.210938 695.957031 "/>
<path style=" stroke:none;fill-rule:nonzero;fill:rgb(100%,100%,100%);fill-opacity:1;" d="M 954.515625 694.472656 L 949.765625 694.472656 L 949.765625 696.261719 "/>
<path style=" stroke:none;fill-rule:nonzero;fill:rgb(100%,100%,100%);fill-opacity:1;" d="M 954.515625 694.472656 L 950.675781 696.574219 L 949.277344 695.128906 "/>
<path style=" stroke:none;fill-rule:nonzero;fill:rgb(100%,100%,100%);fill-opacity:1;" d="M 945.484375 694.472656 L 949.324219 696.574219 L 950.722656 695.128906 "/>
<path style=" stroke:none;fill-rule:nonzero;fill:rgb(100%,100%,100%);fill-opacity:1;" d="M 945.484375 694.472656 L 950.234375 694.472656 L 950.234375 696.261719 "/>
<path style=" stroke:none;fill-rule:nonzero;fill:rgb(100%,100%,100%);fill-opacity:1;" d="M 952.792969 698.46875 L 951.324219 695.070312 L 949.066406 695.621094 "/>
<path style=" stroke:none;fill-rule:nonzero;fill:rgb(100%,100%,100%);fill-opacity:1;" d="M 952.792969 698.46875 L 948.949219 696.367188 L 950.34375 694.921875 "/>
<path style=" stroke:none;fill-rule:nonzero;fill:rgb(100%,100%,100%);fill-opacity:1;" d="M 947.207031 698.46875 L 951.050781 696.367188 L 949.65625 694.921875 "/>
<path style=" stroke:none;fill-rule:nonzero;fill:rgb(100%,100%,100%);fill-opacity:1;" d="M 947.207031 698.46875 L 948.675781 695.070312 L 950.933594 695.621094 "/>
</g>
</svg>
