<?xml version="1.0" encoding="UTF-8"?>
<svg xmlns="http://www.w3.org/2000/svg" xmlns:xlink="http://www.w3.org/1999/xlink" width="1900pt" height="1000pt" viewBox="0 0 1900 1000" version="1.1">
<g id="surface1">
<rect x="0" y="0" width="1900" height="1000" style="fill:rgb(74.901961%,3.921569%,18.823529%);fill-opacity:1;stroke:none;"/>
<path style="fill-rule:nonzero;fill:rgb(0%,0%,0%);fill-opacity:1;stroke-width:10;stroke-linecap:butt;stroke-linejoin:miter;stroke:rgb(100%,100%,100%);stroke-opacity:1;stroke-miterlimit:4;" d="M 0 14.999961 L 209 14.999961 M 0 35.000195 L 209 35.000195 M 0 55 L 209 55 M 0 74.999805 L 209 74.999805 M 0 95.000039 L 209 95.000039 " transform="matrix(9.090909,0,0,9.090909,0,0)"/>
<path style=" stroke:none;fill-rule:nonzero;fill:rgb(0%,15.686275%,40.784314%);fill-opacity:1;" d="M 0 0 L 454.546875 0 L 454.546875 454.546875 L 0 454.546875 Z M 0 0 "/>
<path style=" stroke:none;fill-rule:nonzero;fill:rgb(100%,100%,100%);fill-opacity:1;" d="M 227.273438 90.910156 L 185.132812 220.597656 L 249.980469 241.667969 Z M 227.273438 90.910156 "/>
<path style=" stroke:none;fill-rule:nonzero;fill:rgb(100%,100%,100%);fill-opacity:1;" d="M 227.273438 90.910156 L 269.410156 220.597656 L 204.566406 241.667969 Z M 227.273438 90.910156 "/>
<path style=" stroke:none;fill-rule:nonzero;fill:rgb(100%,100%,100%);fill-opacity:1;" d="M 356.960938 185.132812 L 220.597656 185.132812 L 220.597656 253.316406 Z M 356.960938 185.132812 "/>
<path style=" stroke:none;fill-rule:nonzero;fill:rgb(100%,100%,100%);fill-opacity:1;" d="M 356.960938 185.132812 L 246.640625 265.285156 L 206.566406 210.125 Z M 356.960938 185.132812 "/>
<path style=" stroke:none;fill-rule:nonzero;fill:rgb(100%,100%,100%);fill-opacity:1;" d="M 97.582031 185.132812 L 207.902344 265.285156 L 247.980469 210.125 Z M 97.582031 185.132812 "/>
<path style=" stroke:none;fill-rule:nonzero;fill:rgb(100%,100%,100%);fill-opacity:1;" d="M 97.582031 185.132812 L 233.945312 185.132812 L 233.945312 253.316406 Z M 97.582031 185.132812 "/>
<path style=" stroke:none;fill-rule:nonzero;fill:rgb(100%,100%,100%);fill-opacity:1;" d="M 307.425781 337.59375 L 265.285156 207.902344 L 200.441406 228.972656 Z M 307.425781 337.59375 "/>
<path style=" stroke:none;fill-rule:nonzero;fill:rgb(100%,100%,100%);fill-opacity:1;" d="M 307.425781 337.59375 L 197.105469 257.441406 L 237.179688 202.28125 Z M 307.425781 337.59375 "/>
<path style=" stroke:none;fill-rule:nonzero;fill:rgb(100%,100%,100%);fill-opacity:1;" d="M 147.121094 337.59375 L 257.441406 257.441406 L 217.363281 202.28125 Z M 147.121094 337.59375 "/>
<path style=" stroke:none;fill-rule:nonzero;fill:rgb(100%,100%,100%);fill-opacity:1;" d="M 147.121094 337.59375 L 189.257812 207.902344 L 254.105469 228.972656 Z M 147.121094 337.59375 "/>
</g>
</svg>
