<?xml version="1.0" encoding="UTF-8"?>
<svg xmlns="http://www.w3.org/2000/svg" xmlns:xlink="http://www.w3.org/1999/xlink" width="380pt" height="200pt" viewBox="0 0 1900 1000" version="1.1">
<g id="surface1">
<rect x="0" y="0" width="1900" height="1000" style="fill:rgb(0%,42.352941%,20.784314%);fill-opacity:1;stroke:none;"/>
<path style=" stroke:none;fill-rule:evenodd;fill:rgb(100%,100%,100%);fill-opacity:1;" d="M 818.976562 236.179688 C 817.992188 236.15625 816.523438 236.589844 814.464844 237.554688 C 809.832031 240.007812 800.652344 247.554688 800.371094 256.242188 C 800.089844 261.144531 798.917969 261.125 802.984375 264.242188 C 805.921875 267.585938 808.855469 267.257812 814.78125 264.804688 C 818.183594 262.824219 819.332031 261.5625 820.480469 258.242188 C 821.890625 252.675781 813.058594 260.878906 811.929688 254.679688 C 809.957031 248.925781 815.59375 246.5625 820.953125 240.992188 C 821.078125 238.371094 821.136719 236.230469 818.976562 236.179688 Z M 905.265625 236.554688 C 903.609375 236.730469 901.585938 238.40625 898.773438 242.429688 C 896.761719 246.644531 888.070312 253.023438 894.339844 266.179688 C 899.472656 274.523438 901.578125 288.078125 899.25 303.179688 C 895.695312 307.472656 894.886719 308.949219 890.226562 313.242188 C 883.679688 318.800781 876.585938 317.378906 871.144531 315.304688 C 866.0625 312.597656 862.066406 311.210938 859.746094 302.617188 C 860.164062 288.917969 861.175781 266.5 858.003906 261.742188 C 853.328125 254.375 845.621094 257.015625 842.328125 259.242188 C 826.503906 270.664062 818.6875 289.957031 813.90625 305.304688 C 809.519531 316.488281 804.839844 313.253906 801.558594 308.742188 C 793.5625 302.828125 793 256.574219 783.347656 264.179688 C 767.890625 299.058594 792.21875 337.269531 809.078125 333.554688 C 821.238281 337.53125 828.957031 319.253906 833.9375 299.242188 C 837.34375 293.625 839.945312 292.980469 841.695312 295.867188 C 841.246094 322.480469 844.113281 328.414062 852.777344 336.492188 C 872.109375 348.265625 888.101562 337.984375 889.355469 336.992188 C 890.609375 336.003906 904.394531 325.117188 904.394531 325.117188 C 907.746094 322.335938 912.171875 322.164062 916.902344 324.617188 C 921.503906 327.917969 920.914062 333.601562 930.757812 337.554688 C 939.042969 340.171875 956.738281 338.191406 960.839844 332.554688 C 966.363281 325.082031 967.703125 322.515625 970.261719 319.679688 C 974.203125 315.535156 980.949219 317.371094 980.949219 318.679688 C 980.320312 320.988281 976.359375 323.269531 979.050781 327.429688 C 983.738281 330.207031 984.828125 328.421875 987.601562 327.804688 C 997.40625 324.101562 1004.777344 307.304688 1004.777344 307.304688 C 1005.214844 301.039062 1000.699219 301.515625 997.8125 302.804688 C 994.050781 304.621094 993.816406 305.238281 990.054688 307.054688 C 985.257812 307.617188 975.96875 310.113281 971.371094 304.492188 C 966.675781 297.734375 966.648438 288.308594 963.058594 281.492188 C 963.058594 280.996094 956.785156 270.773438 962.582031 270.117188 C 965.511719 270.546875 971.804688 271.832031 972.796875 267.679688 C 975.867188 263.632812 966.171875 252.15625 959.574219 246.367188 C 953.847656 241.40625 945.941406 240.800781 938.277344 245.867188 C 932.914062 249.765625 933.710938 254.117188 932.660156 258.242188 C 931.292969 262.980469 931.554688 268.851562 937.644531 275.117188 C 943 283.453125 952.726562 294.148438 949.519531 309.242188 C 949.519531 309.242188 943.867188 316.425781 933.925781 315.492188 C 929.78125 314.777344 923.027344 313.363281 919.4375 292.429688 C 916.722656 276.585938 920.117188 254.386719 911.601562 243.992188 C 909.675781 240.070312 908.027344 236.261719 905.265625 236.554688 Z M 877.957031 238.234375 C 875.378906 238.414062 872.527344 240.78125 870.199219 245.359375 C 868.203125 248.839844 865.761719 267.046875 866.160156 267.046875 C 864.566406 272.464844 873.332031 274.761719 877.324219 267.796875 C 883.304688 255.03125 883.335938 249.589844 883.734375 244.175781 C 882.804688 240.046875 880.535156 238.058594 877.957031 238.238281 Z M 978.8125 239.671875 C 976.167969 239.863281 974.058594 241.085938 973.273438 244.171875 C 972.21875 251.433594 972.757812 255.378906 974.300781 261.421875 C 975.488281 265.453125 982.914062 272.199219 986.574219 276.109375 C 1004.042969 294.648438 1020.851562 313.277344 1037.082031 332.546875 C 1039.632812 346.859375 1041.503906 360.855469 1042.703125 374.796875 C 1045.332031 405.367188 1046.132812 443.417969 1043.730469 475.609375 C 1050.988281 475.835938 1062.609375 466.363281 1066.691406 452.484375 C 1069.34375 433.289062 1065.746094 394.125 1065.503906 382.796875 C 1065.332031 378.09375 1064.964844 372.484375 1064.554688 366.609375 C 1083.433594 390.96875 1101.75 416.773438 1119.730469 445.109375 C 1126.285156 442.652344 1124.832031 413.515625 1121 409.421875 C 1106.605469 384.96875 1086.726562 360.832031 1080.386719 351.546875 C 1078.097656 348.195312 1070.304688 338.835938 1061.070312 328.046875 C 1059.371094 312.648438 1057.523438 299.609375 1056.320312 295.671875 C 1053.351562 279.394531 1064.792969 297.507812 1063.207031 288.046875 C 1059.496094 271.792969 1048.128906 260.746094 1034.707031 245.859375 C 1030.378906 241.015625 1030.464844 240.027344 1023.78125 247.046875 C 1019.789062 254.199219 1019.84375 260.148438 1021.011719 265.734375 C 1019.253906 263.714844 1017.082031 261.324219 1013.964844 258.359375 C 1002.375 250.503906 1001.65625 250.078125 992.035156 243.671875 C 989.003906 241.96875 983.226562 239.355469 978.816406 239.671875 Z M 1277.746094 242.109375 C 1276.457031 241.953125 1275.054688 242.453125 1273.472656 244.296875 C 1270.449219 246.390625 1267.199219 250.179688 1267.296875 255.046875 C 1268.03125 263.625 1269.964844 272.40625 1270.703125 280.984375 C 1270.960938 282.132812 1271.234375 283.273438 1271.492188 284.421875 C 1270.324219 283.246094 1269.308594 282.328125 1268.722656 281.859375 C 1247.542969 264.296875 1278.453125 278.992188 1264.683594 265.421875 C 1253.042969 255.328125 1249.632812 252.117188 1239.667969 246.046875 C 1234.671875 243.5 1231.652344 238.625 1230.011719 246.921875 C 1229.355469 254.210938 1228.675781 262.652344 1229.296875 268.800781 C 1229.261719 272.214844 1233.742188 278.640625 1237.609375 282.425781 C 1251.738281 296.128906 1266.167969 310.707031 1280.675781 325.925781 C 1283.730469 356.957031 1284.542969 385.402344 1287.644531 416.484375 C 1287.203125 429.78125 1282.023438 447.4375 1277.113281 449.109375 C 1277.113281 449.109375 1269.617188 452.511719 1264.605469 448.734375 C 1260.960938 447.582031 1246.398438 429.546875 1246.398438 429.546875 C 1238.941406 424.152344 1233.96875 425.691406 1228.664062 429.546875 C 1214.03125 440.703125 1207.414062 461.59375 1197.472656 475.984375 C 1194.910156 479.195312 1187.6875 481.929688 1179.660156 475.734375 C 1159.273438 453.742188 1171.195312 422.441406 1168.65625 430.484375 C 1150.496094 446.644531 1158.539062 473.414062 1162.640625 479.171875 C 1168.628906 488.628906 1173.472656 494.683594 1185.125 499.363281 C 1195.734375 505.527344 1204 501.679688 1208.558594 497.363281 C 1219.234375 488.625 1219.378906 466.28125 1224.390625 461.863281 C 1227.90625 453.742188 1236.71875 455.136719 1241.015625 458.738281 C 1245.179688 463.464844 1250.097656 466.539062 1256.214844 469.113281 C 1266.175781 476.046875 1278.0625 477.308594 1289.78125 470.988281 C 1297.789062 467.441406 1302.984375 462.832031 1307.671875 453.738281 C 1312.703125 443.117188 1310.214844 387.453125 1309.097656 356.488281 C 1316.621094 364.851562 1324.046875 373.398438 1331.421875 382.046875 C 1334.660156 409.230469 1336.132812 436 1335.066406 461.671875 C 1334.300781 466.777344 1357.628906 446.433594 1357.46875 436.796875 C 1357.363281 428.363281 1357.488281 420.722656 1357.46875 413.609375 C 1368.785156 427.871094 1379.734375 442.367188 1390.085938 457.046875 C 1396.5 454.363281 1394.300781 425.691406 1390.246094 421.734375 C 1379.40625 407.378906 1365.527344 391.863281 1354.777344 379.859375 C 1352.652344 364.707031 1349.761719 346.835938 1348.445312 341.359375 C 1346.394531 332.820312 1344.339844 319.992188 1341.242188 309.859375 C 1340.390625 305.902344 1337.824219 293.261719 1338.628906 292.046875 C 1339.890625 289.21875 1344.667969 292.136719 1347.019531 288.859375 C 1350.539062 285.828125 1334.8125 253.664062 1326.832031 244.484375 C 1323.960938 240.367188 1318.769531 241.792969 1312.34375 248.484375 C 1306.382812 252.886719 1308.566406 262.929688 1310.839844 272.484375 C 1316.75 296.832031 1322.023438 321.625 1326.199219 346.359375 C 1318.472656 337.289062 1309.042969 326.316406 1299.753906 315.734375 C 1299.507812 314.714844 1298.566406 310.972656 1298.566406 310.921875 C 1298.566406 310.484375 1297.289062 291.003906 1296.191406 286.359375 C 1296 284.476562 1295.433594 283.933594 1297.933594 284.171875 C 1300.585938 285.933594 1300.949219 286.03125 1302.605469 286.609375 C 1305.285156 286.996094 1307.625 283.421875 1306.011719 280.109375 C 1297.722656 268.046875 1289.4375 255.925781 1281.152344 243.859375 C 1280.15625 243.085938 1279.035156 242.269531 1277.746094 242.109375 Z M 506.269531 242.734375 C 501.679688 242.632812 496.613281 244.878906 498.59375 249.234375 C 497.441406 251.609375 507.578125 259.636719 509.359375 264.046875 C 510.953125 267.1875 507.777344 277.300781 511.101562 278.234375 C 514.15625 279.28125 518.367188 271.234375 519.96875 263.796875 C 520.851562 259.722656 520.183594 245.78125 508.171875 242.921875 C 507.554688 242.8125 506.925781 242.75 506.273438 242.734375 Z M 1385.109375 242.816406 C 1384.0625 242.898438 1382.789062 244.230469 1380.835938 247.503906 C 1376.136719 253.578125 1374.519531 264.457031 1376.402344 274.066406 C 1387.714844 334.46875 1396.121094 392.960938 1397.855469 446.503906 C 1396.882812 451.585938 1396.597656 454.289062 1393.582031 460.691406 C 1386.902344 467.449219 1379.539062 475.917969 1372.601562 480.003906 C 1365.667969 484.085938 1350.90625 487.976562 1346.082031 491.003906 C 1330.769531 497.988281 1330.691406 506.023438 1343.070312 506.316406 C 1364.40625 504.359375 1389.648438 502.976562 1407.039062 482.253906 C 1411.691406 476.445312 1417.167969 460.699219 1417.410156 451.066406 C 1419.035156 394.570312 1416.496094 339.332031 1405.773438 298.503906 C 1405.085938 294.527344 1402.859375 285.382812 1403.714844 284.191406 C 1405.09375 281.394531 1412.074219 284.46875 1414.558594 281.253906 C 1418.207031 278.3125 1396.507812 256.382812 1388.910156 247.003906 C 1387.390625 244.648438 1386.457031 242.710938 1385.109375 242.816406 Z M 1161.386719 243.753906 C 1160.503906 243.871094 1159.203125 244.929688 1156.792969 247.441406 C 1150.835938 262.824219 1148.742188 275.386719 1151.015625 284.941406 C 1166.324219 348.007812 1182.007812 405.464844 1179.515625 465.503906 C 1186.773438 465.539062 1195.167969 452.390625 1198.753906 439.378906 C 1200.71875 421.449219 1197.441406 410.539062 1196.851562 400.003906 C 1196.265625 389.464844 1181.746094 303.972656 1178.804688 296.003906 C 1175.253906 280.925781 1192.921875 294.019531 1190.996094 285.253906 C 1184.886719 274.199219 1169.640625 258.105469 1164.871094 248.503906 C 1163.078125 245.929688 1162.855469 243.550781 1161.386719 243.753906 Z M 616.644531 244.941406 C 614.761719 245.199219 612.945312 246.421875 612.289062 248.441406 C 611.875 249.761719 613.015625 251.960938 611.496094 252.628906 C 610.628906 253.320312 607.324219 252.855469 607.460938 249.191406 C 607.460938 248.023438 606.375 246.804688 605.71875 246.066406 C 605.058594 245.722656 604.613281 245.628906 603.421875 245.628906 C 601.96875 245.675781 602.003906 245.976562 601.207031 246.941406 C 600.851562 247.921875 600.394531 248.878906 600.394531 250 C 600.214844 251.304688 599.550781 251.746094 598.335938 251.9375 C 596.980469 251.9375 597.300781 252.054688 596.199219 251.5 C 595.546875 250.9375 594.773438 250.714844 594.773438 249.75 C 594.773438 248.753906 594.441406 247.160156 594.0625 246.5 C 593.484375 245.898438 592.574219 245.585938 591.527344 245.375 C 585.835938 245.390625 585.421875 250.554688 585.75 252.5 C 585.324219 252.867188 585.113281 262.019531 592.875 264.5625 C 603.296875 268.484375 622.835938 266.828125 622.007812 253.5625 C 622.007812 252.390625 621.679688 248.449219 621.53125 247.375 C 620.46875 245.417969 618.507812 244.679688 616.625 244.9375 Z M 756.453125 245.066406 C 752.851562 245.210938 749.671875 246.023438 746.953125 247.128906 C 740.046875 252.347656 738.425781 260.71875 743.867188 265.941406 C 749.160156 267.914062 754.441406 272.121094 750.910156 274.441406 C 735.941406 287.0625 696.984375 308.152344 695.019531 312 C 695.003906 312.035156 694.949219 312.097656 694.941406 312.125 C 694.9375 312.15625 694.941406 312.226562 694.941406 312.25 C 694.941406 312.265625 694.9375 312.304688 694.941406 312.3125 C 694.953125 312.347656 694.996094 312.414062 695.019531 312.4375 C 695.03125 312.449219 695.089844 312.496094 695.101562 312.5 C 695.113281 312.507812 695.164062 312.496094 695.179688 312.5 C 695.195312 312.507812 695.242188 312.558594 695.257812 312.5625 C 695.277344 312.566406 695.316406 312.558594 695.335938 312.5625 C 695.34375 312.566406 695.410156 312.621094 695.417969 312.625 C 697.394531 313.675781 721.773438 313.648438 724.472656 312.6875 C 724.492188 312.679688 724.535156 312.632812 724.550781 312.625 C 724.558594 312.621094 724.621094 312.628906 724.628906 312.625 C 724.632812 312.621094 724.625 312.566406 724.628906 312.5625 C 733.007812 310.125 772.761719 274.253906 772.761719 274.253906 C 770.703125 272.859375 768.804688 271.832031 766.746094 270.441406 C 764.539062 268.933594 764.761719 267.449219 766.746094 265.941406 C 776.59375 261.417969 773.472656 251.464844 768.328125 246.941406 C 764.066406 245.429688 760.054688 244.917969 756.453125 245.066406 Z M 1121.886719 245.191406 C 1120.839844 245.273438 1119.566406 246.542969 1117.613281 249.816406 C 1112.914062 255.890625 1109.71875 266.472656 1110.089844 276.378906 C 1120.269531 332.003906 1123.390625 380.683594 1130.039062 436.316406 C 1130.582031 441.695312 1129.582031 449.511719 1125.054688 452.628906 C 1108.296875 466.441406 1084.136719 483.476562 1057.839844 491.316406 C 1055.011719 493.824219 1064.875 504.511719 1077.632812 504.503906 C 1098.96875 502.546875 1117.71875 493.09375 1135.109375 468.191406 C 1139.757812 462.382812 1147.929688 449.953125 1148.171875 440.316406 C 1149.796875 383.820312 1144.5625 339.898438 1133.84375 299.066406 C 1133.15625 295.089844 1133.621094 290.382812 1134.476562 289.191406 C 1135.855469 287.886719 1140.542969 289.21875 1143.027344 286.003906 C 1146.671875 283.0625 1133.289062 258.691406 1125.6875 249.316406 C 1124.171875 246.960938 1123.234375 245.085938 1121.886719 245.191406 Z M 555.761719 246.890625 C 552.816406 247.160156 550.046875 249.054688 548.71875 251.578125 C 548.222656 260.5 548.15625 269.417969 549.429688 277.640625 C 554.570312 292.0625 556.195312 304.746094 558.691406 319.515625 C 559.382812 339.296875 544.222656 328.074219 544.917969 318.265625 C 548.417969 305.527344 547.472656 285.472656 544.363281 280.390625 C 541.894531 275.308594 539.039062 274.054688 533.042969 274.890625 C 528.28125 274.660156 515.976562 285.242188 512.539062 302.765625 C 512.539062 302.765625 509.671875 311.757812 508.421875 319.765625 C 506.738281 328.816406 499.144531 335.222656 493.855469 318.515625 C 489.28125 306.371094 486.46875 276.453125 478.8125 283.453125 C 476.617188 306.816406 474.015625 347.921875 499.15625 352.140625 C 529.570312 354.449219 512.769531 311.554688 523.777344 303.765625 C 525.859375 299.917969 529.714844 299.847656 530.035156 304.703125 L 530.035156 341.140625 C 529.753906 352.988281 539.628906 356.507812 547.292969 358.953125 C 555.265625 358.46875 560.554688 358.640625 563.679688 364.765625 C 564.925781 385.769531 566.234375 406.824219 567.480469 427.828125 C 567.480469 427.828125 585.914062 432.011719 586.796875 392.390625 C 587.679688 369.125 580.929688 349.605469 584.894531 345.078125 C 585.035156 340.632812 592.257812 340.410156 597.246094 342.578125 C 605.195312 347.003906 608.722656 352.453125 621.074219 350.265625 C 639.875 346.175781 651.195312 338.972656 651.476562 327.578125 C 650.378906 316.75 648.789062 305.90625 642.847656 295.078125 C 643.675781 293.109375 639.246094 287.984375 640.074219 286.015625 C 643.453125 290.191406 648.5625 289.84375 649.734375 286.015625 C 646.535156 277.691406 641.550781 269.714844 633.503906 266.265625 C 626.851562 261.640625 617.117188 262.617188 613.554688 272.265625 C 611.902344 283.382812 618.65625 296.558594 628.914062 307.328125 C 631.089844 311.535156 634.136719 318.53125 632.792969 324.828125 C 627.335938 327.285156 621.925781 326.261719 617.355469 322.453125 C 617.355469 322.453125 602.390625 313.609375 602.390625 311.640625 C 606.363281 291.570312 603.246094 289.273438 601.046875 283.703125 C 599.507812 276.011719 594.894531 273.578125 591.148438 268.328125 C 587.40625 265.195312 582.328125 265.195312 579.910156 268.328125 C 573.296875 277.378906 576.398438 296.8125 581.175781 305.515625 C 584.628906 313.519531 589.921875 318.515625 587.429688 318.515625 C 585.375 323.039062 581.09375 321.984375 578.007812 316.765625 C 573.601562 305.972656 572.703125 289.890625 572.703125 282.640625 C 571.382812 273.652344 569.90625 254.449219 562.414062 249.578125 C 560.414062 247.429688 558.050781 246.679688 555.761719 246.890625 Z M 662.558594 247.015625 C 661.046875 247.164062 659.378906 247.84375 657.414062 248.203125 C 650.945312 249.828125 644.894531 254.238281 646.804688 262.828125 C 654.445312 299.492188 659.429688 327.472656 667.070312 364.140625 C 668.246094 368.433594 663.6875 374.09375 657.808594 373.515625 C 647.8125 368.175781 645.332031 357.367188 628.28125 357.828125 C 615.933594 357.945312 601.855469 368.550781 600.097656 378.765625 C 598.039062 386.882812 597.304688 395.683594 600.097656 402.765625 C 608.773438 411 619.167969 410.125 628.28125 408.265625 C 635.773438 405.828125 641.941406 400 644.589844 401.390625 C 644.59375 401.394531 644.660156 401.382812 644.667969 401.390625 C 644.675781 401.398438 644.660156 401.445312 644.667969 401.453125 C 646.300781 403.707031 644.511719 422.777344 609.355469 437.515625 C 587.753906 445.171875 570.558594 447.003906 561.300781 433.078125 C 555.570312 424.375 561.71875 391.230469 547.605469 398.890625 C 505.871094 483.824219 645.386719 495.679688 660.972656 402.390625 C 661.984375 399.757812 665.058594 397.117188 667.226562 397.765625 C 668.179688 398.082031 669.050781 399.105469 669.367188 401.015625 C 666.128906 485.484375 561.429688 491.273438 543.648438 464.703125 C 539.242188 458.4375 537.914062 444.496094 537.472656 436.140625 C 536.667969 431.085938 535.0625 428.167969 533.199219 427.015625 C 528.957031 424.5 523.257812 431.0625 522.035156 442.453125 C 520.273438 451.617188 520.769531 454.136719 520.769531 462.953125 C 526.355469 529.671875 661.085938 501.003906 682.980469 445.890625 C 693.820312 417.398438 682.761719 395.902344 686.386719 393.265625 C 686.417969 393.246094 686.511719 393.222656 686.542969 393.203125 C 686.578125 393.1875 686.664062 393.15625 686.703125 393.140625 C 686.738281 393.128906 686.820312 393.089844 686.859375 393.078125 C 686.984375 393.054688 687.191406 393.019531 687.335938 393.015625 C 700.710938 404.390625 719.480469 394.460938 723.59375 390.515625 C 725.355469 388.542969 729.769531 387.277344 732.855469 389.828125 C 743.289062 395.75 761.574219 392.957031 765.394531 382.515625 C 767.597656 372.304688 769.464844 361.792969 769.90625 350.890625 C 763.109375 352.558594 757.625 353.804688 755.417969 355.640625 C 754.890625 356.09375 754.503906 356.597656 754.390625 357.140625 C 753.800781 360.160156 753.238281 363.1875 752.648438 366.203125 C 752.585938 366.453125 752.484375 366.683594 752.332031 366.890625 C 752.039062 367.261719 751.5625 367.605469 751.0625 367.828125 C 748.660156 368.867188 744.472656 368.273438 744.253906 365.515625 C 741.023438 353.914062 727.71875 352.40625 719.632812 370.390625 C 714.195312 373.871094 704.277344 374.550781 703.246094 369.328125 C 704.570312 357.261719 698.410156 355.644531 686.066406 361.328125 C 682.101562 337.429688 678.164062 314.609375 674.191406 290.707031 C 679.339844 290.589844 684.054688 293.535156 688.757812 288.894531 C 683.667969 276.394531 672.898438 250.96875 666.832031 248.582031 C 666.78125 248.5625 666.71875 248.535156 666.671875 248.519531 C 666.398438 248.257812 666.070312 248.019531 665.800781 247.832031 C 665.6875 247.757812 665.515625 247.644531 665.40625 247.582031 C 665.292969 247.519531 665.121094 247.445312 665.007812 247.394531 C 664.765625 247.289062 664.460938 247.203125 664.21875 247.144531 C 663.664062 247.019531 663.128906 246.960938 662.554688 247.019531 Z M 1078.886719 247.203125 C 1073.546875 247.078125 1067.636719 249.734375 1069.941406 255.015625 C 1068.601562 257.894531 1081.410156 267.667969 1083.476562 273.015625 C 1087.195312 281.230469 1080.636719 289.070312 1084.507812 290.203125 C 1088.066406 291.46875 1093.019531 281.71875 1094.878906 272.703125 C 1097.023438 265.414062 1090.4375 250.472656 1081.101562 247.390625 C 1080.386719 247.257812 1079.648438 247.222656 1078.886719 247.203125 Z M 754.542969 256.203125 C 756.976562 256.007812 759.914062 257.769531 761.351562 260.265625 C 762.886719 262.925781 762.117188 265.46875 759.609375 265.953125 C 757.101562 266.4375 753.863281 264.675781 752.328125 262.015625 C 750.792969 259.355469 751.5625 256.75 754.066406 256.265625 C 754.226562 256.234375 754.382812 256.214844 754.542969 256.203125 Z M 1356.210938 268.515625 C 1351.34375 268.378906 1346.035156 271.296875 1348.136719 277.015625 C 1346.914062 280.132812 1358.523438 290.726562 1360.40625 296.515625 C 1362.097656 300.636719 1357.828125 313.914062 1361.355469 315.140625 C 1364.601562 316.511719 1369.164062 305.964844 1370.855469 296.203125 C 1371.796875 290.859375 1366.777344 272.105469 1358.269531 268.765625 C 1357.617188 268.621094 1356.90625 268.535156 1356.210938 268.515625 Z M 1023.558594 275.015625 C 1024.003906 276.582031 1024.449219 278.160156 1024.746094 279.765625 C 1025.742188 283.226562 1026.601562 286.667969 1027.515625 290.078125 C 1023.671875 285.898438 1020.492188 282.523438 1019.125 281.328125 C 1010.429688 273.167969 1019.320312 275.96875 1023.558594 275.015625 Z M 1100.191406 304.765625 C 1098.308594 305.023438 1096.496094 306.308594 1095.835938 308.328125 C 1095.421875 309.648438 1096.640625 311.785156 1095.125 312.453125 C 1094.253906 313.144531 1090.871094 312.742188 1091.007812 309.078125 C 1091.007812 307.910156 1089.921875 306.628906 1089.265625 305.890625 C 1088.605469 305.550781 1088.164062 305.453125 1086.96875 305.453125 C 1085.515625 305.5 1085.550781 305.800781 1084.753906 306.765625 C 1084.417969 307.746094 1083.960938 308.714844 1083.960938 309.828125 C 1083.78125 311.132812 1083.199219 311.574219 1081.984375 311.765625 C 1080.625 311.765625 1080.867188 311.882812 1079.765625 311.328125 C 1079.113281 310.761719 1078.339844 310.539062 1078.339844 309.578125 C 1078.339844 308.578125 1078.007812 306.984375 1077.628906 306.328125 C 1077.050781 305.726562 1076.140625 305.476562 1075.09375 305.265625 C 1069.402344 305.28125 1069.070312 310.382812 1069.394531 312.328125 C 1068.96875 312.695312 1068.679688 321.90625 1076.441406 324.453125 C 1086.863281 328.375 1106.480469 326.652344 1105.652344 313.390625 C 1105.652344 312.214844 1105.246094 308.277344 1105.097656 307.203125 C 1104.035156 305.246094 1102.070312 304.507812 1100.191406 304.765625 Z M 750.289062 307.515625 C 749.003906 307.410156 747.316406 307.785156 745.378906 308.703125 C 736.164062 312.636719 732.59375 324.308594 738.332031 331.140625 C 743.691406 337.15625 752.167969 334.953125 753.296875 334.953125 C 762.324219 335.84375 767.703125 321.578125 767.703125 321.578125 C 767.703125 321.578125 767.976562 317.566406 757.253906 325.140625 C 752.742188 325.808594 752.128906 324.519531 751 322.515625 C 750.058594 318.804688 750.261719 315.039062 752.425781 311.328125 C 753.421875 309.101562 752.429688 307.6875 750.285156 307.515625 Z M 1244.921875 309.328125 C 1239.804688 309.132812 1234.359375 311.746094 1232.964844 317.265625 C 1232.988281 320.519531 1234.828125 322.308594 1234.46875 325.265625 C 1233.9375 326.953125 1231.730469 328.066406 1226.476562 326.078125 C 1227.296875 325.480469 1223.070312 320.765625 1223.070312 320.765625 C 1218.96875 318.792969 1213.492188 320.871094 1209.929688 322.703125 C 1207.96875 325.515625 1206.515625 330.339844 1208.742188 335.265625 C 1214.625 343.851562 1234.816406 358.5 1244.445312 358.640625 C 1244.625 350.898438 1245.578125 340.605469 1246.109375 334.203125 C 1246.335938 331.785156 1247.054688 329.121094 1249.988281 328.515625 C 1252.917969 327.910156 1258.007812 330.84375 1258.0625 328.328125 C 1257.527344 323.402344 1256.28125 316.136719 1252.757812 312.703125 C 1250.953125 310.589844 1247.992188 309.445312 1244.921875 309.328125 Z M 835.484375 336.265625 C 835.347656 336.304688 835.210938 336.398438 835.085938 336.453125 C 835.027344 336.480469 834.910156 336.542969 834.851562 336.578125 C 833.832031 337.183594 832.628906 338.574219 829.941406 340.078125 C 825.410156 344.148438 824.597656 346.980469 824.875 355.140625 C 825.132812 356.003906 833.480469 374.324219 840.550781 387.203125 C 845.316406 400.585938 849.726562 415.914062 846.488281 430.390625 C 835.328125 449.527344 812.886719 466.691406 791.230469 476.015625 C 780.195312 478.804688 770.667969 477.855469 768.113281 475.953125 C 768.09375 475.9375 768.054688 475.90625 768.035156 475.890625 C 761.699219 472.527344 761.550781 466.539062 761.9375 465.515625 C 761.9375 465.507812 761.941406 465.460938 761.9375 465.453125 C 761.953125 465.441406 762.003906 465.402344 762.019531 465.390625 C 780.292969 455.339844 801.167969 447.207031 817.511719 420.078125 C 822.339844 409.710938 823.8125 403.484375 819.015625 387.453125 C 817.148438 381.480469 814.839844 376.5625 809.675781 372.328125 C 809.6875 372.316406 809.742188 372.277344 809.753906 372.265625 C 812.867188 371.089844 820.9375 375.785156 822.183594 372.828125 C 820.273438 365.175781 813.707031 354.898438 806.273438 349.640625 C 799.761719 344.972656 792.675781 344.429688 786.71875 348.703125 C 780.003906 351.652344 778.578125 362.246094 781.808594 371.515625 C 785.398438 378.496094 795.09375 379.71875 801.996094 393.765625 C 801.996094 393.777344 801.996094 393.824219 801.996094 393.828125 C 802.140625 394.707031 804.367188 404.3125 800.886719 408.203125 C 798.066406 415.152344 761.8125 437.71875 759.246094 439.078125 C 759.21875 439.101562 759.035156 439.183594 759.007812 439.203125 C 758.992188 439.214844 758.941406 439.253906 758.929688 439.265625 C 758.921875 439.269531 758.867188 439.316406 758.851562 439.328125 C 758.84375 439.335938 758.777344 439.382812 758.769531 439.390625 C 758.761719 439.390625 758.699219 439.390625 758.691406 439.390625 C 758.6875 439.390625 758.628906 439.390625 758.613281 439.390625 C 758.597656 439.378906 758.546875 439.339844 758.535156 439.328125 C 758.535156 439.324219 758.535156 439.273438 758.535156 439.265625 C 758.519531 439.246094 758.46875 439.164062 758.453125 439.140625 C 758.34375 438.578125 758.539062 437.144531 758.453125 434.828125 C 758.214844 430.601562 760.433594 421.03125 760.277344 419.390625 C 760.277344 419.386719 760.273438 419.335938 760.277344 419.328125 C 760.261719 419.316406 760.210938 419.277344 760.195312 419.265625 C 760.195312 419.261719 760.195312 419.210938 760.195312 419.203125 C 760.179688 419.203125 760.121094 419.203125 760.117188 419.203125 C 748.132812 425.3125 744.175781 444.035156 741.988281 449.578125 C 711.652344 466.128906 677.199219 478.441406 657.359375 495.203125 C 647.027344 507.945312 728.558594 480.574219 738.03125 477.265625 C 738.113281 477.3125 738.195312 477.390625 738.269531 477.453125 C 740.070312 479.019531 740.222656 484.472656 745.632812 489.390625 C 754.105469 498.453125 772.121094 504.035156 789.648438 500.578125 C 819.042969 492.191406 835.976562 476.375 853.21875 458.828125 C 855.683594 456 859.546875 453.769531 863.113281 455.953125 C 874.960938 476.894531 909.121094 491.792969 953.285156 493.328125 C 963.503906 483.519531 958.617188 478.695312 954.472656 476.640625 C 953.199219 475.972656 932.511719 469.605469 929.300781 463.265625 C 927.277344 457.367188 932.195312 452.136719 942.042969 448.203125 C 970.398438 445.496094 998.273438 442.488281 1025.25 435.640625 C 1025.523438 428.488281 1030.859375 417.789062 1034.433594 413.140625 C 1036.914062 409.917969 1038.507812 409.597656 1039.105469 409.140625 C 1039.125 409.125 1039.164062 409.097656 1039.183594 409.078125 C 1039.191406 409.070312 1039.253906 409.027344 1039.261719 409.019531 C 1039.277344 409.007812 1039.328125 408.964844 1039.339844 408.957031 C 1039.339844 408.933594 1039.34375 408.851562 1039.339844 408.832031 C 1039.355469 408.6875 1039.339844 408.445312 1039.261719 408.207031 L 1034.671875 406.082031 L 944.183594 405.769531 C 943.0625 405.429688 942.234375 405.085938 941.726562 404.769531 C 941.6875 404.742188 941.605469 404.667969 941.570312 404.644531 C 941.554688 404.628906 941.503906 404.59375 941.492188 404.582031 C 941.476562 404.566406 941.425781 404.53125 941.410156 404.519531 C 941.398438 404.496094 941.34375 404.414062 941.332031 404.394531 C 941.324219 404.386719 941.261719 404.335938 941.253906 404.332031 C 941.253906 404.324219 941.253906 404.273438 941.253906 404.269531 C 941.246094 404.261719 941.183594 404.210938 941.175781 404.207031 C 941.175781 404.199219 941.171875 404.148438 941.175781 404.144531 C 941.175781 404.136719 941.175781 404.085938 941.175781 404.082031 C 941.175781 404.074219 941.175781 404.023438 941.175781 404.019531 C 941.171875 404.007812 941.175781 403.964844 941.175781 403.957031 C 941.175781 403.953125 941.175781 403.90625 941.175781 403.894531 C 941.175781 403.886719 941.175781 403.839844 941.175781 403.832031 C 941.175781 403.824219 941.175781 403.777344 941.175781 403.769531 C 941.175781 403.761719 941.175781 403.714844 941.175781 403.707031 C 941.1875 403.695312 941.238281 403.65625 941.253906 403.644531 C 941.273438 403.609375 941.304688 403.550781 941.332031 403.519531 C 941.773438 403.050781 942.84375 402.605469 944.183594 402.207031 C 965.789062 399.882812 1004.175781 394.914062 1006.726562 365.769531 C 1006.328125 350.585938 998.496094 340.648438 974.902344 337.894531 C 957.5625 338.949219 945.199219 352.191406 947.191406 366.769531 C 946.363281 370.695312 948.875 378.394531 943.789062 379.269531 C 910.53125 381.667969 874.230469 398.117188 873.011719 409.894531 C 873.003906 409.890625 872.9375 409.894531 872.933594 409.894531 C 872.917969 409.90625 872.867188 409.945312 872.851562 409.953125 C 872.828125 409.964844 872.738281 410 872.695312 410.015625 C 872.667969 410.015625 872.566406 410.019531 872.535156 410.015625 C 872.484375 410.03125 872.355469 410.070312 872.300781 410.078125 C 872.285156 410.082031 872.242188 410.078125 872.21875 410.078125 C 872.175781 410.078125 872.089844 410.078125 872.0625 410.078125 C 872.046875 410.078125 872.003906 410.078125 871.984375 410.078125 C 871.949219 410.082031 871.851562 410.082031 871.824219 410.078125 C 871.738281 410.066406 871.582031 410.03125 871.507812 410.015625 C 869.34375 409.542969 866.558594 406.726562 866.996094 402.765625 C 865.730469 382.414062 857.335938 359.382812 844.195312 341.644531 C 839.503906 337.941406 837.460938 336.441406 836.121094 336.269531 C 836.078125 336.265625 836.003906 336.269531 835.960938 336.269531 C 835.90625 336.269531 835.796875 336.269531 835.726562 336.269531 C 835.710938 336.269531 835.65625 336.269531 835.644531 336.269531 C 835.636719 336.269531 835.574219 336.269531 835.566406 336.269531 C 835.554688 336.269531 835.496094 336.265625 835.488281 336.269531 Z M 922.09375 347.015625 C 920.210938 347.273438 918.394531 348.496094 917.738281 350.515625 C 917.324219 351.835938 918.542969 354.039062 917.027344 354.703125 C 916.15625 355.394531 912.773438 354.992188 912.910156 351.328125 C 912.910156 350.160156 911.824219 348.878906 911.167969 348.140625 C 910.507812 347.800781 910.144531 347.703125 908.949219 347.703125 C 907.5 347.75 907.453125 348.050781 906.65625 349.015625 C 906.316406 349.996094 905.863281 350.964844 905.863281 352.078125 C 905.683594 353.382812 905.101562 353.824219 903.882812 354.015625 C 902.527344 354.015625 902.847656 354.132812 901.746094 353.578125 C 901.09375 353.011719 900.242188 352.792969 900.242188 351.828125 C 900.242188 350.828125 899.988281 349.238281 899.609375 348.578125 C 899.03125 347.976562 898.042969 347.726562 896.996094 347.515625 C 891.304688 347.53125 890.96875 352.632812 891.296875 354.578125 C 890.871094 354.945312 890.582031 364.160156 898.34375 366.703125 C 908.761719 370.625 933.597656 368.316406 927.554688 355.640625 C 927.554688 354.46875 927.148438 350.527344 927 349.453125 C 925.9375 347.496094 923.972656 346.757812 922.09375 347.015625 Z M 1271.617188 358.328125 C 1271.355469 358.289062 1271.054688 358.304688 1270.746094 358.390625 C 1270.746094 358.390625 1222.464844 385.507812 1221.265625 386.453125 C 1216.480469 389.8125 1218.875 401.628906 1221.265625 400.265625 C 1224.726562 401.316406 1273.335938 375.308594 1272.410156 372.265625 C 1274.527344 372.363281 1275.546875 358.886719 1271.617188 358.328125 Z M 967.71875 362.347656 C 969.6875 362.183594 972.273438 362.710938 974.765625 363.847656 C 978.367188 365.492188 980.589844 367.980469 980.304688 369.785156 C 980.296875 369.835938 980.316406 369.925781 980.304688 369.972656 C 980.289062 370.019531 980.164062 370.113281 980.148438 370.160156 C 980.125 370.207031 980.089844 370.304688 980.066406 370.347656 C 980.054688 370.378906 980.007812 370.445312 979.988281 370.472656 C 979.972656 370.5 979.929688 370.570312 979.910156 370.597656 C 979.792969 370.75 979.597656 370.910156 979.433594 371.035156 C 977.703125 372.3125 973.703125 372.128906 969.933594 370.410156 C 966.363281 368.777344 964.15625 366.273438 964.394531 364.472656 C 964.402344 364.421875 964.460938 364.332031 964.472656 364.285156 C 964.53125 364.0625 964.644531 363.859375 964.789062 363.660156 C 964.839844 363.589844 964.886719 363.476562 964.949219 363.410156 C 964.960938 363.398438 965.011719 363.359375 965.027344 363.347656 C 965.132812 363.25 965.292969 363.117188 965.421875 363.035156 C 965.996094 362.679688 966.8125 362.421875 967.71875 362.347656 Z M 544.878906 369.222656 C 519.859375 369.582031 483.222656 395.113281 482.257812 409.285156 C 508.65625 399.277344 534.589844 389.640625 561.425781 379.285156 C 557.09375 374.179688 561.164062 369.582031 544.878906 369.222656 Z M 625.945312 378.097656 C 628.398438 378.121094 630.984375 379.074219 632.359375 381.785156 C 633.59375 384.269531 632.417969 386.871094 630.933594 388.160156 C 630.925781 388.171875 630.941406 388.214844 630.933594 388.222656 C 630.910156 388.25 630.878906 388.320312 630.855469 388.347656 C 629.804688 389.414062 626.117188 388.972656 623.492188 388.972656 C 620.316406 388.863281 618.75 388.449219 616.84375 386.410156 C 615.929688 384.144531 618.707031 381.914062 619.929688 380.222656 C 619.941406 380.207031 619.996094 380.175781 620.007812 380.160156 C 620.140625 380.003906 620.359375 379.8125 620.5625 379.660156 C 621.511719 378.972656 623.15625 378.332031 624.917969 378.160156 C 625.257812 378.128906 625.597656 378.09375 625.945312 378.097656 Z M 1262.21875 385.957031 C 1257.769531 386.390625 1253.539062 389.710938 1255.488281 395.019531 C 1254.269531 398.140625 1261.523438 409.042969 1263.40625 414.832031 C 1265.097656 418.953125 1261.226562 430.605469 1264.75 431.832031 C 1267.996094 433.207031 1276.53125 424.914062 1276.230469 414.519531 C 1277.171875 409.175781 1273.816406 389.484375 1265.304688 386.144531 C 1264.328125 385.929688 1263.246094 385.855469 1262.21875 385.957031 Z M 721.832031 405.207031 C 717.902344 405.425781 714.394531 407.082031 715.972656 411.457031 C 715.738281 414.628906 727.082031 418.488281 727.769531 425.832031 C 729.390625 428.859375 725.34375 438.558594 728.71875 439.457031 C 731.820312 440.464844 736.121094 432.753906 737.746094 425.582031 C 738.644531 421.652344 733.851562 407.910156 725.710938 405.457031 C 724.460938 405.246094 723.144531 405.136719 721.832031 405.207031 Z M 883.570312 422.644531 C 883.871094 422.628906 884.132812 422.648438 884.441406 422.644531 C 884.492188 422.644531 884.546875 422.644531 884.601562 422.644531 C 894.679688 424.808594 909.542969 425.03125 922.441406 426.082031 C 932.949219 426.609375 938.140625 433.105469 928.300781 435.832031 C 918.59375 438.457031 909.265625 440.507812 909.222656 451.582031 C 910.5 457.070312 910.226562 459.949219 909.144531 461.269531 C 909.058594 461.371094 908.921875 461.5 908.828125 461.582031 C 908.8125 461.59375 908.761719 461.632812 908.746094 461.644531 C 908.730469 461.65625 908.683594 461.699219 908.667969 461.707031 C 908.652344 461.71875 908.605469 461.761719 908.589844 461.769531 L 908.511719 461.832031 C 908.484375 461.84375 908.378906 461.882812 908.351562 461.894531 C 908.210938 461.964844 908.03125 462.039062 907.878906 462.082031 C 907.742188 462.117188 907.546875 462.125 907.402344 462.144531 C 905.09375 462.410156 901.742188 460.675781 899.246094 459.644531 C 893.261719 456.253906 876.464844 448.035156 874.074219 430.394531 C 873.730469 426.414062 877.507812 422.980469 883.574219 422.644531 Z M 488.523438 436.207031 C 487.894531 436.222656 486.632812 437.710938 484.960938 439.394531 C 470.078125 458.113281 468.753906 486.058594 476.964844 494.394531 C 481.328125 498.335938 488.523438 500.066406 493.828125 498.832031 C 503.179688 495.632812 507.289062 480.679688 505.070312 475.210938 C 501.949219 471.351562 499.476562 470.742188 496.359375 474.023438 C 489.78125 484.570312 487.042969 477.351562 486.464844 471.460938 C 485.457031 460.28125 486.828125 449.988281 488.363281 441.835938 C 489.183594 437.65625 489.152344 436.195312 488.523438 436.210938 Z M 995.59375 460.789062 C 994.488281 460.742188 993.308594 460.878906 992.113281 461.351562 C 991.875 461.351562 981.457031 466.914062 978.097656 470.789062 C 976.050781 472.019531 976.285156 473.085938 976.910156 475.226562 C 978.507812 478.121094 981.320312 477.214844 984.511719 475.851562 C 988.746094 475.394531 990.796875 477.585938 990.449219 481.601562 C 988.492188 486.609375 991.320312 488.472656 991.320312 488.789062 C 991.320312 489.101562 995.398438 491.867188 1000.1875 489.664062 C 1010.292969 486.617188 1016.589844 483.65625 1030.742188 481.226562 C 1034.460938 481.167969 1034.246094 473.316406 1028.367188 473.039062 C 1020.703125 473.34375 1013.628906 473.652344 1005.964844 478.414062 C 1001.25 479.273438 1000.441406 477.007812 999.394531 474.976562 C 998.195312 469.933594 1002.089844 466.378906 1001.292969 462.601562 C 1001.507812 462.765625 998.914062 460.929688 995.59375 460.789062 Z M 1320.265625 470.351562 C 1318.386719 470.398438 1316.40625 470.601562 1313.539062 470.789062 C 1310.4375 471.308594 1309.351562 472.378906 1308.789062 475.351562 C 1309.011719 479.851562 1312.5 479.628906 1316.070312 481.414062 C 1318.140625 483.492188 1319.484375 485.371094 1315.914062 488.789062 C 1312.527344 491.238281 1310.117188 492.589844 1306.730469 495.039062 C 1305.132812 497.191406 1304.136719 500.496094 1309.027344 501.539062 C 1318.054688 503.542969 1338.949219 492.824219 1338.949219 492.601562 C 1342.335938 490.597656 1341.210938 486.789062 1340.929688 486.789062 C 1338.953125 485.003906 1334.5 486.074219 1331.507812 485.789062 C 1330.082031 485.789062 1325.402344 485.242188 1327.628906 481.976562 C 1329.484375 479.941406 1330.167969 478.730469 1331.429688 476.226562 C 1332.835938 473.777344 1331.597656 472.125 1326.519531 470.789062 C 1323.933594 470.417969 1322.144531 470.304688 1320.265625 470.351562 Z M 1184.632812 687.148438 C 1184.613281 687.15625 1184.574219 687.203125 1184.554688 687.210938 C 1169.535156 690.253906 1170.003906 702.5625 1179.644531 707.960938 C 1021.074219 707.960938 777.730469 705.835938 725.542969 705.835938 C 696.347656 705.835938 603.976562 703.085938 602.203125 703.085938 C 622.011719 725.960938 650.707031 730.621094 688.257812 731.085938 C 758.6875 731.085938 1085.027344 730.398438 1177.898438 730.398438 C 1171.296875 739.65625 1178.5 754.546875 1183.679688 757.277344 C 1183.789062 757.332031 1183.964844 757.417969 1184.074219 757.464844 C 1184.269531 757.539062 1184.523438 757.613281 1184.707031 757.652344 C 1184.769531 757.664062 1184.886719 757.644531 1184.945312 757.652344 C 1191.09375 758.796875 1193.800781 755.28125 1195.871094 752.714844 C 1205.84375 753.40625 1261.980469 754.046875 1267.121094 752.652344 C 1267.136719 752.644531 1267.183594 752.59375 1267.199219 752.589844 C 1270.675781 756.625 1274.125 760.441406 1280.738281 759.777344 C 1292.3125 757.816406 1301.425781 756.820312 1301.714844 738.277344 C 1301.714844 738.277344 1300.53125 706.671875 1274.246094 708.652344 C 1268.023438 709.394531 1250.574219 710.777344 1250.574219 710.777344 C 1230.378906 708.878906 1215.566406 708.6875 1192.863281 708.027344 C 1194.957031 705.925781 1198.65625 697.421875 1194.128906 694.339844 C 1192.945312 693.5625 1191.183594 693.132812 1188.746094 693.277344 C 1188.726562 693.277344 1188.683594 693.277344 1188.664062 693.277344 C 1188.632812 693.277344 1188.542969 693.28125 1188.507812 693.277344 C 1188.488281 693.273438 1188.445312 693.21875 1188.429688 693.214844 C 1188.363281 693.195312 1188.253906 693.183594 1188.191406 693.152344 C 1188.066406 693.085938 1187.90625 692.945312 1187.796875 692.839844 C 1187.765625 692.8125 1187.664062 692.746094 1187.636719 692.714844 C 1186.488281 691.394531 1185.863281 688.160156 1185.101562 687.339844 C 1185.09375 687.332031 1185.035156 687.285156 1185.023438 687.277344 C 1185.015625 687.269531 1184.953125 687.222656 1184.945312 687.214844 C 1184.917969 687.199219 1184.816406 687.160156 1184.785156 687.152344 C 1184.777344 687.152344 1184.71875 687.152344 1184.707031 687.152344 C 1184.699219 687.15625 1184.636719 687.152344 1184.628906 687.152344 Z M 1195.398438 732.339844 C 1195.425781 732.328125 1195.449219 732.347656 1195.476562 732.339844 C 1218.613281 733.230469 1240.347656 732.507812 1263.484375 733.402344 C 1267.148438 735.859375 1265.316406 741.496094 1262.929688 742.527344 C 1262.820312 742.566406 1262.640625 742.628906 1262.53125 742.652344 C 1262.445312 742.667969 1262.304688 742.648438 1262.214844 742.652344 C 1262.128906 742.648438 1261.988281 742.667969 1261.898438 742.652344 C 1254.378906 742.5 1250.027344 742.363281 1242.503906 742.214844 C 1242.492188 741.917969 1242.449219 741.597656 1242.34375 741.339844 C 1240.5625 737.167969 1227.648438 737.445312 1224.613281 740.714844 C 1224.570312 740.761719 1224.492188 740.851562 1224.453125 740.902344 C 1224.40625 740.964844 1224.335938 741.082031 1224.296875 741.152344 C 1224.246094 741.234375 1224.171875 741.375 1224.136719 741.464844 C 1224.089844 741.585938 1224.078125 741.769531 1224.058594 741.902344 C 1224.039062 742.050781 1223.960938 742.242188 1223.980469 742.402344 C 1213.824219 743.363281 1204.683594 742.132812 1194.527344 741.839844 C 1191.550781 738.910156 1191.898438 733.609375 1195.398438 732.339844 Z M 1195.398438 732.339844 "/>
</g>
</svg>
