<?xml version="1.0" encoding="UTF-8"?>
<svg xmlns="http://www.w3.org/2000/svg" xmlns:xlink="http://www.w3.org/1999/xlink" width="1900pt" height="1000pt" viewBox="0 0 1900 1000" version="1.1">
<g id="surface1">
<rect x="0" y="0" width="1900" height="1000" style="fill:rgb(0%,16.862745%,49.803922%);fill-opacity:1;stroke:none;"/>
<path style=" stroke:none;fill-rule:nonzero;fill:rgb(80.784314%,6.666667%,14.901961%);fill-opacity:1;" d="M 0 500 L 1900 500 L 1900 1000 L 0 1000 Z M 0 500 "/>
<path style=" stroke:none;fill-rule:nonzero;fill:rgb(100%,84.705882%,23.921569%);fill-opacity:1;" d="M 411.117188 203.8125 L 407.625 307.980469 L 287.128906 307.980469 C 272.300781 282.699219 260.058594 261.230469 260.058594 232.152344 C 260.058594 207.820312 281.878906 188.496094 313.324219 188.496094 C 346.609375 188.496094 383.183594 198.335938 411.117188 203.8125 Z M 411.117188 203.8125 "/>
<path style="fill:none;stroke-width:1.5;stroke-linecap:round;stroke-linejoin:round;stroke:rgb(0%,0%,0%);stroke-opacity:1;stroke-miterlimit:4;" d="M 144.455181 125.160937 L 144.455181 161.235938 " transform="matrix(1.9,0,0,1.666667,0,0)"/>
<path style="fill:none;stroke-width:1.5;stroke-linecap:round;stroke-linejoin:round;stroke:rgb(0%,0%,0%);stroke-opacity:1;stroke-miterlimit:4;" d="M 149.549753 121.478906 L 149.549753 169.514062 " transform="matrix(1.9,0,0,1.666667,0,0)"/>
<path style="fill:none;stroke-width:1.5;stroke-linecap:round;stroke-linejoin:round;stroke:rgb(0%,0%,0%);stroke-opacity:1;stroke-miterlimit:4;" d="M 154.64227 118.952344 L 154.64227 176.177344 " transform="matrix(1.9,0,0,1.666667,0,0)"/>
<path style="fill:none;stroke-width:1.5;stroke-linecap:round;stroke-linejoin:round;stroke:rgb(0%,0%,0%);stroke-opacity:1;stroke-miterlimit:4;" d="M 159.736842 117.771094 L 159.736842 162.651562 " transform="matrix(1.9,0,0,1.666667,0,0)"/>
<path style="fill:none;stroke-width:1.5;stroke-linecap:round;stroke-linejoin:round;stroke:rgb(0%,0%,0%);stroke-opacity:1;stroke-miterlimit:4;" d="M 164.829359 117.548437 L 164.829359 162.874219 " transform="matrix(1.9,0,0,1.666667,0,0)"/>
<path style="fill:none;stroke-width:1.5;stroke-linecap:round;stroke-linejoin:round;stroke:rgb(0%,0%,0%);stroke-opacity:1;stroke-miterlimit:4;" d="M 169.923931 115.964062 L 169.923931 162.850781 " transform="matrix(1.9,0,0,1.666667,0,0)"/>
<path style="fill:none;stroke-width:1.5;stroke-linecap:round;stroke-linejoin:round;stroke:rgb(0%,0%,0%);stroke-opacity:1;stroke-miterlimit:4;" d="M 175.016447 115.964062 L 175.016447 162.850781 " transform="matrix(1.9,0,0,1.666667,0,0)"/>
<path style="fill:none;stroke-width:1.5;stroke-linecap:round;stroke-linejoin:round;stroke:rgb(0%,0%,0%);stroke-opacity:1;stroke-miterlimit:4;" d="M 180.11102 116.423437 L 180.11102 163.310156 " transform="matrix(1.9,0,0,1.666667,0,0)"/>
<path style="fill:none;stroke-width:1.5;stroke-linecap:round;stroke-linejoin:round;stroke:rgb(0%,0%,0%);stroke-opacity:1;stroke-miterlimit:4;" d="M 185.203536 116.882812 L 185.203536 163.769531 " transform="matrix(1.9,0,0,1.666667,0,0)"/>
<path style="fill:none;stroke-width:1.5;stroke-linecap:round;stroke-linejoin:round;stroke:rgb(0%,0%,0%);stroke-opacity:1;stroke-miterlimit:4;" d="M 190.298109 119.871094 L 190.298109 166.755469 " transform="matrix(1.9,0,0,1.666667,0,0)"/>
<path style="fill:none;stroke-width:1.5;stroke-linecap:round;stroke-linejoin:round;stroke:rgb(0%,0%,0%);stroke-opacity:1;stroke-miterlimit:4;" d="M 195.390625 120.330469 L 195.390625 173.189063 " transform="matrix(1.9,0,0,1.666667,0,0)"/>
<path style="fill:none;stroke-width:1.5;stroke-linecap:round;stroke-linejoin:round;stroke:rgb(0%,0%,0%);stroke-opacity:1;stroke-miterlimit:4;" d="M 200.483141 120.330469 L 200.483141 167.214844 " transform="matrix(1.9,0,0,1.666667,0,0)"/>
<path style="fill:none;stroke-width:1.5;stroke-linecap:round;stroke-linejoin:round;stroke:rgb(0%,0%,0%);stroke-opacity:1;stroke-miterlimit:4;" d="M 205.577714 120.330469 L 205.577714 167.214844 " transform="matrix(1.9,0,0,1.666667,0,0)"/>
<path style="fill-rule:nonzero;fill:rgb(0%,0%,0%);fill-opacity:1;stroke-width:1.5;stroke-linecap:round;stroke-linejoin:round;stroke:rgb(0%,0%,0%);stroke-opacity:1;stroke-miterlimit:4;" d="M 176.39597 117.923437 C 187.158717 119.697656 210.801809 130.760156 208.104441 145.725 C 204.284539 166.935937 191.897615 158.423438 175.476974 155.376563 L 163.067434 159.513281 C 158.628701 164.04375 152.090872 168.196875 147.672697 162.728906 L 140.320724 162.728906 L 140.320724 191.451562 L 221.661184 191.451562 L 221.661184 122.057812 Z M 176.39597 117.923437 " transform="matrix(1.9,0,0,1.666667,0,0)"/>
<path style="fill-rule:nonzero;fill:rgb(100%,84.705882%,23.921569%);fill-opacity:1;stroke-width:2;stroke-linecap:round;stroke-linejoin:round;stroke:rgb(0%,0%,0%);stroke-opacity:1;stroke-miterlimit:4;" d="M 217.754934 112.982812 C 217.754934 115.710938 215.544819 117.923437 212.814556 117.923437 C 210.086349 117.923437 207.876234 115.710938 207.876234 112.982812 C 207.876234 110.254688 210.086349 108.042187 212.814556 108.042187 C 215.544819 108.042187 217.754934 110.254688 217.754934 112.982812 Z M 217.754934 112.982812 " transform="matrix(1.9,0,0,1.666667,0,0)"/>
<path style="fill-rule:nonzero;fill:rgb(100%,84.705882%,23.921569%);fill-opacity:1;stroke-width:2;stroke-linecap:round;stroke-linejoin:round;stroke:rgb(0%,0%,0%);stroke-opacity:1;stroke-miterlimit:4;" d="M 206.652961 110.310937 C 206.652961 113.039062 204.440789 115.251562 201.712582 115.251562 C 198.984375 115.251562 196.772204 113.039062 196.772204 110.310937 C 196.772204 107.582813 198.984375 105.370312 201.712582 105.370312 C 204.440789 105.370312 206.652961 107.582813 206.652961 110.310937 Z M 206.652961 110.310937 " transform="matrix(1.9,0,0,1.666667,0,0)"/>
<path style="fill-rule:nonzero;fill:rgb(100%,84.705882%,23.921569%);fill-opacity:1;stroke-width:2;stroke-linecap:round;stroke-linejoin:round;stroke:rgb(0%,0%,0%);stroke-opacity:1;stroke-miterlimit:4;" d="M 195.390625 107.482031 C 195.390625 110.210156 193.178454 112.422656 190.450247 112.422656 C 187.722039 112.422656 185.509868 110.210156 185.509868 107.482031 C 185.509868 104.753906 187.722039 102.541406 190.450247 102.541406 C 193.178454 102.541406 195.390625 104.753906 195.390625 107.482031 Z M 195.390625 107.482031 " transform="matrix(1.9,0,0,1.666667,0,0)"/>
<path style="fill-rule:nonzero;fill:rgb(100%,84.705882%,23.921569%);fill-opacity:1;stroke-width:2;stroke-linecap:round;stroke-linejoin:round;stroke:rgb(0%,0%,0%);stroke-opacity:1;stroke-miterlimit:4;" d="M 184.083059 105.595312 C 184.083059 108.323437 181.870888 110.535938 179.142681 110.535938 C 176.414474 110.535938 174.202303 108.323437 174.202303 105.595312 C 174.202303 102.867188 176.414474 100.654687 179.142681 100.654687 C 181.870888 100.654687 184.083059 102.867188 184.083059 105.595312 Z M 184.083059 105.595312 " transform="matrix(1.9,0,0,1.666667,0,0)"/>
<path style="fill-rule:nonzero;fill:rgb(100%,84.705882%,23.921569%);fill-opacity:1;stroke-width:2;stroke-linecap:round;stroke-linejoin:round;stroke:rgb(0%,0%,0%);stroke-opacity:1;stroke-miterlimit:4;" d="M 172.775493 104.479687 C 172.775493 107.210156 170.565378 109.420312 167.837171 109.420312 C 165.106908 109.420312 162.896793 107.210156 162.896793 104.479687 C 162.896793 101.751562 165.106908 99.541406 167.837171 99.541406 C 170.565378 99.541406 172.775493 101.751562 172.775493 104.479687 Z M 172.775493 104.479687 " transform="matrix(1.9,0,0,1.666667,0,0)"/>
<path style="fill-rule:nonzero;fill:rgb(100%,84.705882%,23.921569%);fill-opacity:1;stroke-width:2;stroke-linecap:round;stroke-linejoin:round;stroke:rgb(0%,0%,0%);stroke-opacity:1;stroke-miterlimit:4;" d="M 161.689967 105.1125 C 161.689967 107.840625 159.477796 110.053125 156.749589 110.053125 C 154.021382 110.053125 151.809211 107.840625 151.809211 105.1125 C 151.809211 102.384375 154.021382 100.171875 156.749589 100.171875 C 159.477796 100.171875 161.689967 102.384375 161.689967 105.1125 Z M 161.689967 105.1125 " transform="matrix(1.9,0,0,1.666667,0,0)"/>
<path style="fill-rule:nonzero;fill:rgb(100%,84.705882%,23.921569%);fill-opacity:1;stroke-width:2;stroke-linecap:round;stroke-linejoin:round;stroke:rgb(0%,0%,0%);stroke-opacity:1;stroke-miterlimit:4;" d="M 151.120477 108.73125 C 151.120477 111.459375 148.908306 113.671875 146.180099 113.671875 C 143.451891 113.671875 141.23972 111.459375 141.23972 108.73125 C 141.23972 106.003125 143.451891 103.790625 146.180099 103.790625 C 148.908306 103.790625 151.120477 106.003125 151.120477 108.73125 Z M 151.120477 108.73125 " transform="matrix(1.9,0,0,1.666667,0,0)"/>
<path style="fill-rule:nonzero;fill:rgb(100%,84.705882%,23.921569%);fill-opacity:1;stroke-width:2;stroke-linecap:round;stroke-linejoin:round;stroke:rgb(0%,0%,0%);stroke-opacity:1;stroke-miterlimit:4;" d="M 142.216283 115.279687 C 142.216283 118.007812 140.004112 120.220312 137.275905 120.220312 C 134.547697 120.220312 132.335526 118.007812 132.335526 115.279687 C 132.335526 112.551563 134.547697 110.339062 137.275905 110.339062 C 140.004112 110.339062 142.216283 112.551563 142.216283 115.279687 Z M 142.216283 115.279687 " transform="matrix(1.9,0,0,1.666667,0,0)"/>
<path style="fill-rule:nonzero;fill:rgb(100%,84.705882%,23.921569%);fill-opacity:1;stroke-width:2;stroke-linecap:round;stroke-linejoin:round;stroke:rgb(0%,0%,0%);stroke-opacity:1;stroke-miterlimit:4;" d="M 135.896382 124.413281 C 135.896382 127.141406 133.684211 129.353906 130.956003 129.353906 C 128.227796 129.353906 126.015625 127.141406 126.015625 124.413281 C 126.015625 121.685156 128.227796 119.472656 130.956003 119.472656 C 133.684211 119.472656 135.896382 121.685156 135.896382 124.413281 Z M 135.896382 124.413281 " transform="matrix(1.9,0,0,1.666667,0,0)"/>
<path style="fill-rule:nonzero;fill:rgb(100%,84.705882%,23.921569%);fill-opacity:1;stroke-width:2;stroke-linecap:round;stroke-linejoin:round;stroke:rgb(0%,0%,0%);stroke-opacity:1;stroke-miterlimit:4;" d="M 132.851562 135.157031 C 132.851562 137.885156 130.641447 140.097656 127.911184 140.097656 C 125.182977 140.097656 122.970806 137.885156 122.970806 135.157031 C 122.970806 132.428906 125.182977 130.216406 127.911184 130.216406 C 130.641447 130.216406 132.851562 132.428906 132.851562 135.157031 Z M 132.851562 135.157031 " transform="matrix(1.9,0,0,1.666667,0,0)"/>
<path style="fill-rule:nonzero;fill:rgb(100%,84.705882%,23.921569%);fill-opacity:1;stroke-width:2;stroke-linecap:round;stroke-linejoin:round;stroke:rgb(0%,0%,0%);stroke-opacity:1;stroke-miterlimit:4;" d="M 132.966694 146.301562 C 132.966694 149.029687 130.754523 151.239844 128.026316 151.239844 C 125.298109 151.239844 123.085938 149.029687 123.085938 146.301562 C 123.085938 143.571094 125.298109 141.360938 128.026316 141.360938 C 130.754523 141.360938 132.966694 143.571094 132.966694 146.301562 Z M 132.966694 146.301562 " transform="matrix(1.9,0,0,1.666667,0,0)"/>
<path style="fill-rule:nonzero;fill:rgb(100%,84.705882%,23.921569%);fill-opacity:1;stroke-width:2;stroke-linecap:round;stroke-linejoin:round;stroke:rgb(0%,0%,0%);stroke-opacity:1;stroke-miterlimit:4;" d="M 135.092516 157.214062 C 135.092516 159.944531 132.880345 162.154687 130.152138 162.154687 C 127.423931 162.154687 125.21176 159.944531 125.21176 157.214062 C 125.21176 154.485938 127.423931 152.275781 130.152138 152.275781 C 132.880345 152.275781 135.092516 154.485938 135.092516 157.214062 Z M 135.092516 157.214062 " transform="matrix(1.9,0,0,1.666667,0,0)"/>
<path style="fill-rule:nonzero;fill:rgb(100%,84.705882%,23.921569%);fill-opacity:1;stroke-width:2;stroke-linecap:round;stroke-linejoin:round;stroke:rgb(0%,0%,0%);stroke-opacity:1;stroke-miterlimit:4;" d="M 214.997944 119.53125 L 214.539474 125.964844 C 202.247122 124.082812 184.823191 117.234375 168.58347 117.234375 C 153.577303 117.234375 141.928454 123.236719 141.928454 138.372656 C 141.928454 153.290625 148.246299 166.858594 156.634457 180.651562 L 147.902961 184.788281 C 140.10074 169.619531 133.657484 156.738281 133.657484 139.291406 C 133.657484 124.692187 145.139803 110.339062 164.907484 110.339062 C 182.425987 110.339062 200.296053 116.242969 214.997944 119.53125 Z M 214.997944 119.53125 " transform="matrix(1.9,0,0,1.666667,0,0)"/>
<path style=" stroke:none;fill-rule:nonzero;fill:rgb(100%,84.705882%,23.921569%);fill-opacity:1;" d="M 432.363281 203.8125 L 435.859375 307.980469 L 556.355469 307.980469 C 571.179688 282.699219 583.421875 261.230469 583.421875 232.152344 C 583.421875 207.820312 561.605469 188.496094 530.160156 188.496094 C 496.871094 188.496094 460.296875 198.335938 432.363281 203.8125 Z M 432.363281 203.8125 "/>
<path style="fill:none;stroke-width:1.5;stroke-linecap:round;stroke-linejoin:round;stroke:rgb(0%,0%,0%);stroke-opacity:1;stroke-miterlimit:4;" d="M 144.455592 125.160937 L 144.455592 161.235938 " transform="matrix(-1.9,0,0,1.666667,843.48125,0)"/>
<path style="fill:none;stroke-width:1.5;stroke-linecap:round;stroke-linejoin:round;stroke:rgb(0%,0%,0%);stroke-opacity:1;stroke-miterlimit:4;" d="M 149.550164 121.478906 L 149.550164 169.514062 " transform="matrix(-1.9,0,0,1.666667,843.48125,0)"/>
<path style="fill:none;stroke-width:1.5;stroke-linecap:round;stroke-linejoin:round;stroke:rgb(0%,0%,0%);stroke-opacity:1;stroke-miterlimit:4;" d="M 154.642681 118.952344 L 154.642681 176.177344 " transform="matrix(-1.9,0,0,1.666667,843.48125,0)"/>
<path style="fill:none;stroke-width:1.5;stroke-linecap:round;stroke-linejoin:round;stroke:rgb(0%,0%,0%);stroke-opacity:1;stroke-miterlimit:4;" d="M 159.737253 117.771094 L 159.737253 162.651562 " transform="matrix(-1.9,0,0,1.666667,843.48125,0)"/>
<path style="fill:none;stroke-width:1.5;stroke-linecap:round;stroke-linejoin:round;stroke:rgb(0%,0%,0%);stroke-opacity:1;stroke-miterlimit:4;" d="M 164.82977 117.548437 L 164.82977 162.874219 " transform="matrix(-1.9,0,0,1.666667,843.48125,0)"/>
<path style="fill:none;stroke-width:1.5;stroke-linecap:round;stroke-linejoin:round;stroke:rgb(0%,0%,0%);stroke-opacity:1;stroke-miterlimit:4;" d="M 169.924342 115.964062 L 169.924342 162.850781 " transform="matrix(-1.9,0,0,1.666667,843.48125,0)"/>
<path style="fill:none;stroke-width:1.5;stroke-linecap:round;stroke-linejoin:round;stroke:rgb(0%,0%,0%);stroke-opacity:1;stroke-miterlimit:4;" d="M 175.016859 115.964062 L 175.016859 162.850781 " transform="matrix(-1.9,0,0,1.666667,843.48125,0)"/>
<path style="fill:none;stroke-width:1.5;stroke-linecap:round;stroke-linejoin:round;stroke:rgb(0%,0%,0%);stroke-opacity:1;stroke-miterlimit:4;" d="M 180.109375 116.423437 L 180.109375 163.310156 " transform="matrix(-1.9,0,0,1.666667,843.48125,0)"/>
<path style="fill:none;stroke-width:1.5;stroke-linecap:round;stroke-linejoin:round;stroke:rgb(0%,0%,0%);stroke-opacity:1;stroke-miterlimit:4;" d="M 185.203947 116.882812 L 185.203947 163.769531 " transform="matrix(-1.9,0,0,1.666667,843.48125,0)"/>
<path style="fill:none;stroke-width:1.5;stroke-linecap:round;stroke-linejoin:round;stroke:rgb(0%,0%,0%);stroke-opacity:1;stroke-miterlimit:4;" d="M 190.296464 119.871094 L 190.296464 166.755469 " transform="matrix(-1.9,0,0,1.666667,843.48125,0)"/>
<path style="fill:none;stroke-width:1.5;stroke-linecap:round;stroke-linejoin:round;stroke:rgb(0%,0%,0%);stroke-opacity:1;stroke-miterlimit:4;" d="M 195.391036 120.330469 L 195.391036 173.189063 " transform="matrix(-1.9,0,0,1.666667,843.48125,0)"/>
<path style="fill:none;stroke-width:1.5;stroke-linecap:round;stroke-linejoin:round;stroke:rgb(0%,0%,0%);stroke-opacity:1;stroke-miterlimit:4;" d="M 200.483553 120.330469 L 200.483553 167.214844 " transform="matrix(-1.9,0,0,1.666667,843.48125,0)"/>
<path style="fill:none;stroke-width:1.5;stroke-linecap:round;stroke-linejoin:round;stroke:rgb(0%,0%,0%);stroke-opacity:1;stroke-miterlimit:4;" d="M 205.578125 120.330469 L 205.578125 167.214844 " transform="matrix(-1.9,0,0,1.666667,843.48125,0)"/>
<path style="fill-rule:nonzero;fill:rgb(0%,0%,0%);fill-opacity:1;stroke-width:1.5;stroke-linecap:round;stroke-linejoin:round;stroke:rgb(0%,0%,0%);stroke-opacity:1;stroke-miterlimit:4;" d="M 176.396382 117.923437 C 187.159128 119.697656 210.80222 130.760156 208.104852 145.725 C 204.282895 166.935937 191.898026 158.423438 175.475329 155.376563 L 163.067845 159.513281 C 158.629112 164.04375 152.091283 168.196875 147.673109 162.728906 L 140.319079 162.728906 L 140.319079 191.451562 L 221.661595 191.451562 L 221.661595 122.057812 Z M 176.396382 117.923437 " transform="matrix(-1.9,0,0,1.666667,843.48125,0)"/>
<path style="fill-rule:nonzero;fill:rgb(100%,84.705882%,23.921569%);fill-opacity:1;stroke-width:2;stroke-linecap:round;stroke-linejoin:round;stroke:rgb(0%,0%,0%);stroke-opacity:1;stroke-miterlimit:4;" d="M 217.755345 112.982812 C 217.755345 115.710938 215.543174 117.923437 212.814967 117.923437 C 210.08676 117.923437 207.874589 115.710938 207.874589 112.982812 C 207.874589 110.254688 210.08676 108.042187 212.814967 108.042187 C 215.543174 108.042187 217.755345 110.254688 217.755345 112.982812 Z M 217.755345 112.982812 " transform="matrix(-1.9,0,0,1.666667,843.48125,0)"/>
<path style="fill-rule:nonzero;fill:rgb(100%,84.705882%,23.921569%);fill-opacity:1;stroke-width:2;stroke-linecap:round;stroke-linejoin:round;stroke:rgb(0%,0%,0%);stroke-opacity:1;stroke-miterlimit:4;" d="M 206.653372 110.310937 C 206.653372 113.039062 204.441201 115.251562 201.712993 115.251562 C 198.984786 115.251562 196.772615 113.039062 196.772615 110.310937 C 196.772615 107.582813 198.984786 105.370312 201.712993 105.370312 C 204.441201 105.370312 206.653372 107.582813 206.653372 110.310937 Z M 206.653372 110.310937 " transform="matrix(-1.9,0,0,1.666667,843.48125,0)"/>
<path style="fill-rule:nonzero;fill:rgb(100%,84.705882%,23.921569%);fill-opacity:1;stroke-width:2;stroke-linecap:round;stroke-linejoin:round;stroke:rgb(0%,0%,0%);stroke-opacity:1;stroke-miterlimit:4;" d="M 195.38898 107.482031 C 195.38898 110.210156 193.178865 112.422656 190.450658 112.422656 C 187.720395 112.422656 185.51028 110.210156 185.51028 107.482031 C 185.51028 104.753906 187.720395 102.541406 190.450658 102.541406 C 193.178865 102.541406 195.38898 104.753906 195.38898 107.482031 Z M 195.38898 107.482031 " transform="matrix(-1.9,0,0,1.666667,843.48125,0)"/>
<path style="fill-rule:nonzero;fill:rgb(100%,84.705882%,23.921569%);fill-opacity:1;stroke-width:2;stroke-linecap:round;stroke-linejoin:round;stroke:rgb(0%,0%,0%);stroke-opacity:1;stroke-miterlimit:4;" d="M 184.08347 105.595312 C 184.08347 108.323437 181.871299 110.535938 179.143092 110.535938 C 176.414885 110.535938 174.202714 108.323437 174.202714 105.595312 C 174.202714 102.867188 176.414885 100.654687 179.143092 100.654687 C 181.871299 100.654687 184.08347 102.867188 184.08347 105.595312 Z M 184.08347 105.595312 " transform="matrix(-1.9,0,0,1.666667,843.48125,0)"/>
<path style="fill-rule:nonzero;fill:rgb(100%,84.705882%,23.921569%);fill-opacity:1;stroke-width:2;stroke-linecap:round;stroke-linejoin:round;stroke:rgb(0%,0%,0%);stroke-opacity:1;stroke-miterlimit:4;" d="M 172.775905 104.479687 C 172.775905 107.210156 170.563734 109.420312 167.835526 109.420312 C 165.107319 109.420312 162.895148 107.210156 162.895148 104.479687 C 162.895148 101.751562 165.107319 99.541406 167.835526 99.541406 C 170.563734 99.541406 172.775905 101.751562 172.775905 104.479687 Z M 172.775905 104.479687 " transform="matrix(-1.9,0,0,1.666667,843.48125,0)"/>
<path style="fill-rule:nonzero;fill:rgb(100%,84.705882%,23.921569%);fill-opacity:1;stroke-width:2;stroke-linecap:round;stroke-linejoin:round;stroke:rgb(0%,0%,0%);stroke-opacity:1;stroke-miterlimit:4;" d="M 161.690378 105.1125 C 161.690378 107.840625 159.478207 110.053125 156.75 110.053125 C 154.021793 110.053125 151.809622 107.840625 151.809622 105.1125 C 151.809622 102.384375 154.021793 100.171875 156.75 100.171875 C 159.478207 100.171875 161.690378 102.384375 161.690378 105.1125 Z M 161.690378 105.1125 " transform="matrix(-1.9,0,0,1.666667,843.48125,0)"/>
<path style="fill-rule:nonzero;fill:rgb(100%,84.705882%,23.921569%);fill-opacity:1;stroke-width:2;stroke-linecap:round;stroke-linejoin:round;stroke:rgb(0%,0%,0%);stroke-opacity:1;stroke-miterlimit:4;" d="M 151.118832 108.73125 C 151.118832 111.459375 148.908717 113.671875 146.178454 113.671875 C 143.450247 113.671875 141.240132 111.459375 141.240132 108.73125 C 141.240132 106.003125 143.450247 103.790625 146.178454 103.790625 C 148.908717 103.790625 151.118832 106.003125 151.118832 108.73125 Z M 151.118832 108.73125 " transform="matrix(-1.9,0,0,1.666667,843.48125,0)"/>
<path style="fill-rule:nonzero;fill:rgb(100%,84.705882%,23.921569%);fill-opacity:1;stroke-width:2;stroke-linecap:round;stroke-linejoin:round;stroke:rgb(0%,0%,0%);stroke-opacity:1;stroke-miterlimit:4;" d="M 142.216694 115.279687 C 142.216694 118.007812 140.004523 120.220312 137.276316 120.220312 C 134.546053 120.220312 132.335937 118.007812 132.335937 115.279687 C 132.335937 112.551563 134.546053 110.339062 137.276316 110.339062 C 140.004523 110.339062 142.216694 112.551563 142.216694 115.279687 Z M 142.216694 115.279687 " transform="matrix(-1.9,0,0,1.666667,843.48125,0)"/>
<path style="fill-rule:nonzero;fill:rgb(100%,84.705882%,23.921569%);fill-opacity:1;stroke-width:2;stroke-linecap:round;stroke-linejoin:round;stroke:rgb(0%,0%,0%);stroke-opacity:1;stroke-miterlimit:4;" d="M 135.896793 124.413281 C 135.896793 127.141406 133.684622 129.353906 130.956414 129.353906 C 128.228207 129.353906 126.016036 127.141406 126.016036 124.413281 C 126.016036 121.685156 128.228207 119.472656 130.956414 119.472656 C 133.684622 119.472656 135.896793 121.685156 135.896793 124.413281 Z M 135.896793 124.413281 " transform="matrix(-1.9,0,0,1.666667,843.48125,0)"/>
<path style="fill-rule:nonzero;fill:rgb(100%,84.705882%,23.921569%);fill-opacity:1;stroke-width:2;stroke-linecap:round;stroke-linejoin:round;stroke:rgb(0%,0%,0%);stroke-opacity:1;stroke-miterlimit:4;" d="M 132.851974 135.157031 C 132.851974 137.885156 130.639803 140.097656 127.911595 140.097656 C 125.183388 140.097656 122.971217 137.885156 122.971217 135.157031 C 122.971217 132.428906 125.183388 130.216406 127.911595 130.216406 C 130.639803 130.216406 132.851974 132.428906 132.851974 135.157031 Z M 132.851974 135.157031 " transform="matrix(-1.9,0,0,1.666667,843.48125,0)"/>
<path style="fill-rule:nonzero;fill:rgb(100%,84.705882%,23.921569%);fill-opacity:1;stroke-width:2;stroke-linecap:round;stroke-linejoin:round;stroke:rgb(0%,0%,0%);stroke-opacity:1;stroke-miterlimit:4;" d="M 132.967105 146.301562 C 132.967105 149.029687 130.754934 151.239844 128.026727 151.239844 C 125.29852 151.239844 123.086349 149.029687 123.086349 146.301562 C 123.086349 143.571094 125.29852 141.360938 128.026727 141.360938 C 130.754934 141.360938 132.967105 143.571094 132.967105 146.301562 Z M 132.967105 146.301562 " transform="matrix(-1.9,0,0,1.666667,843.48125,0)"/>
<path style="fill-rule:nonzero;fill:rgb(100%,84.705882%,23.921569%);fill-opacity:1;stroke-width:2;stroke-linecap:round;stroke-linejoin:round;stroke:rgb(0%,0%,0%);stroke-opacity:1;stroke-miterlimit:4;" d="M 135.092928 157.214062 C 135.092928 159.944531 132.880757 162.154687 130.152549 162.154687 C 127.424342 162.154687 125.212171 159.944531 125.212171 157.214062 C 125.212171 154.485938 127.424342 152.275781 130.152549 152.275781 C 132.880757 152.275781 135.092928 154.485938 135.092928 157.214062 Z M 135.092928 157.214062 " transform="matrix(-1.9,0,0,1.666667,843.48125,0)"/>
<path style="fill-rule:nonzero;fill:rgb(100%,84.705882%,23.921569%);fill-opacity:1;stroke-width:2;stroke-linecap:round;stroke-linejoin:round;stroke:rgb(0%,0%,0%);stroke-opacity:1;stroke-miterlimit:4;" d="M 214.998355 119.53125 L 214.537829 125.964844 C 202.247533 124.082812 184.823602 117.234375 168.583882 117.234375 C 153.575658 117.234375 141.928865 123.236719 141.928865 138.372656 C 141.928865 153.290625 148.246711 166.858594 156.634868 180.651562 L 147.903372 184.788281 C 140.101151 169.619531 133.655839 156.738281 133.655839 139.291406 C 133.655839 124.692187 145.140214 110.339062 164.905839 110.339062 C 182.426398 110.339062 200.296464 116.242969 214.998355 119.53125 Z M 214.998355 119.53125 " transform="matrix(-1.9,0,0,1.666667,843.48125,0)"/>
<path style="fill-rule:nonzero;fill:rgb(100%,84.705882%,23.921569%);fill-opacity:1;stroke-width:2;stroke-linecap:round;stroke-linejoin:round;stroke:rgb(0%,0%,0%);stroke-opacity:1;stroke-miterlimit:4;" d="M 221.969572 53.125781 L 216.813322 62.782031 L 221.969572 72.405469 L 227.125822 62.782031 Z M 221.969572 77.500781 L 216.813322 87.124219 L 221.969572 96.780469 L 227.125822 87.124219 Z M 221.969572 77.500781 " transform="matrix(1.9,0,0,1.666667,0,0)"/>
<path style="fill-rule:nonzero;fill:rgb(100%,84.705882%,23.921569%);fill-opacity:1;stroke-width:2;stroke-linecap:round;stroke-linejoin:round;stroke:rgb(0%,0%,0%);stroke-opacity:1;stroke-miterlimit:4;" d="M 203.587582 74.953125 L 211.71875 80.109375 L 219.823191 74.953125 L 211.71875 69.796875 Z M 224.113898 74.953125 L 232.218339 80.109375 L 240.349507 74.953125 L 232.218339 69.796875 Z M 224.113898 74.953125 " transform="matrix(1.9,0,0,1.666667,0,0)"/>
<path style="fill-rule:nonzero;fill:rgb(100%,84.705882%,23.921569%);fill-opacity:1;stroke-width:2;stroke-linecap:round;stroke-linejoin:round;stroke:rgb(0%,0%,0%);stroke-opacity:1;stroke-miterlimit:4;" d="M 225.875822 75.067969 C 225.875822 77.226562 224.126234 78.975 221.969572 78.975 C 219.810855 78.975 218.063322 77.226562 218.063322 75.067969 C 218.063322 72.911719 219.810855 71.163281 221.969572 71.163281 C 224.126234 71.163281 225.875822 72.911719 225.875822 75.067969 Z M 225.875822 75.067969 " transform="matrix(1.9,0,0,1.666667,0,0)"/>
<path style="fill-rule:nonzero;fill:rgb(100%,84.705882%,23.921569%);fill-opacity:1;stroke-width:2;stroke-linecap:round;stroke-linejoin:round;stroke:rgb(0%,0%,0%);stroke-opacity:1;stroke-miterlimit:4;" d="M 232.423931 100.000781 C 232.423931 105.773438 227.742599 110.453906 221.969572 110.453906 C 216.19449 110.453906 211.513158 105.773438 211.513158 100.000781 C 211.513158 94.225781 216.19449 89.545312 221.969572 89.545312 C 227.742599 89.545312 232.423931 94.225781 232.423931 100.000781 Z M 232.423931 100.000781 " transform="matrix(1.9,0,0,1.666667,0,0)"/>
<path style="fill:none;stroke-width:1.5;stroke-linecap:round;stroke-linejoin:round;stroke:rgb(0%,0%,0%);stroke-opacity:1;stroke-miterlimit:4;" d="M 219.344161 89.875781 C 219.344161 92.988281 219.321546 94.8 219.313322 96.499219 C 216.792763 96.611719 214.307155 96.876562 211.875 97.282031 M 232.062089 97.282031 C 229.629934 96.876562 227.146382 96.611719 224.625822 96.499219 C 224.625822 94.802344 224.625822 92.997656 224.625822 89.875781 M 211.844161 102.5625 C 215.137747 102.011719 218.517681 101.71875 221.969572 101.71875 C 225.419408 101.71875 228.799342 102.011719 232.092928 102.5625 " transform="matrix(1.9,0,0,1.666667,0,0)"/>
<path style="fill-rule:nonzero;fill:rgb(100%,84.705882%,23.921569%);fill-opacity:1;stroke-width:2;stroke-linecap:round;stroke-linejoin:round;stroke:rgb(0%,0%,0%);stroke-opacity:1;stroke-miterlimit:4;" d="M 211.749589 117.686719 C 210.758635 134.770312 208.741776 152.165625 202.092928 164.8125 L 212.907072 160.436719 C 216.681743 146.109375 217.475329 127.59375 218.624589 118.844531 Z M 232.1875 117.686719 L 225.3125 118.844531 C 226.46176 127.59375 227.255345 146.109375 231.032072 160.436719 L 241.844161 164.8125 C 235.195312 152.165625 233.178454 134.770312 232.1875 117.686719 Z M 232.1875 117.686719 " transform="matrix(1.9,0,0,1.666667,0,0)"/>
<path style="fill-rule:nonzero;fill:rgb(100%,84.705882%,23.921569%);fill-opacity:1;stroke-width:2;stroke-linecap:round;stroke-linejoin:round;stroke:rgb(0%,0%,0%);stroke-opacity:1;stroke-miterlimit:4;" d="M 221.953125 154.6875 C 209.039885 154.6875 199.553865 160.774219 198.984375 176.280469 C 195.828536 170.725781 182.473273 153.255469 170.016447 155.594531 C 162.604852 156.984375 156.058799 167.259375 157.171053 179.032031 C 151.036184 161.402344 133.065378 158.5125 119.952714 168.9375 C 131.595395 178.509375 136.77426 206.772656 146.578947 219.030469 L 297.327303 219.030469 C 307.13199 206.772656 312.341694 178.509375 323.984375 168.9375 C 310.871711 158.5125 292.900905 161.402344 286.766036 179.032031 C 287.878289 167.259375 281.301398 156.984375 273.889803 155.594531 C 261.432977 153.255469 248.110609 170.725781 244.952714 176.280469 C 244.383224 160.774219 234.866365 154.6875 221.953125 154.6875 Z M 221.953125 154.6875 " transform="matrix(1.9,0,0,1.666667,0,0)"/>
<path style="fill-rule:nonzero;fill:rgb(0%,0%,0%);fill-opacity:1;stroke-width:1.5;stroke-linecap:round;stroke-linejoin:round;stroke:rgb(0%,0%,0%);stroke-opacity:1;stroke-miterlimit:4;" d="M 297.107319 219.025781 C 297.107319 224.60625 263.445724 230.744531 221.969572 230.744531 C 180.493421 230.744531 146.831826 224.60625 146.831826 219.025781 C 146.831826 213.445312 180.493421 210.525 221.969572 210.525 C 263.445724 210.525 297.107319 213.445312 297.107319 219.025781 Z M 297.107319 219.025781 " transform="matrix(1.9,0,0,1.666667,0,0)"/>
<path style="fill-rule:nonzero;fill:rgb(100%,84.705882%,23.921569%);fill-opacity:1;stroke-width:1.5;stroke-linecap:round;stroke-linejoin:round;stroke:rgb(0%,0%,0%);stroke-opacity:1;stroke-miterlimit:4;" d="M 225.472862 114.445312 C 225.472862 116.378906 223.904194 117.949219 221.969572 117.949219 C 220.032895 117.949219 218.464227 116.378906 218.464227 114.445312 C 218.464227 112.509375 220.032895 110.941406 221.969572 110.941406 C 223.904194 110.941406 225.472862 112.509375 225.472862 114.445312 Z M 225.472862 114.445312 " transform="matrix(1.9,0,0,1.666667,0,0)"/>
<path style="fill-rule:nonzero;fill:rgb(100%,84.705882%,23.921569%);fill-opacity:1;stroke-width:1.5;stroke-linecap:round;stroke-linejoin:round;stroke:rgb(0%,0%,0%);stroke-opacity:1;stroke-miterlimit:4;" d="M 225.703125 122.027344 C 225.703125 124.089844 224.031661 125.760937 221.969572 125.760937 C 219.907484 125.760937 218.233964 124.089844 218.233964 122.027344 C 218.233964 119.964844 219.907484 118.29375 221.969572 118.29375 C 224.031661 118.29375 225.703125 119.964844 225.703125 122.027344 Z M 225.703125 122.027344 " transform="matrix(1.9,0,0,1.666667,0,0)"/>
<path style="fill-rule:nonzero;fill:rgb(100%,84.705882%,23.921569%);fill-opacity:1;stroke-width:1.5;stroke-linecap:round;stroke-linejoin:round;stroke:rgb(0%,0%,0%);stroke-opacity:1;stroke-miterlimit:4;" d="M 226.046464 130.183594 C 226.046464 132.435937 224.220806 134.264062 221.969572 134.264062 C 219.716283 134.264062 217.890625 132.435937 217.890625 130.183594 C 217.890625 127.93125 219.716283 126.105469 221.969572 126.105469 C 224.220806 126.105469 226.046464 127.93125 226.046464 130.183594 Z M 226.046464 130.183594 " transform="matrix(1.9,0,0,1.666667,0,0)"/>
<path style="fill-rule:nonzero;fill:rgb(100%,84.705882%,23.921569%);fill-opacity:1;stroke-width:1.5;stroke-linecap:round;stroke-linejoin:round;stroke:rgb(0%,0%,0%);stroke-opacity:1;stroke-miterlimit:4;" d="M 226.622122 139.260937 C 226.622122 141.829688 224.539474 143.913281 221.969572 143.913281 C 219.399671 143.913281 217.314967 141.829688 217.314967 139.260937 C 217.314967 136.689844 219.399671 134.608594 221.969572 134.608594 C 224.539474 134.608594 226.622122 136.689844 226.622122 139.260937 Z M 226.622122 139.260937 " transform="matrix(1.9,0,0,1.666667,0,0)"/>
<path style="fill-rule:nonzero;fill:rgb(100%,84.705882%,23.921569%);fill-opacity:1;stroke-width:1.5;stroke-linecap:round;stroke-linejoin:round;stroke:rgb(0%,0%,0%);stroke-opacity:1;stroke-miterlimit:4;" d="M 227.080592 149.371875 C 227.080592 152.19375 224.792352 154.483594 221.969572 154.483594 C 219.144737 154.483594 216.856497 152.19375 216.856497 149.371875 C 216.856497 146.547656 219.144737 144.257812 221.969572 144.257812 C 224.792352 144.257812 227.080592 146.547656 227.080592 149.371875 Z M 227.080592 149.371875 " transform="matrix(1.9,0,0,1.666667,0,0)"/>
<path style=" stroke:none;fill-rule:nonzero;fill:rgb(0%,0%,0%);fill-opacity:1;" d="M 417.882812 265.34375 C 416.832031 265.332031 415.835938 266.109375 416.101562 267.582031 C 416.410156 269.320312 416.796875 272.574219 417.167969 274.769531 C 417.589844 277.257812 419.242188 276.652344 419.664062 274.71875 C 420.082031 272.78125 419.914062 271.542969 420.019531 267.949219 C 420.070312 266.152344 418.933594 265.355469 417.882812 265.34375 Z M 425.601562 265.34375 C 424.550781 265.355469 423.410156 266.152344 423.460938 267.949219 C 423.566406 271.542969 423.398438 272.78125 423.820312 274.71875 C 424.238281 276.652344 425.894531 277.257812 426.3125 274.769531 C 426.683594 272.574219 427.070312 269.320312 427.382812 267.582031 C 427.644531 266.109375 426.652344 265.332031 425.601562 265.34375 Z M 410.992188 266.28125 C 410.03125 266.398438 409.035156 267.25 409.09375 268.15625 C 409.199219 269.8125 409.722656 271.804688 409.925781 274.300781 C 410.136719 276.882812 412.207031 275.878906 412.417969 274.40625 C 412.628906 272.929688 412.867188 270.753906 412.65625 267.894531 C 412.578125 266.824219 412.042969 266.351562 411.410156 266.28125 C 411.277344 266.265625 411.132812 266.265625 410.992188 266.28125 Z M 432.070312 266.28125 C 431.4375 266.351562 430.902344 266.824219 430.824219 267.894531 C 430.613281 270.753906 430.851562 272.929688 431.0625 274.40625 C 431.273438 275.878906 433.347656 276.882812 433.554688 274.300781 C 433.757812 271.804688 434.28125 269.8125 434.386719 268.15625 C 434.445312 267.25 433.449219 266.398438 432.488281 266.28125 C 432.351562 266.265625 432.203125 266.265625 432.070312 266.28125 Z M 402.742188 269.199219 C 401.859375 269.398438 401.054688 270.324219 401.316406 271.386719 C 401.839844 273.503906 402.324219 275.847656 402.324219 278 C 402.324219 279.84375 404.121094 279.183594 404.226562 277.894531 C 404.328125 276.605469 404.523438 273.871094 404.523438 271.386719 C 404.523438 269.527344 403.621094 268.996094 402.742188 269.199219 Z M 440.148438 269.199219 C 439.523438 269.347656 438.960938 269.992188 438.960938 271.386719 C 438.960938 273.871094 439.152344 276.605469 439.257812 277.894531 C 439.363281 279.183594 441.15625 279.84375 441.15625 278 C 441.15625 275.847656 441.640625 273.503906 442.164062 271.386719 C 442.429688 270.324219 441.621094 269.398438 440.742188 269.199219 C 440.519531 269.148438 440.355469 269.148438 440.148438 269.199219 Z M 327.867188 269.480469 C 326.816406 269.453125 326.078125 270.703125 326.800781 272.085938 C 327.957031 274.296875 329.183594 275.695312 330.363281 278.074219 C 331.414062 280.195312 333.023438 278.875 332.5 277.398438 C 331.972656 275.925781 331.402344 274.28125 329.828125 271.148438 C 329.238281 269.972656 328.5 269.5 327.867188 269.480469 Z M 515.613281 269.480469 C 514.980469 269.5 514.246094 269.972656 513.652344 271.148438 C 512.078125 274.28125 511.507812 275.925781 510.980469 277.398438 C 510.457031 278.875 512.066406 280.195312 513.117188 278.074219 C 514.296875 275.695312 515.527344 274.296875 516.679688 272.085938 C 517.402344 270.703125 516.664062 269.453125 515.613281 269.480469 Z M 335.46875 269.585938 C 334.695312 269.792969 334.222656 270.65625 334.695312 271.667969 C 335.644531 273.695312 337.007812 275.777344 337.960938 277.972656 C 338.800781 279.90625 340.671875 279.359375 340.039062 277.605469 C 339.410156 275.855469 339.222656 274.832031 337.960938 271.511719 C 337.332031 269.855469 336.242188 269.378906 335.46875 269.585938 Z M 507.417969 269.585938 C 506.757812 269.710938 505.992188 270.269531 505.519531 271.511719 C 504.257812 274.832031 504.070312 275.855469 503.441406 277.605469 C 502.808594 279.359375 504.679688 279.90625 505.519531 277.972656 C 506.472656 275.777344 507.839844 273.695312 508.785156 271.667969 C 509.257812 270.65625 508.789062 269.792969 508.011719 269.585938 C 507.820312 269.535156 507.640625 269.546875 507.417969 269.585938 Z M 344.96875 271.199219 C 343.992188 271.363281 343.234375 272.671875 343.898438 274.273438 C 344.742188 276.300781 345.9375 278.21875 346.988281 280.523438 C 348.039062 282.828125 349.78125 282.363281 349.363281 280.886719 C 348.941406 279.414062 348.425781 276.96875 347.164062 273.285156 C 346.613281 271.671875 345.730469 271.074219 344.96875 271.199219 Z M 498.511719 271.199219 C 497.753906 271.074219 496.867188 271.671875 496.316406 273.285156 C 495.054688 276.96875 494.539062 279.414062 494.117188 280.886719 C 493.699219 282.363281 495.441406 282.828125 496.492188 280.523438 C 497.542969 278.21875 498.742188 276.300781 499.582031 274.273438 C 500.246094 272.671875 499.488281 271.363281 498.511719 271.199219 Z M 321.457031 272.347656 C 320.398438 272.441406 319.433594 273.957031 320.089844 275.105469 C 321.140625 276.949219 321.808594 277.578125 322.820312 279.535156 C 323.871094 281.5625 325.023438 279.992188 324.601562 278.699219 C 324.183594 277.410156 323.644531 275.910156 323.117188 274.066406 C 322.734375 272.714844 322.089844 272.289062 321.457031 272.347656 Z M 522.023438 272.347656 C 521.390625 272.289062 520.746094 272.714844 520.363281 274.066406 C 519.835938 275.910156 519.296875 277.410156 518.878906 278.699219 C 518.457031 279.992188 519.609375 281.5625 520.660156 279.535156 C 521.671875 277.578125 522.339844 276.949219 523.390625 275.105469 C 524.046875 273.957031 523.082031 272.441406 522.023438 272.347656 Z M 394.664062 277.011719 C 393.554688 277.007812 392.371094 278.300781 392.765625 279.511719 C 393.394531 281.445312 394.371094 283.160156 395.082031 285.65625 C 395.710938 287.867188 397.503906 286.765625 397.398438 285.292969 C 397.292969 283.816406 397.003906 281.808594 396.269531 278.675781 C 395.992188 277.5 395.332031 277.011719 394.664062 277.011719 Z M 448.816406 277.011719 C 448.148438 277.011719 447.488281 277.5 447.210938 278.675781 C 446.476562 281.808594 446.191406 283.816406 446.085938 285.292969 C 445.980469 286.765625 447.769531 287.867188 448.398438 285.65625 C 449.109375 283.160156 450.085938 281.445312 450.714844 279.511719 C 451.109375 278.300781 449.925781 277.007812 448.816406 277.011719 Z M 421.742188 278.988281 C 420.375 278.988281 420.183594 280.597656 420.136719 281.90625 C 419.980469 286.191406 417.953125 290.351562 416.21875 292.425781 C 414.484375 294.5 411.933594 293.949219 409.570312 292.84375 C 407.203125 291.738281 405.796875 290.910156 403.273438 289.25 C 400.753906 287.589844 398.839844 288.5625 401.851562 292.324219 C 410.625 303.289062 420.136719 312.664062 420.136719 330.550781 C 420.136719 332.863281 420.597656 333.574219 421.742188 333.574219 C 422.882812 333.574219 423.402344 332.863281 423.402344 330.550781 C 423.402344 312.664062 432.859375 303.289062 441.632812 292.324219 C 444.640625 288.5625 442.726562 287.589844 440.207031 289.25 C 437.683594 290.910156 436.277344 291.738281 433.914062 292.84375 C 431.546875 293.949219 428.996094 294.5 427.261719 292.425781 C 425.527344 290.351562 423.5 286.191406 423.34375 281.90625 C 423.296875 280.597656 423.105469 278.988281 421.742188 278.988281 Z M 354.707031 276.304688 C 354.585938 276.300781 354.457031 276.328125 354.351562 276.355469 C 353.839844 276.5 353.5 277.039062 353.695312 277.972656 C 354.050781 279.640625 355.367188 282.914062 355.894531 284.480469 C 356.417969 286.050781 358.617188 285.714844 358.089844 283.597656 C 357.566406 281.476562 357.59375 280.835938 356.960938 278.441406 C 356.617188 277.128906 355.542969 276.324219 354.707031 276.304688 Z M 488.773438 276.304688 C 487.9375 276.324219 486.863281 277.128906 486.519531 278.441406 C 485.886719 280.835938 485.917969 281.476562 485.390625 283.597656 C 484.867188 285.714844 487.0625 286.050781 487.585938 284.480469 C 488.113281 282.914062 489.433594 279.640625 489.785156 277.972656 C 489.980469 277.039062 489.640625 276.5 489.132812 276.355469 C 489.023438 276.328125 488.894531 276.300781 488.773438 276.304688 Z M 314.867188 276.980469 C 313.765625 277.058594 312.976562 278.269531 314.09375 280.054688 C 315.296875 281.984375 317.363281 284.402344 318.308594 285.785156 C 319.253906 287.167969 320.890625 286.234375 319.734375 284.480469 C 318.578125 282.730469 318.191406 280.71875 316.824219 278.230469 C 316.3125 277.300781 315.527344 276.9375 314.867188 276.980469 Z M 528.617188 276.980469 C 527.957031 276.9375 527.167969 277.300781 526.65625 278.230469 C 525.289062 280.71875 524.902344 282.730469 523.746094 284.480469 C 522.589844 286.234375 524.226562 287.167969 525.171875 285.785156 C 526.117188 284.402344 528.183594 281.984375 529.386719 280.054688 C 530.503906 278.269531 529.714844 277.058594 528.617188 276.980469 Z M 254.660156 282.53125 C 253.390625 282.472656 252.992188 284.480469 254.183594 285.8125 C 255.917969 287.746094 257.125 288.773438 259.113281 290.34375 C 260.6875 291.585938 261.148438 289.972656 260.359375 288.730469 C 259.570312 287.484375 258.433594 286.21875 256.855469 284.144531 C 255.992188 283.007812 255.234375 282.558594 254.660156 282.53125 Z M 588.820312 282.53125 C 588.246094 282.558594 587.488281 283.007812 586.625 284.144531 C 585.050781 286.21875 583.910156 287.484375 583.121094 288.730469 C 582.335938 289.972656 582.792969 291.585938 584.367188 290.34375 C 586.355469 288.773438 587.5625 287.746094 589.296875 285.8125 C 590.488281 284.480469 590.089844 282.472656 588.820312 282.53125 Z M 264.21875 284.199219 C 263.207031 284.207031 262.539062 284.863281 263.328125 286.386719 C 264.457031 288.5625 265.945312 291.027344 266.890625 292.6875 C 267.835938 294.34375 270.71875 294.902344 269.5625 292.324219 C 268.40625 289.742188 268.179688 288.417969 267.128906 286.019531 C 266.601562 284.820312 265.230469 284.1875 264.21875 284.199219 Z M 579.261719 284.199219 C 578.25 284.1875 576.878906 284.820312 576.351562 286.019531 C 575.300781 288.417969 575.074219 289.742188 573.917969 292.324219 C 572.761719 294.902344 575.644531 294.34375 576.589844 292.6875 C 577.535156 291.027344 579.023438 288.5625 580.152344 286.386719 C 580.941406 284.863281 580.273438 284.207031 579.261719 284.199219 Z M 245.695312 284.769531 C 244.222656 284.785156 244.097656 286.078125 245.398438 286.90625 C 247.132812 288.011719 249.199219 289.238281 251.214844 290.65625 C 253.578125 292.3125 254.496094 290.789062 253.234375 289.40625 C 251.972656 288.023438 250.746094 286.621094 247.59375 285.238281 C 246.804688 284.894531 246.183594 284.765625 245.695312 284.769531 Z M 597.789062 284.769531 C 597.296875 284.765625 596.675781 284.894531 595.886719 285.238281 C 592.734375 286.621094 591.507812 288.023438 590.246094 289.40625 C 588.988281 290.789062 589.902344 292.3125 592.265625 290.65625 C 594.285156 289.238281 596.351562 288.011719 598.085938 286.90625 C 599.382812 286.078125 599.257812 284.785156 597.789062 284.769531 Z M 389.441406 285.96875 C 388.617188 286.070312 387.910156 286.890625 388.253906 287.949219 C 388.882812 289.882812 389.597656 291.933594 390.035156 293.9375 C 390.453125 295.871094 393.007812 295.894531 392.585938 294.144531 C 392.167969 292.394531 391.957031 290.203125 391.222656 287.53125 C 390.945312 286.527344 390.371094 286.046875 389.796875 285.96875 C 389.675781 285.953125 389.558594 285.953125 389.441406 285.96875 Z M 453.683594 285.96875 C 453.109375 286.046875 452.535156 286.527344 452.257812 287.53125 C 451.523438 290.203125 451.3125 292.394531 450.894531 294.144531 C 450.472656 295.894531 453.027344 295.871094 453.445312 293.9375 C 453.882812 291.933594 454.597656 289.882812 455.226562 287.949219 C 455.574219 286.890625 454.863281 286.070312 454.039062 285.96875 C 453.921875 285.953125 453.804688 285.953125 453.683594 285.96875 Z M 332.261719 282.660156 C 331.617188 282.816406 331.246094 283.898438 331.726562 285.417969 C 334.40625 293.851562 335.230469 298.292969 334.757812 300.367188 C 334.285156 302.441406 332.988281 302.726562 331.253906 302.035156 C 329.519531 301.34375 327.484375 300.34375 325.910156 299.378906 C 324.332031 298.410156 322.695312 299.566406 324.960938 301.199219 C 336.464844 309.496094 344.4375 318.976562 347.523438 330.472656 C 348.152344 332.820312 349.835938 333.097656 349.363281 330.472656 C 346.753906 315.988281 346.253906 304.082031 350.195312 296.617188 C 351.675781 293.8125 350.183594 291.117188 347.820312 295.679688 C 346.242188 298.722656 343.691406 299.921875 341.644531 297.292969 C 339.59375 294.667969 335.363281 287.660156 334.101562 284.480469 C 333.628906 283.289062 333.046875 282.738281 332.558594 282.660156 C 332.457031 282.644531 332.355469 282.636719 332.261719 282.660156 Z M 510.921875 282.660156 C 510.433594 282.738281 509.851562 283.289062 509.378906 284.480469 C 508.117188 287.660156 503.886719 294.667969 501.835938 297.292969 C 499.789062 299.921875 497.238281 298.722656 495.664062 295.679688 C 493.296875 291.117188 491.808594 293.8125 493.289062 296.617188 C 497.226562 304.082031 496.726562 315.988281 494.117188 330.472656 C 493.644531 333.097656 495.328125 332.820312 495.960938 330.472656 C 499.042969 318.976562 507.019531 309.496094 518.523438 301.199219 C 520.785156 299.566406 519.148438 298.410156 517.570312 299.378906 C 515.996094 300.34375 513.960938 301.34375 512.226562 302.035156 C 510.496094 302.726562 509.199219 302.441406 508.726562 300.367188 C 508.253906 298.292969 509.074219 293.851562 511.753906 285.417969 C 512.238281 283.898438 511.863281 282.816406 511.21875 282.660156 C 511.125 282.636719 511.023438 282.644531 510.921875 282.660156 Z M 274.429688 286.699219 C 273.394531 286.707031 272.535156 287.347656 273.007812 288.730469 C 273.765625 290.941406 275.332031 293.335938 275.855469 294.71875 C 276.382812 296.101562 278.070312 295.457031 277.757812 293.519531 C 277.441406 291.585938 277.285156 290.433594 276.867188 288.3125 C 276.65625 287.253906 275.46875 286.6875 274.429688 286.699219 Z M 569.050781 286.699219 C 568.011719 286.6875 566.824219 287.253906 566.617188 288.3125 C 566.195312 290.433594 566.039062 291.585938 565.726562 293.519531 C 565.410156 295.457031 567.097656 296.101562 567.625 294.71875 C 568.148438 293.335938 569.71875 290.941406 570.476562 288.730469 C 570.949219 287.347656 570.085938 286.707031 569.050781 286.699219 Z M 310.117188 283.804688 C 308.910156 283.613281 308.734375 286.34375 309.757812 287.449219 C 311.125 288.925781 313.023438 290.707031 314.925781 292.710938 C 316.5 294.371094 317.472656 292.894531 316.527344 291.511719 C 315.582031 290.128906 314.179688 288.660156 311.660156 285.160156 C 311.027344 284.285156 310.519531 283.867188 310.117188 283.804688 Z M 533.367188 283.804688 C 532.964844 283.867188 532.453125 284.285156 531.820312 285.160156 C 529.300781 288.660156 527.898438 290.128906 526.953125 291.511719 C 526.007812 292.894531 526.980469 294.371094 528.554688 292.710938 C 530.457031 290.707031 532.355469 288.925781 533.722656 287.449219 C 534.746094 286.34375 534.570312 283.613281 533.367188 283.804688 Z M 282.566406 290.394531 C 281.816406 290.347656 281.183594 290.882812 281.496094 292.21875 C 281.9375 294.078125 282.574219 295.625 283.101562 297.375 C 283.625 299.125 285 298.824219 285 297.167969 C 285 295.507812 284.660156 293.65625 284.347656 291.90625 C 284.1875 291.03125 283.3125 290.441406 282.566406 290.394531 Z M 560.914062 290.394531 C 560.167969 290.441406 559.292969 291.03125 559.132812 291.90625 C 558.820312 293.65625 558.480469 295.507812 558.480469 297.167969 C 558.480469 298.824219 559.855469 299.125 560.382812 297.375 C 560.90625 295.625 561.546875 294.078125 561.984375 292.21875 C 562.300781 290.882812 561.664062 290.347656 560.914062 290.394531 Z M 307.445312 292.761719 C 306.269531 292.917969 305.234375 293.917969 306.613281 295.472656 C 308.820312 297.960938 311.234375 299.707031 312.074219 300.628906 C 312.914062 301.550781 315.042969 301.210938 313.679688 299.273438 C 312.28125 297.296875 310.171875 294.914062 309.226562 293.441406 C 308.871094 292.886719 308.148438 292.671875 307.445312 292.761719 Z M 535.5625 292.761719 C 535.046875 292.8125 534.523438 293.027344 534.257812 293.441406 C 533.3125 294.914062 531.199219 297.296875 529.804688 299.273438 C 528.4375 301.210938 530.566406 301.550781 531.40625 300.628906 C 532.246094 299.707031 534.664062 297.960938 536.867188 295.472656 C 538.246094 293.917969 537.214844 292.917969 536.039062 292.761719 C 535.859375 292.738281 535.734375 292.746094 535.5625 292.761719 Z M 268.195312 299.71875 C 267.269531 299.644531 266.949219 300.300781 268.195312 301.800781 C 271.03125 305.210938 274.160156 310.371094 274.371094 312.582031 C 274.582031 314.792969 273.335938 314.769531 272.175781 314.769531 C 268.707031 314.769531 267.015625 312.550781 263.863281 311.90625 C 260.710938 311.261719 260.253906 312.714844 262.496094 314.144531 C 274.054688 321.519531 285.636719 329.742188 290.285156 337.21875 C 292.175781 340.257812 294.730469 341.371094 293.3125 338.46875 C 288.96875 329.574219 287.914062 322.039062 288.859375 317.480469 C 289.804688 312.917969 291.09375 309.84375 290.9375 307.21875 C 290.78125 304.59375 289.082031 304.769531 288.382812 307.21875 C 287.910156 308.878906 286.996094 311.074219 286.367188 311.90625 C 285.734375 312.734375 283.199219 313.199219 280.785156 310.34375 C 278.367188 307.488281 272.269531 301.984375 270.273438 300.605469 C 269.527344 300.085938 268.753906 299.761719 268.195312 299.71875 Z M 575.285156 299.71875 C 574.726562 299.761719 573.953125 300.085938 573.207031 300.605469 C 571.210938 301.984375 565.113281 307.488281 562.695312 310.34375 C 560.28125 313.199219 557.746094 312.734375 557.117188 311.90625 C 556.484375 311.074219 555.570312 308.878906 555.097656 307.21875 C 554.398438 304.769531 552.703125 304.59375 552.542969 307.21875 C 552.386719 309.84375 553.675781 312.917969 554.621094 317.480469 C 555.566406 322.039062 554.515625 329.574219 550.167969 338.46875 C 548.75 341.371094 551.304688 340.257812 553.195312 337.21875 C 557.84375 329.742188 569.429688 321.519531 580.984375 314.144531 C 583.226562 312.714844 582.769531 311.261719 579.617188 311.90625 C 576.46875 312.550781 574.773438 314.769531 571.304688 314.769531 C 570.144531 314.769531 568.898438 314.792969 569.109375 312.582031 C 569.320312 310.371094 572.449219 305.210938 575.285156 301.800781 C 576.53125 300.300781 576.210938 299.644531 575.285156 299.71875 Z M 575.285156 299.71875 "/>
<path style="fill-rule:nonzero;fill:rgb(100%,84.705882%,23.921569%);fill-opacity:1;stroke-width:1.5;stroke-linecap:round;stroke-linejoin:round;stroke:rgb(0%,0%,0%);stroke-opacity:1;stroke-miterlimit:4;" d="M 150.127467 212.650781 L 152.07648 218.824219 M 154.136513 211.48125 L 155.865543 217.720313 M 158.470395 210.76875 L 159.656661 217.134375 M 162.48972 209.964844 L 163.76028 216.314063 M 167.64597 209.45625 L 168.678043 215.847656 M 173.129112 209.460938 L 174.243421 215.840625 M 178.484786 207.651562 L 179.286595 214.075781 M 183.519737 207.977344 L 184.323602 214.401562 M 188.394326 207.325781 L 189.198191 213.752344 M 193.287418 206.821875 L 193.729441 213.28125 M 198.515625 206.819531 L 198.900082 213.283594 M 203.256579 206.49375 L 203.58347 212.960156 M 208.48273 206.167969 L 208.754112 212.636719 M 214.494243 206.003906 L 214.765625 212.472656 M 293.809622 212.650781 L 291.860609 218.824219 M 289.800576 211.48125 L 288.071546 217.720313 M 285.46875 210.76875 L 284.280428 217.134375 M 281.447368 209.964844 L 280.176809 216.314063 M 276.291118 209.45625 L 275.259046 215.847656 M 270.807977 209.460938 L 269.695724 215.840625 M 265.454359 207.651562 L 264.650493 214.075781 M 260.417352 207.977344 L 259.613487 214.401562 M 255.542763 207.325781 L 254.738898 213.752344 M 250.649671 206.821875 L 250.207648 213.28125 M 245.421464 206.819531 L 245.037007 213.283594 M 240.68051 206.49375 L 240.353618 212.960156 M 235.454359 206.167969 L 235.182977 212.636719 M 229.442845 206.003906 L 229.171464 212.472656 M 221.969572 205.584375 L 221.969572 212.707031 " transform="matrix(1.9,0,0,1.666667,0,0)"/>
</g>
</svg>
