<?xml version="1.0" encoding="UTF-8"?>
<svg xmlns="http://www.w3.org/2000/svg" xmlns:xlink="http://www.w3.org/1999/xlink" width="380pt" height="200pt" viewBox="0 0 1900 1000" version="1.1">
<g id="surface1">
<rect x="0" y="0" width="1900" height="1000" style="fill:rgb(9.803922%,54.117647%,0%);fill-opacity:1;stroke:none;"/>
<path style=" stroke:none;fill-rule:nonzero;fill:rgb(93.72549%,49.019608%,0%);fill-opacity:1;" d="M 1673.808594 357.144531 L 1900 357.144531 L 1900 1000 L 1673.808594 1000 Z M 1673.808594 357.144531 "/>
<path style=" stroke:none;fill-rule:nonzero;fill:rgb(0%,0%,0%);fill-opacity:1;" d="M 1447.617188 357.144531 L 1673.808594 357.144531 L 1673.808594 1000 L 1447.617188 1000 Z M 1447.617188 357.144531 "/>
<path style=" stroke:none;fill-rule:nonzero;fill:rgb(87.058824%,12.54902%,6.27451%);fill-opacity:1;" d="M 1221.429688 357.144531 L 1447.617188 357.144531 L 1447.617188 1000 L 1221.429688 1000 Z M 1221.429688 357.144531 "/>
<path style="fill-rule:nonzero;fill:rgb(93.72549%,49.019608%,0%);fill-opacity:1;stroke-width:2.25;stroke-linecap:round;stroke-linejoin:round;stroke:rgb(0%,0%,0%);stroke-opacity:1;stroke-miterlimit:4;" d="M 1916.422697 168.333594 C 1916.422697 168.333594 2002.425987 134.629687 2010.758635 127.678906 C 2014.549342 131.846094 1976.283923 174.239844 1902.028372 189.880469 C 1969.462377 175.284375 2027.052632 129.417969 2038.796053 130.807031 C 2042.206826 131.501563 2041.446957 175.628906 1886.874178 213.855469 C 1993.709087 188.141406 2055.841283 140.880469 2055.085732 146.097656 C 2055.841283 147.136719 2044.477796 183.274219 1950.901727 211.421875 C 1977.043791 205.860156 2047.888569 166.25 2047.128701 173.895312 C 2049.403988 177.023438 1978.559211 260.416406 1850.504112 233.313281 C 1952.797081 257.638281 2019.0956 198.914844 2028.568051 199.953906 C 2030.459087 200.303906 2009.62315 251.382031 1880.8125 254.510156 C 1942.569079 248.603906 1924.759663 254.160156 1924.759663 254.160156 C 1924.759663 254.160156 1888.389597 280.224219 1844.442434 262.505469 C 1878.917146 271.189844 1882.703536 271.539844 1883.463405 274.317969 C 1881.192434 277.790625 1852.775082 283.007812 1825.497533 269.450781 C 1847.473273 277.790625 1867.173725 279.185156 1867.549342 282.307812 C 1867.173725 283.352344 1853.155016 290.647656 1840.656044 285.435937 C 1828.152755 280.224219 1712.976562 215.244531 1712.976562 215.244531 L 1909.225535 165.9 Z M 1916.422697 168.333594 " transform="matrix(0.904762,0,0,0.714286,0,0)"/>
<path style="fill-rule:nonzero;fill:rgb(93.72549%,49.019608%,0%);fill-opacity:1;stroke-width:2.25;stroke-linecap:round;stroke-linejoin:round;stroke:rgb(0%,0%,0%);stroke-opacity:1;stroke-miterlimit:4;" d="M 1685.711965 344.104687 C 1668.455181 344.104687 1667.980263 358.192187 1667.980263 358.192187 C 1667.980263 358.192187 1666.55551 359.209375 1667.505345 366.034375 C 1670.354852 361.385937 1671.779605 359.93125 1671.779605 359.93125 C 1673.679276 360.226562 1681.597451 362.403125 1694.105058 353.401562 C 1682.702714 364.289844 1689.511308 368.358594 1689.511308 368.358594 C 1689.511308 368.358594 1686.821546 376.922656 1695.529811 378.667187 C 1692.840049 375.183594 1694.42023 372.132031 1694.42023 372.132031 C 1694.42023 372.132031 1706.612664 370.972656 1705.818257 357.322656 C 1706.297492 369.660156 1713.581003 372.711719 1713.581003 372.711719 C 1713.581003 372.711719 1713.581003 379.536719 1721.49486 380.121875 C 1717.2206 376.632812 1718.170436 371.2625 1718.170436 371.2625 C 1718.170436 371.2625 1728.463199 364.4375 1719.750617 352.816406 C 1724.97903 350.054688 1729.253289 342.360156 1729.253289 342.360156 C 1729.253289 342.360156 1722.129523 339.603906 1718.805099 337.279687 C 1717.2206 334.228125 1718.645354 317.526562 1718.645354 317.526562 L 1714.371094 295.892187 L 1702.17866 329.585156 C 1702.653577 324.789062 1702.96875 344.104687 1685.711965 344.104687 Z M 1685.711965 344.104687 " transform="matrix(0.904762,0,0,0.714286,0,0)"/>
<path style="fill-rule:nonzero;fill:rgb(93.72549%,49.019608%,0%);fill-opacity:1;stroke-width:2.25;stroke-linecap:round;stroke-linejoin:round;stroke:rgb(0%,0%,0%);stroke-opacity:1;stroke-miterlimit:4;" d="M 1770.942434 295.514844 C 1771.322368 295.859375 1783.825658 308.721875 1795.949013 308.021875 C 1800.495271 304.549219 1786.476562 296.903906 1786.476562 295.164844 C 1791.402755 299.3375 1812.238692 315.667187 1825.497533 309.760937 C 1830.80366 302.810156 1816.0294 303.854687 1799.735403 285.091406 C 1811.09889 292.042187 1839.516242 307.327344 1852.775082 301.421094 C 1858.461143 295.859375 1823.226562 278.485156 1811.478824 264.933594 L 1781.174753 250.6875 L 1739.878495 281.613281 Z M 1770.942434 295.514844 " transform="matrix(0.904762,0,0,0.714286,0,0)"/>
<path style="fill-rule:nonzero;fill:rgb(93.72549%,49.019608%,0%);fill-opacity:1;stroke-width:2.25;stroke-linecap:round;stroke-linejoin:round;stroke:rgb(0%,0%,0%);stroke-opacity:1;stroke-miterlimit:4;" d="M 1724.344367 189.880469 C 1724.344367 189.880469 1738.363076 182.235156 1794.433594 186.057812 C 1800.495271 186.752344 1832.699013 175.978906 1842.927015 172.850781 C 1859.216694 170.072656 1911.120888 159.649219 1925.139597 149.914844 C 1934.987664 148.875781 1922.484375 166.594531 1909.985403 170.767187 C 1896.722245 176.328906 1848.608758 191.614062 1831.559211 189.530469 C 1852.019531 189.880469 1840.656044 205.165625 1806.556949 197.870312 C 1822.846628 206.210156 1816.784951 207.599219 1816.784951 207.599219 C 1816.784951 207.599219 1787.991982 208.988281 1780.414885 203.082031 C 1799.73972 209.682812 1791.782689 212.116406 1791.782689 212.116406 C 1791.782689 212.116406 1772.082237 213.855469 1762.985403 210.032812 C 1777.004112 213.855469 1769.806949 216.289062 1769.806949 216.289062 C 1769.806949 216.289062 1758.443462 218.022656 1748.971012 214.9 C 1739.498561 211.771875 1725.104235 189.880469 1724.344367 189.880469 Z M 1724.344367 189.880469 " transform="matrix(0.904762,0,0,0.714286,0,0)"/>
<path style="fill-rule:nonzero;fill:rgb(93.72549%,49.019608%,0%);fill-opacity:1;stroke-width:2.25;stroke-linecap:round;stroke-linejoin:round;stroke:rgb(0%,0%,0%);stroke-opacity:1;stroke-miterlimit:4;" d="M 1746.825247 302.717187 L 1748.884663 336.7 C 1748.884663 336.7 1747.7794 338.439062 1746.825247 339.45625 C 1745.875411 340.473437 1720.545025 335.825 1724.029194 353.54375 C 1724.029194 360.80625 1724.184622 362.692969 1729.568462 366.75625 C 1728.143709 361.965625 1728.618627 358.624219 1728.618627 358.624219 C 1728.618627 358.624219 1735.742393 362.545312 1742.710732 351.799219 C 1737.961554 362.403125 1741.285979 366.176562 1742.395559 366.466406 C 1743.500822 368.358594 1740.495888 376.922656 1749.994243 376.780469 C 1746.354646 373.58125 1748.094572 368.938281 1748.094572 368.938281 C 1748.094572 368.938281 1758.067845 367.483594 1754.587993 350.929688 C 1758.22759 347.588281 1759.652344 350.7875 1759.652344 350.7875 C 1759.652344 350.7875 1760.757607 360.658594 1769.470189 358.624219 C 1773.429276 360.658594 1768.835526 366.034375 1768.835526 366.034375 C 1768.835526 366.034375 1775.169202 366.176562 1777.068873 361.238281 C 1778.968544 356.305469 1781.183388 347.446094 1770.735197 343.814844 C 1769.470189 340.33125 1774.85403 340.035937 1774.85403 340.035937 C 1774.85403 340.035937 1781.502878 342.070312 1783.402549 345.121875 C 1785.30222 348.167969 1784.667558 337.132031 1776.434211 335.972656 C 1766.301192 335.682812 1765.670847 333.796094 1765.670847 333.358594 C 1765.670847 332.921094 1763.926604 308.672656 1763.136513 301.7 Z M 1746.825247 302.717187 " transform="matrix(0.904762,0,0,0.714286,0,0)"/>
<path style="fill-rule:nonzero;fill:rgb(93.72549%,49.019608%,0%);fill-opacity:1;stroke-width:2.25;stroke-linecap:round;stroke-linejoin:round;stroke:rgb(0%,0%,0%);stroke-opacity:1;stroke-miterlimit:4;" d="M 1782.068462 331.674219 C 1782.193668 330.115625 1764.781456 308.617969 1769.198191 305.834375 C 1773.614926 306.671094 1780.855263 316.449219 1786.722656 313.277344 C 1784.943873 309.465625 1779.702508 311.609375 1773.753084 301.853125 C 1767.80366 290.817187 1766.935855 274.257812 1746.099918 256.194531 C 1759.587582 275.307812 1790.189556 286.513281 1791.484786 280.940625 C 1792.780016 275.367969 1764.539679 254.291406 1765.98602 249.210937 C 1771.603002 259.639844 1799.95991 282.8875 1820.856291 280.9625 C 1822.285362 276.489062 1803.746299 267.454687 1798.971217 259.021875 C 1785.626028 250.796875 1749.907895 222.55625 1749.191201 216.010156 C 1736.195724 198.619531 1728.083265 193.364062 1724.30551 191.357031 C 1722.8419 189.782031 1722.474918 188.272656 1722.189967 187.315625 C 1714.125 169.870312 1724.81065 164.204687 1731.066612 163.367969 C 1736.212993 162.842969 1737.706826 163.548437 1741.411184 161.902344 C 1737.024671 160.327344 1732.638158 158.85625 1728.255962 157.28125 C 1733.972245 161.13125 1748.582442 157.746094 1745.413446 168.825781 C 1751.820518 166.589062 1765.44634 151.719531 1729.969984 148.367188 C 1718.425164 136.215625 1670.96361 129.2375 1659.082031 182.251562 C 1660.031867 182.995312 1660.528372 183.607812 1663.546258 185.675 C 1648.556127 179.014062 1608.123355 173.873437 1593.552015 171.713281 C 1554.189967 161.295312 1513.308183 136.19375 1509.379317 139.283594 C 1504.125 141.421875 1533.164062 166.200781 1531.652961 166.747656 C 1506.473684 153.283594 1483.470395 143.740625 1462.068873 135.061719 C 1447.009663 129.899219 1431.928865 117.878906 1430.266653 120.164844 C 1424.727385 130.697656 1454.405428 157.160937 1459.927426 160.278125 C 1465.453742 163.253125 1508.874178 181.726562 1508.235197 181.961719 C 1442.830387 154.732812 1431.864104 149.794531 1428.582854 146.655469 C 1422.819079 145.463281 1408.774465 128.072656 1404.86287 129.19375 C 1402.717105 131.124219 1407.01727 158.599219 1438.228002 170.936719 C 1443.313939 174.338281 1505.126645 194.676562 1504.522204 196.267969 C 1504.371094 196.667187 1433.724918 169.525781 1430.97903 168.557812 C 1417.357525 163.657812 1400.644737 146.485937 1397.518914 148.416406 C 1394.539885 150.166406 1405.225535 168.754687 1418.989515 174.584375 C 1426.203947 177.504687 1453.874383 190.071875 1478.807566 198.078125 C 1480.396382 198.603125 1433.992599 181.934375 1411.680099 173.38125 C 1401.56435 168.235156 1396.80222 161.814844 1395.260896 163.198437 C 1392.981291 164.576562 1398.943668 192.035156 1470.63898 207.528125 C 1472.530016 208.260937 1495.878701 202.453125 1494.725946 203.224219 C 1494.436678 203.415625 1471.537007 207.9875 1469.309211 207.828906 C 1467.323191 207.555469 1454.781044 209.196094 1454.55222 209.792187 C 1453.796669 211.646094 1459.098479 221.478906 1496.11616 219.428125 C 1500.852385 219.165625 1526.532484 210.847656 1524.373766 212.635937 C 1523.298725 213.532812 1489.402549 223.633594 1486.820724 223.835938 C 1484.579975 224.125781 1472.672492 225.26875 1472.232113 226.428125 C 1471.696752 228.014062 1481.043997 235.008594 1500.925781 236.129687 C 1518.527961 236.988281 1551.975123 226.264062 1551.305921 226.958594 C 1550.632401 227.658594 1519.059005 237.578906 1518.234375 238.185937 C 1517.090255 238.776562 1505.532484 239.350781 1505.126645 240.165625 C 1504.181127 242.189062 1521.800576 257.304688 1573.912007 241.177344 C 1568.674959 247.663281 1543.417969 252.098437 1543.452508 253.263281 C 1543.335937 254.110937 1549.017681 259.147656 1557.851151 260.952344 C 1562.263569 261.849219 1568.307977 261.66875 1573.829975 260.864844 C 1583.751439 259.04375 1594.203947 255.445312 1607.484375 244.190625 C 1609.068873 247.723437 1574.309211 263.85625 1575.941201 265.398438 C 1583.479441 271.807812 1608.516242 264.567187 1610.156867 263.730469 C 1611.797492 262.888281 1658.369655 238.798437 1658.20991 236.009375 C 1658.935238 239.585937 1598.167352 269.871875 1598.819285 271.113281 C 1602.722245 276.822656 1623.480469 270.8125 1624.473479 270.2875 C 1625.462171 269.7625 1650.965255 257.129687 1651.664679 256.752344 C 1652.364104 256.380469 1621.693051 273.21875 1624.425987 275.783594 C 1623.104852 286.715625 1672.323602 268.236719 1676.179071 265.934375 C 1678.108964 264.785937 1652.536801 276.248437 1652.467722 281.695312 C 1660.701069 294.464844 1687.071957 290.4125 1691.13898 287.601562 C 1693.172492 286.196094 1688.742804 297.089844 1690.171875 296.1 C 1690.66838 295.897656 1695.905428 290.215625 1697.921669 286.103125 C 1697.278372 289.66875 1694.385691 295.290625 1692.701891 301.738281 C 1691.009457 308.191406 1690.525905 315.464844 1688.21176 323.197656 C 1687.680715 326.59375 1704.458265 316.558594 1702.023232 292.567187 C 1703.45662 305.046875 1696.721423 328.382031 1698.482936 329.596094 C 1702.01028 332.01875 1711.754729 317.975 1712.739104 308.475781 C 1715.636102 313.271875 1721.706414 323.285156 1726.934827 325.592969 C 1726.364926 318.330469 1727.034128 318.664062 1724.681127 311.532812 C 1726.036801 302.060937 1726.226768 288.952344 1726.554893 274.153906 C 1740.754934 299.102344 1746.419408 309.635156 1742.451686 328.7375 C 1746.674137 330.35625 1753.417969 315.404687 1752.873972 307.710156 C 1758.292352 329.092969 1781.697163 332.297656 1782.068462 331.674219 Z M 1782.068462 331.674219 " transform="matrix(0.904762,0,0,0.714286,0,0)"/>
<path style="fill-rule:nonzero;fill:rgb(93.72549%,49.019608%,0%);fill-opacity:1;stroke-width:2.25;stroke-linecap:round;stroke-linejoin:round;stroke:rgb(0%,0%,0%);stroke-opacity:1;stroke-miterlimit:4;" d="M 1545.576686 173.288281 C 1545.576686 173.288281 1535.909951 179.9875 1523.885896 179.588281 C 1526.890831 190.624219 1551.802426 182.153125 1551.802426 182.153125 C 1551.802426 182.153125 1539.778372 194.364844 1531.186678 196.333594 C 1536.341694 200.271094 1558.032484 198.892969 1561.680715 196.924219 C 1565.333265 194.955469 1571.774877 187.271875 1571.774877 187.271875 C 1571.774877 187.271875 1549.440789 210.907812 1546.219984 210.710938 C 1545.78824 213.472656 1569.629112 212.488281 1574.568257 208.348437 C 1579.507401 204.214062 1591.963199 198.105469 1591.963199 198.105469 C 1591.963199 198.105469 1559.319079 218.985156 1557.816612 218.985156 C 1570.056538 221.94375 1594.540707 215.441406 1610.217311 206.576562 C 1587.024054 220.757031 1584.878289 223.321875 1573.065789 228.046875 C 1583.587377 230.2125 1588.953947 236.714844 1624.607319 222.534375 C 1645.011513 213.669531 1656.603824 197.514844 1656.603824 197.514844 C 1643.936472 213.078906 1623.959704 226.275 1601.841488 239.274219 C 1600.554893 241.636719 1625.466488 251.289062 1657.251439 220.953906 " transform="matrix(0.904762,0,0,0.714286,0,0)"/>
<path style="fill-rule:nonzero;fill:rgb(93.72549%,49.019608%,0%);fill-opacity:1;stroke-width:2.25;stroke-linecap:round;stroke-linejoin:round;stroke:rgb(0%,0%,0%);stroke-opacity:1;stroke-miterlimit:4;" d="M 1718.239515 239.077344 C 1718.239515 239.077344 1720.389597 248.335937 1728.976974 255.428906 C 1737.568668 262.516406 1738.216283 269.4125 1738.216283 269.4125 " transform="matrix(0.904762,0,0,0.714286,0,0)"/>
<path style="fill-rule:nonzero;fill:rgb(93.72549%,49.019608%,0%);fill-opacity:1;stroke-width:2.25;stroke-linecap:round;stroke-linejoin:round;stroke:rgb(0%,0%,0%);stroke-opacity:1;stroke-miterlimit:4;" d="M 1713.947985 178.800781 C 1713.947985 178.800781 1716.952919 187.075 1725.756168 192.396094 C 1734.779605 197.711719 1748.310444 214.457031 1749.381168 217.410156 C 1750.421669 220.986719 1755.611225 246.760937 1755.179482 249.517187 " transform="matrix(0.904762,0,0,0.714286,0,0)"/>
<path style="fill-rule:nonzero;fill:rgb(93.72549%,49.019608%,0%);fill-opacity:1;stroke-width:2.25;stroke-linecap:round;stroke-linejoin:round;stroke:rgb(0%,0%,0%);stroke-opacity:1;stroke-miterlimit:4;" d="M 1659.18565 191.608594 C 1659.828947 194.758594 1646.509663 210.710938 1664.768092 229.425 C 1648.228002 247.942187 1648.232319 250.304687 1648.232319 250.304687 C 1648.232319 250.304687 1657.462993 255.035156 1674.003084 242.030469 C 1701.276316 272.759375 1692.188117 286.825 1692.188117 286.825 " transform="matrix(0.904762,0,0,0.714286,0,0)"/>
<path style="fill-rule:nonzero;fill:rgb(93.72549%,49.019608%,0%);fill-opacity:1;stroke-width:2.25;stroke-linecap:round;stroke-linejoin:round;stroke:rgb(0%,0%,0%);stroke-opacity:1;stroke-miterlimit:4;" d="M 1690.01213 265.130469 C 1690.01213 265.130469 1687.503701 261.827344 1691.98088 249.50625 C 1696.013363 253.957812 1700.499178 254.909375 1702.46361 256.714063 C 1704.428043 258.51875 1725.022204 261.253125 1726.330387 273.875 " transform="matrix(0.904762,0,0,0.714286,0,0)"/>
<path style="fill-rule:nonzero;fill:rgb(93.72549%,49.019608%,0%);fill-opacity:1;stroke-width:2.25;stroke-linecap:round;stroke-linejoin:round;stroke:rgb(0%,0%,0%);stroke-opacity:1;stroke-miterlimit:4;" d="M 1714.224301 149.433594 C 1714.224301 148.503906 1710.075247 140.344531 1694.60588 150.54375 C 1702.899671 151.008594 1711.085526 155.367188 1714.224301 149.433594 Z M 1714.224301 149.433594 " transform="matrix(0.904762,0,0,0.714286,0,0)"/>
<path style="fill-rule:nonzero;fill:rgb(93.72549%,49.019608%,0%);fill-opacity:1;stroke-width:2.25;stroke-linecap:round;stroke-linejoin:round;stroke:rgb(0%,0%,0%);stroke-opacity:1;stroke-miterlimit:4;" d="M 1861.867599 186.752344 C 1862.627467 187.096875 1908.090049 196.13125 1923.244243 191.614062 C 1903.923725 215.244531 1865.278372 199.259375 1865.278372 199.259375 C 1884.218956 204.471094 1884.978824 204.126562 1891.040502 208.988281 C 1892.935855 213.505469 1856.185855 211.421875 1844.0625 205.165625 C 1877.781661 214.9 1878.537212 214.2 1879.677015 218.022656 C 1881.192434 223.239844 1824.362048 216.633594 1819.435855 209.682812 C 1834.590049 220.45625 1842.927015 222.539844 1851.259663 227.407031 C 1841.031661 231.579687 1822.091077 235.746875 1787.232113 213.160937 C 1833.07463 251.382031 1874.370888 248.948437 1880.8125 255.899219 C 1864.902755 277.446094 1803.146176 243.042187 1774.733141 225.667969 C 1746.315789 208.29375 1836.865337 267.717187 1845.202303 266.672656 C 1841.031661 272.578906 1811.103207 267.367188 1809.207854 264.589063 " transform="matrix(0.904762,0,0,0.714286,0,0)"/>
<path style="fill-rule:nonzero;fill:rgb(93.72549%,49.019608%,0%);fill-opacity:1;stroke-width:2.25;stroke-linecap:round;stroke-linejoin:round;stroke:rgb(0%,0%,0%);stroke-opacity:1;stroke-miterlimit:4;" d="M 1873.615337 226.7125 C 1868.309211 227.407031 1852.399465 227.407031 1850.124178 227.057031 " transform="matrix(0.904762,0,0,0.714286,0,0)"/>
<path style="fill-rule:nonzero;fill:rgb(93.72549%,49.019608%,0%);fill-opacity:1;stroke-width:2.25;stroke-linecap:round;stroke-linejoin:round;stroke:rgb(0%,0%,0%);stroke-opacity:1;stroke-miterlimit:4;" d="M 1532.261719 166.982812 C 1532.261719 166.982812 1566.835732 183.728125 1581.437294 182.546875 C 1577.573191 185.89375 1571.774877 187.271875 1571.774877 187.271875 C 1575.427426 188.65 1585.521587 193.577344 1600.766447 190.427344 C 1597.118215 193.774219 1592.390625 197.514844 1592.390625 197.514844 C 1592.390625 197.514844 1605.494038 202.048437 1620.311472 194.955469 C 1615.804071 200.074219 1613.222245 203.820312 1613.222245 203.820312 L 1623.532278 204.410937 " transform="matrix(0.904762,0,0,0.714286,0,0)"/>
</g>
</svg>
