<?xml version="1.0" encoding="UTF-8"?>
<svg xmlns="http://www.w3.org/2000/svg" xmlns:xlink="http://www.w3.org/1999/xlink" width="1900pt" height="1000pt" viewBox="0 0 1900 1000" version="1.1">
<g id="surface1">
<path style=" stroke:none;fill-rule:nonzero;fill:rgb(2.745098%,53.72549%,18.823529%);fill-opacity:1;" d="M 0 700 L 1900 700 L 1900 1000 L 0 1000 Z M 0 700 "/>
<path style=" stroke:none;fill-rule:nonzero;fill:rgb(100%,100%,100%);fill-opacity:1;" d="M 0 300 L 1900 300 L 1900 700 L 0 700 Z M 0 300 "/>
<path style=" stroke:none;fill-rule:nonzero;fill:rgb(0%,0%,0%);fill-opacity:1;" d="M 0 0 L 1900 0 L 1900 300 L 0 300 Z M 0 0 "/>
<path style=" stroke:none;fill-rule:nonzero;fill:rgb(85.490196%,7.058824%,10.196078%);fill-opacity:1;" d="M 0 350 L 1900 350 L 1900 650 L 0 650 Z M 0 350 "/>
<path style=" stroke:none;fill-rule:nonzero;fill:rgb(5.882353%,27.843137%,68.627451%);fill-opacity:1;" d="M 0 0 L 822.722656 500 L 0 1000 Z M 0 0 "/>
<path style=" stroke:none;fill-rule:nonzero;fill:rgb(98.823529%,86.666667%,3.529412%);fill-opacity:1;" d="M 122.242188 500 L 397.210938 594.046875 L 227.269531 347.832031 L 227.269531 652.167969 L 397.210938 405.953125 Z M 122.242188 500 "/>
</g>
</svg>
