<?xml version="1.0" encoding="UTF-8"?>
<svg xmlns="http://www.w3.org/2000/svg" xmlns:xlink="http://www.w3.org/1999/xlink" width="380pt" height="200pt" viewBox="0 0 1900 1000" version="1.1">
<g id="surface1">
<rect x="0" y="0" width="1900" height="1000" style="fill:rgb(100%,100%,100%);fill-opacity:1;stroke:none;"/>
<path style=" stroke:none;fill-rule:nonzero;fill:rgb(92.941176%,50.196078%,0%);fill-opacity:1;" d="M 812.546875 309.316406 C 812.546875 322.113281 814.371094 323.714844 815.28125 326.113281 C 816.195312 328.515625 817.335938 372.511719 809.808594 384.515625 C 802.285156 396.515625 787.464844 403.316406 781.539062 404.515625 C 775.609375 405.714844 756.914062 394.113281 739.585938 389.316406 C 722.257812 384.515625 723.167969 385.316406 715.875 385.316406 C 708.582031 385.316406 692.164062 390.714844 687.601562 394.113281 C 684.636719 393.714844 683.953125 392.515625 682.128906 394.113281 C 680.308594 395.714844 673.011719 402.113281 671.1875 406.113281 C 669.363281 410.113281 664.804688 425.316406 659.332031 426.914062 C 653.859375 428.515625 639.039062 441.511719 629.234375 442.117188 C 619.433594 442.714844 622.167969 441.714844 615.554688 441.316406 C 608.945312 440.917969 608.257812 434.917969 601.875 431.714844 C 595.492188 428.515625 593.667969 426.117188 593.667969 426.117188 C 593.667969 426.117188 591.84375 419.714844 589.105469 419.714844 C 586.371094 419.714844 583.636719 430.917969 583.636719 434.117188 C 583.636719 437.316406 590.929688 449.316406 594.582031 451.714844 C 598.226562 454.117188 598.226562 468.519531 596.40625 472.515625 C 594.582031 476.515625 600.050781 480.519531 600.960938 484.515625 C 601.875 488.515625 595.492188 491.714844 598.226562 492.515625 C 600.960938 493.316406 604.613281 498.113281 604.613281 502.917969 C 604.613281 507.714844 618.292969 509.316406 621.027344 514.117188 C 623.765625 518.917969 624.675781 526.917969 625.589844 531.71875 C 626.5 536.519531 629.691406 534.316406 630.144531 546.117188 C 634.476562 547.917969 641.089844 551.714844 646.5625 554.117188 C 652.035156 556.519531 651.125 562.117188 658.417969 564.519531 C 665.714844 566.917969 665.714844 564.519531 669.363281 565.316406 C 673.011719 566.117188 667.539062 566.917969 673.921875 568.515625 C 680.308594 570.117188 683.042969 567.71875 688.515625 570.117188 C 693.988281 572.515625 696.722656 578.117188 700.371094 579.71875 C 704.019531 581.316406 719.523438 585.316406 720.4375 586.117188 C 721.347656 586.917969 731.378906 590.117188 733.203125 590.117188 C 735.027344 590.117188 740.5 586.917969 740.5 586.917969 C 740.5 586.917969 746.882812 588.515625 752.355469 586.917969 C 757.828125 585.316406 761.476562 580.515625 765.125 580.515625 C 768.773438 580.515625 769.683594 582.117188 773.332031 582.117188 C 776.980469 582.117188 782.449219 580.515625 782.449219 580.515625 C 782.449219 580.515625 790.660156 578.917969 797.042969 582.117188 C 803.425781 585.316406 818.019531 600.519531 818.019531 606.917969 C 818.019531 613.316406 817.109375 616.519531 817.109375 616.519531 C 817.109375 616.519531 824.402344 615.714844 827.136719 617.316406 C 829.875 618.917969 829.644531 615.917969 849.9375 618.917969 C 848.570312 614.515625 828.960938 602.117188 847.203125 584.515625 C 865.441406 566.914062 866.582031 574.117188 870.914062 570.917969 C 875.246094 567.714844 891.890625 558.316406 920.164062 566.917969 C 947.523438 562.917969 927.457031 559.71875 942.960938 558.917969 C 945.699219 557.917969 950.945312 559.117188 956.644531 560.519531 C 958.46875 557.515625 962.34375 554.71875 968.5 555.714844 C 969.640625 552.917969 977.164062 549.117188 984.914062 548.519531 C 986.054688 543.117188 1005.664062 536.320312 1016.835938 535.714844 C 1021.394531 532.117188 1026.640625 516.117188 1051.492188 523.714844 C 1052.402344 518.519531 1056.507812 510.117188 1063.347656 508.515625 C 1064.714844 497.71875 1060.152344 475.914062 1072.46875 468.515625 C 1084.777344 458.714844 1096.410156 460.914062 1117.15625 461.316406 C 1131.292969 463.917969 1138.132812 473.316406 1142.691406 474.117188 C 1147.25 474.917969 1149.074219 474.917969 1154.546875 471.71875 C 1160.019531 468.519531 1153.636719 462.117188 1158.195312 462.117188 C 1162.753906 462.117188 1160.929688 462.917969 1168.226562 462.117188 C 1175.523438 461.320312 1174.609375 459.117188 1179.171875 458.121094 C 1186.46875 461.320312 1194.675781 458.917969 1198.324219 461.320312 C 1201.972656 463.71875 1202.425781 463.519531 1210.179688 464.519531 C 1212.914062 468.519531 1220.207031 468.519531 1220.207031 468.519531 C 1220.207031 468.519531 1214.738281 466.917969 1216.5625 464.519531 C 1218.386719 462.121094 1216.5625 454.917969 1212.914062 451.71875 C 1209.265625 448.519531 1207.441406 447.71875 1204.707031 444.519531 C 1201.972656 441.320312 1205.617188 441.316406 1201.054688 437.320312 C 1196.5 433.320312 1186.464844 429.320312 1183.730469 424.519531 C 1180.996094 419.71875 1181.90625 416.519531 1177.347656 412.519531 C 1172.789062 408.519531 1154.546875 394.921875 1153.636719 380.519531 C 1152.726562 366.121094 1154.546875 352.320312 1165.492188 347.71875 C 1165.035156 339.320312 1167.316406 338.121094 1177.347656 333.320312 C 1187.375 328.519531 1188.292969 331.71875 1194.675781 331.71875 C 1201.054688 331.71875 1204.707031 332.519531 1211.089844 328.523438 C 1217.472656 324.523438 1212.003906 315.722656 1228.417969 302.921875 C 1244.835938 290.121094 1251.21875 283.722656 1256.691406 282.921875 C 1262.164062 282.121094 1282 269.921875 1290.4375 270.921875 C 1296.363281 264.722656 1302.292969 257.320312 1309.589844 252.523438 C 1316.882812 247.722656 1325.09375 247.722656 1328.742188 243.722656 C 1332.386719 239.722656 1331.472656 232.519531 1342.421875 226.121094 C 1353.363281 219.722656 1362.484375 215.722656 1367.042969 212.519531 C 1371.601562 209.320312 1381.636719 211.71875 1385.285156 208.519531 C 1388.933594 205.320312 1388.933594 193.320312 1392.578125 190.921875 C 1396.226562 188.519531 1380.722656 196.519531 1372.515625 199.71875 C 1364.308594 202.921875 1352.453125 208.519531 1342.421875 207.71875 C 1332.386719 206.921875 1337.859375 212.519531 1332.386719 214.121094 C 1326.917969 215.71875 1317.796875 214.921875 1314.144531 218.121094 C 1310.5 221.320312 1304.117188 229.320312 1298.644531 232.519531 C 1293.171875 235.71875 1290.4375 234.921875 1284.964844 237.320312 C 1279.492188 239.71875 1274.933594 242.121094 1270.371094 243.71875 C 1265.8125 245.320312 1252.128906 244.519531 1252.128906 244.519531 C 1252.128906 244.519531 1240.273438 258.121094 1234.800781 262.921875 C 1229.332031 267.71875 1222.945312 266.921875 1217.472656 269.320312 C 1212.003906 271.71875 1165.492188 298.121094 1133.574219 302.121094 C 1101.652344 306.117188 1116.242188 299.71875 1106.210938 302.121094 C 1096.183594 304.519531 1081.585938 321.316406 1069.730469 322.121094 C 1057.875 322.921875 1054.226562 322.121094 1051.492188 322.121094 C 1048.757812 322.121094 1034.164062 330.121094 1025.042969 328.519531 C 1011.59375 332.121094 1001.5625 331.320312 997.683594 330.917969 C 993.808594 330.519531 986.742188 334.917969 976.707031 330.917969 C 968.957031 328.71875 968.957031 333.519531 953.910156 329.320312 C 938.859375 325.121094 928.371094 330.921875 921.078125 327.71875 C 913.78125 324.519531 914.691406 322.121094 909.21875 322.121094 C 903.75 322.121094 903.75 325.320312 897.363281 325.320312 C 890.980469 325.320312 890.066406 322.121094 884.597656 322.121094 C 879.125 322.121094 872.742188 325.320312 864.53125 324.519531 C 856.324219 323.71875 853.589844 320.519531 848.117188 320.519531 C 842.640625 320.515625 812.546875 309.316406 812.546875 309.316406 Z M 812.546875 309.316406 "/>
<path style=" stroke:none;fill-rule:nonzero;fill:rgb(0%,40%,31.764706%);fill-opacity:1;" d="M 905.851562 798 C 921.6875 788 935.617188 784.667969 957.152344 781.335938 C 978.6875 778 1001.488281 772.449219 1013.519531 769.667969 C 1025.550781 766.886719 972.988281 783 959.6875 786.335938 C 946.386719 789.667969 905.851562 798 905.851562 798 Z M 905.851562 798 "/>
<path style=" stroke:none;fill-rule:nonzero;fill:rgb(0%,40%,31.764706%);fill-opacity:1;" d="M 992.621094 768.554688 C 988.191406 744.667969 998.953125 719.667969 1023.652344 709.667969 C 1029.351562 726.886719 1011.621094 756.335938 992.621094 768.554688 Z M 992.621094 768.554688 "/>
<path style=" stroke:none;fill-rule:nonzero;fill:rgb(0%,40%,31.764706%);fill-opacity:1;" d="M 1034.328125 756.125 C 1021.121094 736.335938 1043.472656 710.808594 1059.847656 698.296875 C 1067.355469 710.222656 1054.054688 745.777344 1034.328125 756.125 Z M 1034.328125 756.125 "/>
<path style=" stroke:none;fill-rule:nonzero;fill:rgb(0%,40%,31.764706%);fill-opacity:1;" d="M 1073.054688 740.777344 C 1058.933594 723.808594 1075.585938 694.113281 1093.320312 682.445312 C 1100.285156 699.113281 1093.320312 729.113281 1073.054688 740.777344 Z M 1073.054688 740.777344 "/>
<path style=" stroke:none;fill-rule:nonzero;fill:rgb(0%,40%,31.764706%);fill-opacity:1;" d="M 1111.792969 719.558594 C 1099.019531 703.554688 1107.886719 678.554688 1126.253906 662.441406 C 1139.554688 675.777344 1128.15625 704.667969 1111.792969 719.558594 Z M 1111.792969 719.558594 "/>
<path style=" stroke:none;fill-rule:nonzero;fill:rgb(0%,40%,31.764706%);fill-opacity:1;" d="M 1142.722656 698 C 1131.957031 683 1145.253906 646.886719 1162.355469 636.886719 C 1169.957031 650.222656 1164.253906 688 1142.722656 698 Z M 1142.722656 698 "/>
<path style=" stroke:none;fill-rule:nonzero;fill:rgb(0%,40%,31.764706%);fill-opacity:1;" d="M 1167.421875 692.445312 C 1164.253906 670.777344 1207.324219 646.886719 1225.054688 647.445312 C 1223.15625 665.222656 1204.785156 684.667969 1167.421875 692.445312 Z M 1167.421875 692.445312 "/>
<path style=" stroke:none;fill-rule:nonzero;fill:rgb(0%,40%,31.764706%);fill-opacity:1;" d="M 1143.355469 716.886719 C 1163.621094 698.554688 1202.886719 698.554688 1216.820312 702.445312 C 1213.019531 713 1166.789062 736.332031 1143.355469 716.886719 Z M 1143.355469 716.886719 "/>
<path style=" stroke:none;fill-rule:nonzero;fill:rgb(0%,40%,31.764706%);fill-opacity:1;" d="M 1115.484375 735.222656 C 1143.984375 728.554688 1162.355469 723 1179.457031 738.554688 C 1167.421875 751.886719 1121.1875 748 1115.484375 735.222656 Z M 1115.484375 735.222656 "/>
<path style=" stroke:none;fill-rule:nonzero;fill:rgb(0%,40%,31.764706%);fill-opacity:1;" d="M 1074.957031 751.335938 C 1102.1875 738.554688 1135.121094 757.445312 1140.1875 768.554688 C 1109.785156 779.667969 1074.324219 754.113281 1074.957031 751.335938 Z M 1074.957031 751.335938 "/>
<path style=" stroke:none;fill-rule:nonzero;fill:rgb(0%,40%,31.764706%);fill-opacity:1;" d="M 1037.585938 769.667969 C 1062.285156 761.335938 1090.785156 772.449219 1102.1875 784.667969 C 1088.886719 790.222656 1054.050781 796.335938 1037.585938 769.667969 Z M 1037.585938 769.667969 "/>
<path style=" stroke:none;fill-rule:nonzero;fill:rgb(0%,40%,31.764706%);fill-opacity:1;" d="M 1003.390625 779.113281 C 1031.890625 776.335938 1059.238281 795.253906 1065.195312 806.070312 C 1028.722656 809.113281 1014.789062 799.667969 1003.390625 779.113281 Z M 1003.390625 779.113281 "/>
<path style=" stroke:none;fill-rule:nonzero;fill:rgb(0%,40%,31.764706%);fill-opacity:1;" d="M 994.210938 798 C 978.375 788 964.445312 784.667969 942.910156 781.335938 C 921.375 778 898.574219 772.449219 886.542969 769.667969 C 874.507812 766.886719 927.074219 783 940.375 786.335938 C 953.675781 789.667969 994.210938 798 994.210938 798 Z M 994.210938 798 "/>
<path style=" stroke:none;fill-rule:nonzero;fill:rgb(0%,40%,31.764706%);fill-opacity:1;" d="M 907.441406 768.554688 C 911.871094 744.667969 901.109375 719.667969 876.40625 709.667969 C 870.707031 726.886719 888.441406 756.335938 907.441406 768.554688 Z M 907.441406 768.554688 "/>
<path style=" stroke:none;fill-rule:nonzero;fill:rgb(0%,40%,31.764706%);fill-opacity:1;" d="M 865.734375 756.125 C 878.941406 736.335938 856.585938 710.808594 840.210938 698.296875 C 832.707031 710.222656 846.003906 745.777344 865.734375 756.125 Z M 865.734375 756.125 "/>
<path style=" stroke:none;fill-rule:nonzero;fill:rgb(0%,40%,31.764706%);fill-opacity:1;" d="M 827.003906 740.777344 C 841.125 723.808594 824.472656 694.113281 806.738281 682.445312 C 799.773438 699.113281 806.738281 729.113281 827.003906 740.777344 Z M 827.003906 740.777344 "/>
<path style=" stroke:none;fill-rule:nonzero;fill:rgb(0%,40%,31.764706%);fill-opacity:1;" d="M 788.265625 719.558594 C 801.039062 703.554688 792.171875 678.554688 773.804688 662.441406 C 760.503906 675.777344 771.90625 704.667969 788.265625 719.558594 Z M 788.265625 719.558594 "/>
<path style=" stroke:none;fill-rule:nonzero;fill:rgb(0%,40%,31.764706%);fill-opacity:1;" d="M 757.339844 698 C 768.105469 683 754.804688 646.886719 737.707031 636.886719 C 730.105469 650.222656 735.804688 688 757.339844 698 Z M 757.339844 698 "/>
<path style=" stroke:none;fill-rule:nonzero;fill:rgb(0%,40%,31.764706%);fill-opacity:1;" d="M 732.640625 692.445312 C 735.804688 670.777344 692.734375 646.886719 675.003906 647.445312 C 676.90625 665.222656 695.273438 684.667969 732.640625 692.445312 Z M 732.640625 692.445312 "/>
<path style=" stroke:none;fill-rule:nonzero;fill:rgb(0%,40%,31.764706%);fill-opacity:1;" d="M 756.707031 716.886719 C 736.441406 698.554688 697.175781 698.554688 683.238281 702.445312 C 687.039062 713 733.269531 736.332031 756.707031 716.886719 Z M 756.707031 716.886719 "/>
<path style=" stroke:none;fill-rule:nonzero;fill:rgb(0%,40%,31.764706%);fill-opacity:1;" d="M 784.574219 735.222656 C 756.074219 728.554688 737.707031 723 720.605469 738.554688 C 732.640625 751.886719 778.875 748 784.574219 735.222656 Z M 784.574219 735.222656 "/>
<path style=" stroke:none;fill-rule:nonzero;fill:rgb(0%,40%,31.764706%);fill-opacity:1;" d="M 825.105469 751.335938 C 797.875 738.554688 764.941406 757.445312 759.875 768.554688 C 790.273438 779.667969 825.734375 754.113281 825.105469 751.335938 Z M 825.105469 751.335938 "/>
<path style=" stroke:none;fill-rule:nonzero;fill:rgb(0%,40%,31.764706%);fill-opacity:1;" d="M 862.472656 769.667969 C 837.773438 761.335938 809.273438 772.449219 797.875 784.667969 C 811.175781 790.222656 846.007812 796.335938 862.472656 769.667969 Z M 862.472656 769.667969 "/>
<path style=" stroke:none;fill-rule:nonzero;fill:rgb(0%,40%,31.764706%);fill-opacity:1;" d="M 896.671875 779.113281 C 868.171875 776.335938 840.824219 795.253906 834.867188 806.070312 C 871.339844 809.113281 885.273438 799.667969 896.671875 779.113281 Z M 896.671875 779.113281 "/>
</g>
</svg>
