<?xml version="1.0" encoding="UTF-8"?>
<svg xmlns="http://www.w3.org/2000/svg" xmlns:xlink="http://www.w3.org/1999/xlink" width="1900pt" height="1000pt" viewBox="0 0 1900 1000" version="1.1">
<g id="surface1">
<rect x="0" y="0" width="1900" height="1000" style="fill:rgb(0%,21.960784%,65.882353%);fill-opacity:1;stroke:none;"/>
<path style=" stroke:none;fill-rule:nonzero;fill:rgb(80.784314%,6.666667%,14.901961%);fill-opacity:1;" d="M 0 500 L 1900 500 L 1900 1000 L 0 1000 Z M 0 500 "/>
<path style=" stroke:none;fill-rule:nonzero;fill:rgb(100%,100%,100%);fill-opacity:1;" d="M 822.722656 500 L 0 1000 L 0 0 "/>
<path style=" stroke:none;fill-rule:nonzero;fill:rgb(98.823529%,81.960784%,8.627451%);fill-opacity:1;" d="M 390.554688 500 C 390.554688 555.226562 348.023438 600 295.554688 600 C 243.089844 600 200.554688 555.226562 200.554688 500 C 200.554688 444.773438 243.089844 400 295.554688 400 C 348.023438 400 390.554688 444.773438 390.554688 500 Z M 390.554688 500 "/>
<path style=" stroke:none;fill-rule:nonzero;fill:rgb(98.823529%,81.960784%,8.627451%);fill-opacity:1;" d="M 95 500 L 107.335938 512.984375 L 295.554688 500 L 107.335938 487.015625 Z M 95 500 "/>
<path style=" stroke:none;fill-rule:nonzero;fill:rgb(98.823529%,81.960784%,8.627451%);fill-opacity:1;" d="M 116.109375 524.867188 L 126.179688 535.464844 L 295.554688 500 Z M 116.109375 524.867188 "/>
<path style=" stroke:none;fill-rule:nonzero;fill:rgb(98.823529%,81.960784%,8.627451%);fill-opacity:1;" d="M 116.109375 475.132812 L 126.179688 464.535156 L 295.554688 500 Z M 116.109375 475.132812 "/>
<path style=" stroke:none;fill-rule:nonzero;fill:rgb(98.823529%,81.960784%,8.627451%);fill-opacity:1;" d="M 153.742188 350.722656 L 153.742188 369.085938 L 295.554688 500 L 171.1875 350.722656 Z M 153.742188 350.722656 "/>
<path style=" stroke:none;fill-rule:nonzero;fill:rgb(98.823529%,81.960784%,8.627451%);fill-opacity:1;" d="M 151.964844 384.019531 L 151.964844 399.003906 L 295.554688 500 Z M 151.964844 384.019531 "/>
<path style=" stroke:none;fill-rule:nonzero;fill:rgb(98.823529%,81.960784%,8.627451%);fill-opacity:1;" d="M 185.375 348.851562 L 199.609375 348.851562 L 295.554688 500 Z M 185.375 348.851562 "/>
<path style=" stroke:none;fill-rule:nonzero;fill:rgb(98.823529%,81.960784%,8.627451%);fill-opacity:1;" d="M 295.554688 288.890625 L 283.21875 301.875 L 295.554688 500 L 307.890625 301.875 Z M 295.554688 288.890625 "/>
<path style=" stroke:none;fill-rule:nonzero;fill:rgb(98.823529%,81.960784%,8.627451%);fill-opacity:1;" d="M 271.929688 311.109375 L 261.863281 321.707031 L 295.554688 500 Z M 271.929688 311.109375 "/>
<path style=" stroke:none;fill-rule:nonzero;fill:rgb(98.823529%,81.960784%,8.627451%);fill-opacity:1;" d="M 319.179688 311.109375 L 329.246094 321.707031 L 295.554688 500 Z M 319.179688 311.109375 "/>
<path style=" stroke:none;fill-rule:nonzero;fill:rgb(98.823529%,81.960784%,8.627451%);fill-opacity:1;" d="M 437.371094 350.722656 L 419.921875 350.722656 L 295.554688 500 L 437.371094 369.085938 Z M 437.371094 350.722656 "/>
<path style=" stroke:none;fill-rule:nonzero;fill:rgb(98.823529%,81.960784%,8.627451%);fill-opacity:1;" d="M 405.738281 348.851562 L 391.5 348.851562 L 295.554688 500 Z M 405.738281 348.851562 "/>
<path style=" stroke:none;fill-rule:nonzero;fill:rgb(98.823529%,81.960784%,8.627451%);fill-opacity:1;" d="M 439.148438 384.019531 L 439.148438 399.003906 L 295.554688 500 Z M 439.148438 384.019531 "/>
<path style=" stroke:none;fill-rule:nonzero;fill:rgb(98.823529%,81.960784%,8.627451%);fill-opacity:1;" d="M 496.109375 500 L 483.773438 487.015625 L 295.554688 500 L 483.773438 512.984375 Z M 496.109375 500 "/>
<path style=" stroke:none;fill-rule:nonzero;fill:rgb(98.823529%,81.960784%,8.627451%);fill-opacity:1;" d="M 475 475.132812 L 464.933594 464.535156 L 295.554688 500 Z M 475 475.132812 "/>
<path style=" stroke:none;fill-rule:nonzero;fill:rgb(98.823529%,81.960784%,8.627451%);fill-opacity:1;" d="M 475 524.867188 L 464.933594 535.464844 L 295.554688 500 Z M 475 524.867188 "/>
<path style=" stroke:none;fill-rule:nonzero;fill:rgb(98.823529%,81.960784%,8.627451%);fill-opacity:1;" d="M 437.371094 649.277344 L 437.371094 630.914062 L 295.554688 500 L 419.921875 649.277344 Z M 437.371094 649.277344 "/>
<path style=" stroke:none;fill-rule:nonzero;fill:rgb(98.823529%,81.960784%,8.627451%);fill-opacity:1;" d="M 439.148438 615.980469 L 439.148438 600.996094 L 295.554688 500 Z M 439.148438 615.980469 "/>
<path style=" stroke:none;fill-rule:nonzero;fill:rgb(98.823529%,81.960784%,8.627451%);fill-opacity:1;" d="M 405.738281 651.148438 L 391.5 651.148438 L 295.554688 500 Z M 405.738281 651.148438 "/>
<path style=" stroke:none;fill-rule:nonzero;fill:rgb(98.823529%,81.960784%,8.627451%);fill-opacity:1;" d="M 295.554688 711.109375 L 307.890625 698.125 L 295.554688 500 L 283.21875 698.125 Z M 295.554688 711.109375 "/>
<path style=" stroke:none;fill-rule:nonzero;fill:rgb(98.823529%,81.960784%,8.627451%);fill-opacity:1;" d="M 319.179688 688.890625 L 329.246094 678.292969 L 295.554688 500 Z M 319.179688 688.890625 "/>
<path style=" stroke:none;fill-rule:nonzero;fill:rgb(98.823529%,81.960784%,8.627451%);fill-opacity:1;" d="M 271.929688 688.890625 L 261.863281 678.292969 L 295.554688 500 Z M 271.929688 688.890625 "/>
<path style=" stroke:none;fill-rule:nonzero;fill:rgb(98.823529%,81.960784%,8.627451%);fill-opacity:1;" d="M 153.742188 649.277344 L 171.1875 649.277344 L 295.554688 500 L 153.742188 630.914062 Z M 153.742188 649.277344 "/>
<path style=" stroke:none;fill-rule:nonzero;fill:rgb(98.823529%,81.960784%,8.627451%);fill-opacity:1;" d="M 185.375 651.148438 L 199.609375 651.148438 L 295.554688 500 Z M 185.375 651.148438 "/>
<path style=" stroke:none;fill-rule:nonzero;fill:rgb(98.823529%,81.960784%,8.627451%);fill-opacity:1;" d="M 151.964844 615.980469 L 151.964844 600.996094 L 295.554688 500 Z M 151.964844 615.980469 "/>
<path style=" stroke:none;fill-rule:nonzero;fill:rgb(98.823529%,81.960784%,8.627451%);fill-opacity:1;" d="M 727.722656 500 L 692.027344 513.0625 L 691.253906 552.835938 L 668.421875 521.132812 L 632.25 532.65625 L 653.835938 500 Z M 727.722656 500 "/>
<path style=" stroke:none;fill-rule:nonzero;fill:rgb(98.823529%,81.960784%,8.627451%);fill-opacity:1;" d="M 727.722656 500 L 692.027344 486.9375 L 691.253906 447.164062 L 668.421875 478.867188 L 632.25 467.34375 L 653.835938 500 Z M 727.722656 500 "/>
<path style=" stroke:none;fill-rule:nonzero;fill:rgb(98.823529%,81.960784%,8.627451%);fill-opacity:1;" d="M 47.5 913.398438 L 54.601562 874.324219 L 22.265625 853.734375 L 59.761719 848.769531 L 68.371094 810.035156 L 84.445312 846.039062 Z M 47.5 913.398438 "/>
<path style=" stroke:none;fill-rule:nonzero;fill:rgb(98.823529%,81.960784%,8.627451%);fill-opacity:1;" d="M 47.5 913.398438 L 76.09375 887.386719 L 109.203125 906.570312 L 94.539062 869.90625 L 122.105469 842.6875 L 84.445312 846.039062 Z M 47.5 913.398438 "/>
<path style=" stroke:none;fill-rule:nonzero;fill:rgb(98.823529%,81.960784%,8.627451%);fill-opacity:1;" d="M 47.5 86.601562 L 76.09375 112.613281 L 109.203125 93.429688 L 94.539062 130.09375 L 122.105469 157.3125 L 84.445312 153.960938 Z M 47.5 86.601562 "/>
<path style=" stroke:none;fill-rule:nonzero;fill:rgb(98.823529%,81.960784%,8.627451%);fill-opacity:1;" d="M 47.5 86.601562 L 54.601562 125.675781 L 22.265625 146.265625 L 59.761719 151.230469 L 68.371094 189.964844 L 84.445312 153.960938 Z M 47.5 86.601562 "/>
</g>
</svg>
