<?xml version="1.0" encoding="UTF-8"?>
<svg xmlns="http://www.w3.org/2000/svg" xmlns:xlink="http://www.w3.org/1999/xlink" width="380pt" height="200pt" viewBox="0 0 1900 1000" version="1.1">
<g id="surface1">
<path style=" stroke:none;fill-rule:nonzero;fill:rgb(0%,47.843137%,36.862745%);fill-opacity:1;" d="M 0 0 L 633.332031 0 L 633.332031 1000 L 0 1000 Z M 0 0 "/>
<path style=" stroke:none;fill-rule:nonzero;fill:rgb(80.784314%,6.666667%,14.901961%);fill-opacity:1;" d="M 633.332031 0 L 1266.667969 0 L 1266.667969 1000 L 633.332031 1000 Z M 633.332031 0 "/>
<path style=" stroke:none;fill-rule:nonzero;fill:rgb(98.823529%,81.960784%,8.627451%);fill-opacity:1;" d="M 1266.667969 0 L 1900 0 L 1900 1000 L 1266.667969 1000 Z M 1266.667969 0 "/>
<path style=" stroke:none;fill-rule:nonzero;fill:rgb(98.823529%,81.960784%,8.627451%);fill-opacity:1;" d="M 950 366.667969 L 897.808594 493.472656 L 978.121094 514.074219 Z M 950 366.667969 "/>
<path style=" stroke:none;fill-rule:nonzero;fill:rgb(98.823529%,81.960784%,8.627451%);fill-opacity:1;" d="M 950 366.667969 L 1002.191406 493.472656 L 921.878906 514.074219 Z M 950 366.667969 "/>
<path style=" stroke:none;fill-rule:nonzero;fill:rgb(98.823529%,81.960784%,8.627451%);fill-opacity:1;" d="M 1110.621094 458.796875 L 941.734375 458.796875 L 941.734375 525.464844 Z M 1110.621094 458.796875 "/>
<path style=" stroke:none;fill-rule:nonzero;fill:rgb(98.823529%,81.960784%,8.627451%);fill-opacity:1;" d="M 1110.621094 458.796875 L 973.988281 537.167969 L 924.355469 483.234375 Z M 1110.621094 458.796875 "/>
<path style=" stroke:none;fill-rule:nonzero;fill:rgb(98.823529%,81.960784%,8.627451%);fill-opacity:1;" d="M 1049.269531 607.867188 L 997.082031 481.0625 L 916.769531 501.664062 Z M 1049.269531 607.867188 "/>
<path style=" stroke:none;fill-rule:nonzero;fill:rgb(98.823529%,81.960784%,8.627451%);fill-opacity:1;" d="M 1049.269531 607.867188 L 912.636719 529.496094 L 962.273438 475.5625 Z M 1049.269531 607.867188 "/>
<path style=" stroke:none;fill-rule:nonzero;fill:rgb(98.823529%,81.960784%,8.627451%);fill-opacity:1;" d="M 850.730469 607.867188 L 987.363281 529.496094 L 937.726562 475.5625 Z M 850.730469 607.867188 "/>
<path style=" stroke:none;fill-rule:nonzero;fill:rgb(98.823529%,81.960784%,8.627451%);fill-opacity:1;" d="M 850.730469 607.867188 L 902.917969 481.0625 L 983.230469 501.664062 Z M 850.730469 607.867188 "/>
<path style=" stroke:none;fill-rule:nonzero;fill:rgb(98.823529%,81.960784%,8.627451%);fill-opacity:1;" d="M 789.378906 458.796875 L 926.011719 537.167969 L 975.644531 483.234375 Z M 789.378906 458.796875 "/>
<path style=" stroke:none;fill-rule:nonzero;fill:rgb(98.823529%,81.960784%,8.627451%);fill-opacity:1;" d="M 789.378906 458.796875 L 958.265625 458.796875 L 958.265625 525.464844 Z M 789.378906 458.796875 "/>
</g>
</svg>
