<?xml version="1.0" encoding="UTF-8"?>
<svg xmlns="http://www.w3.org/2000/svg" xmlns:xlink="http://www.w3.org/1999/xlink" width="1900pt" height="1000pt" viewBox="0 0 1900 1000" version="1.1">
<g id="surface1">
<path style=" stroke:none;fill-rule:nonzero;fill:rgb(92.941176%,16.078431%,22.352941%);fill-opacity:1;" d="M 0 0 L 1900 0 L 1900 500 L 0 500 Z M 0 0 "/>
<path style=" stroke:none;fill-rule:nonzero;fill:rgb(100%,100%,100%);fill-opacity:1;" d="M 0 500 L 1900 500 L 1900 1000 L 0 1000 Z M 0 500 "/>
<path style=" stroke:none;fill-rule:nonzero;fill:rgb(100%,100%,100%);fill-opacity:1;" d="M 651.664062 250 C 651.664062 353.839844 545.035156 438.019531 413.503906 438.019531 C 281.972656 438.019531 175.34375 353.839844 175.34375 250 C 175.34375 146.160156 281.972656 61.980469 413.503906 61.980469 C 545.035156 61.980469 651.664062 146.160156 651.664062 250 Z M 651.664062 250 "/>
<path style=" stroke:none;fill-rule:nonzero;fill:rgb(92.941176%,16.078431%,22.352941%);fill-opacity:1;" d="M 726.5 250 C 726.5 348.132812 625.734375 427.6875 501.433594 427.6875 C 377.132812 427.6875 276.363281 348.132812 276.363281 250 C 276.363281 151.867188 377.132812 72.3125 501.433594 72.3125 C 625.734375 72.3125 726.5 151.867188 726.5 250 Z M 726.5 250 "/>
<path style=" stroke:none;fill-rule:nonzero;fill:rgb(100%,100%,100%);fill-opacity:1;" d="M 442.980469 254.535156 L 410.625 234.941406 L 378.28125 254.546875 L 390.734375 222.949219 L 358.277344 203.472656 L 398.328125 203.539062 L 410.613281 171.902344 L 422.914062 203.539062 L 462.960938 203.460938 L 430.515625 222.945312 Z M 442.980469 254.535156 "/>
<path style=" stroke:none;fill-rule:nonzero;fill:rgb(100%,100%,100%);fill-opacity:1;" d="M 696.835938 254.535156 L 664.480469 234.941406 L 632.136719 254.546875 L 644.589844 222.949219 L 612.132812 203.472656 L 652.183594 203.539062 L 664.46875 171.902344 L 676.769531 203.539062 L 716.816406 203.460938 L 684.371094 222.945312 Z M 696.835938 254.535156 "/>
<path style=" stroke:none;fill-rule:nonzero;fill:rgb(100%,100%,100%);fill-opacity:1;" d="M 570.035156 180.15625 L 537.683594 160.5625 L 505.339844 180.167969 L 517.792969 148.570312 L 485.335938 129.09375 L 525.382812 129.164062 L 537.671875 97.523438 L 549.96875 129.160156 L 590.019531 129.082031 L 557.570312 148.566406 Z M 570.035156 180.15625 "/>
<path style=" stroke:none;fill-rule:nonzero;fill:rgb(100%,100%,100%);fill-opacity:1;" d="M 490.480469 373.546875 L 458.125 353.953125 L 425.78125 373.554688 L 438.234375 341.960938 L 405.777344 322.484375 L 445.828125 322.550781 L 458.113281 290.910156 L 470.414062 322.546875 L 510.460938 322.46875 L 478.011719 341.953125 Z M 490.480469 373.546875 "/>
<path style=" stroke:none;fill-rule:nonzero;fill:rgb(100%,100%,100%);fill-opacity:1;" d="M 649.335938 373.546875 L 616.980469 353.953125 L 584.636719 373.554688 L 597.089844 341.960938 L 564.632812 322.484375 L 604.683594 322.550781 L 616.96875 290.910156 L 629.269531 322.546875 L 669.316406 322.46875 L 636.871094 341.953125 Z M 649.335938 373.546875 "/>
</g>
</svg>
