<?xml version="1.0" encoding="UTF-8"?>
<svg xmlns="http://www.w3.org/2000/svg" xmlns:xlink="http://www.w3.org/1999/xlink" width="1900pt" height="1000pt" viewBox="0 0 1900 1000" version="1.1">
<defs>
<clipPath id="clip1">
  <path d="M 892 433 L 928 433 L 928 540 L 892 540 Z M 892 433 "/>
</clipPath>
<clipPath id="clip2">
  <path d="M 1007.472656 446.71875 C 1006.878906 446.75 1006.28125 446.765625 1005.683594 446.765625 C 992.582031 446.765625 962.152344 441.457031 950.425781 433.503906 C 938.140625 440.851562 907.210938 446.765625 894.324219 446.765625 C 893.71875 446.765625 893.125 446.707031 892.53125 446.621094 C 892.5 448.9375 892.652344 451.339844 892.835938 453.523438 C 893.519531 461.691406 895.332031 469.890625 898.085938 477.777344 C 906.761719 502.597656 924.511719 523.695312 949.960938 539.699219 C 975.429688 523.683594 993.199219 502.566406 1001.894531 477.722656 C 1004.652344 469.839844 1006.472656 461.640625 1007.160156 453.476562 C 1007.339844 451.335938 1007.492188 448.988281 1007.472656 446.71875 Z M 1007.472656 446.71875 "/>
</clipPath>
<clipPath id="clip3">
  <path d="M 971 433 L 1008 433 L 1008 540 L 971 540 Z M 971 433 "/>
</clipPath>
<clipPath id="clip4">
  <path d="M 1007.472656 446.71875 C 1006.878906 446.75 1006.28125 446.765625 1005.683594 446.765625 C 992.582031 446.765625 962.152344 441.457031 950.425781 433.503906 C 938.140625 440.851562 907.210938 446.765625 894.324219 446.765625 C 893.71875 446.765625 893.125 446.707031 892.53125 446.621094 C 892.5 448.9375 892.652344 451.339844 892.835938 453.523438 C 893.519531 461.691406 895.332031 469.890625 898.085938 477.777344 C 906.761719 502.597656 924.511719 523.695312 949.960938 539.699219 C 975.429688 523.683594 993.199219 502.566406 1001.894531 477.722656 C 1004.652344 469.839844 1006.472656 461.640625 1007.160156 453.476562 C 1007.339844 451.335938 1007.492188 448.988281 1007.472656 446.71875 Z M 1007.472656 446.71875 "/>
</clipPath>
</defs>
<g id="surface1">
<path style=" stroke:none;fill-rule:evenodd;fill:rgb(0%,0%,0%);fill-opacity:1;" d="M 0 500 L 1900 500 L 1900 1000 L 0 1000 Z M 0 500 "/>
<path style=" stroke:none;fill-rule:evenodd;fill:rgb(80.784314%,6.666667%,14.901961%);fill-opacity:1;" d="M 0 0 L 1900 0 L 1900 500 L 0 500 Z M 0 0 "/>
<path style=" stroke:none;fill-rule:evenodd;fill:rgb(100%,100%,100%);fill-opacity:1;" d="M 0 333.332031 L 1900 333.332031 L 1900 666.667969 L 0 666.667969 Z M 0 333.332031 "/>
<path style="fill-rule:evenodd;fill:rgb(100%,100%,100%);fill-opacity:1;stroke-width:2.3777;stroke-linecap:round;stroke-linejoin:round;stroke:rgb(75.294118%,57.647059%,0%);stroke-opacity:1;stroke-miterlimit:4;" d="M 450 393.810937 C 469.942845 393.810937 489.023438 392.23125 500.212377 389.076562 C 504.949219 388.216406 504.949219 385.778906 504.949219 382.619531 C 509.684211 381.042188 507.243627 375.45 510.542763 375.45 C 507.243627 376.3125 506.527549 369.855469 502.510485 370.717969 C 502.510485 365.121094 496.91509 364.40625 492.180099 365.98125 C 482.710115 369.138281 465.923931 369.855469 450 369.855469 C 434.076069 369.138281 417.43236 369.138281 407.819901 365.98125 C 403.08676 364.40625 397.493215 365.121094 397.493215 370.717969 C 393.476151 369.855469 392.758224 376.3125 389.459087 375.45 C 392.758224 375.45 390.31949 381.042188 395.054482 382.619531 C 395.054482 385.778906 395.054482 388.216406 399.931949 389.076562 C 410.976562 392.23125 430.059005 393.810937 450 393.810937 Z M 450 393.810937 " transform="matrix(2.111111,0,0,1.666667,0,0)"/>
<path style="fill-rule:evenodd;fill:rgb(100%,100%,100%);fill-opacity:1;stroke-width:1.2703;stroke-linecap:round;stroke-linejoin:round;stroke:rgb(75.294118%,57.647059%,0%);stroke-opacity:1;stroke-miterlimit:4;" d="M 450.810444 302.4 L 519.29852 365.978906 L 514.422903 250.509375 C 513.704975 233.008594 498.498972 237.023438 487.450658 243.3375 C 476.259868 250.509375 463.492599 250.509375 450.005551 245.772656 C 436.520354 250.509375 423.751234 250.509375 412.560444 243.3375 C 401.515831 237.023438 386.309827 233.008594 385.5919 250.509375 L 380.712582 365.978906 Z M 450.810444 302.4 " transform="matrix(2.111111,0,0,1.666667,0,0)"/>
<path style=" stroke:none;fill-rule:evenodd;fill:rgb(75.294118%,57.647059%,0%);fill-opacity:1;" d="M 992.09375 442.867188 L 996.945312 535.628906 L 1010.570312 546.148438 L 1005.421875 444.0625 C 1002.09375 444.0625 993.613281 444.0625 992.09375 442.867188 Z M 992.09375 442.867188 "/>
<path style="fill-rule:evenodd;fill:rgb(75.294118%,57.647059%,0%);fill-opacity:1;stroke-width:1.0739;stroke-linecap:square;stroke-linejoin:miter;stroke:rgb(75.294118%,57.647059%,0%);stroke-opacity:1;stroke-miterlimit:4;" d="M 453.160362 315.060937 L 462.772821 358.814062 L 459.614309 361.971094 L 456.315173 359.53125 L 450.864104 320.5125 L 453.160362 359.53125 L 450.00185 363.546094 L 446.847039 359.53125 L 449.143298 320.5125 L 443.692229 359.53125 L 440.389391 361.971094 L 437.234581 358.814062 L 446.847039 315.060937 Z M 453.160362 315.060937 " transform="matrix(2.111111,0,0,1.666667,0,0)"/>
<path style=" stroke:none;fill-rule:evenodd;fill:rgb(75.294118%,57.647059%,0%);fill-opacity:1;" d="M 830.660156 410.816406 L 820.664062 598.015625 L 803.703125 609.964844 L 814 417.511719 C 818.847656 414.882812 827.328125 410.816406 830.660156 410.816406 Z M 830.660156 410.816406 "/>
<path style=" stroke:none;fill-rule:evenodd;fill:rgb(75.294118%,57.647059%,0%);fill-opacity:1;" d="M 850.96875 424.214844 L 842.488281 580.808594 L 825.53125 594.507812 L 835.828125 413.691406 C 839.160156 416.320312 849.15625 422.773438 850.96875 424.210938 Z M 850.96875 424.214844 "/>
<path style=" stroke:none;fill-rule:evenodd;fill:rgb(75.294118%,57.647059%,0%);fill-opacity:1;" d="M 869.441406 436.167969 L 862.78125 566.769531 L 849.152344 577.285156 L 857.632812 428.277344 C 860.957031 430.90625 867.621094 434.734375 869.441406 436.164062 Z M 869.441406 436.167969 "/>
<path style=" stroke:none;fill-rule:evenodd;fill:rgb(75.294118%,57.647059%,0%);fill-opacity:1;" d="M 889.433594 442.867188 L 882.769531 554.179688 L 869.441406 562.710938 L 876.105469 438.804688 C 879.4375 439.996094 886.101562 442.867188 889.433594 442.867188 Z M 889.433594 442.867188 "/>
<path style=" stroke:none;fill-rule:evenodd;fill:rgb(75.294118%,57.647059%,0%);fill-opacity:1;" d="M 907.90625 442.867188 L 903.054688 535.628906 L 889.429688 546.148438 L 894.578125 444.0625 C 897.90625 444.0625 906.386719 444.0625 907.90625 442.867188 Z M 907.90625 442.867188 "/>
<path style=" stroke:none;fill-rule:evenodd;fill:rgb(75.294118%,57.647059%,0%);fill-opacity:1;" d="M 1069.339844 410.816406 L 1079.335938 598.015625 L 1096.296875 609.964844 L 1086 417.511719 C 1081.152344 414.882812 1072.671875 410.816406 1069.339844 410.816406 Z M 1069.339844 410.816406 "/>
<path style=" stroke:none;fill-rule:evenodd;fill:rgb(75.294118%,57.647059%,0%);fill-opacity:1;" d="M 1049.03125 424.214844 L 1057.511719 580.808594 L 1074.46875 594.507812 L 1064.171875 413.691406 C 1060.839844 416.320312 1050.84375 422.773438 1049.03125 424.210938 Z M 1049.03125 424.214844 "/>
<path style=" stroke:none;fill-rule:evenodd;fill:rgb(75.294118%,57.647059%,0%);fill-opacity:1;" d="M 1030.558594 436.167969 L 1037.21875 566.769531 L 1050.847656 577.285156 L 1042.367188 428.277344 C 1039.042969 430.90625 1032.378906 434.734375 1030.558594 436.164062 Z M 1030.558594 436.167969 "/>
<path style=" stroke:none;fill-rule:evenodd;fill:rgb(75.294118%,57.647059%,0%);fill-opacity:1;" d="M 1010.566406 442.867188 L 1017.230469 554.179688 L 1030.558594 562.710938 L 1023.894531 438.804688 C 1020.5625 439.996094 1013.898438 442.867188 1010.566406 442.867188 Z M 1010.566406 442.867188 "/>
<path style="fill-rule:evenodd;fill:rgb(100%,100%,100%);fill-opacity:1;stroke-width:1.1888;stroke-linecap:round;stroke-linejoin:round;stroke:rgb(75.294118%,57.647059%,0%);stroke-opacity:1;stroke-miterlimit:4;" d="M 428.480674 295.839844 L 409.400082 363.546094 L 435.6544 367.563281 L 446.843339 316.638281 Z M 428.480674 295.839844 " transform="matrix(2.111111,0,0,1.666667,0,0)"/>
<path style="fill-rule:evenodd;fill:rgb(100%,100%,100%);fill-opacity:1;stroke-width:1.1888;stroke-linecap:round;stroke-linejoin:round;stroke:rgb(75.294118%,57.647059%,0%);stroke-opacity:1;stroke-miterlimit:4;" d="M 471.519326 295.839844 L 490.599918 363.546094 L 464.347451 367.563281 L 453.156661 316.638281 Z M 471.519326 295.839844 " transform="matrix(2.111111,0,0,1.666667,0,0)"/>
<path style="fill:none;stroke-width:1.2705;stroke-linecap:round;stroke-linejoin:round;stroke:rgb(75.294118%,57.647059%,0%);stroke-opacity:1;stroke-miterlimit:4;" d="M 422.169202 318.939844 L 424.465461 324.532031 L 436.870066 312.684375 " transform="matrix(-2.111111,0,0,1.666667,1900,0)"/>
<path style="fill:none;stroke-width:1.2706;stroke-linecap:round;stroke-linejoin:round;stroke:rgb(75.294118%,57.647059%,0%);stroke-opacity:1;stroke-miterlimit:4;" d="M 444.089137 332.360156 L 435.372237 345.6 M 438.09037 358.816406 L 435.301924 345.61875 L 432.865041 332.196094 L 427.025403 340.10625 L 424.462697 330.986719 L 416.287944 339.370313 L 420.445633 354.621094 L 426.183503 345.1875 L 429.340164 354.799219 L 435.229762 345.6375 " transform="matrix(-2.111111,0,0,1.666667,1899.556667,0)"/>
<path style="fill:none;stroke-width:1.2705;stroke-linecap:round;stroke-linejoin:round;stroke:rgb(75.294118%,57.647059%,0%);stroke-opacity:1;stroke-miterlimit:4;" d="M 422.169202 318.939844 L 424.465461 324.532031 L 436.870066 312.684375 " transform="matrix(2.111111,0,0,1.666667,0,0)"/>
<path style="fill:none;stroke-width:1.2705;stroke-linecap:round;stroke-linejoin:round;stroke:rgb(75.294118%,57.647059%,0%);stroke-opacity:1;stroke-miterlimit:4;" d="M 430.76028 304.919531 L 433.356291 329.266406 L 441.246094 318.9375 " transform="matrix(2.111111,0,0,1.666667,0,0)"/>
<path style="fill:none;stroke-width:1.2705;stroke-linecap:round;stroke-linejoin:round;stroke:rgb(75.294118%,57.647059%,0%);stroke-opacity:1;stroke-miterlimit:4;" d="M 438.089433 322.95 L 442.400699 337.825781 " transform="matrix(2.111111,0,0,1.666667,0,0)"/>
<path style="fill:none;stroke-width:1.2706;stroke-linecap:round;stroke-linejoin:round;stroke:rgb(75.294118%,57.647059%,0%);stroke-opacity:1;stroke-miterlimit:4;" d="M 444.090049 332.360156 L 435.37315 345.6 M 438.091283 358.816406 L 435.300987 345.61875 L 432.865954 332.196094 L 427.024465 340.10625 L 424.46361 330.986719 L 416.288857 339.370313 L 420.446546 354.621094 L 426.184416 345.1875 L 429.339227 354.799219 L 435.230674 345.6375 " transform="matrix(2.111111,0,0,1.666667,0,0)"/>
<path style="fill:none;stroke-width:1.2705;stroke-linecap:round;stroke-linejoin:round;stroke:rgb(75.294118%,57.647059%,0%);stroke-opacity:1;stroke-miterlimit:4;" d="M 414.989926 361.971094 L 420.289268 354.527344 L 423.741982 365.983594 L 428.476974 357.951562 L 431.633635 367.565625 " transform="matrix(2.111111,0,0,1.666667,0,0)"/>
<path style="fill:none;stroke-width:1.2705;stroke-linecap:round;stroke-linejoin:round;stroke:rgb(75.294118%,57.647059%,0%);stroke-opacity:1;stroke-miterlimit:4;" d="M 414.990839 361.971094 L 420.290181 354.527344 L 423.742895 365.983594 L 428.476036 357.951562 L 431.634548 367.565625 " transform="matrix(-2.111111,0,0,1.666667,1900.443333,0)"/>
<path style="fill-rule:evenodd;fill:rgb(100%,100%,100%);fill-opacity:1;stroke-width:1.2705;stroke-linecap:round;stroke-linejoin:round;stroke:rgb(75.294118%,57.647059%,0%);stroke-opacity:1;stroke-miterlimit:4;" d="M 422.890831 363.539062 C 429.344778 364.401563 436.518503 365.11875 442.115748 364.401563 C 445.268709 364.401563 447.564967 369.850781 441.251645 370.713281 C 435.659951 371.428125 426.907895 370.713281 422.172903 369.850781 C 418.155839 369.133594 409.403783 367.55625 403.808388 365.976562 C 398.212993 363.539062 402.231908 358.809375 405.384868 359.524219 C 410.264186 361.101562 416.577508 362.68125 422.890831 363.539062 Z M 422.890831 363.539062 " transform="matrix(2.111111,0,0,1.666667,0,0)"/>
<path style="fill-rule:evenodd;fill:rgb(100%,100%,100%);fill-opacity:1;stroke-width:1.2705;stroke-linecap:round;stroke-linejoin:round;stroke:rgb(75.294118%,57.647059%,0%);stroke-opacity:1;stroke-miterlimit:4;" d="M 477.120271 363.539062 C 470.662623 364.401563 463.492599 365.11875 458.039679 364.401563 C 454.738692 364.401563 452.442434 369.850781 458.755757 370.713281 C 464.351151 371.428125 473.103207 370.713281 477.834498 369.850781 C 481.853413 369.133594 490.603618 367.55625 496.199013 365.976562 C 501.794408 363.539062 497.779194 358.809375 494.620683 359.524219 C 489.743215 361.101562 483.431743 362.68125 477.120271 363.539062 Z M 477.120271 363.539062 " transform="matrix(2.111111,0,0,1.666667,0,0)"/>
<path style="fill-rule:evenodd;fill:rgb(100%,100%,100%);fill-opacity:1;stroke-width:1.2704;stroke-linecap:round;stroke-linejoin:round;stroke:rgb(75.294118%,57.647059%,0%);stroke-opacity:1;stroke-miterlimit:4;" d="M 403.090461 360.389062 C 398.212993 359.528906 395.918586 365.121094 397.496916 368.275781 C 398.212993 366.698438 401.51398 366.698438 402.231908 365.121094 C 403.090461 362.683594 401.51398 362.683594 403.090461 360.389062 Z M 403.090461 360.389062 " transform="matrix(2.111111,0,0,1.666667,0,0)"/>
<path style="fill-rule:evenodd;fill:rgb(100%,100%,100%);fill-opacity:1;stroke-width:1.2705;stroke-linecap:round;stroke-linejoin:round;stroke:rgb(75.294118%,57.647059%,0%);stroke-opacity:1;stroke-miterlimit:4;" d="M 422.169202 375.060937 C 422.169202 371.90625 425.324013 372.295312 425.324013 369.138281 C 425.324013 367.560937 424.465461 365.121094 422.88713 365.121094 C 421.308799 365.121094 419.730469 366.698438 419.730469 368.275781 C 419.012541 371.432813 422.169202 371.908594 422.169202 375.060937 Z M 422.169202 375.060937 " transform="matrix(2.111111,0,0,1.666667,0,0)"/>
<path style="fill-rule:evenodd;fill:rgb(100%,100%,100%);fill-opacity:1;stroke-width:1.2705;stroke-linecap:round;stroke-linejoin:round;stroke:rgb(75.294118%,57.647059%,0%);stroke-opacity:1;stroke-miterlimit:4;" d="M 444.88014 365.978906 C 449.609581 365.978906 449.141447 372.292969 446.845189 375.45 C 446.845189 373.155469 442.829975 372.292969 442.829975 370.717969 C 442.829975 368.275781 446.45477 368.275781 444.88014 365.978906 Z M 444.88014 365.978906 " transform="matrix(2.111111,0,0,1.666667,0,0)"/>
<path style="fill-rule:evenodd;fill:rgb(100%,100%,100%);fill-opacity:1;stroke-width:1.2704;stroke-linecap:round;stroke-linejoin:round;stroke:rgb(75.294118%,57.647059%,0%);stroke-opacity:1;stroke-miterlimit:4;" d="M 496.909539 360.389062 C 501.787007 359.528906 504.083265 365.121094 502.504934 368.275781 C 501.787007 366.698438 498.48787 366.698438 497.771793 365.121094 C 496.909539 362.683594 498.48972 362.683594 496.909539 360.389062 Z M 496.909539 360.389062 " transform="matrix(2.111111,0,0,1.666667,0,0)"/>
<path style="fill-rule:evenodd;fill:rgb(100%,100%,100%);fill-opacity:1;stroke-width:1.2705;stroke-linecap:round;stroke-linejoin:round;stroke:rgb(75.294118%,57.647059%,0%);stroke-opacity:1;stroke-miterlimit:4;" d="M 477.830798 375.060937 C 477.830798 371.90625 474.675987 372.295312 474.675987 369.138281 C 474.675987 367.560937 475.53639 365.121094 477.11472 365.121094 C 478.691201 365.121094 480.271382 366.698438 480.271382 368.275781 C 480.989309 371.432813 477.830798 371.908594 477.830798 375.060937 Z M 477.830798 375.060937 " transform="matrix(2.111111,0,0,1.666667,0,0)"/>
<path style="fill-rule:evenodd;fill:rgb(100%,100%,100%);fill-opacity:1;stroke-width:1.2705;stroke-linecap:round;stroke-linejoin:round;stroke:rgb(75.294118%,57.647059%,0%);stroke-opacity:1;stroke-miterlimit:4;" d="M 455.11986 365.978906 C 450.388569 365.978906 450.856702 372.292969 453.152961 375.45 C 453.152961 373.155469 457.168174 372.292969 457.168174 370.717969 C 457.168174 368.275781 453.54153 368.275781 455.11986 365.978906 Z M 455.11986 365.978906 " transform="matrix(2.111111,0,0,1.666667,0,0)"/>
<path style="fill:none;stroke-width:0.89154;stroke-linecap:round;stroke-linejoin:round;stroke:rgb(75.294118%,57.647059%,0%);stroke-opacity:1;stroke-miterlimit:4;" d="M 404.670641 361.971094 C 406.250822 361.971094 408.687706 362.688281 409.405633 363.546094 Z M 404.670641 361.971094 " transform="matrix(2.111111,0,0,1.666667,0,0)"/>
<path style="fill:none;stroke-width:0.89154;stroke-linecap:round;stroke-linejoin:round;stroke:rgb(75.294118%,57.647059%,0%);stroke-opacity:1;stroke-miterlimit:4;" d="M 412.549342 364.410937 C 413.411595 364.410937 416.568257 365.125781 418.146587 365.985937 Z M 412.549342 364.410937 " transform="matrix(2.111111,0,0,1.666667,0,0)"/>
<path style="fill:none;stroke-width:0.89154;stroke-linecap:round;stroke-linejoin:round;stroke:rgb(75.294118%,57.647059%,0%);stroke-opacity:1;stroke-miterlimit:4;" d="M 441.249794 367.560937 C 439.673314 367.560937 436.516653 367.560937 435.6581 368.275781 Z M 441.249794 367.560937 " transform="matrix(2.111111,0,0,1.666667,0,0)"/>
<path style="fill:none;stroke-width:0.89154;stroke-linecap:round;stroke-linejoin:round;stroke:rgb(75.294118%,57.647059%,0%);stroke-opacity:1;stroke-miterlimit:4;" d="M 432.499589 367.560937 C 431.641036 366.698438 428.484375 366.698438 426.906044 367.560937 Z M 432.499589 367.560937 " transform="matrix(2.111111,0,0,1.666667,0,0)"/>
<path style="fill-rule:evenodd;fill:rgb(100%,100%,100%);fill-opacity:1;stroke-width:0.89154;stroke-linecap:round;stroke-linejoin:round;stroke:rgb(75.294118%,57.647059%,0%);stroke-opacity:1;stroke-miterlimit:4;" d="M 495.340461 361.971094 C 493.76213 361.971094 491.465872 362.688281 490.605469 363.546094 Z M 495.340461 361.971094 " transform="matrix(2.111111,0,0,1.666667,0,0)"/>
<path style="fill-rule:evenodd;fill:rgb(100%,100%,100%);fill-opacity:1;stroke-width:0.89154;stroke-linecap:round;stroke-linejoin:round;stroke:rgb(75.294118%,57.647059%,0%);stroke-opacity:1;stroke-miterlimit:4;" d="M 487.450658 364.410937 C 486.590255 364.410937 483.433594 365.125781 481.855263 365.985937 Z M 487.450658 364.410937 " transform="matrix(2.111111,0,0,1.666667,0,0)"/>
<path style="fill-rule:evenodd;fill:rgb(100%,100%,100%);fill-opacity:1;stroke-width:0.89154;stroke-linecap:round;stroke-linejoin:round;stroke:rgb(75.294118%,57.647059%,0%);stroke-opacity:1;stroke-miterlimit:4;" d="M 458.750206 367.560937 C 460.328536 367.560937 463.485197 367.560937 464.3456 368.275781 Z M 458.750206 367.560937 " transform="matrix(2.111111,0,0,1.666667,0,0)"/>
<path style="fill-rule:evenodd;fill:rgb(100%,100%,100%);fill-opacity:1;stroke-width:0.89154;stroke-linecap:round;stroke-linejoin:round;stroke:rgb(75.294118%,57.647059%,0%);stroke-opacity:1;stroke-miterlimit:4;" d="M 467.500411 367.560937 C 468.360814 366.698438 471.517475 366.698438 473.095806 367.560937 Z M 467.500411 367.560937 " transform="matrix(2.111111,0,0,1.666667,0,0)"/>
<path style="fill:none;stroke-width:1.2705;stroke-linecap:round;stroke-linejoin:round;stroke:rgb(75.294118%,57.647059%,0%);stroke-opacity:1;stroke-miterlimit:4;" d="M 430.760403 304.919531 L 433.356414 329.266406 L 441.246217 318.9375 " transform="matrix(-2.111111,0,0,1.666667,1900.316667,0)"/>
<path style="fill-rule:evenodd;fill:rgb(100%,100%,100%);fill-opacity:1;stroke-width:1.1502;stroke-linecap:butt;stroke-linejoin:miter;stroke:rgb(75.294118%,57.647059%,0%);stroke-opacity:1;stroke-miterlimit:4;" d="M 449.979646 327.229688 C 482.621299 302.123437 479.823602 265.347656 479.823602 265.347656 C 478.961349 265.51875 478.143503 265.605469 477.2831 265.605469 C 470.435033 265.605469 454.10403 261.689062 450.294202 256.713281 C 446.212377 261.215625 429.52426 265.605469 422.7206 265.605469 C 421.858347 265.605469 420.997944 265.51875 420.180099 265.347656 C 420.180099 265.347656 417.337993 302.123437 449.979646 327.229688 Z M 449.979646 327.229688 " transform="matrix(2.111111,0,0,1.666667,0,0)"/>
<path style=" stroke:none;fill-rule:evenodd;fill:rgb(100%,100%,100%);fill-opacity:1;" d="M 1007.464844 446.734375 C 1006.871094 446.761719 1006.273438 446.777344 1005.675781 446.777344 C 992.574219 446.777344 962.144531 441.472656 950.417969 433.515625 C 938.132812 440.863281 907.199219 446.777344 894.3125 446.777344 C 893.707031 446.777344 893.109375 446.71875 892.519531 446.632812 C 892.488281 448.949219 892.640625 451.355469 892.824219 453.539062 C 893.503906 461.707031 895.320312 469.902344 898.074219 477.792969 C 906.746094 502.617188 924.496094 523.714844 949.949219 539.71875 C 975.421875 523.699219 993.191406 502.585938 1001.882812 477.742188 C 1004.644531 469.855469 1006.464844 461.65625 1007.152344 453.492188 C 1007.332031 451.351562 1007.484375 449.003906 1007.464844 446.734375 Z M 1007.464844 446.734375 "/>
<g clip-path="url(#clip1)" clip-rule="nonzero">
<g clip-path="url(#clip2)" clip-rule="nonzero">
<path style=" stroke:none;fill-rule:evenodd;fill:rgb(75.294118%,57.647059%,0%);fill-opacity:1;" d="M 877.800781 554.492188 L 877.800781 419.011719 L 927.566406 419.011719 L 927.566406 554.492188 Z M 877.800781 554.492188 "/>
</g>
</g>
<g clip-path="url(#clip3)" clip-rule="nonzero">
<g clip-path="url(#clip4)" clip-rule="nonzero">
<path style=" stroke:none;fill-rule:evenodd;fill:rgb(75.294118%,57.647059%,0%);fill-opacity:1;" d="M 971.082031 554.492188 L 971.082031 419.011719 L 1023.492188 419.011719 L 1023.492188 554.492188 Z M 971.082031 554.492188 "/>
</g>
</g>
<path style="fill:none;stroke-width:1.2705;stroke-linecap:round;stroke-linejoin:round;stroke:rgb(75.294118%,57.647059%,0%);stroke-opacity:1;stroke-miterlimit:4;" d="M 438.090288 322.95 L 442.399704 337.825781 " transform="matrix(-2.111111,0,0,1.666667,1899.345556,0)"/>
<path style=" stroke:none;fill-rule:evenodd;fill:rgb(75.294118%,57.647059%,0%);fill-opacity:1;" d="M 851.496094 624.300781 C 850.367188 624.128906 849.777344 623.425781 850.058594 622.59375 C 850.40625 621.578125 851.433594 620.996094 852.410156 621.269531 C 853.027344 621.441406 854.160156 622.34375 854.164062 622.667969 C 854.171875 623.039062 853.574219 623.921875 853.316406 623.921875 C 853.203125 623.921875 853.03125 624 852.933594 624.09375 C 852.722656 624.289062 852.058594 624.386719 851.496094 624.300781 Z M 967.449219 630.839844 C 967.03125 630.714844 966.363281 629.972656 966.363281 629.632812 C 966.367188 628.988281 967.574219 627.9375 968.324219 627.929688 C 968.695312 627.929688 969.707031 628.34375 970.085938 628.652344 C 970.769531 629.21875 970.621094 630.140625 969.757812 630.667969 C 969.335938 630.925781 968.070312 631.019531 967.449219 630.839844 Z M 968.21875 634.972656 C 967.332031 634.734375 967.007812 634.390625 966.933594 633.617188 C 966.859375 632.804688 966.957031 632.679688 968.042969 632.214844 L 968.8125 631.882812 L 969.542969 632.140625 C 970.558594 632.496094 971.007812 632.878906 971.042969 633.417969 C 971.082031 634 970.539062 634.589844 969.691406 634.890625 C 968.949219 635.152344 968.90625 635.15625 968.21875 634.972656 Z M 853.667969 629.863281 C 854.210938 629.492188 854.222656 629.113281 853.695312 628.9375 C 853.363281 628.824219 853.167969 628.851562 852.511719 629.097656 C 851.847656 629.347656 851.730469 629.441406 851.765625 629.695312 C 851.808594 629.980469 852.089844 630.078125 853.078125 630.144531 C 853.167969 630.148438 853.433594 630.023438 853.667969 629.863281 Z M 871.46875 637.199219 C 870.992188 637.070312 869.8125 636.847656 868.847656 636.703125 C 866.628906 636.367188 863.1875 635.753906 862.257812 635.527344 C 861.863281 635.433594 861.148438 635.289062 860.667969 635.203125 C 859.789062 635.050781 859.335938 634.945312 857.890625 634.5625 C 857.453125 634.445312 856.382812 634.210938 855.507812 634.042969 C 854.632812 633.871094 853.613281 633.632812 853.238281 633.511719 C 852.867188 633.390625 852.421875 633.289062 852.257812 633.292969 C 852.089844 633.292969 851.714844 633.191406 851.425781 633.070312 C 851.136719 632.949219 850.441406 632.816406 849.882812 632.773438 C 848.710938 632.691406 847.839844 632.367188 847.34375 631.828125 C 846.925781 631.375 846.914062 631.019531 847.304688 630.390625 C 847.46875 630.125 847.605469 629.8125 847.605469 629.695312 C 847.605469 629.582031 847.75 629.390625 847.921875 629.277344 C 848.09375 629.164062 848.234375 629.015625 848.234375 628.953125 C 848.230469 628.8125 848.96875 627.96875 849.402344 627.613281 C 849.972656 627.148438 851.152344 626.699219 851.820312 626.695312 C 852.214844 626.6875 852.558594 626.609375 852.726562 626.476562 C 852.917969 626.332031 853.347656 626.242188 854.105469 626.195312 L 855.210938 626.128906 L 855.640625 625.523438 C 855.878906 625.191406 856.078125 624.757812 856.078125 624.558594 C 856.085938 624.363281 856.195312 624.039062 856.328125 623.839844 C 856.460938 623.640625 856.664062 623.152344 856.78125 622.753906 C 857.222656 621.25 857.542969 620.414062 857.730469 620.269531 C 858.007812 620.054688 857.980469 619.964844 857.503906 619.5 C 857.246094 619.25 856.949219 619.09375 856.730469 619.09375 C 856.203125 619.101562 855.335938 619.347656 855.066406 619.570312 C 854.523438 620.019531 853.804688 620.320312 853.257812 620.324219 C 852.507812 620.328125 851.539062 619.902344 851.179688 619.410156 C 850.894531 619.019531 850.898438 619 851.226562 618.472656 C 851.441406 618.125 851.722656 617.882812 851.996094 617.800781 C 852.652344 617.601562 854.328125 617.699219 854.714844 617.960938 C 854.992188 618.144531 855.195312 618.164062 856.070312 618.085938 C 856.640625 618.035156 857.136719 617.949219 857.179688 617.894531 C 857.222656 617.84375 857.574219 617.761719 857.957031 617.714844 C 858.34375 617.667969 858.695312 617.550781 858.738281 617.460938 C 858.785156 617.367188 859.074219 617.253906 859.378906 617.207031 C 859.683594 617.164062 860.015625 617.046875 860.113281 616.957031 C 860.214844 616.863281 860.5 616.785156 860.746094 616.785156 C 861.09375 616.78125 861.261719 616.867188 861.46875 617.164062 C 861.703125 617.503906 861.714844 617.640625 861.546875 618.332031 C 861.441406 618.765625 861.222656 619.320312 861.066406 619.566406 C 860.90625 619.8125 860.78125 620.222656 860.78125 620.480469 C 860.785156 620.773438 860.671875 621.050781 860.476562 621.226562 C 860.304688 621.378906 860.164062 621.628906 860.167969 621.777344 C 860.167969 621.929688 860.0625 622.136719 859.929688 622.238281 C 859.796875 622.339844 859.613281 622.765625 859.523438 623.179688 C 859.433594 623.59375 859.273438 624.042969 859.164062 624.175781 C 859.058594 624.308594 858.929688 624.667969 858.875 624.976562 C 858.824219 625.285156 858.675781 625.605469 858.550781 625.6875 C 858.425781 625.765625 858.324219 626.003906 858.328125 626.210938 C 858.332031 626.421875 858.203125 626.789062 858.046875 627.03125 C 857.886719 627.273438 857.710938 627.761719 857.65625 628.109375 C 857.597656 628.460938 857.460938 628.855469 857.351562 628.988281 C 857.242188 629.125 857.101562 629.503906 857.042969 629.832031 C 856.984375 630.164062 856.835938 630.558594 856.710938 630.710938 C 856.503906 630.957031 856.511719 631.019531 856.800781 631.320312 C 857.273438 631.808594 858.648438 632.160156 860.046875 632.148438 C 861.136719 632.144531 861.195312 632.125 861.585938 631.746094 C 861.824219 631.515625 862.039062 631.113281 862.097656 630.78125 C 862.15625 630.46875 862.304688 630.0625 862.425781 629.878906 C 862.546875 629.695312 862.644531 629.242188 862.640625 628.867188 C 862.632812 628.230469 862.59375 628.164062 862.066406 627.839844 C 861.539062 627.519531 861.511719 627.46875 861.683594 627.175781 C 861.863281 626.871094 862.582031 626.609375 863.261719 626.605469 C 863.402344 626.601562 863.683594 626.5 863.890625 626.375 C 864.097656 626.25 864.417969 626.109375 864.609375 626.0625 C 864.796875 626.019531 865.21875 625.789062 865.546875 625.554688 C 866.242188 625.066406 866.667969 625.054688 867.015625 625.515625 C 867.234375 625.804688 867.234375 625.894531 866.996094 626.417969 C 866.847656 626.734375 866.734375 627.234375 866.738281 627.527344 C 866.742188 627.816406 866.648438 628.144531 866.527344 628.246094 C 866.410156 628.351562 866.242188 628.683594 866.15625 628.980469 C 866.070312 629.277344 865.890625 629.738281 865.761719 630.003906 C 865.632812 630.269531 865.527344 630.703125 865.527344 630.96875 C 865.527344 631.238281 865.386719 631.667969 865.214844 631.925781 C 864.765625 632.613281 864.824219 633.03125 865.390625 633.230469 C 865.523438 633.277344 865.808594 633.390625 866.027344 633.484375 C 866.246094 633.578125 866.710938 633.652344 867.058594 633.652344 C 867.410156 633.65625 868.003906 633.757812 868.378906 633.882812 C 868.757812 634.007812 869.515625 634.144531 870.066406 634.183594 C 871.046875 634.25 871.078125 634.242188 871.515625 633.863281 C 871.789062 633.625 872.039062 633.210938 872.15625 632.792969 C 872.265625 632.417969 872.390625 631.988281 872.441406 631.84375 C 872.59375 631.382812 872.339844 630.78125 871.847656 630.421875 C 870.976562 629.789062 871.339844 628.9375 872.480469 628.929688 C 872.972656 628.925781 874.308594 628.503906 874.660156 628.242188 C 875.613281 627.53125 876.210938 627.34375 876.789062 627.574219 C 877.25 627.757812 877.398438 628.253906 877.113281 628.652344 C 876.992188 628.820312 876.800781 629.28125 876.683594 629.675781 C 876.5625 630.074219 876.328125 630.78125 876.152344 631.25 C 875.980469 631.71875 875.730469 632.53125 875.597656 633.054688 C 875.464844 633.578125 875.222656 634.328125 875.058594 634.71875 C 874.898438 635.109375 874.765625 635.535156 874.765625 635.660156 C 874.769531 635.785156 874.621094 636.15625 874.4375 636.488281 C 873.910156 637.449219 873.121094 637.640625 871.46875 637.199219 Z M 851.039062 637.261719 C 849.992188 636.484375 850.160156 635.917969 851.710938 635.003906 C 852.371094 634.617188 852.773438 634.660156 853.53125 635.207031 C 854.699219 636.046875 854.746094 636.578125 853.714844 637.296875 C 853.207031 637.652344 852.984375 637.726562 852.390625 637.730469 C 851.773438 637.734375 851.597656 637.675781 851.039062 637.261719 Z M 857.472656 638.804688 C 856.449219 638.605469 855.859375 637.792969 856.160156 636.992188 C 856.429688 636.269531 856.589844 636.195312 857.933594 636.1875 C 859.441406 636.175781 859.734375 636.375 859.75 637.421875 C 859.757812 638.011719 859.699219 638.148438 859.328125 638.421875 C 858.890625 638.746094 858.050781 638.917969 857.472656 638.804688 Z M 1045.589844 638.933594 C 1045.109375 638.621094 1045.011719 638.476562 1045.007812 638.078125 C 1045 637.390625 1045.5 636.890625 1046.582031 636.503906 C 1048.023438 635.988281 1048.609375 636.058594 1049.152344 636.8125 C 1049.871094 637.816406 1049.835938 638.226562 1048.972656 638.898438 C 1048.496094 639.273438 1048.40625 639.292969 1047.316406 639.304688 C 1046.246094 639.308594 1046.121094 639.285156 1045.589844 638.933594 Z M 866.023438 640.851562 C 865.253906 640.6875 864.855469 640.234375 864.847656 639.503906 C 864.835938 638.949219 864.886719 638.859375 865.382812 638.554688 C 865.699219 638.359375 866.203125 638.1875 866.601562 638.144531 C 867.164062 638.085938 867.371094 638.125 867.824219 638.375 C 868.988281 639.019531 869.234375 639.660156 868.5625 640.277344 C 867.84375 640.9375 867.164062 641.089844 866.023438 640.851562 Z M 912.292969 642.488281 L 911.703125 642.085938 L 911.78125 641.082031 C 911.828125 640.53125 911.96875 639.863281 912.09375 639.597656 C 912.222656 639.332031 912.324219 638.726562 912.320312 638.25 C 912.316406 637.773438 912.417969 637.152344 912.539062 636.867188 C 912.660156 636.582031 912.863281 635.523438 912.988281 634.515625 C 913.113281 633.503906 913.28125 632.542969 913.363281 632.375 C 913.441406 632.207031 913.503906 631.761719 913.5 631.386719 C 913.492188 631.011719 913.621094 630.351562 913.777344 629.917969 C 913.957031 629.417969 914.058594 628.71875 914.058594 627.996094 C 914.054688 627.371094 914.128906 626.671875 914.214844 626.441406 C 914.304688 626.210938 914.375 625.894531 914.371094 625.738281 C 914.367188 625.441406 914.914062 624.753906 915.152344 624.753906 C 915.230469 624.75 915.550781 625.039062 915.867188 625.394531 C 916.183594 625.746094 916.816406 626.308594 917.277344 626.644531 C 919.308594 628.125 919.214844 627.996094 918.558594 628.484375 C 918.316406 628.660156 918.046875 628.808594 917.957031 628.808594 C 917.871094 628.8125 917.609375 628.964844 917.378906 629.152344 C 917.03125 629.433594 916.957031 629.601562 916.960938 630.144531 C 916.960938 630.503906 916.851562 631.015625 916.71875 631.28125 C 916.5 631.714844 916.273438 633.335938 916.191406 635.0625 C 916.175781 635.425781 916.09375 635.804688 916.015625 635.90625 C 915.933594 636.003906 915.835938 636.871094 915.796875 637.832031 C 915.761719 638.792969 915.664062 639.65625 915.585938 639.753906 C 915.503906 639.851562 915.433594 640.144531 915.429688 640.410156 C 915.40625 641.386719 915.132812 642.269531 914.761719 642.578125 C 914.472656 642.816406 914.242188 642.878906 913.640625 642.882812 C 913.003906 642.890625 912.792969 642.828125 912.292969 642.488281 Z M 973.625 641.382812 L 974.453125 641.1875 L 974.394531 640.566406 L 974.339844 639.941406 L 973.679688 639.910156 C 973.128906 639.886719 972.953125 639.9375 972.609375 640.21875 C 972 640.722656 971.933594 641.085938 972.394531 641.351562 C 972.605469 641.472656 972.78125 641.570312 972.789062 641.570312 C 972.796875 641.574219 973.171875 641.488281 973.625 641.382812 Z M 968.816406 643.972656 C 968.484375 643.609375 968.46875 643.527344 968.621094 642.863281 C 968.710938 642.46875 968.796875 641.796875 968.808594 641.367188 C 968.816406 640.9375 968.910156 640.46875 969.011719 640.324219 C 969.113281 640.175781 969.191406 639.878906 969.1875 639.65625 C 969.183594 639.34375 969.324219 639.144531 969.808594 638.777344 C 970.15625 638.519531 970.4375 638.246094 970.433594 638.175781 C 970.433594 638.019531 971.667969 637.261719 971.929688 637.261719 C 972.03125 637.261719 972.242188 637.152344 972.398438 637.019531 C 972.554688 636.882812 972.875 636.773438 973.105469 636.773438 C 973.339844 636.769531 973.71875 636.644531 973.949219 636.492188 C 974.339844 636.230469 974.367188 636.152344 974.351562 635.171875 C 974.34375 634.542969 974.238281 633.914062 974.082031 633.582031 C 973.941406 633.277344 973.84375 632.914062 973.863281 632.769531 C 973.878906 632.625 973.832031 631.9375 973.753906 631.246094 C 973.628906 630.125 973.570312 629.953125 973.199219 629.660156 C 972.972656 629.480469 972.699219 629.335938 972.589844 629.335938 C 972.390625 629.335938 971.644531 628.648438 971.75 628.5625 C 972.839844 627.640625 974.78125 626.195312 975 626.140625 C 975.445312 626.03125 976.117188 626.269531 976.289062 626.597656 C 976.371094 626.761719 976.488281 627.476562 976.550781 628.191406 C 976.609375 628.902344 976.734375 629.808594 976.820312 630.203125 C 976.910156 630.597656 977.066406 631.839844 977.171875 632.960938 C 977.273438 634.082031 977.425781 635.1875 977.511719 635.417969 C 977.597656 635.648438 977.726562 636.671875 977.796875 637.695312 C 977.867188 638.71875 978 639.761719 978.085938 640.015625 C 978.390625 640.894531 979.664062 641.417969 980.570312 641.042969 C 980.71875 640.980469 981.398438 640.855469 982.074219 640.773438 C 983.652344 640.570312 983.679688 640.535156 983.539062 638.761719 C 983.441406 637.53125 983.390625 637.359375 983.011719 636.988281 C 982.78125 636.761719 982.414062 636.546875 982.195312 636.507812 C 981.761719 636.429688 981.488281 636.136719 981.484375 635.746094 C 981.484375 635.46875 982.300781 634.824219 982.8125 634.699219 C 982.988281 634.65625 983.460938 634.410156 983.859375 634.152344 C 984.753906 633.574219 985.34375 633.53125 985.902344 634 C 986.257812 634.304688 986.296875 634.460938 986.414062 636.066406 C 986.507812 637.308594 986.617188 637.90625 986.804688 638.164062 C 986.992188 638.425781 987.066406 638.851562 987.082031 639.738281 C 987.085938 640.566406 987.179688 641.09375 987.351562 641.398438 C 987.574219 641.792969 987.578125 641.890625 987.378906 642.222656 C 987.257812 642.429688 987.109375 642.71875 987.054688 642.867188 C 986.925781 643.203125 986.6875 643.257812 985.230469 643.289062 C 984.578125 643.300781 983.757812 643.375 983.414062 643.449219 C 983.066406 643.527344 982.140625 643.601562 981.355469 643.617188 C 978.011719 643.683594 973.445312 643.988281 973.195312 644.160156 C 973.011719 644.289062 972.476562 644.335938 971.0625 644.347656 L 969.175781 644.363281 Z M 897.511719 634.066406 C 897.929688 633.839844 897.964844 633.527344 897.578125 633.453125 C 897.089844 633.355469 896.695312 632.820312 896.660156 632.214844 C 896.597656 631.125 895.953125 631.0625 894.75 632.03125 C 894.402344 632.308594 893.875 632.6875 893.574219 632.867188 L 893.03125 633.195312 L 893.425781 633.511719 C 894.089844 634.035156 894.828125 634.246094 896.050781 634.25 C 896.824219 634.253906 897.269531 634.195312 897.511719 634.066406 Z M 902.421875 645.953125 C 902.179688 645.886719 901.984375 645.796875 901.984375 645.746094 C 901.980469 645.632812 900.480469 644.90625 900.25 644.910156 C 900.15625 644.910156 900.035156 644.761719 899.984375 644.582031 C 899.933594 644.402344 899.742188 643.898438 899.5625 643.464844 C 899.242188 642.707031 899.246094 642.125 899.574219 641.96875 C 899.808594 641.855469 899.722656 641.480469 899.410156 641.273438 C 899.21875 641.144531 898.722656 641.054688 898.023438 641.015625 C 896.535156 640.941406 896.363281 640.90625 895.839844 640.558594 C 895.464844 640.3125 895.359375 640.121094 895.246094 639.476562 C 895.164062 639.015625 894.988281 638.597656 894.824219 638.464844 C 894.535156 638.226562 894.042969 638.164062 893.898438 638.34375 C 893.851562 638.402344 893.597656 638.484375 893.335938 638.527344 C 893.011719 638.578125 892.804688 638.707031 892.703125 638.914062 C 892.621094 639.085938 892.367188 639.414062 892.140625 639.644531 C 891.75 640.039062 891.6875 640.058594 890.71875 640.066406 C 890.160156 640.070312 889.464844 640 889.175781 639.910156 C 888.550781 639.71875 887.863281 639.636719 886.144531 639.542969 C 883.675781 639.410156 882.535156 639.558594 882.34375 640.027344 C 882.078125 640.683594 880.085938 642.03125 879.214844 642.140625 C 878.867188 642.1875 878.273438 642.304688 877.898438 642.398438 C 877.523438 642.496094 877.148438 642.542969 877.0625 642.507812 C 876.980469 642.46875 876.144531 642.363281 875.210938 642.269531 C 873.445312 642.097656 872.796875 641.863281 872.789062 641.398438 C 872.785156 641.117188 873.871094 640.6875 874.285156 640.804688 C 874.734375 640.933594 875.476562 640.929688 875.472656 640.792969 C 875.472656 640.730469 875.855469 640.617188 876.328125 640.539062 C 876.800781 640.460938 877.269531 640.320312 877.371094 640.222656 C 877.476562 640.128906 877.765625 640.046875 878.019531 640.046875 C 878.394531 640.042969 878.5625 639.9375 878.941406 639.472656 C 879.195312 639.164062 879.40625 638.832031 879.402344 638.738281 C 879.402344 638.648438 879.542969 638.433594 879.714844 638.265625 C 879.898438 638.082031 880.023438 637.773438 880.019531 637.507812 C 880.015625 637.261719 880.121094 636.820312 880.25 636.53125 C 880.472656 636.035156 880.46875 635.957031 880.125 635.167969 C 879.925781 634.707031 879.671875 634.289062 879.5625 634.242188 C 879.453125 634.191406 879.277344 633.964844 879.171875 633.730469 C 878.898438 633.121094 879.195312 632.574219 880.316406 631.625 C 880.433594 631.527344 880.578125 631.269531 880.636719 631.054688 C 880.746094 630.644531 881.101562 630.421875 881.636719 630.417969 C 882.035156 630.410156 882.78125 631.058594 882.785156 631.410156 C 882.789062 631.554688 882.90625 631.796875 883.046875 631.945312 C 883.199219 632.109375 883.363281 632.652344 883.453125 633.320312 C 883.605469 634.457031 883.863281 635.628906 884.050781 636.078125 C 884.214844 636.460938 885.078125 636.988281 885.542969 636.988281 C 885.765625 636.992188 886.378906 637.066406 886.902344 637.15625 C 887.425781 637.25 888.265625 637.320312 888.769531 637.316406 C 889.679688 637.3125 889.6875 637.3125 890.617188 636.570312 C 891.132812 636.164062 891.550781 635.769531 891.546875 635.695312 C 891.523438 635.214844 889.484375 634.351562 887.84375 634.125 C 887.269531 634.042969 886.867188 633.488281 886.992188 632.953125 C 887.097656 632.496094 887.863281 631.703125 888.609375 631.277344 C 888.894531 631.117188 889.839844 630.824219 890.710938 630.632812 L 892.296875 630.285156 L 892.734375 629.609375 C 893.566406 628.324219 895.324219 627.308594 896.726562 627.296875 C 897.425781 627.292969 897.574219 627.355469 898.136719 627.90625 C 898.289062 628.058594 898.582031 628.34375 898.785156 628.539062 C 899.40625 629.144531 899.757812 629.859375 899.664062 630.332031 C 899.574219 630.773438 899.8125 631.472656 900.050781 631.46875 C 900.269531 631.46875 902.578125 633.242188 902.6875 633.496094 C 902.742188 633.625 902.851562 633.726562 902.929688 633.726562 C 903.125 633.726562 903.410156 634.527344 903.417969 635.105469 C 903.429688 635.964844 903.1875 636.09375 901.5 636.117188 C 900.691406 636.128906 899.710938 636.210938 899.320312 636.304688 L 898.609375 636.472656 L 898.570312 637.136719 C 898.519531 638.039062 898.808594 638.289062 900.050781 638.429688 C 900.566406 638.488281 901.0625 638.59375 901.152344 638.660156 C 901.242188 638.726562 901.503906 638.777344 901.730469 638.777344 C 901.957031 638.777344 902.28125 638.851562 902.453125 638.941406 C 902.730469 639.09375 902.765625 639.265625 902.785156 640.648438 L 902.804688 642.1875 L 903.320312 642.308594 C 903.605469 642.378906 903.921875 642.496094 904.027344 642.574219 C 904.402344 642.851562 904.898438 642.734375 905.097656 642.320312 C 905.203125 642.105469 905.347656 641.820312 905.417969 641.6875 C 905.492188 641.554688 905.617188 640.746094 905.699219 639.886719 C 905.777344 639.027344 905.941406 638.109375 906.058594 637.84375 C 906.179688 637.578125 906.347656 636.714844 906.433594 635.925781 C 906.519531 635.136719 906.667969 634.417969 906.765625 634.328125 C 906.863281 634.234375 906.972656 633.484375 907.011719 632.621094 C 907.070312 631.390625 907.140625 631.03125 907.359375 630.84375 C 907.589844 630.648438 907.628906 630.375 907.609375 629.121094 L 907.585938 627.632812 L 906.953125 627.214844 C 906.527344 626.9375 906.316406 626.699219 906.3125 626.5 C 906.308594 626.066406 906.457031 625.941406 907.25 625.710938 C 907.640625 625.597656 908.242188 625.425781 908.589844 625.328125 C 908.933594 625.226562 909.289062 625.078125 909.378906 625 C 909.652344 624.75 910.53125 624.308594 910.757812 624.304688 C 910.878906 624.304688 911.097656 624.402344 911.242188 624.519531 C 911.585938 624.800781 911.617188 625.941406 911.296875 626.417969 C 911.160156 626.621094 911.066406 627.089844 911.074219 627.558594 C 911.082031 627.996094 910.976562 628.589844 910.84375 628.878906 C 910.707031 629.183594 910.53125 630.277344 910.4375 631.449219 C 910.34375 632.570312 910.1875 633.609375 910.082031 633.753906 C 909.980469 633.898438 909.898438 634.386719 909.902344 634.835938 C 909.90625 635.285156 909.808594 636.113281 909.679688 636.675781 C 909.554688 637.238281 909.386719 638.179688 909.304688 638.773438 C 909.226562 639.363281 909.0625 640.035156 908.941406 640.261719 C 908.820312 640.488281 908.679688 641.058594 908.628906 641.527344 C 908.578125 642 908.410156 642.574219 908.25 642.804688 C 908.09375 643.035156 907.964844 643.320312 907.96875 643.4375 C 907.972656 643.738281 907.152344 644.851562 906.925781 644.855469 C 906.816406 644.855469 906.660156 644.960938 906.578125 645.082031 C 906.492188 645.207031 906.203125 645.34375 905.941406 645.386719 C 905.675781 645.425781 905.265625 645.566406 905.027344 645.695312 C 904.519531 645.972656 903.046875 646.117188 902.421875 645.949219 Z M 1035.632812 636.496094 C 1036.613281 636.160156 1036.890625 635.753906 1036.507812 635.203125 C 1036.179688 634.734375 1035.695312 634.546875 1034.910156 634.585938 C 1033.996094 634.632812 1033.25 635.105469 1033.257812 635.632812 C 1033.265625 635.972656 1033.371094 636.09375 1033.941406 636.390625 C 1034.3125 636.585938 1034.671875 636.746094 1034.734375 636.753906 C 1034.800781 636.757812 1035.203125 636.640625 1035.632812 636.496094 Z M 1022.996094 636.585938 C 1023.671875 636.339844 1023.753906 636.269531 1023.753906 635.914062 C 1023.757812 635.371094 1023.128906 634.730469 1022.203125 634.324219 C 1021.222656 633.898438 1020.871094 633.90625 1020.433594 634.363281 C 1020.089844 634.722656 1020.089844 634.75 1020.335938 635.285156 C 1020.476562 635.589844 1020.59375 635.917969 1020.597656 636.019531 C 1020.597656 636.257812 1021.554688 636.855469 1021.9375 636.859375 C 1022.105469 636.863281 1022.582031 636.738281 1022.996094 636.585938 Z M 1017.367188 637.007812 C 1017.421875 636.804688 1017.417969 636.335938 1017.351562 635.972656 C 1017.257812 635.449219 1017.132812 635.242188 1016.753906 634.984375 C 1016.179688 634.597656 1015.882812 634.632812 1015.207031 635.171875 C 1014.769531 635.523438 1014.707031 635.660156 1014.691406 636.289062 C 1014.664062 637.273438 1014.835938 637.402344 1016.1875 637.390625 C 1017.261719 637.386719 1017.265625 637.386719 1017.367188 637.007812 Z M 1004.789062 638.863281 C 1005.335938 638.644531 1005.464844 638.40625 1005.328125 637.878906 C 1005.117188 637.078125 1003.847656 636.84375 1003.230469 637.488281 C 1003.042969 637.683594 1002.890625 637.894531 1002.890625 637.957031 C 1002.890625 638.015625 1002.785156 638.132812 1002.660156 638.214844 C 1002.476562 638.332031 1002.464844 638.417969 1002.609375 638.621094 C 1002.710938 638.761719 1002.871094 638.914062 1002.96875 638.964844 C 1003.265625 639.109375 1004.320312 639.054688 1004.789062 638.863281 Z M 1024.804688 640.292969 C 1025.25 640.023438 1025.285156 639.640625 1024.894531 639.371094 C 1024.433594 639.054688 1023.59375 639.058594 1022.730469 639.382812 C 1022.214844 639.574219 1022.070312 639.695312 1022.074219 639.929688 C 1022.078125 640.132812 1022.199219 640.269531 1022.4375 640.339844 C 1022.972656 640.496094 1024.519531 640.464844 1024.804688 640.292969 Z M 1000.257812 646.078125 C 1000.074219 645.941406 1000.128906 645.351562 1000.335938 645.226562 C 1000.445312 645.160156 1000.710938 645.0625 1000.929688 645.011719 C 1001.144531 644.960938 1001.429688 644.847656 1001.558594 644.761719 C 1001.6875 644.675781 1002.148438 644.5625 1002.582031 644.515625 C 1004.144531 644.332031 1005.507812 643.355469 1005.511719 642.410156 C 1005.519531 642.148438 1005.464844 641.878906 1005.40625 641.808594 C 1005.226562 641.59375 1002.492188 641.722656 1001.011719 642.015625 C 1000.660156 642.085938 1000.488281 642.027344 1000.058594 641.710938 L 999.53125 641.320312 L 999.382812 637.789062 L 1000.066406 637.195312 C 1000.441406 636.867188 1000.917969 636.382812 1001.125 636.121094 C 1001.328125 635.859375 1001.542969 635.632812 1001.601562 635.613281 C 1001.65625 635.59375 1001.976562 635.382812 1002.3125 635.148438 C 1002.976562 634.683594 1004.066406 634.210938 1004.804688 634.070312 C 1005.058594 634.019531 1005.34375 633.902344 1005.4375 633.804688 C 1005.527344 633.707031 1005.808594 633.613281 1006.0625 633.597656 C 1006.449219 633.570312 1006.585938 633.648438 1006.964844 634.101562 C 1007.210938 634.398438 1007.421875 634.800781 1007.433594 635 C 1007.445312 635.199219 1007.566406 635.574219 1007.695312 635.835938 C 1007.828125 636.101562 1007.984375 636.625 1008.046875 637.003906 C 1008.105469 637.382812 1008.234375 637.769531 1008.332031 637.859375 C 1008.574219 638.082031 1010.488281 638.183594 1010.820312 637.996094 C 1011.007812 637.886719 1011.089844 637.566406 1011.140625 636.753906 C 1011.179688 636.125 1011.308594 635.5 1011.449219 635.285156 C 1011.578125 635.078125 1011.734375 634.730469 1011.789062 634.515625 C 1011.945312 633.925781 1013.191406 632.5625 1013.941406 632.171875 C 1014.304688 631.980469 1014.6875 631.757812 1014.796875 631.679688 C 1014.90625 631.601562 1015.152344 631.496094 1015.347656 631.449219 C 1015.820312 631.332031 1015.933594 631.179688 1015.925781 630.644531 C 1015.921875 630.1875 1015.441406 629.664062 1014.441406 629.027344 C 1014.203125 628.871094 1014.003906 628.652344 1014 628.535156 C 1013.996094 628.195312 1014.460938 627.550781 1015.191406 626.878906 C 1015.5625 626.535156 1015.871094 626.210938 1015.875 626.152344 C 1015.875 626.097656 1016.125 625.929688 1016.425781 625.78125 C 1016.855469 625.570312 1017.058594 625.535156 1017.371094 625.621094 C 1017.792969 625.742188 1017.910156 625.90625 1018.304688 626.933594 C 1018.820312 628.292969 1018.941406 628.6875 1019.066406 629.457031 C 1019.140625 629.890625 1019.246094 630.304688 1019.304688 630.375 C 1019.363281 630.445312 1020.066406 630.617188 1020.859375 630.75 C 1021.65625 630.886719 1022.460938 631.066406 1022.644531 631.152344 C 1022.832031 631.242188 1023.160156 631.351562 1023.378906 631.398438 C 1023.921875 631.515625 1024.65625 631.933594 1024.660156 632.125 C 1024.660156 632.210938 1024.71875 632.28125 1024.792969 632.28125 C 1024.964844 632.28125 1025.761719 633.195312 1026.496094 634.238281 C 1027.320312 635.410156 1027.273438 635.382812 1028.589844 635.371094 C 1029.652344 635.367188 1029.773438 635.335938 1030.070312 635.042969 C 1030.25 634.867188 1030.390625 634.578125 1030.390625 634.398438 C 1030.382812 634.023438 1030.792969 633.582031 1031.785156 632.886719 C 1032.167969 632.621094 1032.632812 632.292969 1032.816406 632.160156 C 1033.433594 631.71875 1034.132812 631.367188 1034.398438 631.367188 C 1034.546875 631.363281 1035.328125 631.578125 1036.140625 631.839844 C 1037.339844 632.226562 1037.699219 632.40625 1038.058594 632.792969 C 1038.84375 633.628906 1040.515625 633.976562 1041.34375 633.46875 C 1041.566406 633.335938 1041.820312 633.226562 1041.917969 633.226562 C 1042.011719 633.226562 1042.089844 633.140625 1042.085938 633.039062 C 1042.085938 632.789062 1041.4375 631.402344 1041.242188 631.226562 C 1041.152344 631.144531 1041.007812 630.664062 1040.914062 630.148438 C 1040.824219 629.636719 1040.601562 628.976562 1040.425781 628.679688 C 1040.207031 628.316406 1040.066406 627.765625 1040 627.003906 C 1039.945312 626.378906 1039.757812 625.46875 1039.585938 624.980469 C 1039.414062 624.488281 1039.269531 623.9375 1039.265625 623.753906 C 1039.253906 622.867188 1038.304688 621.699219 1037.335938 621.386719 C 1037.117188 621.3125 1036.757812 621.179688 1036.539062 621.085938 C 1035.964844 620.839844 1035.210938 620.875 1034.878906 621.160156 C 1034.722656 621.292969 1034.445312 621.40625 1034.261719 621.40625 C 1033.925781 621.40625 1032.910156 622.054688 1032.914062 622.261719 C 1032.914062 622.324219 1032.679688 622.378906 1032.394531 622.382812 C 1031.972656 622.386719 1031.78125 622.292969 1031.359375 621.886719 C 1031.074219 621.613281 1030.84375 621.332031 1030.839844 621.261719 C 1030.839844 621.191406 1030.550781 620.945312 1030.199219 620.71875 C 1029.683594 620.378906 1029.5625 620.222656 1029.558594 619.875 C 1029.550781 619.53125 1029.628906 619.414062 1029.945312 619.300781 C 1030.160156 619.226562 1030.335938 619.109375 1030.335938 619.046875 C 1030.335938 618.980469 1030.601562 618.890625 1030.925781 618.847656 C 1031.253906 618.800781 1032.089844 618.648438 1032.78125 618.507812 C 1034.53125 618.148438 1037.679688 618.128906 1038.445312 618.46875 C 1038.726562 618.59375 1039.144531 618.730469 1039.367188 618.765625 C 1039.882812 618.855469 1041.257812 619.855469 1041.539062 620.351562 C 1041.65625 620.558594 1041.820312 620.761719 1041.902344 620.796875 C 1041.984375 620.835938 1042.101562 621.09375 1042.167969 621.375 C 1042.230469 621.652344 1042.378906 622.042969 1042.5 622.242188 C 1042.675781 622.535156 1042.914062 623.769531 1043.15625 625.65625 C 1043.199219 625.992188 1043.519531 627.148438 1043.769531 627.871094 C 1043.863281 628.132812 1044.042969 628.746094 1044.167969 629.230469 C 1044.296875 629.714844 1044.515625 630.203125 1044.652344 630.316406 C 1044.789062 630.429688 1044.902344 630.617188 1044.90625 630.734375 C 1044.910156 631.203125 1046.550781 631.988281 1047.5 631.980469 C 1048.332031 631.976562 1049.574219 631.53125 1050.351562 630.96875 C 1050.792969 630.644531 1051.324219 630.347656 1051.53125 630.308594 C 1051.960938 630.222656 1052.65625 630.480469 1052.902344 630.816406 C 1053.203125 631.226562 1053.703125 631.589844 1054.367188 631.882812 C 1055.082031 632.195312 1055.339844 632.609375 1055.066406 633.003906 C 1054.976562 633.136719 1054.78125 633.246094 1054.632812 633.246094 C 1054.484375 633.246094 1053.980469 633.386719 1053.519531 633.554688 C 1053.054688 633.722656 1052.542969 633.863281 1052.382812 633.863281 C 1052.21875 633.863281 1051.320312 634.058594 1050.382812 634.296875 C 1049.449219 634.539062 1047.792969 634.878906 1046.707031 635.054688 C 1044.785156 635.367188 1042.210938 635.933594 1041.890625 636.109375 C 1041.804688 636.15625 1041.449219 636.234375 1041.101562 636.28125 C 1040.027344 636.429688 1039.933594 636.476562 1039.832031 636.914062 C 1039.707031 637.453125 1038.257812 638.648438 1037.183594 639.097656 C 1036.441406 639.410156 1036.285156 639.429688 1034.4375 639.429688 C 1033.359375 639.421875 1032.347656 639.398438 1032.191406 639.359375 C 1032.03125 639.324219 1031.855469 639.136719 1031.796875 638.941406 C 1031.738281 638.746094 1031.476562 638.476562 1031.210938 638.335938 C 1030.707031 638.070312 1030.128906 638.078125 1028.839844 638.371094 L 1028.261719 638.5 L 1028.167969 639.683594 C 1028.117188 640.335938 1027.976562 640.996094 1027.863281 641.152344 C 1027.746094 641.3125 1027.582031 641.546875 1027.5 641.679688 C 1027.417969 641.8125 1026.984375 642.167969 1026.542969 642.46875 C 1026.097656 642.769531 1025.453125 643.21875 1025.105469 643.46875 C 1024.394531 643.988281 1023.777344 644.066406 1023.351562 643.695312 C 1023.191406 643.558594 1022.878906 643.457031 1022.617188 643.460938 C 1022.085938 643.464844 1020.851562 643.066406 1020.078125 642.636719 C 1019.601562 642.375 1018.605469 641.09375 1018.601562 640.734375 C 1018.601562 640.667969 1018.457031 640.503906 1018.28125 640.375 C 1018.027344 640.183594 1017.753906 640.140625 1016.972656 640.148438 C 1016.425781 640.15625 1015.664062 640.21875 1015.269531 640.285156 C 1014.878906 640.355469 1013.929688 640.472656 1013.15625 640.542969 C 1012.382812 640.617188 1011.523438 640.75 1011.242188 640.839844 C 1010.964844 640.933594 1010.433594 641.046875 1010.0625 641.097656 C 1009.09375 641.230469 1008.796875 641.511719 1008.808594 642.292969 C 1008.8125 642.707031 1008.734375 642.992188 1008.589844 643.085938 C 1008.46875 643.164062 1008.324219 643.382812 1008.273438 643.566406 C 1008.140625 644.050781 1006.84375 645.042969 1005.921875 645.371094 C 1005.488281 645.523438 1004.871094 645.753906 1004.550781 645.886719 C 1004.070312 646.085938 1003.652344 646.128906 1002.167969 646.140625 C 1001.175781 646.148438 1000.316406 646.121094 1000.257812 646.078125 Z M 987.695312 647.15625 L 987.332031 646.960938 L 987.648438 646.617188 C 987.824219 646.425781 988.234375 646.203125 988.558594 646.121094 C 989.660156 645.835938 990.40625 645.480469 991.304688 644.804688 C 991.800781 644.433594 992.207031 644.035156 992.203125 643.921875 C 992.203125 643.8125 992.394531 643.539062 992.632812 643.324219 C 993.042969 642.945312 993.0625 642.875 993.03125 641.660156 C 992.996094 640.421875 992.914062 640.160156 992.328125 639.445312 C 992.050781 639.101562 991.105469 638.5625 990.140625 638.191406 C 989.503906 637.949219 989.273438 637.449219 989.605469 637.023438 C 989.742188 636.84375 990.179688 636.183594 990.578125 635.554688 C 990.976562 634.921875 991.386719 634.273438 991.488281 634.105469 C 991.773438 633.652344 992.484375 633.628906 992.960938 634.054688 C 993.414062 634.457031 994.144531 635.480469 994.148438 635.710938 C 994.152344 635.800781 994.289062 635.972656 994.457031 636.085938 C 994.816406 636.339844 995.597656 637.398438 995.601562 637.640625 C 995.601562 637.734375 995.792969 638.046875 996.019531 638.335938 C 996.304688 638.699219 996.441406 639.046875 996.453125 639.4375 C 996.464844 639.75 996.578125 640.207031 996.707031 640.453125 C 997.089844 641.167969 996.964844 643.566406 996.515625 644.234375 C 996.324219 644.519531 996.117188 644.75 996.050781 644.753906 C 995.988281 644.753906 995.726562 644.976562 995.46875 645.246094 C 994.976562 645.761719 993.300781 646.691406 992.855469 646.695312 C 992.714844 646.695312 992.492188 646.820312 992.367188 646.96875 C 992.148438 647.222656 992.003906 647.246094 990.09375 647.292969 C 988.40625 647.339844 987.992188 647.316406 987.695312 647.15625 Z M 973.242188 647.902344 C 972.730469 647.484375 972.617188 647.308594 972.613281 646.902344 C 972.605469 646.488281 972.707031 646.324219 973.207031 645.925781 C 974.132812 645.1875 974.585938 645.167969 976.183594 645.808594 C 977.710938 646.417969 978.226562 646.472656 978.363281 646.039062 C 978.496094 645.625 979.375 645.242188 980.207031 645.238281 C 980.734375 645.234375 981.035156 645.320312 981.457031 645.578125 C 981.988281 645.90625 982.015625 645.957031 982.027344 646.710938 C 982.035156 647.484375 982.023438 647.511719 981.414062 647.9375 C 980.828125 648.34375 980.734375 648.371094 980.007812 648.3125 C 979.085938 648.238281 978.53125 647.90625 978.382812 647.332031 C 978.273438 646.914062 978.089844 646.816406 977.949219 647.097656 C 977.90625 647.1875 977.675781 647.300781 977.445312 647.347656 C 977.015625 647.433594 976.285156 647.796875 975.769531 648.179688 C 975.574219 648.328125 975.230469 648.394531 974.671875 648.398438 C 973.921875 648.40625 973.816406 648.371094 973.242188 647.902344 Z M 959.921875 641.410156 C 960.273438 641.304688 960.347656 641.222656 960.269531 641.027344 C 960.214844 640.886719 960.09375 640.519531 959.996094 640.207031 C 959.84375 639.714844 959.765625 639.636719 959.429688 639.640625 C 959.070312 639.640625 958.398438 639.941406 957.785156 640.375 C 957.484375 640.585938 957.296875 641.105469 957.460938 641.28125 C 957.820312 641.664062 958.878906 641.71875 959.921875 641.410156 Z M 947.695312 645.035156 C 948.046875 644.828125 948.054688 644.769531 948.042969 642.566406 L 948.027344 640.308594 L 947.597656 640.015625 C 947.191406 639.734375 947.042969 639.71875 944.125 639.628906 C 942.453125 639.578125 940.808594 639.464844 940.472656 639.382812 C 940.03125 639.273438 939.636719 639.265625 939.058594 639.351562 C 938.539062 639.425781 937.917969 639.425781 937.28125 639.34375 C 934.914062 639.050781 933.335938 639.285156 932.765625 640.015625 C 932.496094 640.355469 932.496094 640.394531 932.753906 640.71875 C 932.902344 640.90625 933.203125 641.082031 933.421875 641.113281 C 933.640625 641.144531 934.152344 641.246094 934.558594 641.339844 C 935.007812 641.445312 935.964844 641.511719 937.015625 641.507812 C 937.960938 641.507812 939.554688 641.542969 940.554688 641.59375 C 941.558594 641.644531 942.953125 641.695312 943.652344 641.710938 C 944.566406 641.726562 945.054688 641.796875 945.378906 641.953125 L 945.828125 642.171875 L 945.734375 643.332031 C 945.648438 644.445312 945.660156 644.503906 946.011719 644.742188 C 946.4375 645.027344 946.949219 645.25 947.175781 645.25 C 947.265625 645.25 947.496094 645.15625 947.695312 645.035156 Z M 946.355469 648.878906 C 946.355469 648.820312 945.960938 648.628906 945.476562 648.457031 C 944.546875 648.117188 943.746094 647.609375 943.257812 647.039062 C 942.917969 646.640625 942.515625 645.632812 942.507812 645.148438 C 942.507812 644.90625 942.40625 644.804688 942.144531 644.757812 C 941.066406 644.570312 938.332031 644.335938 936.316406 644.253906 C 935.054688 644.203125 932.6875 644.058594 931.058594 643.929688 C 927.523438 643.65625 926.171875 643.695312 925.699219 644.085938 C 925.523438 644.234375 925.300781 644.53125 925.207031 644.746094 C 925.113281 644.957031 924.765625 645.417969 924.4375 645.761719 C 924.109375 646.109375 923.839844 646.449219 923.839844 646.519531 C 923.84375 646.585938 923.773438 646.644531 923.683594 646.644531 C 923.597656 646.644531 923.398438 646.742188 923.242188 646.859375 C 922.839844 647.15625 922.027344 647.601562 921.605469 647.75 C 921.410156 647.816406 921.070312 647.953125 920.855469 648.050781 C 920.285156 648.304688 916.324219 648.335938 915.6875 648.089844 C 915.4375 647.992188 915.015625 647.914062 914.746094 647.917969 C 914.480469 647.917969 914.125 647.84375 913.957031 647.753906 C 913.703125 647.617188 913.675781 647.53125 913.804688 647.246094 C 913.988281 646.839844 914.515625 646.734375 916.5625 646.707031 C 917.699219 646.691406 918.03125 646.640625 918.695312 646.371094 C 919.488281 646.042969 920.84375 645.261719 920.949219 645.066406 C 920.984375 645.007812 921.140625 644.871094 921.300781 644.765625 C 921.464844 644.65625 921.640625 644.378906 921.691406 644.144531 C 921.746094 643.910156 921.925781 643.507812 922.09375 643.25 C 922.445312 642.703125 922.402344 642.371094 921.804688 641.019531 C 921.1875 639.625 920.96875 639.316406 920.265625 638.851562 C 919.382812 638.261719 919.402344 637.980469 920.390625 637.1875 C 920.824219 636.839844 921.433594 636.261719 921.742188 635.898438 C 922.242188 635.3125 922.355469 635.246094 922.796875 635.277344 C 923.21875 635.304688 923.355469 635.402344 923.742188 635.964844 C 924.335938 636.828125 925.152344 638.324219 925.15625 638.554688 C 925.15625 638.65625 925.261719 638.90625 925.386719 639.113281 C 925.515625 639.320312 925.699219 639.6875 925.804688 639.929688 C 926.054688 640.523438 926.195312 640.585938 927.507812 640.671875 C 928.882812 640.765625 928.898438 640.75 929.019531 639.289062 C 929.066406 638.734375 929.175781 638.222656 929.265625 638.15625 C 929.351562 638.085938 929.421875 637.925781 929.421875 637.792969 C 929.417969 637.503906 928.628906 635.789062 928.425781 635.632812 C 928.160156 635.425781 928.265625 634.8125 928.667969 634.285156 C 928.882812 633.996094 929.121094 633.761719 929.191406 633.761719 C 929.261719 633.761719 929.589844 633.617188 929.921875 633.445312 C 930.746094 633.011719 931.980469 632.90625 932.511719 633.222656 C 932.855469 633.429688 932.910156 633.574219 932.984375 634.511719 C 933.066406 635.46875 933.113281 635.597656 933.492188 635.84375 C 933.722656 635.992188 934.082031 636.117188 934.292969 636.117188 C 934.503906 636.117188 934.804688 636.203125 934.964844 636.308594 C 935.203125 636.472656 935.761719 636.507812 938.304688 636.523438 C 941.820312 636.542969 943.785156 636.617188 944.035156 636.738281 C 944.132812 636.785156 944.746094 636.820312 945.398438 636.816406 C 946.050781 636.8125 947.476562 636.851562 948.566406 636.898438 C 950.46875 636.988281 950.5625 637.003906 951.023438 637.347656 L 951.503906 637.703125 L 951.539062 639.300781 C 951.582031 641.144531 951.71875 641.382812 952.738281 641.375 C 953.632812 641.367188 953.886719 641.152344 953.957031 640.332031 C 953.992188 639.941406 954.109375 639.566406 954.222656 639.496094 C 954.335938 639.429688 954.53125 639.175781 954.660156 638.933594 C 954.925781 638.433594 956.027344 637.558594 956.542969 637.433594 C 956.730469 637.390625 957.027344 637.257812 957.199219 637.140625 C 957.371094 637.019531 957.726562 636.894531 957.984375 636.855469 C 959.125 636.683594 960.378906 636.351562 960.675781 636.140625 C 960.878906 635.996094 961.261719 635.902344 961.734375 635.886719 C 962.339844 635.863281 962.527344 635.910156 962.792969 636.144531 C 963.171875 636.484375 963.242188 636.742188 963.390625 638.386719 C 963.453125 639.066406 963.582031 639.769531 963.679688 639.945312 C 963.773438 640.121094 963.894531 640.96875 963.949219 641.824219 L 964.042969 643.382812 L 963.546875 643.898438 L 963.050781 644.410156 L 957.929688 644.445312 C 955.113281 644.464844 952.5625 644.515625 952.261719 644.5625 C 951.667969 644.652344 951.527344 644.898438 951.539062 645.820312 C 951.542969 646.105469 951.4375 646.339844 951.246094 646.476562 C 951.082031 646.589844 950.90625 646.816406 950.855469 646.972656 C 950.757812 647.273438 949.710938 647.902344 949.035156 648.0625 C 948.820312 648.113281 948.535156 648.222656 948.40625 648.300781 C 948.035156 648.535156 946.847656 648.980469 946.589844 648.984375 C 946.460938 648.984375 946.355469 648.9375 946.355469 648.878906 Z M 946.355469 648.878906 "/>
<path style="fill-rule:evenodd;fill:rgb(100%,100%,100%);fill-opacity:1;stroke-width:108850;stroke-linecap:butt;stroke-linejoin:miter;stroke:rgb(75.294118%,57.647059%,0%);stroke-opacity:1;stroke-miterlimit:4;" d="M 7350262.652229 4298376.19537 C 7409795.981486 4301937.170435 7269561.917014 3979564.192511 7269561.917014 3979564.192511 C 7427325.239544 4140645.946912 8022989.272829 4179188.265261 8022989.272829 4179188.265261 C 7665623.92693 4021458.016802 7308258.581031 2829997.653946 7350262.652229 1880474.126374 C 7388793.945887 927389.623738 7213666.735657 552439.896327 7073432.671186 412305.054071 C 6894667.313057 233627.893467 6320005.315371 75897.645008 5941637.933873 54950.732863 C 5727814.059626 44267.807668 5762872.575744 216032.487264 5762872.575744 216032.487264 C 5366975.936187 114439.963357 4970913.926272 75897.645008 4792148.568143 195085.575118 C 4623966.912993 307151.555099 4588908.396875 867900.393243 4711613.203287 769659.375279 C 5009445.219929 531492.984181 5268745.942914 748712.463133 5447511.301043 1008035.235499 C 5605109.253214 1235728.170525 5594690.920594 1880474.126374 5366810.565828 2633934.556261 C 5128511.878443 3425727.835374 4476787.293441 4217730.583609 4476787.293441 4217730.583609 C 4830679.8618 4217730.583609 5328279.272171 3902479.555814 5328279.272171 3902479.555814 L 5209212.613657 4396407.744213 C 5584107.217615 4217730.583609 5881939.234257 3941021.874162 5881939.234257 3941021.874162 L 6239469.950515 4315971.601573 C 6358536.609029 4158241.353115 6596835.296414 3941021.874162 6596835.296414 3941021.874162 C 6596835.296414 3941021.874162 6894667.313057 4256272.901957 7350262.652229 4298376.19537 Z M 7350262.652229 4298376.19537 " transform="matrix(0.0000236212,0,0,0.0000186483,802.37,341.666667)"/>
<path style="fill:none;stroke-width:113540;stroke-linecap:butt;stroke-linejoin:miter;stroke:rgb(75.294118%,57.647059%,0%);stroke-opacity:1;stroke-miterlimit:4;" d="M 5902941.269856 2017257.462687 C 5902941.269856 2017257.462687 5703339.246487 3485426.53499 5328279.272171 3902479.555814 " transform="matrix(0.0000236212,0,0,0.0000186483,802.37,341.666667)"/>
<path style="fill:none;stroke-width:113540;stroke-linecap:butt;stroke-linejoin:miter;stroke:rgb(75.294118%,57.647059%,0%);stroke-opacity:1;stroke-miterlimit:4;" d="M 6218467.914916 1978505.675217 C 6218467.914916 1978505.675217 6141239.957242 3464270.153722 5881939.234257 3940812.405041 " transform="matrix(0.0000236212,0,0,0.0000186483,802.37,341.666667)"/>
<path style="fill:none;stroke-width:113540;stroke-linecap:butt;stroke-linejoin:miter;stroke:rgb(75.294118%,57.647059%,0%);stroke-opacity:1;stroke-miterlimit:4;" d="M 6498770.6735 2038204.374832 C 6498770.6735 2038204.374832 6498770.6735 3664103.695594 6596835.296414 3940812.405041 " transform="matrix(0.0000236212,0,0,0.0000186483,802.37,341.666667)"/>
<path style="fill:none;stroke-width:113540;stroke-linecap:butt;stroke-linejoin:miter;stroke:rgb(75.294118%,57.647059%,0%);stroke-opacity:1;stroke-miterlimit:4;" d="M 6852663.241859 2118849.986594 C 6852663.241859 2118849.986594 6933363.977073 3485426.53499 7269727.287373 3979564.192511 " transform="matrix(0.0000236212,0,0,0.0000186483,802.37,341.666667)"/>
<path style="fill-rule:evenodd;fill:rgb(75.294118%,57.647059%,0%);fill-opacity:1;stroke-width:31655;stroke-linecap:butt;stroke-linejoin:miter;stroke:rgb(75.294118%,57.647059%,0%);stroke-opacity:1;stroke-miterlimit:4;" d="M 5542103.146417 1305900.326213 C 5524573.888358 1176238.94003 5492988.149781 1074646.416123 5447511.301043 1008035.235499 C 5268745.942914 748712.463133 5009445.219929 531492.984181 4711613.203287 769659.375279 C 4711613.203287 769659.375279 4813315.974101 454408.347484 5030447.255528 443934.891411 C 5198628.910678 433461.435338 5580634.440075 570035.302529 5916997.750375 1144609.10269 C 5916997.750375 1144609.10269 5668280.73037 1088680.847261 5608747.401113 1141257.596747 C 5496626.29768 1239289.145589 5542103.146417 1305900.326213 5542103.146417 1305900.326213 Z M 5542103.146417 1305900.326213 " transform="matrix(0.0000236212,0,0,0.0000186483,802.37,341.666667)"/>
<path style="fill-rule:evenodd;fill:rgb(75.294118%,57.647059%,0%);fill-opacity:1;stroke-width:31655;stroke-linecap:butt;stroke-linejoin:miter;stroke:rgb(75.294118%,57.647059%,0%);stroke-opacity:1;stroke-miterlimit:4;" d="M 4680027.464709 380675.216731 C 4704667.648207 300239.074091 4743198.941865 226505.943337 4792148.568143 195085.575118 C 4970913.926272 75897.645008 5366975.936187 114439.963357 5762872.575744 216032.487264 C 5762872.575744 216032.487264 5727814.059626 44477.27679 5941637.933873 54950.732863 C 6320005.315371 75897.645008 6894667.313057 233627.893467 7073432.671186 412305.054071 C 7115436.742383 457759.853427 7164551.73902 524371.034051 7206555.810218 625963.557959 L 7199610.255138 625963.557959 C 7111963.964843 503424.121905 6863081.574479 510336.602914 6803548.245222 517458.553043 C 6708956.399848 527932.009116 6649423.070591 524371.034051 6523245.486639 556000.871392 C 6463712.157382 570035.302529 6372593.089548 587421.23961 6323478.092911 625963.557959 C 6284946.799253 657593.395299 6253361.060675 773220.350344 6193827.731419 773220.350344 C 6099235.886044 773220.350344 6106181.441124 748712.463133 6081706.627985 720643.600858 C 6050120.889407 682101.28251 6032591.631348 625963.557959 6001005.892771 629524.533024 C 5902941.269856 647119.939226 5745343.317685 570035.302529 5545575.923957 412305.054071 C 5345808.530229 254574.805613 5268745.942914 216032.487264 5009445.219929 233627.893467 C 4753617.274485 254574.805613 4673081.909629 398270.622933 4673081.909629 398270.622933 Z M 4680027.464709 380675.216731 " transform="matrix(0.0000236212,0,0,0.0000186483,802.37,341.666667)"/>
<path style=" stroke:none;fill-rule:evenodd;fill:rgb(100%,100%,100%);fill-opacity:1;" d="M 947.519531 353.082031 C 948.925781 353.082031 950 352.230469 950 351.121094 C 950 350.007812 948.925781 349.160156 947.519531 349.160156 C 946.191406 349.160156 945.035156 350.007812 945.035156 351.121094 C 945.035156 352.230469 946.191406 353.082031 947.519531 353.082031 Z M 947.519531 353.082031 "/>
<path style="fill:none;stroke-width:0.91572;stroke-linecap:butt;stroke-linejoin:miter;stroke:rgb(75.294118%,57.647059%,0%);stroke-opacity:1;stroke-miterlimit:4;" d="M 477.220189 268.040625 C 476.938939 268.057031 476.655839 268.066406 476.372738 268.066406 C 470.166735 268.066406 455.752673 264.883594 450.197985 260.109375 C 444.378701 264.517969 429.725946 268.066406 423.621711 268.066406 C 423.33491 268.066406 423.051809 268.03125 422.77241 267.979688 C 422.757607 269.369531 422.82977 270.813281 422.916735 272.123437 C 423.238692 277.024219 424.099095 281.941406 425.403577 286.675781 C 429.511308 301.570312 437.919202 314.228906 449.975946 323.83125 C 462.041941 314.219531 470.459087 301.551562 474.576069 286.645312 C 475.884252 281.913281 476.746505 276.99375 477.072163 272.095312 C 477.157278 270.810937 477.229441 269.402344 477.220189 268.040625 Z M 477.220189 268.040625 " transform="matrix(2.111111,0,0,1.666667,0,0)"/>
</g>
</svg>
