<?xml version="1.0" encoding="UTF-8"?>
<svg xmlns="http://www.w3.org/2000/svg" xmlns:xlink="http://www.w3.org/1999/xlink" width="380pt" height="200pt" viewBox="0 0 1900 1000" version="1.1">
<defs>
<clipPath id="clip1">
  <path d="M 59 0 L 757 0 L 757 568 L 59 568 Z M 59 0 "/>
</clipPath>
<clipPath id="clip2">
  <path d="M -282.148438 717.25 C 81.621094 717.25 376.515625 484.4375 376.515625 197.25 C 376.515625 -89.9375 81.621094 -322.75 -282.148438 -322.75 L 1098.515625 -322.75 C 734.746094 -322.75 439.851562 -89.9375 439.851562 197.25 C 439.851562 484.4375 734.746094 717.25 1098.515625 717.25 Z M -282.148438 717.25 "/>
</clipPath>
<clipPath id="clip3">
  <path d="M 0 0 L 877 0 L 877 473 L 0 473 Z M 0 0 "/>
</clipPath>
<clipPath id="clip4">
  <path d="M -250.484375 -347.75 C -250.484375 -60.5625 44.410156 172.25 408.183594 172.25 C 771.953125 172.25 1066.851562 -60.5625 1066.851562 -347.75 L 1066.851562 742.25 C 1066.851562 455.0625 771.953125 222.25 408.183594 222.25 C 44.410156 222.25 -250.484375 455.0625 -250.484375 742.25 Z M -250.484375 -347.75 "/>
</clipPath>
<clipPath id="clip5">
  <path d="M 1143 432 L 1841 432 L 1841 1000 L 1143 1000 Z M 1143 432 "/>
</clipPath>
<clipPath id="clip6">
  <path d="M 801.484375 1322.75 C 1165.253906 1322.75 1460.148438 1089.9375 1460.148438 802.75 C 1460.148438 515.5625 1165.253906 282.75 801.484375 282.75 L 2182.148438 282.75 C 1818.378906 282.75 1523.484375 515.5625 1523.484375 802.75 C 1523.484375 1089.9375 1818.378906 1322.75 2182.148438 1322.75 Z M 801.484375 1322.75 "/>
</clipPath>
<clipPath id="clip7">
  <path d="M 1023 527 L 1900 527 L 1900 1000 L 1023 1000 Z M 1023 527 "/>
</clipPath>
<clipPath id="clip8">
  <path d="M 833.148438 257.75 C 833.148438 544.9375 1128.046875 777.75 1491.816406 777.75 C 1855.589844 777.75 2150.484375 544.9375 2150.484375 257.75 L 2150.484375 1347.75 C 2150.484375 1060.5625 1855.589844 827.75 1491.816406 827.75 C 1128.046875 827.75 833.148438 1060.5625 833.148438 1347.75 Z M 833.148438 257.75 "/>
</clipPath>
<clipPath id="clip9">
  <path d="M 1143 0 L 1841 0 L 1841 568 L 1143 568 Z M 1143 0 "/>
</clipPath>
<clipPath id="clip10">
  <path d="M 801.484375 717.25 C 1165.253906 717.25 1460.148438 484.4375 1460.148438 197.25 C 1460.148438 -89.9375 1165.253906 -322.75 801.484375 -322.75 L 2182.148438 -322.75 C 1818.378906 -322.75 1523.484375 -89.9375 1523.484375 197.25 C 1523.484375 484.4375 1818.378906 717.25 2182.148438 717.25 Z M 801.484375 717.25 "/>
</clipPath>
<clipPath id="clip11">
  <path d="M 1023 0 L 1900 0 L 1900 473 L 1023 473 Z M 1023 0 "/>
</clipPath>
<clipPath id="clip12">
  <path d="M 833.148438 -347.75 C 833.148438 -60.5625 1128.046875 172.25 1491.816406 172.25 C 1855.589844 172.25 2150.484375 -60.5625 2150.484375 -347.75 L 2150.484375 742.25 C 2150.484375 455.0625 1855.589844 222.25 1491.816406 222.25 C 1128.046875 222.25 833.148438 455.0625 833.148438 742.25 Z M 833.148438 -347.75 "/>
</clipPath>
<clipPath id="clip13">
  <path d="M 59 432 L 757 432 L 757 1000 L 59 1000 Z M 59 432 "/>
</clipPath>
<clipPath id="clip14">
  <path d="M -282.148438 1322.75 C 81.621094 1322.75 376.515625 1089.9375 376.515625 802.75 C 376.515625 515.5625 81.621094 282.75 -282.148438 282.75 L 1098.515625 282.75 C 734.746094 282.75 439.851562 515.5625 439.851562 802.75 C 439.851562 1089.9375 734.746094 1322.75 1098.515625 1322.75 Z M -282.148438 1322.75 "/>
</clipPath>
<clipPath id="clip15">
  <path d="M 0 527 L 877 527 L 877 1000 L 0 1000 Z M 0 527 "/>
</clipPath>
<clipPath id="clip16">
  <path d="M -250.484375 257.75 C -250.484375 544.9375 44.410156 777.75 408.183594 777.75 C 771.953125 777.75 1066.851562 544.9375 1066.851562 257.75 L 1066.851562 1347.75 C 1066.851562 1060.5625 771.953125 827.75 408.183594 827.75 C 44.410156 827.75 -250.484375 1060.5625 -250.484375 1347.75 Z M -250.484375 257.75 "/>
</clipPath>
</defs>
<g id="surface1">
<rect x="0" y="0" width="1900" height="1000" style="fill:rgb(100%,100%,100%);fill-opacity:1;stroke:none;"/>
<path style=" stroke:none;fill-rule:nonzero;fill:rgb(100%,0%,0%);fill-opacity:1;" d="M 823.332031 0 L 823.332031 400 L 0 400 L 0 600 L 823.332031 600 L 823.332031 1000 L 1076.667969 1000 L 1076.667969 600 L 1900 600 L 1900 400 L 1076.667969 400 L 1076.667969 0 Z M 823.332031 0 "/>
<g clip-path="url(#clip1)" clip-rule="nonzero">
<g clip-path="url(#clip2)" clip-rule="nonzero">
<path style=" stroke:none;fill-rule:nonzero;fill:rgb(100%,0%,0%);fill-opacity:1;" d="M 59.851562 567.25 C 59.851562 415.371094 215.804688 292.25 408.183594 292.25 C 600.5625 292.25 756.515625 415.371094 756.515625 567.25 L 756.515625 -172.75 C 756.515625 -20.871094 600.5625 102.25 408.183594 102.25 C 215.804688 102.25 59.851562 -20.871094 59.851562 -172.75 Z M 59.851562 567.25 "/>
</g>
</g>
<g clip-path="url(#clip3)" clip-rule="nonzero">
<g clip-path="url(#clip4)" clip-rule="nonzero">
<path style=" stroke:none;fill-rule:nonzero;fill:rgb(100%,0%,0%);fill-opacity:1;" d="M -60.484375 -77.75 C 131.894531 -77.75 287.851562 45.371094 287.851562 197.25 C 287.851562 349.128906 131.894531 472.25 -60.484375 472.25 L 876.851562 472.25 C 684.472656 472.25 528.515625 349.128906 528.515625 197.25 C 528.515625 45.371094 684.472656 -77.75 876.851562 -77.75 Z M -60.484375 -77.75 "/>
</g>
</g>
<g clip-path="url(#clip5)" clip-rule="nonzero">
<g clip-path="url(#clip6)" clip-rule="nonzero">
<path style=" stroke:none;fill-rule:nonzero;fill:rgb(100%,0%,0%);fill-opacity:1;" d="M 1143.484375 1172.75 C 1143.484375 1020.871094 1299.4375 897.75 1491.816406 897.75 C 1684.195312 897.75 1840.148438 1020.871094 1840.148438 1172.75 L 1840.148438 432.75 C 1840.148438 584.628906 1684.195312 707.75 1491.816406 707.75 C 1299.4375 707.75 1143.484375 584.628906 1143.484375 432.75 Z M 1143.484375 1172.75 "/>
</g>
</g>
<g clip-path="url(#clip7)" clip-rule="nonzero">
<g clip-path="url(#clip8)" clip-rule="nonzero">
<path style=" stroke:none;fill-rule:nonzero;fill:rgb(100%,0%,0%);fill-opacity:1;" d="M 1023.148438 527.75 C 1215.527344 527.75 1371.484375 650.871094 1371.484375 802.75 C 1371.484375 954.628906 1215.527344 1077.75 1023.148438 1077.75 L 1960.484375 1077.75 C 1768.105469 1077.75 1612.148438 954.628906 1612.148438 802.75 C 1612.148438 650.871094 1768.105469 527.75 1960.484375 527.75 Z M 1023.148438 527.75 "/>
</g>
</g>
<g clip-path="url(#clip9)" clip-rule="nonzero">
<g clip-path="url(#clip10)" clip-rule="nonzero">
<path style=" stroke:none;fill-rule:nonzero;fill:rgb(100%,0%,0%);fill-opacity:1;" d="M 1143.484375 567.25 C 1143.484375 415.371094 1299.4375 292.25 1491.816406 292.25 C 1684.195312 292.25 1840.148438 415.371094 1840.148438 567.25 L 1840.148438 -172.75 C 1840.148438 -20.871094 1684.195312 102.25 1491.816406 102.25 C 1299.4375 102.25 1143.484375 -20.871094 1143.484375 -172.75 Z M 1143.484375 567.25 "/>
</g>
</g>
<g clip-path="url(#clip11)" clip-rule="nonzero">
<g clip-path="url(#clip12)" clip-rule="nonzero">
<path style=" stroke:none;fill-rule:nonzero;fill:rgb(100%,0%,0%);fill-opacity:1;" d="M 1023.148438 -77.75 C 1215.527344 -77.75 1371.484375 45.371094 1371.484375 197.25 C 1371.484375 349.128906 1215.527344 472.25 1023.148438 472.25 L 1960.484375 472.25 C 1768.105469 472.25 1612.148438 349.128906 1612.148438 197.25 C 1612.148438 45.371094 1768.105469 -77.75 1960.484375 -77.75 Z M 1023.148438 -77.75 "/>
</g>
</g>
<g clip-path="url(#clip13)" clip-rule="nonzero">
<g clip-path="url(#clip14)" clip-rule="nonzero">
<path style=" stroke:none;fill-rule:nonzero;fill:rgb(100%,0%,0%);fill-opacity:1;" d="M 59.851562 1172.75 C 59.851562 1020.871094 215.804688 897.75 408.183594 897.75 C 600.5625 897.75 756.515625 1020.871094 756.515625 1172.75 L 756.515625 432.75 C 756.515625 584.628906 600.5625 707.75 408.183594 707.75 C 215.804688 707.75 59.851562 584.628906 59.851562 432.75 Z M 59.851562 1172.75 "/>
</g>
</g>
<g clip-path="url(#clip15)" clip-rule="nonzero">
<g clip-path="url(#clip16)" clip-rule="nonzero">
<path style=" stroke:none;fill-rule:nonzero;fill:rgb(100%,0%,0%);fill-opacity:1;" d="M -60.484375 527.75 C 131.894531 527.75 287.851562 650.871094 287.851562 802.75 C 287.851562 954.628906 131.894531 1077.75 -60.484375 1077.75 L 876.851562 1077.75 C 684.472656 1077.75 528.515625 954.628906 528.515625 802.75 C 528.515625 650.871094 684.472656 527.75 876.851562 527.75 Z M -60.484375 527.75 "/>
</g>
</g>
</g>
</svg>
