<?xml version="1.0" encoding="UTF-8"?>
<svg xmlns="http://www.w3.org/2000/svg" xmlns:xlink="http://www.w3.org/1999/xlink" width="1900pt" height="1000pt" viewBox="0 0 1900 1000" version="1.1">
<g id="surface1">
<rect x="0" y="0" width="1900" height="1000" style="fill:rgb(0%,0%,0%);fill-opacity:1;stroke:none;"/>
<path style=" stroke:none;fill-rule:nonzero;fill:rgb(100%,100%,100%);fill-opacity:1;" d="M 0 0 L 1900 0 L 1900 343.75 L 0 343.75 Z M 0 0 "/>
<path style=" stroke:none;fill-rule:nonzero;fill:rgb(0%,44.313725%,40.784314%);fill-opacity:1;" d="M 0 0 L 1900 0 L 1900 312.5 L 0 312.5 Z M 0 0 "/>
<path style=" stroke:none;fill-rule:nonzero;fill:rgb(100%,100%,100%);fill-opacity:1;" d="M 0 655.832031 L 1900 655.832031 L 1900 1000 L 0 1000 Z M 0 655.832031 "/>
<path style=" stroke:none;fill-rule:nonzero;fill:rgb(98.823529%,88.235294%,0%);fill-opacity:1;" d="M 0 687.5 L 1900 687.5 L 1900 1000 L 0 1000 Z M 0 687.5 "/>
<path style=" stroke:none;fill-rule:nonzero;fill:rgb(82.352941%,6.27451%,20.392157%);fill-opacity:1;" d="M 0 0 L 0 1000 L 831.25 500 Z M 0 0 "/>
<path style=" stroke:none;fill-rule:nonzero;fill:rgb(98.823529%,88.235294%,0%);fill-opacity:1;" d="M 431.445312 687.472656 L 277.011719 598.207031 L 122.785156 687.5 L 182.597656 543.960938 L 27.371094 455.753906 L 218.773438 456.304688 L 277.066406 312.5 L 335.546875 456.382812 L 526.796875 455.710938 L 371.539062 544.082031 Z M 431.445312 687.472656 "/>
<path style="fill-rule:evenodd;fill:rgb(100%,100%,100%);fill-opacity:1;stroke-width:1.25;stroke-linecap:round;stroke-linejoin:round;stroke:rgb(0%,0%,0%);stroke-opacity:1;stroke-miterlimit:4;" d="M 77.112102 167.912958 L 118.946208 167.912958 C 122.311327 171.689842 129.821519 173.228504 136.974783 167.868305 C 150.087141 160.688505 175.454052 167.912958 175.454052 167.912958 L 180.449586 162.606715 L 168.272881 122.644306 L 163.901605 117.961342 C 163.901605 117.961342 154.537734 112.342529 136.741237 114.216087 C 118.946208 116.089645 112.702158 113.592808 112.702158 113.592808 C 112.702158 113.592808 97.092768 115.464505 92.721492 117.650633 C 92.241181 118.039484 87.727427 122.644306 87.727427 122.644306 Z M 77.112102 167.912958 " transform="matrix(2.659407,0,0,2.099532,-62.09979,234.840333)"/>
<path style="fill:none;stroke-width:1.25;stroke-linecap:round;stroke-linejoin:round;stroke:rgb(0%,0%,0%);stroke-opacity:1;stroke-miterlimit:4;" d="M 85.54179 157.611182 C 85.54179 157.611182 125.501653 152.615648 137.0541 167.912958 C 130.529501 172.376379 124.786327 172.744765 118.633345 168.225528 C 119.614532 166.59384 132.995688 152.615648 167.024365 157.298612 " transform="matrix(2.659407,0,0,2.099532,-62.09979,234.840333)"/>
<path style="fill-rule:nonzero;fill:rgb(0%,0%,0%);fill-opacity:1;stroke-width:1.25;stroke-linecap:round;stroke-linejoin:round;stroke:rgb(0%,0%,0%);stroke-opacity:1;stroke-miterlimit:4;" d="M 128.311549 117.650633 L 128.000154 161.670867 M 163.901605 118.273912 L 171.39564 153.240787 M 93.134237 117.725054 L 88.975944 135.757349 " transform="matrix(2.659407,0,0,2.099532,-62.09979,234.840333)"/>
<path style="fill-rule:evenodd;fill:rgb(0%,0%,0%);fill-opacity:1;stroke-width:1.25;stroke-linecap:round;stroke-linejoin:round;stroke:rgb(0%,0%,0%);stroke-opacity:1;stroke-miterlimit:4;" d="M 49.941451 172.705694 L 59.779759 184.241004 C 60.935738 184.929402 61.96099 184.88661 62.987711 184.241004 L 77.567443 166.744543 L 83.692517 159.162867 C 84.63992 158.039104 84.942502 156.786965 84.858778 155.663202 L 96.565453 145.260957 C 97.523139 145.326076 98.094519 145.435847 99.052204 145.499105 C 97.919726 145.207002 97.08983 144.656283 97.981418 143.415307 L 100.604771 141.374302 L 102.646462 143.999515 C 102.646462 143.999515 99.730809 147.789423 99.43851 147.789423 C 99.147679 147.789423 96.230557 147.789423 96.230557 147.789423 L 90.106952 153.330093 L 92.784653 155.696692 L 96.813688 166.744543 L 101.7725 163.244878 L 98.564548 151.873295 L 105.563583 144.291619 L 102.937293 140.207747 L 104.688153 137.874637 C 104.688153 137.874637 128.909368 153.125434 138.242394 149.043423 C 138.493566 149.134589 138.806429 138.166741 138.806429 138.166741 C 138.806429 138.166741 113.72741 135.543388 113.14428 130.585065 C 112.561149 125.628602 118.684754 125.044395 118.684754 125.044395 L 116.059933 121.254487 L 116.644532 119.211621 L 121.017276 124.752291 L 130.933433 116.296164 L 189.253829 182.782346 C 192.43828 181.491135 193.118354 180.713432 193.337211 177.533779 C 193.254956 177.453776 136.181608 111.922049 136.181608 111.922049 L 140.555821 107.25769 C 141.418031 106.284631 141.720613 105.871592 141.722082 104.340373 L 148.428817 98.507599 C 150.445538 99.201578 151.732244 100.410925 152.803031 102.007263 L 171.241412 86.380638 C 171.727599 86.866238 173.203786 87.351837 174.205536 86.80484 L 204.691365 57.544222 L 171.466145 81.011137 L 170.299884 80.136686 C 170.299884 79.165488 171.504335 78.923618 170.299884 77.221229 C 169.008771 75.671405 167.091931 78.678028 166.801101 78.678028 C 166.508801 78.678028 161.99211 77.081689 161.00211 75.059289 L 160.677496 80.42879 L 152.2199 88.30257 L 145.805464 88.010466 L 136.472438 97.050801 L 135.307646 100.548604 L 136.764738 103.465922 C 136.764738 103.465922 131.807394 107.840037 131.807394 107.547933 C 131.807394 107.25769 130.805644 106.258583 130.761578 106.130206 L 135.015346 102.299367 L 135.598477 99.674154 L 134.179575 97.458258 C 133.749204 97.770827 128.308611 103.465922 128.016311 102.881714 C 127.530125 102.338438 112.270319 85.095009 112.270319 85.095009 L 113.14428 81.885588 L 103.229592 71.096352 C 99.614771 69.849794 93.898035 69.639554 92.731774 77.511473 C 91.824029 79.360844 84.275647 77.803577 84.275647 77.803577 L 80.192265 78.678028 L 57.154937 111.339702 L 69.986746 126.793297 L 96.230557 93.551136 L 97.010513 84.133113 L 102.517204 90.28962 C 104.353257 90.525908 106.102648 90.546374 107.765378 89.707273 L 123.314546 107.062334 L 120.726446 109.588939 C 121.600407 110.560138 122.202632 111.181556 123.078063 112.154615 C 123.953493 111.570408 124.787795 110.870847 125.663226 110.286639 C 125.955525 110.677351 126.441712 111.415983 126.732543 111.804835 C 125.42968 112.513698 124.516059 113.45885 123.213196 114.167713 C 121.12744 112.807663 119.115125 111.116437 119.267885 108.422384 L 110.519458 115.713817 L 110.228627 117.170615 L 84.275647 138.749088 L 81.941656 139.041192 L 81.358526 145.748417 L 98.272249 131.75162 L 98.272249 129.710614 L 100.02164 131.167412 L 113.14428 120.670279 C 113.14428 120.670279 114.01971 121.836834 113.72741 121.836834 C 113.43658 121.836834 102.063331 132.335827 102.063331 132.335827 L 101.7725 133.500522 L 99.730809 135.251284 L 98.564548 134.376833 L 82.817087 148.37363 L 80.484564 148.37363 L 71.736138 157.121861 C 69.479996 157.317217 67.524966 157.557226 65.612533 158.870763 Z M 49.941451 172.705694 " transform="matrix(2.659407,0,0,2.099532,-62.09979,234.840333)"/>
</g>
</svg>
