<?xml version="1.0" encoding="UTF-8"?>
<svg xmlns="http://www.w3.org/2000/svg" xmlns:xlink="http://www.w3.org/1999/xlink" width="1900pt" height="1000pt" viewBox="0 0 1900 1000" version="1.1">
<g id="surface1">
<rect x="0" y="0" width="1900" height="1000" style="fill:rgb(100%,100%,100%);fill-opacity:1;stroke:none;"/>
<path style=" stroke:none;fill-rule:nonzero;fill:rgb(69.803922%,13.333333%,20.392157%);fill-opacity:1;" d="M 0 0 L 1900 0 L 1900 76.921875 L 0 76.921875 Z M 0 0 "/>
<path style=" stroke:none;fill-rule:nonzero;fill:rgb(69.803922%,13.333333%,20.392157%);fill-opacity:1;" d="M 0 153.847656 L 1900 153.847656 L 1900 230.769531 L 0 230.769531 Z M 0 153.847656 "/>
<path style=" stroke:none;fill-rule:nonzero;fill:rgb(69.803922%,13.333333%,20.392157%);fill-opacity:1;" d="M 0 307.691406 L 1900 307.691406 L 1900 384.617188 L 0 384.617188 Z M 0 307.691406 "/>
<path style=" stroke:none;fill-rule:nonzero;fill:rgb(69.803922%,13.333333%,20.392157%);fill-opacity:1;" d="M 0 461.539062 L 1900 461.539062 L 1900 538.460938 L 0 538.460938 Z M 0 461.539062 "/>
<path style=" stroke:none;fill-rule:nonzero;fill:rgb(69.803922%,13.333333%,20.392157%);fill-opacity:1;" d="M 0 615.382812 L 1900 615.382812 L 1900 692.308594 L 0 692.308594 Z M 0 615.382812 "/>
<path style=" stroke:none;fill-rule:nonzero;fill:rgb(69.803922%,13.333333%,20.392157%);fill-opacity:1;" d="M 0 769.230469 L 1900 769.230469 L 1900 846.152344 L 0 846.152344 Z M 0 769.230469 "/>
<path style=" stroke:none;fill-rule:nonzero;fill:rgb(69.803922%,13.333333%,20.392157%);fill-opacity:1;" d="M 0 923.078125 L 1900 923.078125 L 1900 1000 L 0 1000 Z M 0 923.078125 "/>
<path style=" stroke:none;fill-rule:nonzero;fill:rgb(23.529412%,23.137255%,43.137255%);fill-opacity:1;" d="M 0 0 L 760 0 L 760 538.460938 L 0 538.460938 Z M 0 0 "/>
<path style=" stroke:none;fill-rule:nonzero;fill:rgb(100%,100%,100%);fill-opacity:1;" d="M 73.097656 59.113281 L 46.894531 78.148438 L 56.902344 47.347656 Z M 73.097656 59.113281 "/>
<path style=" stroke:none;fill-rule:nonzero;fill:rgb(100%,100%,100%);fill-opacity:1;" d="M 61.90625 62.75 L 35.707031 43.714844 L 68.09375 43.714844 Z M 61.90625 62.75 "/>
<path style=" stroke:none;fill-rule:nonzero;fill:rgb(100%,100%,100%);fill-opacity:1;" d="M 54.992188 53.230469 L 65 22.429688 L 75.007812 53.230469 Z M 54.992188 53.230469 "/>
<path style=" stroke:none;fill-rule:nonzero;fill:rgb(100%,100%,100%);fill-opacity:1;" d="M 61.90625 43.714844 L 94.292969 43.714844 L 68.09375 62.75 Z M 61.90625 43.714844 "/>
<path style=" stroke:none;fill-rule:nonzero;fill:rgb(100%,100%,100%);fill-opacity:1;" d="M 73.097656 47.347656 L 83.105469 78.148438 L 56.902344 59.113281 Z M 73.097656 47.347656 "/>
<path style=" stroke:none;fill-rule:nonzero;fill:rgb(100%,100%,100%);fill-opacity:1;" d="M 199.097656 59.113281 L 172.894531 78.148438 L 182.902344 47.347656 Z M 199.097656 59.113281 "/>
<path style=" stroke:none;fill-rule:nonzero;fill:rgb(100%,100%,100%);fill-opacity:1;" d="M 187.90625 62.75 L 161.707031 43.714844 L 194.09375 43.714844 Z M 187.90625 62.75 "/>
<path style=" stroke:none;fill-rule:nonzero;fill:rgb(100%,100%,100%);fill-opacity:1;" d="M 180.992188 53.230469 L 191 22.429688 L 201.007812 53.230469 Z M 180.992188 53.230469 "/>
<path style=" stroke:none;fill-rule:nonzero;fill:rgb(100%,100%,100%);fill-opacity:1;" d="M 187.90625 43.714844 L 220.292969 43.714844 L 194.09375 62.75 Z M 187.90625 43.714844 "/>
<path style=" stroke:none;fill-rule:nonzero;fill:rgb(100%,100%,100%);fill-opacity:1;" d="M 199.097656 47.347656 L 209.105469 78.148438 L 182.902344 59.113281 Z M 199.097656 47.347656 "/>
<path style=" stroke:none;fill-rule:nonzero;fill:rgb(100%,100%,100%);fill-opacity:1;" d="M 325.097656 59.113281 L 298.894531 78.148438 L 308.902344 47.347656 Z M 325.097656 59.113281 "/>
<path style=" stroke:none;fill-rule:nonzero;fill:rgb(100%,100%,100%);fill-opacity:1;" d="M 313.90625 62.75 L 287.707031 43.714844 L 320.09375 43.714844 Z M 313.90625 62.75 "/>
<path style=" stroke:none;fill-rule:nonzero;fill:rgb(100%,100%,100%);fill-opacity:1;" d="M 306.992188 53.230469 L 317 22.429688 L 327.007812 53.230469 Z M 306.992188 53.230469 "/>
<path style=" stroke:none;fill-rule:nonzero;fill:rgb(100%,100%,100%);fill-opacity:1;" d="M 313.90625 43.714844 L 346.292969 43.714844 L 320.09375 62.75 Z M 313.90625 43.714844 "/>
<path style=" stroke:none;fill-rule:nonzero;fill:rgb(100%,100%,100%);fill-opacity:1;" d="M 325.097656 47.347656 L 335.105469 78.148438 L 308.902344 59.113281 Z M 325.097656 47.347656 "/>
<path style=" stroke:none;fill-rule:nonzero;fill:rgb(100%,100%,100%);fill-opacity:1;" d="M 451.097656 59.113281 L 424.894531 78.148438 L 434.902344 47.347656 Z M 451.097656 59.113281 "/>
<path style=" stroke:none;fill-rule:nonzero;fill:rgb(100%,100%,100%);fill-opacity:1;" d="M 439.90625 62.75 L 413.707031 43.714844 L 446.09375 43.714844 Z M 439.90625 62.75 "/>
<path style=" stroke:none;fill-rule:nonzero;fill:rgb(100%,100%,100%);fill-opacity:1;" d="M 432.992188 53.230469 L 443 22.429688 L 453.007812 53.230469 Z M 432.992188 53.230469 "/>
<path style=" stroke:none;fill-rule:nonzero;fill:rgb(100%,100%,100%);fill-opacity:1;" d="M 439.90625 43.714844 L 472.292969 43.714844 L 446.09375 62.75 Z M 439.90625 43.714844 "/>
<path style=" stroke:none;fill-rule:nonzero;fill:rgb(100%,100%,100%);fill-opacity:1;" d="M 451.097656 47.347656 L 461.105469 78.148438 L 434.902344 59.113281 Z M 451.097656 47.347656 "/>
<path style=" stroke:none;fill-rule:nonzero;fill:rgb(100%,100%,100%);fill-opacity:1;" d="M 577.097656 59.113281 L 550.894531 78.148438 L 560.902344 47.347656 Z M 577.097656 59.113281 "/>
<path style=" stroke:none;fill-rule:nonzero;fill:rgb(100%,100%,100%);fill-opacity:1;" d="M 565.90625 62.75 L 539.707031 43.714844 L 572.09375 43.714844 Z M 565.90625 62.75 "/>
<path style=" stroke:none;fill-rule:nonzero;fill:rgb(100%,100%,100%);fill-opacity:1;" d="M 558.992188 53.230469 L 569 22.429688 L 579.007812 53.230469 Z M 558.992188 53.230469 "/>
<path style=" stroke:none;fill-rule:nonzero;fill:rgb(100%,100%,100%);fill-opacity:1;" d="M 565.90625 43.714844 L 598.292969 43.714844 L 572.09375 62.75 Z M 565.90625 43.714844 "/>
<path style=" stroke:none;fill-rule:nonzero;fill:rgb(100%,100%,100%);fill-opacity:1;" d="M 577.097656 47.347656 L 587.105469 78.148438 L 560.902344 59.113281 Z M 577.097656 47.347656 "/>
<path style=" stroke:none;fill-rule:nonzero;fill:rgb(100%,100%,100%);fill-opacity:1;" d="M 703.097656 59.113281 L 676.894531 78.148438 L 686.902344 47.347656 Z M 703.097656 59.113281 "/>
<path style=" stroke:none;fill-rule:nonzero;fill:rgb(100%,100%,100%);fill-opacity:1;" d="M 691.90625 62.75 L 665.707031 43.714844 L 698.09375 43.714844 Z M 691.90625 62.75 "/>
<path style=" stroke:none;fill-rule:nonzero;fill:rgb(100%,100%,100%);fill-opacity:1;" d="M 684.992188 53.230469 L 695 22.429688 L 705.007812 53.230469 Z M 684.992188 53.230469 "/>
<path style=" stroke:none;fill-rule:nonzero;fill:rgb(100%,100%,100%);fill-opacity:1;" d="M 691.90625 43.714844 L 724.292969 43.714844 L 698.09375 62.75 Z M 691.90625 43.714844 "/>
<path style=" stroke:none;fill-rule:nonzero;fill:rgb(100%,100%,100%);fill-opacity:1;" d="M 703.097656 47.347656 L 713.105469 78.148438 L 686.902344 59.113281 Z M 703.097656 47.347656 "/>
<path style=" stroke:none;fill-rule:nonzero;fill:rgb(100%,100%,100%);fill-opacity:1;" d="M 136.097656 113.113281 L 109.894531 132.148438 L 119.902344 101.347656 Z M 136.097656 113.113281 "/>
<path style=" stroke:none;fill-rule:nonzero;fill:rgb(100%,100%,100%);fill-opacity:1;" d="M 124.90625 116.75 L 98.707031 97.714844 L 131.09375 97.714844 Z M 124.90625 116.75 "/>
<path style=" stroke:none;fill-rule:nonzero;fill:rgb(100%,100%,100%);fill-opacity:1;" d="M 117.992188 107.230469 L 128 76.429688 L 138.007812 107.230469 Z M 117.992188 107.230469 "/>
<path style=" stroke:none;fill-rule:nonzero;fill:rgb(100%,100%,100%);fill-opacity:1;" d="M 124.90625 97.714844 L 157.292969 97.714844 L 131.09375 116.75 Z M 124.90625 97.714844 "/>
<path style=" stroke:none;fill-rule:nonzero;fill:rgb(100%,100%,100%);fill-opacity:1;" d="M 136.097656 101.347656 L 146.105469 132.148438 L 119.902344 113.113281 Z M 136.097656 101.347656 "/>
<path style=" stroke:none;fill-rule:nonzero;fill:rgb(100%,100%,100%);fill-opacity:1;" d="M 262.097656 113.113281 L 235.894531 132.148438 L 245.902344 101.347656 Z M 262.097656 113.113281 "/>
<path style=" stroke:none;fill-rule:nonzero;fill:rgb(100%,100%,100%);fill-opacity:1;" d="M 250.90625 116.75 L 224.707031 97.714844 L 257.09375 97.714844 Z M 250.90625 116.75 "/>
<path style=" stroke:none;fill-rule:nonzero;fill:rgb(100%,100%,100%);fill-opacity:1;" d="M 243.992188 107.230469 L 254 76.429688 L 264.007812 107.230469 Z M 243.992188 107.230469 "/>
<path style=" stroke:none;fill-rule:nonzero;fill:rgb(100%,100%,100%);fill-opacity:1;" d="M 250.90625 97.714844 L 283.292969 97.714844 L 257.09375 116.75 Z M 250.90625 97.714844 "/>
<path style=" stroke:none;fill-rule:nonzero;fill:rgb(100%,100%,100%);fill-opacity:1;" d="M 262.097656 101.347656 L 272.105469 132.148438 L 245.902344 113.113281 Z M 262.097656 101.347656 "/>
<path style=" stroke:none;fill-rule:nonzero;fill:rgb(100%,100%,100%);fill-opacity:1;" d="M 388.097656 113.113281 L 361.894531 132.148438 L 371.902344 101.347656 Z M 388.097656 113.113281 "/>
<path style=" stroke:none;fill-rule:nonzero;fill:rgb(100%,100%,100%);fill-opacity:1;" d="M 376.90625 116.75 L 350.707031 97.714844 L 383.09375 97.714844 Z M 376.90625 116.75 "/>
<path style=" stroke:none;fill-rule:nonzero;fill:rgb(100%,100%,100%);fill-opacity:1;" d="M 369.992188 107.230469 L 380 76.429688 L 390.007812 107.230469 Z M 369.992188 107.230469 "/>
<path style=" stroke:none;fill-rule:nonzero;fill:rgb(100%,100%,100%);fill-opacity:1;" d="M 376.90625 97.714844 L 409.292969 97.714844 L 383.09375 116.75 Z M 376.90625 97.714844 "/>
<path style=" stroke:none;fill-rule:nonzero;fill:rgb(100%,100%,100%);fill-opacity:1;" d="M 388.097656 101.347656 L 398.105469 132.148438 L 371.902344 113.113281 Z M 388.097656 101.347656 "/>
<path style=" stroke:none;fill-rule:nonzero;fill:rgb(100%,100%,100%);fill-opacity:1;" d="M 514.097656 113.113281 L 487.894531 132.148438 L 497.902344 101.347656 Z M 514.097656 113.113281 "/>
<path style=" stroke:none;fill-rule:nonzero;fill:rgb(100%,100%,100%);fill-opacity:1;" d="M 502.90625 116.75 L 476.707031 97.714844 L 509.09375 97.714844 Z M 502.90625 116.75 "/>
<path style=" stroke:none;fill-rule:nonzero;fill:rgb(100%,100%,100%);fill-opacity:1;" d="M 495.992188 107.230469 L 506 76.429688 L 516.007812 107.230469 Z M 495.992188 107.230469 "/>
<path style=" stroke:none;fill-rule:nonzero;fill:rgb(100%,100%,100%);fill-opacity:1;" d="M 502.90625 97.714844 L 535.292969 97.714844 L 509.09375 116.75 Z M 502.90625 97.714844 "/>
<path style=" stroke:none;fill-rule:nonzero;fill:rgb(100%,100%,100%);fill-opacity:1;" d="M 514.097656 101.347656 L 524.105469 132.148438 L 497.902344 113.113281 Z M 514.097656 101.347656 "/>
<path style=" stroke:none;fill-rule:nonzero;fill:rgb(100%,100%,100%);fill-opacity:1;" d="M 640.097656 113.113281 L 613.894531 132.148438 L 623.902344 101.347656 Z M 640.097656 113.113281 "/>
<path style=" stroke:none;fill-rule:nonzero;fill:rgb(100%,100%,100%);fill-opacity:1;" d="M 628.90625 116.75 L 602.707031 97.714844 L 635.09375 97.714844 Z M 628.90625 116.75 "/>
<path style=" stroke:none;fill-rule:nonzero;fill:rgb(100%,100%,100%);fill-opacity:1;" d="M 621.992188 107.230469 L 632 76.429688 L 642.007812 107.230469 Z M 621.992188 107.230469 "/>
<path style=" stroke:none;fill-rule:nonzero;fill:rgb(100%,100%,100%);fill-opacity:1;" d="M 628.90625 97.714844 L 661.292969 97.714844 L 635.09375 116.75 Z M 628.90625 97.714844 "/>
<path style=" stroke:none;fill-rule:nonzero;fill:rgb(100%,100%,100%);fill-opacity:1;" d="M 640.097656 101.347656 L 650.105469 132.148438 L 623.902344 113.113281 Z M 640.097656 101.347656 "/>
<path style=" stroke:none;fill-rule:nonzero;fill:rgb(100%,100%,100%);fill-opacity:1;" d="M 73.097656 167.113281 L 46.894531 186.148438 L 56.902344 155.347656 Z M 73.097656 167.113281 "/>
<path style=" stroke:none;fill-rule:nonzero;fill:rgb(100%,100%,100%);fill-opacity:1;" d="M 61.90625 170.75 L 35.707031 151.714844 L 68.09375 151.714844 Z M 61.90625 170.75 "/>
<path style=" stroke:none;fill-rule:nonzero;fill:rgb(100%,100%,100%);fill-opacity:1;" d="M 54.992188 161.230469 L 65 130.429688 L 75.007812 161.230469 Z M 54.992188 161.230469 "/>
<path style=" stroke:none;fill-rule:nonzero;fill:rgb(100%,100%,100%);fill-opacity:1;" d="M 61.90625 151.714844 L 94.292969 151.714844 L 68.09375 170.75 Z M 61.90625 151.714844 "/>
<path style=" stroke:none;fill-rule:nonzero;fill:rgb(100%,100%,100%);fill-opacity:1;" d="M 73.097656 155.347656 L 83.105469 186.148438 L 56.902344 167.113281 Z M 73.097656 155.347656 "/>
<path style=" stroke:none;fill-rule:nonzero;fill:rgb(100%,100%,100%);fill-opacity:1;" d="M 199.097656 167.113281 L 172.894531 186.148438 L 182.902344 155.347656 Z M 199.097656 167.113281 "/>
<path style=" stroke:none;fill-rule:nonzero;fill:rgb(100%,100%,100%);fill-opacity:1;" d="M 187.90625 170.75 L 161.707031 151.714844 L 194.09375 151.714844 Z M 187.90625 170.75 "/>
<path style=" stroke:none;fill-rule:nonzero;fill:rgb(100%,100%,100%);fill-opacity:1;" d="M 180.992188 161.230469 L 191 130.429688 L 201.007812 161.230469 Z M 180.992188 161.230469 "/>
<path style=" stroke:none;fill-rule:nonzero;fill:rgb(100%,100%,100%);fill-opacity:1;" d="M 187.90625 151.714844 L 220.292969 151.714844 L 194.09375 170.75 Z M 187.90625 151.714844 "/>
<path style=" stroke:none;fill-rule:nonzero;fill:rgb(100%,100%,100%);fill-opacity:1;" d="M 199.097656 155.347656 L 209.105469 186.148438 L 182.902344 167.113281 Z M 199.097656 155.347656 "/>
<path style=" stroke:none;fill-rule:nonzero;fill:rgb(100%,100%,100%);fill-opacity:1;" d="M 325.097656 167.113281 L 298.894531 186.148438 L 308.902344 155.347656 Z M 325.097656 167.113281 "/>
<path style=" stroke:none;fill-rule:nonzero;fill:rgb(100%,100%,100%);fill-opacity:1;" d="M 313.90625 170.75 L 287.707031 151.714844 L 320.09375 151.714844 Z M 313.90625 170.75 "/>
<path style=" stroke:none;fill-rule:nonzero;fill:rgb(100%,100%,100%);fill-opacity:1;" d="M 306.992188 161.230469 L 317 130.429688 L 327.007812 161.230469 Z M 306.992188 161.230469 "/>
<path style=" stroke:none;fill-rule:nonzero;fill:rgb(100%,100%,100%);fill-opacity:1;" d="M 313.90625 151.714844 L 346.292969 151.714844 L 320.09375 170.75 Z M 313.90625 151.714844 "/>
<path style=" stroke:none;fill-rule:nonzero;fill:rgb(100%,100%,100%);fill-opacity:1;" d="M 325.097656 155.347656 L 335.105469 186.148438 L 308.902344 167.113281 Z M 325.097656 155.347656 "/>
<path style=" stroke:none;fill-rule:nonzero;fill:rgb(100%,100%,100%);fill-opacity:1;" d="M 451.097656 167.113281 L 424.894531 186.148438 L 434.902344 155.347656 Z M 451.097656 167.113281 "/>
<path style=" stroke:none;fill-rule:nonzero;fill:rgb(100%,100%,100%);fill-opacity:1;" d="M 439.90625 170.75 L 413.707031 151.714844 L 446.09375 151.714844 Z M 439.90625 170.75 "/>
<path style=" stroke:none;fill-rule:nonzero;fill:rgb(100%,100%,100%);fill-opacity:1;" d="M 432.992188 161.230469 L 443 130.429688 L 453.007812 161.230469 Z M 432.992188 161.230469 "/>
<path style=" stroke:none;fill-rule:nonzero;fill:rgb(100%,100%,100%);fill-opacity:1;" d="M 439.90625 151.714844 L 472.292969 151.714844 L 446.09375 170.75 Z M 439.90625 151.714844 "/>
<path style=" stroke:none;fill-rule:nonzero;fill:rgb(100%,100%,100%);fill-opacity:1;" d="M 451.097656 155.347656 L 461.105469 186.148438 L 434.902344 167.113281 Z M 451.097656 155.347656 "/>
<path style=" stroke:none;fill-rule:nonzero;fill:rgb(100%,100%,100%);fill-opacity:1;" d="M 577.097656 167.113281 L 550.894531 186.148438 L 560.902344 155.347656 Z M 577.097656 167.113281 "/>
<path style=" stroke:none;fill-rule:nonzero;fill:rgb(100%,100%,100%);fill-opacity:1;" d="M 565.90625 170.75 L 539.707031 151.714844 L 572.09375 151.714844 Z M 565.90625 170.75 "/>
<path style=" stroke:none;fill-rule:nonzero;fill:rgb(100%,100%,100%);fill-opacity:1;" d="M 558.992188 161.230469 L 569 130.429688 L 579.007812 161.230469 Z M 558.992188 161.230469 "/>
<path style=" stroke:none;fill-rule:nonzero;fill:rgb(100%,100%,100%);fill-opacity:1;" d="M 565.90625 151.714844 L 598.292969 151.714844 L 572.09375 170.75 Z M 565.90625 151.714844 "/>
<path style=" stroke:none;fill-rule:nonzero;fill:rgb(100%,100%,100%);fill-opacity:1;" d="M 577.097656 155.347656 L 587.105469 186.148438 L 560.902344 167.113281 Z M 577.097656 155.347656 "/>
<path style=" stroke:none;fill-rule:nonzero;fill:rgb(100%,100%,100%);fill-opacity:1;" d="M 703.097656 167.113281 L 676.894531 186.148438 L 686.902344 155.347656 Z M 703.097656 167.113281 "/>
<path style=" stroke:none;fill-rule:nonzero;fill:rgb(100%,100%,100%);fill-opacity:1;" d="M 691.90625 170.75 L 665.707031 151.714844 L 698.09375 151.714844 Z M 691.90625 170.75 "/>
<path style=" stroke:none;fill-rule:nonzero;fill:rgb(100%,100%,100%);fill-opacity:1;" d="M 684.992188 161.230469 L 695 130.429688 L 705.007812 161.230469 Z M 684.992188 161.230469 "/>
<path style=" stroke:none;fill-rule:nonzero;fill:rgb(100%,100%,100%);fill-opacity:1;" d="M 691.90625 151.714844 L 724.292969 151.714844 L 698.09375 170.75 Z M 691.90625 151.714844 "/>
<path style=" stroke:none;fill-rule:nonzero;fill:rgb(100%,100%,100%);fill-opacity:1;" d="M 703.097656 155.347656 L 713.105469 186.148438 L 686.902344 167.113281 Z M 703.097656 155.347656 "/>
<path style=" stroke:none;fill-rule:nonzero;fill:rgb(100%,100%,100%);fill-opacity:1;" d="M 136.097656 221.113281 L 109.894531 240.148438 L 119.902344 209.347656 Z M 136.097656 221.113281 "/>
<path style=" stroke:none;fill-rule:nonzero;fill:rgb(100%,100%,100%);fill-opacity:1;" d="M 124.90625 224.75 L 98.707031 205.714844 L 131.09375 205.714844 Z M 124.90625 224.75 "/>
<path style=" stroke:none;fill-rule:nonzero;fill:rgb(100%,100%,100%);fill-opacity:1;" d="M 117.992188 215.230469 L 128 184.429688 L 138.007812 215.230469 Z M 117.992188 215.230469 "/>
<path style=" stroke:none;fill-rule:nonzero;fill:rgb(100%,100%,100%);fill-opacity:1;" d="M 124.90625 205.714844 L 157.292969 205.714844 L 131.09375 224.75 Z M 124.90625 205.714844 "/>
<path style=" stroke:none;fill-rule:nonzero;fill:rgb(100%,100%,100%);fill-opacity:1;" d="M 136.097656 209.347656 L 146.105469 240.148438 L 119.902344 221.113281 Z M 136.097656 209.347656 "/>
<path style=" stroke:none;fill-rule:nonzero;fill:rgb(100%,100%,100%);fill-opacity:1;" d="M 262.097656 221.113281 L 235.894531 240.148438 L 245.902344 209.347656 Z M 262.097656 221.113281 "/>
<path style=" stroke:none;fill-rule:nonzero;fill:rgb(100%,100%,100%);fill-opacity:1;" d="M 250.90625 224.75 L 224.707031 205.714844 L 257.09375 205.714844 Z M 250.90625 224.75 "/>
<path style=" stroke:none;fill-rule:nonzero;fill:rgb(100%,100%,100%);fill-opacity:1;" d="M 243.992188 215.230469 L 254 184.429688 L 264.007812 215.230469 Z M 243.992188 215.230469 "/>
<path style=" stroke:none;fill-rule:nonzero;fill:rgb(100%,100%,100%);fill-opacity:1;" d="M 250.90625 205.714844 L 283.292969 205.714844 L 257.09375 224.75 Z M 250.90625 205.714844 "/>
<path style=" stroke:none;fill-rule:nonzero;fill:rgb(100%,100%,100%);fill-opacity:1;" d="M 262.097656 209.347656 L 272.105469 240.148438 L 245.902344 221.113281 Z M 262.097656 209.347656 "/>
<path style=" stroke:none;fill-rule:nonzero;fill:rgb(100%,100%,100%);fill-opacity:1;" d="M 388.097656 221.113281 L 361.894531 240.148438 L 371.902344 209.347656 Z M 388.097656 221.113281 "/>
<path style=" stroke:none;fill-rule:nonzero;fill:rgb(100%,100%,100%);fill-opacity:1;" d="M 376.90625 224.75 L 350.707031 205.714844 L 383.09375 205.714844 Z M 376.90625 224.75 "/>
<path style=" stroke:none;fill-rule:nonzero;fill:rgb(100%,100%,100%);fill-opacity:1;" d="M 369.992188 215.230469 L 380 184.429688 L 390.007812 215.230469 Z M 369.992188 215.230469 "/>
<path style=" stroke:none;fill-rule:nonzero;fill:rgb(100%,100%,100%);fill-opacity:1;" d="M 376.90625 205.714844 L 409.292969 205.714844 L 383.09375 224.75 Z M 376.90625 205.714844 "/>
<path style=" stroke:none;fill-rule:nonzero;fill:rgb(100%,100%,100%);fill-opacity:1;" d="M 388.097656 209.347656 L 398.105469 240.148438 L 371.902344 221.113281 Z M 388.097656 209.347656 "/>
<path style=" stroke:none;fill-rule:nonzero;fill:rgb(100%,100%,100%);fill-opacity:1;" d="M 514.097656 221.113281 L 487.894531 240.148438 L 497.902344 209.347656 Z M 514.097656 221.113281 "/>
<path style=" stroke:none;fill-rule:nonzero;fill:rgb(100%,100%,100%);fill-opacity:1;" d="M 502.90625 224.75 L 476.707031 205.714844 L 509.09375 205.714844 Z M 502.90625 224.75 "/>
<path style=" stroke:none;fill-rule:nonzero;fill:rgb(100%,100%,100%);fill-opacity:1;" d="M 495.992188 215.230469 L 506 184.429688 L 516.007812 215.230469 Z M 495.992188 215.230469 "/>
<path style=" stroke:none;fill-rule:nonzero;fill:rgb(100%,100%,100%);fill-opacity:1;" d="M 502.90625 205.714844 L 535.292969 205.714844 L 509.09375 224.75 Z M 502.90625 205.714844 "/>
<path style=" stroke:none;fill-rule:nonzero;fill:rgb(100%,100%,100%);fill-opacity:1;" d="M 514.097656 209.347656 L 524.105469 240.148438 L 497.902344 221.113281 Z M 514.097656 209.347656 "/>
<path style=" stroke:none;fill-rule:nonzero;fill:rgb(100%,100%,100%);fill-opacity:1;" d="M 640.097656 221.113281 L 613.894531 240.148438 L 623.902344 209.347656 Z M 640.097656 221.113281 "/>
<path style=" stroke:none;fill-rule:nonzero;fill:rgb(100%,100%,100%);fill-opacity:1;" d="M 628.90625 224.75 L 602.707031 205.714844 L 635.09375 205.714844 Z M 628.90625 224.75 "/>
<path style=" stroke:none;fill-rule:nonzero;fill:rgb(100%,100%,100%);fill-opacity:1;" d="M 621.992188 215.230469 L 632 184.429688 L 642.007812 215.230469 Z M 621.992188 215.230469 "/>
<path style=" stroke:none;fill-rule:nonzero;fill:rgb(100%,100%,100%);fill-opacity:1;" d="M 628.90625 205.714844 L 661.292969 205.714844 L 635.09375 224.75 Z M 628.90625 205.714844 "/>
<path style=" stroke:none;fill-rule:nonzero;fill:rgb(100%,100%,100%);fill-opacity:1;" d="M 640.097656 209.347656 L 650.105469 240.148438 L 623.902344 221.113281 Z M 640.097656 209.347656 "/>
<path style=" stroke:none;fill-rule:nonzero;fill:rgb(100%,100%,100%);fill-opacity:1;" d="M 73.097656 275.113281 L 46.894531 294.148438 L 56.902344 263.347656 Z M 73.097656 275.113281 "/>
<path style=" stroke:none;fill-rule:nonzero;fill:rgb(100%,100%,100%);fill-opacity:1;" d="M 61.90625 278.75 L 35.707031 259.714844 L 68.09375 259.714844 Z M 61.90625 278.75 "/>
<path style=" stroke:none;fill-rule:nonzero;fill:rgb(100%,100%,100%);fill-opacity:1;" d="M 54.992188 269.230469 L 65 238.429688 L 75.007812 269.230469 Z M 54.992188 269.230469 "/>
<path style=" stroke:none;fill-rule:nonzero;fill:rgb(100%,100%,100%);fill-opacity:1;" d="M 61.90625 259.714844 L 94.292969 259.714844 L 68.09375 278.75 Z M 61.90625 259.714844 "/>
<path style=" stroke:none;fill-rule:nonzero;fill:rgb(100%,100%,100%);fill-opacity:1;" d="M 73.097656 263.347656 L 83.105469 294.148438 L 56.902344 275.113281 Z M 73.097656 263.347656 "/>
<path style=" stroke:none;fill-rule:nonzero;fill:rgb(100%,100%,100%);fill-opacity:1;" d="M 199.097656 275.113281 L 172.894531 294.148438 L 182.902344 263.347656 Z M 199.097656 275.113281 "/>
<path style=" stroke:none;fill-rule:nonzero;fill:rgb(100%,100%,100%);fill-opacity:1;" d="M 187.90625 278.75 L 161.707031 259.714844 L 194.09375 259.714844 Z M 187.90625 278.75 "/>
<path style=" stroke:none;fill-rule:nonzero;fill:rgb(100%,100%,100%);fill-opacity:1;" d="M 180.992188 269.230469 L 191 238.429688 L 201.007812 269.230469 Z M 180.992188 269.230469 "/>
<path style=" stroke:none;fill-rule:nonzero;fill:rgb(100%,100%,100%);fill-opacity:1;" d="M 187.90625 259.714844 L 220.292969 259.714844 L 194.09375 278.75 Z M 187.90625 259.714844 "/>
<path style=" stroke:none;fill-rule:nonzero;fill:rgb(100%,100%,100%);fill-opacity:1;" d="M 199.097656 263.347656 L 209.105469 294.148438 L 182.902344 275.113281 Z M 199.097656 263.347656 "/>
<path style=" stroke:none;fill-rule:nonzero;fill:rgb(100%,100%,100%);fill-opacity:1;" d="M 325.097656 275.113281 L 298.894531 294.148438 L 308.902344 263.347656 Z M 325.097656 275.113281 "/>
<path style=" stroke:none;fill-rule:nonzero;fill:rgb(100%,100%,100%);fill-opacity:1;" d="M 313.90625 278.75 L 287.707031 259.714844 L 320.09375 259.714844 Z M 313.90625 278.75 "/>
<path style=" stroke:none;fill-rule:nonzero;fill:rgb(100%,100%,100%);fill-opacity:1;" d="M 306.992188 269.230469 L 317 238.429688 L 327.007812 269.230469 Z M 306.992188 269.230469 "/>
<path style=" stroke:none;fill-rule:nonzero;fill:rgb(100%,100%,100%);fill-opacity:1;" d="M 313.90625 259.714844 L 346.292969 259.714844 L 320.09375 278.75 Z M 313.90625 259.714844 "/>
<path style=" stroke:none;fill-rule:nonzero;fill:rgb(100%,100%,100%);fill-opacity:1;" d="M 325.097656 263.347656 L 335.105469 294.148438 L 308.902344 275.113281 Z M 325.097656 263.347656 "/>
<path style=" stroke:none;fill-rule:nonzero;fill:rgb(100%,100%,100%);fill-opacity:1;" d="M 451.097656 275.113281 L 424.894531 294.148438 L 434.902344 263.347656 Z M 451.097656 275.113281 "/>
<path style=" stroke:none;fill-rule:nonzero;fill:rgb(100%,100%,100%);fill-opacity:1;" d="M 439.90625 278.75 L 413.707031 259.714844 L 446.09375 259.714844 Z M 439.90625 278.75 "/>
<path style=" stroke:none;fill-rule:nonzero;fill:rgb(100%,100%,100%);fill-opacity:1;" d="M 432.992188 269.230469 L 443 238.429688 L 453.007812 269.230469 Z M 432.992188 269.230469 "/>
<path style=" stroke:none;fill-rule:nonzero;fill:rgb(100%,100%,100%);fill-opacity:1;" d="M 439.90625 259.714844 L 472.292969 259.714844 L 446.09375 278.75 Z M 439.90625 259.714844 "/>
<path style=" stroke:none;fill-rule:nonzero;fill:rgb(100%,100%,100%);fill-opacity:1;" d="M 451.097656 263.347656 L 461.105469 294.148438 L 434.902344 275.113281 Z M 451.097656 263.347656 "/>
<path style=" stroke:none;fill-rule:nonzero;fill:rgb(100%,100%,100%);fill-opacity:1;" d="M 577.097656 275.113281 L 550.894531 294.148438 L 560.902344 263.347656 Z M 577.097656 275.113281 "/>
<path style=" stroke:none;fill-rule:nonzero;fill:rgb(100%,100%,100%);fill-opacity:1;" d="M 565.90625 278.75 L 539.707031 259.714844 L 572.09375 259.714844 Z M 565.90625 278.75 "/>
<path style=" stroke:none;fill-rule:nonzero;fill:rgb(100%,100%,100%);fill-opacity:1;" d="M 558.992188 269.230469 L 569 238.429688 L 579.007812 269.230469 Z M 558.992188 269.230469 "/>
<path style=" stroke:none;fill-rule:nonzero;fill:rgb(100%,100%,100%);fill-opacity:1;" d="M 565.90625 259.714844 L 598.292969 259.714844 L 572.09375 278.75 Z M 565.90625 259.714844 "/>
<path style=" stroke:none;fill-rule:nonzero;fill:rgb(100%,100%,100%);fill-opacity:1;" d="M 577.097656 263.347656 L 587.105469 294.148438 L 560.902344 275.113281 Z M 577.097656 263.347656 "/>
<path style=" stroke:none;fill-rule:nonzero;fill:rgb(100%,100%,100%);fill-opacity:1;" d="M 703.097656 275.113281 L 676.894531 294.148438 L 686.902344 263.347656 Z M 703.097656 275.113281 "/>
<path style=" stroke:none;fill-rule:nonzero;fill:rgb(100%,100%,100%);fill-opacity:1;" d="M 691.90625 278.75 L 665.707031 259.714844 L 698.09375 259.714844 Z M 691.90625 278.75 "/>
<path style=" stroke:none;fill-rule:nonzero;fill:rgb(100%,100%,100%);fill-opacity:1;" d="M 684.992188 269.230469 L 695 238.429688 L 705.007812 269.230469 Z M 684.992188 269.230469 "/>
<path style=" stroke:none;fill-rule:nonzero;fill:rgb(100%,100%,100%);fill-opacity:1;" d="M 691.90625 259.714844 L 724.292969 259.714844 L 698.09375 278.75 Z M 691.90625 259.714844 "/>
<path style=" stroke:none;fill-rule:nonzero;fill:rgb(100%,100%,100%);fill-opacity:1;" d="M 703.097656 263.347656 L 713.105469 294.148438 L 686.902344 275.113281 Z M 703.097656 263.347656 "/>
<path style=" stroke:none;fill-rule:nonzero;fill:rgb(100%,100%,100%);fill-opacity:1;" d="M 136.097656 329.113281 L 109.894531 348.148438 L 119.902344 317.347656 Z M 136.097656 329.113281 "/>
<path style=" stroke:none;fill-rule:nonzero;fill:rgb(100%,100%,100%);fill-opacity:1;" d="M 124.90625 332.75 L 98.707031 313.714844 L 131.09375 313.714844 Z M 124.90625 332.75 "/>
<path style=" stroke:none;fill-rule:nonzero;fill:rgb(100%,100%,100%);fill-opacity:1;" d="M 117.992188 323.230469 L 128 292.429688 L 138.007812 323.230469 Z M 117.992188 323.230469 "/>
<path style=" stroke:none;fill-rule:nonzero;fill:rgb(100%,100%,100%);fill-opacity:1;" d="M 124.90625 313.714844 L 157.292969 313.714844 L 131.09375 332.75 Z M 124.90625 313.714844 "/>
<path style=" stroke:none;fill-rule:nonzero;fill:rgb(100%,100%,100%);fill-opacity:1;" d="M 136.097656 317.347656 L 146.105469 348.148438 L 119.902344 329.113281 Z M 136.097656 317.347656 "/>
<path style=" stroke:none;fill-rule:nonzero;fill:rgb(100%,100%,100%);fill-opacity:1;" d="M 262.097656 329.113281 L 235.894531 348.148438 L 245.902344 317.347656 Z M 262.097656 329.113281 "/>
<path style=" stroke:none;fill-rule:nonzero;fill:rgb(100%,100%,100%);fill-opacity:1;" d="M 250.90625 332.75 L 224.707031 313.714844 L 257.09375 313.714844 Z M 250.90625 332.75 "/>
<path style=" stroke:none;fill-rule:nonzero;fill:rgb(100%,100%,100%);fill-opacity:1;" d="M 243.992188 323.230469 L 254 292.429688 L 264.007812 323.230469 Z M 243.992188 323.230469 "/>
<path style=" stroke:none;fill-rule:nonzero;fill:rgb(100%,100%,100%);fill-opacity:1;" d="M 250.90625 313.714844 L 283.292969 313.714844 L 257.09375 332.75 Z M 250.90625 313.714844 "/>
<path style=" stroke:none;fill-rule:nonzero;fill:rgb(100%,100%,100%);fill-opacity:1;" d="M 262.097656 317.347656 L 272.105469 348.148438 L 245.902344 329.113281 Z M 262.097656 317.347656 "/>
<path style=" stroke:none;fill-rule:nonzero;fill:rgb(100%,100%,100%);fill-opacity:1;" d="M 388.097656 329.113281 L 361.894531 348.148438 L 371.902344 317.347656 Z M 388.097656 329.113281 "/>
<path style=" stroke:none;fill-rule:nonzero;fill:rgb(100%,100%,100%);fill-opacity:1;" d="M 376.90625 332.75 L 350.707031 313.714844 L 383.09375 313.714844 Z M 376.90625 332.75 "/>
<path style=" stroke:none;fill-rule:nonzero;fill:rgb(100%,100%,100%);fill-opacity:1;" d="M 369.992188 323.230469 L 380 292.429688 L 390.007812 323.230469 Z M 369.992188 323.230469 "/>
<path style=" stroke:none;fill-rule:nonzero;fill:rgb(100%,100%,100%);fill-opacity:1;" d="M 376.90625 313.714844 L 409.292969 313.714844 L 383.09375 332.75 Z M 376.90625 313.714844 "/>
<path style=" stroke:none;fill-rule:nonzero;fill:rgb(100%,100%,100%);fill-opacity:1;" d="M 388.097656 317.347656 L 398.105469 348.148438 L 371.902344 329.113281 Z M 388.097656 317.347656 "/>
<path style=" stroke:none;fill-rule:nonzero;fill:rgb(100%,100%,100%);fill-opacity:1;" d="M 514.097656 329.113281 L 487.894531 348.148438 L 497.902344 317.347656 Z M 514.097656 329.113281 "/>
<path style=" stroke:none;fill-rule:nonzero;fill:rgb(100%,100%,100%);fill-opacity:1;" d="M 502.90625 332.75 L 476.707031 313.714844 L 509.09375 313.714844 Z M 502.90625 332.75 "/>
<path style=" stroke:none;fill-rule:nonzero;fill:rgb(100%,100%,100%);fill-opacity:1;" d="M 495.992188 323.230469 L 506 292.429688 L 516.007812 323.230469 Z M 495.992188 323.230469 "/>
<path style=" stroke:none;fill-rule:nonzero;fill:rgb(100%,100%,100%);fill-opacity:1;" d="M 502.90625 313.714844 L 535.292969 313.714844 L 509.09375 332.75 Z M 502.90625 313.714844 "/>
<path style=" stroke:none;fill-rule:nonzero;fill:rgb(100%,100%,100%);fill-opacity:1;" d="M 514.097656 317.347656 L 524.105469 348.148438 L 497.902344 329.113281 Z M 514.097656 317.347656 "/>
<path style=" stroke:none;fill-rule:nonzero;fill:rgb(100%,100%,100%);fill-opacity:1;" d="M 640.097656 329.113281 L 613.894531 348.148438 L 623.902344 317.347656 Z M 640.097656 329.113281 "/>
<path style=" stroke:none;fill-rule:nonzero;fill:rgb(100%,100%,100%);fill-opacity:1;" d="M 628.90625 332.75 L 602.707031 313.714844 L 635.09375 313.714844 Z M 628.90625 332.75 "/>
<path style=" stroke:none;fill-rule:nonzero;fill:rgb(100%,100%,100%);fill-opacity:1;" d="M 621.992188 323.230469 L 632 292.429688 L 642.007812 323.230469 Z M 621.992188 323.230469 "/>
<path style=" stroke:none;fill-rule:nonzero;fill:rgb(100%,100%,100%);fill-opacity:1;" d="M 628.90625 313.714844 L 661.292969 313.714844 L 635.09375 332.75 Z M 628.90625 313.714844 "/>
<path style=" stroke:none;fill-rule:nonzero;fill:rgb(100%,100%,100%);fill-opacity:1;" d="M 640.097656 317.347656 L 650.105469 348.148438 L 623.902344 329.113281 Z M 640.097656 317.347656 "/>
<path style=" stroke:none;fill-rule:nonzero;fill:rgb(100%,100%,100%);fill-opacity:1;" d="M 73.097656 383.113281 L 46.894531 402.148438 L 56.902344 371.347656 Z M 73.097656 383.113281 "/>
<path style=" stroke:none;fill-rule:nonzero;fill:rgb(100%,100%,100%);fill-opacity:1;" d="M 61.90625 386.75 L 35.707031 367.714844 L 68.09375 367.714844 Z M 61.90625 386.75 "/>
<path style=" stroke:none;fill-rule:nonzero;fill:rgb(100%,100%,100%);fill-opacity:1;" d="M 54.992188 377.230469 L 65 346.429688 L 75.007812 377.230469 Z M 54.992188 377.230469 "/>
<path style=" stroke:none;fill-rule:nonzero;fill:rgb(100%,100%,100%);fill-opacity:1;" d="M 61.90625 367.714844 L 94.292969 367.714844 L 68.09375 386.75 Z M 61.90625 367.714844 "/>
<path style=" stroke:none;fill-rule:nonzero;fill:rgb(100%,100%,100%);fill-opacity:1;" d="M 73.097656 371.347656 L 83.105469 402.148438 L 56.902344 383.113281 Z M 73.097656 371.347656 "/>
<path style=" stroke:none;fill-rule:nonzero;fill:rgb(100%,100%,100%);fill-opacity:1;" d="M 199.097656 383.113281 L 172.894531 402.148438 L 182.902344 371.347656 Z M 199.097656 383.113281 "/>
<path style=" stroke:none;fill-rule:nonzero;fill:rgb(100%,100%,100%);fill-opacity:1;" d="M 187.90625 386.75 L 161.707031 367.714844 L 194.09375 367.714844 Z M 187.90625 386.75 "/>
<path style=" stroke:none;fill-rule:nonzero;fill:rgb(100%,100%,100%);fill-opacity:1;" d="M 180.992188 377.230469 L 191 346.429688 L 201.007812 377.230469 Z M 180.992188 377.230469 "/>
<path style=" stroke:none;fill-rule:nonzero;fill:rgb(100%,100%,100%);fill-opacity:1;" d="M 187.90625 367.714844 L 220.292969 367.714844 L 194.09375 386.75 Z M 187.90625 367.714844 "/>
<path style=" stroke:none;fill-rule:nonzero;fill:rgb(100%,100%,100%);fill-opacity:1;" d="M 199.097656 371.347656 L 209.105469 402.148438 L 182.902344 383.113281 Z M 199.097656 371.347656 "/>
<path style=" stroke:none;fill-rule:nonzero;fill:rgb(100%,100%,100%);fill-opacity:1;" d="M 325.097656 383.113281 L 298.894531 402.148438 L 308.902344 371.347656 Z M 325.097656 383.113281 "/>
<path style=" stroke:none;fill-rule:nonzero;fill:rgb(100%,100%,100%);fill-opacity:1;" d="M 313.90625 386.75 L 287.707031 367.714844 L 320.09375 367.714844 Z M 313.90625 386.75 "/>
<path style=" stroke:none;fill-rule:nonzero;fill:rgb(100%,100%,100%);fill-opacity:1;" d="M 306.992188 377.230469 L 317 346.429688 L 327.007812 377.230469 Z M 306.992188 377.230469 "/>
<path style=" stroke:none;fill-rule:nonzero;fill:rgb(100%,100%,100%);fill-opacity:1;" d="M 313.90625 367.714844 L 346.292969 367.714844 L 320.09375 386.75 Z M 313.90625 367.714844 "/>
<path style=" stroke:none;fill-rule:nonzero;fill:rgb(100%,100%,100%);fill-opacity:1;" d="M 325.097656 371.347656 L 335.105469 402.148438 L 308.902344 383.113281 Z M 325.097656 371.347656 "/>
<path style=" stroke:none;fill-rule:nonzero;fill:rgb(100%,100%,100%);fill-opacity:1;" d="M 451.097656 383.113281 L 424.894531 402.148438 L 434.902344 371.347656 Z M 451.097656 383.113281 "/>
<path style=" stroke:none;fill-rule:nonzero;fill:rgb(100%,100%,100%);fill-opacity:1;" d="M 439.90625 386.75 L 413.707031 367.714844 L 446.09375 367.714844 Z M 439.90625 386.75 "/>
<path style=" stroke:none;fill-rule:nonzero;fill:rgb(100%,100%,100%);fill-opacity:1;" d="M 432.992188 377.230469 L 443 346.429688 L 453.007812 377.230469 Z M 432.992188 377.230469 "/>
<path style=" stroke:none;fill-rule:nonzero;fill:rgb(100%,100%,100%);fill-opacity:1;" d="M 439.90625 367.714844 L 472.292969 367.714844 L 446.09375 386.75 Z M 439.90625 367.714844 "/>
<path style=" stroke:none;fill-rule:nonzero;fill:rgb(100%,100%,100%);fill-opacity:1;" d="M 451.097656 371.347656 L 461.105469 402.148438 L 434.902344 383.113281 Z M 451.097656 371.347656 "/>
<path style=" stroke:none;fill-rule:nonzero;fill:rgb(100%,100%,100%);fill-opacity:1;" d="M 577.097656 383.113281 L 550.894531 402.148438 L 560.902344 371.347656 Z M 577.097656 383.113281 "/>
<path style=" stroke:none;fill-rule:nonzero;fill:rgb(100%,100%,100%);fill-opacity:1;" d="M 565.90625 386.75 L 539.707031 367.714844 L 572.09375 367.714844 Z M 565.90625 386.75 "/>
<path style=" stroke:none;fill-rule:nonzero;fill:rgb(100%,100%,100%);fill-opacity:1;" d="M 558.992188 377.230469 L 569 346.429688 L 579.007812 377.230469 Z M 558.992188 377.230469 "/>
<path style=" stroke:none;fill-rule:nonzero;fill:rgb(100%,100%,100%);fill-opacity:1;" d="M 565.90625 367.714844 L 598.292969 367.714844 L 572.09375 386.75 Z M 565.90625 367.714844 "/>
<path style=" stroke:none;fill-rule:nonzero;fill:rgb(100%,100%,100%);fill-opacity:1;" d="M 577.097656 371.347656 L 587.105469 402.148438 L 560.902344 383.113281 Z M 577.097656 371.347656 "/>
<path style=" stroke:none;fill-rule:nonzero;fill:rgb(100%,100%,100%);fill-opacity:1;" d="M 703.097656 383.113281 L 676.894531 402.148438 L 686.902344 371.347656 Z M 703.097656 383.113281 "/>
<path style=" stroke:none;fill-rule:nonzero;fill:rgb(100%,100%,100%);fill-opacity:1;" d="M 691.90625 386.75 L 665.707031 367.714844 L 698.09375 367.714844 Z M 691.90625 386.75 "/>
<path style=" stroke:none;fill-rule:nonzero;fill:rgb(100%,100%,100%);fill-opacity:1;" d="M 684.992188 377.230469 L 695 346.429688 L 705.007812 377.230469 Z M 684.992188 377.230469 "/>
<path style=" stroke:none;fill-rule:nonzero;fill:rgb(100%,100%,100%);fill-opacity:1;" d="M 691.90625 367.714844 L 724.292969 367.714844 L 698.09375 386.75 Z M 691.90625 367.714844 "/>
<path style=" stroke:none;fill-rule:nonzero;fill:rgb(100%,100%,100%);fill-opacity:1;" d="M 703.097656 371.347656 L 713.105469 402.148438 L 686.902344 383.113281 Z M 703.097656 371.347656 "/>
<path style=" stroke:none;fill-rule:nonzero;fill:rgb(100%,100%,100%);fill-opacity:1;" d="M 136.097656 437.113281 L 109.894531 456.148438 L 119.902344 425.347656 Z M 136.097656 437.113281 "/>
<path style=" stroke:none;fill-rule:nonzero;fill:rgb(100%,100%,100%);fill-opacity:1;" d="M 124.90625 440.75 L 98.707031 421.714844 L 131.09375 421.714844 Z M 124.90625 440.75 "/>
<path style=" stroke:none;fill-rule:nonzero;fill:rgb(100%,100%,100%);fill-opacity:1;" d="M 117.992188 431.230469 L 128 400.429688 L 138.007812 431.230469 Z M 117.992188 431.230469 "/>
<path style=" stroke:none;fill-rule:nonzero;fill:rgb(100%,100%,100%);fill-opacity:1;" d="M 124.90625 421.714844 L 157.292969 421.714844 L 131.09375 440.75 Z M 124.90625 421.714844 "/>
<path style=" stroke:none;fill-rule:nonzero;fill:rgb(100%,100%,100%);fill-opacity:1;" d="M 136.097656 425.347656 L 146.105469 456.148438 L 119.902344 437.113281 Z M 136.097656 425.347656 "/>
<path style=" stroke:none;fill-rule:nonzero;fill:rgb(100%,100%,100%);fill-opacity:1;" d="M 262.097656 437.113281 L 235.894531 456.148438 L 245.902344 425.347656 Z M 262.097656 437.113281 "/>
<path style=" stroke:none;fill-rule:nonzero;fill:rgb(100%,100%,100%);fill-opacity:1;" d="M 250.90625 440.75 L 224.707031 421.714844 L 257.09375 421.714844 Z M 250.90625 440.75 "/>
<path style=" stroke:none;fill-rule:nonzero;fill:rgb(100%,100%,100%);fill-opacity:1;" d="M 243.992188 431.230469 L 254 400.429688 L 264.007812 431.230469 Z M 243.992188 431.230469 "/>
<path style=" stroke:none;fill-rule:nonzero;fill:rgb(100%,100%,100%);fill-opacity:1;" d="M 250.90625 421.714844 L 283.292969 421.714844 L 257.09375 440.75 Z M 250.90625 421.714844 "/>
<path style=" stroke:none;fill-rule:nonzero;fill:rgb(100%,100%,100%);fill-opacity:1;" d="M 262.097656 425.347656 L 272.105469 456.148438 L 245.902344 437.113281 Z M 262.097656 425.347656 "/>
<path style=" stroke:none;fill-rule:nonzero;fill:rgb(100%,100%,100%);fill-opacity:1;" d="M 388.097656 437.113281 L 361.894531 456.148438 L 371.902344 425.347656 Z M 388.097656 437.113281 "/>
<path style=" stroke:none;fill-rule:nonzero;fill:rgb(100%,100%,100%);fill-opacity:1;" d="M 376.90625 440.75 L 350.707031 421.714844 L 383.09375 421.714844 Z M 376.90625 440.75 "/>
<path style=" stroke:none;fill-rule:nonzero;fill:rgb(100%,100%,100%);fill-opacity:1;" d="M 369.992188 431.230469 L 380 400.429688 L 390.007812 431.230469 Z M 369.992188 431.230469 "/>
<path style=" stroke:none;fill-rule:nonzero;fill:rgb(100%,100%,100%);fill-opacity:1;" d="M 376.90625 421.714844 L 409.292969 421.714844 L 383.09375 440.75 Z M 376.90625 421.714844 "/>
<path style=" stroke:none;fill-rule:nonzero;fill:rgb(100%,100%,100%);fill-opacity:1;" d="M 388.097656 425.347656 L 398.105469 456.148438 L 371.902344 437.113281 Z M 388.097656 425.347656 "/>
<path style=" stroke:none;fill-rule:nonzero;fill:rgb(100%,100%,100%);fill-opacity:1;" d="M 514.097656 437.113281 L 487.894531 456.148438 L 497.902344 425.347656 Z M 514.097656 437.113281 "/>
<path style=" stroke:none;fill-rule:nonzero;fill:rgb(100%,100%,100%);fill-opacity:1;" d="M 502.90625 440.75 L 476.707031 421.714844 L 509.09375 421.714844 Z M 502.90625 440.75 "/>
<path style=" stroke:none;fill-rule:nonzero;fill:rgb(100%,100%,100%);fill-opacity:1;" d="M 495.992188 431.230469 L 506 400.429688 L 516.007812 431.230469 Z M 495.992188 431.230469 "/>
<path style=" stroke:none;fill-rule:nonzero;fill:rgb(100%,100%,100%);fill-opacity:1;" d="M 502.90625 421.714844 L 535.292969 421.714844 L 509.09375 440.75 Z M 502.90625 421.714844 "/>
<path style=" stroke:none;fill-rule:nonzero;fill:rgb(100%,100%,100%);fill-opacity:1;" d="M 514.097656 425.347656 L 524.105469 456.148438 L 497.902344 437.113281 Z M 514.097656 425.347656 "/>
<path style=" stroke:none;fill-rule:nonzero;fill:rgb(100%,100%,100%);fill-opacity:1;" d="M 640.097656 437.113281 L 613.894531 456.148438 L 623.902344 425.347656 Z M 640.097656 437.113281 "/>
<path style=" stroke:none;fill-rule:nonzero;fill:rgb(100%,100%,100%);fill-opacity:1;" d="M 628.90625 440.75 L 602.707031 421.714844 L 635.09375 421.714844 Z M 628.90625 440.75 "/>
<path style=" stroke:none;fill-rule:nonzero;fill:rgb(100%,100%,100%);fill-opacity:1;" d="M 621.992188 431.230469 L 632 400.429688 L 642.007812 431.230469 Z M 621.992188 431.230469 "/>
<path style=" stroke:none;fill-rule:nonzero;fill:rgb(100%,100%,100%);fill-opacity:1;" d="M 628.90625 421.714844 L 661.292969 421.714844 L 635.09375 440.75 Z M 628.90625 421.714844 "/>
<path style=" stroke:none;fill-rule:nonzero;fill:rgb(100%,100%,100%);fill-opacity:1;" d="M 640.097656 425.347656 L 650.105469 456.148438 L 623.902344 437.113281 Z M 640.097656 425.347656 "/>
<path style=" stroke:none;fill-rule:nonzero;fill:rgb(100%,100%,100%);fill-opacity:1;" d="M 73.097656 491.113281 L 46.894531 510.148438 L 56.902344 479.347656 Z M 73.097656 491.113281 "/>
<path style=" stroke:none;fill-rule:nonzero;fill:rgb(100%,100%,100%);fill-opacity:1;" d="M 61.90625 494.75 L 35.707031 475.714844 L 68.09375 475.714844 Z M 61.90625 494.75 "/>
<path style=" stroke:none;fill-rule:nonzero;fill:rgb(100%,100%,100%);fill-opacity:1;" d="M 54.992188 485.230469 L 65 454.429688 L 75.007812 485.230469 Z M 54.992188 485.230469 "/>
<path style=" stroke:none;fill-rule:nonzero;fill:rgb(100%,100%,100%);fill-opacity:1;" d="M 61.90625 475.714844 L 94.292969 475.714844 L 68.09375 494.75 Z M 61.90625 475.714844 "/>
<path style=" stroke:none;fill-rule:nonzero;fill:rgb(100%,100%,100%);fill-opacity:1;" d="M 73.097656 479.347656 L 83.105469 510.148438 L 56.902344 491.113281 Z M 73.097656 479.347656 "/>
<path style=" stroke:none;fill-rule:nonzero;fill:rgb(100%,100%,100%);fill-opacity:1;" d="M 199.097656 491.113281 L 172.894531 510.148438 L 182.902344 479.347656 Z M 199.097656 491.113281 "/>
<path style=" stroke:none;fill-rule:nonzero;fill:rgb(100%,100%,100%);fill-opacity:1;" d="M 187.90625 494.75 L 161.707031 475.714844 L 194.09375 475.714844 Z M 187.90625 494.75 "/>
<path style=" stroke:none;fill-rule:nonzero;fill:rgb(100%,100%,100%);fill-opacity:1;" d="M 180.992188 485.230469 L 191 454.429688 L 201.007812 485.230469 Z M 180.992188 485.230469 "/>
<path style=" stroke:none;fill-rule:nonzero;fill:rgb(100%,100%,100%);fill-opacity:1;" d="M 187.90625 475.714844 L 220.292969 475.714844 L 194.09375 494.75 Z M 187.90625 475.714844 "/>
<path style=" stroke:none;fill-rule:nonzero;fill:rgb(100%,100%,100%);fill-opacity:1;" d="M 199.097656 479.347656 L 209.105469 510.148438 L 182.902344 491.113281 Z M 199.097656 479.347656 "/>
<path style=" stroke:none;fill-rule:nonzero;fill:rgb(100%,100%,100%);fill-opacity:1;" d="M 325.097656 491.113281 L 298.894531 510.148438 L 308.902344 479.347656 Z M 325.097656 491.113281 "/>
<path style=" stroke:none;fill-rule:nonzero;fill:rgb(100%,100%,100%);fill-opacity:1;" d="M 313.90625 494.75 L 287.707031 475.714844 L 320.09375 475.714844 Z M 313.90625 494.75 "/>
<path style=" stroke:none;fill-rule:nonzero;fill:rgb(100%,100%,100%);fill-opacity:1;" d="M 306.992188 485.230469 L 317 454.429688 L 327.007812 485.230469 Z M 306.992188 485.230469 "/>
<path style=" stroke:none;fill-rule:nonzero;fill:rgb(100%,100%,100%);fill-opacity:1;" d="M 313.90625 475.714844 L 346.292969 475.714844 L 320.09375 494.75 Z M 313.90625 475.714844 "/>
<path style=" stroke:none;fill-rule:nonzero;fill:rgb(100%,100%,100%);fill-opacity:1;" d="M 325.097656 479.347656 L 335.105469 510.148438 L 308.902344 491.113281 Z M 325.097656 479.347656 "/>
<path style=" stroke:none;fill-rule:nonzero;fill:rgb(100%,100%,100%);fill-opacity:1;" d="M 451.097656 491.113281 L 424.894531 510.148438 L 434.902344 479.347656 Z M 451.097656 491.113281 "/>
<path style=" stroke:none;fill-rule:nonzero;fill:rgb(100%,100%,100%);fill-opacity:1;" d="M 439.90625 494.75 L 413.707031 475.714844 L 446.09375 475.714844 Z M 439.90625 494.75 "/>
<path style=" stroke:none;fill-rule:nonzero;fill:rgb(100%,100%,100%);fill-opacity:1;" d="M 432.992188 485.230469 L 443 454.429688 L 453.007812 485.230469 Z M 432.992188 485.230469 "/>
<path style=" stroke:none;fill-rule:nonzero;fill:rgb(100%,100%,100%);fill-opacity:1;" d="M 439.90625 475.714844 L 472.292969 475.714844 L 446.09375 494.75 Z M 439.90625 475.714844 "/>
<path style=" stroke:none;fill-rule:nonzero;fill:rgb(100%,100%,100%);fill-opacity:1;" d="M 451.097656 479.347656 L 461.105469 510.148438 L 434.902344 491.113281 Z M 451.097656 479.347656 "/>
<path style=" stroke:none;fill-rule:nonzero;fill:rgb(100%,100%,100%);fill-opacity:1;" d="M 577.097656 491.113281 L 550.894531 510.148438 L 560.902344 479.347656 Z M 577.097656 491.113281 "/>
<path style=" stroke:none;fill-rule:nonzero;fill:rgb(100%,100%,100%);fill-opacity:1;" d="M 565.90625 494.75 L 539.707031 475.714844 L 572.09375 475.714844 Z M 565.90625 494.75 "/>
<path style=" stroke:none;fill-rule:nonzero;fill:rgb(100%,100%,100%);fill-opacity:1;" d="M 558.992188 485.230469 L 569 454.429688 L 579.007812 485.230469 Z M 558.992188 485.230469 "/>
<path style=" stroke:none;fill-rule:nonzero;fill:rgb(100%,100%,100%);fill-opacity:1;" d="M 565.90625 475.714844 L 598.292969 475.714844 L 572.09375 494.75 Z M 565.90625 475.714844 "/>
<path style=" stroke:none;fill-rule:nonzero;fill:rgb(100%,100%,100%);fill-opacity:1;" d="M 577.097656 479.347656 L 587.105469 510.148438 L 560.902344 491.113281 Z M 577.097656 479.347656 "/>
<path style=" stroke:none;fill-rule:nonzero;fill:rgb(100%,100%,100%);fill-opacity:1;" d="M 703.097656 491.113281 L 676.894531 510.148438 L 686.902344 479.347656 Z M 703.097656 491.113281 "/>
<path style=" stroke:none;fill-rule:nonzero;fill:rgb(100%,100%,100%);fill-opacity:1;" d="M 691.90625 494.75 L 665.707031 475.714844 L 698.09375 475.714844 Z M 691.90625 494.75 "/>
<path style=" stroke:none;fill-rule:nonzero;fill:rgb(100%,100%,100%);fill-opacity:1;" d="M 684.992188 485.230469 L 695 454.429688 L 705.007812 485.230469 Z M 684.992188 485.230469 "/>
<path style=" stroke:none;fill-rule:nonzero;fill:rgb(100%,100%,100%);fill-opacity:1;" d="M 691.90625 475.714844 L 724.292969 475.714844 L 698.09375 494.75 Z M 691.90625 475.714844 "/>
<path style=" stroke:none;fill-rule:nonzero;fill:rgb(100%,100%,100%);fill-opacity:1;" d="M 703.097656 479.347656 L 713.105469 510.148438 L 686.902344 491.113281 Z M 703.097656 479.347656 "/>
</g>
</svg>
