<?xml version="1.0" encoding="UTF-8"?>
<svg xmlns="http://www.w3.org/2000/svg" xmlns:xlink="http://www.w3.org/1999/xlink" width="1900pt" height="1000pt" viewBox="0 0 1900 1000" version="1.1">
<g id="surface1">
<rect x="0" y="0" width="1900" height="1000" style="fill:rgb(100%,100%,100%);fill-opacity:1;stroke:none;"/>
<path style=" stroke:none;fill-rule:nonzero;fill:rgb(0%,0%,0%);fill-opacity:1;" d="M 291.292969 303.542969 L 466.949219 95.53125 L 642.605469 187.980469 L 466.949219 395.992188 Z M 291.292969 303.542969 "/>
<path style=" stroke:none;fill-rule:nonzero;fill:rgb(100%,100%,100%);fill-opacity:1;" d="M 320.570312 343.992188 L 525.5 101.308594 L 547.457031 112.867188 L 342.527344 355.546875 Z M 320.570312 343.992188 "/>
<path style=" stroke:none;fill-rule:nonzero;fill:rgb(100%,100%,100%);fill-opacity:1;" d="M 386.441406 378.660156 L 591.371094 135.976562 L 613.328125 147.535156 L 408.398438 390.214844 Z M 386.441406 378.660156 "/>
<path style=" stroke:none;fill-rule:nonzero;fill:rgb(0%,0%,0%);fill-opacity:1;" d="M 1257.394531 812.019531 L 1433.050781 604.007812 L 1608.707031 696.457031 L 1433.050781 904.46875 Z M 1257.394531 812.019531 "/>
<path style=" stroke:none;fill-rule:nonzero;fill:rgb(100%,100%,100%);fill-opacity:1;" d="M 1286.671875 852.464844 L 1491.601562 609.785156 L 1513.558594 621.339844 L 1308.628906 864.023438 Z M 1286.671875 852.464844 "/>
<path style=" stroke:none;fill-rule:nonzero;fill:rgb(100%,100%,100%);fill-opacity:1;" d="M 1352.542969 887.132812 L 1557.472656 644.453125 L 1579.429688 656.007812 L 1374.5 898.691406 Z M 1352.542969 887.132812 "/>
<path style=" stroke:none;fill-rule:nonzero;fill:rgb(100%,100%,100%);fill-opacity:1;" d="M 1315.949219 705.125 L 1330.585938 687.789062 L 1550.15625 803.351562 L 1535.515625 820.6875 Z M 1315.949219 705.125 "/>
<path style=" stroke:none;fill-rule:nonzero;fill:rgb(77.647059%,4.705882%,18.823529%);fill-opacity:1;" d="M 1125.65625 291.988281 C 1271.171875 368.574219 1310.496094 523.792969 1213.484375 638.675781 C 1116.472656 753.558594 919.863281 784.601562 774.34375 708.011719 C 628.828125 631.425781 589.503906 476.207031 686.515625 361.324219 C 783.527344 246.441406 980.136719 215.398438 1125.65625 291.988281 Z M 1125.65625 291.988281 "/>
<path style=" stroke:none;fill-rule:nonzero;fill:rgb(0%,20.392157%,47.058824%);fill-opacity:1;" d="M 686.515625 361.324219 C 638.011719 418.765625 657.671875 496.375 730.429688 534.667969 C 803.191406 572.960938 901.496094 557.441406 950 500 C 998.503906 442.558594 1096.808594 427.039062 1169.570312 465.332031 C 1242.328125 503.625 1261.988281 581.234375 1213.484375 638.675781 C 1116.472656 753.558594 919.863281 784.601562 774.34375 708.011719 C 628.828125 631.425781 589.503906 476.207031 686.515625 361.324219 "/>
<path style=" stroke:none;fill-rule:nonzero;fill:rgb(0%,0%,0%);fill-opacity:1;" d="M 466.949219 904.46875 L 291.292969 696.457031 L 466.949219 604.007812 L 642.605469 812.019531 Z M 466.949219 904.46875 "/>
<path style=" stroke:none;fill-rule:nonzero;fill:rgb(100%,100%,100%);fill-opacity:1;" d="M 525.5 898.691406 L 320.570312 656.007812 L 342.527344 644.453125 L 547.457031 887.132812 Z M 525.5 898.691406 "/>
<path style=" stroke:none;fill-rule:nonzero;fill:rgb(100%,100%,100%);fill-opacity:1;" d="M 591.371094 864.023438 L 386.441406 621.339844 L 408.398438 609.785156 L 613.328125 852.464844 Z M 591.371094 864.023438 "/>
<path style=" stroke:none;fill-rule:nonzero;fill:rgb(0%,0%,0%);fill-opacity:1;" d="M 1433.050781 395.992188 L 1257.394531 187.980469 L 1433.050781 95.53125 L 1608.707031 303.542969 Z M 1433.050781 395.992188 "/>
<path style=" stroke:none;fill-rule:nonzero;fill:rgb(100%,100%,100%);fill-opacity:1;" d="M 1491.601562 390.214844 L 1286.671875 147.535156 L 1308.628906 135.976562 L 1513.558594 378.660156 Z M 1491.601562 390.214844 "/>
<path style=" stroke:none;fill-rule:nonzero;fill:rgb(100%,100%,100%);fill-opacity:1;" d="M 1557.472656 355.546875 L 1352.542969 112.867188 L 1374.5 101.308594 L 1579.429688 343.992188 Z M 1557.472656 355.546875 "/>
<path style=" stroke:none;fill-rule:nonzero;fill:rgb(100%,100%,100%);fill-opacity:1;" d="M 1330.585938 312.210938 L 1315.949219 294.875 L 1535.515625 179.3125 L 1550.15625 196.648438 Z M 1330.585938 312.210938 "/>
<path style=" stroke:none;fill-rule:nonzero;fill:rgb(0%,0%,0%);fill-opacity:1;" d="M 1425.734375 274.652344 L 1396.457031 239.984375 L 1440.371094 216.871094 L 1469.644531 251.539062 Z M 1425.734375 274.652344 "/>
<path style=" stroke:none;fill-rule:nonzero;fill:rgb(100%,100%,100%);fill-opacity:1;" d="M 430.355469 786.015625 L 415.714844 768.683594 L 503.542969 722.457031 L 518.179688 739.792969 Z M 430.355469 786.015625 "/>
</g>
</svg>
