<?xml version="1.0" encoding="UTF-8"?>
<svg xmlns="http://www.w3.org/2000/svg" xmlns:xlink="http://www.w3.org/1999/xlink" width="380pt" height="200pt" viewBox="0 0 1900 1000" version="1.1">
<g id="surface1">
<path style=" stroke:none;fill-rule:nonzero;fill:rgb(0%,52.156863%,24.705882%);fill-opacity:1;" d="M 0 0 L 633.332031 0 L 633.332031 1000 L 0 1000 Z M 0 0 "/>
<path style=" stroke:none;fill-rule:nonzero;fill:rgb(99.215686%,93.72549%,25.882353%);fill-opacity:1;" d="M 633.332031 0 L 1266.667969 0 L 1266.667969 1000 L 633.332031 1000 Z M 633.332031 0 "/>
<path style=" stroke:none;fill-rule:nonzero;fill:rgb(89.019608%,10.588235%,13.72549%);fill-opacity:1;" d="M 1266.667969 0 L 1900 0 L 1900 1000 L 1266.667969 1000 Z M 1266.667969 0 "/>
<path style=" stroke:none;fill-rule:nonzero;fill:rgb(0%,52.156863%,24.705882%);fill-opacity:1;" d="M 950 333.332031 L 884.761719 491.84375 L 985.152344 517.59375 Z M 950 333.332031 "/>
<path style=" stroke:none;fill-rule:nonzero;fill:rgb(0%,52.156863%,24.705882%);fill-opacity:1;" d="M 950 333.332031 L 1015.238281 491.84375 L 914.847656 517.59375 Z M 950 333.332031 "/>
<path style=" stroke:none;fill-rule:nonzero;fill:rgb(0%,52.156863%,24.705882%);fill-opacity:1;" d="M 1150.777344 448.496094 L 939.667969 448.496094 L 939.667969 531.832031 Z M 1150.777344 448.496094 "/>
<path style=" stroke:none;fill-rule:nonzero;fill:rgb(0%,52.156863%,24.705882%);fill-opacity:1;" d="M 1150.777344 448.496094 L 979.984375 546.460938 L 917.941406 479.042969 Z M 1150.777344 448.496094 "/>
<path style=" stroke:none;fill-rule:nonzero;fill:rgb(0%,52.156863%,24.705882%);fill-opacity:1;" d="M 1074.089844 634.835938 L 1008.851562 476.328125 L 908.460938 502.078125 Z M 1074.089844 634.835938 "/>
<path style=" stroke:none;fill-rule:nonzero;fill:rgb(0%,52.156863%,24.705882%);fill-opacity:1;" d="M 1074.089844 634.835938 L 903.296875 536.871094 L 965.339844 469.453125 Z M 1074.089844 634.835938 "/>
<path style=" stroke:none;fill-rule:nonzero;fill:rgb(0%,52.156863%,24.705882%);fill-opacity:1;" d="M 825.910156 634.835938 L 996.703125 536.871094 L 934.660156 469.453125 Z M 825.910156 634.835938 "/>
<path style=" stroke:none;fill-rule:nonzero;fill:rgb(0%,52.156863%,24.705882%);fill-opacity:1;" d="M 825.910156 634.835938 L 891.148438 476.328125 L 991.539062 502.078125 Z M 825.910156 634.835938 "/>
<path style=" stroke:none;fill-rule:nonzero;fill:rgb(0%,52.156863%,24.705882%);fill-opacity:1;" d="M 749.222656 448.496094 L 920.015625 546.460938 L 982.058594 479.042969 Z M 749.222656 448.496094 "/>
<path style=" stroke:none;fill-rule:nonzero;fill:rgb(0%,52.156863%,24.705882%);fill-opacity:1;" d="M 749.222656 448.496094 L 960.332031 448.496094 L 960.332031 531.832031 Z M 749.222656 448.496094 "/>
</g>
</svg>
