<?xml version="1.0" encoding="UTF-8"?>
<svg xmlns="http://www.w3.org/2000/svg" xmlns:xlink="http://www.w3.org/1999/xlink" width="1900pt" height="1000pt" viewBox="0 0 1900 1000" version="1.1">
<g id="surface1">
<rect x="0" y="0" width="1900" height="1000" style="fill:rgb(100%,100%,100%);fill-opacity:1;stroke:none;"/>
<path style=" stroke:none;fill-rule:nonzero;fill:rgb(0%,32.156863%,57.647059%);fill-opacity:1;" d="M 475 125 L 426.074219 243.882812 L 501.363281 263.195312 Z M 475 125 "/>
<path style=" stroke:none;fill-rule:nonzero;fill:rgb(0%,32.156863%,57.647059%);fill-opacity:1;" d="M 475 125 L 523.925781 243.882812 L 448.636719 263.195312 Z M 475 125 "/>
<path style=" stroke:none;fill-rule:nonzero;fill:rgb(0%,32.156863%,57.647059%);fill-opacity:1;" d="M 625.582031 211.371094 L 467.25 211.371094 L 467.25 273.871094 Z M 625.582031 211.371094 "/>
<path style=" stroke:none;fill-rule:nonzero;fill:rgb(0%,32.156863%,57.647059%);fill-opacity:1;" d="M 625.582031 211.371094 L 497.488281 284.847656 L 450.957031 234.28125 Z M 625.582031 211.371094 "/>
<path style=" stroke:none;fill-rule:nonzero;fill:rgb(0%,32.156863%,57.647059%);fill-opacity:1;" d="M 568.066406 351.128906 L 519.136719 232.246094 L 443.847656 251.558594 Z M 568.066406 351.128906 "/>
<path style=" stroke:none;fill-rule:nonzero;fill:rgb(0%,32.156863%,57.647059%);fill-opacity:1;" d="M 568.066406 351.128906 L 439.972656 277.652344 L 486.503906 227.089844 Z M 568.066406 351.128906 "/>
<path style=" stroke:none;fill-rule:nonzero;fill:rgb(0%,32.156863%,57.647059%);fill-opacity:1;" d="M 381.933594 351.128906 L 510.027344 277.652344 L 463.496094 227.089844 Z M 381.933594 351.128906 "/>
<path style=" stroke:none;fill-rule:nonzero;fill:rgb(0%,32.156863%,57.647059%);fill-opacity:1;" d="M 381.933594 351.128906 L 430.863281 232.246094 L 506.152344 251.558594 Z M 381.933594 351.128906 "/>
<path style=" stroke:none;fill-rule:nonzero;fill:rgb(0%,32.156863%,57.647059%);fill-opacity:1;" d="M 324.417969 211.371094 L 452.511719 284.847656 L 499.042969 234.28125 Z M 324.417969 211.371094 "/>
<path style=" stroke:none;fill-rule:nonzero;fill:rgb(0%,32.156863%,57.647059%);fill-opacity:1;" d="M 324.417969 211.371094 L 482.75 211.371094 L 482.75 273.871094 Z M 324.417969 211.371094 "/>
<path style=" stroke:none;fill-rule:nonzero;fill:rgb(0%,32.156863%,57.647059%);fill-opacity:1;" d="M 0 500 L 950 500 L 950 1000 L 0 1000 Z M 0 500 "/>
<path style=" stroke:none;fill-rule:nonzero;fill:rgb(82.352941%,6.27451%,20.392157%);fill-opacity:1;" d="M 950 0 L 1900 0 L 1900 500 L 950 500 Z M 950 0 "/>
<path style=" stroke:none;fill-rule:nonzero;fill:rgb(82.352941%,6.27451%,20.392157%);fill-opacity:1;" d="M 1425 625 L 1376.074219 743.882812 L 1451.363281 763.195312 Z M 1425 625 "/>
<path style=" stroke:none;fill-rule:nonzero;fill:rgb(82.352941%,6.27451%,20.392157%);fill-opacity:1;" d="M 1425 625 L 1473.925781 743.882812 L 1398.636719 763.195312 Z M 1425 625 "/>
<path style=" stroke:none;fill-rule:nonzero;fill:rgb(82.352941%,6.27451%,20.392157%);fill-opacity:1;" d="M 1575.582031 711.371094 L 1417.25 711.371094 L 1417.25 773.871094 Z M 1575.582031 711.371094 "/>
<path style=" stroke:none;fill-rule:nonzero;fill:rgb(82.352941%,6.27451%,20.392157%);fill-opacity:1;" d="M 1575.582031 711.371094 L 1447.488281 784.847656 L 1400.957031 734.28125 Z M 1575.582031 711.371094 "/>
<path style=" stroke:none;fill-rule:nonzero;fill:rgb(82.352941%,6.27451%,20.392157%);fill-opacity:1;" d="M 1518.066406 851.128906 L 1469.136719 732.246094 L 1393.847656 751.558594 Z M 1518.066406 851.128906 "/>
<path style=" stroke:none;fill-rule:nonzero;fill:rgb(82.352941%,6.27451%,20.392157%);fill-opacity:1;" d="M 1518.066406 851.128906 L 1389.972656 777.652344 L 1436.503906 727.089844 Z M 1518.066406 851.128906 "/>
<path style=" stroke:none;fill-rule:nonzero;fill:rgb(82.352941%,6.27451%,20.392157%);fill-opacity:1;" d="M 1331.933594 851.128906 L 1460.027344 777.652344 L 1413.496094 727.089844 Z M 1331.933594 851.128906 "/>
<path style=" stroke:none;fill-rule:nonzero;fill:rgb(82.352941%,6.27451%,20.392157%);fill-opacity:1;" d="M 1331.933594 851.128906 L 1380.863281 732.246094 L 1456.152344 751.558594 Z M 1331.933594 851.128906 "/>
<path style=" stroke:none;fill-rule:nonzero;fill:rgb(82.352941%,6.27451%,20.392157%);fill-opacity:1;" d="M 1274.417969 711.371094 L 1402.511719 784.847656 L 1449.042969 734.28125 Z M 1274.417969 711.371094 "/>
<path style=" stroke:none;fill-rule:nonzero;fill:rgb(82.352941%,6.27451%,20.392157%);fill-opacity:1;" d="M 1274.417969 711.371094 L 1432.75 711.371094 L 1432.75 773.871094 Z M 1274.417969 711.371094 "/>
</g>
</svg>
