<?xml version="1.0" encoding="UTF-8"?>
<svg xmlns="http://www.w3.org/2000/svg" xmlns:xlink="http://www.w3.org/1999/xlink" width="380pt" height="200pt" viewBox="0 0 1900 1000" version="1.1">
<g id="surface1">
<rect x="0" y="0" width="1900" height="1000" style="fill:rgb(100%,100%,100%);fill-opacity:1;stroke:none;"/>
<path style=" stroke:none;fill-rule:nonzero;fill:rgb(0%,58.431373%,26.27451%);fill-opacity:1;" d="M 0 700 L 1900 700 L 1900 1000 L 0 1000 Z M 0 700 "/>
<path style=" stroke:none;fill-rule:nonzero;fill:rgb(0%,12.54902%,62.352941%);fill-opacity:1;" d="M 0 0 L 1900 0 L 1900 300 L 0 300 Z M 0 0 "/>
<path style="fill-rule:nonzero;fill:rgb(0%,0%,0%);fill-opacity:1;stroke-width:0.879545;stroke-linecap:butt;stroke-linejoin:miter;stroke:rgb(0%,0%,0%);stroke-opacity:1;stroke-miterlimit:4;" d="M 224.572627 108.912653 C 223.068865 108.945636 221.60172 110.611275 221.60172 110.611275 L 221.731102 128.406608 L 216.113151 134.293035 L 220.661055 134.293035 L 220.62281 144.498166 L 193.716208 180.728908 L 189.738724 179.353931 L 182.786265 194.183891 C 182.786265 194.183891 199.981884 204.950763 224.938803 204.655978 C 252.331199 204.330271 267.2134 193.687085 267.2134 193.687085 L 260.029843 179.047808 L 256.512113 180.577392 L 229.260492 144.535272 L 229.222247 134.025048 L 233.770965 134.025048 L 227.580152 128.212834 L 227.616769 110.481405 C 227.616769 110.481405 226.076389 108.880701 224.572627 108.912653 Z M 224.572627 108.912653 " transform="matrix(4.80046,0,0,3.789837,-129.047958,-94.198667)"/>
<path style="fill:none;stroke-width:4.397728;stroke-linecap:butt;stroke-linejoin:miter;stroke:rgb(0%,0%,0%);stroke-opacity:1;stroke-miterlimit:4;" d="M 233.953239 151.518381 L 215.34825 151.518381 C 215.34825 151.518381 208.595967 137.29036 209.690426 127.342908 C 210.805228 117.215081 216.593248 112.424307 224.289451 112.338757 C 233.387701 112.237747 238.156938 116.79764 239.59723 126.937836 C 241.025316 136.986299 233.953239 151.518381 233.953239 151.518381 Z M 233.953239 151.518381 " transform="matrix(4.80046,0,0,3.789837,-129.047958,-94.198667)"/>
<path style=" stroke:none;fill-rule:nonzero;fill:rgb(100%,100%,100%);fill-opacity:1;" d="M 792.882812 608.566406 C 791.421875 610.101562 780.714844 627.007812 780.714844 627.007812 L 799.207031 623.933594 Z M 792.882812 608.566406 "/>
<path style=" stroke:none;fill-rule:nonzero;fill:rgb(100%,100%,100%);fill-opacity:1;" d="M 803.589844 630.464844 L 784.121094 635.460938 L 807.480469 642.761719 Z M 803.589844 630.464844 "/>
<path style=" stroke:none;fill-rule:nonzero;fill:rgb(100%,100%,100%);fill-opacity:1;" d="M 812.347656 608.949219 L 822.082031 631.617188 L 845.929688 626.238281 L 839.601562 615.480469 Z M 812.347656 608.949219 "/>
<path style=" stroke:none;fill-rule:nonzero;fill:rgb(100%,100%,100%);fill-opacity:1;" d="M 827.433594 639.6875 L 830.84375 648.90625 L 862.476562 655.054688 L 849.820312 633.921875 Z M 827.433594 639.6875 "/>
<path style=" stroke:none;fill-rule:nonzero;fill:rgb(100%,100%,100%);fill-opacity:1;" d="M 862.476562 620.476562 L 873.667969 641.609375 L 897.515625 634.308594 L 889.730469 625.085938 Z M 862.476562 620.476562 "/>
<path style=" stroke:none;fill-rule:nonzero;fill:rgb(100%,100%,100%);fill-opacity:1;" d="M 878.050781 649.292969 L 881.941406 657.359375 L 918.929688 661.585938 L 903.355469 642.375 Z M 878.050781 649.292969 "/>
<path style=" stroke:none;fill-rule:nonzero;fill:rgb(100%,100%,100%);fill-opacity:1;" d="M 913.574219 626.625 L 927.203125 645.449219 L 961.757812 635.460938 L 957.863281 628.160156 Z M 913.574219 626.625 "/>
<path style=" stroke:none;fill-rule:nonzero;fill:rgb(100%,100%,100%);fill-opacity:1;" d="M 933.53125 652.367188 L 940.828125 662.355469 L 983.65625 661.203125 L 967.597656 642.375 Z M 933.53125 652.367188 "/>
<path style=" stroke:none;fill-rule:nonzero;fill:rgb(100%,100%,100%);fill-opacity:1;" d="M 978.789062 627.390625 L 990.46875 643.144531 L 1017.722656 632.769531 L 1010.421875 624.316406 Z M 978.789062 627.390625 "/>
<path style=" stroke:none;fill-rule:nonzero;fill:rgb(100%,100%,100%);fill-opacity:1;" d="M 1023.5625 639.300781 L 996.308594 650.058594 L 1003.609375 659.28125 L 1040.109375 654.671875 Z M 1023.5625 639.300781 "/>
<path style=" stroke:none;fill-rule:nonzero;fill:rgb(100%,100%,100%);fill-opacity:1;" d="M 1032.324219 622.78125 L 1046.4375 636.613281 L 1069.308594 622.398438 L 1061.523438 615.867188 Z M 1032.324219 622.78125 "/>
<path style=" stroke:none;fill-rule:nonzero;fill:rgb(100%,100%,100%);fill-opacity:1;" d="M 1074.175781 630.082031 L 1052.277344 643.144531 L 1058.117188 651.214844 L 1088.289062 645.066406 Z M 1074.175781 630.082031 "/>
<path style=" stroke:none;fill-rule:nonzero;fill:rgb(100%,100%,100%);fill-opacity:1;" d="M 1104.351562 602.800781 L 1109.703125 608.949219 L 1094.617188 626.625 L 1079.042969 610.871094 Z M 1104.351562 602.800781 "/>
<path style=" stroke:none;fill-rule:nonzero;fill:rgb(100%,100%,100%);fill-opacity:1;" d="M 1114.570312 618.171875 L 1123.816406 632.769531 L 1105.324219 637.765625 L 1103.863281 630.851562 Z M 1114.570312 618.171875 "/>
</g>
</svg>
