<?xml version="1.0" encoding="UTF-8"?>
<svg xmlns="http://www.w3.org/2000/svg" xmlns:xlink="http://www.w3.org/1999/xlink" width="1900pt" height="1000pt" viewBox="0 0 1900 1000" version="1.1">
<g id="surface1">
<rect x="0" y="0" width="1900" height="1000" style="fill:rgb(80.784314%,6.666667%,14.901961%);fill-opacity:1;stroke:none;"/>
<path style="fill-rule:evenodd;fill:rgb(98.823529%,81.960784%,8.627451%);fill-opacity:1;stroke-width:1.875001;stroke-linecap:butt;stroke-linejoin:miter;stroke:rgb(74.117647%,61.176471%,3.137255%);stroke-opacity:1;stroke-miterlimit:4;" d="M 349.390214 141.290625 C 358.148438 143.637891 371.402961 143.054297 377.353618 150 C 368.595395 147.652734 357.803043 161.810156 349.390214 158.708203 C 356.817434 163.908984 241.347039 158.708203 250.609786 158.708203 C 241.851563 156.362109 228.597039 156.945703 222.646382 150 C 231.404605 152.346094 242.196957 138.189844 250.609786 141.290625 C 243.182566 136.089844 230.296875 132.063281 227.311678 123.54375 C 234.738898 128.744531 249.847451 119.095312 256.566612 124.924219 C 251.365954 117.496875 240.497122 109.345312 240.743832 100.277344 C 245.94449 107.704687 263.448602 103.728516 267.762336 111.58125 C 265.416118 102.822656 258.347862 91.530469 261.323191 83.009766 C 263.669408 91.768359 281.299342 93.942188 282.846217 102.871875 C 283.636924 93.839062 280.449424 80.766797 286.567845 73.821094 C 285.777138 82.853906 301.699836 90.917578 300 99.847266 C 303.831414 91.630078 305.950658 78.355078 313.432155 73.821094 C 309.60074 82.039453 322.100329 95.019141 317.152549 102.871875 C 323.564556 96.460547 329.750822 84.583594 338.676809 83.009766 C 332.264803 89.421094 339.101151 105.752344 332.237664 111.58125 C 340.454359 107.749219 350.152549 98.703516 359.256168 100.277344 C 351.03824 104.109375 351.852385 121.822266 343.433388 124.924219 C 352.465461 124.133203 364.602385 119.009766 372.688322 123.54375 C 363.65625 124.333594 358.652961 141.290625 349.390214 141.290625 Z M 349.390214 141.290625 " transform="matrix(3.166667,0,0,3.333333,0,0)"/>
<path style="fill-rule:evenodd;fill:rgb(98.823529%,81.960784%,8.627451%);fill-opacity:1;stroke-width:1.874999;stroke-linecap:butt;stroke-linejoin:miter;stroke:rgb(74.117647%,61.176471%,3.137255%);stroke-opacity:1;stroke-miterlimit:4;" d="M 258.358964 150.002344 L 226.772615 137.090625 L 260.870477 135.760547 L 235.604852 112.824609 L 268.100329 123.236719 L 252.203536 93.042187 L 279.178865 113.941406 L 274.566612 80.130469 L 292.767681 108.994922 L 299.997533 75.646875 L 307.228618 108.994922 L 325.429688 80.130469 L 320.817434 113.941406 L 347.792763 93.042187 L 331.89597 123.236719 L 364.391447 112.824609 L 339.125822 135.760547 L 373.223684 137.090625 L 341.637336 150.002344 L 373.223684 162.914062 L 226.772615 162.914062 Z M 258.358964 150.002344 " transform="matrix(3.166667,0,0,3.333333,0,0)"/>
<path style="fill-rule:nonzero;fill:rgb(98.823529%,81.960784%,8.627451%);fill-opacity:1;stroke-width:1.87383;stroke-linecap:round;stroke-linejoin:miter;stroke:rgb(74.117647%,61.176471%,3.137255%);stroke-opacity:1;stroke-miterlimit:4;" d="M 341.357319 150 C 341.357319 172.841016 322.840461 191.357812 300 191.357812 C 277.158306 191.357812 258.642681 172.841016 258.642681 150 C 258.642681 127.158984 277.158306 108.642187 300 108.642187 C 322.840461 108.642187 341.357319 127.158984 341.357319 150 Z M 341.357319 150 " transform="matrix(3.166667,0,0,3.333333,0,0)"/>
<path style=" stroke:none;fill-rule:nonzero;fill:rgb(0%,24.705882%,52.941176%);fill-opacity:1;" d="M 0 550 L 1900 550 L 1900 1000 L 0 1000 Z M 0 550 "/>
<path style=" stroke:none;fill-rule:evenodd;fill:rgb(100%,100%,100%);fill-opacity:1;" d="M 0 857.140625 C 63.332031 857.140625 126.667969 900 190 900 C 253.332031 900 316.667969 857.140625 380 857.140625 C 443.332031 857.140625 506.667969 900 570 900 C 633.332031 900 696.667969 857.140625 760 857.140625 C 823.332031 857.140625 886.667969 900 950 900 C 1013.332031 900 1076.667969 857.140625 1140 857.140625 C 1203.332031 857.140625 1266.664062 900 1330 900 C 1393.332031 900 1456.664062 857.140625 1520 857.140625 C 1583.332031 857.140625 1646.664062 900 1710 900 C 1773.332031 900 1836.664062 857.140625 1900 857.140625 L 1900 785.714844 C 1836.664062 785.714844 1773.332031 828.570312 1710 828.570312 C 1646.664062 828.570312 1583.332031 785.714844 1520 785.714844 C 1456.664062 785.714844 1393.332031 828.570312 1330 828.570312 C 1266.664062 828.570312 1203.332031 785.714844 1140 785.714844 C 1076.667969 785.714844 1013.332031 828.570312 950 828.570312 C 886.667969 828.570312 823.332031 785.714844 760 785.714844 C 696.667969 785.714844 633.332031 828.570312 570 828.570312 C 506.667969 828.570312 443.332031 785.714844 380 785.714844 C 316.667969 785.714844 253.332031 828.570312 190 828.570312 C 126.667969 828.570312 63.332031 785.714844 0 785.714844 Z M 0 857.140625 "/>
<path style="fill-rule:evenodd;fill:rgb(98.823529%,81.960784%,8.627451%);fill-opacity:1;stroke-width:1.874999;stroke-linecap:butt;stroke-linejoin:miter;stroke:rgb(74.117647%,61.176471%,3.137255%);stroke-opacity:1;stroke-miterlimit:4;" d="M 313.599918 49.862109 L 335.777961 50.008594 C 335.919819 49.071094 333.874589 47.204297 332.134046 46.93125 C 326.518914 46.048828 322.308799 47.866406 315.493421 47.936719 Z M 313.599918 49.862109 " transform="matrix(3.166667,0,0,3.333333,0,0)"/>
<path style="fill-rule:evenodd;fill:rgb(98.823529%,81.960784%,8.627451%);fill-opacity:1;stroke-width:1.874999;stroke-linecap:butt;stroke-linejoin:miter;stroke:rgb(74.117647%,61.176471%,3.137255%);stroke-opacity:1;stroke-miterlimit:4;" d="M 269.430099 44.64375 C 274.638158 51.223828 284.73602 55.795313 294.382401 55.855078 C 307.382813 55.935938 321.795641 45.414844 339.233141 42.194531 L 282.315789 41.022656 C 274.95148 35.976562 269.363487 36.617578 265.553043 39.745312 L 254.670641 40.073437 C 253.129934 40.9125 255.942434 44.416406 258.222039 44.545313 Z M 269.430099 44.64375 " transform="matrix(3.166667,0,0,3.333333,0,0)"/>
<path style="fill-rule:evenodd;fill:rgb(98.823529%,81.960784%,8.627451%);fill-opacity:1;stroke-width:1.874999;stroke-linecap:butt;stroke-linejoin:miter;stroke:rgb(74.117647%,61.176471%,3.137255%);stroke-opacity:1;stroke-miterlimit:4;" d="M 295.160773 40.867969 C 293.089638 31.35 285.453947 27.248437 276.268914 26.030859 C 265.662829 24.625781 241.247122 23.184375 225.029605 18.526172 C 232.046053 25.427344 246.740132 28.872656 256.946546 30.430078 C 267.756168 32.080078 278.282072 34.484766 286.620888 40.78125 Z M 295.160773 40.867969 " transform="matrix(3.166667,0,0,3.333333,0,0)"/>
<path style="fill-rule:evenodd;fill:rgb(98.823529%,81.960784%,8.627451%);fill-opacity:1;stroke-width:1.874999;stroke-linecap:round;stroke-linejoin:miter;stroke:rgb(74.117647%,61.176471%,3.137255%);stroke-opacity:1;stroke-miterlimit:4;" d="M 288.266447 47.221875 C 291.661184 51.575391 296.92352 51.328125 302.580592 47.530078 C 308.219161 43.74375 314.344984 33.083203 317.30551 32.908594 C 337.998355 31.70625 363.029605 22.972266 374.970395 16.226953 C 359.83347 18.370313 344.827303 20.799609 329.559622 20.860547 C 303.509457 20.963672 300.426809 32.827734 289.812089 41.145703 " transform="matrix(3.166667,0,0,3.333333,0,0)"/>
<path style="fill:none;stroke-width:1.874999;stroke-linecap:round;stroke-linejoin:miter;stroke:rgb(74.117647%,61.176471%,3.137255%);stroke-opacity:1;stroke-miterlimit:4;" d="M 292.308799 42.103125 C 297.862253 38.566406 302.373355 33.952734 307.571546 30.097266 C 316.179276 23.715234 326.121711 23.527734 336.795641 23.396484 C 346.255757 23.279297 362.840872 19.326562 371.837171 17.217187 " transform="matrix(3.166667,0,0,3.333333,0,0)"/>
<path style="fill:none;stroke-width:1.874999;stroke-linecap:butt;stroke-linejoin:miter;stroke:rgb(74.117647%,61.176471%,3.137255%);stroke-opacity:1;stroke-miterlimit:4;" d="M 286.534539 40.436719 C 284.895148 31.925391 276.930099 29.370703 266.866776 27.842578 C 255.91653 26.178516 244.749178 25.253906 233.828536 22.235156 C 231.119655 21.486328 228.594572 20.164453 225.978207 19.129687 " transform="matrix(3.166667,0,0,3.333333,0,0)"/>
<path style="fill:none;stroke-width:1.874999;stroke-linecap:round;stroke-linejoin:miter;stroke:rgb(74.117647%,61.176471%,3.137255%);stroke-opacity:1;stroke-miterlimit:4;" d="M 290.023026 52.982813 C 300.294819 53.736328 307.93051 50.647266 316.696135 46.277344 " transform="matrix(3.166667,0,0,3.333333,0,0)"/>
<path style="fill:none;stroke-width:1.874999;stroke-linecap:round;stroke-linejoin:miter;stroke:rgb(74.117647%,61.176471%,3.137255%);stroke-opacity:1;stroke-miterlimit:4;" d="M 254.631168 41.83125 L 267.590872 41.83125 " transform="matrix(3.166667,0,0,3.333333,0,0)"/>
<path style="fill-rule:nonzero;fill:rgb(74.117647%,61.176471%,3.137255%);fill-opacity:1;stroke-width:0.814393;stroke-linecap:round;stroke-linejoin:round;stroke:rgb(74.117647%,61.176471%,3.137255%);stroke-opacity:1;stroke-miterlimit:4;" d="M 273.370066 40.437891 C 273.371299 41.332031 272.64597 42.058594 271.750411 42.058594 C 270.854852 42.058594 270.129523 41.332031 270.130757 40.437891 C 270.129523 39.542578 270.854852 38.816016 271.750411 38.816016 C 272.64597 38.816016 273.371299 39.542578 273.370066 40.437891 Z M 273.370066 40.437891 " transform="matrix(3.166667,0,0,3.333333,0,0)"/>
<path style=" stroke:none;fill-rule:evenodd;fill:rgb(100%,100%,100%);fill-opacity:1;" d="M 0 571.429688 C 63.332031 571.429688 126.667969 614.285156 190 614.285156 C 253.332031 614.285156 316.667969 571.429688 380 571.429688 C 443.332031 571.429688 506.667969 614.285156 570 614.285156 C 633.332031 614.285156 696.667969 571.429688 760 571.429688 C 823.332031 571.429688 886.667969 614.285156 950 614.285156 C 1013.332031 614.285156 1076.667969 571.429688 1140 571.429688 C 1203.332031 571.429688 1266.664062 614.285156 1330 614.285156 C 1393.332031 614.285156 1456.664062 571.429688 1520 571.429688 C 1583.332031 571.429688 1646.664062 614.285156 1710 614.285156 C 1773.332031 614.285156 1836.664062 571.429688 1900 571.429688 L 1900 500 C 1836.664062 500 1773.332031 542.855469 1710 542.855469 C 1646.664062 542.855469 1583.332031 500 1520 500 C 1456.664062 500 1393.332031 542.855469 1330 542.855469 C 1266.664062 542.855469 1203.332031 500 1140 500 C 1076.667969 500 1013.332031 542.855469 950 542.855469 C 886.667969 542.855469 823.332031 500 760 500 C 696.667969 500 633.332031 542.855469 570 542.855469 C 506.667969 542.855469 443.332031 500 380 500 C 316.667969 500 253.332031 542.855469 190 542.855469 C 126.667969 542.855469 63.332031 500 0 500 Z M 0 571.429688 "/>
<path style=" stroke:none;fill-rule:evenodd;fill:rgb(100%,100%,100%);fill-opacity:1;" d="M 0 714.285156 C 63.332031 714.285156 126.667969 757.140625 190 757.140625 C 253.332031 757.140625 316.667969 714.285156 380 714.285156 C 443.332031 714.285156 506.667969 757.140625 570 757.140625 C 633.332031 757.140625 696.667969 714.285156 760 714.285156 C 823.332031 714.285156 886.667969 757.140625 950 757.140625 C 1013.332031 757.140625 1076.667969 714.285156 1140 714.285156 C 1203.332031 714.285156 1266.664062 757.140625 1330 757.140625 C 1393.332031 757.140625 1456.664062 714.285156 1520 714.285156 C 1583.332031 714.285156 1646.664062 757.140625 1710 757.140625 C 1773.332031 757.140625 1836.664062 714.285156 1900 714.285156 L 1900 642.855469 C 1836.664062 642.855469 1773.332031 685.714844 1710 685.714844 C 1646.664062 685.714844 1583.332031 642.855469 1520 642.855469 C 1456.664062 642.855469 1393.332031 685.714844 1330 685.714844 C 1266.664062 685.714844 1203.332031 642.855469 1140 642.855469 C 1076.667969 642.855469 1013.332031 685.714844 950 685.714844 C 886.667969 685.714844 823.332031 642.855469 760 642.855469 C 696.667969 642.855469 633.332031 685.714844 570 685.714844 C 506.667969 685.714844 443.332031 642.855469 380 642.855469 C 316.667969 642.855469 253.332031 685.714844 190 685.714844 C 126.667969 685.714844 63.332031 642.855469 0 642.855469 Z M 0 714.285156 "/>
</g>
</svg>
