<?xml version="1.0" encoding="UTF-8"?>
<svg xmlns="http://www.w3.org/2000/svg" xmlns:xlink="http://www.w3.org/1999/xlink" width="380pt" height="200pt" viewBox="0 0 1900 1000" version="1.1">
<g id="surface1">
<rect x="0" y="0" width="1900" height="1000" style="fill:rgb(0%,68.627451%,79.215686%);fill-opacity:1;stroke:none;"/>
<path style=" stroke:none;fill-rule:nonzero;fill:rgb(99.607843%,77.254902%,4.705882%);fill-opacity:1;" d="M 112.078125 292.136719 C 112.078125 312.40625 129.367188 322.824219 142.953125 322.824219 C 161.253906 322.824219 171 311.304688 171 296.226562 C 171 287.679688 169.511719 282.316406 165.765625 274.132812 C 165.765625 274.132812 135.578125 208.042969 123.820312 182.480469 C 122.355469 179.292969 121.882812 175.664062 121.882812 170.34375 C 121.882812 162.125 129.453125 155.410156 137.394531 155.203125 C 144.628906 155.011719 152.515625 162.304688 152.515625 170.617188 C 152.515625 180.710938 147.542969 185.207031 142.433594 185.207031 C 136.148438 185.207031 133.644531 182.488281 133.644531 177.84375 C 133.644531 174.605469 135.128906 173.207031 137.265625 173.207031 C 142.65625 173.207031 141.140625 180.84375 141.140625 180.84375 C 143.820312 180.226562 146.019531 177.347656 144.761719 173.753906 C 146.71875 173.292969 148.554688 172.210938 149.996094 170.480469 C 148.550781 169.003906 146.894531 167.867188 144.761719 167.476562 C 146.023438 163.089844 144.335938 160.949219 140.691406 160.046875 C 141.425781 161.734375 141.449219 163.285156 141.207031 164.75 C 135.464844 163.03125 126.664062 165.765625 126.664062 176.207031 C 126.664062 186.574219 133.5 195.300781 146.3125 193.117188 C 143.265625 194.652344 141.714844 197.792969 141.402344 201.300781 C 143.726562 200.347656 146.3125 200.210938 146.3125 200.210938 C 144.816406 202.992188 142.734375 205.390625 142.824219 210.847656 C 145.199219 209.710938 147.40625 207.605469 150.449219 208.941406 C 145.671875 218.835938 151.542969 232.449219 166.476562 235.671875 C 161.011719 228.925781 158.332031 221.644531 158.332031 214.394531 C 158.332031 190.898438 164.539062 186.949219 164.539062 170.613281 C 164.539062 163.78125 161.199219 156.398438 154.585938 151.382812 L 154.585938 151.65625 C 158.957031 150.425781 161.757812 148.15625 163.367188 145.078125 C 153.378906 142.097656 138.859375 142.152344 131.0625 145.382812 C 122.097656 146.472656 115.84375 153.710938 114 157.382812 C 112.15625 161.054688 108.578125 174.339844 114 186.296875 C 119.9375 199.386719 147.925781 261.855469 156.652344 281.496094 C 158.503906 285.660156 159.625 290.078125 159.625 294.859375 C 159.625 306.890625 149.15625 311.089844 143.210938 311.089844 C 136.101562 311.089844 128.863281 305.390625 128.863281 298.269531 C 128.863281 293.757812 131.191406 291.042969 134.550781 291.042969 C 142.585938 291.042969 142.097656 298.238281 140.496094 302.769531 C 145.496094 300.40625 148.402344 296.179688 147.605469 291.722656 C 150.4375 291.316406 153.132812 289.902344 155.617188 286.949219 C 153.660156 284.351562 151.273438 282.382812 147.605469 282.3125 C 149.207031 275.402344 144.8125 272.476562 140.496094 270.855469 C 141.859375 275.929688 142.757812 281.769531 134.550781 281.769531 C 128.566406 281.769531 123.855469 282.859375 121.109375 286.949219 C 120.945312 281.496094 120.460938 259.945312 120.460938 259.945312 C 120.117188 251.847656 130.757812 252.078125 137.523438 254.492188 C 134.96875 245.164062 129.734375 240.121094 117.617188 241.398438 C 120.558594 240.101562 123.695312 237.1875 123.695312 231.578125 C 123.691406 223.984375 117.839844 215.574219 113.996094 213.085938 Z M 112.078125 292.136719 "/>
<path style=" stroke:none;fill-rule:nonzero;fill:rgb(99.607843%,77.254902%,4.705882%);fill-opacity:1;" d="M 1054.773438 270.109375 C 1062.242188 271.570312 1065.960938 267.253906 1067.074219 261.371094 C 1068.554688 253.53125 1065.367188 214.035156 1065.367188 214.035156 C 1065.367188 214.035156 1048.066406 249.242188 1046.585938 257.082031 C 1045.472656 262.964844 1047.320312 268.550781 1054.773438 270.109375 Z M 1054.773438 270.109375 "/>
<path style=" stroke:none;fill-rule:nonzero;fill:rgb(99.607843%,77.254902%,4.705882%);fill-opacity:1;" d="M 1082.007812 278.804688 C 1089.0625 281.773438 1093.511719 278.304688 1095.691406 272.761719 C 1098.597656 265.375 1102.792969 225.984375 1102.792969 225.984375 C 1102.792969 225.984375 1079.296875 256.960938 1076.390625 264.347656 C 1074.210938 269.890625 1074.988281 275.746094 1082.007812 278.804688 Z M 1082.007812 278.804688 "/>
<path style=" stroke:none;fill-rule:nonzero;fill:rgb(99.607843%,77.254902%,4.705882%);fill-opacity:1;" d="M 1107.109375 292.929688 C 1113.476562 297.289062 1118.484375 294.796875 1121.648438 289.8125 C 1125.871094 283.164062 1137.285156 245.390625 1137.285156 245.390625 C 1137.285156 245.390625 1108.5 270.945312 1104.28125 277.59375 C 1101.113281 282.582031 1100.792969 288.488281 1107.109375 292.929688 Z M 1107.109375 292.929688 "/>
<path style=" stroke:none;fill-rule:nonzero;fill:rgb(99.607843%,77.254902%,4.705882%);fill-opacity:1;" d="M 1129.109375 311.933594 C 1134.546875 317.519531 1139.921875 316.105469 1143.949219 311.863281 C 1149.320312 306.210938 1167.515625 271.507812 1167.515625 271.507812 C 1167.515625 271.507812 1134.546875 290.660156 1129.175781 296.316406 C 1125.148438 300.554688 1123.738281 306.28125 1129.109375 311.933594 Z M 1129.109375 311.933594 "/>
<path style=" stroke:none;fill-rule:nonzero;fill:rgb(99.607843%,77.254902%,4.705882%);fill-opacity:1;" d="M 1147.164062 335.09375 C 1151.464844 341.6875 1156.996094 341.402344 1161.730469 338.070312 C 1168.046875 333.628906 1192.328125 303.332031 1192.328125 303.332031 C 1192.328125 303.332031 1156.441406 315.34375 1150.125 319.789062 C 1145.390625 323.121094 1142.945312 328.445312 1147.164062 335.09375 Z M 1147.164062 335.09375 "/>
<path style=" stroke:none;fill-rule:nonzero;fill:rgb(99.607843%,77.254902%,4.705882%);fill-opacity:1;" d="M 1160.582031 361.515625 C 1163.578125 368.863281 1169.054688 369.722656 1174.316406 367.425781 C 1181.335938 364.367188 1210.761719 339.636719 1210.761719 339.636719 C 1210.761719 339.636719 1173.339844 344.050781 1166.324219 347.113281 C 1161.058594 349.40625 1157.675781 354.128906 1160.582031 361.515625 Z M 1160.582031 361.515625 "/>
<path style=" stroke:none;fill-rule:nonzero;fill:rgb(99.607843%,77.254902%,4.705882%);fill-opacity:1;" d="M 1168.84375 390.183594 C 1170.417969 398.007812 1175.632812 399.972656 1181.21875 398.804688 C 1188.667969 397.242188 1222.113281 379.03125 1222.113281 379.03125 C 1222.113281 379.03125 1184.59375 375.675781 1177.144531 377.238281 C 1171.554688 378.40625 1167.363281 382.34375 1168.84375 390.183594 Z M 1168.84375 390.183594 "/>
<path style=" stroke:none;fill-rule:nonzero;fill:rgb(99.607843%,77.254902%,4.705882%);fill-opacity:1;" d="M 1171.632812 420 C 1171.730469 427.996094 1176.476562 430.996094 1182.175781 430.996094 C 1189.769531 430.996094 1225.949219 420 1225.949219 420 C 1225.949219 420 1189.769531 409.003906 1182.175781 409.003906 C 1176.476562 409.003906 1171.632812 412.003906 1171.632812 420 Z M 1171.632812 420 "/>
<path style=" stroke:none;fill-rule:nonzero;fill:rgb(99.607843%,77.254902%,4.705882%);fill-opacity:1;" d="M 1168.84375 449.816406 C 1167.457031 457.675781 1171.554688 461.59375 1177.144531 462.761719 C 1184.59375 464.324219 1222.113281 460.96875 1222.113281 460.96875 C 1222.113281 460.96875 1188.667969 442.757812 1181.21875 441.195312 C 1175.632812 440.027344 1170.324219 441.972656 1168.84375 449.816406 Z M 1168.84375 449.816406 "/>
<path style=" stroke:none;fill-rule:nonzero;fill:rgb(99.607843%,77.254902%,4.705882%);fill-opacity:1;" d="M 1160.582031 478.484375 C 1157.761719 485.910156 1161.058594 490.59375 1166.324219 492.886719 C 1173.339844 495.949219 1210.761719 500.363281 1210.761719 500.363281 C 1210.761719 500.363281 1181.335938 475.632812 1174.316406 472.574219 C 1169.054688 470.277344 1163.488281 471.097656 1160.582031 478.484375 Z M 1160.582031 478.484375 "/>
<path style=" stroke:none;fill-rule:nonzero;fill:rgb(99.607843%,77.254902%,4.705882%);fill-opacity:1;" d="M 1147.164062 504.90625 C 1143.023438 511.609375 1145.390625 516.878906 1150.125 520.210938 C 1156.441406 524.65625 1192.328125 536.667969 1192.328125 536.667969 C 1192.328125 536.667969 1168.046875 506.371094 1161.730469 501.929688 C 1156.996094 498.597656 1151.386719 498.257812 1147.164062 504.90625 Z M 1147.164062 504.90625 "/>
<path style=" stroke:none;fill-rule:nonzero;fill:rgb(99.607843%,77.254902%,4.705882%);fill-opacity:1;" d="M 1129.109375 528.066406 C 1123.804688 533.789062 1125.148438 539.445312 1129.175781 543.683594 C 1134.546875 549.339844 1167.515625 568.492188 1167.515625 568.492188 C 1167.515625 568.492188 1149.320312 533.789062 1143.949219 528.136719 C 1139.921875 523.894531 1134.480469 522.410156 1129.109375 528.066406 Z M 1129.109375 528.066406 "/>
<path style=" stroke:none;fill-rule:nonzero;fill:rgb(99.607843%,77.254902%,4.705882%);fill-opacity:1;" d="M 1107.109375 547.070312 C 1100.84375 551.597656 1101.113281 557.417969 1104.28125 562.40625 C 1108.5 569.054688 1137.285156 594.609375 1137.285156 594.609375 C 1137.285156 594.609375 1125.871094 556.835938 1121.648438 550.1875 C 1118.484375 545.203125 1113.425781 542.628906 1107.109375 547.070312 Z M 1107.109375 547.070312 "/>
<path style=" stroke:none;fill-rule:nonzero;fill:rgb(99.607843%,77.254902%,4.705882%);fill-opacity:1;" d="M 1082.007812 561.195312 C 1075.027344 564.347656 1074.210938 570.109375 1076.390625 575.652344 C 1079.296875 583.039062 1102.792969 614.015625 1102.792969 614.015625 C 1102.792969 614.015625 1098.597656 574.625 1095.691406 567.238281 C 1093.511719 561.695312 1089.027344 558.132812 1082.007812 561.195312 Z M 1082.007812 561.195312 "/>
<path style=" stroke:none;fill-rule:nonzero;fill:rgb(99.607843%,77.254902%,4.705882%);fill-opacity:1;" d="M 945.785156 547.070312 C 939.417969 542.710938 934.410156 545.203125 931.246094 550.1875 C 927.027344 556.835938 915.613281 594.609375 915.613281 594.609375 C 915.613281 594.609375 944.394531 569.054688 948.617188 562.40625 C 951.78125 557.417969 952.101562 551.511719 945.785156 547.070312 Z M 945.785156 547.070312 "/>
<path style=" stroke:none;fill-rule:nonzero;fill:rgb(99.607843%,77.254902%,4.705882%);fill-opacity:1;" d="M 923.785156 528.066406 C 918.347656 522.480469 912.976562 523.894531 908.949219 528.136719 C 903.574219 533.789062 885.378906 568.492188 885.378906 568.492188 C 885.378906 568.492188 918.347656 549.339844 923.71875 543.683594 C 927.746094 539.445312 929.15625 533.71875 923.785156 528.066406 Z M 923.785156 528.066406 "/>
<path style=" stroke:none;fill-rule:nonzero;fill:rgb(99.607843%,77.254902%,4.705882%);fill-opacity:1;" d="M 905.730469 504.90625 C 901.429688 498.3125 895.902344 498.597656 891.164062 501.929688 C 884.847656 506.371094 860.570312 536.667969 860.570312 536.667969 C 860.570312 536.667969 896.453125 524.65625 902.769531 520.210938 C 907.507812 516.878906 909.949219 511.554688 905.730469 504.90625 Z M 905.730469 504.90625 "/>
<path style=" stroke:none;fill-rule:nonzero;fill:rgb(99.607843%,77.254902%,4.705882%);fill-opacity:1;" d="M 892.3125 478.484375 C 889.320312 471.136719 883.84375 470.277344 878.578125 472.574219 C 871.5625 475.632812 842.132812 500.363281 842.132812 500.363281 C 842.132812 500.363281 879.554688 495.949219 886.574219 492.886719 C 891.835938 490.59375 895.222656 485.871094 892.3125 478.484375 Z M 892.3125 478.484375 "/>
<path style=" stroke:none;fill-rule:nonzero;fill:rgb(99.607843%,77.254902%,4.705882%);fill-opacity:1;" d="M 884.050781 449.816406 C 882.476562 441.992188 877.265625 440.027344 871.675781 441.195312 C 864.226562 442.757812 830.78125 460.96875 830.78125 460.96875 C 830.78125 460.96875 868.300781 464.324219 875.753906 462.761719 C 881.339844 461.59375 885.535156 457.65625 884.050781 449.816406 Z M 884.050781 449.816406 "/>
<path style=" stroke:none;fill-rule:nonzero;fill:rgb(99.607843%,77.254902%,4.705882%);fill-opacity:1;" d="M 881.261719 420 C 881.167969 412.003906 876.417969 409.003906 870.722656 409.003906 C 863.125 409.003906 826.949219 420 826.949219 420 C 826.949219 420 863.125 430.996094 870.722656 430.996094 C 876.417969 430.996094 881.261719 427.996094 881.261719 420 Z M 881.261719 420 "/>
<path style=" stroke:none;fill-rule:nonzero;fill:rgb(99.607843%,77.254902%,4.705882%);fill-opacity:1;" d="M 884.050781 390.183594 C 885.441406 382.324219 881.339844 378.40625 875.753906 377.238281 C 868.300781 375.675781 830.78125 379.03125 830.78125 379.03125 C 830.78125 379.03125 864.226562 397.242188 871.675781 398.804688 C 877.265625 399.972656 882.570312 398.027344 884.050781 390.183594 Z M 884.050781 390.183594 "/>
<path style=" stroke:none;fill-rule:nonzero;fill:rgb(99.607843%,77.254902%,4.705882%);fill-opacity:1;" d="M 892.3125 361.515625 C 895.132812 354.089844 891.835938 349.40625 886.574219 347.113281 C 879.554688 344.050781 842.132812 339.636719 842.132812 339.636719 C 842.132812 339.636719 871.5625 364.367188 878.578125 367.425781 C 883.84375 369.722656 889.40625 368.902344 892.3125 361.515625 Z M 892.3125 361.515625 "/>
<path style=" stroke:none;fill-rule:nonzero;fill:rgb(99.607843%,77.254902%,4.705882%);fill-opacity:1;" d="M 905.730469 335.09375 C 909.871094 328.390625 907.507812 323.121094 902.769531 319.789062 C 896.453125 315.34375 860.570312 303.332031 860.570312 303.332031 C 860.570312 303.332031 884.847656 333.628906 891.164062 338.070312 C 895.902344 341.402344 901.511719 341.742188 905.730469 335.09375 Z M 905.730469 335.09375 "/>
<path style=" stroke:none;fill-rule:nonzero;fill:rgb(99.607843%,77.254902%,4.705882%);fill-opacity:1;" d="M 923.785156 311.933594 C 929.089844 306.210938 927.746094 300.554688 923.71875 296.316406 C 918.347656 290.660156 885.378906 271.507812 885.378906 271.507812 C 885.378906 271.507812 903.574219 306.210938 908.949219 311.863281 C 912.976562 316.105469 918.414062 317.589844 923.785156 311.933594 Z M 923.785156 311.933594 "/>
<path style=" stroke:none;fill-rule:nonzero;fill:rgb(99.607843%,77.254902%,4.705882%);fill-opacity:1;" d="M 1154.109375 420.171875 C 1154.109375 494.480469 1096.878906 554.722656 1026.285156 554.722656 C 955.691406 554.722656 898.464844 494.480469 898.464844 420.171875 C 898.464844 345.863281 955.691406 285.621094 1026.285156 285.621094 C 1096.878906 285.621094 1154.109375 345.863281 1154.109375 420.171875 Z M 1154.109375 420.171875 "/>
<path style=" stroke:none;fill-rule:nonzero;fill:rgb(99.607843%,77.254902%,4.705882%);fill-opacity:1;" d="M 1026.449219 267.171875 C 1034.042969 267.074219 1036.894531 262.074219 1036.894531 256.078125 C 1036.894531 248.082031 1026.449219 210 1026.449219 210 C 1026.449219 210 1016.003906 248.082031 1016.003906 256.078125 C 1016.003906 262.074219 1018.851562 267.171875 1026.449219 267.171875 Z M 1026.449219 267.171875 "/>
<path style=" stroke:none;fill-rule:nonzero;fill:rgb(99.607843%,77.254902%,4.705882%);fill-opacity:1;" d="M 1054.773438 569.890625 C 1047.339844 571.546875 1045.472656 577.035156 1046.585938 582.917969 C 1048.066406 590.757812 1065.367188 625.964844 1065.367188 625.964844 C 1065.367188 625.964844 1068.554688 586.46875 1067.074219 578.628906 C 1065.960938 572.746094 1062.222656 568.332031 1054.773438 569.890625 Z M 1054.773438 569.890625 "/>
<path style=" stroke:none;fill-rule:nonzero;fill:rgb(99.607843%,77.254902%,4.705882%);fill-opacity:1;" d="M 1026.449219 572.828125 C 1018.851562 572.925781 1016.003906 577.925781 1016.003906 583.921875 C 1016.003906 591.917969 1026.449219 630 1026.449219 630 C 1026.449219 630 1036.894531 591.917969 1036.894531 583.921875 C 1036.894531 577.925781 1034.042969 572.828125 1026.449219 572.828125 Z M 1026.449219 572.828125 "/>
<path style=" stroke:none;fill-rule:nonzero;fill:rgb(99.607843%,77.254902%,4.705882%);fill-opacity:1;" d="M 998.125 569.890625 C 990.65625 568.429688 986.933594 572.746094 985.824219 578.628906 C 984.339844 586.46875 987.527344 625.964844 987.527344 625.964844 C 987.527344 625.964844 1004.828125 590.757812 1006.3125 582.917969 C 1007.421875 577.035156 1005.574219 571.449219 998.125 569.890625 Z M 998.125 569.890625 "/>
<path style=" stroke:none;fill-rule:nonzero;fill:rgb(99.607843%,77.254902%,4.705882%);fill-opacity:1;" d="M 970.886719 561.195312 C 963.832031 558.226562 959.382812 561.695312 957.203125 567.238281 C 954.296875 574.625 950.101562 614.015625 950.101562 614.015625 C 950.101562 614.015625 973.597656 583.039062 976.503906 575.652344 C 978.683594 570.109375 977.90625 564.253906 970.886719 561.195312 Z M 970.886719 561.195312 "/>
<path style=" stroke:none;fill-rule:nonzero;fill:rgb(99.607843%,77.254902%,4.705882%);fill-opacity:1;" d="M 945.785156 292.929688 C 952.050781 288.402344 951.78125 282.582031 948.617188 277.59375 C 944.394531 270.945312 915.613281 245.390625 915.613281 245.390625 C 915.613281 245.390625 927.027344 283.164062 931.246094 289.8125 C 934.410156 294.796875 939.472656 297.371094 945.785156 292.929688 Z M 945.785156 292.929688 "/>
<path style=" stroke:none;fill-rule:nonzero;fill:rgb(99.607843%,77.254902%,4.705882%);fill-opacity:1;" d="M 970.886719 278.804688 C 977.871094 275.652344 978.683594 269.890625 976.503906 264.347656 C 973.597656 256.960938 950.101562 225.984375 950.101562 225.984375 C 950.101562 225.984375 954.296875 265.375 957.203125 272.761719 C 959.382812 278.304688 963.871094 281.867188 970.886719 278.804688 Z M 970.886719 278.804688 "/>
<path style=" stroke:none;fill-rule:nonzero;fill:rgb(99.607843%,77.254902%,4.705882%);fill-opacity:1;" d="M 998.125 270.109375 C 1005.554688 268.453125 1007.421875 262.964844 1006.3125 257.082031 C 1004.828125 249.242188 987.527344 214.035156 987.527344 214.035156 C 987.527344 214.035156 984.339844 253.53125 985.824219 261.371094 C 986.933594 267.253906 990.671875 271.667969 998.125 270.109375 Z M 998.125 270.109375 "/>
<path style=" stroke:none;fill-rule:evenodd;fill:rgb(99.607843%,77.254902%,4.705882%);fill-opacity:1;" d="M 1022.011719 654.949219 L 1019.804688 659.59375 L 1017.355469 665.527344 L 1015.882812 668.363281 L 1014.660156 670.941406 L 1013.679688 673.007812 L 1012.453125 674.296875 L 1009.511719 671.71875 L 1006.324219 669.394531 L 1002.894531 667.589844 L 999.21875 666.042969 L 995.296875 665.011719 L 991.378906 663.976562 L 987.457031 663.203125 L 983.289062 662.6875 L 974.714844 661.914062 L 966.136719 661.65625 L 957.804688 661.140625 L 949.960938 660.109375 L 945.550781 659.335938 L 941.386719 658.304688 L 939.179688 657.53125 L 936.972656 656.753906 L 935.015625 655.722656 L 933.296875 654.691406 L 930.601562 652.886719 L 927.90625 650.824219 L 924.964844 648.5 L 922.269531 645.921875 L 910.996094 634.570312 L 905.363281 629.152344 L 900.214844 624.253906 L 897.765625 622.449219 L 895.3125 620.640625 L 893.109375 619.609375 L 890.902344 618.835938 L 886.738281 617.804688 L 883.0625 616.515625 L 879.386719 615.222656 L 875.710938 613.417969 L 872.523438 611.871094 L 869.335938 609.808594 L 866.398438 607.742188 L 863.703125 605.679688 L 860.761719 603.359375 L 858.308594 601.035156 L 853.410156 595.878906 L 848.753906 590.460938 L 844.339844 584.785156 L 835.519531 572.660156 L 826.207031 560.28125 L 820.816406 554.347656 L 815.179688 548.414062 L 811.992188 545.316406 L 808.808594 542.480469 L 805.378906 539.902344 L 801.703125 537.0625 L 800.964844 537.320312 L 800.230469 538.09375 L 799.496094 539.128906 L 799.003906 540.417969 L 798.269531 542.738281 L 798.027344 543.769531 L 796.308594 542.996094 L 794.839844 542.222656 L 793.125 541.449219 L 791.652344 540.933594 L 788.46875 540.933594 L 786.753906 541.449219 L 785.039062 542.222656 L 786.753906 544.542969 L 788.957031 547.640625 L 791.164062 551.25 L 793.125 555.121094 L 795.085938 559.246094 L 796.554688 563.117188 L 797.046875 565.179688 L 797.535156 566.730469 L 797.78125 568.535156 L 797.78125 570.082031 L 784.546875 570.082031 L 786.507812 573.175781 L 788.714844 576.273438 L 791.164062 579.367188 L 793.859375 582.207031 L 796.554688 585.042969 L 799.25 587.882812 L 801.945312 590.203125 L 804.398438 592.007812 L 801.703125 592.265625 L 798.027344 592.523438 L 794.351562 593.039062 L 791.652344 593.296875 L 793.859375 595.363281 L 796.554688 597.425781 L 799.496094 599.746094 L 802.679688 602.070312 L 805.867188 604.132812 L 809.054688 605.9375 L 811.992188 606.96875 L 814.691406 607.742188 L 815.914062 608 L 816.894531 608.257812 L 817.628906 608.519531 L 818.367188 609.292969 L 818.367188 610.324219 L 818.121094 610.839844 L 817.628906 612.386719 L 817.386719 613.933594 L 817.140625 614.964844 L 817.140625 615.742188 L 817.386719 617.03125 L 817.628906 618.0625 L 818.121094 618.578125 L 818.855469 619.09375 L 819.835938 619.609375 L 821.0625 619.867188 L 822.285156 620.382812 L 824.738281 621.414062 L 825.71875 622.1875 L 825.960938 622.449219 L 825.960938 622.964844 L 825.71875 623.222656 L 823.757812 624.769531 L 822.777344 625.800781 L 821.796875 627.089844 L 821.796875 628.121094 L 821.550781 629.152344 L 821.796875 630.445312 L 822.042969 631.992188 L 826.207031 633.539062 L 830.617188 635.085938 L 832.578125 635.601562 L 834.539062 636.378906 L 836.011719 637.152344 L 837.234375 637.925781 L 829.148438 644.632812 L 831.355469 646.695312 L 834.050781 648.242188 L 837.480469 650.050781 L 840.910156 651.339844 L 844.832031 652.628906 L 848.507812 653.402344 L 851.695312 654.175781 L 854.632812 654.175781 L 851.9375 656.238281 L 848.507812 658.5625 L 844.832031 660.625 L 842.136719 662.6875 L 844.585938 664.496094 L 848.019531 666.300781 L 851.9375 668.363281 L 856.59375 670.6875 L 867.378906 675.585938 L 879.140625 680.488281 L 891.394531 685.132812 L 903.402344 689.257812 L 908.792969 691.0625 L 913.695312 692.355469 L 918.105469 693.644531 L 922.027344 694.417969 L 914.183594 693.644531 L 906.832031 692.613281 L 899.480469 691.320312 L 892.617188 689.773438 L 885.757812 687.710938 L 879.140625 685.648438 L 872.769531 683.324219 L 866.640625 680.746094 L 854.632812 675.585938 L 843.363281 670.425781 L 837.96875 668.105469 L 832.578125 665.785156 L 827.433594 663.71875 L 822.285156 661.65625 L 823.511719 660.882812 L 824.980469 660.367188 L 826.941406 659.59375 L 829.148438 659.078125 L 833.804688 657.53125 L 837.96875 655.980469 L 830.617188 654.691406 L 820.570312 652.628906 L 815.671875 651.082031 L 811.503906 649.789062 L 809.789062 649.015625 L 808.320312 648.242188 L 807.09375 647.46875 L 806.359375 646.695312 L 806.359375 646.4375 L 806.601562 646.179688 L 807.339844 645.921875 L 808.074219 645.40625 L 810.035156 644.632812 L 812.730469 643.859375 L 818.609375 642.050781 L 823.511719 640.246094 L 811.503906 637.925781 L 802.191406 636.375 L 798.761719 635.601562 L 796.066406 634.570312 L 795.085938 634.054688 L 794.105469 633.28125 L 793.371094 632.765625 L 792.878906 631.992188 L 793.613281 631.476562 L 795.820312 630.960938 L 799.007812 630.445312 L 802.683594 629.671875 L 806.601562 629.152344 L 810.035156 628.121094 L 811.75 627.605469 L 813.21875 627.089844 L 815.179688 625.542969 L 811.257812 623.996094 L 806.359375 622.964844 L 800.722656 622.1875 L 795.085938 621.414062 L 792.144531 620.640625 L 789.449219 620.125 L 784.058594 618.0625 L 781.605469 616.773438 L 779.402344 614.964844 L 777.441406 613.160156 L 775.96875 610.839844 L 776.460938 610.582031 L 777.441406 610.324219 L 778.667969 610.324219 L 780.625 610.582031 L 785.039062 610.839844 L 789.9375 611.097656 L 795.332031 611.613281 L 802.191406 611.613281 L 804.152344 611.355469 L 805.621094 610.839844 L 806.601562 610.324219 L 800.722656 607.742188 L 792.878906 604.132812 L 788.46875 601.8125 L 783.8125 599.488281 L 779.15625 596.910156 L 774.5 594.328125 L 770.089844 591.492188 L 765.921875 588.398438 L 762.003906 585.300781 L 758.570312 582.207031 L 757.101562 580.398438 L 755.628906 578.851562 L 754.652344 577.304688 L 753.671875 575.5 L 752.691406 573.953125 L 752.199219 572.144531 L 751.953125 570.597656 L 751.710938 568.792969 L 753.425781 568.792969 L 755.386719 569.050781 L 759.308594 570.597656 L 763.226562 573.175781 L 767.640625 575.757812 L 769.597656 577.046875 L 771.804688 578.335938 L 774.011719 579.367188 L 775.972656 580.140625 L 778.175781 580.65625 L 780.136719 580.917969 L 782.34375 580.917969 L 784.304688 580.140625 L 778.421875 575.5 L 771.804688 569.566406 L 764.207031 562.601562 L 756.609375 554.863281 L 749.015625 546.609375 L 741.90625 538.351562 L 738.722656 533.96875 L 735.535156 529.839844 L 732.839844 525.714844 L 730.390625 521.84375 L 729.898438 520.8125 L 729.898438 519.007812 L 730.144531 518.234375 L 730.390625 517.457031 L 731.125 516.941406 L 731.859375 516.167969 L 732.59375 515.652344 L 734.554688 515.136719 L 736.515625 515.136719 L 737.742188 515.394531 L 738.722656 515.652344 L 739.703125 516.425781 L 740.4375 517.199219 L 744.847656 521.84375 L 749.996094 527.261719 L 755.386719 533.195312 L 761.265625 539.128906 L 767.148438 544.542969 L 773.03125 549.703125 L 775.972656 551.765625 L 778.667969 553.574219 L 781.605469 555.121094 L 784.304688 556.152344 L 782.34375 554.863281 L 780.136719 552.539062 L 777.195312 549.445312 L 774.011719 545.574219 L 766.902344 536.546875 L 759.0625 525.972656 L 755.140625 520.296875 L 751.464844 514.621094 L 748.035156 508.945312 L 744.601562 503.527344 L 741.664062 498.371094 L 739.210938 493.726562 L 737.496094 489.339844 L 736.027344 485.730469 L 735.78125 484.441406 L 735.78125 482.375 L 736.027344 481.601562 L 736.515625 480.828125 L 737.007812 480.054688 L 737.496094 479.539062 L 738.230469 479.023438 L 739.945312 478.507812 L 741.417969 477.992188 L 744.847656 477.992188 L 745.828125 478.25 L 746.5625 478.507812 L 747.542969 479.023438 L 748.277344 479.796875 L 750.238281 481.601562 L 752.199219 484.183594 L 756.609375 490.113281 L 761.265625 497.597656 L 766.660156 505.59375 L 772.292969 513.847656 L 775.234375 517.714844 L 778.175781 521.585938 L 781.363281 524.9375 L 784.792969 528.035156 L 780.625 519.523438 L 775.972656 509.71875 L 773.519531 504.304688 L 771.316406 498.886719 L 769.109375 493.210938 L 767.148438 487.535156 L 765.433594 481.601562 L 763.71875 475.925781 L 762.492188 470.253906 L 761.511719 464.578125 L 761.023438 459.160156 L 760.777344 454 L 761.023438 451.421875 L 761.265625 449.101562 L 761.511719 446.777344 L 762.003906 444.457031 L 762.492188 443.683594 L 762.738281 442.910156 L 763.472656 442.136719 L 763.960938 441.617188 L 765.679688 440.84375 L 767.394531 440.328125 L 769.109375 440.328125 L 770.578125 440.585938 L 771.316406 440.84375 L 771.804688 441.101562 L 772.050781 441.617188 L 772.292969 442.394531 L 774.746094 450.648438 L 776.949219 459.417969 L 779.15625 468.445312 L 781.363281 477.21875 L 783.566406 485.988281 L 786.507812 494.242188 L 787.980469 498.113281 L 789.695312 501.980469 L 791.65625 505.59375 L 793.859375 509.203125 L 792.390625 501.722656 L 791.410156 495.015625 L 790.429688 488.824219 L 789.9375 483.148438 L 789.449219 478.25 L 789.203125 473.863281 L 789.449219 470.253906 L 789.695312 467.15625 L 790.183594 464.578125 L 790.917969 462.511719 L 791.410156 461.738281 L 791.898438 460.964844 L 792.390625 460.449219 L 793.125 459.933594 L 793.859375 459.675781 L 796.066406 459.675781 L 798.027344 460.449219 L 799.988281 461.480469 L 801.703125 469.734375 L 803.417969 477.734375 L 805.378906 485.214844 L 807.582031 492.4375 L 810.035156 499.660156 L 812.730469 506.882812 L 815.671875 514.363281 L 819.101562 521.84375 L 821.550781 526.746094 L 824.003906 531.644531 L 829.394531 541.449219 L 832.335938 546.089844 L 835.273438 550.734375 L 838.460938 555.378906 L 841.648438 560.019531 L 847.527344 567.761719 L 853.65625 574.984375 L 860.027344 582.207031 L 866.644531 588.914062 L 873.503906 595.621094 L 880.609375 601.808594 L 887.964844 607.742188 L 895.558594 613.417969 L 900.707031 617.03125 L 906.097656 620.382812 L 911.734375 623.738281 L 917.125 626.832031 L 925.703125 631.21875 L 934.035156 635.34375 L 942.855469 638.957031 L 951.679688 642.308594 L 960.011719 645.148438 L 968.585938 647.46875 L 977.410156 649.53125 L 985.988281 651.339844 L 995.054688 652.628906 L 1003.875 653.660156 L 1012.945312 654.433594 L 1022.011719 654.949219 "/>
<path style=" stroke:none;fill-rule:evenodd;fill:rgb(99.607843%,77.254902%,4.705882%);fill-opacity:1;" d="M 1044.335938 733.371094 L 1048.5 733.886719 L 1050.460938 734.660156 L 1050.953125 734.917969 L 1050.953125 735.175781 L 1050.460938 735.175781 L 1049.972656 735.433594 L 1046.050781 736.207031 L 1042.863281 736.207031 L 1032.574219 735.433594 L 1020.074219 735.175781 L 1006.59375 734.917969 L 992.625 735.175781 L 986.011719 735.433594 L 979.394531 735.949219 L 973.511719 736.464844 L 967.875 736.980469 L 963.21875 737.753906 L 959.054688 738.785156 L 957.582031 739.304688 L 956.113281 739.820312 L 954.886719 740.335938 L 953.90625 741.109375 L 954.398438 738.527344 L 955.378906 735.949219 L 953.664062 736.464844 L 951.945312 736.980469 L 949.007812 738.527344 L 947.78125 739.304688 L 946.800781 740.335938 L 946.066406 741.625 L 945.820312 742.914062 L 945.085938 741.109375 L 944.59375 739.5625 L 944.351562 737.753906 L 944.105469 736.207031 L 944.351562 734.917969 L 944.59375 733.371094 L 944.839844 732.078125 L 945.574219 730.789062 L 946.066406 729.757812 L 947.046875 728.46875 L 949.007812 726.40625 L 951.703125 724.597656 L 954.640625 722.792969 C 956.230469 723.808594 958.015625 724.542969 959.789062 725.117188 C 961.324219 725.328125 963.15625 725.066406 964.933594 724.597656 C 967.925781 727.371094 971.925781 727.03125 974.492188 724.082031 C 974.960938 723.546875 975.527344 722.722656 975.71875 722.019531 C 976.121094 720.53125 976.042969 718.582031 975.71875 716.859375 L 978.65625 716.601562 L 982.089844 716.085938 L 985.765625 715.054688 L 989.6875 714.023438 L 993.605469 713.25 L 997.28125 712.21875 L 1000.714844 711.703125 L 1003.652344 711.445312 L 1002.429688 712.476562 L 999.488281 714.796875 L 996.058594 717.632812 L 993.605469 719.441406 L 996.792969 720.214844 L 999.488281 720.730469 L 997.527344 723.050781 L 995.566406 725.375 L 993.605469 727.695312 L 992.136719 729.757812 L 994.097656 730.53125 L 996.058594 731.046875 L 998.261719 731.5625 L 1002.675781 731.5625 L 1004.878906 731.046875 L 1007.085938 730.53125 L 1008.800781 729.5 L 1010.761719 730.53125 L 1012.722656 731.304688 L 1014.683594 731.820312 L 1016.640625 732.339844 L 1021.054688 732.855469 L 1025.710938 733.371094 L 1044.335938 733.371094 "/>
<path style=" stroke:none;fill-rule:evenodd;fill:rgb(99.607843%,77.254902%,4.705882%);fill-opacity:1;" d="M 969.09375 718.671875 L 969.832031 718.929688 L 970.566406 719.1875 L 970.808594 719.960938 L 971.054688 720.734375 L 970.808594 721.507812 L 970.566406 722.28125 L 969.832031 722.796875 L 968.113281 722.796875 L 967.625 722.28125 L 967.132812 721.507812 L 966.890625 720.734375 L 967.132812 719.960938 L 967.625 719.1875 L 968.113281 718.929688 L 969.09375 718.671875 "/>
<path style=" stroke:none;fill-rule:evenodd;fill:rgb(99.607843%,77.254902%,4.705882%);fill-opacity:1;" d="M 968.808594 719.699219 L 969.300781 719.957031 L 969.546875 720.472656 L 969.300781 720.988281 L 968.808594 721.246094 L 968.320312 720.988281 L 968.074219 720.472656 L 968.320312 719.957031 L 968.808594 719.699219 "/>
<path style=" stroke:none;fill-rule:nonzero;fill:rgb(99.607843%,77.254902%,4.705882%);fill-opacity:1;" d="M 969 723.25 C 967.757812 723.25 966.753906 722.191406 966.753906 720.886719 C 966.753906 719.578125 967.757812 718.519531 969 718.519531 C 970.242188 718.519531 971.246094 719.578125 971.246094 720.886719 C 971.246094 722.191406 970.242188 723.25 969 723.25 Z M 969 723.25 "/>
<path style=" stroke:none;fill-rule:evenodd;fill:rgb(99.607843%,77.254902%,4.705882%);fill-opacity:1;" d="M 1151.589844 746.011719 L 1149.875 746.785156 L 1148.160156 747.042969 L 1146.6875 747.300781 L 1145.464844 747.042969 L 1144.238281 746.785156 L 1143.011719 746.269531 L 1142.03125 745.753906 L 1140.808594 744.976562 L 1135.90625 741.109375 L 1134.679688 740.59375 L 1133.699219 740.335938 L 1132.476562 740.335938 L 1130.269531 745.234375 L 1127.328125 751.425781 L 1126.347656 752.976562 L 1125.367188 754.265625 L 1123.40625 755.8125 L 1122.183594 756.328125 L 1120.957031 756.328125 L 1119.730469 755.8125 L 1118.261719 755.039062 L 1117.773438 754.265625 L 1117.28125 753.492188 L 1116.792969 752.457031 L 1116.300781 751.167969 L 1115.8125 748.847656 L 1115.566406 747.300781 L 1114.097656 748.589844 L 1112.625 750.394531 L 1111.398438 752.457031 L 1109.929688 754.78125 L 1108.214844 757.101562 L 1106.5 758.90625 L 1105.519531 759.941406 L 1104.292969 760.714844 L 1103.066406 761.230469 L 1101.597656 761.746094 L 1100.863281 761.746094 L 1099.636719 762.003906 L 1098.410156 761.746094 L 1097.433594 761.230469 L 1094.492188 757.617188 L 1091.304688 754.007812 L 1089.101562 757.617188 L 1086.648438 760.714844 L 1085.425781 762.003906 L 1084.199219 763.292969 L 1082.972656 764.324219 L 1081.746094 765.097656 L 1080.769531 765.613281 L 1079.542969 765.871094 L 1078.316406 765.871094 L 1077.335938 765.613281 L 1076.355469 765.097656 L 1075.621094 764.324219 L 1074.640625 763.035156 L 1074.152344 761.488281 L 1073.660156 759.941406 L 1072.679688 757.359375 L 1072.4375 756.070312 L 1071.945312 755.039062 L 1071.457031 754.523438 L 1070.964844 754.523438 L 1064.347656 765.871094 L 1063.367188 766.902344 L 1061.652344 767.679688 L 1057.730469 768.710938 L 1055.527344 768.710938 L 1053.8125 768.195312 L 1053.320312 767.9375 L 1052.585938 767.164062 L 1052.339844 766.644531 L 1052.339844 765.613281 L 1053.320312 754.265625 L 1052.585938 754.523438 L 1050.625 755.554688 L 1049.644531 756.585938 L 1047.683594 758.90625 L 1045.480469 761.488281 L 1043.273438 764.324219 L 1040.578125 766.644531 L 1039.351562 767.679688 L 1038.128906 768.710938 L 1036.65625 769.484375 L 1035.429688 769.742188 L 1033.714844 770 L 1032.492188 769.742188 L 1032 769.484375 L 1031.511719 768.96875 L 1031.265625 768.195312 L 1031.265625 767.421875 L 1031.511719 764.066406 L 1032 760.714844 L 1032.246094 758.90625 L 1031.753906 755.8125 L 1030.777344 754.007812 L 1029.304688 756.328125 L 1026.855469 759.679688 L 1023.914062 763.035156 L 1020.726562 766.386719 L 1019.011719 767.679688 L 1017.296875 768.96875 L 1015.828125 769.484375 L 1014.601562 770 L 1014.113281 769.742188 L 1013.375 769.742188 L 1012.886719 769.226562 L 1012.640625 768.96875 L 1012.152344 768.195312 L 1011.90625 767.421875 L 1011.90625 766.386719 L 1011.660156 765.097656 L 1011.90625 755.296875 L 1005.78125 759.679688 L 998.425781 764.582031 L 996.710938 765.355469 L 994.75 766.386719 L 993.035156 766.90625 L 991.074219 767.421875 L 989.359375 767.9375 L 987.644531 767.9375 L 985.929688 767.679688 L 984.460938 767.164062 L 985.195312 765.097656 L 986.664062 761.488281 L 987.644531 759.9375 L 989.605469 756.84375 L 990.832031 755.554688 L 992.054688 754.265625 L 994.75 752.199219 L 997.9375 750.136719 L 1001.125 748.589844 L 1004.800781 747.300781 L 1008.476562 746.265625 L 1012.640625 745.492188 L 1016.808594 744.71875 L 1020.972656 744.203125 L 1030.039062 743.6875 L 1039.351562 743.429688 L 1057.976562 743.429688 L 1062.632812 743.171875 L 1067.042969 742.914062 L 1071.457031 742.65625 L 1075.621094 742.140625 L 1079.789062 741.367188 L 1083.464844 740.59375 L 1087.140625 739.5625 L 1090.570312 738.011719 L 1093.757812 736.464844 L 1096.453125 734.402344 L 1099.148438 732.335938 L 1101.351562 729.5 L 1098.902344 724.339844 L 1100.863281 724.082031 L 1102.824219 723.566406 L 1104.785156 722.535156 L 1106.5 721.246094 L 1107.234375 720.730469 L 1107.96875 719.957031 L 1108.460938 718.925781 L 1108.949219 718.148438 L 1109.195312 717.117188 L 1109.195312 715.3125 L 1108.703125 714.28125 L 1112.871094 713.507812 L 1117.28125 712.992188 L 1121.9375 712.734375 L 1126.839844 712.734375 L 1136.886719 713.25 L 1147.179688 714.023438 L 1157.714844 715.3125 L 1168.007812 716.34375 L 1178.054688 717.375 L 1187.367188 717.890625 L 1187.367188 721.503906 L 1187.121094 723.050781 L 1186.632812 724.597656 L 1186.140625 726.148438 L 1185.652344 727.4375 L 1184.917969 728.46875 L 1183.9375 729.757812 L 1182.222656 731.5625 L 1180.015625 733.113281 L 1177.808594 734.144531 L 1175.359375 734.660156 L 1172.664062 735.175781 L 1169.96875 734.917969 L 1167.519531 734.660156 L 1164.824219 733.886719 L 1162.371094 732.597656 L 1159.921875 731.304688 L 1157.960938 729.5 L 1156 727.4375 L 1156 731.820312 L 1155.265625 737.496094 L 1154.773438 740.335938 L 1154.039062 742.914062 L 1153.550781 743.945312 L 1152.8125 744.71875 L 1152.324219 745.492188 L 1151.589844 746.007812 M 954.558594 721.761719 L 960.195312 724.339844 L 961.664062 723.050781 L 963.625 721.503906 L 965.832031 720.214844 L 967.792969 718.925781 L 975.144531 715.828125 L 981.515625 712.734375 L 984.703125 711.441406 L 990.09375 708.347656 L 992.296875 706.800781 L 997.933594 702.929688 L 1003.570312 699.0625 L 1008.960938 695.449219 L 1013.863281 691.839844 L 1017.539062 688.742188 L 1020.480469 685.90625 L 1023.664062 682.808594 L 1027.097656 679.457031 L 1028.320312 678.167969 L 1029.792969 677.136719 L 1031.507812 676.101562 L 1033.46875 675.070312 L 1037.632812 673.007812 L 1041.800781 671.460938 L 1047.4375 669.910156 L 1053.5625 668.363281 L 1059.933594 667.074219 L 1067.042969 665.785156 L 1075.617188 664.753906 L 1084.195312 663.464844 L 1093.019531 662.429688 L 1101.59375 660.882812 L 1104.535156 660.367188 L 1107.230469 659.59375 L 1113.113281 658.046875 L 1116.054688 654.175781 L 1120.710938 648.757812 L 1123.894531 645.40625 L 1127.570312 642.3125 L 1131.738281 638.957031 L 1136.636719 635.605469 L 1143.992188 630.960938 L 1151.832031 626.832031 L 1159.917969 622.449219 L 1167.761719 618.578125 L 1175.113281 614.710938 L 1181.976562 611.097656 L 1187.609375 608.003906 L 1192.023438 604.90625 L 1193.246094 601.039062 L 1194.964844 597.167969 L 1197.167969 593.296875 L 1199.863281 589.429688 L 1202.804688 585.300781 L 1206.480469 581.175781 L 1210.402344 576.53125 L 1215.304688 571.628906 L 1219.714844 567.503906 L 1224.371094 563.375 L 1229.269531 559.765625 L 1231.96875 558.214844 L 1234.664062 556.667969 L 1237.359375 555.378906 L 1240.054688 554.347656 L 1242.996094 553.574219 L 1245.691406 552.800781 L 1248.632812 552.542969 L 1251.328125 552.285156 L 1254.265625 552.542969 L 1256.964844 553.058594 L 1256.71875 556.152344 L 1255.984375 559.25 L 1255.003906 562.34375 L 1253.777344 565.695312 L 1252.0625 569.050781 L 1249.855469 572.402344 L 1247.160156 576.015625 L 1243.976562 579.625 L 1246.425781 579.367188 L 1248.632812 578.851562 L 1250.347656 578.335938 L 1252.0625 577.5625 L 1253.53125 577.046875 L 1255.246094 576.53125 L 1257.453125 576.273438 L 1259.902344 576.015625 L 1260.148438 577.820312 L 1260.148438 579.625 L 1259.902344 581.433594 L 1259.414062 582.980469 L 1258.679688 584.527344 L 1257.699219 586.074219 L 1256.71875 587.367188 L 1255.492188 588.65625 L 1250.347656 593.816406 L 1245.199219 598.714844 L 1248.140625 598.972656 L 1251.328125 600.003906 L 1254.511719 601.039062 L 1256.964844 601.554688 L 1254.023438 603.875 L 1250.589844 606.195312 L 1247.160156 608.519531 L 1243.238281 610.839844 L 1239.320312 613.160156 L 1235.398438 615.742188 L 1231.476562 618.578125 L 1227.800781 621.675781 L 1229.515625 621.933594 L 1231.722656 622.964844 L 1232.703125 623.222656 L 1233.683594 623.738281 L 1234.417969 623.996094 L 1235.152344 623.738281 L 1230.25 626.574219 L 1224.125 629.671875 L 1221.183594 631.21875 L 1218.734375 632.765625 L 1217.507812 633.539062 L 1216.773438 634.3125 L 1216.28125 635.085938 L 1215.792969 635.863281 L 1216.039062 636.894531 L 1216.527344 637.667969 L 1217.507812 638.441406 L 1218.242188 639.214844 L 1218 640.246094 L 1217.507812 641.019531 L 1215.546875 642.566406 L 1213.34375 643.859375 L 1210.402344 645.148438 L 1207.460938 646.179688 L 1204.765625 647.210938 L 1202.804688 648.242188 L 1201.335938 649.015625 L 1206.234375 654.175781 L 1204.519531 655.980469 L 1202.804688 657.273438 L 1201.335938 658.046875 L 1199.617188 658.820312 L 1196.1875 659.335938 L 1191.53125 659.335938 L 1192.023438 661.65625 L 1192.757812 663.980469 L 1193.246094 666.558594 L 1193.738281 669.136719 L 1189.570312 672.492188 L 1184.425781 676.359375 L 1178.789062 680.230469 L 1172.417969 684.097656 L 1168.742188 686.164062 L 1165.066406 687.96875 L 1161.144531 689.515625 L 1156.980469 691.066406 L 1152.566406 692.613281 L 1147.910156 693.644531 L 1143.011719 694.675781 L 1137.863281 695.449219 L 1146.929688 695.707031 L 1154.773438 695.707031 L 1162.125 694.933594 L 1168.742188 694.160156 L 1174.867188 692.871094 L 1180.257812 691.324219 L 1185.652344 689.257812 L 1190.796875 687.195312 L 1197.660156 683.839844 L 1204.273438 679.972656 L 1210.648438 675.84375 L 1217.261719 671.71875 L 1213.34375 669.652344 L 1209.421875 668.363281 L 1207.460938 667.589844 L 1205.5 666.558594 L 1203.292969 665.527344 L 1201.089844 664.238281 L 1203.050781 662.6875 L 1205.253906 661.65625 L 1207.949219 660.625 L 1210.890625 659.851562 L 1216.773438 658.5625 L 1222.898438 657.789062 L 1228.289062 657.015625 L 1233.191406 656.5 L 1235.152344 655.980469 L 1236.867188 655.464844 L 1237.847656 654.949219 L 1238.582031 654.175781 L 1238.339844 653.917969 L 1237.847656 653.402344 L 1237.113281 653.144531 L 1236.132812 652.628906 L 1233.4375 652.113281 L 1230.007812 651.597656 L 1226.574219 651.339844 L 1223.144531 650.824219 L 1220.203125 650.050781 L 1218.242188 649.273438 L 1231.476562 646.179688 L 1237.359375 644.890625 L 1242.257812 643.601562 L 1246.425781 642.308594 L 1250.101562 640.761719 L 1251.816406 639.988281 L 1253.042969 639.214844 L 1254.265625 638.441406 L 1255.246094 637.410156 L 1255.003906 637.152344 L 1254.511719 636.636719 L 1253.53125 636.378906 L 1252.308594 636.121094 L 1249.121094 635.863281 L 1245.445312 635.863281 L 1241.523438 635.601562 L 1237.847656 635.34375 L 1234.664062 634.828125 L 1232.703125 634.3125 L 1236.132812 632.765625 L 1242.015625 630.960938 L 1247.160156 629.414062 L 1251.816406 628.121094 L 1256.226562 626.574219 L 1260.882812 625.027344 L 1265.539062 622.964844 L 1267.746094 621.671875 L 1269.707031 620.382812 L 1270.441406 619.609375 L 1271.175781 618.578125 L 1271.910156 617.804688 L 1272.15625 617.03125 L 1271.910156 616.257812 L 1271.175781 615.742188 L 1270.441406 615.484375 L 1263.578125 615.484375 L 1260.394531 615.742188 L 1255.984375 615.742188 L 1254.757812 615.484375 L 1253.777344 614.964844 L 1252.796875 614.449219 L 1262.597656 607.742188 L 1271.667969 601.554688 L 1279.753906 596.136719 L 1286.859375 590.976562 L 1289.800781 588.398438 L 1292.496094 585.816406 L 1294.703125 583.238281 L 1296.664062 580.65625 L 1298.132812 577.820312 L 1299.359375 574.984375 L 1300.09375 571.886719 L 1300.09375 568.535156 L 1298.378906 568.535156 L 1296.664062 568.792969 L 1292.742188 570.339844 L 1288.820312 572.917969 L 1284.65625 575.5 L 1282.449219 576.789062 L 1280.488281 578.078125 L 1278.28125 579.109375 L 1276.078125 579.882812 L 1274.117188 580.398438 L 1272.15625 580.660156 L 1269.949219 580.660156 L 1267.992188 579.882812 L 1273.871094 575.242188 L 1280.488281 569.308594 L 1288.085938 562.34375 L 1295.683594 554.605469 L 1303.277344 546.351562 L 1310.386719 538.09375 L 1313.570312 533.710938 L 1316.757812 529.582031 L 1319.453125 525.457031 L 1321.902344 521.585938 L 1322.394531 520.554688 L 1322.640625 519.78125 L 1322.394531 518.75 L 1322.148438 517.976562 L 1321.902344 517.199219 L 1321.167969 516.683594 L 1320.433594 515.910156 L 1319.699219 515.652344 L 1318.71875 515.136719 L 1317.738281 514.878906 L 1315.777344 514.878906 L 1314.796875 515.136719 L 1313.570312 515.394531 L 1312.835938 516.167969 L 1311.855469 516.941406 L 1307.445312 521.585938 L 1302.300781 527.003906 L 1296.90625 532.9375 L 1291.027344 538.871094 L 1285.144531 544.285156 L 1279.261719 549.445312 L 1276.324219 551.507812 L 1273.625 553.316406 L 1270.6875 554.863281 L 1268.234375 556.152344 L 1269.949219 554.605469 L 1272.15625 552.28125 L 1275.097656 549.1875 L 1278.28125 545.316406 L 1285.390625 536.289062 L 1293.230469 525.714844 L 1297.152344 520.039062 L 1300.828125 514.363281 L 1304.503906 508.945312 L 1307.691406 503.269531 L 1310.632812 498.113281 L 1313.082031 493.46875 L 1315.042969 489.082031 L 1316.265625 485.472656 L 1316.511719 484.183594 L 1316.511719 482.117188 L 1316.265625 481.34375 L 1315.777344 480.570312 L 1315.285156 479.796875 L 1314.796875 479.28125 L 1314.0625 479.023438 L 1312.589844 478.25 L 1310.875 477.734375 L 1307.445312 477.734375 L 1306.464844 477.992188 L 1305.730469 478.25 L 1304.75 478.765625 L 1304.015625 479.539062 L 1302.054688 481.34375 L 1300.09375 483.925781 L 1295.683594 489.859375 L 1291.027344 497.339844 L 1285.878906 505.335938 L 1280.242188 513.589844 L 1277.058594 517.460938 L 1274.117188 521.328125 L 1270.929688 524.683594 L 1267.5 527.777344 L 1271.910156 519.265625 L 1276.324219 509.460938 L 1278.773438 504.046875 L 1280.980469 498.628906 L 1283.183594 492.953125 L 1285.144531 487.277344 L 1286.859375 481.34375 L 1288.574219 475.667969 L 1289.800781 469.996094 L 1290.78125 464.320312 L 1291.269531 458.902344 L 1291.515625 453.742188 L 1291.269531 451.164062 L 1291.027344 448.84375 L 1290.78125 446.519531 L 1290.289062 444.199219 L 1290.046875 443.425781 L 1289.554688 442.652344 L 1288.820312 441.878906 L 1288.332031 441.363281 L 1286.613281 440.585938 L 1284.898438 440.070312 L 1283.183594 440.070312 L 1281.714844 440.328125 L 1281.222656 440.585938 L 1280.488281 440.84375 L 1280.242188 441.363281 L 1280 442.136719 L 1277.546875 450.648438 L 1275.34375 459.160156 L 1273.136719 468.1875 L 1270.929688 476.960938 L 1268.726562 485.730469 L 1265.785156 493.984375 L 1264.316406 498.113281 L 1262.597656 501.722656 L 1260.640625 505.59375 L 1258.433594 508.945312 L 1259.902344 501.464844 L 1260.882812 494.757812 L 1261.863281 488.566406 L 1262.355469 482.890625 L 1262.84375 477.992188 L 1263.089844 473.605469 L 1262.84375 469.996094 L 1262.597656 466.898438 L 1262.109375 464.320312 L 1261.375 462.253906 L 1260.882812 461.480469 L 1260.394531 460.707031 L 1259.902344 460.191406 L 1257.699219 459.417969 L 1256.960938 459.417969 L 1256.226562 459.675781 L 1254.265625 460.191406 L 1252.304688 461.222656 L 1250.589844 469.476562 L 1248.875 477.476562 L 1246.914062 484.957031 L 1244.710938 492.179688 L 1242.257812 499.402344 L 1239.5625 506.625 L 1236.621094 514.105469 L 1233.191406 521.585938 L 1230.742188 526.488281 L 1228.289062 531.386719 L 1222.898438 541.191406 L 1219.957031 545.832031 L 1217.019531 550.476562 L 1213.832031 555.121094 L 1210.644531 559.761719 L 1204.765625 567.503906 L 1198.636719 574.726562 L 1192.265625 581.949219 L 1185.648438 588.65625 L 1178.789062 595.363281 L 1171.683594 601.550781 L 1164.328125 607.484375 L 1156.734375 613.160156 L 1151.585938 616.773438 L 1146.195312 620.382812 L 1140.804688 623.738281 L 1135.414062 627.089844 L 1126.835938 631.21875 L 1118.257812 635.34375 L 1109.4375 638.699219 L 1100.613281 642.050781 L 1093.261719 644.375 L 1085.910156 646.695312 L 1078.3125 648.5 L 1070.71875 650.304688 L 1063.121094 651.597656 L 1055.277344 652.628906 L 1047.679688 653.660156 L 1039.839844 654.175781 L 1038.371094 654.691406 L 1036.898438 655.464844 L 1035.183594 656.753906 L 1032.734375 659.078125 L 1029.546875 662.171875 L 1025.625 666.300781 L 1020.96875 671.714844 L 1016.558594 677.132812 L 1011.414062 683.066406 L 1008.71875 685.90625 L 1006.019531 688.742188 L 1002.835938 691.320312 L 999.648438 693.902344 L 997.199219 695.707031 L 994.75 697.253906 L 992.054688 698.542969 L 989.355469 699.835938 L 983.476562 702.414062 L 977.59375 704.734375 L 971.714844 707.058594 L 966.566406 709.121094 L 964.359375 710.152344 L 962.15625 711.441406 L 960.195312 712.472656 L 958.726562 713.507812 L 957.253906 715.054688 L 956.027344 716.34375 L 955.292969 717.632812 L 954.804688 718.921875 L 954.558594 720.730469 L 954.558594 721.761719 "/>
<path style="fill-rule:nonzero;fill:rgb(99.607843%,77.254902%,4.705882%);fill-opacity:1;stroke-width:0.381274;stroke-linecap:butt;stroke-linejoin:miter;stroke:rgb(0%,68.627451%,79.215686%);stroke-opacity:1;stroke-miterlimit:4;" d="M 1019.79852 721.46875 C 1019.268092 721.46875 1018.836349 721.039062 1018.836349 720.503906 C 1018.836349 719.972656 1019.268092 719.539062 1019.79852 719.539062 C 1020.333059 719.539062 1020.764803 719.972656 1020.764803 720.503906 C 1020.764803 721.039062 1020.333059 721.46875 1019.79852 721.46875 Z M 1019.79852 721.46875 " transform="matrix(0.95,0,0,1,0,0)"/>
<path style=" stroke:none;fill-rule:nonzero;fill:rgb(99.607843%,77.254902%,4.705882%);fill-opacity:1;" d="M 114 927.078125 C 114 927.078125 104.871094 935.152344 101.769531 931.101562 C 96.78125 924.585938 117.101562 892.132812 117.101562 880.707031 C 117.101562 861.949219 105.210938 856.84375 90.527344 854.167969 C 80.675781 852.371094 64.632812 854.917969 64.632812 854.917969 C 67.652344 859.191406 69.617188 860.453125 74.707031 860.792969 C 69.039062 863.890625 63.269531 870.613281 63.269531 881.078125 C 63.269531 897.214844 69.582031 903.867188 69.582031 922.058594 C 69.582031 932.152344 61.71875 945 61.71875 945 C 75.617188 943.535156 82.503906 929.992188 78.585938 919.167969 C 80.796875 918.832031 82.804688 919.355469 84.53125 921.078125 C 85.546875 918.074219 83.941406 914.59375 81.792969 911.59375 C 83.523438 910.617188 84.796875 911.203125 87.554688 911.800781 C 87.292969 908.710938 85.53125 905.425781 81.226562 902.335938 C 93.722656 905.75 101.410156 896.582031 101.410156 886.988281 C 101.410156 879.738281 96.582031 874.546875 91.867188 874.546875 C 90.34375 874.546875 88.105469 875.207031 86.839844 876.199219 C 85.949219 874.203125 86.410156 871.535156 87.328125 869.539062 C 83.871094 870.5 81.675781 872.660156 83.238281 877.160156 C 80.582031 877.417969 78.46875 878.363281 77.035156 880.160156 C 78.488281 882.125 80.699219 883.253906 83.238281 883.160156 C 81.304688 887.359375 83.457031 889.710938 86.597656 891.617188 C 86.597656 891.617188 84.601562 883.160156 89.699219 883.160156 C 91.992188 883.160156 94.082031 883.945312 94.082031 887.503906 C 94.082031 890.601562 91.507812 894.890625 85.5625 894.617188 C 79.617188 894.34375 74.796875 890.300781 74.796875 880.3125 C 74.796875 871.097656 81.859375 866.511719 91.164062 866.214844 C 99.558594 865.945312 105.890625 870.730469 105.890625 879.839844 C 105.890625 891.96875 89.257812 919.613281 89.257812 930.421875 C 89.257812 938.53125 96.1875 943.058594 102.964844 943.058594 C 111.753906 943.058594 119.167969 933.894531 119.167969 933.894531 L 114.007812 927.082031 Z M 114 927.078125 "/>
<path style=" stroke:none;fill-rule:nonzero;fill:rgb(99.607843%,77.254902%,4.705882%);fill-opacity:1;" d="M 112.078125 707.863281 C 112.078125 687.59375 129.367188 677.175781 142.953125 677.175781 C 161.253906 677.175781 171 688.695312 171 703.773438 C 171 712.320312 169.511719 717.683594 165.765625 725.867188 C 165.765625 725.867188 135.578125 791.957031 123.820312 817.519531 C 122.355469 820.707031 121.882812 824.335938 121.882812 829.65625 C 121.882812 837.875 129.453125 844.589844 137.394531 844.796875 C 144.628906 844.988281 152.515625 837.695312 152.515625 829.382812 C 152.515625 819.289062 147.542969 814.792969 142.433594 814.792969 C 136.148438 814.792969 133.644531 817.511719 133.644531 822.15625 C 133.644531 825.394531 135.128906 826.792969 137.265625 826.792969 C 142.65625 826.792969 141.140625 819.15625 141.140625 819.15625 C 143.820312 819.773438 146.019531 822.652344 144.761719 826.246094 C 146.71875 826.707031 148.554688 827.789062 149.996094 829.519531 C 148.550781 830.996094 146.894531 832.132812 144.761719 832.523438 C 146.023438 836.910156 144.335938 839.050781 140.691406 839.953125 C 141.425781 838.265625 141.449219 836.714844 141.207031 835.25 C 135.464844 836.96875 126.664062 834.234375 126.664062 823.792969 C 126.664062 813.425781 133.5 804.699219 146.3125 806.882812 C 143.265625 805.347656 141.714844 802.207031 141.402344 798.699219 C 143.726562 799.652344 146.3125 799.789062 146.3125 799.789062 C 144.816406 797.007812 142.734375 794.609375 142.824219 789.152344 C 145.199219 790.289062 147.40625 792.394531 150.449219 791.058594 C 145.671875 781.164062 151.542969 767.550781 166.476562 764.328125 C 161.011719 771.074219 158.332031 778.355469 158.332031 785.605469 C 158.332031 809.101562 164.539062 813.050781 164.539062 829.386719 C 164.539062 836.21875 161.199219 843.601562 154.585938 848.617188 L 154.585938 848.34375 C 158.957031 849.574219 161.757812 851.84375 163.367188 854.921875 C 153.378906 857.902344 138.859375 857.847656 131.0625 854.617188 C 122.097656 853.527344 115.84375 846.289062 114 842.617188 C 112.15625 838.945312 108.578125 825.660156 114 813.703125 C 119.9375 800.613281 147.925781 738.144531 156.652344 718.503906 C 158.503906 714.339844 159.625 709.921875 159.625 705.140625 C 159.625 693.109375 149.15625 688.910156 143.210938 688.910156 C 136.101562 688.910156 128.863281 694.609375 128.863281 701.730469 C 128.863281 706.242188 131.191406 708.957031 134.550781 708.957031 C 142.585938 708.957031 142.097656 701.761719 140.496094 697.230469 C 145.496094 699.59375 148.402344 703.820312 147.605469 708.277344 C 150.4375 708.683594 153.132812 710.097656 155.617188 713.050781 C 153.660156 715.648438 151.273438 717.617188 147.605469 717.6875 C 149.207031 724.597656 144.8125 727.523438 140.496094 729.144531 C 141.859375 724.070312 142.757812 718.230469 134.550781 718.230469 C 128.566406 718.230469 123.855469 717.140625 121.109375 713.050781 C 120.945312 718.503906 120.460938 740.054688 120.460938 740.054688 C 120.117188 748.152344 130.757812 747.921875 137.523438 745.507812 C 134.96875 754.835938 129.734375 759.878906 117.617188 758.601562 C 120.558594 759.898438 123.695312 762.8125 123.695312 768.421875 C 123.691406 776.015625 117.839844 784.425781 113.996094 786.914062 Z M 112.078125 707.863281 "/>
<path style=" stroke:none;fill-rule:nonzero;fill:rgb(99.607843%,77.254902%,4.705882%);fill-opacity:1;" d="M 115.921875 707.863281 C 115.921875 687.59375 98.632812 677.175781 85.046875 677.175781 C 66.746094 677.175781 57 688.695312 57 703.773438 C 57 712.320312 58.488281 717.683594 62.234375 725.867188 C 62.234375 725.867188 92.421875 791.957031 104.179688 817.519531 C 105.644531 820.707031 106.117188 824.335938 106.117188 829.65625 C 106.117188 837.875 98.546875 844.589844 90.605469 844.796875 C 83.371094 844.988281 75.484375 837.695312 75.484375 829.382812 C 75.484375 819.289062 80.457031 814.792969 85.566406 814.792969 C 91.851562 814.792969 94.355469 817.511719 94.355469 822.15625 C 94.355469 825.394531 92.871094 826.792969 90.734375 826.792969 C 85.34375 826.792969 86.859375 819.15625 86.859375 819.15625 C 84.179688 819.773438 81.980469 822.652344 83.238281 826.246094 C 81.28125 826.707031 79.445312 827.789062 78.003906 829.519531 C 79.449219 830.996094 81.105469 832.132812 83.238281 832.523438 C 81.976562 836.910156 83.664062 839.050781 87.308594 839.953125 C 86.574219 838.265625 86.550781 836.714844 86.792969 835.25 C 92.535156 836.96875 101.335938 834.234375 101.335938 823.792969 C 101.335938 813.425781 94.5 804.699219 81.6875 806.882812 C 84.734375 805.347656 86.285156 802.207031 86.597656 798.699219 C 84.273438 799.652344 81.6875 799.789062 81.6875 799.789062 C 83.183594 797.007812 85.265625 794.609375 85.175781 789.152344 C 82.800781 790.289062 80.59375 792.394531 77.550781 791.058594 C 82.328125 781.164062 76.457031 767.550781 61.523438 764.328125 C 66.988281 771.074219 69.667969 778.355469 69.667969 785.605469 C 69.667969 809.101562 63.460938 813.050781 63.460938 829.386719 C 63.460938 836.21875 66.800781 843.601562 73.414062 848.617188 L 73.414062 848.34375 C 69.042969 849.574219 66.242188 851.84375 64.632812 854.921875 C 74.621094 857.902344 89.140625 857.847656 96.9375 854.617188 C 105.902344 853.527344 112.15625 846.289062 114 842.617188 C 115.84375 838.945312 119.421875 825.660156 114 813.703125 C 108.0625 800.613281 80.074219 738.144531 71.347656 718.503906 C 69.496094 714.339844 68.375 709.921875 68.375 705.140625 C 68.375 693.109375 78.84375 688.910156 84.789062 688.910156 C 91.898438 688.910156 99.136719 694.609375 99.136719 701.730469 C 99.136719 706.242188 96.808594 708.957031 93.449219 708.957031 C 85.414062 708.957031 85.902344 701.761719 87.503906 697.230469 C 82.503906 699.59375 79.597656 703.820312 80.394531 708.277344 C 77.5625 708.683594 74.867188 710.097656 72.382812 713.050781 C 74.339844 715.648438 76.726562 717.617188 80.394531 717.6875 C 78.792969 724.597656 83.1875 727.523438 87.503906 729.144531 C 86.140625 724.070312 85.242188 718.230469 93.449219 718.230469 C 99.433594 718.230469 104.144531 717.140625 106.890625 713.050781 C 107.054688 718.503906 107.539062 740.054688 107.539062 740.054688 C 107.882812 748.152344 97.242188 747.921875 90.476562 745.507812 C 93.03125 754.835938 98.265625 759.878906 110.382812 758.601562 C 107.441406 759.898438 104.304688 762.8125 104.304688 768.421875 C 104.308594 776.015625 110.160156 784.425781 114.003906 786.914062 Z M 115.921875 707.863281 "/>
<path style=" stroke:none;fill-rule:nonzero;fill:rgb(99.607843%,77.254902%,4.705882%);fill-opacity:1;" d="M 114 927.078125 C 114 927.078125 123.128906 935.152344 126.230469 931.101562 C 131.21875 924.585938 110.898438 892.132812 110.898438 880.707031 C 110.898438 861.949219 122.789062 856.84375 137.472656 854.167969 C 147.324219 852.371094 163.367188 854.917969 163.367188 854.917969 C 160.347656 859.191406 158.382812 860.453125 153.292969 860.792969 C 158.960938 863.890625 164.730469 870.613281 164.730469 881.078125 C 164.730469 897.214844 158.417969 903.867188 158.417969 922.058594 C 158.417969 932.152344 166.28125 945 166.28125 945 C 152.382812 943.535156 145.496094 929.992188 149.414062 919.167969 C 147.203125 918.832031 145.195312 919.355469 143.46875 921.078125 C 142.453125 918.074219 144.058594 914.59375 146.207031 911.59375 C 144.476562 910.617188 143.203125 911.203125 140.445312 911.800781 C 140.707031 908.710938 142.46875 905.425781 146.773438 902.335938 C 134.277344 905.75 126.589844 896.582031 126.589844 886.988281 C 126.589844 879.738281 131.417969 874.546875 136.132812 874.546875 C 137.65625 874.546875 139.894531 875.207031 141.160156 876.199219 C 142.050781 874.203125 141.589844 871.535156 140.671875 869.539062 C 144.128906 870.5 146.324219 872.660156 144.761719 877.160156 C 147.417969 877.417969 149.53125 878.363281 150.964844 880.160156 C 149.511719 882.125 147.300781 883.253906 144.761719 883.160156 C 146.695312 887.359375 144.542969 889.710938 141.402344 891.617188 C 141.402344 891.617188 143.398438 883.160156 138.300781 883.160156 C 136.007812 883.160156 133.917969 883.945312 133.917969 887.503906 C 133.917969 890.601562 136.492188 894.890625 142.4375 894.617188 C 148.382812 894.34375 153.203125 890.300781 153.203125 880.3125 C 153.203125 871.097656 146.140625 866.511719 136.835938 866.214844 C 128.441406 865.945312 122.109375 870.730469 122.109375 879.839844 C 122.109375 891.96875 138.742188 919.613281 138.742188 930.421875 C 138.742188 938.53125 131.8125 943.058594 125.035156 943.058594 C 116.246094 943.058594 108.832031 933.894531 108.832031 933.894531 L 113.992188 927.082031 Z M 114 927.078125 "/>
<path style=" stroke:none;fill-rule:nonzero;fill:rgb(99.607843%,77.254902%,4.705882%);fill-opacity:1;" d="M 112.078125 352.945312 C 112.078125 332.675781 129.367188 322.257812 142.953125 322.257812 C 161.253906 322.257812 171 333.777344 171 348.855469 C 171 357.402344 169.511719 362.765625 165.765625 370.945312 C 165.765625 370.945312 135.578125 437.035156 123.820312 462.597656 C 122.355469 465.785156 121.882812 469.417969 121.882812 474.738281 C 121.882812 482.953125 129.453125 489.671875 137.394531 489.875 C 144.628906 490.066406 152.515625 482.773438 152.515625 474.464844 C 152.515625 464.371094 147.542969 459.871094 142.433594 459.871094 C 136.148438 459.871094 133.644531 462.589844 133.644531 467.234375 C 133.644531 470.472656 135.128906 471.875 137.265625 471.875 C 142.65625 471.875 141.140625 464.234375 141.140625 464.234375 C 143.820312 464.851562 146.019531 467.730469 144.761719 471.328125 C 146.71875 471.785156 148.554688 472.867188 149.996094 474.601562 C 148.550781 476.074219 146.894531 477.214844 144.761719 477.601562 C 146.023438 481.988281 144.335938 484.132812 140.691406 485.035156 C 141.425781 483.347656 141.449219 481.792969 141.207031 480.328125 C 135.464844 482.046875 126.664062 479.3125 126.664062 468.871094 C 126.664062 458.507812 133.5 449.78125 146.3125 451.960938 C 143.265625 450.425781 141.714844 447.289062 141.402344 443.777344 C 143.726562 444.730469 146.3125 444.867188 146.3125 444.867188 C 144.816406 442.089844 142.734375 439.691406 142.824219 434.230469 C 145.199219 435.367188 147.40625 437.472656 150.449219 436.140625 C 145.671875 426.242188 151.542969 412.628906 166.476562 409.410156 C 161.011719 416.152344 158.332031 423.433594 158.332031 430.6875 C 158.332031 454.183594 164.539062 458.128906 164.539062 474.464844 C 164.539062 481.300781 161.199219 488.679688 154.585938 493.695312 L 154.585938 493.421875 C 158.957031 494.65625 161.757812 496.921875 163.367188 500 C 153.378906 502.984375 138.859375 502.929688 131.0625 499.699219 C 122.097656 498.605469 115.84375 491.367188 114 487.695312 C 112.15625 484.023438 108.578125 470.742188 114 458.78125 C 119.9375 445.695312 147.925781 383.222656 156.652344 363.585938 C 158.503906 359.417969 159.625 355.003906 159.625 350.21875 C 159.625 338.1875 149.15625 333.988281 143.210938 333.988281 C 136.101562 333.988281 128.863281 339.691406 128.863281 346.808594 C 128.863281 351.320312 131.191406 354.039062 134.550781 354.039062 C 142.585938 354.039062 142.097656 346.84375 140.496094 342.308594 C 145.496094 344.675781 148.402344 348.898438 147.605469 353.355469 C 150.4375 353.765625 153.132812 355.179688 155.617188 358.128906 C 153.660156 360.730469 151.273438 362.695312 147.605469 362.765625 C 149.207031 369.679688 144.8125 372.601562 140.496094 374.222656 C 141.859375 369.148438 142.757812 363.3125 134.550781 363.3125 C 128.566406 363.3125 123.855469 362.222656 121.109375 358.128906 C 120.945312 363.585938 120.460938 385.132812 120.460938 385.132812 C 120.117188 393.230469 130.757812 393 137.523438 390.589844 C 134.96875 399.917969 129.734375 404.960938 117.617188 403.683594 C 120.558594 404.976562 123.695312 407.890625 123.695312 413.503906 C 123.691406 421.09375 117.839844 429.507812 113.996094 431.996094 L 112.078125 352.941406 Z M 112.078125 352.945312 "/>
<path style=" stroke:none;fill-rule:nonzero;fill:rgb(99.607843%,77.254902%,4.705882%);fill-opacity:1;" d="M 115.921875 352.945312 C 115.921875 332.675781 98.632812 322.257812 85.046875 322.257812 C 66.746094 322.257812 57 333.777344 57 348.855469 C 57 357.402344 58.488281 362.765625 62.234375 370.945312 C 62.234375 370.945312 92.421875 437.035156 104.179688 462.597656 C 105.644531 465.785156 106.117188 469.417969 106.117188 474.738281 C 106.117188 482.953125 98.546875 489.671875 90.605469 489.875 C 83.371094 490.066406 75.484375 482.773438 75.484375 474.464844 C 75.484375 464.371094 80.457031 459.871094 85.566406 459.871094 C 91.851562 459.871094 94.355469 462.589844 94.355469 467.234375 C 94.355469 470.472656 92.871094 471.875 90.734375 471.875 C 85.34375 471.875 86.859375 464.234375 86.859375 464.234375 C 84.179688 464.851562 81.980469 467.730469 83.238281 471.328125 C 81.28125 471.785156 79.445312 472.867188 78.003906 474.601562 C 79.449219 476.074219 81.105469 477.214844 83.238281 477.601562 C 81.976562 481.988281 83.664062 484.132812 87.308594 485.035156 C 86.574219 483.347656 86.550781 481.792969 86.792969 480.328125 C 92.535156 482.046875 101.335938 479.3125 101.335938 468.871094 C 101.335938 458.507812 94.5 449.78125 81.6875 451.960938 C 84.734375 450.425781 86.285156 447.289062 86.597656 443.777344 C 84.273438 444.730469 81.6875 444.867188 81.6875 444.867188 C 83.183594 442.089844 85.265625 439.691406 85.175781 434.230469 C 82.800781 435.367188 80.59375 437.472656 77.550781 436.140625 C 82.328125 426.242188 76.457031 412.628906 61.523438 409.410156 C 66.988281 416.152344 69.667969 423.433594 69.667969 430.6875 C 69.667969 454.183594 63.460938 458.128906 63.460938 474.464844 C 63.460938 481.300781 66.800781 488.679688 73.414062 493.695312 L 73.414062 493.421875 C 69.042969 494.65625 66.242188 496.921875 64.632812 500 C 74.621094 502.984375 89.140625 502.929688 96.9375 499.699219 C 105.902344 498.605469 112.15625 491.367188 114 487.695312 C 115.84375 484.023438 119.421875 470.742188 114 458.78125 C 108.0625 445.695312 80.074219 383.222656 71.347656 363.585938 C 69.496094 359.417969 68.375 355.003906 68.375 350.21875 C 68.375 338.1875 78.84375 333.988281 84.789062 333.988281 C 91.898438 333.988281 99.136719 339.691406 99.136719 346.808594 C 99.136719 351.320312 96.808594 354.039062 93.449219 354.039062 C 85.414062 354.039062 85.902344 346.84375 87.503906 342.308594 C 82.503906 344.675781 79.597656 348.898438 80.394531 353.355469 C 77.5625 353.765625 74.867188 355.179688 72.382812 358.128906 C 74.339844 360.730469 76.726562 362.695312 80.394531 362.765625 C 78.792969 369.679688 83.1875 372.601562 87.503906 374.222656 C 86.140625 369.148438 85.242188 363.3125 93.449219 363.3125 C 99.433594 363.3125 104.144531 362.222656 106.890625 358.128906 C 107.054688 363.585938 107.539062 385.132812 107.539062 385.132812 C 107.882812 393.230469 97.242188 393 90.476562 390.589844 C 93.03125 399.917969 98.265625 404.960938 110.382812 403.683594 C 107.441406 404.976562 104.304688 407.890625 104.304688 413.503906 C 104.308594 421.09375 110.160156 429.507812 114.003906 431.996094 L 115.921875 352.941406 Z M 115.921875 352.945312 "/>
<path style=" stroke:none;fill-rule:nonzero;fill:rgb(99.607843%,77.254902%,4.705882%);fill-opacity:1;" d="M 115.921875 292.136719 C 115.921875 312.40625 98.632812 322.824219 85.046875 322.824219 C 66.746094 322.824219 57 311.304688 57 296.226562 C 57 287.679688 58.488281 282.316406 62.234375 274.132812 C 62.234375 274.132812 92.421875 208.042969 104.179688 182.480469 C 105.644531 179.292969 106.117188 175.664062 106.117188 170.34375 C 106.117188 162.125 98.546875 155.410156 90.605469 155.203125 C 83.371094 155.011719 75.484375 162.304688 75.484375 170.617188 C 75.484375 180.710938 80.457031 185.207031 85.566406 185.207031 C 91.851562 185.207031 94.355469 182.488281 94.355469 177.84375 C 94.355469 174.605469 92.871094 173.207031 90.734375 173.207031 C 85.34375 173.207031 86.859375 180.84375 86.859375 180.84375 C 84.179688 180.226562 81.980469 177.347656 83.238281 173.753906 C 81.28125 173.292969 79.445312 172.210938 78.003906 170.480469 C 79.449219 169.003906 81.105469 167.867188 83.238281 167.476562 C 81.976562 163.089844 83.664062 160.949219 87.308594 160.046875 C 86.574219 161.734375 86.550781 163.285156 86.792969 164.75 C 92.535156 163.03125 101.335938 165.765625 101.335938 176.207031 C 101.335938 186.574219 94.5 195.300781 81.6875 193.117188 C 84.734375 194.652344 86.285156 197.792969 86.597656 201.300781 C 84.273438 200.347656 81.6875 200.210938 81.6875 200.210938 C 83.183594 202.992188 85.265625 205.390625 85.175781 210.847656 C 82.800781 209.710938 80.59375 207.605469 77.550781 208.941406 C 82.328125 218.835938 76.457031 232.449219 61.523438 235.671875 C 66.988281 228.925781 69.667969 221.644531 69.667969 214.394531 C 69.667969 190.898438 63.460938 186.949219 63.460938 170.613281 C 63.460938 163.78125 66.800781 156.398438 73.414062 151.382812 L 73.414062 151.65625 C 69.042969 150.425781 66.242188 148.15625 64.632812 145.078125 C 74.621094 142.097656 89.140625 142.152344 96.9375 145.382812 C 105.902344 146.472656 112.15625 153.710938 114 157.382812 C 115.84375 161.054688 119.421875 174.339844 114 186.296875 C 108.0625 199.386719 80.074219 261.855469 71.347656 281.496094 C 69.496094 285.660156 68.375 290.078125 68.375 294.859375 C 68.375 306.890625 78.84375 311.089844 84.789062 311.089844 C 91.898438 311.089844 99.136719 305.390625 99.136719 298.269531 C 99.136719 293.757812 96.808594 291.042969 93.449219 291.042969 C 85.414062 291.042969 85.902344 298.238281 87.503906 302.769531 C 82.503906 300.40625 79.597656 296.179688 80.394531 291.722656 C 77.5625 291.316406 74.867188 289.902344 72.382812 286.949219 C 74.339844 284.351562 76.726562 282.382812 80.394531 282.3125 C 78.792969 275.402344 83.1875 272.476562 87.503906 270.855469 C 86.140625 275.929688 85.242188 281.769531 93.449219 281.769531 C 99.433594 281.769531 104.144531 282.859375 106.890625 286.949219 C 107.054688 281.496094 107.539062 259.945312 107.539062 259.945312 C 107.882812 251.847656 97.242188 252.078125 90.476562 254.492188 C 93.03125 245.164062 98.265625 240.121094 110.382812 241.398438 C 107.441406 240.101562 104.304688 237.1875 104.304688 231.578125 C 104.308594 223.984375 110.160156 215.574219 114.003906 213.085938 Z M 115.921875 292.136719 "/>
<path style=" stroke:none;fill-rule:nonzero;fill:rgb(99.607843%,77.254902%,4.705882%);fill-opacity:1;" d="M 115.921875 647.054688 C 115.921875 667.324219 98.632812 677.742188 85.046875 677.742188 C 66.746094 677.742188 57 666.222656 57 651.144531 C 57 642.597656 58.488281 637.234375 62.234375 629.054688 C 62.234375 629.054688 92.421875 562.964844 104.179688 537.402344 C 105.644531 534.214844 106.117188 530.582031 106.117188 525.261719 C 106.117188 517.046875 98.546875 510.328125 90.605469 510.125 C 83.371094 509.933594 75.484375 517.226562 75.484375 525.535156 C 75.484375 535.628906 80.457031 540.128906 85.566406 540.128906 C 91.851562 540.128906 94.355469 537.410156 94.355469 532.765625 C 94.355469 529.527344 92.871094 528.125 90.734375 528.125 C 85.34375 528.125 86.859375 535.765625 86.859375 535.765625 C 84.179688 535.148438 81.980469 532.269531 83.238281 528.671875 C 81.28125 528.214844 79.445312 527.132812 78.003906 525.398438 C 79.449219 523.925781 81.105469 522.785156 83.238281 522.398438 C 81.976562 518.011719 83.664062 515.867188 87.308594 514.964844 C 86.574219 516.652344 86.550781 518.207031 86.792969 519.671875 C 92.535156 517.953125 101.335938 520.6875 101.335938 531.128906 C 101.335938 541.492188 94.5 550.21875 81.6875 548.039062 C 84.734375 549.574219 86.285156 552.710938 86.597656 556.222656 C 84.273438 555.269531 81.6875 555.132812 81.6875 555.132812 C 83.183594 557.910156 85.265625 560.308594 85.175781 565.769531 C 82.800781 564.632812 80.59375 562.527344 77.550781 563.859375 C 82.328125 573.757812 76.457031 587.371094 61.523438 590.589844 C 66.988281 583.847656 69.667969 576.566406 69.667969 569.3125 C 69.667969 545.816406 63.460938 541.871094 63.460938 525.535156 C 63.460938 518.699219 66.800781 511.320312 73.414062 506.304688 L 73.414062 506.578125 C 69.042969 505.34375 66.242188 503.078125 64.632812 500 C 74.621094 497.015625 89.140625 497.070312 96.9375 500.300781 C 105.902344 501.394531 112.15625 508.632812 114 512.304688 C 115.84375 515.976562 119.421875 529.257812 114 541.21875 C 108.0625 554.304688 80.074219 616.777344 71.347656 636.414062 C 69.496094 640.582031 68.375 644.996094 68.375 649.78125 C 68.375 661.8125 78.84375 666.011719 84.789062 666.011719 C 91.898438 666.011719 99.136719 660.308594 99.136719 653.191406 C 99.136719 648.679688 96.808594 645.960938 93.449219 645.960938 C 85.414062 645.960938 85.902344 653.15625 87.503906 657.691406 C 82.503906 655.324219 79.597656 651.101562 80.394531 646.644531 C 77.5625 646.234375 74.867188 644.820312 72.382812 641.871094 C 74.339844 639.269531 76.726562 637.304688 80.394531 637.234375 C 78.792969 630.320312 83.1875 627.398438 87.503906 625.777344 C 86.140625 630.851562 85.242188 636.6875 93.449219 636.6875 C 99.433594 636.6875 104.144531 637.777344 106.890625 641.871094 C 107.054688 636.414062 107.539062 614.867188 107.539062 614.867188 C 107.882812 606.769531 97.242188 607 90.476562 609.410156 C 93.03125 600.082031 98.265625 595.039062 110.382812 596.316406 C 107.441406 595.023438 104.304688 592.109375 104.304688 586.496094 C 104.308594 578.90625 110.160156 570.492188 114.003906 568.003906 L 115.921875 647.058594 Z M 115.921875 647.054688 "/>
<path style=" stroke:none;fill-rule:nonzero;fill:rgb(99.607843%,77.254902%,4.705882%);fill-opacity:1;" d="M 112.078125 647.054688 C 112.078125 667.324219 129.367188 677.742188 142.953125 677.742188 C 161.253906 677.742188 171 666.222656 171 651.144531 C 171 642.597656 169.511719 637.234375 165.765625 629.054688 C 165.765625 629.054688 135.578125 562.964844 123.820312 537.402344 C 122.355469 534.214844 121.882812 530.582031 121.882812 525.261719 C 121.882812 517.046875 129.453125 510.328125 137.394531 510.125 C 144.628906 509.933594 152.515625 517.226562 152.515625 525.535156 C 152.515625 535.628906 147.542969 540.128906 142.433594 540.128906 C 136.148438 540.128906 133.644531 537.410156 133.644531 532.765625 C 133.644531 529.527344 135.128906 528.125 137.265625 528.125 C 142.65625 528.125 141.140625 535.765625 141.140625 535.765625 C 143.820312 535.148438 146.019531 532.269531 144.761719 528.671875 C 146.71875 528.214844 148.554688 527.132812 149.996094 525.398438 C 148.550781 523.925781 146.894531 522.785156 144.761719 522.398438 C 146.023438 518.011719 144.335938 515.867188 140.691406 514.964844 C 141.425781 516.652344 141.449219 518.207031 141.207031 519.671875 C 135.464844 517.953125 126.664062 520.6875 126.664062 531.128906 C 126.664062 541.492188 133.5 550.21875 146.3125 548.039062 C 143.265625 549.574219 141.714844 552.710938 141.402344 556.222656 C 143.726562 555.269531 146.3125 555.132812 146.3125 555.132812 C 144.816406 557.910156 142.734375 560.308594 142.824219 565.769531 C 145.199219 564.632812 147.40625 562.527344 150.449219 563.859375 C 145.671875 573.757812 151.542969 587.371094 166.476562 590.589844 C 161.011719 583.847656 158.332031 576.566406 158.332031 569.3125 C 158.332031 545.816406 164.539062 541.871094 164.539062 525.535156 C 164.539062 518.699219 161.199219 511.320312 154.585938 506.304688 L 154.585938 506.578125 C 158.957031 505.34375 161.757812 503.078125 163.367188 500 C 153.378906 497.015625 138.859375 497.070312 131.0625 500.300781 C 122.097656 501.394531 115.84375 508.632812 114 512.304688 C 112.15625 515.976562 108.578125 529.257812 114 541.21875 C 119.9375 554.304688 147.925781 616.777344 156.652344 636.414062 C 158.503906 640.582031 159.625 644.996094 159.625 649.78125 C 159.625 661.8125 149.15625 666.011719 143.210938 666.011719 C 136.101562 666.011719 128.863281 660.308594 128.863281 653.191406 C 128.863281 648.679688 131.191406 645.960938 134.550781 645.960938 C 142.585938 645.960938 142.097656 653.15625 140.496094 657.691406 C 145.496094 655.324219 148.402344 651.101562 147.605469 646.644531 C 150.4375 646.234375 153.132812 644.820312 155.617188 641.871094 C 153.660156 639.269531 151.273438 637.304688 147.605469 637.234375 C 149.207031 630.320312 144.8125 627.398438 140.496094 625.777344 C 141.859375 630.851562 142.757812 636.6875 134.550781 636.6875 C 128.566406 636.6875 123.855469 637.777344 121.109375 641.871094 C 120.945312 636.414062 120.460938 614.867188 120.460938 614.867188 C 120.117188 606.769531 130.757812 607 137.523438 609.410156 C 134.96875 600.082031 129.734375 595.039062 117.617188 596.316406 C 120.558594 595.023438 123.695312 592.109375 123.695312 586.496094 C 123.691406 578.90625 117.839844 570.492188 113.996094 568.003906 L 112.078125 647.058594 Z M 112.078125 647.054688 "/>
<path style=" stroke:none;fill-rule:nonzero;fill:rgb(99.607843%,77.254902%,4.705882%);fill-opacity:1;" d="M 114 72.921875 C 114 72.921875 123.128906 64.847656 126.230469 68.898438 C 131.21875 75.414062 110.898438 107.867188 110.898438 119.292969 C 110.898438 138.050781 122.789062 143.15625 137.472656 145.832031 C 147.324219 147.628906 163.367188 145.082031 163.367188 145.082031 C 160.347656 140.808594 158.382812 139.546875 153.292969 139.207031 C 158.960938 136.109375 164.730469 129.386719 164.730469 118.921875 C 164.730469 102.785156 158.417969 96.132812 158.417969 77.941406 C 158.417969 67.847656 166.28125 55 166.28125 55 C 152.382812 56.464844 145.496094 70.007812 149.414062 80.832031 C 147.203125 81.167969 145.195312 80.644531 143.46875 78.921875 C 142.453125 81.925781 144.058594 85.40625 146.207031 88.40625 C 144.476562 89.382812 143.203125 88.796875 140.445312 88.199219 C 140.707031 91.289062 142.46875 94.574219 146.773438 97.664062 C 134.277344 94.25 126.589844 103.417969 126.589844 113.011719 C 126.589844 120.261719 131.417969 125.453125 136.132812 125.453125 C 137.65625 125.453125 139.894531 124.792969 141.160156 123.800781 C 142.050781 125.796875 141.589844 128.464844 140.671875 130.460938 C 144.128906 129.5 146.324219 127.339844 144.761719 122.839844 C 147.417969 122.582031 149.53125 121.636719 150.964844 119.839844 C 149.511719 117.875 147.300781 116.746094 144.761719 116.839844 C 146.695312 112.640625 144.542969 110.289062 141.402344 108.382812 C 141.402344 108.382812 143.398438 116.839844 138.300781 116.839844 C 136.007812 116.839844 133.917969 116.054688 133.917969 112.496094 C 133.917969 109.398438 136.492188 105.109375 142.4375 105.382812 C 148.382812 105.65625 153.203125 109.699219 153.203125 119.6875 C 153.203125 128.902344 146.140625 133.488281 136.835938 133.785156 C 128.441406 134.054688 122.109375 129.269531 122.109375 120.160156 C 122.109375 108.03125 138.742188 80.386719 138.742188 69.578125 C 138.742188 61.46875 131.8125 56.941406 125.035156 56.941406 C 116.246094 56.941406 108.832031 66.105469 108.832031 66.105469 L 113.992188 72.917969 Z M 114 72.921875 "/>
<path style=" stroke:none;fill-rule:nonzero;fill:rgb(99.607843%,77.254902%,4.705882%);fill-opacity:1;" d="M 114 72.921875 C 114 72.921875 104.871094 64.847656 101.769531 68.898438 C 96.78125 75.414062 117.101562 107.867188 117.101562 119.292969 C 117.101562 138.050781 105.210938 143.15625 90.527344 145.832031 C 80.675781 147.628906 64.632812 145.082031 64.632812 145.082031 C 67.652344 140.808594 69.617188 139.546875 74.707031 139.207031 C 69.039062 136.109375 63.269531 129.386719 63.269531 118.921875 C 63.269531 102.785156 69.582031 96.132812 69.582031 77.941406 C 69.582031 67.847656 61.71875 55 61.71875 55 C 75.617188 56.464844 82.503906 70.007812 78.585938 80.832031 C 80.796875 81.167969 82.804688 80.644531 84.53125 78.921875 C 85.546875 81.925781 83.941406 85.40625 81.792969 88.40625 C 83.523438 89.382812 84.796875 88.796875 87.554688 88.199219 C 87.292969 91.289062 85.53125 94.574219 81.226562 97.664062 C 93.722656 94.25 101.410156 103.417969 101.410156 113.011719 C 101.410156 120.261719 96.582031 125.453125 91.867188 125.453125 C 90.34375 125.453125 88.105469 124.792969 86.839844 123.800781 C 85.949219 125.796875 86.410156 128.464844 87.328125 130.460938 C 83.871094 129.5 81.675781 127.339844 83.238281 122.839844 C 80.582031 122.582031 78.46875 121.636719 77.035156 119.839844 C 78.488281 117.875 80.699219 116.746094 83.238281 116.839844 C 81.304688 112.640625 83.457031 110.289062 86.597656 108.382812 C 86.597656 108.382812 84.601562 116.839844 89.699219 116.839844 C 91.992188 116.839844 94.082031 116.054688 94.082031 112.496094 C 94.082031 109.398438 91.507812 105.109375 85.5625 105.382812 C 79.617188 105.65625 74.796875 109.699219 74.796875 119.6875 C 74.796875 128.902344 81.859375 133.488281 91.164062 133.785156 C 99.558594 134.054688 105.890625 129.269531 105.890625 120.160156 C 105.890625 108.03125 89.257812 80.386719 89.257812 69.578125 C 89.257812 61.46875 96.1875 56.941406 102.964844 56.941406 C 111.753906 56.941406 119.167969 66.105469 119.167969 66.105469 L 114.007812 72.917969 Z M 114 72.921875 "/>
</g>
</svg>
