<?xml version="1.0" encoding="UTF-8"?>
<svg xmlns="http://www.w3.org/2000/svg" xmlns:xlink="http://www.w3.org/1999/xlink" width="380pt" height="200pt" viewBox="0 0 1900 1000" version="1.1">
<g id="surface1">
<path style=" stroke:none;fill-rule:nonzero;fill:rgb(80.784314%,6.666667%,14.901961%);fill-opacity:1;" d="M 0 0 L 1900 0 L 1900 333.332031 L 0 333.332031 Z M 0 0 "/>
<path style=" stroke:none;fill-rule:nonzero;fill:rgb(100%,100%,100%);fill-opacity:1;" d="M 0 333.332031 L 1900 333.332031 L 1900 666.667969 L 0 666.667969 Z M 0 333.332031 "/>
<path style=" stroke:none;fill-rule:nonzero;fill:rgb(0%,0%,0%);fill-opacity:1;" d="M 0 666.667969 L 1900 666.667969 L 1900 1000 L 0 1000 Z M 0 666.667969 "/>
<path style=" stroke:none;fill-rule:nonzero;fill:rgb(0%,47.843137%,23.921569%);fill-opacity:1;" d="M 577.699219 623.832031 L 566.78125 614.371094 L 577.800781 604.992188 L 588.820312 595.617188 L 599.738281 605.078125 L 610.660156 614.539062 L 599.640625 623.914062 L 588.621094 633.292969 L 577.714844 623.8125 Z M 502.738281 619.0625 C 498.8125 617.832031 492.441406 613.773438 488.261719 609.851562 C 480.390625 602.457031 478.597656 599.007812 483.886719 601.433594 C 491.773438 605.0625 507.394531 607.417969 512.953125 605.828125 C 533.457031 599.949219 538.117188 576.445312 521.742188 561.539062 C 518.53125 558.613281 515.898438 555.214844 515.898438 553.984375 C 515.898438 552.753906 519.316406 550.449219 523.488281 548.863281 C 529.332031 546.644531 532.1875 544.226562 535.929688 538.332031 C 539.722656 532.34375 541.285156 531.039062 543.109375 532.339844 C 545.710938 534.195312 554.511719 552.21875 554.511719 555.703125 C 554.511719 557.542969 557.691406 557.945312 572.082031 557.945312 L 589.652344 557.945312 L 586.910156 552.292969 C 585.402344 549.1875 582.914062 545.003906 581.386719 543.003906 C 578.917969 539.757812 578.902344 539.183594 581.277344 537.730469 C 582.738281 536.832031 587.601562 533.894531 592.089844 531.199219 C 596.574219 528.5 600.761719 525.113281 601.390625 523.667969 C 602.945312 520.078125 612.660156 509.734375 614.464844 509.734375 C 615.265625 509.734375 615.925781 520.578125 615.925781 533.835938 L 615.925781 557.941406 L 835.265625 557.941406 L 835.265625 488.882812 L 829.164062 485.640625 L 823.0625 482.402344 L 816.882812 486.449219 L 810.699219 490.492188 L 810.699219 539.851562 L 718.578125 539.851562 C 667.90625 539.851562 626.449219 539.578125 626.449219 539.25 C 626.449219 538.722656 672.292969 485.566406 677.898438 479.589844 C 679.0625 478.347656 681.945312 474.960938 684.296875 472.058594 C 686.652344 469.160156 689.050781 466.449219 689.621094 466.035156 C 690.199219 465.617188 692.574219 462.90625 694.914062 460.007812 C 697.246094 457.105469 699.972656 453.9375 700.96875 452.972656 C 701.96875 452.003906 718.574219 432.894531 737.875 410.503906 C 757.175781 388.117188 773.542969 369.757812 774.257812 369.707031 C 774.964844 369.65625 775.96875 371.480469 776.492188 373.757812 C 779.386719 386.367188 781.609375 393.429688 783.902344 397.3125 C 786.835938 402.277344 785.117188 404.132812 777.363281 404.335938 C 773.695312 404.433594 765.242188 413.34375 725.597656 458.90625 C 699.542969 488.855469 677.957031 513.894531 677.636719 514.550781 C 677.3125 515.210938 700.804688 515.75 729.835938 515.75 L 782.625 515.75 L 782.652344 499.550781 C 782.664062 490.648438 783.261719 482.65625 783.96875 481.800781 C 787.28125 477.792969 822.183594 456.855469 824.613281 457.414062 C 826.128906 457.757812 835.460938 463.332031 845.359375 469.796875 L 863.34375 481.554688 L 863.34375 582.042969 L 558.542969 582.042969 L 555.484375 591.757812 C 551.808594 603.40625 545.796875 611.804688 537.726562 616.546875 C 530.058594 620.976562 512.808594 622.222656 502.691406 619.046875 Z M 882.632812 503.796875 C 882.632812 449.105469 883.207031 425.210938 884.539062 424.5 C 885.582031 423.945312 890.125 426.804688 894.625 430.859375 C 899.125 434.910156 907.152344 441.417969 912.464844 445.316406 C 920.847656 451.480469 921.71875 452.617188 919.136719 453.96875 C 910.496094 458.472656 910.714844 457.054688 910.714844 509.046875 L 910.714844 557.898438 L 927.511719 557.898438 C 942.425781 557.898438 945.179688 557.464844 952.074219 553.988281 C 960.636719 549.683594 961.203125 550.25 956.964844 558.847656 C 955.378906 562.054688 953.609375 568.410156 953.015625 572.96875 L 951.941406 581.253906 L 917.285156 581.664062 L 882.632812 582.070312 L 882.632812 503.75 Z M 882.632812 503.796875 "/>
<path style=" stroke:none;fill-rule:nonzero;fill:rgb(0%,47.843137%,23.921569%);fill-opacity:1;" d="M 1064.085938 561.742188 C 1065.003906 539.714844 1067.65625 532.242188 1077.070312 525.148438 C 1084.3125 519.6875 1094.679688 517.101562 1106.675781 517.765625 L 1115.660156 518.261719 L 1116.203125 509.25 C 1116.882812 497.832031 1115.679688 493.757812 1111.257812 492.546875 C 1105.949219 491.101562 1107.035156 486.367188 1113.464844 482.921875 C 1116.613281 481.238281 1124.320312 475.398438 1130.585938 469.945312 C 1136.851562 464.488281 1142.605469 460.027344 1143.359375 460.027344 C 1144.109375 460.027344 1144.734375 481.804688 1144.734375 508.421875 L 1144.734375 556.820312 L 1169.390625 556.820312 L 1169.390625 507.019531 C 1169.390625 463.761719 1169.027344 456.90625 1166.621094 454.839844 C 1165.097656 453.535156 1163.117188 452.464844 1162.21875 452.464844 C 1158.265625 452.464844 1161.058594 446.40625 1166.300781 443.597656 C 1169.457031 441.914062 1177.117188 436.105469 1183.34375 430.691406 C 1189.5625 425.277344 1195.316406 421.199219 1196.113281 421.625 C 1196.914062 422.050781 1197.570312 452.640625 1197.570312 489.609375 L 1197.570312 556.820312 L 1222.226562 556.820312 L 1222.226562 419.179688 L 1217.824219 415.890625 C 1215.402344 414.085938 1213.421875 411.78125 1213.421875 410.777344 C 1213.421875 409.773438 1218.898438 405.152344 1225.597656 400.507812 C 1232.292969 395.859375 1239.476562 390 1241.566406 387.480469 C 1250.558594 376.636719 1250.410156 375.019531 1250.410156 481.957031 L 1250.410156 581.015625 L 1063.273438 581.015625 L 1064.398438 561.71875 Z M 1116.507812 546.984375 L 1116.507812 537.15625 L 1109.597656 537.15625 C 1100.324219 537.15625 1091.851562 544.070312 1091.851562 551.640625 L 1091.851562 556.816406 L 1116.507812 556.816406 Z M 1269.800781 502.492188 C 1269.800781 447.589844 1270.375 423.597656 1271.710938 422.890625 C 1272.761719 422.332031 1277.320312 425.203125 1281.835938 429.273438 C 1286.359375 433.34375 1294.410156 439.875 1299.738281 443.792969 C 1308.152344 449.976562 1309.03125 451.117188 1306.433594 452.476562 C 1297.761719 457 1297.980469 455.578125 1297.980469 507.769531 L 1297.980469 556.816406 L 1315.1875 556.816406 C 1330.792969 556.816406 1333.015625 556.453125 1339.101562 552.898438 C 1342.796875 550.75 1346.246094 549.359375 1346.777344 549.8125 C 1347.304688 550.265625 1346.355469 553.558594 1344.65625 557.128906 C 1342.957031 560.699219 1341.070312 567.359375 1340.46875 571.933594 L 1339.375 580.253906 L 1304.582031 580.664062 L 1269.792969 581.074219 L 1269.792969 502.46875 Z M 1131.117188 420.199219 C 1128.007812 419.222656 1124.4375 417.492188 1123.191406 416.355469 C 1121.273438 414.621094 1122.222656 414.449219 1129.191406 415.308594 C 1141.710938 416.839844 1149.386719 415.019531 1156.367188 408.835938 L 1162.507812 403.410156 L 1171.042969 406.011719 C 1175.734375 407.441406 1180.640625 408.257812 1181.949219 407.828125 C 1185.332031 406.710938 1191.46875 398.359375 1190.851562 395.703125 C 1190.105469 392.464844 1193.570312 392.957031 1195.710938 396.390625 C 1199.914062 403.132812 1196.40625 411.6875 1188.375 414.292969 C 1184.441406 415.566406 1180.640625 415.601562 1174.265625 414.433594 C 1166.441406 412.992188 1165.160156 413.144531 1161.726562 415.902344 C 1154.058594 422.089844 1142.359375 423.734375 1131.121094 420.214844 Z M 1152.464844 395.226562 C 1148.222656 392.742188 1139.265625 380 1138.929688 375.949219 C 1138.632812 372.476562 1139.351562 371.414062 1142.226562 371.054688 C 1147.265625 370.4375 1149.589844 373.316406 1153.464844 384.957031 C 1156.636719 394.488281 1156.308594 397.496094 1152.472656 395.226562 Z M 1152.464844 395.226562 "/>
</g>
</svg>
