<?xml version="1.0" encoding="UTF-8"?>
<svg xmlns="http://www.w3.org/2000/svg" xmlns:xlink="http://www.w3.org/1999/xlink" width="380pt" height="200pt" viewBox="0 0 1900 1000" version="1.1">
<g id="surface1">
<rect x="0" y="0" width="1900" height="1000" style="fill:rgb(12.941176%,35.686275%,20%);fill-opacity:1;stroke:none;"/>
<path style=" stroke:none;fill-rule:nonzero;fill:rgb(0%,31.764706%,72.941176%);fill-opacity:1;" d="M 0 1000 L 0 0 L 1900 0 "/>
<path style="fill-rule:nonzero;fill:rgb(0%,0%,0%);fill-opacity:1;stroke-width:9;stroke-linecap:butt;stroke-linejoin:miter;stroke:rgb(98.823529%,81.960784%,8.627451%);stroke-opacity:1;stroke-miterlimit:4;" d="M 165 -30 L -35 70 " transform="matrix(9.5,0,0,10,332.5,300)"/>
<path style=" stroke:none;fill-rule:nonzero;fill:rgb(100%,100%,100%);fill-opacity:1;" d="M 332.5 200 L 303.144531 295.105469 L 348.320312 310.554688 Z M 332.5 200 "/>
<path style=" stroke:none;fill-rule:nonzero;fill:rgb(100%,100%,100%);fill-opacity:1;" d="M 332.5 200 L 361.855469 295.105469 L 316.679688 310.554688 Z M 332.5 200 "/>
<path style=" stroke:none;fill-rule:nonzero;fill:rgb(100%,100%,100%);fill-opacity:1;" d="M 422.851562 269.097656 L 327.851562 269.097656 L 327.851562 319.097656 Z M 422.851562 269.097656 "/>
<path style=" stroke:none;fill-rule:nonzero;fill:rgb(100%,100%,100%);fill-opacity:1;" d="M 422.851562 269.097656 L 345.992188 327.875 L 318.074219 287.425781 Z M 422.851562 269.097656 "/>
<path style=" stroke:none;fill-rule:nonzero;fill:rgb(100%,100%,100%);fill-opacity:1;" d="M 242.148438 269.097656 L 319.007812 327.875 L 346.925781 287.425781 Z M 242.148438 269.097656 "/>
<path style=" stroke:none;fill-rule:nonzero;fill:rgb(100%,100%,100%);fill-opacity:1;" d="M 242.148438 269.097656 L 337.148438 269.097656 L 337.148438 319.097656 Z M 242.148438 269.097656 "/>
<path style=" stroke:none;fill-rule:nonzero;fill:rgb(100%,100%,100%);fill-opacity:1;" d="M 388.339844 380.902344 L 358.984375 285.796875 L 313.808594 301.246094 Z M 388.339844 380.902344 "/>
<path style=" stroke:none;fill-rule:nonzero;fill:rgb(100%,100%,100%);fill-opacity:1;" d="M 388.339844 380.902344 L 311.484375 322.125 L 339.402344 281.671875 Z M 388.339844 380.902344 "/>
<path style=" stroke:none;fill-rule:nonzero;fill:rgb(100%,100%,100%);fill-opacity:1;" d="M 276.660156 380.902344 L 353.515625 322.125 L 325.597656 281.671875 Z M 276.660156 380.902344 "/>
<path style=" stroke:none;fill-rule:nonzero;fill:rgb(100%,100%,100%);fill-opacity:1;" d="M 276.660156 380.902344 L 306.015625 285.796875 L 351.191406 301.246094 Z M 276.660156 380.902344 "/>
<path style=" stroke:none;fill-rule:nonzero;fill:rgb(100%,100%,100%);fill-opacity:1;" d="M 520.039062 30.796875 L 490.683594 125.90625 L 535.859375 141.355469 Z M 520.039062 30.796875 "/>
<path style=" stroke:none;fill-rule:nonzero;fill:rgb(100%,100%,100%);fill-opacity:1;" d="M 520.039062 30.796875 L 549.398438 125.90625 L 504.222656 141.355469 Z M 520.039062 30.796875 "/>
<path style=" stroke:none;fill-rule:nonzero;fill:rgb(100%,100%,100%);fill-opacity:1;" d="M 610.390625 99.898438 L 515.390625 99.898438 L 515.390625 149.898438 Z M 610.390625 99.898438 "/>
<path style=" stroke:none;fill-rule:nonzero;fill:rgb(100%,100%,100%);fill-opacity:1;" d="M 610.390625 99.898438 L 533.535156 158.675781 L 505.613281 118.226562 Z M 610.390625 99.898438 "/>
<path style=" stroke:none;fill-rule:nonzero;fill:rgb(100%,100%,100%);fill-opacity:1;" d="M 429.691406 99.898438 L 506.546875 158.675781 L 534.464844 118.226562 Z M 429.691406 99.898438 "/>
<path style=" stroke:none;fill-rule:nonzero;fill:rgb(100%,100%,100%);fill-opacity:1;" d="M 429.691406 99.898438 L 524.691406 99.898438 L 524.691406 149.898438 Z M 429.691406 99.898438 "/>
<path style=" stroke:none;fill-rule:nonzero;fill:rgb(100%,100%,100%);fill-opacity:1;" d="M 575.878906 211.699219 L 546.523438 116.59375 L 501.347656 132.046875 Z M 575.878906 211.699219 "/>
<path style=" stroke:none;fill-rule:nonzero;fill:rgb(100%,100%,100%);fill-opacity:1;" d="M 575.878906 211.699219 L 499.023438 152.921875 L 526.941406 112.472656 Z M 575.878906 211.699219 "/>
<path style=" stroke:none;fill-rule:nonzero;fill:rgb(100%,100%,100%);fill-opacity:1;" d="M 464.199219 211.699219 L 541.058594 152.921875 L 513.136719 112.472656 Z M 464.199219 211.699219 "/>
<path style=" stroke:none;fill-rule:nonzero;fill:rgb(100%,100%,100%);fill-opacity:1;" d="M 464.199219 211.699219 L 493.558594 116.59375 L 538.730469 132.046875 Z M 464.199219 211.699219 "/>
<path style=" stroke:none;fill-rule:nonzero;fill:rgb(100%,100%,100%);fill-opacity:1;" d="M 520.039062 369.203125 L 490.683594 464.308594 L 535.859375 479.757812 Z M 520.039062 369.203125 "/>
<path style=" stroke:none;fill-rule:nonzero;fill:rgb(100%,100%,100%);fill-opacity:1;" d="M 520.039062 369.203125 L 549.398438 464.308594 L 504.222656 479.757812 Z M 520.039062 369.203125 "/>
<path style=" stroke:none;fill-rule:nonzero;fill:rgb(100%,100%,100%);fill-opacity:1;" d="M 610.390625 438.300781 L 515.390625 438.300781 L 515.390625 488.300781 Z M 610.390625 438.300781 "/>
<path style=" stroke:none;fill-rule:nonzero;fill:rgb(100%,100%,100%);fill-opacity:1;" d="M 610.390625 438.300781 L 533.535156 497.078125 L 505.613281 456.628906 Z M 610.390625 438.300781 "/>
<path style=" stroke:none;fill-rule:nonzero;fill:rgb(100%,100%,100%);fill-opacity:1;" d="M 429.691406 438.300781 L 506.546875 497.078125 L 534.464844 456.628906 Z M 429.691406 438.300781 "/>
<path style=" stroke:none;fill-rule:nonzero;fill:rgb(100%,100%,100%);fill-opacity:1;" d="M 429.691406 438.300781 L 524.691406 438.300781 L 524.691406 488.300781 Z M 429.691406 438.300781 "/>
<path style=" stroke:none;fill-rule:nonzero;fill:rgb(100%,100%,100%);fill-opacity:1;" d="M 575.878906 550.101562 L 546.523438 454.996094 L 501.347656 470.449219 Z M 575.878906 550.101562 "/>
<path style=" stroke:none;fill-rule:nonzero;fill:rgb(100%,100%,100%);fill-opacity:1;" d="M 575.878906 550.101562 L 499.023438 491.324219 L 526.941406 450.875 Z M 575.878906 550.101562 "/>
<path style=" stroke:none;fill-rule:nonzero;fill:rgb(100%,100%,100%);fill-opacity:1;" d="M 464.199219 550.101562 L 541.058594 491.324219 L 513.136719 450.875 Z M 464.199219 550.101562 "/>
<path style=" stroke:none;fill-rule:nonzero;fill:rgb(100%,100%,100%);fill-opacity:1;" d="M 464.199219 550.101562 L 493.558594 454.996094 L 538.730469 470.449219 Z M 464.199219 550.101562 "/>
<path style=" stroke:none;fill-rule:nonzero;fill:rgb(100%,100%,100%);fill-opacity:1;" d="M 144.960938 369.203125 L 115.601562 464.308594 L 160.777344 479.757812 Z M 144.960938 369.203125 "/>
<path style=" stroke:none;fill-rule:nonzero;fill:rgb(100%,100%,100%);fill-opacity:1;" d="M 144.960938 369.203125 L 174.316406 464.308594 L 129.140625 479.757812 Z M 144.960938 369.203125 "/>
<path style=" stroke:none;fill-rule:nonzero;fill:rgb(100%,100%,100%);fill-opacity:1;" d="M 235.308594 438.300781 L 140.308594 438.300781 L 140.308594 488.300781 Z M 235.308594 438.300781 "/>
<path style=" stroke:none;fill-rule:nonzero;fill:rgb(100%,100%,100%);fill-opacity:1;" d="M 235.308594 438.300781 L 158.453125 497.078125 L 130.535156 456.628906 Z M 235.308594 438.300781 "/>
<path style=" stroke:none;fill-rule:nonzero;fill:rgb(100%,100%,100%);fill-opacity:1;" d="M 54.609375 438.300781 L 131.464844 497.078125 L 159.386719 456.628906 Z M 54.609375 438.300781 "/>
<path style=" stroke:none;fill-rule:nonzero;fill:rgb(100%,100%,100%);fill-opacity:1;" d="M 54.609375 438.300781 L 149.609375 438.300781 L 149.609375 488.300781 Z M 54.609375 438.300781 "/>
<path style=" stroke:none;fill-rule:nonzero;fill:rgb(100%,100%,100%);fill-opacity:1;" d="M 200.800781 550.101562 L 171.441406 454.996094 L 126.269531 470.449219 Z M 200.800781 550.101562 "/>
<path style=" stroke:none;fill-rule:nonzero;fill:rgb(100%,100%,100%);fill-opacity:1;" d="M 200.800781 550.101562 L 123.941406 491.324219 L 151.863281 450.875 Z M 200.800781 550.101562 "/>
<path style=" stroke:none;fill-rule:nonzero;fill:rgb(100%,100%,100%);fill-opacity:1;" d="M 89.121094 550.101562 L 165.976562 491.324219 L 138.058594 450.875 Z M 89.121094 550.101562 "/>
<path style=" stroke:none;fill-rule:nonzero;fill:rgb(100%,100%,100%);fill-opacity:1;" d="M 89.121094 550.101562 L 118.476562 454.996094 L 163.652344 470.449219 Z M 89.121094 550.101562 "/>
<path style=" stroke:none;fill-rule:nonzero;fill:rgb(100%,100%,100%);fill-opacity:1;" d="M 144.960938 30.796875 L 115.601562 125.90625 L 160.777344 141.355469 Z M 144.960938 30.796875 "/>
<path style=" stroke:none;fill-rule:nonzero;fill:rgb(100%,100%,100%);fill-opacity:1;" d="M 144.960938 30.796875 L 174.316406 125.90625 L 129.140625 141.355469 Z M 144.960938 30.796875 "/>
<path style=" stroke:none;fill-rule:nonzero;fill:rgb(100%,100%,100%);fill-opacity:1;" d="M 235.308594 99.898438 L 140.308594 99.898438 L 140.308594 149.898438 Z M 235.308594 99.898438 "/>
<path style=" stroke:none;fill-rule:nonzero;fill:rgb(100%,100%,100%);fill-opacity:1;" d="M 235.308594 99.898438 L 158.453125 158.675781 L 130.535156 118.226562 Z M 235.308594 99.898438 "/>
<path style=" stroke:none;fill-rule:nonzero;fill:rgb(100%,100%,100%);fill-opacity:1;" d="M 54.609375 99.898438 L 131.464844 158.675781 L 159.386719 118.226562 Z M 54.609375 99.898438 "/>
<path style=" stroke:none;fill-rule:nonzero;fill:rgb(100%,100%,100%);fill-opacity:1;" d="M 54.609375 99.898438 L 149.609375 99.898438 L 149.609375 149.898438 Z M 54.609375 99.898438 "/>
<path style=" stroke:none;fill-rule:nonzero;fill:rgb(100%,100%,100%);fill-opacity:1;" d="M 200.800781 211.699219 L 171.441406 116.59375 L 126.269531 132.046875 Z M 200.800781 211.699219 "/>
<path style=" stroke:none;fill-rule:nonzero;fill:rgb(100%,100%,100%);fill-opacity:1;" d="M 200.800781 211.699219 L 123.941406 152.921875 L 151.863281 112.472656 Z M 200.800781 211.699219 "/>
<path style=" stroke:none;fill-rule:nonzero;fill:rgb(100%,100%,100%);fill-opacity:1;" d="M 89.121094 211.699219 L 165.976562 152.921875 L 138.058594 112.472656 Z M 89.121094 211.699219 "/>
<path style=" stroke:none;fill-rule:nonzero;fill:rgb(100%,100%,100%);fill-opacity:1;" d="M 89.121094 211.699219 L 118.476562 116.59375 L 163.652344 132.046875 Z M 89.121094 211.699219 "/>
</g>
</svg>
