<?xml version="1.0" encoding="UTF-8"?>
<svg xmlns="http://www.w3.org/2000/svg" xmlns:xlink="http://www.w3.org/1999/xlink" width="380pt" height="200pt" viewBox="0 0 1900 1000" version="1.1">
<g id="surface1">
<rect x="0" y="0" width="1900" height="1000" style="fill:rgb(100%,0%,0%);fill-opacity:1;stroke:none;"/>
<path style=" stroke:none;fill-rule:nonzero;fill:rgb(100%,100%,100%);fill-opacity:1;" d="M 475 0 L 1425 0 L 1425 1000 L 475 1000 Z M 475 0 "/>
<path style=" stroke:none;fill-rule:nonzero;fill:rgb(100%,0%,0%);fill-opacity:1;" d="M 949.984375 93.75 L 885.171875 221 C 877.816406 234.832031 864.636719 233.546875 851.460938 225.824219 L 804.535156 200.246094 L 839.511719 395.699219 C 846.863281 431.410156 823.269531 431.410156 811.621094 415.96875 L 729.730469 319.46875 L 716.4375 368.472656 C 714.902344 374.910156 708.160156 381.667969 698.046875 380.058594 L 594.496094 357.140625 L 621.695312 461.230469 C 627.515625 484.390625 632.058594 493.980469 615.816406 500.089844 L 578.90625 518.347656 L 757.167969 670.765625 C 764.222656 676.527344 767.789062 686.898438 765.273438 696.289062 L 749.671875 750.183594 C 811.050781 742.738281 866.046875 731.53125 927.457031 724.632812 C 932.875 724.023438 941.953125 733.441406 941.914062 740.054688 L 933.78125 937.5 L 963.625 937.5 L 958.925781 740.476562 C 958.890625 733.863281 967.125 724.023438 972.542969 724.632812 C 1033.953125 731.53125 1088.949219 742.738281 1150.328125 750.183594 L 1134.726562 696.289062 C 1132.214844 686.898438 1135.777344 676.527344 1142.832031 670.765625 L 1321.09375 518.347656 L 1284.183594 500.089844 C 1267.941406 493.980469 1272.484375 484.390625 1278.304688 461.230469 L 1305.503906 357.140625 L 1201.953125 380.058594 C 1191.839844 381.667969 1185.097656 374.910156 1183.5625 368.472656 L 1170.269531 319.46875 L 1088.378906 415.96875 C 1076.730469 431.410156 1053.136719 431.410156 1060.488281 395.699219 L 1095.464844 200.246094 L 1048.539062 225.824219 C 1035.359375 233.546875 1022.183594 234.832031 1014.828125 221 "/>
</g>
</svg>
