<?xml version="1.0" encoding="UTF-8"?>
<svg xmlns="http://www.w3.org/2000/svg" xmlns:xlink="http://www.w3.org/1999/xlink" width="1900pt" height="1000pt" viewBox="0 0 1900 1000" version="1.1">
<g id="surface1">
<path style=" stroke:none;fill-rule:nonzero;fill:rgb(0%,44.705882%,77.647059%);fill-opacity:1;" d="M 0 0 L 506.667969 0 L 506.667969 1000 L 0 1000 Z M 0 0 "/>
<path style=" stroke:none;fill-rule:nonzero;fill:rgb(98.823529%,81.960784%,8.627451%);fill-opacity:1;" d="M 475 0 L 1900 0 L 1900 1000 L 475 1000 Z M 475 0 "/>
<path style=" stroke:none;fill-rule:nonzero;fill:rgb(0%,61.960784%,37.647059%);fill-opacity:1;" d="M 1425 0 L 1900 0 L 1900 1000 L 1425 1000 Z M 1425 0 "/>
<path style=" stroke:none;fill-rule:nonzero;fill:rgb(0%,61.960784%,37.647059%);fill-opacity:1;" d="M 844.445312 708.332031 L 950 875 L 1055.554688 708.332031 L 950 541.667969 Z M 844.445312 708.332031 "/>
<path style=" stroke:none;fill-rule:nonzero;fill:rgb(0%,61.960784%,37.647059%);fill-opacity:1;" d="M 712.5 500 L 818.054688 666.667969 L 923.609375 500 L 818.054688 333.332031 Z M 712.5 500 "/>
<path style=" stroke:none;fill-rule:nonzero;fill:rgb(0%,61.960784%,37.647059%);fill-opacity:1;" d="M 976.390625 500 L 1081.945312 666.667969 L 1187.5 500 L 1081.945312 333.332031 Z M 976.390625 500 "/>
</g>
</svg>
