<?xml version="1.0" encoding="UTF-8"?>
<svg xmlns="http://www.w3.org/2000/svg" xmlns:xlink="http://www.w3.org/1999/xlink" width="1900pt" height="1000pt" viewBox="0 0 1900 1000" version="1.1">
<g id="surface1">
<rect x="0" y="0" width="1900" height="1000" style="fill:rgb(78.431373%,19.215686%,24.313725%);fill-opacity:1;stroke:none;"/>
<path style=" stroke:none;fill-rule:nonzero;fill:rgb(29.019608%,65.098039%,34.117647%);fill-opacity:1;" d="M 0 666.667969 L 1900 666.667969 L 1900 1000 L 0 1000 Z M 0 666.667969 "/>
<path style=" stroke:none;fill-rule:nonzero;fill:rgb(100%,100%,100%);fill-opacity:1;" d="M 0 0 L 211.109375 0 L 211.109375 1000 L 0 1000 Z M 0 0 "/>
<path style=" stroke:none;fill-rule:evenodd;fill:rgb(78.431373%,19.215686%,24.313725%);fill-opacity:1;" d="M 36.714844 0 L 64.25 0 L 64.25 16.394531 L 73.429688 16.394531 L 73.429688 32.785156 L 82.609375 32.785156 L 82.609375 49.179688 L 91.789062 49.179688 L 91.789062 65.574219 L 100.964844 65.574219 L 100.964844 81.96875 L 91.789062 81.96875 L 91.789062 98.359375 L 82.609375 98.359375 L 82.609375 114.753906 L 73.429688 114.753906 L 73.429688 131.148438 L 64.25 131.148438 L 64.25 147.539062 L 55.074219 147.539062 L 55.074219 163.933594 L 45.894531 163.933594 L 45.894531 147.539062 L 36.714844 147.539062 L 36.714844 131.148438 L 27.535156 131.148438 L 27.535156 114.753906 L 18.359375 114.753906 L 18.359375 98.359375 L 9.179688 98.359375 L 9.179688 81.96875 L 0 81.96875 L 0 65.574219 L 9.179688 65.574219 L 9.179688 49.179688 L 18.359375 49.179688 L 18.359375 32.785156 L 27.535156 32.785156 L 27.535156 16.394531 L 36.714844 16.394531 Z M 45.894531 32.785156 L 55.074219 32.785156 L 55.074219 49.179688 L 64.25 49.179688 L 64.25 65.574219 L 73.429688 65.574219 L 73.429688 81.96875 L 64.25 81.96875 L 64.25 98.359375 L 55.074219 98.359375 L 55.074219 114.753906 L 45.894531 114.753906 L 45.894531 98.359375 L 36.714844 98.359375 L 36.714844 81.96875 L 27.535156 81.96875 L 27.535156 65.574219 L 36.714844 65.574219 L 36.714844 49.179688 L 45.894531 49.179688 Z M 45.894531 65.574219 L 55.074219 65.574219 L 55.074219 81.96875 L 45.894531 81.96875 Z M 0 16.394531 L 9.179688 16.394531 L 9.179688 32.785156 L 0 32.785156 Z M 0 114.753906 L 9.179688 114.753906 L 9.179688 131.148438 L 0 131.148438 Z M 100.964844 0 L 106.472656 0 L 106.472656 32.785156 L 100.964844 32.785156 Z M 100.964844 114.753906 L 106.472656 114.753906 L 106.472656 147.539062 L 100.964844 147.539062 Z M 18.359375 147.539062 L 27.535156 147.539062 L 27.535156 163.933594 L 36.714844 163.933594 L 36.714844 180.328125 L 45.894531 180.328125 L 45.894531 196.722656 L 36.714844 196.722656 L 36.714844 213.113281 L 27.535156 213.113281 L 27.535156 229.507812 L 18.359375 229.507812 L 18.359375 213.113281 L 9.179688 213.113281 L 9.179688 196.722656 L 0 196.722656 L 0 180.328125 L 9.179688 180.328125 L 9.179688 163.933594 L 18.359375 163.933594 Z M 18.359375 180.328125 L 27.535156 180.328125 L 27.535156 196.722656 L 18.359375 196.722656 Z M 73.429688 147.539062 L 82.609375 147.539062 L 82.609375 163.933594 L 91.789062 163.933594 L 91.789062 180.328125 L 100.964844 180.328125 L 100.964844 196.722656 L 91.789062 196.722656 L 91.789062 213.113281 L 82.609375 213.113281 L 82.609375 229.507812 L 73.429688 229.507812 L 73.429688 213.113281 L 64.25 213.113281 L 64.25 196.722656 L 55.074219 196.722656 L 55.074219 180.328125 L 64.25 180.328125 L 64.25 163.933594 L 73.429688 163.933594 Z M 73.429688 180.328125 L 82.609375 180.328125 L 82.609375 196.722656 L 73.429688 196.722656 Z M 0 245.902344 L 9.179688 245.902344 L 9.179688 262.296875 L 0 262.296875 Z M 100.964844 229.507812 L 106.472656 229.507812 L 106.472656 262.296875 L 100.964844 262.296875 Z M 100.964844 229.507812 "/>
<path style=" stroke:none;fill-rule:evenodd;fill:rgb(78.431373%,19.215686%,24.313725%);fill-opacity:1;" d="M 0 295.082031 L 9.179688 295.082031 L 9.179688 278.6875 L 18.359375 278.6875 L 18.359375 262.296875 L 27.535156 262.296875 L 27.535156 245.902344 L 36.714844 245.902344 L 36.714844 229.507812 L 45.894531 229.507812 L 45.894531 213.113281 L 55.074219 213.113281 L 55.074219 229.507812 L 64.25 229.507812 L 64.25 245.902344 L 73.429688 245.902344 L 73.429688 262.296875 L 82.609375 262.296875 L 82.609375 278.6875 L 91.789062 278.6875 L 91.789062 295.082031 L 100.964844 295.082031 L 100.964844 311.476562 L 106.472656 311.476562 L 106.472656 377.050781 L 100.964844 377.050781 L 100.964844 393.441406 L 91.789062 393.441406 L 91.789062 409.835938 L 82.609375 409.835938 L 82.609375 426.230469 L 73.429688 426.230469 L 73.429688 442.621094 L 64.25 442.621094 L 64.25 459.015625 L 55.074219 459.015625 L 55.074219 501.640625 L 36.714844 501.640625 L 36.714844 491.804688 L 27.535156 491.804688 L 27.535156 475.410156 L 18.359375 475.410156 L 18.359375 459.015625 L 9.179688 459.015625 L 9.179688 442.621094 L 0 442.621094 L 0 393.441406 L 9.179688 393.441406 L 9.179688 409.835938 L 18.359375 409.835938 L 18.359375 426.230469 L 27.535156 426.230469 L 27.535156 442.621094 L 36.714844 442.621094 L 36.714844 426.230469 L 45.894531 426.230469 L 45.894531 409.835938 L 55.074219 409.835938 L 55.074219 393.441406 L 64.25 393.441406 L 64.25 377.050781 L 73.429688 377.050781 L 73.429688 360.65625 L 82.609375 360.65625 L 82.609375 344.261719 L 73.429688 344.261719 L 73.429688 327.867188 L 64.25 327.867188 L 64.25 311.476562 L 36.714844 311.476562 L 36.714844 327.867188 L 55.074219 327.867188 L 55.074219 344.261719 L 45.894531 344.261719 L 45.894531 360.65625 L 36.714844 360.65625 L 36.714844 377.050781 L 27.535156 377.050781 L 27.535156 360.65625 L 18.359375 360.65625 L 18.359375 344.261719 L 9.179688 344.261719 L 9.179688 327.867188 L 0 327.867188 Z M 0 360.65625 L 9.179688 360.65625 L 9.179688 377.050781 L 0 377.050781 Z M 100.964844 409.835938 L 106.472656 409.835938 L 106.472656 426.230469 L 100.964844 426.230469 Z M 82.609375 442.621094 L 91.789062 442.621094 L 91.789062 459.015625 L 100.964844 459.015625 L 100.964844 475.410156 L 106.472656 475.410156 L 106.472656 501.640625 L 100.964844 501.640625 L 100.964844 491.804688 L 91.789062 491.804688 L 91.789062 475.410156 L 82.609375 475.410156 Z M 64.25 491.804688 L 73.429688 491.804688 L 73.429688 501.640625 L 64.25 501.640625 Z M 64.25 491.804688 "/>
<path style=" stroke:none;fill-rule:evenodd;fill:rgb(78.431373%,19.215686%,24.313725%);fill-opacity:1;" d="M 174.394531 0 L 146.859375 0 L 146.859375 16.394531 L 137.679688 16.394531 L 137.679688 32.785156 L 128.503906 32.785156 L 128.503906 49.179688 L 119.324219 49.179688 L 119.324219 65.574219 L 110.144531 65.574219 L 110.144531 81.96875 L 119.324219 81.96875 L 119.324219 98.359375 L 128.503906 98.359375 L 128.503906 114.753906 L 137.679688 114.753906 L 137.679688 131.148438 L 146.859375 131.148438 L 146.859375 147.539062 L 156.039062 147.539062 L 156.039062 163.933594 L 165.21875 163.933594 L 165.21875 147.539062 L 174.394531 147.539062 L 174.394531 131.148438 L 183.574219 131.148438 L 183.574219 114.753906 L 192.753906 114.753906 L 192.753906 98.359375 L 201.933594 98.359375 L 201.933594 81.96875 L 211.109375 81.96875 L 211.109375 65.574219 L 201.933594 65.574219 L 201.933594 49.179688 L 192.753906 49.179688 L 192.753906 32.785156 L 183.574219 32.785156 L 183.574219 16.394531 L 174.394531 16.394531 Z M 165.21875 32.785156 L 156.039062 32.785156 L 156.039062 49.179688 L 146.859375 49.179688 L 146.859375 65.574219 L 137.679688 65.574219 L 137.679688 81.96875 L 146.859375 81.96875 L 146.859375 98.359375 L 156.039062 98.359375 L 156.039062 114.753906 L 165.21875 114.753906 L 165.21875 98.359375 L 174.394531 98.359375 L 174.394531 81.96875 L 183.574219 81.96875 L 183.574219 65.574219 L 174.394531 65.574219 L 174.394531 49.179688 L 165.21875 49.179688 Z M 165.21875 65.574219 L 156.039062 65.574219 L 156.039062 81.96875 L 165.21875 81.96875 Z M 211.109375 16.394531 L 201.933594 16.394531 L 201.933594 32.785156 L 211.109375 32.785156 Z M 211.109375 114.753906 L 201.933594 114.753906 L 201.933594 131.148438 L 211.109375 131.148438 Z M 110.144531 0 L 104.636719 0 L 104.636719 32.785156 L 110.144531 32.785156 Z M 110.144531 114.753906 L 104.636719 114.753906 L 104.636719 147.539062 L 110.144531 147.539062 Z M 192.753906 147.539062 L 183.574219 147.539062 L 183.574219 163.933594 L 174.394531 163.933594 L 174.394531 180.328125 L 165.21875 180.328125 L 165.21875 196.722656 L 174.394531 196.722656 L 174.394531 213.113281 L 183.574219 213.113281 L 183.574219 229.507812 L 192.753906 229.507812 L 192.753906 213.113281 L 201.933594 213.113281 L 201.933594 196.722656 L 211.109375 196.722656 L 211.109375 180.328125 L 201.933594 180.328125 L 201.933594 163.933594 L 192.753906 163.933594 Z M 192.753906 180.328125 L 183.574219 180.328125 L 183.574219 196.722656 L 192.753906 196.722656 Z M 137.679688 147.539062 L 128.503906 147.539062 L 128.503906 163.933594 L 119.324219 163.933594 L 119.324219 180.328125 L 110.144531 180.328125 L 110.144531 196.722656 L 119.324219 196.722656 L 119.324219 213.113281 L 128.503906 213.113281 L 128.503906 229.507812 L 137.679688 229.507812 L 137.679688 213.113281 L 146.859375 213.113281 L 146.859375 196.722656 L 156.039062 196.722656 L 156.039062 180.328125 L 146.859375 180.328125 L 146.859375 163.933594 L 137.679688 163.933594 Z M 137.679688 180.328125 L 128.503906 180.328125 L 128.503906 196.722656 L 137.679688 196.722656 Z M 211.109375 245.902344 L 201.933594 245.902344 L 201.933594 262.296875 L 211.109375 262.296875 Z M 110.144531 229.507812 L 104.636719 229.507812 L 104.636719 262.296875 L 110.144531 262.296875 Z M 110.144531 229.507812 "/>
<path style=" stroke:none;fill-rule:evenodd;fill:rgb(78.431373%,19.215686%,24.313725%);fill-opacity:1;" d="M 211.109375 295.082031 L 201.933594 295.082031 L 201.933594 278.6875 L 192.753906 278.6875 L 192.753906 262.296875 L 183.574219 262.296875 L 183.574219 245.902344 L 174.394531 245.902344 L 174.394531 229.507812 L 165.21875 229.507812 L 165.21875 213.113281 L 156.039062 213.113281 L 156.039062 229.507812 L 146.859375 229.507812 L 146.859375 245.902344 L 137.679688 245.902344 L 137.679688 262.296875 L 128.503906 262.296875 L 128.503906 278.6875 L 119.324219 278.6875 L 119.324219 295.082031 L 110.144531 295.082031 L 110.144531 311.476562 L 104.636719 311.476562 L 104.636719 377.050781 L 110.144531 377.050781 L 110.144531 393.441406 L 119.324219 393.441406 L 119.324219 409.835938 L 128.503906 409.835938 L 128.503906 426.230469 L 137.679688 426.230469 L 137.679688 442.621094 L 146.859375 442.621094 L 146.859375 459.015625 L 156.039062 459.015625 L 156.039062 501.640625 L 174.394531 501.640625 L 174.394531 491.804688 L 183.574219 491.804688 L 183.574219 475.410156 L 192.753906 475.410156 L 192.753906 459.015625 L 201.933594 459.015625 L 201.933594 442.621094 L 211.109375 442.621094 L 211.109375 393.441406 L 201.933594 393.441406 L 201.933594 409.835938 L 192.753906 409.835938 L 192.753906 426.230469 L 183.574219 426.230469 L 183.574219 442.621094 L 174.394531 442.621094 L 174.394531 426.230469 L 165.21875 426.230469 L 165.21875 409.835938 L 156.039062 409.835938 L 156.039062 393.441406 L 146.859375 393.441406 L 146.859375 377.050781 L 137.679688 377.050781 L 137.679688 360.65625 L 128.503906 360.65625 L 128.503906 344.261719 L 137.679688 344.261719 L 137.679688 327.867188 L 146.859375 327.867188 L 146.859375 311.476562 L 174.394531 311.476562 L 174.394531 327.867188 L 156.039062 327.867188 L 156.039062 344.261719 L 165.21875 344.261719 L 165.21875 360.65625 L 174.394531 360.65625 L 174.394531 377.050781 L 183.574219 377.050781 L 183.574219 360.65625 L 192.753906 360.65625 L 192.753906 344.261719 L 201.933594 344.261719 L 201.933594 327.867188 L 211.109375 327.867188 Z M 211.109375 360.65625 L 201.933594 360.65625 L 201.933594 377.050781 L 211.109375 377.050781 Z M 110.144531 409.835938 L 104.636719 409.835938 L 104.636719 426.230469 L 110.144531 426.230469 Z M 128.503906 442.621094 L 119.324219 442.621094 L 119.324219 459.015625 L 110.144531 459.015625 L 110.144531 475.410156 L 104.636719 475.410156 L 104.636719 501.640625 L 110.144531 501.640625 L 110.144531 491.804688 L 119.324219 491.804688 L 119.324219 475.410156 L 128.503906 475.410156 Z M 146.859375 491.804688 L 137.679688 491.804688 L 137.679688 501.640625 L 146.859375 501.640625 Z M 146.859375 491.804688 "/>
<path style=" stroke:none;fill-rule:evenodd;fill:rgb(78.431373%,19.215686%,24.313725%);fill-opacity:1;" d="M 36.714844 1000 L 64.25 1000 L 64.25 983.605469 L 73.429688 983.605469 L 73.429688 967.214844 L 82.609375 967.214844 L 82.609375 950.820312 L 91.789062 950.820312 L 91.789062 934.425781 L 100.964844 934.425781 L 100.964844 918.03125 L 91.789062 918.03125 L 91.789062 901.640625 L 82.609375 901.640625 L 82.609375 885.246094 L 73.429688 885.246094 L 73.429688 868.851562 L 64.25 868.851562 L 64.25 852.460938 L 55.074219 852.460938 L 55.074219 836.066406 L 45.894531 836.066406 L 45.894531 852.460938 L 36.714844 852.460938 L 36.714844 868.851562 L 27.535156 868.851562 L 27.535156 885.246094 L 18.359375 885.246094 L 18.359375 901.640625 L 9.179688 901.640625 L 9.179688 918.03125 L 0 918.03125 L 0 934.425781 L 9.179688 934.425781 L 9.179688 950.820312 L 18.359375 950.820312 L 18.359375 967.214844 L 27.535156 967.214844 L 27.535156 983.605469 L 36.714844 983.605469 Z M 45.894531 967.214844 L 55.074219 967.214844 L 55.074219 950.820312 L 64.25 950.820312 L 64.25 934.425781 L 73.429688 934.425781 L 73.429688 918.03125 L 64.25 918.03125 L 64.25 901.640625 L 55.074219 901.640625 L 55.074219 885.246094 L 45.894531 885.246094 L 45.894531 901.640625 L 36.714844 901.640625 L 36.714844 918.03125 L 27.535156 918.03125 L 27.535156 934.425781 L 36.714844 934.425781 L 36.714844 950.820312 L 45.894531 950.820312 Z M 45.894531 934.425781 L 55.074219 934.425781 L 55.074219 918.03125 L 45.894531 918.03125 Z M 0 983.605469 L 9.179688 983.605469 L 9.179688 967.214844 L 0 967.214844 Z M 0 885.246094 L 9.179688 885.246094 L 9.179688 868.851562 L 0 868.851562 Z M 100.964844 1000 L 106.472656 1000 L 106.472656 967.214844 L 100.964844 967.214844 Z M 100.964844 885.246094 L 106.472656 885.246094 L 106.472656 852.460938 L 100.964844 852.460938 Z M 18.359375 852.460938 L 27.535156 852.460938 L 27.535156 836.066406 L 36.714844 836.066406 L 36.714844 819.671875 L 45.894531 819.671875 L 45.894531 803.277344 L 36.714844 803.277344 L 36.714844 786.886719 L 27.535156 786.886719 L 27.535156 770.492188 L 18.359375 770.492188 L 18.359375 786.886719 L 9.179688 786.886719 L 9.179688 803.277344 L 0 803.277344 L 0 819.671875 L 9.179688 819.671875 L 9.179688 836.066406 L 18.359375 836.066406 Z M 18.359375 819.671875 L 27.535156 819.671875 L 27.535156 803.277344 L 18.359375 803.277344 Z M 73.429688 852.460938 L 82.609375 852.460938 L 82.609375 836.066406 L 91.789062 836.066406 L 91.789062 819.671875 L 100.964844 819.671875 L 100.964844 803.277344 L 91.789062 803.277344 L 91.789062 786.886719 L 82.609375 786.886719 L 82.609375 770.492188 L 73.429688 770.492188 L 73.429688 786.886719 L 64.25 786.886719 L 64.25 803.277344 L 55.074219 803.277344 L 55.074219 819.671875 L 64.25 819.671875 L 64.25 836.066406 L 73.429688 836.066406 Z M 73.429688 819.671875 L 82.609375 819.671875 L 82.609375 803.277344 L 73.429688 803.277344 Z M 0 754.097656 L 9.179688 754.097656 L 9.179688 737.703125 L 0 737.703125 Z M 100.964844 770.492188 L 106.472656 770.492188 L 106.472656 737.703125 L 100.964844 737.703125 Z M 100.964844 770.492188 "/>
<path style=" stroke:none;fill-rule:evenodd;fill:rgb(78.431373%,19.215686%,24.313725%);fill-opacity:1;" d="M 0 704.917969 L 9.179688 704.917969 L 9.179688 721.3125 L 18.359375 721.3125 L 18.359375 737.703125 L 27.535156 737.703125 L 27.535156 754.097656 L 36.714844 754.097656 L 36.714844 770.492188 L 45.894531 770.492188 L 45.894531 786.886719 L 55.074219 786.886719 L 55.074219 770.492188 L 64.25 770.492188 L 64.25 754.097656 L 73.429688 754.097656 L 73.429688 737.703125 L 82.609375 737.703125 L 82.609375 721.3125 L 91.789062 721.3125 L 91.789062 704.917969 L 100.964844 704.917969 L 100.964844 688.523438 L 106.472656 688.523438 L 106.472656 622.949219 L 100.964844 622.949219 L 100.964844 606.558594 L 91.789062 606.558594 L 91.789062 590.164062 L 82.609375 590.164062 L 82.609375 573.769531 L 73.429688 573.769531 L 73.429688 557.378906 L 64.25 557.378906 L 64.25 540.984375 L 55.074219 540.984375 L 55.074219 498.359375 L 36.714844 498.359375 L 36.714844 508.195312 L 27.535156 508.195312 L 27.535156 524.589844 L 18.359375 524.589844 L 18.359375 540.984375 L 9.179688 540.984375 L 9.179688 557.378906 L 0 557.378906 L 0 606.558594 L 9.179688 606.558594 L 9.179688 590.164062 L 18.359375 590.164062 L 18.359375 573.769531 L 27.535156 573.769531 L 27.535156 557.378906 L 36.714844 557.378906 L 36.714844 573.769531 L 45.894531 573.769531 L 45.894531 590.164062 L 55.074219 590.164062 L 55.074219 606.558594 L 64.25 606.558594 L 64.25 622.949219 L 73.429688 622.949219 L 73.429688 639.34375 L 82.609375 639.34375 L 82.609375 655.738281 L 73.429688 655.738281 L 73.429688 672.132812 L 64.25 672.132812 L 64.25 688.523438 L 36.714844 688.523438 L 36.714844 672.132812 L 55.074219 672.132812 L 55.074219 655.738281 L 45.894531 655.738281 L 45.894531 639.34375 L 36.714844 639.34375 L 36.714844 622.949219 L 27.535156 622.949219 L 27.535156 639.34375 L 18.359375 639.34375 L 18.359375 655.738281 L 9.179688 655.738281 L 9.179688 672.132812 L 0 672.132812 Z M 0 639.34375 L 9.179688 639.34375 L 9.179688 622.949219 L 0 622.949219 Z M 100.964844 590.164062 L 106.472656 590.164062 L 106.472656 573.769531 L 100.964844 573.769531 Z M 82.609375 557.378906 L 91.789062 557.378906 L 91.789062 540.984375 L 100.964844 540.984375 L 100.964844 524.589844 L 106.472656 524.589844 L 106.472656 498.359375 L 100.964844 498.359375 L 100.964844 508.195312 L 91.789062 508.195312 L 91.789062 524.589844 L 82.609375 524.589844 Z M 64.25 508.195312 L 73.429688 508.195312 L 73.429688 498.359375 L 64.25 498.359375 Z M 64.25 508.195312 "/>
<path style=" stroke:none;fill-rule:evenodd;fill:rgb(78.431373%,19.215686%,24.313725%);fill-opacity:1;" d="M 174.394531 1000 L 146.859375 1000 L 146.859375 983.605469 L 137.679688 983.605469 L 137.679688 967.214844 L 128.503906 967.214844 L 128.503906 950.820312 L 119.324219 950.820312 L 119.324219 934.425781 L 110.144531 934.425781 L 110.144531 918.03125 L 119.324219 918.03125 L 119.324219 901.640625 L 128.503906 901.640625 L 128.503906 885.246094 L 137.679688 885.246094 L 137.679688 868.851562 L 146.859375 868.851562 L 146.859375 852.460938 L 156.039062 852.460938 L 156.039062 836.066406 L 165.21875 836.066406 L 165.21875 852.460938 L 174.394531 852.460938 L 174.394531 868.851562 L 183.574219 868.851562 L 183.574219 885.246094 L 192.753906 885.246094 L 192.753906 901.640625 L 201.933594 901.640625 L 201.933594 918.03125 L 211.109375 918.03125 L 211.109375 934.425781 L 201.933594 934.425781 L 201.933594 950.820312 L 192.753906 950.820312 L 192.753906 967.214844 L 183.574219 967.214844 L 183.574219 983.605469 L 174.394531 983.605469 Z M 165.21875 967.214844 L 156.039062 967.214844 L 156.039062 950.820312 L 146.859375 950.820312 L 146.859375 934.425781 L 137.679688 934.425781 L 137.679688 918.03125 L 146.859375 918.03125 L 146.859375 901.640625 L 156.039062 901.640625 L 156.039062 885.246094 L 165.21875 885.246094 L 165.21875 901.640625 L 174.394531 901.640625 L 174.394531 918.03125 L 183.574219 918.03125 L 183.574219 934.425781 L 174.394531 934.425781 L 174.394531 950.820312 L 165.21875 950.820312 Z M 165.21875 934.425781 L 156.039062 934.425781 L 156.039062 918.03125 L 165.21875 918.03125 Z M 211.109375 983.605469 L 201.933594 983.605469 L 201.933594 967.214844 L 211.109375 967.214844 Z M 211.109375 885.246094 L 201.933594 885.246094 L 201.933594 868.851562 L 211.109375 868.851562 Z M 110.144531 1000 L 104.636719 1000 L 104.636719 967.214844 L 110.144531 967.214844 Z M 110.144531 885.246094 L 104.636719 885.246094 L 104.636719 852.460938 L 110.144531 852.460938 Z M 192.753906 852.460938 L 183.574219 852.460938 L 183.574219 836.066406 L 174.394531 836.066406 L 174.394531 819.671875 L 165.21875 819.671875 L 165.21875 803.277344 L 174.394531 803.277344 L 174.394531 786.886719 L 183.574219 786.886719 L 183.574219 770.492188 L 192.753906 770.492188 L 192.753906 786.886719 L 201.933594 786.886719 L 201.933594 803.277344 L 211.109375 803.277344 L 211.109375 819.671875 L 201.933594 819.671875 L 201.933594 836.066406 L 192.753906 836.066406 Z M 192.753906 819.671875 L 183.574219 819.671875 L 183.574219 803.277344 L 192.753906 803.277344 Z M 137.679688 852.460938 L 128.503906 852.460938 L 128.503906 836.066406 L 119.324219 836.066406 L 119.324219 819.671875 L 110.144531 819.671875 L 110.144531 803.277344 L 119.324219 803.277344 L 119.324219 786.886719 L 128.503906 786.886719 L 128.503906 770.492188 L 137.679688 770.492188 L 137.679688 786.886719 L 146.859375 786.886719 L 146.859375 803.277344 L 156.039062 803.277344 L 156.039062 819.671875 L 146.859375 819.671875 L 146.859375 836.066406 L 137.679688 836.066406 Z M 137.679688 819.671875 L 128.503906 819.671875 L 128.503906 803.277344 L 137.679688 803.277344 Z M 211.109375 754.097656 L 201.933594 754.097656 L 201.933594 737.703125 L 211.109375 737.703125 Z M 110.144531 770.492188 L 104.636719 770.492188 L 104.636719 737.703125 L 110.144531 737.703125 Z M 110.144531 770.492188 "/>
<path style=" stroke:none;fill-rule:evenodd;fill:rgb(78.431373%,19.215686%,24.313725%);fill-opacity:1;" d="M 211.109375 704.917969 L 201.933594 704.917969 L 201.933594 721.3125 L 192.753906 721.3125 L 192.753906 737.703125 L 183.574219 737.703125 L 183.574219 754.097656 L 174.394531 754.097656 L 174.394531 770.492188 L 165.21875 770.492188 L 165.21875 786.886719 L 156.039062 786.886719 L 156.039062 770.492188 L 146.859375 770.492188 L 146.859375 754.097656 L 137.679688 754.097656 L 137.679688 737.703125 L 128.503906 737.703125 L 128.503906 721.3125 L 119.324219 721.3125 L 119.324219 704.917969 L 110.144531 704.917969 L 110.144531 688.523438 L 104.636719 688.523438 L 104.636719 622.949219 L 110.144531 622.949219 L 110.144531 606.558594 L 119.324219 606.558594 L 119.324219 590.164062 L 128.503906 590.164062 L 128.503906 573.769531 L 137.679688 573.769531 L 137.679688 557.378906 L 146.859375 557.378906 L 146.859375 540.984375 L 156.039062 540.984375 L 156.039062 498.359375 L 174.394531 498.359375 L 174.394531 508.195312 L 183.574219 508.195312 L 183.574219 524.589844 L 192.753906 524.589844 L 192.753906 540.984375 L 201.933594 540.984375 L 201.933594 557.378906 L 211.109375 557.378906 L 211.109375 606.558594 L 201.933594 606.558594 L 201.933594 590.164062 L 192.753906 590.164062 L 192.753906 573.769531 L 183.574219 573.769531 L 183.574219 557.378906 L 174.394531 557.378906 L 174.394531 573.769531 L 165.21875 573.769531 L 165.21875 590.164062 L 156.039062 590.164062 L 156.039062 606.558594 L 146.859375 606.558594 L 146.859375 622.949219 L 137.679688 622.949219 L 137.679688 639.34375 L 128.503906 639.34375 L 128.503906 655.738281 L 137.679688 655.738281 L 137.679688 672.132812 L 146.859375 672.132812 L 146.859375 688.523438 L 174.394531 688.523438 L 174.394531 672.132812 L 156.039062 672.132812 L 156.039062 655.738281 L 165.21875 655.738281 L 165.21875 639.34375 L 174.394531 639.34375 L 174.394531 622.949219 L 183.574219 622.949219 L 183.574219 639.34375 L 192.753906 639.34375 L 192.753906 655.738281 L 201.933594 655.738281 L 201.933594 672.132812 L 211.109375 672.132812 Z M 211.109375 639.34375 L 201.933594 639.34375 L 201.933594 622.949219 L 211.109375 622.949219 Z M 110.144531 590.164062 L 104.636719 590.164062 L 104.636719 573.769531 L 110.144531 573.769531 Z M 128.503906 557.378906 L 119.324219 557.378906 L 119.324219 540.984375 L 110.144531 540.984375 L 110.144531 524.589844 L 104.636719 524.589844 L 104.636719 498.359375 L 110.144531 498.359375 L 110.144531 508.195312 L 119.324219 508.195312 L 119.324219 524.589844 L 128.503906 524.589844 Z M 146.859375 508.195312 L 137.679688 508.195312 L 137.679688 498.359375 L 146.859375 498.359375 Z M 146.859375 508.195312 "/>
</g>
</svg>
