<?xml version="1.0" encoding="UTF-8"?>
<svg xmlns="http://www.w3.org/2000/svg" xmlns:xlink="http://www.w3.org/1999/xlink" width="380pt" height="200pt" viewBox="0 0 1900 1000" version="1.1">
<g id="surface1">
<path style=" stroke:none;fill-rule:evenodd;fill:rgb(24.313725%,36.862745%,72.54902%);fill-opacity:1;" d="M 0.0195312 0 L 1899.980469 0 L 1899.980469 1000 L 0.0195312 1000 Z M 0.0195312 0 "/>
<path style=" stroke:none;fill-rule:evenodd;fill:rgb(100%,85.098039%,0%);fill-opacity:1;" d="M 0.0195312 178.570312 L 1899.980469 178.570312 L 1899.980469 821.417969 L 0.0195312 821.417969 Z M 0.0195312 178.570312 "/>
<path style=" stroke:none;fill-rule:evenodd;fill:rgb(69.411765%,4.705882%,4.705882%);fill-opacity:1;" d="M 0.0195312 249.996094 L 1899.980469 249.996094 L 1899.980469 749.984375 L 0.0195312 749.984375 Z M 0.0195312 249.996094 "/>
<path style="fill-rule:evenodd;fill:rgb(100%,85.098039%,0%);fill-opacity:1;stroke-width:1.3496;stroke-linecap:butt;stroke-linejoin:miter;stroke:rgb(0%,0%,0%);stroke-opacity:1;stroke-miterlimit:4;" d="M 80.047041 244.649424 L 676.628154 244.649424 C 679.544023 244.649424 681.906323 247.04791 681.906323 250.006953 C 681.906323 252.965997 679.544023 255.364482 676.628154 255.364482 L 80.047041 255.364482 C 77.131173 255.364482 74.76733 252.965997 74.76733 250.006953 C 74.76733 247.04791 77.131173 244.649424 80.047041 244.649424 Z M 80.047041 244.649424 " transform="matrix(2.533283,0,0,1.99996,0.0189996,0)"/>
<path style="fill-rule:evenodd;fill:rgb(100%,100%,100%);fill-opacity:1;stroke-width:3.91388;stroke-linecap:butt;stroke-linejoin:miter;stroke:rgb(0%,0%,0%);stroke-opacity:1;stroke-miterlimit:4;" d="M -106.301867 265.747951 L -194.883271 301.18296 L -106.301867 336.61797 L -17.715964 301.18296 Z M -106.301867 265.747951 " transform="matrix(0.868154,0,0,0.60476,1652.985663,224.997123)"/>
<path style="fill-rule:evenodd;fill:rgb(100%,85.098039%,0%);fill-opacity:1;stroke-width:1.25;stroke-linecap:butt;stroke-linejoin:miter;stroke:rgb(0%,0%,0%);stroke-opacity:1;stroke-miterlimit:4;" d="M 765.661592 223.230058 L 1200.869197 223.230058 C 1202.995661 223.230058 1204.71978 224.817087 1204.71978 226.774228 C 1204.71978 228.729432 1202.995661 230.316461 1200.869197 230.316461 L 765.661592 230.316461 C 763.533598 230.316461 761.809479 228.729432 761.809479 226.774228 C 761.809479 224.817087 763.533598 223.230058 765.661592 223.230058 Z M 765.661592 223.230058 " transform="matrix(2.553388,0,0,2.015854,-1556.140545,-49.999268)"/>
<path style="fill:none;stroke-width:2.49997;stroke-linecap:butt;stroke-linejoin:miter;stroke:rgb(0%,0%,0%);stroke-opacity:1;stroke-miterlimit:4;" d="M 1224.399069 279.919827 C 1220.85912 279.919827 1217.309992 276.377601 1217.309992 272.8315 C 1217.309992 269.289274 1220.85912 265.747049 1224.399069 265.747049 " transform="matrix(-1.276722,0,0,1.007929,3056.115813,132.141895)"/>
<path style="fill:none;stroke-width:2.49997;stroke-linecap:butt;stroke-linejoin:miter;stroke:rgb(0%,0%,0%);stroke-opacity:1;stroke-miterlimit:4;" d="M 1224.399242 279.920127 C 1220.859293 279.920127 1217.310165 276.377901 1217.310165 272.8318 C 1217.310165 269.289574 1220.859293 265.747349 1224.399242 265.747349 " transform="matrix(-1.276722,0,0,1.007929,3047.069159,132.141593)"/>
<path style="fill:none;stroke-width:2.49997;stroke-linecap:butt;stroke-linejoin:miter;stroke:rgb(0%,0%,0%);stroke-opacity:1;stroke-miterlimit:4;" d="M 1224.400475 279.919287 C 1220.860526 279.919287 1217.311398 276.377061 1217.311398 272.834835 C 1217.311398 269.288734 1220.860526 265.746509 1224.400475 265.746509 " transform="matrix(-1.276722,0,0,1.007929,3038.019951,132.142439)"/>
<path style="fill-rule:evenodd;fill:rgb(100%,100%,100%);fill-opacity:1;stroke-width:3.91388;stroke-linecap:butt;stroke-linejoin:miter;stroke:rgb(0%,0%,0%);stroke-opacity:1;stroke-miterlimit:4;" d="M -106.301349 265.752679 L -194.882753 301.181229 L -106.301349 336.616239 L -17.719945 301.181229 Z M -106.301349 265.752679 " transform="matrix(0.868154,0,0,0.60476,1580.606306,267.853638)"/>
<path style="fill-rule:evenodd;fill:rgb(100%,85.098039%,0%);fill-opacity:1;stroke-width:1.25;stroke-linecap:butt;stroke-linejoin:miter;stroke:rgb(0%,0%,0%);stroke-opacity:1;stroke-miterlimit:4;" d="M 765.661768 223.229538 L 1200.867844 223.229538 C 1202.995837 223.229538 1204.719956 224.816567 1204.719956 226.773709 C 1204.719956 228.730851 1202.995837 230.315942 1200.867844 230.315942 L 765.661768 230.315942 C 763.533774 230.315942 761.809656 228.730851 761.809656 226.773709 C 761.809656 224.816567 763.533774 223.229538 765.661768 223.229538 Z M 765.661768 223.229538 " transform="matrix(2.553388,0,0,2.015854,-1628.519902,-7.142752)"/>
<path style="fill:none;stroke-width:2.49997;stroke-linecap:butt;stroke-linejoin:miter;stroke:rgb(0%,0%,0%);stroke-opacity:1;stroke-miterlimit:4;" d="M 1224.398716 279.918788 C 1220.858767 279.918788 1217.309639 276.376562 1217.309639 272.834337 C 1217.309639 269.288235 1220.858767 265.74601 1224.398716 265.74601 " transform="matrix(-1.276722,0,0,1.007929,2983.736456,174.998411)"/>
<path style="fill:none;stroke-width:2.49997;stroke-linecap:butt;stroke-linejoin:miter;stroke:rgb(0%,0%,0%);stroke-opacity:1;stroke-miterlimit:4;" d="M 1224.398889 279.919088 C 1220.85894 279.919088 1217.309813 276.376862 1217.309813 272.834637 C 1217.309813 269.288535 1220.85894 265.74631 1224.398889 265.74631 " transform="matrix(-1.276722,0,0,1.007929,2974.689802,174.998108)"/>
<path style="fill:none;stroke-width:2.49997;stroke-linecap:butt;stroke-linejoin:miter;stroke:rgb(0%,0%,0%);stroke-opacity:1;stroke-miterlimit:4;" d="M 1224.400122 279.918248 C 1220.860173 279.918248 1217.311045 276.376022 1217.311045 272.833797 C 1217.311045 269.291571 1220.860173 265.74547 1224.400122 265.74547 " transform="matrix(-1.276722,0,0,1.007929,2965.640595,174.998955)"/>
<path style="fill-rule:evenodd;fill:rgb(23.921569%,36.470588%,65.490196%);fill-opacity:1;stroke-width:1.25;stroke-linecap:butt;stroke-linejoin:miter;stroke:rgb(0%,0%,0%);stroke-opacity:1;stroke-miterlimit:4;" d="M 338.069603 -0.415922 C 332.49946 12.024857 342.345657 -4.555069 366.369678 16.275522 C 370.820394 20.144949 374.710603 30.365736 374.710603 37.451042 C 373.581648 36.475904 372.741681 34.30778 371.496814 32.899537 C 369.753366 35.153245 373.160871 45.477769 373.659453 50.356049 C 369.902623 47.645894 370.26465 46.362136 369.016608 43.032146 C 369.265899 47.057181 368.371945 58.149366 369.866102 62.418185 C 366.906368 61.328936 367.101673 58.255698 365.556704 57.638457 C 366.607854 62.472648 364.640521 67.732164 365.161332 73.165442 C 363.432174 70.958416 361.588692 69.228585 360.785245 68.336438 C 360.650278 70.924701 357.458719 77.724727 357.385679 80.172944 C 355.918515 79.029233 355.519967 77.244939 355.275439 76.046765 C 353.451011 79.000705 346.966272 89.916536 346.550258 93.246526 C 341.554912 87.55909 328.758509 73.702286 327.091276 66.349855 C 325.619349 70.522716 323.488467 71.93096 319.274339 74.980857 C 317.610283 63.323299 311.384362 50.223783 314.714062 40.233813 C 312.354532 42.036261 310.412603 43.841302 308.054661 46.061296 C 310.288752 29.180529 321.681505 9.387319 338.069603 -0.415922 Z M 338.069603 -0.415922 " transform="matrix(2.460103,0,0,1.506198,787.622619,492.114743)"/>
<path style=" stroke:none;fill-rule:evenodd;fill:rgb(65.490196%,0%,0%);fill-opacity:1;" d="M 1568.167969 584.300781 C 1573.859375 575.320312 1579.101562 572.472656 1582.777344 566.691406 C 1589.273438 556.53125 1590.199219 548.445312 1595.859375 549.628906 C 1601.519531 550.816406 1601.511719 554.976562 1594.179688 564.96875 C 1586.851562 574.960938 1583.363281 577.09375 1568.167969 584.300781 Z M 1568.167969 584.300781 "/>
<path style=" stroke:none;fill-rule:evenodd;fill:rgb(65.490196%,0%,0%);fill-opacity:1;" d="M 1606.652344 605.691406 C 1605.921875 598.851562 1608.433594 596 1607.976562 591.59375 C 1607.195312 583.847656 1603.179688 578.527344 1608.398438 578.152344 C 1613.617188 577.773438 1616.054688 580.414062 1616.070312 588.222656 C 1616.085938 596.03125 1614.558594 598.082031 1606.652344 605.691406 Z M 1606.652344 605.691406 "/>
<path style=" stroke:none;fill-rule:evenodd;fill:rgb(65.490196%,0%,0%);fill-opacity:1;" d="M 1635.859375 619.097656 C 1633.582031 609.550781 1635.285156 605.320312 1633.828125 599.167969 C 1631.285156 588.347656 1626.261719 581.226562 1631.097656 580.238281 C 1635.933594 579.246094 1638.851562 582.746094 1640.683594 593.71875 C 1642.515625 604.691406 1641.550781 607.707031 1635.859375 619.097656 Z M 1635.859375 619.097656 "/>
<path style=" stroke:none;fill-rule:evenodd;fill:rgb(65.490196%,0%,0%);fill-opacity:1;" d="M 1666.226562 552.210938 C 1659.097656 547.941406 1654.933594 547.652344 1650.335938 544.90625 C 1642.234375 540.089844 1638.136719 534.933594 1635.53125 537.492188 C 1632.925781 540.054688 1634.773438 542.851562 1643.261719 547.296875 C 1651.75 551.742188 1654.625 552.09375 1666.226562 552.210938 Z M 1666.226562 552.210938 "/>
<path style=" stroke:none;fill-rule:evenodd;fill:rgb(65.490196%,0%,0%);fill-opacity:1;" d="M 1661.195312 583.90625 C 1657.4375 577.746094 1653.480469 576.183594 1651.050781 572.21875 C 1646.75 565.25 1646.746094 559.222656 1642.082031 560.765625 C 1637.421875 562.3125 1637.046875 565.46875 1642.03125 572.210938 C 1647.019531 578.953125 1649.628906 580.175781 1661.195312 583.90625 Z M 1661.195312 583.90625 "/>
<path style="fill-rule:evenodd;fill:rgb(23.921569%,36.470588%,65.490196%);fill-opacity:1;stroke-width:1.25;stroke-linecap:butt;stroke-linejoin:miter;stroke:rgb(0%,0%,0%);stroke-opacity:1;stroke-miterlimit:4;" d="M 329.600466 20.70345 C 329.328326 18.04125 329.853166 17.723006 328.342515 15.714446 C 330.541846 16.711103 330.626542 19.361869 333.300728 17.480988 C 334.283762 16.930254 334.711409 16.913103 333.517328 13.955526 C 336.308145 14.094639 345.445641 17.490516 346.907695 17.568648 C 350.749581 17.759213 357.762723 13.19517 362.630685 18.809229 C 367.302874 23.925913 365.743626 29.236973 365.743626 36.324103 C 363.86642 35.350314 364.770312 34.870089 362.777863 32.335568 C 364.271852 38.530852 362.697332 49.699895 362.697332 56.268687 C 361.930899 54.685088 362.043364 55.373029 361.293593 53.732261 C 359.302532 59.729356 356.914371 60.962315 356.914371 68.049446 C 356.195145 65.271001 356.889378 65.857943 356.089622 64.396305 C 354.152711 68.948915 341.163611 72.840262 346.169031 77.429079 C 341.650963 74.559163 339.669622 74.860256 337.621634 72.279999 C 336.73857 72.897432 336.037394 74.065598 335.216811 75.666348 C 327.273396 71.706397 330.114198 63.165252 323.891093 57.459721 C 322.813643 59.853224 323.30516 59.504489 322.141626 63.399648 C 320.880898 57.991399 320.536559 54.555503 319.120323 50.580307 C 317.897085 52.783244 318.006774 51.939039 315.786616 55.268218 C 314.86884 48.682275 313.373462 47.127261 313.964949 42.767122 C 311.605945 44.571778 313.149919 43.841912 310.792304 46.062 C 313.026346 29.181709 322.676185 16.709198 329.600466 20.70345 Z M 329.600466 20.70345 " transform="matrix(2.813356,0,0,2.04982,-671.451555,467.112429)"/>
<path style=" stroke:none;fill-rule:evenodd;fill:rgb(65.490196%,0%,0%);fill-opacity:1;" d="M 228.339844 566.019531 C 234.09375 554.878906 239.285156 551.382812 243.003906 544.210938 C 249.574219 531.605469 250.644531 521.527344 256.164062 523.066406 C 261.6875 524.601562 261.59375 529.792969 254.210938 542.179688 C 246.828125 554.566406 243.371094 557.191406 228.339844 566.019531 Z M 228.339844 566.019531 "/>
<path style=" stroke:none;fill-rule:evenodd;fill:rgb(65.490196%,0%,0%);fill-opacity:1;" d="M 250.136719 593.890625 C 252.445312 583.902344 256.085938 580.265625 257.585938 573.835938 C 260.242188 562.523438 258.761719 554.101562 263.890625 554.546875 C 269.019531 554.988281 270.179688 559.257812 266.765625 570.507812 C 263.355469 581.761719 260.996094 584.425781 250.136719 593.890625 Z M 250.136719 593.890625 "/>
<path style=" stroke:none;fill-rule:evenodd;fill:rgb(65.490196%,0%,0%);fill-opacity:1;" d="M 276.210938 613.269531 C 276.863281 603.585938 279.734375 599.804688 280.164062 593.570312 C 280.945312 582.597656 278.269531 574.746094 283.160156 574.703125 C 288.054688 574.65625 289.796875 578.601562 288.296875 589.582031 C 286.796875 600.566406 284.988281 603.304688 276.210938 613.269531 Z M 276.210938 613.269531 "/>
<path style=" stroke:none;fill-rule:evenodd;fill:rgb(65.490196%,0%,0%);fill-opacity:1;" d="M 332.203125 549.949219 C 321.496094 541.53125 315.023438 539.957031 308.117188 534.542969 C 295.953125 525.03125 290.074219 516.101562 285.742188 519.265625 C 281.410156 522.429688 284.015625 527.175781 296.824219 536.226562 C 309.632812 545.277344 314.089844 546.597656 332.203125 549.949219 Z M 332.203125 549.949219 "/>
<path style=" stroke:none;fill-rule:evenodd;fill:rgb(65.490196%,0%,0%);fill-opacity:1;" d="M 325.691406 582.5 C 318.71875 574.042969 313.601562 571.851562 309.101562 566.414062 C 301.160156 556.851562 298.433594 548.636719 293.929688 550.671875 C 289.425781 552.707031 290.433594 557 299.039062 566.265625 C 307.644531 575.53125 311.105469 577.234375 325.691406 582.5 Z M 325.691406 582.5 "/>
<path style="fill-rule:evenodd;fill:rgb(100%,100%,100%);fill-opacity:1;stroke-width:1.97642;stroke-linecap:butt;stroke-linejoin:miter;stroke:rgb(0%,0%,0%);stroke-opacity:1;stroke-miterlimit:4;" d="M 637.800993 230.318463 C 584.650131 289.368594 513.779256 407.478543 372.048979 407.478543 C 248.029537 407.478543 159.450122 289.368594 106.29926 230.318463 C 159.450122 171.258644 248.029537 53.148694 372.048979 53.148694 C 513.779256 53.148694 584.650131 171.258644 637.800993 230.318463 Z M 637.800993 230.318463 " transform="matrix(1.70226,0,0,1.209513,316.679974,221.426924)"/>
<path style=" stroke:none;fill-rule:evenodd;fill:rgb(0%,0%,0%);fill-opacity:1;" d="M 918.429688 360.253906 C 942.5 381.628906 922.398438 390.246094 947.878906 391.648438 C 974.746094 393.207031 959.515625 414.230469 982.117188 414.960938 C 997.917969 415.507812 980.539062 465.339844 995.75 481.785156 C 1011.246094 498.925781 1024.21875 486.808594 1024.492188 499.191406 C 1024.761719 512 982.324219 510.710938 981.578125 550.167969 C 980.335938 572.90625 945.765625 574.363281 944.117188 588.996094 C 942.0625 602.757812 1012.21875 610.484375 1011.285156 622.804688 C 1010.324219 635.085938 935.53125 633.164062 932.277344 647.171875 C 930.605469 659.75 1035.023438 670.0625 1043.417969 706.453125 C 1027.835938 710.476562 983.507812 714.261719 950.003906 714.28125 C 738.921875 714.402344 588.121094 571.414062 497.644531 499.992188 C 588.121094 428.558594 738.90625 285.703125 950.019531 285.703125 C 950.019531 285.703125 887.355469 330.90625 918.445312 360.242188 Z M 918.429688 360.253906 "/>
<path style=" stroke:none;fill-rule:evenodd;fill:rgb(100%,100%,100%);fill-opacity:1;" d="M 666.515625 423.804688 L 688.449219 423.804688 L 688.449219 480.949219 L 666.515625 480.949219 Z M 666.515625 423.804688 "/>
<path style=" stroke:none;fill-rule:evenodd;fill:rgb(100%,100%,100%);fill-opacity:1;" d="M 666.515625 519.042969 L 688.449219 519.042969 L 688.449219 576.1875 L 666.515625 576.1875 Z M 666.515625 519.042969 "/>
<path style=" stroke:none;fill-rule:evenodd;fill:rgb(100%,100%,100%);fill-opacity:1;" d="M 710.378906 423.804688 L 732.3125 423.804688 L 732.3125 480.949219 L 710.378906 480.949219 Z M 710.378906 423.804688 "/>
<path style=" stroke:none;fill-rule:evenodd;fill:rgb(100%,100%,100%);fill-opacity:1;" d="M 710.378906 519.042969 L 732.3125 519.042969 L 732.3125 576.1875 L 710.378906 576.1875 Z M 710.378906 519.042969 "/>
<path style=" stroke:none;fill-rule:evenodd;fill:rgb(100%,100%,100%);fill-opacity:1;" d="M 754.242188 423.804688 L 776.175781 423.804688 L 776.175781 480.949219 L 754.242188 480.949219 Z M 754.242188 423.804688 "/>
<path style=" stroke:none;fill-rule:evenodd;fill:rgb(100%,100%,100%);fill-opacity:1;" d="M 754.242188 519.042969 L 776.175781 519.042969 L 776.175781 576.1875 L 754.242188 576.1875 Z M 754.242188 519.042969 "/>
<path style=" stroke:none;fill-rule:evenodd;fill:rgb(100%,100%,100%);fill-opacity:1;" d="M 798.117188 423.804688 L 820.050781 423.804688 L 820.050781 480.949219 L 798.117188 480.949219 Z M 798.117188 423.804688 "/>
<path style=" stroke:none;fill-rule:evenodd;fill:rgb(100%,100%,100%);fill-opacity:1;" d="M 798.117188 519.042969 L 820.050781 519.042969 L 820.050781 576.1875 L 798.117188 576.1875 Z M 798.117188 519.042969 "/>
<path style=" stroke:none;fill-rule:evenodd;fill:rgb(100%,100%,100%);fill-opacity:1;" d="M 841.976562 423.804688 L 863.914062 423.804688 L 863.914062 480.949219 L 841.976562 480.949219 Z M 841.976562 423.804688 "/>
<path style=" stroke:none;fill-rule:evenodd;fill:rgb(100%,100%,100%);fill-opacity:1;" d="M 841.976562 519.042969 L 863.914062 519.042969 L 863.914062 576.1875 L 841.976562 576.1875 Z M 841.976562 519.042969 "/>
<path style=" stroke:none;fill-rule:evenodd;fill:rgb(100%,100%,100%);fill-opacity:1;" d="M 885.839844 423.804688 L 907.773438 423.804688 L 907.773438 480.949219 L 885.839844 480.949219 Z M 885.839844 423.804688 "/>
<path style=" stroke:none;fill-rule:evenodd;fill:rgb(100%,100%,100%);fill-opacity:1;" d="M 885.839844 519.042969 L 907.773438 519.042969 L 907.773438 576.1875 L 885.839844 576.1875 Z M 885.839844 519.042969 "/>
<path style=" stroke:none;fill-rule:evenodd;fill:rgb(0%,0%,0%);fill-opacity:1;" d="M 998.253906 423.804688 L 1020.1875 423.804688 L 1020.1875 480.949219 L 998.253906 480.949219 Z M 998.253906 423.804688 "/>
<path style=" stroke:none;fill-rule:evenodd;fill:rgb(0%,0%,0%);fill-opacity:1;" d="M 998.253906 519.042969 L 1020.1875 519.042969 L 1020.1875 576.1875 L 998.253906 576.1875 Z M 998.253906 519.042969 "/>
<path style=" stroke:none;fill-rule:evenodd;fill:rgb(0%,0%,0%);fill-opacity:1;" d="M 1042.117188 423.804688 L 1064.050781 423.804688 L 1064.050781 480.949219 L 1042.117188 480.949219 Z M 1042.117188 423.804688 "/>
<path style=" stroke:none;fill-rule:evenodd;fill:rgb(0%,0%,0%);fill-opacity:1;" d="M 1042.117188 519.042969 L 1064.050781 519.042969 L 1064.050781 576.1875 L 1042.117188 576.1875 Z M 1042.117188 519.042969 "/>
<path style=" stroke:none;fill-rule:evenodd;fill:rgb(0%,0%,0%);fill-opacity:1;" d="M 1085.980469 423.804688 L 1107.914062 423.804688 L 1107.914062 480.949219 L 1085.980469 480.949219 Z M 1085.980469 423.804688 "/>
<path style=" stroke:none;fill-rule:evenodd;fill:rgb(0%,0%,0%);fill-opacity:1;" d="M 1085.980469 519.042969 L 1107.914062 519.042969 L 1107.914062 576.1875 L 1085.980469 576.1875 Z M 1085.980469 519.042969 "/>
<path style=" stroke:none;fill-rule:evenodd;fill:rgb(0%,0%,0%);fill-opacity:1;" d="M 1129.855469 423.804688 L 1151.789062 423.804688 L 1151.789062 480.949219 L 1129.855469 480.949219 Z M 1129.855469 423.804688 "/>
<path style=" stroke:none;fill-rule:evenodd;fill:rgb(0%,0%,0%);fill-opacity:1;" d="M 1129.855469 519.042969 L 1151.789062 519.042969 L 1151.789062 576.1875 L 1129.855469 576.1875 Z M 1129.855469 519.042969 "/>
<path style=" stroke:none;fill-rule:evenodd;fill:rgb(0%,0%,0%);fill-opacity:1;" d="M 1173.71875 423.804688 L 1195.652344 423.804688 L 1195.652344 480.949219 L 1173.71875 480.949219 Z M 1173.71875 423.804688 "/>
<path style=" stroke:none;fill-rule:evenodd;fill:rgb(0%,0%,0%);fill-opacity:1;" d="M 1173.71875 519.042969 L 1195.652344 519.042969 L 1195.652344 576.1875 L 1173.71875 576.1875 Z M 1173.71875 519.042969 "/>
<path style=" stroke:none;fill-rule:evenodd;fill:rgb(0%,0%,0%);fill-opacity:1;" d="M 1217.582031 423.804688 L 1239.515625 423.804688 L 1239.515625 480.949219 L 1217.582031 480.949219 Z M 1217.582031 423.804688 "/>
<path style=" stroke:none;fill-rule:evenodd;fill:rgb(0%,0%,0%);fill-opacity:1;" d="M 1217.582031 519.042969 L 1239.515625 519.042969 L 1239.515625 576.1875 L 1217.582031 576.1875 Z M 1217.582031 519.042969 "/>
<path style="fill-rule:evenodd;fill:rgb(23.921569%,36.470588%,65.490196%);fill-opacity:1;stroke-width:1.25;stroke-linecap:butt;stroke-linejoin:miter;stroke:rgb(0%,0%,0%);stroke-opacity:1;stroke-miterlimit:4;" d="M 338.070544 -0.416088 C 332.4989 12.026007 347.824829 -4.553295 371.847664 16.274961 C 376.299424 20.145496 382.680163 35.434619 382.680163 42.520442 C 377.565154 41.26328 368.508844 35.432079 368.508844 35.432079 C 368.508844 35.432079 379.138202 47.726871 379.138202 61.901056 C 375.38268 59.191173 373.502315 59.597529 372.255684 56.265414 C 372.255684 60.854691 375.594504 63.78045 375.594504 70.866272 C 372.884208 68.367187 370.588878 66.703669 368.295285 65.24079 C 371.837246 72.326612 361.838149 86.074124 366.843775 90.663401 C 358.091309 89.203061 349.135702 82.74455 345.593741 75.658727 C 343.715112 77.119067 343.510234 79.414975 343.437311 81.860726 C 343.713376 82.124858 330.116757 70.203405 331.365125 65.626827 C 329.54032 68.580523 329.283354 70.205945 328.868389 73.53552 C 323.871445 67.846544 319.294675 62.157568 317.627869 54.802535 C 315.407198 58.132109 315.268298 58.132109 313.049363 61.461684 C 311.384294 49.806903 311.384294 50.223417 314.714432 40.232153 C 312.354861 42.035355 310.41199 43.841097 308.054155 46.060813 C 310.288716 29.179285 321.682027 9.387236 338.070544 -0.416088 Z M 338.070544 -0.416088 " transform="matrix(2.249813,0,0,1.538062,43.119483,324.393876)"/>
<path style=" stroke:none;fill-rule:evenodd;fill:rgb(65.490196%,0%,0%);fill-opacity:1;" d="M 772.804688 417.257812 C 774.804688 404.074219 779.175781 399.105469 780.480469 390.613281 C 782.804688 375.675781 780.046875 364.761719 786.75 365.035156 C 793.453125 365.3125 795.382812 370.820312 792.070312 385.726562 C 788.757812 400.628906 785.960938 404.25 772.804688 417.257812 Z M 772.804688 417.257812 "/>
<path style=" stroke:none;fill-rule:evenodd;fill:rgb(65.490196%,0%,0%);fill-opacity:1;" d="M 807.808594 441.40625 C 806.449219 430.277344 809.050781 425.542969 808.1875 418.375 C 806.699219 405.765625 801.765625 397.222656 807.609375 396.4375 C 813.453125 395.652344 816.40625 399.882812 817.035156 412.613281 C 817.667969 425.34375 816.105469 428.738281 807.808594 441.40625 Z M 807.808594 441.40625 "/>
<path style=" stroke:none;fill-rule:evenodd;fill:rgb(65.490196%,0%,0%);fill-opacity:1;" d="M 862.429688 461.101562 C 856.492188 451.476562 851.386719 448.605469 847.550781 442.40625 C 840.777344 431.515625 839.363281 422.625 834.136719 424.234375 C 828.914062 425.847656 829.199219 430.449219 836.746094 441.109375 C 844.292969 451.765625 847.703125 453.941406 862.429688 461.101562 Z M 862.429688 461.101562 "/>
<path style=" stroke:none;fill-rule:evenodd;fill:rgb(65.490196%,0%,0%);fill-opacity:1;" d="M 881.320312 374.878906 C 866.1875 368.59375 858.417969 368.511719 848.667969 364.472656 C 831.496094 357.390625 821.503906 349.386719 817.957031 353.789062 C 814.40625 358.195312 819.140625 362.574219 836.84375 369.015625 C 854.542969 375.457031 859.984375 375.761719 881.320312 374.878906 Z M 881.320312 374.878906 "/>
<path style=" stroke:none;fill-rule:evenodd;fill:rgb(65.490196%,0%,0%);fill-opacity:1;" d="M 886.863281 410.886719 C 875.84375 403.652344 869.328125 402.585938 862.226562 397.933594 C 849.707031 389.765625 843.476562 381.746094 839.296875 384.996094 C 835.113281 388.25 837.90625 392.542969 851.046875 400.238281 C 864.183594 407.933594 868.675781 408.890625 886.863281 410.886719 Z M 886.863281 410.886719 "/>
</g>
</svg>
