<?xml version="1.0" encoding="UTF-8"?>
<svg xmlns="http://www.w3.org/2000/svg" xmlns:xlink="http://www.w3.org/1999/xlink" width="1900pt" height="1000pt" viewBox="0 0 1900 1000" version="1.1">
<g id="surface1">
<rect x="0" y="0" width="1900" height="1000" style="fill:rgb(45.490196%,67.45098%,87.45098%);fill-opacity:1;stroke:none;"/>
<path style=" stroke:none;fill-rule:nonzero;fill:rgb(100%,100%,100%);fill-opacity:1;" d="M 0 333.339844 L 1900 333.339844 L 1900 666.679688 L 0 666.679688 Z M 0 333.339844 "/>
<path style="fill-rule:nonzero;fill:rgb(96.470588%,70.588235%,5.490196%);fill-opacity:1;stroke-width:1.1116;stroke-linecap:butt;stroke-linejoin:miter;stroke:rgb(52.156863%,20.392157%,3.921569%);stroke-opacity:1;stroke-miterlimit:4;" d="M 396.840461 251.310547 L 425.294408 313.302734 C 425.294408 313.302734 425.782895 314.486328 426.574013 314.160156 C 427.363487 313.833984 426.873355 312.648438 426.873355 312.648438 L 403.157895 248.693359 M 402.478618 272.8125 C 402.131579 282.240234 407.930921 287.425781 407.172697 295.845703 C 406.414474 304.265625 411.039474 309.025391 412.111842 312.298828 C 413.184211 315.574219 410.952303 317.53125 411.914474 317.998047 C 412.876645 318.462891 414.983553 315.876953 414.297697 311.220703 C 413.610197 306.566406 410.077303 305.185547 410.907895 294.902344 C 411.736842 284.619141 406.700658 282.222656 407.927632 272.84375 " transform="matrix(2.375,0,0,2,0,0)"/>
<path style="fill-rule:nonzero;fill:rgb(96.470588%,70.588235%,5.490196%);fill-opacity:1;stroke-width:1.1116;stroke-linecap:butt;stroke-linejoin:miter;stroke:rgb(52.156863%,20.392157%,3.921569%);stroke-opacity:1;stroke-miterlimit:4;" d="M 396.840107 251.310985 L 425.29435 313.300873 C 425.29435 313.300873 425.783891 314.487027 426.574051 314.159732 C 427.364959 313.834242 426.872378 312.649346 426.872378 312.649346 L 403.157601 248.692079 M 402.478239 272.813591 C 402.131539 282.23998 407.930634 287.425232 407.172175 295.844653 C 406.415984 304.265249 411.039728 309.024079 412.111329 312.298816 C 413.184449 315.572924 410.951531 317.531599 411.91367 317.997713 C 412.877328 318.463198 414.98354 315.876284 414.296666 311.222382 C 413.610563 306.566047 410.076012 305.184598 410.906711 294.902375 C 411.736663 284.618348 406.70199 282.224112 407.927627 272.843779 " transform="matrix(2.194214,0.765367,-0.908873,1.847759,299.532732,-268.086512)"/>
<path style="fill-rule:nonzero;fill:rgb(96.470588%,70.588235%,5.490196%);fill-opacity:1;stroke-width:1.1116;stroke-linecap:butt;stroke-linejoin:miter;stroke:rgb(52.156863%,20.392157%,3.921569%);stroke-opacity:1;stroke-miterlimit:4;" d="M 396.83939 251.309979 L 425.294259 313.301249 C 425.294259 313.301249 425.783448 314.485914 426.57371 314.159691 C 427.363971 313.833469 426.872238 312.648585 426.872238 312.648585 L 403.158284 248.692347 M 402.476909 272.813207 C 402.130915 282.241104 407.930456 287.426578 407.172104 295.844332 C 406.415351 304.266012 411.039385 309.024954 412.11182 312.30012 C 413.185419 315.574123 410.951578 317.53175 411.914473 317.99688 C 412.876205 318.463172 414.984224 315.877304 414.297324 311.222233 C 413.610424 306.567161 410.076344 305.18464 410.907166 294.901789 C 411.737987 284.618939 406.70036 282.223658 407.926748 272.843445 " transform="matrix(1.679379,1.414214,-1.679379,1.414214,698.093209,-419.238816)"/>
<path style="fill-rule:nonzero;fill:rgb(96.470588%,70.588235%,5.490196%);fill-opacity:1;stroke-width:1.1116;stroke-linecap:butt;stroke-linejoin:miter;stroke:rgb(52.156863%,20.392157%,3.921569%);stroke-opacity:1;stroke-miterlimit:4;" d="M 396.840221 251.309925 L 425.294304 313.302612 C 425.294304 313.302612 425.784762 314.486684 426.573333 314.159969 C 427.363708 313.834001 426.873249 312.649928 426.873249 312.649928 L 403.15852 248.693114 M 402.477956 272.813107 C 402.131122 282.240069 407.929655 287.426212 407.17193 295.844479 C 406.415379 304.265014 411.039467 309.025214 412.112645 312.298556 C 413.185193 315.573418 410.951776 317.530532 411.913089 317.996371 C 412.876207 318.462956 414.983339 315.876733 414.296442 311.221696 C 413.609545 306.566659 410.076345 305.185052 410.907123 294.901077 C 411.737271 284.618621 406.702295 282.223302 407.928057 272.843519 " transform="matrix(0.908873,1.847759,-2.194214,0.765367,1135.004212,-430.445342)"/>
<path style=" stroke:none;fill-rule:nonzero;fill:rgb(52.156863%,20.392157%,3.921569%);fill-opacity:1;" d="M 960.234375 548.820312 C 961.3125 566.925781 973.503906 574.945312 971.109375 591.449219 C 976.367188 578.398438 963.691406 568.28125 964.414062 549.007812 M 946.246094 501.492188 L 992.527344 586.648438 L 953.746094 498.875 "/>
<path style=" stroke:none;fill-rule:nonzero;fill:rgb(52.156863%,20.392157%,3.921569%);fill-opacity:1;" d="M 937.269531 548.402344 C 930.039062 565.480469 937.65625 576.816406 927.945312 591.289062 C 938.734375 580.925781 931.621094 567.496094 941.046875 549.921875 M 945.855469 500.171875 L 949.914062 593.757812 L 953.972656 500.167969 "/>
<path style=" stroke:none;fill-rule:nonzero;fill:rgb(52.156863%,20.392157%,3.921569%);fill-opacity:1;" d="M 916.246094 540.617188 C 901.800781 554.0625 903.6875 566.992188 888.140625 577.234375 C 902.8125 571.136719 902.347656 556.4375 919.039062 543.234375 M 946.09375 498.820312 L 907.316406 586.59375 L 953.59375 501.433594 "/>
<path style=" stroke:none;fill-rule:nonzero;fill:rgb(52.156863%,20.392157%,3.921569%);fill-opacity:1;" d="M 900.355469 526.644531 C 880.902344 534.414062 876.769531 546.96875 857.75 551.417969 C 874.078125 550.515625 880.328125 536.785156 901.75 529.96875 M 946.925781 497.652344 L 871.214844 566.246094 L 952.667969 502.484375 "/>
<path style="fill-rule:nonzero;fill:rgb(96.470588%,70.588235%,5.490196%);fill-opacity:1;stroke-width:1.1116;stroke-linecap:butt;stroke-linejoin:miter;stroke:rgb(52.156863%,20.392157%,3.921569%);stroke-opacity:1;stroke-miterlimit:4;" d="M 396.839844 251.309211 L 425.294922 313.302632 C 425.294922 313.302632 425.783203 314.486842 426.574219 314.161184 C 427.363281 313.833882 426.873047 312.649671 426.873047 312.649671 L 403.158203 248.692434 M 402.478516 272.8125 C 402.130859 282.240132 407.929687 287.425987 407.171875 295.845395 C 406.416016 304.264803 411.039062 309.024671 412.111328 312.299342 C 413.185547 315.574013 410.951172 317.53125 411.914062 317.996711 C 412.876953 318.463816 414.984375 315.876645 414.296875 311.222039 C 413.609375 306.567434 410.076172 305.184211 410.90625 294.901316 C 411.736328 284.618421 406.701172 282.223684 407.927734 272.84375 " transform="matrix(0.000000000000000145,2,-2.375,0.000000000000000122,1543.75,-300)"/>
<path style="fill-rule:nonzero;fill:rgb(96.470588%,70.588235%,5.490196%);fill-opacity:1;stroke-width:1.1116;stroke-linecap:butt;stroke-linejoin:miter;stroke:rgb(52.156863%,20.392157%,3.921569%);stroke-opacity:1;stroke-miterlimit:4;" d="M 396.841034 251.310267 L 425.294435 313.301616 C 425.294435 313.301616 425.783573 314.487604 426.573923 314.16023 C 427.364903 313.834376 426.872156 312.649883 426.872156 312.649883 L 403.158421 248.69352 M 402.477393 272.813162 C 402.131032 282.240635 407.929881 287.4261 407.172261 295.845397 C 406.414641 304.264693 411.039529 309.02494 412.112577 312.299412 C 413.185626 315.573884 410.952274 317.531513 411.91436 317.996426 C 412.877076 318.462857 414.983042 315.876156 414.296263 311.222216 C 413.610658 306.566008 410.076818 305.184932 410.907923 294.90154 C 411.737223 284.618894 406.701072 282.224046 407.927241 272.843383 " transform="matrix(-0.908873,1.847759,-2.194214,-0.765367,1862.102733,-47.76191)"/>
<path style="fill-rule:nonzero;fill:rgb(96.470588%,70.588235%,5.490196%);fill-opacity:1;stroke-width:1.1116;stroke-linecap:butt;stroke-linejoin:miter;stroke:rgb(52.156863%,20.392157%,3.921569%);stroke-opacity:1;stroke-miterlimit:4;" d="M 396.840843 251.309979 L 425.294186 313.301176 C 425.294186 313.301176 425.783521 314.486568 426.574073 314.161218 C 427.364843 313.833323 426.872965 312.648149 426.872965 312.648149 L 403.157557 248.693946 M 402.477927 272.812771 C 402.130697 282.24074 407.930165 287.427014 407.172031 295.844695 C 406.416224 304.264703 411.038731 309.025317 412.111675 312.299684 C 413.184619 315.57405 410.951142 317.530733 411.913819 317.996225 C 412.877659 318.462881 414.983351 315.875705 414.296306 311.222233 C 413.610643 306.567379 410.076199 305.18464 410.907166 294.900772 C 411.736751 284.618285 406.701814 282.223949 407.927621 272.843154 " transform="matrix(-1.679379,1.414214,-1.679379,-1.414214,2041.596093,287.867966)"/>
<path style="fill-rule:nonzero;fill:rgb(96.470588%,70.588235%,5.490196%);fill-opacity:1;stroke-width:1.1116;stroke-linecap:butt;stroke-linejoin:miter;stroke:rgb(52.156863%,20.392157%,3.921569%);stroke-opacity:1;stroke-miterlimit:4;" d="M 396.840214 251.310478 L 425.294146 313.302991 C 425.294146 313.302991 425.783086 314.486435 426.573231 314.160483 C 427.363377 313.834532 426.873665 312.648655 426.873665 312.648655 L 403.158291 248.693131 M 402.47791 272.813755 C 402.131859 282.240708 407.930716 287.426874 407.172542 295.845957 C 406.414367 304.26504 411.038967 309.024005 412.11233 312.299316 C 413.184174 315.573998 410.951317 317.530565 411.91358 317.996797 C 412.877363 318.463658 414.983008 315.877263 414.296488 311.221048 C 413.61074 306.567266 410.076014 305.185582 410.906706 294.902351 C 411.737398 284.619119 406.701365 282.224475 407.927645 272.842903 " transform="matrix(-2.194214,0.765367,-0.908873,-1.847759,2054.903844,655.79302)"/>
<path style=" stroke:none;fill-rule:nonzero;fill:rgb(52.156863%,20.392157%,3.921569%);fill-opacity:1;" d="M 892.027344 508.621094 C 870.523438 509.527344 861 519.792969 841.40625 517.777344 C 856.902344 522.203125 868.914062 511.53125 891.804688 512.136719 M 948.226562 496.839844 L 847.105469 535.8125 L 951.335938 503.15625 "/>
<path style=" stroke:none;fill-rule:nonzero;fill:rgb(52.156863%,20.392157%,3.921569%);fill-opacity:1;" d="M 892.523438 489.28125 C 872.242188 483.1875 858.78125 489.605469 841.59375 481.429688 C 853.898438 490.511719 869.847656 484.523438 890.71875 492.457031 M 949.796875 496.507812 L 838.664062 499.929688 L 949.800781 503.347656 "/>
<path style=" stroke:none;fill-rule:nonzero;fill:rgb(52.156863%,20.392157%,3.921569%);fill-opacity:1;" d="M 901.769531 471.574219 C 885.800781 459.410156 870.449219 461 858.285156 447.90625 C 865.527344 460.265625 882.980469 459.871094 898.65625 473.929688 M 951.398438 496.710938 L 847.171875 464.054688 L 948.296875 503.027344 "/>
<path style=" stroke:none;fill-rule:nonzero;fill:rgb(52.156863%,20.392157%,3.921569%);fill-opacity:1;" d="M 918.355469 458.195312 C 909.132812 441.8125 894.226562 438.332031 888.9375 422.316406 C 890.011719 436.066406 906.320312 441.328125 914.414062 459.367188 M 952.789062 497.410156 L 871.332031 433.652344 L 947.050781 502.246094 "/>
<path style="fill-rule:nonzero;fill:rgb(96.470588%,70.588235%,5.490196%);fill-opacity:1;stroke-width:1.1116;stroke-linecap:butt;stroke-linejoin:miter;stroke:rgb(52.156863%,20.392157%,3.921569%);stroke-opacity:1;stroke-miterlimit:4;" d="M 396.840461 251.310547 L 425.294408 313.302734 C 425.294408 313.302734 425.782895 314.486328 426.574013 314.160156 C 427.363487 313.833984 426.873355 312.648437 426.873355 312.648437 L 403.157895 248.693359 M 402.478618 272.8125 C 402.131579 282.240234 407.930921 287.425781 407.172697 295.845703 C 406.414474 304.265625 411.039474 309.025391 412.111842 312.298828 C 413.184211 315.574219 410.952303 317.53125 411.914474 317.998047 C 412.876645 318.462891 414.983553 315.876953 414.297697 311.220703 C 413.610197 306.566406 410.077303 305.185547 410.907895 294.902344 C 411.736842 284.619141 406.700658 282.222656 407.927632 272.84375 " transform="matrix(-2.375,0.000000000000000245,-0.000000000000000291,-2,1900,1000)"/>
<path style="fill-rule:nonzero;fill:rgb(96.470588%,70.588235%,5.490196%);fill-opacity:1;stroke-width:1.1116;stroke-linecap:butt;stroke-linejoin:miter;stroke:rgb(52.156863%,20.392157%,3.921569%);stroke-opacity:1;stroke-miterlimit:4;" d="M 396.840107 251.310985 L 425.29435 313.300873 C 425.29435 313.300873 425.783891 314.487027 426.574051 314.159732 C 427.364959 313.834242 426.872378 312.649346 426.872378 312.649346 L 403.157601 248.692079 M 402.478239 272.813591 C 402.131539 282.23998 407.930634 287.425232 407.172175 295.844653 C 406.415984 304.265249 411.039728 309.024079 412.111329 312.298816 C 413.184449 315.572924 410.951531 317.531599 411.91367 317.997713 C 412.877328 318.463198 414.98354 315.876284 414.296666 311.222382 C 413.610563 306.566047 410.076012 305.184598 410.906711 294.902375 C 411.736663 284.618348 406.70199 282.224112 407.927627 272.843779 " transform="matrix(-2.194214,-0.765367,0.908873,-1.847759,1600.467268,1268.086512)"/>
<path style="fill-rule:nonzero;fill:rgb(96.470588%,70.588235%,5.490196%);fill-opacity:1;stroke-width:1.1116;stroke-linecap:butt;stroke-linejoin:miter;stroke:rgb(52.156863%,20.392157%,3.921569%);stroke-opacity:1;stroke-miterlimit:4;" d="M 396.83939 251.309979 L 425.294259 313.301249 C 425.294259 313.301249 425.783448 314.485914 426.57371 314.159691 C 427.363971 313.833469 426.872238 312.648585 426.872238 312.648585 L 403.158284 248.692347 M 402.476909 272.813207 C 402.130915 282.241104 407.930456 287.426578 407.172104 295.844332 C 406.415351 304.266012 411.039385 309.024954 412.11182 312.30012 C 413.185419 315.574123 410.951578 317.53175 411.914473 317.99688 C 412.876205 318.463172 414.984224 315.877304 414.297324 311.222233 C 413.610424 306.567161 410.076344 305.18464 410.907166 294.901789 C 411.737987 284.618939 406.70036 282.223658 407.926748 272.843445 " transform="matrix(-1.679379,-1.414214,1.679379,-1.414214,1201.906791,1419.238816)"/>
<path style="fill-rule:nonzero;fill:rgb(96.470588%,70.588235%,5.490196%);fill-opacity:1;stroke-width:1.1116;stroke-linecap:butt;stroke-linejoin:miter;stroke:rgb(52.156863%,20.392157%,3.921569%);stroke-opacity:1;stroke-miterlimit:4;" d="M 396.840221 251.309925 L 425.294304 313.302612 C 425.294304 313.302612 425.784762 314.486684 426.573333 314.159969 C 427.363708 313.834001 426.873249 312.649928 426.873249 312.649928 L 403.15852 248.693114 M 402.477956 272.813107 C 402.131122 282.240069 407.929655 287.426212 407.17193 295.844479 C 406.415379 304.265014 411.039467 309.025214 412.112645 312.298556 C 413.185193 315.573418 410.951776 317.530532 411.913089 317.996371 C 412.876207 318.462956 414.983339 315.876733 414.296442 311.221696 C 413.609545 306.566659 410.076345 305.185052 410.907123 294.901077 C 411.737271 284.618621 406.702295 282.223302 407.928057 272.843519 " transform="matrix(-0.908873,-1.847759,2.194214,-0.765367,764.995788,1430.445342)"/>
<path style=" stroke:none;fill-rule:nonzero;fill:rgb(52.156863%,20.392157%,3.921569%);fill-opacity:1;" d="M 939.765625 451.179688 C 938.6875 433.074219 926.496094 425.054688 928.890625 408.550781 C 923.632812 421.601562 936.308594 431.71875 935.585938 450.992188 M 953.753906 498.507812 L 907.472656 413.351562 L 946.253906 501.125 "/>
<path style=" stroke:none;fill-rule:nonzero;fill:rgb(52.156863%,20.392157%,3.921569%);fill-opacity:1;" d="M 962.730469 451.597656 C 969.960938 434.519531 962.34375 423.183594 972.054688 408.710938 C 961.265625 419.074219 968.378906 432.503906 958.953125 450.078125 M 954.144531 499.828125 L 950.085938 406.242188 L 946.027344 499.832031 "/>
<path style=" stroke:none;fill-rule:nonzero;fill:rgb(52.156863%,20.392157%,3.921569%);fill-opacity:1;" d="M 983.753906 459.382812 C 998.199219 445.9375 996.3125 433.007812 1011.859375 422.765625 C 997.1875 428.863281 997.652344 443.5625 980.960938 456.765625 M 953.90625 501.179688 L 992.683594 413.40625 L 946.40625 498.566406 "/>
<path style=" stroke:none;fill-rule:nonzero;fill:rgb(52.156863%,20.392157%,3.921569%);fill-opacity:1;" d="M 999.644531 473.355469 C 1019.097656 465.585938 1023.230469 453.03125 1042.25 448.582031 C 1025.921875 449.484375 1019.671875 463.214844 998.25 470.03125 M 953.074219 502.347656 L 1028.785156 433.753906 L 947.332031 497.515625 "/>
<path style="fill-rule:nonzero;fill:rgb(96.470588%,70.588235%,5.490196%);fill-opacity:1;stroke-width:1.1116;stroke-linecap:butt;stroke-linejoin:miter;stroke:rgb(52.156863%,20.392157%,3.921569%);stroke-opacity:1;stroke-miterlimit:4;" d="M 396.839844 251.309211 L 425.294922 313.302632 C 425.294922 313.302632 425.783203 314.486842 426.574219 314.161184 C 427.363281 313.833882 426.873047 312.649671 426.873047 312.649671 L 403.158203 248.692434 M 402.478516 272.8125 C 402.130859 282.240132 407.929687 287.425987 407.171875 295.845395 C 406.416016 304.264803 411.039062 309.024671 412.111328 312.299342 C 413.185547 315.574013 410.951172 317.53125 411.914062 317.996711 C 412.876953 318.463816 414.984375 315.876645 414.296875 311.222039 C 413.609375 306.567434 410.076172 305.184211 410.90625 294.901316 C 411.736328 284.618421 406.701172 282.223684 407.927734 272.84375 " transform="matrix(-0.000000000000000436,-2,2.375,-0.000000000000000367,356.25,1300)"/>
<path style="fill-rule:nonzero;fill:rgb(96.470588%,70.588235%,5.490196%);fill-opacity:1;stroke-width:1.1116;stroke-linecap:butt;stroke-linejoin:miter;stroke:rgb(52.156863%,20.392157%,3.921569%);stroke-opacity:1;stroke-miterlimit:4;" d="M 396.841034 251.310267 L 425.294435 313.301616 C 425.294435 313.301616 425.783573 314.487604 426.573923 314.16023 C 427.364903 313.834376 426.872156 312.649883 426.872156 312.649883 L 403.158421 248.69352 M 402.477393 272.813162 C 402.131032 282.240635 407.929881 287.4261 407.172261 295.845397 C 406.414641 304.264693 411.039529 309.02494 412.112577 312.299412 C 413.185626 315.573884 410.952274 317.531513 411.91436 317.996426 C 412.877076 318.462857 414.983042 315.876156 414.296263 311.222216 C 413.610658 306.566008 410.076818 305.184932 410.907923 294.90154 C 411.737223 284.618894 406.701072 282.224046 407.927241 272.843383 " transform="matrix(0.908873,-1.847759,2.194214,0.765367,37.897267,1047.76191)"/>
<path style="fill-rule:nonzero;fill:rgb(96.470588%,70.588235%,5.490196%);fill-opacity:1;stroke-width:1.1116;stroke-linecap:butt;stroke-linejoin:miter;stroke:rgb(52.156863%,20.392157%,3.921569%);stroke-opacity:1;stroke-miterlimit:4;" d="M 396.840843 251.309979 L 425.294186 313.301176 C 425.294186 313.301176 425.783521 314.486568 426.574073 314.161218 C 427.364843 313.833323 426.872965 312.648149 426.872965 312.648149 L 403.157557 248.693946 M 402.477927 272.812771 C 402.130697 282.24074 407.930165 287.427014 407.172031 295.844695 C 406.416224 304.264703 411.038731 309.025317 412.111675 312.299684 C 413.184619 315.57405 410.951142 317.530733 411.913819 317.996225 C 412.877659 318.462881 414.983351 315.875705 414.296306 311.222233 C 413.610643 306.567379 410.076199 305.18464 410.907166 294.900772 C 411.736751 284.618285 406.701814 282.223949 407.927621 272.843154 " transform="matrix(1.679379,-1.414214,1.679379,1.414214,-141.596093,712.132034)"/>
<path style="fill-rule:nonzero;fill:rgb(96.470588%,70.588235%,5.490196%);fill-opacity:1;stroke-width:1.1116;stroke-linecap:butt;stroke-linejoin:miter;stroke:rgb(52.156863%,20.392157%,3.921569%);stroke-opacity:1;stroke-miterlimit:4;" d="M 396.840214 251.310478 L 425.294146 313.302991 C 425.294146 313.302991 425.783086 314.486435 426.573231 314.160483 C 427.363377 313.834532 426.873665 312.648655 426.873665 312.648655 L 403.158291 248.693131 M 402.47791 272.813755 C 402.131859 282.240708 407.930716 287.426874 407.172542 295.845957 C 406.414367 304.26504 411.038967 309.024005 412.11233 312.299316 C 413.184174 315.573998 410.951317 317.530565 411.91358 317.996797 C 412.877363 318.463658 414.983008 315.877263 414.296488 311.221048 C 413.61074 306.567266 410.076014 305.185582 410.906706 294.902351 C 411.737398 284.619119 406.701365 282.224475 407.927645 272.842903 " transform="matrix(2.194214,-0.765367,0.908873,1.847759,-154.903844,344.20698)"/>
<path style=" stroke:none;fill-rule:nonzero;fill:rgb(52.156863%,20.392157%,3.921569%);fill-opacity:1;" d="M 1007.972656 491.378906 C 1029.476562 490.472656 1039 480.207031 1058.59375 482.222656 C 1043.097656 477.796875 1031.085938 488.46875 1008.195312 487.863281 M 951.773438 503.160156 L 1052.894531 464.1875 L 948.664062 496.84375 "/>
<path style=" stroke:none;fill-rule:nonzero;fill:rgb(52.156863%,20.392157%,3.921569%);fill-opacity:1;" d="M 1007.476562 510.71875 C 1027.757812 516.8125 1041.21875 510.394531 1058.40625 518.570312 C 1046.101562 509.488281 1030.152344 515.476562 1009.28125 507.542969 M 950.203125 503.492188 L 1061.335938 500.070312 L 950.199219 496.652344 "/>
<path style=" stroke:none;fill-rule:nonzero;fill:rgb(52.156863%,20.392157%,3.921569%);fill-opacity:1;" d="M 998.230469 528.425781 C 1014.199219 540.589844 1029.550781 539 1041.714844 552.09375 C 1034.472656 539.734375 1017.019531 540.128906 1001.34375 526.070312 M 948.601562 503.289062 L 1052.828125 535.945312 L 951.703125 496.972656 "/>
<path style=" stroke:none;fill-rule:nonzero;fill:rgb(52.156863%,20.392157%,3.921569%);fill-opacity:1;" d="M 981.644531 541.804688 C 990.867188 558.1875 1005.773438 561.667969 1011.0625 577.683594 C 1009.988281 563.933594 993.679688 558.671875 985.585938 540.632812 M 947.210938 502.589844 L 1028.667969 566.347656 L 952.949219 497.753906 "/>
<path style="fill-rule:nonzero;fill:rgb(96.470588%,70.588235%,5.490196%);fill-opacity:1;stroke-width:1.5;stroke-linecap:butt;stroke-linejoin:miter;stroke:rgb(52.156863%,20.392157%,3.921569%);stroke-opacity:1;stroke-miterlimit:4;" d="M 427.777961 250 C 427.777961 265.341797 415.342105 277.777344 400 277.777344 C 384.657895 277.777344 372.222039 265.341797 372.222039 250 C 372.222039 234.658203 384.657895 222.222656 400 222.222656 C 415.342105 222.222656 427.777961 234.658203 427.777961 250 Z M 427.777961 250 " transform="matrix(2.375,0,0,2,0,0)"/>
<path style=" stroke:none;fill-rule:nonzero;fill:rgb(51.764706%,20.784314%,6.666667%);fill-opacity:1;" d="M 972.492188 488.121094 C 967.988281 488.121094 963.671875 489.761719 961.136719 493.183594 C 966.210938 497.027344 977.421875 497.445312 985.03125 492.746094 C 981.734375 489.753906 976.996094 488.121094 972.492188 488.121094 Z M 972.417969 488.996094 C 976.800781 488.929688 980.898438 490.625 981.472656 492.308594 C 976.398438 497.007812 968.289062 496.601562 963.214844 493.183594 C 965.433594 490.191406 969.007812 489.046875 972.417969 488.996094 Z M 972.417969 488.996094 "/>
<path style=" stroke:none;fill-rule:nonzero;fill:rgb(52.156863%,20.392157%,3.921569%);fill-opacity:1;" d="M 973.347656 485.480469 C 966.75 485.480469 965.226562 486.761719 962.183594 488.898438 C 959.132812 491.035156 957.613281 490.609375 957.109375 491.035156 C 956.601562 491.464844 957.109375 492.746094 958.121094 492.316406 C 959.132812 491.886719 961.167969 491.035156 964.207031 488.898438 C 967.257812 486.761719 970.296875 486.761719 973.34375 486.761719 C 982.476562 486.761719 987.554688 493.171875 988.566406 492.742188 C 989.578125 492.316406 983.492188 485.480469 973.34375 485.480469 Z M 973.347656 485.480469 "/>
<path style=" stroke:none;fill-rule:nonzero;fill:rgb(52.156863%,20.392157%,3.921569%);fill-opacity:1;" d="M 991.609375 488.039062 C 979.9375 479.496094 965.222656 478.210938 957.101562 484.621094 C 955.113281 486.863281 953.839844 489.261719 953.316406 491.761719 C 952.296875 496.628906 954.101562 501.886719 958.628906 507.273438 C 958.117188 507.273438 957.101562 507.699219 956.59375 508.128906 C 952.566406 501.640625 951.140625 494.976562 952.460938 488.636719 C 952.808594 486.980469 953.347656 485.351562 954.050781 483.765625 C 965.214844 476.074219 980.4375 475.21875 991.601562 488.039062 Z M 991.609375 488.039062 "/>
<path style=" stroke:none;fill-rule:nonzero;fill:rgb(52.156863%,20.392157%,3.921569%);fill-opacity:1;" d="M 976.898438 492.300781 C 976.898438 494.425781 974.851562 496.144531 972.328125 496.144531 C 969.808594 496.144531 967.761719 494.425781 967.761719 492.300781 C 967.761719 490.175781 969.808594 488.453125 972.328125 488.453125 C 974.851562 488.453125 976.898438 490.175781 976.898438 492.300781 Z M 976.898438 492.300781 "/>
<path style=" stroke:none;fill-rule:nonzero;fill:rgb(52.156863%,20.392157%,3.921569%);fill-opacity:1;" d="M 985.53125 494.878906 C 976.902344 500.4375 968.277344 500.007812 963.199219 497.445312 C 958.125 494.878906 958.125 494.027344 959.140625 494.027344 C 960.152344 494.027344 961.167969 494.878906 965.226562 496.589844 C 969.289062 498.300781 975.375 498.300781 985.523438 494.878906 Z M 985.53125 494.878906 "/>
<path style=" stroke:none;fill-rule:nonzero;fill:rgb(52.156863%,20.392157%,3.921569%);fill-opacity:1;" d="M 939.90625 507.679688 C 937.738281 508.011719 936.195312 509.632812 936.195312 511.492188 C 936.195312 513.613281 938.28125 515.304688 940.796875 515.304688 C 942.285156 515.304688 943.652344 514.710938 944.507812 513.679688 C 946.265625 514.792969 948.699219 514.910156 950 514.929688 C 950.199219 514.933594 950.457031 514.929688 950.59375 514.929688 C 951.894531 514.910156 954.328125 514.792969 956.085938 513.679688 C 956.941406 514.710938 958.308594 515.304688 959.796875 515.304688 C 962.3125 515.304688 964.398438 513.613281 964.398438 511.492188 C 964.398438 509.632812 962.855469 508.011719 960.6875 507.679688 C 961.90625 508.042969 962.691406 509.03125 962.691406 510.117188 C 962.691406 511.53125 961.335938 512.679688 959.648438 512.679688 C 958.03125 512.679688 956.699219 511.601562 956.605469 510.242188 C 956.109375 511.074219 954.148438 513.550781 950.296875 513.679688 C 946.445312 513.554688 944.484375 511.074219 943.988281 510.242188 C 943.894531 511.597656 942.5625 512.679688 940.945312 512.679688 C 939.257812 512.679688 937.902344 511.53125 937.902344 510.117188 C 937.902344 509.03125 938.6875 508.042969 939.90625 507.679688 Z M 939.90625 507.679688 "/>
<path style=" stroke:none;fill-rule:nonzero;fill:rgb(52.156863%,20.392157%,3.921569%);fill-opacity:1;" d="M 944.871094 519.058594 C 939.792969 519.058594 937.785156 522.933594 933.21875 525.496094 C 935.757812 524.644531 937.753906 522.960938 941.308594 521.246094 C 944.859375 519.539062 947.890625 521.621094 949.917969 521.621094 L 949.992188 521.621094 C 952.015625 521.621094 955.046875 519.539062 958.601562 521.246094 C 962.15625 522.960938 964.226562 524.644531 966.765625 525.496094 C 962.195312 522.933594 960.117188 519.058594 955.039062 519.058594 C 954.023438 519.058594 952.019531 519.519531 949.992188 520.371094 L 949.917969 520.371094 C 947.890625 519.519531 945.882812 519.058594 944.871094 519.058594 Z M 944.871094 519.058594 "/>
<path style=" stroke:none;fill-rule:nonzero;fill:rgb(52.156863%,20.392157%,3.921569%);fill-opacity:1;" d="M 943.160156 524.121094 C 941.15625 524.195312 938.507812 524.535156 934.699219 525.496094 C 943.835938 523.785156 945.851562 526.371094 949.914062 526.371094 L 949.988281 526.371094 C 954.050781 526.371094 956.066406 523.785156 965.203125 525.496094 C 955.050781 522.929688 953.03125 524.621094 949.988281 524.621094 L 949.914062 524.621094 C 948.011719 524.621094 946.5 523.996094 943.160156 524.121094 Z M 943.160156 524.121094 "/>
<path style=" stroke:none;fill-rule:nonzero;fill:rgb(52.156863%,20.392157%,3.921569%);fill-opacity:1;" d="M 935.15625 525.441406 C 934.566406 525.445312 933.925781 525.449219 933.226562 525.503906 C 943.886719 526.359375 938.761719 531.503906 949.925781 531.503906 L 950 531.503906 C 961.164062 531.503906 956.113281 526.359375 966.773438 525.503906 C 955.609375 524.648438 959.136719 530.191406 950 530.191406 L 949.925781 530.191406 C 941.359375 530.191406 943.996094 525.347656 935.15625 525.441406 Z M 935.15625 525.441406 "/>
<path style=" stroke:none;fill-rule:nonzero;fill:rgb(52.156863%,20.392157%,3.921569%);fill-opacity:1;" d="M 959.144531 539.320312 C 959.144531 535.074219 955.050781 531.628906 950.007812 531.628906 C 944.964844 531.628906 940.875 535.074219 940.875 539.320312 C 941.878906 535.757812 945.664062 533.242188 950.007812 533.242188 C 954.363281 533.242188 958.140625 535.757812 959.144531 539.320312 Z M 959.144531 539.320312 "/>
<path style=" stroke:none;fill-rule:nonzero;fill:rgb(52.156863%,20.392157%,3.921569%);fill-opacity:1;" d="M 908.984375 488.039062 C 920.65625 479.496094 935.371094 478.210938 943.492188 484.621094 C 945.480469 486.863281 946.753906 489.261719 947.277344 491.761719 C 948.296875 496.628906 946.492188 501.886719 941.964844 507.273438 C 942.476562 507.273438 943.492188 507.699219 944 508.128906 C 948.027344 501.640625 949.453125 494.976562 948.132812 488.636719 C 947.785156 486.980469 947.246094 485.351562 946.542969 483.765625 C 935.378906 476.074219 920.15625 475.21875 908.992188 488.039062 Z M 908.984375 488.039062 "/>
<path style=" stroke:none;fill-rule:nonzero;fill:rgb(52.156863%,20.392157%,3.921569%);fill-opacity:1;" d="M 927.246094 485.480469 C 933.84375 485.480469 935.367188 486.761719 938.410156 488.898438 C 941.460938 491.035156 942.980469 490.609375 943.484375 491.035156 C 943.992188 491.464844 943.484375 492.746094 942.472656 492.316406 C 941.460938 491.886719 939.425781 491.035156 936.386719 488.898438 C 933.335938 486.761719 930.296875 486.761719 927.25 486.761719 C 918.117188 486.761719 913.039062 493.171875 912.027344 492.742188 C 911.015625 492.316406 917.101562 485.480469 927.25 485.480469 Z M 927.246094 485.480469 "/>
<path style=" stroke:none;fill-rule:nonzero;fill:rgb(51.764706%,20.784314%,6.666667%);fill-opacity:1;" d="M 926.9375 488.121094 C 922.433594 488.121094 918.117188 489.761719 915.582031 493.183594 C 920.65625 497.027344 931.863281 497.445312 939.476562 492.746094 C 936.179688 489.753906 931.441406 488.121094 926.933594 488.121094 Z M 926.863281 488.996094 C 931.246094 488.929688 935.34375 490.625 935.917969 492.308594 C 930.84375 497.007812 922.734375 496.601562 917.660156 493.183594 C 919.878906 490.191406 923.453125 489.046875 926.863281 488.996094 Z M 926.863281 488.996094 "/>
<path style=" stroke:none;fill-rule:nonzero;fill:rgb(52.156863%,20.392157%,3.921569%);fill-opacity:1;" d="M 932.101562 492.300781 C 932.101562 494.425781 930.054688 496.144531 927.53125 496.144531 C 925.011719 496.144531 922.964844 494.425781 922.964844 492.300781 C 922.964844 490.175781 925.011719 488.453125 927.53125 488.453125 C 930.054688 488.453125 932.101562 490.175781 932.101562 492.300781 Z M 932.101562 492.300781 "/>
<path style=" stroke:none;fill-rule:nonzero;fill:rgb(52.156863%,20.392157%,3.921569%);fill-opacity:1;" d="M 915.0625 494.878906 C 923.691406 500.4375 932.316406 500.007812 937.394531 497.445312 C 942.46875 494.878906 942.46875 494.027344 941.453125 494.027344 C 940.441406 494.027344 939.425781 494.878906 935.367188 496.589844 C 931.304688 498.300781 925.21875 498.300781 915.070312 494.878906 Z M 915.0625 494.878906 "/>
</g>
</svg>
