<?xml version="1.0" encoding="UTF-8"?>
<svg xmlns="http://www.w3.org/2000/svg" xmlns:xlink="http://www.w3.org/1999/xlink" width="380pt" height="200pt" viewBox="0 0 1900 1000" version="1.1">
<g id="surface1">
<rect x="0" y="0" width="1900" height="1000" style="fill:rgb(89.019608%,12.941176%,9.411765%);fill-opacity:1;stroke:none;"/>
<path style=" stroke:none;fill-rule:nonzero;fill:rgb(100%,100%,100%);fill-opacity:1;" d="M 0 0 L 1900 0 L 1900 666.667969 L 0 666.667969 Z M 0 0 "/>
<path style=" stroke:none;fill-rule:nonzero;fill:rgb(24.313725%,60.392157%,0%);fill-opacity:1;" d="M 0 0 L 1900 0 L 1900 333.332031 L 0 333.332031 Z M 0 0 "/>
<path style=" stroke:none;fill-rule:nonzero;fill:rgb(0%,45.098039%,80.784314%);fill-opacity:1;" d="M 0 0 L 0 1000 L 475 500 Z M 0 0 "/>
<path style="fill-rule:nonzero;fill:rgb(100%,100%,100%);fill-opacity:1;stroke-width:3.5;stroke-linecap:butt;stroke-linejoin:miter;stroke:rgb(0%,0%,0%);stroke-opacity:1;stroke-miterlimit:4;" d="M 2026.998355 1351.996875 L 2052 1387.996875 L 2075.003289 1354.003125 L 2059.001645 1324.996875 Z M 2026.998355 1351.996875 " transform="matrix(0.527778,0,0,0.416667,0,0)"/>
<path style="fill-rule:nonzero;fill:rgb(100%,100%,100%);fill-opacity:1;stroke-width:3.5;stroke-linecap:butt;stroke-linejoin:miter;stroke:rgb(0%,0%,0%);stroke-opacity:1;stroke-miterlimit:4;" d="M 1868.003289 1456.996875 L 1870.001645 1492.996875 C 1870.001645 1492.996875 1880.000822 1492.996875 1889.000822 1489.996875 C 1897.001645 1486.996875 1904.003289 1480.996875 1904.003289 1480.996875 L 1902.996711 1462.003125 Z M 1868.003289 1456.996875 " transform="matrix(0.527778,0,0,0.416667,0,0)"/>
<path style="fill-rule:nonzero;fill:rgb(100%,100%,100%);fill-opacity:1;stroke-width:3.5;stroke-linecap:butt;stroke-linejoin:miter;stroke:rgb(0%,0%,0%);stroke-opacity:1;stroke-miterlimit:4;" d="M 1734.002467 1456.996875 L 1731.996711 1492.003125 C 1731.996711 1492.003125 1722.996711 1492.003125 1713.996711 1489.996875 C 1706.003289 1488 1699.001645 1483.003125 1699.001645 1483.003125 L 1689.002467 1459.003125 Z M 1734.002467 1456.996875 " transform="matrix(0.527778,0,0,0.416667,0,0)"/>
<path style="fill-rule:nonzero;fill:rgb(100%,100%,100%);fill-opacity:1;stroke-width:4.8;stroke-linecap:butt;stroke-linejoin:miter;stroke:rgb(0%,0%,0%);stroke-opacity:1;stroke-miterlimit:4;" d="M 1608.002467 958.8 L 1990.998355 958.8 L 1990.998355 1360.003125 C 1990.998355 1495.003125 1815.002467 1390.996875 1800 1462.996875 C 1773.999178 1389 1609.001645 1495.996875 1609.001645 1351.996875 C 1609.001645 1212 1608.002467 958.8 1608.002467 958.8 Z M 1608.002467 958.8 " transform="matrix(0.527778,0,0,0.416667,0,0)"/>
<path style="fill-rule:nonzero;fill:rgb(100%,100%,100%);fill-opacity:1;stroke-width:3.5;stroke-linecap:butt;stroke-linejoin:miter;stroke:rgb(0%,0%,0%);stroke-opacity:1;stroke-miterlimit:4;" d="M 1573.001645 1351.996875 L 1547.000822 1387.996875 L 1519.001645 1342.003125 L 1539.999178 1320 Z M 1573.001645 1351.996875 " transform="matrix(0.527778,0,0,0.416667,0,0)"/>
<path style="fill-rule:nonzero;fill:rgb(100%,84.313725%,0%);fill-opacity:1;stroke-width:3.5;stroke-linecap:butt;stroke-linejoin:miter;stroke:rgb(0%,0%,0%);stroke-opacity:1;stroke-miterlimit:4;" d="M 1787.003289 902.596875 L 1764.999178 903.6 L 1754.000822 923.296875 L 1742.003289 904.5 L 1719.999178 905.4 L 1729.998355 885.6 L 1718.000822 866.803125 L 1740.996711 865.8 L 1751.003289 846.103125 L 1763.000822 864.9 L 1784.997533 864 L 1774.998355 883.8 Z M 1787.003289 902.596875 " transform="matrix(0.527778,0,0,0.416667,0,0)"/>
<path style="fill-rule:nonzero;fill:rgb(100%,84.313725%,0%);fill-opacity:1;stroke-width:3.5;stroke-linecap:butt;stroke-linejoin:miter;stroke:rgb(0%,0%,0%);stroke-opacity:1;stroke-miterlimit:4;" d="M 1692.999178 909.9 L 1671.002467 915.3 L 1665 936.6 L 1648.998355 920.596875 L 1628.000822 925.8 L 1634.003289 904.5 L 1619.000822 888.3 L 1639.998355 883.003125 L 1646.000822 861.6 L 1662.002467 877.603125 L 1683.999178 872.4 L 1676.997533 893.803125 Z M 1692.999178 909.9 " transform="matrix(0.527778,0,0,0.416667,0,0)"/>
<path style="fill-rule:nonzero;fill:rgb(100%,84.313725%,0%);fill-opacity:1;stroke-width:3.5;stroke-linecap:butt;stroke-linejoin:miter;stroke:rgb(0%,0%,0%);stroke-opacity:1;stroke-miterlimit:4;" d="M 1602 928.603125 L 1582.001645 938.503125 L 1581.002467 960.703125 L 1562.003289 948.496875 L 1541.997533 958.303125 L 1544.003289 936.103125 L 1524.996711 923.803125 L 1545.002467 913.8 L 1547.000822 891.6 L 1565.000822 903.796875 L 1584.999178 894 L 1584 916.2 Z M 1602 928.603125 " transform="matrix(0.527778,0,0,0.416667,0,0)"/>
<path style="fill-rule:nonzero;fill:rgb(100%,84.313725%,0%);fill-opacity:1;stroke-width:3.5;stroke-linecap:butt;stroke-linejoin:miter;stroke:rgb(0%,0%,0%);stroke-opacity:1;stroke-miterlimit:4;" d="M 1816.001645 902.596875 L 1837.998355 903.6 L 1847.997533 923.296875 L 1860.002467 904.5 L 1881.999178 905.4 L 1872 885.6 L 1883.997533 866.803125 L 1862.000822 865.8 L 1851.002467 846.103125 L 1838.997533 864.9 L 1817.000822 864 L 1827 883.8 Z M 1816.001645 902.596875 " transform="matrix(0.527778,0,0,0.416667,0,0)"/>
<path style="fill-rule:nonzero;fill:rgb(100%,84.313725%,0%);fill-opacity:1;stroke-width:3.5;stroke-linecap:butt;stroke-linejoin:miter;stroke:rgb(0%,0%,0%);stroke-opacity:1;stroke-miterlimit:4;" d="M 1909.998355 909.9 L 1931.003289 915.3 L 1936.998355 936.6 L 1953 920.596875 L 1973.997533 925.8 L 1968.002467 904.5 L 1983.996711 888.3 L 1962 883.003125 L 1955.997533 861.6 L 1940.003289 877.603125 L 1918.998355 872.4 L 1925.000822 893.803125 Z M 1909.998355 909.9 " transform="matrix(0.527778,0,0,0.416667,0,0)"/>
<path style="fill-rule:nonzero;fill:rgb(100%,84.313725%,0%);fill-opacity:1;stroke-width:3.5;stroke-linecap:butt;stroke-linejoin:miter;stroke:rgb(0%,0%,0%);stroke-opacity:1;stroke-miterlimit:4;" d="M 1999.998355 928.603125 L 2019.996711 938.503125 L 2021.003289 960.703125 L 2040.002467 948.496875 L 2060.000822 958.303125 L 2059.001645 936.103125 L 2077.001645 923.803125 L 2057.003289 913.8 L 2055.996711 891.6 L 2036.997533 903.796875 L 2016.999178 894 L 2018.997533 916.2 Z M 1999.998355 928.603125 " transform="matrix(0.527778,0,0,0.416667,0,0)"/>
<path style="fill-rule:nonzero;fill:rgb(100%,100%,100%);fill-opacity:1;stroke-width:3.5;stroke-linecap:butt;stroke-linejoin:miter;stroke:rgb(0%,0%,0%);stroke-opacity:1;stroke-miterlimit:4;" d="M 1698.002467 1480.996875 L 1698.002467 1528.996875 C 1698.002467 1563 1904.003289 1563 1904.003289 1528.996875 L 1904.003289 1480.996875 C 1904.003289 1506 1698.002467 1501.003125 1698.002467 1480.996875 Z M 1698.002467 1480.996875 " transform="matrix(0.527778,0,0,0.416667,0,0)"/>
<path style="fill-rule:nonzero;fill:rgb(100%,100%,100%);fill-opacity:1;stroke-width:3.5;stroke-linecap:butt;stroke-linejoin:miter;stroke:rgb(0%,0%,0%);stroke-opacity:1;stroke-miterlimit:4;" d="M 1513.998355 1417.996875 C 1531.998355 1510.003125 1698.002467 1512 1698.002467 1512 C 1698.002467 1512 1698.002467 1480.996875 1698.002467 1480.996875 C 1693.998355 1468.996875 1701 1465.003125 1728 1461 C 1738.998355 1459.996875 1734.002467 1444.003125 1734.002467 1444.003125 C 1734.002467 1444.003125 1662.002467 1456.996875 1611 1437 C 1541.997533 1408.996875 1531.998355 1354.996875 1531.998355 1354.996875 C 1531.998355 1354.996875 1527.002467 1396.996875 1513.998355 1417.996875 Z M 1513.998355 1417.996875 " transform="matrix(0.527778,0,0,0.416667,0,0)"/>
<path style="fill-rule:nonzero;fill:rgb(100%,100%,100%);fill-opacity:1;stroke-width:3.5;stroke-linecap:butt;stroke-linejoin:miter;stroke:rgb(0%,0%,0%);stroke-opacity:1;stroke-miterlimit:4;" d="M 2087.000822 1417.996875 C 2070 1510.003125 1904.003289 1512 1904.003289 1512 C 1904.003289 1512 1904.003289 1480.996875 1904.003289 1480.996875 C 1907.000822 1468.996875 1899.999178 1465.003125 1872.999178 1461 C 1862.000822 1459.996875 1868.003289 1444.003125 1868.003289 1444.003125 C 1868.003289 1444.003125 1940.003289 1456.996875 1990.998355 1437 C 2059.001645 1408.996875 2067.002467 1354.996875 2067.002467 1354.996875 C 2067.002467 1354.996875 2073.996711 1396.996875 2087.000822 1417.996875 Z M 2087.000822 1417.996875 " transform="matrix(0.527778,0,0,0.416667,0,0)"/>
<path style="fill-rule:nonzero;fill:rgb(100%,100%,100%);fill-opacity:1;stroke-width:3.5;stroke-linecap:butt;stroke-linejoin:miter;stroke:rgb(0%,0%,0%);stroke-opacity:1;stroke-miterlimit:4;" d="M 1527.002467 1383 C 1481.003289 1357.996875 1517.003289 1332 1521 1258.003125 C 1528.001645 1303.003125 1578.996711 1321.996875 1573.001645 1351.003125 C 1551.996711 1351.996875 1541.997533 1320 1531.998355 1354.996875 C 1531.998355 1354.996875 1527.002467 1383 1527.002467 1383 Z M 1527.002467 1383 " transform="matrix(0.527778,0,0,0.416667,0,0)"/>
<path style="fill-rule:nonzero;fill:rgb(100%,100%,100%);fill-opacity:1;stroke-width:3.5;stroke-linecap:butt;stroke-linejoin:miter;stroke:rgb(0%,0%,0%);stroke-opacity:1;stroke-miterlimit:4;" d="M 2073.996711 1383 C 2120.003289 1357.003125 2081.997533 1332 2078.000822 1258.003125 C 2070.999178 1303.003125 2021.003289 1321.996875 2026.998355 1351.003125 C 2046.996711 1351.996875 2057.003289 1320 2067.002467 1354.996875 C 2067.002467 1354.996875 2073.996711 1381.996875 2073.996711 1381.996875 Z M 2073.996711 1383 " transform="matrix(0.527778,0,0,0.416667,0,0)"/>
<path style=" stroke:none;fill-rule:nonzero;fill:rgb(0%,0%,0%);fill-opacity:1;" d="M 929.417969 642.082031 L 929.417969 628.75 L 934.695312 628.75 C 936.804688 628.75 938.390625 628.75 938.917969 628.75 C 939.972656 629.167969 941.027344 629.582031 941.554688 630 C 942.082031 630.832031 942.609375 631.667969 942.609375 632.5 C 942.609375 633.332031 942.082031 634.167969 942.082031 634.582031 C 941.554688 635.417969 941.027344 635.832031 940.5 636.25 C 939.972656 636.25 939.445312 636.667969 938.917969 636.667969 C 937.859375 636.667969 936.804688 637.082031 935.222656 637.082031 L 933.109375 637.082031 L 933.109375 642.082031 Z M 933.109375 630.832031 L 933.109375 634.582031 L 934.695312 634.582031 C 936.277344 634.582031 936.804688 634.582031 937.332031 634.582031 C 937.859375 634.167969 938.390625 634.167969 938.390625 633.75 C 938.917969 633.332031 938.917969 633.332031 938.917969 632.917969 C 938.917969 632.082031 938.917969 631.667969 938.390625 631.667969 C 937.859375 631.25 937.332031 630.832031 936.804688 630.832031 C 936.804688 630.832031 935.75 630.832031 934.695312 630.832031 Z M 958.972656 642.082031 L 955.277344 642.082031 L 953.695312 638.75 L 946.832031 638.75 L 945.25 642.082031 L 941.554688 642.082031 L 948.417969 628.75 L 952.109375 628.75 Z M 952.640625 636.667969 L 950 631.667969 L 947.890625 636.667969 Z M 958.972656 642.082031 L 958.972656 639.582031 L 967.945312 630.832031 L 960.027344 630.832031 L 960.027344 628.75 L 972.695312 628.75 L 972.695312 630.832031 L 963.195312 639.582031 L 972.695312 639.582031 L 972.695312 642.082031 Z M 958.972656 642.082031 "/>
<path style="fill-rule:nonzero;fill:rgb(45.098039%,27.058824%,16.862745%);fill-opacity:1;stroke-width:1;stroke-linecap:butt;stroke-linejoin:miter;stroke:rgb(0%,0%,0%);stroke-opacity:1;stroke-miterlimit:4;" d="M 1827 1399.003125 C 1827 1399.003125 1821.996711 1404 1812.996711 1399.996875 C 1803.996711 1396.003125 1802.997533 1143 1802.997533 1143 C 1823.003289 1120.996875 1838.997533 1114.003125 1838.997533 1114.003125 C 1838.997533 1114.003125 1851.002467 1123.996875 1851.002467 1123.996875 C 1806.002467 1147.003125 1809.999178 1180.003125 1814.003289 1237.003125 C 1815.002467 1258.003125 1815.002467 1285.003125 1819.998355 1311 C 1827 1344 1841.003289 1372.003125 1842.002467 1393.003125 C 1843.001645 1405.996875 1827 1399.003125 1827 1399.003125 Z M 1827 1399.003125 " transform="matrix(0.527778,0,0,0.416667,0,0)"/>
<path style="fill-rule:nonzero;fill:rgb(45.098039%,27.058824%,16.862745%);fill-opacity:1;stroke-width:1;stroke-linecap:butt;stroke-linejoin:miter;stroke:rgb(0%,0%,0%);stroke-opacity:1;stroke-miterlimit:4;" d="M 1796.003289 1108.003125 L 1814.003289 1108.003125 C 1799.000822 1252.996875 1811.997533 1339.003125 1811.997533 1381.003125 C 1811.997533 1395 1819.998355 1399.996875 1818.999178 1399.996875 C 1800.999178 1420.003125 1791.999178 1399.003125 1791.999178 1399.003125 Z M 1796.003289 1108.003125 " transform="matrix(0.527778,0,0,0.416667,0,0)"/>
<path style="fill-rule:nonzero;fill:rgb(63.921569%,40%,16.078431%);fill-opacity:1;stroke-width:1;stroke-linecap:butt;stroke-linejoin:miter;stroke:rgb(0%,0%,0%);stroke-opacity:1;stroke-miterlimit:4;" d="M 1767.996711 1399.003125 C 1751.003289 1407 1748.997533 1390.996875 1749.996711 1389 C 1787.003289 1314 1802.997533 1149 1769.003289 1131 C 1769.003289 1131 1771.001645 1114.996875 1771.001645 1114.996875 C 1783.998355 1119 1796.003289 1135.996875 1796.003289 1135.996875 C 1800.999178 1321.003125 1796.003289 1396.996875 1792.998355 1399.996875 C 1774.998355 1419 1767.996711 1396.996875 1766.997533 1395 " transform="matrix(0.527778,0,0,0.416667,0,0)"/>
<path style="fill:none;stroke-width:1;stroke-linecap:butt;stroke-linejoin:miter;stroke:rgb(0%,0%,0%);stroke-opacity:1;stroke-miterlimit:4;" d="M 1766.997533 1396.003125 C 1764 1380 1792.998355 1339.003125 1791 1296 " transform="matrix(0.527778,0,0,0.416667,0,0)"/>
<path style="fill:none;stroke-width:1;stroke-linecap:butt;stroke-linejoin:miter;stroke:rgb(0%,0%,0%);stroke-opacity:1;stroke-miterlimit:4;" d="M 1816.001645 1330.996875 C 1825.001645 1356 1828.998355 1378.003125 1827 1399.003125 " transform="matrix(0.527778,0,0,0.416667,0,0)"/>
<path style="fill-rule:nonzero;fill:rgb(0%,60.392157%,23.137255%);fill-opacity:1;stroke-width:1;stroke-linecap:butt;stroke-linejoin:miter;stroke:rgb(0%,0%,0%);stroke-opacity:1;stroke-miterlimit:4;" d="M 1854.999178 1039.996875 C 1861.001645 1033.003125 1861.001645 1033.003125 1872 1033.003125 C 1873.998355 1018.003125 1899 1018.003125 1900.998355 1036.996875 C 1920.996711 1033.003125 1925.000822 1045.003125 1917 1057.003125 C 1935.999178 1051.996875 1953 1057.003125 1947.996711 1078.996875 C 1981.998355 1087.996875 1969.001645 1111.996875 1953.999178 1117.003125 C 1952.000822 1132.003125 1937.997533 1137 1918.998355 1131 C 1895.003289 1147.996875 1881 1141.996875 1870.001645 1125 C 1843.001645 1129.003125 1841.003289 1123.003125 1828.998355 1108.003125 C 1808.000822 1117.003125 1803.996711 1117.003125 1785.996711 1105.996875 C 1784.997533 1120.003125 1780.001645 1116 1771.001645 1114.996875 C 1772.000822 1132.996875 1764.999178 1141.003125 1748.997533 1135.003125 C 1761.002467 1159.996875 1729.998355 1171.003125 1715.003289 1150.003125 C 1701 1150.996875 1700.000822 1147.003125 1692.999178 1141.996875 C 1686.996711 1162.003125 1665 1159.003125 1661.003289 1147.996875 C 1632.996711 1144.003125 1636.001645 1129.003125 1658.997533 1128 C 1661.003289 1111.996875 1674.999178 1114.996875 1683.999178 1117.003125 C 1684.998355 1107 1691.000822 1108.996875 1695.996711 1111.003125 C 1692.999178 1104 1694.997533 1099.996875 1703.997533 1098 C 1691.000822 1081.003125 1699.001645 1075.003125 1711.998355 1069.003125 C 1704.996711 1053 1717.001645 1054.003125 1726.001645 1053 C 1725.002467 1036.003125 1729.998355 1033.003125 1747.998355 1030.996875 C 1746 1024.996875 1748.997533 1020 1758.996711 1020 C 1753.001645 1003.003125 1761.002467 999.103125 1779.002467 1002 C 1782 977.296875 1835.000822 988.996875 1830.996711 1023 C 1845.999178 1024.996875 1851.002467 1027.996875 1854.999178 1039.996875 Z M 1854.999178 1039.996875 " transform="matrix(0.527778,0,0,0.416667,0,0)"/>
<path style="fill:none;stroke-width:1;stroke-linecap:butt;stroke-linejoin:miter;stroke:rgb(0%,0%,0%);stroke-opacity:1;stroke-miterlimit:4;" d="M 1747.998355 1030.996875 C 1752.002467 1033.003125 1756.998355 1030.996875 1757.997533 1042.003125 C 1765.998355 1027.996875 1775.997533 1036.003125 1775.997533 1051.996875 " transform="matrix(0.527778,0,0,0.416667,0,0)"/>
<path style="fill:none;stroke-width:1;stroke-linecap:butt;stroke-linejoin:miter;stroke:rgb(0%,0%,0%);stroke-opacity:1;stroke-miterlimit:4;" d="M 1830.996711 1023 C 1827 1029 1811.997533 1029 1814.003289 1045.003125 C 1809 1038 1799.000822 1036.003125 1794.996711 1042.996875 " transform="matrix(0.527778,0,0,0.416667,0,0)"/>
<path style="fill:none;stroke-width:1;stroke-linecap:butt;stroke-linejoin:miter;stroke:rgb(0%,0%,0%);stroke-opacity:1;stroke-miterlimit:4;" d="M 1854.999178 1039.996875 C 1854.999178 1044 1854 1056 1850.003289 1062 " transform="matrix(0.527778,0,0,0.416667,0,0)"/>
<path style="fill:none;stroke-width:1;stroke-linecap:butt;stroke-linejoin:miter;stroke:rgb(0%,0%,0%);stroke-opacity:1;stroke-miterlimit:4;" d="M 1917 1057.003125 C 1917.999178 1057.996875 1902.996711 1057.003125 1896.002467 1062 " transform="matrix(0.527778,0,0,0.416667,0,0)"/>
<path style="fill:none;stroke-width:1;stroke-linecap:butt;stroke-linejoin:miter;stroke:rgb(0%,0%,0%);stroke-opacity:1;stroke-miterlimit:4;" d="M 1953.999178 1117.003125 C 1950.002467 1114.996875 1942.001645 1110 1935.999178 1117.996875 C 1935.999178 1114.003125 1935.999178 1102.996875 1925.000822 1102.996875 " transform="matrix(0.527778,0,0,0.416667,0,0)"/>
<path style="fill:none;stroke-width:1;stroke-linecap:butt;stroke-linejoin:miter;stroke:rgb(0%,0%,0%);stroke-opacity:1;stroke-miterlimit:4;" d="M 1918.998355 1131 C 1918.998355 1120.996875 1917 1117.996875 1915.001645 1114.996875 " transform="matrix(0.527778,0,0,0.416667,0,0)"/>
<path style="fill:none;stroke-width:1;stroke-linecap:butt;stroke-linejoin:miter;stroke:rgb(0%,0%,0%);stroke-opacity:1;stroke-miterlimit:4;" d="M 1886.003289 1117.003125 C 1878.002467 1111.003125 1870.001645 1120.003125 1870.001645 1125 " transform="matrix(0.527778,0,0,0.416667,0,0)"/>
<path style="fill:none;stroke-width:1;stroke-linecap:butt;stroke-linejoin:miter;stroke:rgb(0%,0%,0%);stroke-opacity:1;stroke-miterlimit:4;" d="M 1827.999178 1108.003125 C 1827.999178 1104 1825.001645 1096.003125 1832.003289 1093.003125 " transform="matrix(0.527778,0,0,0.416667,0,0)"/>
<path style="fill:none;stroke-width:1;stroke-linecap:butt;stroke-linejoin:miter;stroke:rgb(0%,0%,0%);stroke-opacity:1;stroke-miterlimit:4;" d="M 1713.996711 1150.003125 C 1716.002467 1140 1722.996711 1140 1721.997533 1135.003125 C 1720.998355 1126.996875 1711.998355 1120.003125 1701 1131 " transform="matrix(0.527778,0,0,0.416667,0,0)"/>
<path style="fill:none;stroke-width:1;stroke-linecap:butt;stroke-linejoin:miter;stroke:rgb(0%,0%,0%);stroke-opacity:1;stroke-miterlimit:4;" d="M 1721.997533 1135.003125 C 1728 1132.996875 1734.002467 1134 1736.000822 1137 " transform="matrix(0.527778,0,0,0.416667,0,0)"/>
<path style="fill:none;stroke-width:1;stroke-linecap:butt;stroke-linejoin:miter;stroke:rgb(0%,0%,0%);stroke-opacity:1;stroke-miterlimit:4;" d="M 1704.996711 1098 C 1709.000822 1093.996875 1719 1095 1725.002467 1098 " transform="matrix(0.527778,0,0,0.416667,0,0)"/>
<path style="fill:none;stroke-width:1;stroke-linecap:butt;stroke-linejoin:miter;stroke:rgb(0%,0%,0%);stroke-opacity:1;stroke-miterlimit:4;" d="M 1725.002467 1074 C 1729.998355 1074 1738.998355 1072.003125 1742.003289 1081.003125 C 1753.001645 1063.996875 1761.002467 1066.003125 1763.000822 1069.996875 " transform="matrix(0.527778,0,0,0.416667,0,0)"/>
<path style="fill:none;stroke-width:1;stroke-linecap:butt;stroke-linejoin:miter;stroke:rgb(0%,0%,0%);stroke-opacity:1;stroke-miterlimit:4;" d="M 1782.999178 1068 C 1791 1065 1805.003289 1072.996875 1812.996711 1087.003125 C 1817.000822 1075.996875 1823.003289 1078.003125 1828.998355 1077 " transform="matrix(0.527778,0,0,0.416667,0,0)"/>
<path style="fill:none;stroke-width:1;stroke-linecap:butt;stroke-linejoin:miter;stroke:rgb(0%,0%,0%);stroke-opacity:1;stroke-miterlimit:4;" d="M 1866.996711 1087.003125 C 1880.000822 1081.003125 1888.001645 1093.003125 1891.998355 1098 C 1898.000822 1090.003125 1902.996711 1090.003125 1908.999178 1090.003125 " transform="matrix(0.527778,0,0,0.416667,0,0)"/>
<path style="fill:none;stroke-width:1;stroke-linecap:butt;stroke-linejoin:miter;stroke:rgb(0%,0%,0%);stroke-opacity:1;stroke-miterlimit:4;" d="M 1746 1111.003125 C 1748.997533 1105.996875 1755.999178 1105.003125 1761.002467 1108.003125 C 1760.003289 1099.003125 1765.998355 1095 1770.002467 1096.996875 " transform="matrix(0.527778,0,0,0.416667,0,0)"/>
<path style=" stroke:none;fill-rule:nonzero;fill:rgb(0%,0%,0%);fill-opacity:1;" d="M 820.695312 590.417969 L 823.332031 592.082031 L 817.527344 597.082031 C 816.472656 597.917969 815.945312 598.75 815.945312 598.75 C 815.417969 599.582031 815.417969 600 815.417969 600.417969 C 815.417969 600.832031 815.945312 601.25 816.472656 601.667969 C 817 602.5 818.054688 602.5 818.582031 602.5 C 819.109375 602.5 819.640625 602.5 820.167969 602.082031 C 820.695312 602.082031 821.222656 601.667969 821.75 600.832031 L 828.082031 595.417969 L 830.195312 597.082031 L 824.917969 602.082031 C 823.332031 603.332031 822.277344 604.167969 821.75 604.582031 C 821.222656 605 820.695312 605 819.640625 605 C 819.109375 605 818.054688 605 817.527344 605 C 816.472656 604.582031 815.945312 604.167969 814.890625 603.75 C 813.832031 602.917969 812.777344 602.082031 812.777344 601.25 C 812.25 600.832031 812.25 600 812.25 599.582031 C 812.25 599.167969 812.25 598.332031 812.777344 597.917969 C 812.777344 597.5 813.832031 596.667969 814.890625 595.417969 Z M 822.277344 608.332031 L 831.25 597.5 L 833.890625 598.75 L 833.359375 608.75 L 839.167969 601.667969 L 841.804688 602.917969 L 833.359375 613.75 L 830.195312 612.5 L 830.722656 602.5 L 824.917969 609.582031 Z M 836 615 L 843.390625 603.332031 L 846.027344 604.582031 L 839.167969 615.832031 Z M 847.609375 605 L 852.890625 606.667969 C 854.472656 607.082031 855 607.5 855.527344 607.917969 C 856.582031 608.332031 857.109375 608.75 857.640625 609.582031 C 858.167969 610.417969 858.167969 610.832031 858.167969 611.667969 C 858.167969 612.917969 857.640625 613.75 857.109375 615 C 857.109375 615.832031 856.582031 616.667969 855.527344 617.082031 C 855 617.917969 853.945312 618.75 852.890625 618.75 C 852.359375 619.167969 851.304688 619.167969 850.777344 619.167969 C 849.722656 619.167969 848.667969 619.167969 847.609375 618.75 L 841.804688 617.082031 Z M 849.722656 607.917969 L 846.027344 615.832031 L 848.140625 616.667969 C 849.195312 616.667969 849.722656 617.082031 850.25 617.082031 C 850.777344 617.082031 851.304688 617.082031 851.832031 617.082031 C 851.832031 616.667969 852.359375 616.25 852.890625 615.832031 C 853.417969 615.417969 853.945312 614.582031 853.945312 613.75 C 854.472656 612.917969 855 612.082031 855 611.667969 C 855 611.25 855 610.417969 854.472656 610.417969 C 854.472656 610 853.945312 609.582031 853.417969 609.167969 C 852.890625 609.167969 852.359375 608.75 850.777344 608.332031 Z M 871.890625 623.332031 L 868.195312 622.917969 L 867.667969 620 L 861.332031 618.75 L 859.222656 621.667969 L 855.527344 620.832031 L 865.027344 609.582031 L 868.195312 610 Z M 867.140625 617.5 L 866.082031 612.5 L 862.917969 617.082031 Z M 874 610.832031 L 880.332031 610.832031 C 881.390625 611.25 882.445312 611.25 882.972656 611.25 C 884.027344 611.667969 885.082031 612.082031 885.609375 612.5 C 886.140625 613.332031 886.667969 613.75 886.667969 614.582031 C 887.195312 615.417969 887.195312 616.667969 887.195312 617.917969 C 887.195312 618.75 887.195312 619.582031 886.667969 620.417969 C 886.140625 621.25 885.609375 622.082031 884.554688 622.5 C 884.027344 622.917969 883.5 623.332031 882.445312 623.75 C 881.917969 623.75 880.859375 623.75 879.277344 623.75 L 873.472656 623.332031 Z M 877.167969 612.917969 L 876.640625 621.667969 L 879.277344 621.667969 C 880.332031 621.667969 880.859375 621.667969 881.390625 621.667969 C 881.917969 621.25 881.917969 621.25 882.445312 621.25 C 882.972656 620.832031 882.972656 620.417969 883.5 620 C 883.5 619.167969 884.027344 618.332031 884.027344 617.5 C 884.027344 616.667969 884.027344 615.832031 883.5 615.417969 C 883.5 614.582031 883.5 614.167969 882.972656 614.167969 C 882.445312 613.75 881.917969 613.332031 881.390625 613.332031 C 880.859375 613.332031 879.804688 613.332031 878.75 613.332031 Z M 877.167969 612.917969 "/>
<path style=" stroke:none;fill-rule:nonzero;fill:rgb(0%,0%,0%);fill-opacity:1;" d="M 1012.277344 613.75 L 1015.445312 613.332031 L 1017.027344 620.832031 C 1017.027344 622.082031 1017.027344 622.917969 1017.027344 623.332031 C 1016.5 624.167969 1015.972656 624.582031 1015.445312 625.417969 C 1014.917969 625.832031 1013.859375 626.25 1012.277344 626.25 C 1010.695312 626.25 1009.640625 626.25 1008.582031 625.417969 C 1007.527344 625 1007 624.167969 1007 622.5 L 1009.640625 622.082031 C 1010.167969 622.917969 1010.167969 623.332031 1010.695312 623.75 C 1010.695312 624.167969 1011.222656 624.167969 1012.277344 624.167969 C 1012.804688 624.167969 1013.332031 623.75 1013.332031 623.332031 C 1013.859375 622.917969 1013.859375 622.5 1013.859375 621.25 L 1012.277344 613.332031 Z M 1017.554688 612.917969 L 1020.722656 612.5 L 1022.304688 619.167969 C 1022.832031 620 1022.832031 620.832031 1022.832031 621.25 C 1023.359375 621.667969 1023.890625 622.082031 1024.417969 622.082031 C 1024.945312 622.5 1025.472656 622.5 1026.527344 622.082031 C 1027.582031 622.082031 1028.109375 621.667969 1028.109375 621.667969 C 1028.640625 621.25 1029.167969 620.832031 1028.640625 620.417969 C 1028.640625 620 1028.640625 619.167969 1028.640625 618.332031 L 1026.527344 611.667969 L 1029.695312 611.25 L 1031.277344 617.5 C 1031.804688 618.75 1031.804688 620 1031.804688 620.417969 C 1031.804688 621.25 1031.804688 621.667969 1031.277344 622.082031 C 1031.277344 622.5 1030.75 622.917969 1030.222656 623.332031 C 1029.167969 623.75 1028.109375 624.167969 1027.054688 624.167969 C 1025.472656 624.582031 1024.417969 624.582031 1023.890625 624.582031 C 1022.832031 624.167969 1022.304688 624.167969 1021.777344 623.75 C 1021.25 623.332031 1020.722656 622.917969 1020.195312 622.5 C 1020.195312 621.667969 1019.667969 620.832031 1019.140625 619.582031 Z M 1033.917969 618.75 L 1036.554688 617.917969 C 1037.082031 618.75 1037.609375 619.167969 1038.667969 619.167969 C 1039.195312 619.582031 1040.25 619.582031 1040.777344 619.167969 C 1041.832031 619.167969 1042.359375 618.75 1042.890625 618.332031 C 1043.417969 617.917969 1043.417969 617.5 1043.417969 617.082031 C 1042.890625 616.667969 1042.890625 616.667969 1042.890625 616.25 C 1042.359375 616.25 1041.832031 616.25 1041.304688 616.25 C 1040.777344 616.25 1040.25 616.25 1038.667969 616.25 C 1037.082031 616.25 1035.5 616.25 1034.972656 615.832031 C 1033.917969 615.417969 1032.859375 614.582031 1032.332031 613.75 C 1032.332031 613.332031 1032.332031 612.5 1032.332031 612.082031 C 1032.859375 611.25 1033.390625 610.832031 1033.917969 610.417969 C 1034.445312 610 1035.5 609.582031 1036.554688 609.167969 C 1038.667969 608.75 1040.25 608.75 1041.304688 609.167969 C 1042.359375 609.582031 1043.417969 610.417969 1043.945312 611.25 L 1040.777344 612.082031 C 1040.25 611.667969 1040.25 611.25 1039.722656 611.25 C 1039.195312 610.832031 1038.140625 610.832031 1037.609375 611.25 C 1036.554688 611.25 1036.027344 611.667969 1035.5 612.082031 C 1035.5 612.5 1035.5 612.5 1035.5 612.917969 C 1035.5 613.332031 1035.5 613.332031 1036.027344 613.75 C 1036.554688 613.75 1037.609375 613.75 1039.195312 613.75 C 1040.777344 613.75 1041.832031 613.75 1042.890625 613.75 C 1043.417969 613.75 1044.472656 614.167969 1045 614.582031 C 1045.527344 615 1046.054688 615.417969 1046.054688 616.25 C 1046.582031 617.082031 1046.582031 617.5 1046.054688 618.332031 C 1046.054688 619.167969 1045.527344 619.582031 1045 620 C 1043.945312 620.417969 1042.890625 620.832031 1041.832031 621.25 C 1039.722656 621.667969 1038.140625 621.667969 1037.082031 621.25 C 1035.5 620.832031 1034.445312 620 1033.917969 618.75 Z M 1053.445312 617.917969 L 1048.167969 608.332031 L 1043.945312 610 L 1042.890625 607.917969 L 1054.5 604.167969 L 1055.554688 605.832031 L 1051.332031 607.5 L 1056.082031 616.667969 Z M 1062.417969 614.582031 L 1055.027344 603.75 L 1057.667969 602.5 L 1065.054688 613.332031 Z M 1072.972656 604.582031 L 1076.140625 603.75 C 1076.667969 605 1076.667969 606.25 1076.140625 607.082031 C 1075.609375 608.332031 1075.082031 609.167969 1073.5 610 C 1071.390625 610.832031 1069.804688 610.832031 1067.695312 610.417969 C 1066.109375 610 1064.527344 609.167969 1062.945312 607.5 C 1061.890625 605.832031 1061.359375 604.167969 1061.890625 602.5 C 1061.890625 601.25 1062.945312 600 1065.054688 598.75 C 1066.640625 598.332031 1068.222656 597.917969 1069.804688 598.332031 C 1070.859375 598.332031 1071.917969 598.75 1072.972656 599.582031 L 1070.332031 601.25 C 1069.804688 600.832031 1069.277344 600.417969 1068.222656 600.417969 C 1067.695312 600.417969 1067.167969 600.417969 1066.109375 600.832031 C 1065.054688 601.25 1064.527344 602.082031 1064.527344 602.917969 C 1064.527344 603.75 1065.054688 604.582031 1065.582031 605.832031 C 1066.640625 607.5 1067.695312 607.917969 1068.75 608.332031 C 1069.804688 608.75 1070.859375 608.332031 1071.917969 607.917969 C 1072.445312 607.5 1072.972656 607.082031 1073.5 606.667969 C 1073.5 605.832031 1073.5 605.417969 1072.972656 604.582031 Z M 1080.890625 605.832031 L 1071.390625 595.832031 L 1074.027344 594.167969 L 1083.527344 604.167969 Z M 1096.195312 595.417969 L 1093.554688 597.082031 L 1090.390625 595.832031 L 1085.640625 599.167969 L 1087.222656 601.667969 L 1084.582031 603.75 L 1078.777344 591.25 L 1081.417969 589.582031 Z M 1087.75 594.582031 L 1082.472656 592.5 L 1084.582031 597.082031 Z M 1087.75 594.582031 "/>
</g>
</svg>
