<?xml version="1.0" encoding="UTF-8"?>
<svg xmlns="http://www.w3.org/2000/svg" xmlns:xlink="http://www.w3.org/1999/xlink" width="1900pt" height="1000pt" viewBox="0 0 1900 1000" version="1.1">
<g id="surface1">
<rect x="0" y="0" width="1900" height="1000" style="fill:rgb(85.490196%,14.509804%,11.372549%);fill-opacity:1;stroke:none;"/>
<path style=" stroke:none;fill-rule:nonzero;fill:rgb(100%,100%,0%);fill-opacity:1;" d="M 950 200 L 832.574219 485.316406 L 1073.507812 547.121094 "/>
<path style=" stroke:none;fill-rule:nonzero;fill:rgb(100%,100%,0%);fill-opacity:1;" d="M 950 200 L 1067.425781 485.316406 L 826.492188 547.121094 "/>
<path style=" stroke:none;fill-rule:nonzero;fill:rgb(100%,100%,0%);fill-opacity:1;" d="M 1311.402344 407.292969 L 931.402344 407.292969 L 931.402344 607.292969 "/>
<path style=" stroke:none;fill-rule:nonzero;fill:rgb(100%,100%,0%);fill-opacity:1;" d="M 1311.402344 407.292969 L 1003.976562 583.628906 L 855.070312 421.828125 "/>
<path style=" stroke:none;fill-rule:nonzero;fill:rgb(100%,100%,0%);fill-opacity:1;" d="M 1173.359375 742.707031 L 1055.933594 457.386719 L 814.996094 519.191406 "/>
<path style=" stroke:none;fill-rule:nonzero;fill:rgb(100%,100%,0%);fill-opacity:1;" d="M 1173.359375 742.707031 L 865.933594 566.371094 L 1014.835938 404.566406 "/>
<path style=" stroke:none;fill-rule:nonzero;fill:rgb(100%,100%,0%);fill-opacity:1;" d="M 588.597656 407.292969 L 968.597656 407.292969 L 968.597656 607.292969 "/>
<path style=" stroke:none;fill-rule:nonzero;fill:rgb(100%,100%,0%);fill-opacity:1;" d="M 588.597656 407.292969 L 896.023438 583.628906 L 1044.929688 421.828125 "/>
<path style=" stroke:none;fill-rule:nonzero;fill:rgb(100%,100%,0%);fill-opacity:1;" d="M 726.640625 742.707031 L 844.066406 457.386719 L 1085.003906 519.191406 "/>
<path style=" stroke:none;fill-rule:nonzero;fill:rgb(100%,100%,0%);fill-opacity:1;" d="M 726.640625 742.707031 L 1034.066406 566.371094 L 885.164062 404.566406 "/>
</g>
</svg>
