<?xml version="1.0" encoding="UTF-8"?>
<svg xmlns="http://www.w3.org/2000/svg" xmlns:xlink="http://www.w3.org/1999/xlink" width="1900pt" height="1000pt" viewBox="0 0 1900 1000" version="1.1">
<g id="surface1">
<rect x="0" y="0" width="1900" height="1000" style="fill:rgb(85.490196%,7.058824%,10.196078%);fill-opacity:1;stroke:none;"/>
<path style=" stroke:none;fill-rule:nonzero;fill:rgb(98.823529%,86.666667%,3.529412%);fill-opacity:1;" d="M 0 0 L 1900 0 L 1900 666.667969 L 0 666.667969 Z M 0 0 "/>
<path style=" stroke:none;fill-rule:nonzero;fill:rgb(2.745098%,53.72549%,18.823529%);fill-opacity:1;" d="M 0 0 L 1900 0 L 1900 333.332031 L 0 333.332031 Z M 0 0 "/>
<path style=" stroke:none;fill-rule:nonzero;fill:rgb(5.882353%,27.843137%,68.627451%);fill-opacity:1;" d="M 1266.667969 500 C 1266.667969 684.09375 1124.890625 833.332031 950 833.332031 C 775.109375 833.332031 633.332031 684.09375 633.332031 500 C 633.332031 315.90625 775.109375 166.667969 950 166.667969 C 1124.890625 166.667969 1266.667969 315.90625 1266.667969 500 Z M 1266.667969 500 "/>
<path style=" stroke:none;fill-rule:nonzero;fill:rgb(98.823529%,86.666667%,3.529412%);fill-opacity:1;" d="M 709.066406 416.558594 L 893.125 416.558594 L 934.738281 281.738281 L 945.839844 317.691406 L 885.359375 513.617188 L 867.402344 499.882812 L 886.265625 438.78125 L 738.121094 438.78125 L 709.066406 416.558594 M 801.09375 714.703125 L 857.972656 530.4375 L 749.019531 447.113281 L 784.933594 447.113281 L 943.265625 568.203125 L 925.308594 581.9375 L 875.929688 544.171875 L 830.152344 692.480469 L 801.09375 714.703125 M 1098.90625 714.703125 L 950 600.820312 L 841.046875 684.144531 L 852.148438 648.1875 L 1010.476562 527.101562 L 1017.335938 549.324219 L 967.957031 587.085938 L 1087.808594 678.746094 L 1098.90625 714.703125 M 1190.933594 416.558594 L 1042.027344 530.4375 L 1083.644531 665.261719 L 1054.585938 643.039062 L 994.109375 447.113281 L 1016.308594 447.113281 L 1035.167969 508.21875 L 1155.019531 416.558594 L 1190.933594 416.558594 M 950 232.296875 L 1006.875 416.558594 L 1141.550781 416.558594 L 1112.492188 438.78125 L 916.785156 438.78125 L 923.644531 416.558594 L 984.679688 416.558594 L 938.902344 268.253906 Z M 950 232.296875 "/>
<path style="fill-rule:nonzero;fill:rgb(0%,0%,0%);fill-opacity:1;stroke-width:6.666665;stroke-linecap:butt;stroke-linejoin:miter;stroke:rgb(98.823529%,86.666667%,3.529412%);stroke-opacity:1;stroke-miterlimit:4;" d="M 600 373.333594 L 600 460.000781 M 530.257401 322.661719 L 447.831414 349.441406 M 556.897204 240.672656 L 505.953947 170.557031 M 643.105263 240.672656 L 694.046053 170.557031 M 669.745066 322.661719 L 752.168586 349.441406 Z M 669.745066 322.661719 " transform="matrix(1.583333,0,0,1.666667,0,0)"/>
</g>
</svg>
