<?xml version="1.0" encoding="UTF-8"?>
<svg xmlns="http://www.w3.org/2000/svg" xmlns:xlink="http://www.w3.org/1999/xlink" width="380pt" height="200pt" viewBox="0 0 1900 1000" version="1.1">
<g id="surface1">
<rect x="0" y="0" width="1900" height="1000" style="fill:rgb(0%,0%,54.509804%);fill-opacity:1;stroke:none;"/>
<path style=" stroke:none;fill-rule:nonzero;fill:rgb(100%,100%,100%);fill-opacity:1;" d="M 475 600 L 502.480469 689.933594 L 586.410156 656.476562 L 536.746094 735.164062 L 613.925781 783.378906 L 524.515625 791.566406 L 536.828125 885.144531 L 475 816.667969 L 413.171875 885.144531 L 425.484375 791.566406 L 336.074219 783.378906 L 413.253906 735.164062 L 363.589844 656.476562 L 447.519531 689.933594 Z M 475 600 "/>
<path style=" stroke:none;fill-rule:nonzero;fill:rgb(100%,100%,100%);fill-opacity:1;" d="M 1425 761.90625 L 1438.085938 804.730469 L 1478.054688 788.796875 L 1454.402344 826.269531 L 1491.15625 849.226562 L 1448.578125 853.125 L 1454.441406 897.6875 L 1425 865.078125 L 1395.558594 897.6875 L 1401.421875 853.125 L 1358.84375 849.226562 L 1395.597656 826.269531 L 1371.945312 788.796875 L 1411.914062 804.730469 Z M 1425 761.90625 "/>
<path style=" stroke:none;fill-rule:nonzero;fill:rgb(100%,100%,100%);fill-opacity:1;" d="M 1187.5 366.070312 L 1200.585938 408.898438 L 1240.554688 392.964844 L 1216.902344 430.4375 L 1253.65625 453.394531 L 1211.078125 457.292969 L 1216.941406 501.855469 L 1187.5 469.246094 L 1158.058594 501.855469 L 1163.921875 457.292969 L 1121.34375 453.394531 L 1158.097656 430.4375 L 1134.445312 392.964844 L 1174.414062 408.898438 Z M 1187.5 366.070312 "/>
<path style=" stroke:none;fill-rule:nonzero;fill:rgb(100%,100%,100%);fill-opacity:1;" d="M 1425 95.238281 L 1438.085938 138.066406 L 1478.054688 122.132812 L 1454.402344 159.601562 L 1491.15625 182.5625 L 1448.578125 186.460938 L 1454.441406 231.023438 L 1425 198.414062 L 1395.558594 231.023438 L 1401.421875 186.460938 L 1358.84375 182.5625 L 1395.597656 159.601562 L 1371.945312 122.132812 L 1411.914062 138.066406 Z M 1425 95.238281 "/>
<path style=" stroke:none;fill-rule:nonzero;fill:rgb(100%,100%,100%);fill-opacity:1;" d="M 1636.109375 299.40625 L 1649.195312 342.230469 L 1689.164062 326.296875 L 1665.515625 363.769531 L 1702.265625 386.726562 L 1659.691406 390.625 L 1665.554688 435.1875 L 1636.109375 402.578125 L 1606.667969 435.1875 L 1612.53125 390.625 L 1569.957031 386.726562 L 1606.707031 363.769531 L 1583.058594 326.296875 L 1623.027344 342.230469 Z M 1636.109375 299.40625 "/>
<path style=" stroke:none;fill-rule:nonzero;fill:rgb(100%,100%,100%);fill-opacity:1;" d="M 1520 500 L 1530.339844 526.683594 L 1557.644531 528.789062 L 1536.730469 547.390625 L 1543.265625 575.375 L 1520 560.183594 L 1496.734375 575.375 L 1503.269531 547.390625 L 1482.355469 528.789062 L 1509.660156 526.683594 Z M 1520 500 "/>
<path style=" stroke:none;fill-rule:nonzero;fill:rgb(100%,100%,100%);fill-opacity:1;" d="M 395.832031 0 L 554.167969 0 L 554.167969 166.667969 L 950 166.667969 L 950 333.332031 L 554.167969 333.332031 L 554.167969 500 L 395.832031 500 L 395.832031 333.332031 L 0 333.332031 L 0 166.667969 L 395.832031 166.667969 Z M 395.832031 0 "/>
<path style=" stroke:none;fill-rule:nonzero;fill:rgb(100%,100%,100%);fill-opacity:1;" d="M 0 0 L 106.214844 0 L 950 444.097656 L 950 500 L 843.785156 500 L 0 55.902344 Z M 0 0 "/>
<path style=" stroke:none;fill-rule:nonzero;fill:rgb(100%,100%,100%);fill-opacity:1;" d="M 950 0 L 843.785156 0 L 0 444.097656 L 0 500 L 106.214844 500 L 950 55.902344 Z M 950 0 "/>
<path style=" stroke:none;fill-rule:nonzero;fill:rgb(100%,0%,0%);fill-opacity:1;" d="M 427.5 0 L 522.5 0 L 522.5 200 L 950 200 L 950 300 L 522.5 300 L 522.5 500 L 427.5 500 L 427.5 300 L 0 300 L 0 200 L 427.5 200 Z M 427.5 0 "/>
<path style=" stroke:none;fill-rule:nonzero;fill:rgb(100%,0%,0%);fill-opacity:1;" d="M 0 0 L 316.667969 166.667969 L 245.859375 166.667969 L 0 37.269531 Z M 950 0 L 879.191406 0 L 562.523438 166.667969 L 633.332031 166.667969 Z M 950 0 "/>
<path style=" stroke:none;fill-rule:nonzero;fill:rgb(100%,0%,0%);fill-opacity:1;" d="M 950 500 L 633.332031 333.332031 L 704.140625 333.332031 L 950 462.730469 Z M 0 500 L 70.808594 500 L 387.476562 333.332031 L 316.667969 333.332031 Z M 0 500 "/>
</g>
</svg>
