<?xml version="1.0" encoding="UTF-8"?>
<svg xmlns="http://www.w3.org/2000/svg" xmlns:xlink="http://www.w3.org/1999/xlink" width="1900pt" height="1000pt" viewBox="0 0 1900 1000" version="1.1">
<defs>
<clipPath id="clip1">
  <path d="M 352.101562 166.667969 L 597.90625 166.667969 L 597.90625 499.988281 L 352.101562 499.988281 Z M 352.101562 166.667969 "/>
</clipPath>
<clipPath id="clip2">
  <path d="M 352.101562 191 L 597.90625 191 L 597.90625 499.988281 L 352.101562 499.988281 Z M 352.101562 191 "/>
</clipPath>
</defs>
<g id="surface1">
<rect x="0" y="0" width="1900" height="1000" style="fill:rgb(92.941176%,10.980392%,14.117647%);fill-opacity:1;stroke:none;"/>
<path style=" stroke:none;fill-rule:nonzero;fill:rgb(0%,36.470588%,64.313725%);fill-opacity:1;" d="M 0 0 L 1900 0 L 1900 666.667969 L 0 666.667969 Z M 0 0 "/>
<path style=" stroke:none;fill-rule:nonzero;fill:rgb(100%,100%,100%);fill-opacity:1;" d="M 0 0 L 1900 0 L 1900 333.332031 L 0 333.332031 Z M 0 0 "/>
<g clip-path="url(#clip1)" clip-rule="nonzero">
<path style=" stroke:none;fill-rule:nonzero;fill:rgb(0%,36.470588%,64.313725%);fill-opacity:1;" d="M 587.925781 350.738281 L 597.902344 195.769531 C 520.117188 156.96875 429.890625 156.96875 352.105469 195.769531 L 362.082031 350.738281 C 366.558594 420.375 411.53125 479.816406 475.003906 499.996094 C 538.476562 479.816406 583.445312 420.375 587.925781 350.738281 "/>
</g>
<path style=" stroke:none;fill-rule:nonzero;fill:rgb(100%,100%,100%);fill-opacity:1;" d="M 382.828125 371.738281 C 393.515625 422.359375 428.421875 463.5 475.003906 480.375 C 521.585938 463.5 556.492188 422.359375 567.175781 371.738281 L 521.089844 307.054688 L 502.65625 332.925781 L 475.003906 274.710938 L 447.351562 332.925781 L 428.917969 307.054688 L 382.828125 371.738281 "/>
<path style=" stroke:none;fill-rule:nonzero;fill:rgb(0%,36.470588%,64.313725%);fill-opacity:1;" d="M 386.945312 387.910156 C 395.429688 403.378906 414.222656 408.675781 428.917969 399.746094 C 438.421875 393.96875 450.136719 393.96875 459.640625 399.746094 C 469.148438 405.523438 480.859375 405.523438 490.367188 399.746094 C 499.871094 393.96875 511.585938 393.96875 521.089844 399.746094 C 535.785156 408.675781 554.578125 403.378906 563.0625 387.910156 L 563.0625 397.246094 C 554.578125 412.714844 535.785156 418.011719 521.089844 409.082031 C 511.585938 403.304688 499.871094 403.304688 490.367188 409.082031 C 480.859375 414.859375 469.148438 414.859375 459.640625 409.082031 C 450.136719 403.304688 438.421875 403.304688 428.917969 409.082031 C 414.222656 418.011719 395.429688 412.714844 386.945312 397.246094 Z M 386.945312 387.910156 "/>
<path style=" stroke:none;fill-rule:nonzero;fill:rgb(0%,36.470588%,64.313725%);fill-opacity:1;" d="M 386.945312 406.582031 C 395.429688 422.050781 414.222656 427.351562 428.917969 418.417969 C 438.421875 412.640625 450.136719 412.640625 459.640625 418.417969 C 469.148438 424.195312 480.859375 424.195312 490.367188 418.417969 C 499.871094 412.640625 511.585938 412.640625 521.089844 418.417969 C 535.785156 427.351562 554.578125 422.050781 563.0625 406.582031 L 563.0625 415.917969 C 554.578125 431.386719 535.785156 436.6875 521.089844 427.753906 C 511.585938 421.976562 499.871094 421.976562 490.367188 427.753906 C 480.859375 433.53125 469.148438 433.53125 459.640625 427.753906 C 450.136719 421.976562 438.421875 421.976562 428.917969 427.753906 C 414.222656 436.6875 395.429688 431.386719 386.945312 415.917969 Z M 386.945312 406.582031 "/>
<path style=" stroke:none;fill-rule:nonzero;fill:rgb(100%,86.666667%,0%);fill-opacity:1;" d="M 475.003906 230.242188 L 477.308594 238.167969 L 484.980469 236.308594 L 479.613281 242.371094 L 484.980469 248.433594 L 477.308594 246.574219 L 475.003906 254.5 L 472.699219 246.574219 L 465.023438 248.433594 L 470.394531 242.371094 L 465.023438 236.308594 L 472.699219 238.167969 Z M 475.003906 230.242188 "/>
<path style=" stroke:none;fill-rule:nonzero;fill:rgb(100%,86.666667%,0%);fill-opacity:1;" d="M 440.4375 181.730469 L 442.742188 189.65625 L 450.417969 187.792969 L 445.046875 193.859375 L 450.417969 199.921875 L 442.742188 198.058594 L 440.4375 205.988281 L 438.132812 198.058594 L 430.460938 199.921875 L 435.828125 193.859375 L 430.460938 187.792969 L 438.132812 189.65625 Z M 440.4375 181.730469 "/>
<path style=" stroke:none;fill-rule:nonzero;fill:rgb(100%,86.666667%,0%);fill-opacity:1;" d="M 509.566406 181.730469 L 511.871094 189.65625 L 519.546875 187.792969 L 514.175781 193.859375 L 519.546875 199.921875 L 511.871094 198.058594 L 509.566406 205.988281 L 507.265625 198.058594 L 499.589844 199.921875 L 504.960938 193.859375 L 499.589844 187.792969 L 507.265625 189.65625 Z M 509.566406 181.730469 "/>
<g clip-path="url(#clip2)" clip-rule="nonzero">
<path style=" stroke:none;fill-rule:nonzero;fill:rgb(92.941176%,10.980392%,14.117647%);fill-opacity:1;" d="M 360.726562 191.648438 L 370.929688 350.113281 C 375.097656 414.835938 416.335938 470.34375 475.003906 490.203125 C 533.671875 470.34375 574.90625 414.835938 579.078125 350.113281 L 589.277344 191.648438 C 592.128906 193.070312 595.003906 194.445312 597.902344 195.765625 L 587.925781 350.738281 C 583.445312 420.371094 538.476562 479.8125 475.003906 499.992188 C 411.53125 479.8125 366.558594 420.371094 362.082031 350.738281 L 352.105469 195.765625 C 355 194.445312 357.875 193.070312 360.726562 191.648438 "/>
</g>
</g>
</svg>
