<?xml version="1.0" encoding="UTF-8"?>
<svg xmlns="http://www.w3.org/2000/svg" xmlns:xlink="http://www.w3.org/1999/xlink" width="1900pt" height="1000pt" viewBox="0 0 1900 1000" version="1.1">
<g id="surface1">
<path style=" stroke:none;fill-rule:nonzero;fill:rgb(0%,21.960784%,57.647059%);fill-opacity:1;" d="M 0 -0.015625 L 1900 -0.015625 L 1900 999.984375 L 0 999.984375 Z M 0 -0.015625 "/>
<path style=" stroke:none;fill-rule:evenodd;fill:rgb(100%,100%,100%);fill-opacity:1;" d="M 365.121094 675.101562 L 352.320312 462.222656 L 307.679688 579.503906 L 327.601562 455.664062 L 254.078125 557.34375 L 305.441406 442.863281 L 208.160156 522.0625 L 287.359375 424.785156 L 172.878906 476.0625 L 274.558594 402.625 L 150.640625 422.542969 L 267.921875 377.902344 L 55.121094 365.101562 L 267.921875 352.304688 L 150.640625 307.664062 L 274.558594 327.582031 L 172.878906 254.0625 L 287.359375 305.421875 L 208.160156 208.144531 L 305.441406 287.34375 L 254.078125 172.863281 L 327.601562 274.542969 L 307.679688 150.703125 L 352.320312 267.902344 L 365.121094 55.101562 L 377.921875 267.902344 L 422.558594 150.703125 L 402.640625 274.542969 L 476.078125 172.863281 L 424.71875 287.34375 L 522.078125 208.144531 L 442.878906 305.421875 L 557.359375 254.0625 L 455.679688 327.582031 L 579.519531 307.664062 L 462.238281 352.304688 L 675.121094 365.101562 L 462.238281 377.902344 L 579.519531 422.542969 L 455.679688 402.625 L 557.359375 476.0625 L 442.878906 424.785156 L 522.078125 522.0625 L 424.71875 442.863281 L 476.078125 557.34375 L 402.640625 455.664062 L 422.558594 579.503906 L 377.921875 462.222656 Z M 365.121094 675.101562 "/>
<path style=" stroke:none;fill-rule:evenodd;fill:rgb(100%,100%,100%);fill-opacity:1;" d="M 0 983.984375 L 1900 407.984375 L 1900 15.984375 L 0 951.984375 Z M 0 983.984375 "/>
<path style=" stroke:none;fill-rule:evenodd;fill:rgb(86.666667%,45.882353%,0%);fill-opacity:1;" d="M 0 967.984375 L 1900 211.984375 L 1900 15.984375 L 0 951.984375 Z M 0 967.984375 "/>
</g>
</svg>
