<?xml version="1.0" encoding="UTF-8"?>
<svg xmlns="http://www.w3.org/2000/svg" xmlns:xlink="http://www.w3.org/1999/xlink" width="1900pt" height="1000pt" viewBox="0 0 1900 1000" version="1.1">
<g id="surface1">
<rect x="0" y="0" width="1900" height="1000" style="fill:rgb(80.784314%,6.666667%,14.901961%);fill-opacity:1;stroke:none;"/>
<path style=" stroke:none;fill-rule:nonzero;fill:rgb(0%,0%,0%);fill-opacity:1;" d="M 949.992188 287.441406 C 937.574219 285.914062 937.242188 283.152344 943.507812 276.804688 C 946.171875 274.109375 944.007812 272.519531 935.355469 274.359375 C 928.945312 275.71875 921.707031 269.214844 918.488281 266.210938 C 915.515625 263.441406 915.824219 262.941406 919.371094 262.941406 C 922.929688 262.941406 929.585938 260.664062 931.359375 259.03125 C 933.136719 257.394531 932.691406 255.4375 927.8125 256.089844 C 922.929688 256.746094 908.441406 251.347656 902.949219 245.960938 C 900.292969 243.351562 899.847656 242.042969 904.285156 241.066406 C 908.722656 240.082031 913.167969 238.125 916.269531 236.492188 C 919.371094 234.859375 917.605469 232.90625 911.824219 232.25 C 906.058594 231.597656 893.476562 226.636719 887.859375 221.472656 C 886.082031 219.839844 884.300781 217.878906 889.628906 216.894531 C 894.960938 215.917969 907.828125 209.394531 911.382812 205.804688 C 914.929688 202.210938 915.371094 198.285156 905.164062 201.550781 C 894.957031 204.820312 874.539062 205.804688 862.554688 203.835938 C 837.253906 195.015625 800.410156 183.585938 786.207031 200.25 C 762.234375 199.269531 733.390625 198.285156 738.710938 220.164062 C 743.480469 219.839844 746.109375 217.828125 747.589844 215.59375 C 749.703125 212.402344 756.824219 211.855469 763.570312 213.636719 C 769.449219 215.183594 774.230469 217.476562 769.890625 221.308594 C 767.671875 223.265625 759.011719 224.242188 753.691406 223.265625 C 748.363281 222.289062 738.472656 221.136719 732.714844 220.660156 C 728.835938 220.332031 721.179688 216.730469 717.628906 211.675781 C 714.082031 206.613281 704.980469 200.574219 699.207031 204.167969 C 693.433594 207.761719 700.316406 213.796875 706.082031 217.554688 C 711.863281 221.308594 723.621094 226.046875 729.828125 226.046875 C 738.050781 226.046875 746.039062 227.511719 750.25 228.167969 C 752.242188 239.699219 772.886719 244.925781 790.207031 244.597656 C 807.511719 244.273438 830.371094 250.457031 851.449219 263.269531 C 878.753906 279.867188 898.0625 334.730469 851.894531 334.730469 C 823.050781 334.730469 827.488281 313.5 828.371094 301.417969 C 829.257812 289.335938 820.382812 276.269531 800.851562 271.050781 C 781.324219 265.824219 741.375 255.703125 730.28125 251.125 C 725.84375 248.84375 721.148438 256.925781 720.515625 261.578125 C 720.066406 264.847656 715.074219 265.128906 700.984375 261.902344 C 661.03125 252.757812 624.636719 237.089844 607.328125 212.917969 C 590.015625 188.753906 557.375 212.507812 573.589844 232.839844 C 593.128906 257.328125 658.371094 277.253906 699.648438 281.171875 C 718.832031 282.992188 718.660156 299.863281 700.539062 301.746094 C 662.808594 305.667969 625.894531 305.132812 602.890625 283.128906 C 585.132812 266.148438 567.667969 281.410156 575.371094 294.886719 C 591.792969 323.625 647.519531 335.746094 701.867188 316.441406 C 714.742188 311.867188 728.546875 312.632812 717.40625 323.949219 C 689.441406 352.363281 652.214844 356.753906 605.550781 335.707031 C 591.792969 329.503906 581.136719 330.480469 578.03125 334.402344 C 572.570312 341.285156 570.109375 347.507812 586.023438 355.957031 C 621.085938 374.566406 661.707031 373.265625 694.320312 360.851562 C 707.199219 355.957031 730.71875 352.035156 709.863281 372.28125 C 689 392.535156 635.730469 402.980469 613.984375 391.550781 C 592.234375 380.117188 565.15625 390.566406 582.46875 408.207031 C 599.777344 425.839844 635.730469 421.269531 652.152344 414.738281 C 668.582031 408.207031 693.878906 399.390625 704.535156 395.796875 C 715.183594 392.203125 720.160156 398.335938 708.085938 408.53125 C 681.007812 431.394531 653.105469 450.59375 615.316406 441.511719 C 593.566406 436.289062 573.589844 435.636719 579.367188 455.230469 C 585.136719 474.824219 629.960938 476.132812 652.15625 466.332031 C 674.355469 456.535156 694.320312 445.433594 707.644531 435.960938 C 720.957031 426.492188 734.417969 426.851562 719.625 442.820312 C 686.335938 478.742188 657.910156 505.039062 610.4375 498.335938 C 566.492188 492.128906 577.421875 511.539062 586.914062 517.601562 C 613.988281 534.90625 661.480469 530.335938 718.296875 479.074219 C 722.726562 475.066406 730.191406 476.226562 726.285156 483.640625 C 700.996094 531.644531 658.824219 562.667969 617.988281 555.15625 C 596.746094 551.25 576.027344 559.945312 597.566406 573.773438 C 621.984375 589.449219 666.371094 583.570312 698.328125 557.445312 C 730.289062 531.320312 749.816406 512.707031 756.917969 502.90625 C 764.019531 493.113281 774.675781 492.78125 773.339844 505.519531 C 772.011719 518.253906 759.136719 543.074219 736.496094 551.242188 C 724.78125 555.46875 714.308594 564.957031 736.496094 572.140625 C 758.695312 579.324219 784.882812 550.257812 806.1875 507.808594 C 808.695312 502.820312 823.371094 501.582031 823.058594 511.070312 C 822.617188 524.460938 813.738281 535.5625 803.972656 542.09375 C 794.207031 548.625 801.84375 559.5625 815.066406 555.15625 C 833.710938 548.953125 845.488281 539.839844 852.792969 526.09375 C 856.792969 518.585938 865.804688 516 860.785156 527.726562 C 845.695312 562.992188 811.957031 579.976562 767.574219 596.300781 C 774.234375 601.199219 780.222656 606.589844 786.214844 611 C 758.917969 621.285156 730.289062 628.144531 707.652344 635.003906 C 689.671875 626.183594 673.691406 621.289062 665.707031 612.957031 C 663.046875 601.691406 644.40625 596.796875 632.410156 601.691406 C 611.777344 595.8125 597.125 597.285156 595.796875 611.488281 C 607.78125 610.015625 617.769531 608.546875 626.425781 614.429688 C 630.410156 621.289062 643.070312 624.71875 655.050781 621.777344 C 668.371094 627.652344 679.6875 633.53125 687.671875 637.449219 C 662.375 636.964844 643.734375 635.980469 630.410156 635.003906 C 617.769531 625.699219 605.785156 625.699219 596.460938 632.0625 C 581.144531 629.613281 569.164062 634.839844 565.164062 644.636719 C 576.707031 643.660156 587.359375 640.714844 594.910156 643.660156 C 601.121094 652.148438 618.433594 652.472656 629.53125 646.273438 C 646.398438 645.941406 679.246094 645.613281 686.789062 645.613281 C 675.695312 650.511719 662.375 656.390625 655.722656 659.328125 C 629.53125 655.410156 615.324219 662.921875 617.101562 676.96875 C 610.890625 684.152344 611.332031 694.273438 618.882812 698.839844 C 620.644531 692.964844 625.089844 685.453125 631.304688 681.210938 C 647.285156 683.492188 658.828125 679.578125 663.707031 666.511719 C 673.914062 661.617188 687.230469 655.410156 692.554688 652.796875 C 697.886719 650.1875 702.132812 647.183594 714.308594 651.164062 C 726.296875 655.089844 737.390625 658.355469 744.488281 661.292969 C 748.488281 672.71875 763.578125 673.378906 773.339844 668.152344 C 779.558594 670.761719 784.882812 675.335938 788.4375 680.234375 C 794.203125 672.71875 791.101562 662.597656 779.996094 659.984375 C 776.007812 651.164062 761.800781 648.230469 751.59375 652.472656 C 743.160156 649.863281 731.175781 645.617188 725.851562 643.984375 C 743.160156 639.417969 787.097656 627.328125 802.636719 622.429688 C 817.285156 630.597656 833.710938 638.433594 845.695312 636.148438 C 847.46875 628.308594 852.953125 621.859375 860.339844 610.675781 C 872.101562 592.875 886.753906 576.222656 898.734375 565.933594 C 910.722656 555.644531 922.867188 561.539062 922.035156 575.734375 C 920.042969 610.019531 885.644531 661.292969 835.039062 663.246094 C 817.738281 663.925781 810.863281 666.527344 820.390625 675.988281 C 829.269531 684.804688 856.789062 685.949219 872.101562 677.621094 C 887.414062 669.289062 892.742188 669.777344 889.632812 680.886719 C 886.523438 691.988281 869.191406 696.214844 856.347656 696.886719 C 837.703125 697.867188 816.394531 702.769531 833.710938 714.523438 C 851.023438 726.277344 879.425781 719.742188 900.292969 702.113281 C 907.527344 695.992188 913.234375 694.257812 912.714844 704.070312 C 911.832031 721.050781 898.070312 731.832031 883.867188 734.117188 C 869.664062 736.398438 855.46875 739.15625 859.453125 745.21875 C 866.113281 755.339844 888.304688 756.976562 900.730469 752.078125 C 913.167969 747.179688 926.480469 738.035156 929.148438 732.484375 C 931.8125 726.933594 937.25 730.09375 935.792969 737.710938 C 932.691406 754.039062 917.152344 753.707031 917.152344 767.097656 C 917.152344 780.488281 932.25 793.550781 949.996094 808.25 C 967.761719 793.550781 982.851562 780.488281 982.851562 767.097656 C 982.851562 753.707031 967.320312 754.039062 964.214844 737.710938 C 962.765625 730.097656 968.207031 726.933594 970.867188 732.484375 C 973.523438 738.035156 986.839844 747.179688 999.28125 752.078125 C 1011.695312 756.976562 1033.898438 755.339844 1040.5625 745.21875 C 1044.535156 739.15625 1030.34375 736.398438 1016.144531 734.117188 C 1001.9375 731.832031 988.175781 721.050781 987.292969 704.070312 C 986.769531 694.261719 992.476562 695.992188 999.722656 702.113281 C 1020.578125 719.742188 1048.988281 726.277344 1066.300781 714.523438 C 1083.613281 702.769531 1062.300781 697.871094 1043.667969 696.886719 C 1030.820312 696.210938 1013.484375 691.988281 1010.371094 680.886719 C 1007.261719 669.777344 1012.589844 669.289062 1027.902344 677.621094 C 1043.214844 685.945312 1070.742188 684.804688 1079.609375 675.988281 C 1089.144531 666.523438 1082.261719 663.921875 1064.960938 663.246094 C 1014.355469 661.292969 979.953125 610.019531 977.96875 575.734375 C 977.140625 561.539062 989.28125 555.644531 1001.277344 565.933594 C 1013.25 576.222656 1027.902344 592.875 1039.667969 610.675781 C 1047.050781 621.859375 1052.535156 628.308594 1054.316406 636.148438 C 1066.300781 638.433594 1082.714844 630.597656 1097.363281 622.429688 C 1112.910156 627.328125 1156.84375 639.417969 1174.152344 643.984375 C 1168.832031 645.617188 1156.84375 649.863281 1148.417969 652.472656 C 1138.207031 648.230469 1124.003906 651.164062 1120 659.984375 C 1108.90625 662.597656 1105.808594 672.71875 1111.570312 680.234375 C 1115.132812 675.335938 1120.441406 670.761719 1126.664062 668.152344 C 1136.429688 673.382812 1151.519531 672.71875 1155.519531 661.292969 C 1162.609375 658.355469 1173.710938 655.089844 1185.699219 651.164062 C 1197.871094 647.183594 1202.117188 650.1875 1207.449219 652.796875 C 1212.777344 655.410156 1226.089844 661.617188 1236.308594 666.511719 C 1241.175781 679.578125 1252.722656 683.492188 1268.695312 681.210938 C 1274.917969 685.453125 1279.355469 692.964844 1281.125 698.839844 C 1288.683594 694.273438 1289.125 684.152344 1282.902344 676.96875 C 1284.683594 662.921875 1270.476562 655.410156 1244.292969 659.328125 C 1237.632812 656.390625 1224.324219 650.511719 1213.21875 645.613281 C 1220.761719 645.613281 1253.621094 645.9375 1270.476562 646.273438 C 1281.578125 652.472656 1298.890625 652.148438 1305.097656 643.660156 C 1312.640625 640.714844 1323.300781 643.660156 1334.835938 644.636719 C 1330.851562 634.839844 1318.863281 629.613281 1303.550781 632.0625 C 1294.226562 625.695312 1282.242188 625.695312 1269.59375 635.003906 C 1256.28125 635.980469 1237.632812 636.964844 1212.335938 637.449219 C 1220.320312 633.535156 1231.636719 627.652344 1244.960938 621.777344 C 1256.945312 624.71875 1269.59375 621.289062 1273.582031 614.429688 C 1282.242188 608.546875 1292.226562 610.015625 1304.214844 611.488281 C 1302.886719 597.285156 1288.230469 595.816406 1267.59375 601.691406 C 1255.609375 596.796875 1236.972656 601.691406 1234.300781 612.957031 C 1226.320312 621.285156 1210.335938 626.183594 1192.363281 635.003906 C 1169.71875 628.144531 1141.089844 621.289062 1113.792969 611 C 1119.777344 606.589844 1125.78125 601.199219 1132.429688 596.300781 C 1088.058594 579.976562 1054.316406 562.992188 1039.226562 527.726562 C 1034.203125 515.996094 1043.21875 518.582031 1047.214844 526.09375 C 1054.527344 539.839844 1066.300781 548.953125 1084.941406 555.15625 C 1098.171875 559.5625 1105.808594 548.625 1096.042969 542.09375 C 1086.277344 535.5625 1077.398438 524.460938 1076.953125 511.070312 C 1076.636719 501.582031 1091.324219 502.820312 1093.820312 507.808594 C 1115.132812 550.257812 1141.3125 579.324219 1163.507812 572.140625 C 1185.699219 564.957031 1175.226562 555.464844 1163.507812 551.242188 C 1140.871094 543.074219 1128 518.253906 1126.664062 505.519531 C 1125.335938 492.78125 1135.988281 493.113281 1143.089844 502.90625 C 1150.195312 512.707031 1169.714844 531.320312 1201.675781 557.445312 C 1233.632812 583.570312 1278.023438 589.449219 1302.433594 573.773438 C 1323.976562 559.945312 1303.261719 551.25 1282.019531 555.15625 C 1241.179688 562.667969 1199.011719 531.644531 1173.710938 483.640625 C 1169.804688 476.230469 1177.273438 475.066406 1181.703125 479.074219 C 1238.515625 530.335938 1286.019531 534.910156 1313.082031 517.601562 C 1322.582031 511.539062 1333.511719 492.128906 1289.566406 498.335938 C 1242.085938 505.042969 1213.660156 478.742188 1180.375 442.824219 C 1165.578125 426.851562 1179.042969 426.492188 1192.363281 435.964844 C 1205.671875 445.4375 1225.648438 456.535156 1247.839844 466.332031 C 1270.03125 476.132812 1314.863281 474.824219 1320.640625 455.234375 C 1326.40625 435.636719 1306.433594 436.289062 1284.683594 441.511719 C 1246.898438 450.59375 1218.996094 431.394531 1191.921875 408.53125 C 1179.839844 398.335938 1184.8125 392.203125 1195.46875 395.800781 C 1206.117188 399.390625 1231.425781 408.207031 1247.839844 414.738281 C 1264.269531 421.273438 1300.21875 425.839844 1317.527344 408.207031 C 1334.839844 390.570312 1307.765625 380.121094 1286.023438 391.550781 C 1264.269531 402.980469 1211 392.535156 1190.144531 372.285156 C 1169.277344 352.035156 1192.808594 355.957031 1205.675781 360.855469 C 1238.296875 373.265625 1278.921875 374.570312 1313.984375 355.957031 C 1329.894531 347.507812 1327.4375 341.289062 1321.972656 334.402344 C 1318.863281 330.480469 1308.207031 329.507812 1294.449219 335.707031 C 1247.785156 356.753906 1210.558594 352.363281 1182.601562 323.949219 C 1171.449219 312.632812 1185.257812 311.867188 1198.132812 316.441406 C 1252.484375 335.746094 1308.207031 323.625 1324.632812 294.886719 C 1332.339844 281.410156 1314.867188 266.148438 1297.113281 283.132812 C 1274.105469 305.132812 1237.179688 305.667969 1199.457031 301.746094 C 1181.34375 299.863281 1181.171875 282.992188 1200.355469 281.171875 C 1241.625 277.253906 1306.882812 257.328125 1326.414062 232.839844 C 1342.632812 212.507812 1310 188.753906 1292.675781 212.917969 C 1275.367188 237.089844 1238.976562 252.757812 1199.019531 261.90625 C 1184.929688 265.128906 1179.941406 264.847656 1179.5 261.578125 C 1178.859375 256.925781 1174.160156 248.84375 1169.722656 251.125 C 1158.628906 255.703125 1118.683594 265.824219 1099.152344 271.050781 C 1079.617188 276.269531 1070.75 289.335938 1071.632812 301.417969 C 1072.515625 313.503906 1076.960938 334.730469 1048.101562 334.730469 C 1001.945312 334.730469 1021.246094 279.867188 1048.554688 263.273438 C 1069.632812 250.457031 1092.492188 244.273438 1109.804688 244.601562 C 1127.113281 244.925781 1147.761719 239.699219 1149.761719 228.171875 C 1153.964844 227.511719 1161.953125 226.046875 1170.175781 226.046875 C 1176.386719 226.046875 1188.148438 221.3125 1193.929688 217.554688 C 1199.695312 213.796875 1206.5625 207.761719 1200.796875 204.167969 C 1195.019531 200.574219 1185.925781 206.613281 1182.378906 211.679688 C 1178.828125 216.734375 1171.175781 220.335938 1167.289062 220.660156 C 1161.539062 221.140625 1151.644531 222.292969 1146.316406 223.265625 C 1140.984375 224.242188 1132.332031 223.265625 1130.113281 221.3125 C 1125.78125 217.476562 1130.554688 215.1875 1136.4375 213.636719 C 1143.183594 211.859375 1150.308594 212.40625 1152.421875 215.59375 C 1153.898438 217.828125 1156.53125 219.839844 1161.296875 220.164062 C 1166.621094 198.285156 1137.777344 199.269531 1113.800781 200.25 C 1099.59375 183.589844 1062.753906 195.015625 1037.453125 203.835938 C 1025.46875 205.804688 1005.054688 204.820312 994.847656 201.550781 C 984.640625 198.285156 985.082031 202.210938 988.628906 205.804688 C 992.183594 209.394531 1005.054688 215.921875 1010.378906 216.894531 C 1015.707031 217.878906 1013.925781 219.839844 1012.160156 221.472656 C 1006.542969 226.636719 993.953125 231.601562 988.1875 232.25 C 982.421875 232.90625 980.640625 234.859375 983.742188 236.492188 C 986.84375 238.125 991.285156 240.085938 995.730469 241.070312 C 1000.171875 242.042969 999.726562 243.351562 997.0625 245.960938 C 991.5625 251.351562 977.078125 256.746094 972.207031 256.089844 C 967.324219 255.4375 966.886719 257.394531 968.652344 259.03125 C 970.433594 260.664062 977.078125 262.945312 980.636719 262.945312 C 984.183594 262.945312 984.496094 263.441406 981.523438 266.210938 C 978.304688 269.21875 971.070312 275.71875 964.667969 274.359375 C 956.007812 272.519531 953.839844 274.109375 956.503906 276.804688 C 962.773438 283.152344 962.441406 285.917969 950.003906 287.441406 Z M 949.992188 287.441406 "/>
<path style=" stroke:none;fill-rule:nonzero;fill:rgb(80.784314%,6.666667%,14.901961%);fill-opacity:1;" d="M 832.378906 214.285156 C 825.082031 211.601562 816.84375 210.695312 810.625 212.65625 C 804.417969 214.609375 803.082031 219.1875 810.179688 220.824219 C 817.285156 222.453125 826.605469 222.453125 831.488281 221.472656 C 836.371094 220.488281 838.585938 216.578125 832.378906 214.285156 Z M 832.378906 214.285156 "/>
<path style=" stroke:none;fill-rule:nonzero;fill:rgb(80.784314%,6.666667%,14.901961%);fill-opacity:1;" d="M 1067.625 214.285156 C 1074.929688 211.601562 1083.160156 210.695312 1089.378906 212.65625 C 1095.589844 214.609375 1096.925781 219.1875 1089.820312 220.824219 C 1082.71875 222.453125 1073.40625 222.453125 1068.523438 221.472656 C 1063.640625 220.488281 1061.417969 216.578125 1067.625 214.285156 Z M 1067.625 214.285156 "/>
</g>
</svg>
