<?xml version="1.0" encoding="UTF-8"?>
<svg xmlns="http://www.w3.org/2000/svg" xmlns:xlink="http://www.w3.org/1999/xlink" width="1900pt" height="1000pt" viewBox="0 0 1900 1000" version="1.1">
<g id="surface1">
<rect x="0" y="0" width="1900" height="1000" style="fill:rgb(90.588235%,0%,7.45098%);fill-opacity:1;stroke:none;"/>
<path style=" stroke:none;fill-rule:nonzero;fill:rgb(100%,100%,100%);fill-opacity:1;" d="M 1266.667969 500 C 1266.667969 638.070312 1124.890625 750 950 750 C 775.109375 750 633.332031 638.070312 633.332031 500 C 633.332031 361.929688 775.109375 250 950 250 C 1124.890625 250 1266.667969 361.929688 1266.667969 500 Z M 1266.667969 500 "/>
<path style=" stroke:none;fill-rule:nonzero;fill:rgb(90.588235%,0%,7.45098%);fill-opacity:1;" d="M 1187.5 500 C 1187.5 603.554688 1081.167969 687.5 950 687.5 C 818.832031 687.5 712.5 603.554688 712.5 500 C 712.5 396.445312 818.832031 312.5 950 312.5 C 1081.167969 312.5 1187.5 396.445312 1187.5 500 Z M 1187.5 500 "/>
<path style=" stroke:none;fill-rule:nonzero;fill:rgb(100%,100%,100%);fill-opacity:1;" d="M 1203.332031 500 C 1203.332031 582.84375 1118.265625 650 1013.332031 650 C 908.398438 650 823.332031 582.84375 823.332031 500 C 823.332031 417.15625 908.398438 350 1013.332031 350 C 1118.265625 350 1203.332031 417.15625 1203.332031 500 Z M 1203.332031 500 "/>
<path style=" stroke:none;fill-rule:nonzero;fill:rgb(90.588235%,0%,7.45098%);fill-opacity:1;" d="M 870.832031 500 L 1006.359375 534.765625 L 1028.375 481.265625 "/>
<path style=" stroke:none;fill-rule:nonzero;fill:rgb(90.588235%,0%,7.45098%);fill-opacity:1;" d="M 870.832031 500 L 1006.359375 465.234375 L 1028.375 518.734375 "/>
<path style=" stroke:none;fill-rule:nonzero;fill:rgb(90.588235%,0%,7.45098%);fill-opacity:1;" d="M 969.296875 393.007812 L 969.296875 505.507812 L 1040.546875 505.507812 "/>
<path style=" stroke:none;fill-rule:nonzero;fill:rgb(90.588235%,0%,7.45098%);fill-opacity:1;" d="M 969.296875 393.007812 L 1053.058594 484.019531 L 995.414062 517.082031 "/>
<path style=" stroke:none;fill-rule:nonzero;fill:rgb(90.588235%,0%,7.45098%);fill-opacity:1;" d="M 1128.617188 433.875 L 993.09375 468.636719 L 1015.109375 522.136719 "/>
<path style=" stroke:none;fill-rule:nonzero;fill:rgb(90.588235%,0%,7.45098%);fill-opacity:1;" d="M 1128.617188 433.875 L 1044.859375 524.886719 L 987.214844 491.824219 "/>
<path style=" stroke:none;fill-rule:nonzero;fill:rgb(90.588235%,0%,7.45098%);fill-opacity:1;" d="M 1128.617188 566.125 L 1044.859375 475.113281 L 987.214844 508.175781 "/>
<path style=" stroke:none;fill-rule:nonzero;fill:rgb(90.588235%,0%,7.45098%);fill-opacity:1;" d="M 1128.617188 566.125 L 993.09375 531.363281 L 1015.109375 477.863281 "/>
<path style=" stroke:none;fill-rule:nonzero;fill:rgb(90.588235%,0%,7.45098%);fill-opacity:1;" d="M 969.296875 606.992188 L 1053.058594 515.980469 L 995.414062 482.917969 "/>
<path style=" stroke:none;fill-rule:nonzero;fill:rgb(90.588235%,0%,7.45098%);fill-opacity:1;" d="M 969.296875 606.992188 L 969.296875 494.492188 L 1040.546875 494.492188 "/>
</g>
</svg>
