<?xml version="1.0" encoding="UTF-8"?>
<svg xmlns="http://www.w3.org/2000/svg" xmlns:xlink="http://www.w3.org/1999/xlink" width="1900pt" height="1000pt" viewBox="0 0 1900 1000" version="1.1">
<g id="surface1">
<rect x="0" y="0" width="1900" height="1000" style="fill:rgb(100%,100%,100%);fill-opacity:1;stroke:none;"/>
<path style=" stroke:none;fill-rule:nonzero;fill:rgb(0%,0%,0%);fill-opacity:1;" d="M 0 0 L 1900 0 L 1900 300 L 0 300 Z M 0 0 "/>
<path style=" stroke:none;fill-rule:nonzero;fill:rgb(0%,40%,0%);fill-opacity:1;" d="M 0 700 L 1900 700 L 1900 1000 L 0 1000 Z M 0 700 "/>
<path style="fill-rule:nonzero;fill:rgb(0%,0%,0%);fill-opacity:1;stroke-width:1;stroke-linecap:butt;stroke-linejoin:miter;stroke:rgb(0%,0%,0%);stroke-opacity:1;stroke-miterlimit:10;" d="M -1.000094 55.42568 L 1.000209 55.425505 L 1.000188 -37.99986 C 2.999982 -40.00026 2.999958 -43.000302 3.000246 -45.999803 C 2.999737 -48.000028 2.999918 -56.000042 -0.000173726 -64.66313 C -3.000138 -56.00001 -2.999892 -48.000242 -2.99981 -45.999771 C -3.000098 -43.00027 -3.000074 -40.000227 -0.999688 -37.999931 Z M -1.000094 55.42568 " transform="matrix(6.856034,3.125,-3.958333,5.412659,950,500)"/>
<path style=" stroke:none;fill-rule:nonzero;fill:rgb(100%,100%,100%);fill-opacity:1;" d="M 723.75 796.875 L 737.464844 803.125 L 1107.273438 297.445312 C 1128.902344 292.867188 1140.777344 276.628906 1152.652344 260.394531 C 1160.566406 249.566406 1192.234375 206.265625 1205.957031 150 C 1151.097656 187.515625 1119.433594 230.816406 1111.515625 241.644531 C 1099.640625 257.878906 1087.765625 274.117188 1093.5625 291.195312 Z M 723.75 796.875 "/>
<path style="fill-rule:nonzero;fill:rgb(0%,0%,0%);fill-opacity:1;stroke-width:1;stroke-linecap:butt;stroke-linejoin:miter;stroke:rgb(0%,0%,0%);stroke-opacity:1;stroke-miterlimit:10;" d="M -1.000094 55.42568 L 1.000209 55.425505 L 1.000188 -37.99986 C 2.999982 -40.00026 2.999958 -43.000302 3.000246 -45.999803 C 2.999737 -48.000028 2.999918 -56.000042 -0.000173726 -64.66313 C -3.000138 -56.00001 -2.999892 -48.000242 -2.99981 -45.999771 C -3.000098 -43.00027 -3.000074 -40.000227 -0.999688 -37.999931 Z M -1.000094 55.42568 " transform="matrix(-6.856034,3.125,3.958333,5.412659,950,500)"/>
<path style=" stroke:none;fill-rule:nonzero;fill:rgb(100%,100%,100%);fill-opacity:1;" d="M 1176.25 796.875 L 1162.535156 803.125 L 792.726562 297.445312 C 771.097656 292.867188 759.222656 276.628906 747.347656 260.394531 C 739.433594 249.566406 707.765625 206.265625 694.042969 150 C 748.902344 187.515625 780.566406 230.816406 788.484375 241.644531 C 800.359375 257.878906 812.234375 274.117188 806.4375 291.195312 Z M 1176.25 796.875 "/>
<path style=" stroke:none;fill-rule:nonzero;fill:rgb(73.333333%,0%,0%);fill-opacity:1;" d="M 0 350 L 0 650 L 799.582031 650 C 823.332031 700 902.5 800 950 800 C 997.5 800 1076.667969 700 1100.417969 650 L 1900 650 L 1900 350 L 1100.417969 350 C 1076.667969 300 997.5 200 950 200 C 902.5 200 823.332031 300 799.582031 350 Z M 0 350 "/>
<path style=" stroke:none;fill-rule:nonzero;fill:rgb(0%,0%,0%);fill-opacity:1;" d="M 1100.417969 650 C 1124.167969 600 1140 550 1140 500 C 1140 450 1124.167969 400 1100.417969 350 C 1076.667969 400 1060.832031 450 1060.832031 500 C 1060.832031 550 1076.667969 600 1100.417969 650 "/>
<path style=" stroke:none;fill-rule:nonzero;fill:rgb(0%,0%,0%);fill-opacity:1;" d="M 799.582031 650 C 775.832031 600 760 550 760 500 C 760 450 775.832031 400 799.582031 350 C 823.332031 400 839.167969 450 839.167969 500 C 839.167969 550 823.332031 600 799.582031 650 "/>
<path style=" stroke:none;fill-rule:nonzero;fill:rgb(100%,100%,100%);fill-opacity:1;" d="M 981.667969 500 C 981.667969 479.289062 967.488281 462.5 950 462.5 C 932.511719 462.5 918.332031 479.289062 918.332031 500 C 918.332031 520.710938 932.511719 537.5 950 537.5 C 967.488281 537.5 981.667969 520.710938 981.667969 500 Z M 981.667969 500 "/>
<path style=" stroke:none;fill-rule:nonzero;fill:rgb(100%,100%,100%);fill-opacity:1;" d="M 957.917969 536.5625 C 957.917969 536.5625 989.582031 586.5625 989.582031 667.8125 C 989.582031 749.0625 957.917969 799.0625 957.917969 799.0625 Z M 957.917969 536.5625 "/>
<path style=" stroke:none;fill-rule:nonzero;fill:rgb(100%,100%,100%);fill-opacity:1;" d="M 942.082031 463.4375 C 942.082031 463.4375 910.417969 413.4375 910.417969 332.1875 C 910.417969 250.9375 942.082031 200.9375 942.082031 200.9375 Z M 942.082031 463.4375 "/>
<path style=" stroke:none;fill-rule:nonzero;fill:rgb(100%,100%,100%);fill-opacity:1;" d="M 942.082031 536.5625 C 942.082031 536.5625 910.417969 586.5625 910.417969 667.8125 C 910.417969 749.0625 942.082031 799.0625 942.082031 799.0625 Z M 942.082031 536.5625 "/>
<path style=" stroke:none;fill-rule:nonzero;fill:rgb(100%,100%,100%);fill-opacity:1;" d="M 957.917969 463.4375 C 957.917969 463.4375 989.582031 413.4375 989.582031 332.1875 C 989.582031 250.9375 957.917969 200.9375 957.917969 200.9375 Z M 957.917969 463.4375 "/>
</g>
</svg>
