<?xml version="1.0" encoding="UTF-8"?>
<svg xmlns="http://www.w3.org/2000/svg" xmlns:xlink="http://www.w3.org/1999/xlink" width="380pt" height="200pt" viewBox="0 0 1900 1000" version="1.1">
<g id="surface1">
<rect x="0" y="0" width="1900" height="1000" style="fill:rgb(13.72549%,61.960784%,27.45098%);fill-opacity:1;stroke:none;"/>
<path style=" stroke:none;fill-rule:nonzero;fill:rgb(0%,0%,0%);fill-opacity:1;" d="M 0 0 L 1900 0 L 1900 750 L 0 750 Z M 0 0 "/>
<path style=" stroke:none;fill-rule:nonzero;fill:rgb(90.588235%,0%,7.45098%);fill-opacity:1;" d="M 0 0 L 1900 0 L 1900 250 L 0 250 Z M 0 0 "/>
<path style=" stroke:none;fill-rule:nonzero;fill:rgb(100%,100%,100%);fill-opacity:1;" d="M 1033.980469 411.601562 C 991.179688 379.449219 932.257812 386.324219 897.1875 427.5625 C 862.113281 468.796875 862.113281 531.203125 897.1875 572.4375 C 932.257812 613.675781 991.179688 620.550781 1033.980469 588.398438 C 987.601562 637.207031 912.417969 637.199219 866.050781 588.382812 C 819.679688 539.570312 819.679688 460.429688 866.050781 411.617188 C 912.417969 362.800781 987.601562 362.792969 1033.980469 411.601562 M 1007.761719 500 L 1167.550781 445.398438 L 1068.75 588.398438 L 1068.75 411.601562 L 1167.550781 554.601562 Z M 1007.761719 500 "/>
</g>
</svg>
