<?xml version="1.0" encoding="UTF-8"?>
<svg xmlns="http://www.w3.org/2000/svg" xmlns:xlink="http://www.w3.org/1999/xlink" width="1900pt" height="1000pt" viewBox="0 0 1900 1000" version="1.1">
<g id="surface1">
<rect x="0" y="0" width="1900" height="1000" style="fill:rgb(0%,40.392157%,77.647059%);fill-opacity:1;stroke:none;"/>
<path style=" stroke:none;fill-rule:nonzero;fill:rgb(100%,100%,100%);fill-opacity:1;" d="M 0 333.332031 L 1900 333.332031 L 1900 666.667969 L 0 666.667969 Z M 0 333.332031 "/>
<path style=" stroke:none;fill-rule:nonzero;fill:rgb(100%,80.784314%,0%);fill-opacity:1;" d="M 835.417969 558.582031 L 950.097656 384.203125 L 1064.714844 558.582031 Z M 835.417969 558.582031 "/>
<path style=" stroke:none;fill-rule:nonzero;fill:rgb(51.764706%,83.921569%,100%);fill-opacity:1;" d="M 846.734375 552.8125 L 950.039062 395.6875 L 1053.398438 552.8125 Z M 846.734375 552.8125 "/>
<path style="fill-rule:nonzero;fill:rgb(0%,0%,0%);fill-opacity:1;stroke-width:0.5;stroke-linecap:butt;stroke-linejoin:miter;stroke:rgb(100%,100%,100%);stroke-opacity:1;stroke-miterlimit:4;" d="M 500 238.2 L 500 310.000781 M 474.099507 282.400781 L 525.999178 282.400781 M 480.900493 271.5 L 538.900082 304.900781 M 519.699836 271.300781 L 461.099918 305.1 M 488.299753 303 L 510.199424 265.000781 M 489.200247 263.599219 L 513.700658 306.100781 " transform="matrix(1.9,0,0,1.666667,0,0)"/>
<path style=" stroke:none;fill-rule:nonzero;fill:rgb(51.764706%,83.921569%,100%);fill-opacity:1;" d="M 965.199219 470.667969 C 965.199219 478.03125 958.394531 484 950 484 C 941.605469 484 934.800781 478.03125 934.800781 470.667969 C 934.800781 463.304688 941.605469 457.332031 950 457.332031 C 958.394531 457.332031 965.199219 463.304688 965.199219 470.667969 Z M 965.199219 470.667969 "/>
<path style=" stroke:none;fill-rule:nonzero;fill:rgb(19.215686%,48.627451%,65.098039%);fill-opacity:1;" d="M 1034.589844 523.914062 L 983.457031 524.601562 C 983.457031 524.601562 983.707031 531.222656 987.050781 531.46875 C 990.421875 531.6875 1032.703125 531 1034.527344 533.96875 C 1036.324219 536.960938 993.238281 538.554688 993.238281 538.554688 C 993.238281 538.554688 1031.15625 538.335938 1033.226562 540.835938 C 1035.300781 543.363281 1012.335938 543.828125 1014.132812 544.269531 C 1015.957031 544.734375 1040.964844 543.828125 1043.289062 546.328125 C 1045.609375 548.855469 1031.929688 550.449219 1031.929688 550.449219 C 1031.929688 550.449219 1052.574219 552.234375 1053.160156 552.179688 C 1048.175781 544.542969 1034.589844 523.914062 1034.589844 523.914062 Z M 1034.589844 523.914062 "/>
<path style=" stroke:none;fill-rule:nonzero;fill:rgb(82.352941%,9.019608%,20.392157%);fill-opacity:1;" d="M 942.386719 461.921875 C 940.746094 462.882812 946.226562 463.488281 945.730469 466.648438 C 945.359375 468.925781 942.386719 471.921875 941.085938 473.980469 C 939.789062 476.039062 947.03125 483.539062 953.714844 479.472656 C 960.460938 475.382812 959.625 467.992188 957.335938 466.648438 C 951.980469 463.570312 948.515625 458.847656 942.386719 461.921875 Z M 942.386719 461.921875 "/>
<path style="fill:none;stroke-width:0.3;stroke-linecap:round;stroke-linejoin:miter;stroke:rgb(0%,0%,0%);stroke-opacity:1;stroke-miterlimit:4;" d="M 31.999521 20.760486 C 31.660023 19.840337 33.120244 20.259879 33.790407 20.679422 C 34.450472 21.090432 35.61032 22.17982 34.779874 22.289328 " transform="matrix(3.0951,0,0,2.746667,843.22,418.333333)"/>
<path style=" stroke:none;fill-rule:nonzero;fill:rgb(34.117647%,43.921569%,18.039216%);fill-opacity:1;" d="M 906.082031 489.058594 C 912.117188 487.824219 913.820312 494.03125 915.738281 495.074219 C 917.6875 496.089844 922.886719 496.613281 924.25 497.300781 C 925.613281 497.988281 930.84375 501.089844 930.84375 501.089844 C 930.84375 501.089844 933.164062 495.597656 935.855469 495.074219 C 938.578125 494.554688 950.1875 501.585938 950.1875 501.585938 C 950.1875 501.585938 951.515625 495.074219 954.613281 495.925781 C 957.707031 496.777344 973.183594 507.078125 973.183594 507.078125 C 973.183594 507.078125 973.957031 503.480469 977.269531 502.464844 C 980.550781 501.421875 991.96875 507.601562 991.96875 507.601562 C 991.96875 507.601562 993.332031 502.628906 995.652344 502.628906 C 1002.371094 502.628906 1024.34375 523.503906 1029.203125 523.96875 C 1031.464844 524.191406 1021.1875 526.828125 1021.1875 526.828125 C 1021.1875 526.828125 1022.921875 528.199219 1021.960938 529.410156 C 1020.972656 530.617188 990.609375 529.574219 990.609375 529.574219 C 990.609375 529.574219 991.507812 531.386719 990.980469 531.992188 C 990.082031 533.035156 858.835938 533.804688 858.835938 533.804688 C 871.054688 515.289062 895.25 491.285156 906.082031 489.058594 Z M 906.082031 489.058594 "/>
<path style=" stroke:none;fill-rule:nonzero;fill:rgb(11.372549%,20%,18.431373%);fill-opacity:1;" d="M 957.894531 532.871094 C 962.535156 531.824219 959.253906 520.648438 934.125 503.644531 C 973.957031 527.789062 948.640625 531.113281 989.371094 532.15625 C 982.066406 532.59375 957.894531 532.871094 957.894531 532.871094 Z M 957.894531 532.871094 "/>
<path style=" stroke:none;fill-rule:nonzero;fill:rgb(11.372549%,20%,18.431373%);fill-opacity:1;" d="M 951.515625 502.792969 C 951.515625 502.792969 989.183594 528.308594 990.671875 529.574219 C 992.589844 529.628906 998.78125 529.820312 998.78125 529.820312 C 998.78125 529.820312 993.578125 529.492188 951.515625 502.792969 Z M 951.515625 502.792969 "/>
<path style=" stroke:none;fill-rule:nonzero;fill:rgb(11.372549%,20%,18.431373%);fill-opacity:1;" d="M 973.957031 507.765625 C 973.957031 507.765625 1005.558594 529.65625 1000.480469 529.738281 C 995.25 529.847656 1017.753906 530.34375 1021.714844 529.546875 C 1001.226562 528.476562 1005.464844 527.734375 973.957031 507.765625 Z M 973.957031 507.765625 "/>
<path style=" stroke:none;fill-rule:nonzero;fill:rgb(11.372549%,20%,18.431373%);fill-opacity:1;" d="M 993.117188 508.644531 L 1021.15625 526.828125 C 1021.15625 526.828125 1025.460938 525.753906 1027.75 524.929688 C 1019.425781 526.003906 1017.96875 522.707031 993.117188 508.644531 Z M 993.117188 508.644531 "/>
<path style=" stroke:none;fill-rule:nonzero;fill:rgb(55.294118%,76.470588%,18.039216%);fill-opacity:1;" d="M 911.066406 491.503906 C 913.199219 492.796875 913.757812 495.265625 915.121094 495.953125 C 916.480469 496.640625 929.449219 501.96875 936.597656 508.480469 C 943.75 515.015625 954.582031 523.257812 950.710938 524.273438 C 946.84375 525.316406 943.160156 521.71875 943.160156 521.71875 C 943.160156 521.71875 948.578125 529.4375 941.425781 529.957031 C 934.277344 530.453125 916.667969 507.105469 916.667969 507.105469 C 916.667969 507.105469 925.179688 528.226562 914.34375 527.375 C 903.511719 526.496094 904.6875 511.390625 904.6875 511.390625 C 904.6875 511.390625 901.777344 518.613281 899.644531 518.449219 C 897.507812 518.257812 899.644531 509 899.644531 509 C 899.644531 509 887.261719 527.183594 882.433594 525.125 C 877.574219 523.0625 901.46875 489.9375 911.066406 491.503906 Z M 911.066406 491.503906 "/>
<path style=" stroke:none;fill-rule:nonzero;fill:rgb(55.294118%,76.470588%,18.039216%);fill-opacity:1;" d="M 936.816406 497.683594 C 936.507812 495.925781 938.363281 496.503906 942.230469 498.207031 C 946.101562 499.882812 977.269531 521.03125 976.496094 523.230469 C 975.722656 525.425781 938.578125 507.765625 936.816406 497.683594 Z M 936.816406 497.683594 "/>
<path style=" stroke:none;fill-rule:nonzero;fill:rgb(55.294118%,76.470588%,18.039216%);fill-opacity:1;" d="M 959.84375 501.253906 C 957.554688 500.789062 984.605469 524.929688 990.980469 523.394531 C 997.386719 521.855469 961.578125 501.585938 959.84375 501.253906 Z M 959.84375 501.253906 "/>
<path style=" stroke:none;fill-rule:nonzero;fill:rgb(55.294118%,76.470588%,18.039216%);fill-opacity:1;" d="M 978.601562 503.316406 C 975.660156 503.09375 1004.90625 526.304688 1011.316406 525.125 C 1017.691406 523.914062 983.242188 503.644531 978.601562 503.316406 Z M 978.601562 503.316406 "/>
<path style=" stroke:none;fill-rule:nonzero;fill:rgb(55.294118%,76.470588%,18.039216%);fill-opacity:1;" d="M 995.839844 504.632812 C 992.558594 505.128906 1017.722656 522.101562 1020.816406 521.9375 C 1023.910156 521.773438 1003.296875 503.507812 995.839844 504.632812 Z M 995.839844 504.632812 "/>
<path style=" stroke:none;fill-rule:nonzero;fill:rgb(75.294118%,7.843137%,54.901961%);fill-opacity:1;" d="M 909.144531 457.390625 C 909.144531 457.390625 924.621094 441.507812 949.9375 441.507812 C 975.289062 441.507812 990.792969 457.363281 990.792969 457.363281 L 984.636719 447.859375 C 984.636719 447.859375 972.039062 436.730469 950 436.730469 C 927.933594 436.730469 915.492188 447.695312 915.492188 447.695312 Z M 909.144531 457.390625 "/>
<path style=" stroke:none;fill-rule:nonzero;fill:rgb(82.352941%,9.019608%,20.392157%);fill-opacity:1;" d="M 980.734375 441.976562 C 980.734375 441.976562 969.6875 433.71875 949.96875 433.71875 C 930.222656 433.71875 919.203125 442.097656 919.203125 442.097656 L 914.128906 449.753906 C 914.128906 449.753906 925.984375 437.859375 949.96875 437.859375 C 973.957031 437.859375 985.902344 449.78125 985.902344 449.78125 Z M 980.734375 441.976562 "/>
<path style=" stroke:none;fill-rule:nonzero;fill:rgb(99.215686%,80.784314%,7.058824%);fill-opacity:1;" d="M 976.898438 435.316406 C 976.898438 435.316406 966.808594 428.664062 949.96875 428.664062 C 933.132812 428.664062 924.0625 434.644531 924.0625 434.644531 L 918.648438 442.882812 C 918.648438 442.882812 928.738281 434.144531 950 434.144531 C 971.296875 434.144531 981.386719 442.882812 981.386719 442.882812 Z M 976.898438 435.316406 "/>
<path style=" stroke:none;fill-rule:nonzero;fill:rgb(55.294118%,76.470588%,18.039216%);fill-opacity:1;" d="M 972.160156 429.039062 L 976.988281 436.359375 C 976.988281 436.359375 966.992188 429.882812 949.96875 429.882812 C 932.945312 429.882812 922.703125 436.703125 922.703125 436.703125 L 927.625 429.320312 C 927.625 429.320312 934.496094 424.855469 949.96875 424.855469 C 965.445312 424.855469 972.160156 429.039062 972.160156 429.039062 Z M 972.160156 429.039062 "/>
<path style=" stroke:none;fill-rule:nonzero;fill:rgb(30.588235%,58.039216%,76.078431%);fill-opacity:1;" d="M 968.789062 423.96875 L 972.90625 430.148438 C 972.90625 430.148438 963.125 425.78125 949.96875 425.78125 C 936.816406 425.78125 926.355469 431.210938 926.355469 431.210938 L 930.285156 425.257812 C 930.285156 425.257812 937.1875 421.597656 949.96875 421.597656 C 962.722656 421.597656 968.789062 423.96875 968.789062 423.96875 Z M 968.789062 423.96875 "/>
<path style=" stroke:none;fill-rule:nonzero;fill:rgb(10.588235%,28.235294%,58.431373%);fill-opacity:1;" d="M 966.652344 420.660156 L 969.902344 425.679688 C 969.902344 425.679688 963.710938 422.144531 949.96875 422.144531 C 936.257812 422.144531 930.007812 425.664062 930.007812 425.664062 L 933.378906 420.484375 C 933.378906 420.484375 939.445312 418.554688 949.96875 418.554688 C 960.742188 418.554688 966.652344 420.660156 966.652344 420.660156 Z M 966.652344 420.660156 "/>
<path style=" stroke:none;fill-rule:nonzero;fill:rgb(100%,100%,100%);fill-opacity:1;" d="M 924.898438 535.339844 L 976.496094 535.808594 C 976.496094 535.808594 967.457031 536.714844 967.703125 537.648438 C 967.984375 538.554688 986.027344 539.023438 986.027344 539.023438 C 986.027344 539.023438 974.949219 539.707031 974.667969 540.613281 C 974.421875 541.519531 979.835938 541.988281 979.835938 541.988281 C 979.835938 541.988281 969.777344 542.894531 969.777344 543.828125 C 969.777344 544.734375 982.683594 545.203125 981.632812 545.203125 C 980.613281 545.203125 964.609375 545.421875 964.609375 546.574219 C 964.609375 547.703125 976.09375 550.117188 976.09375 550.117188 L 908.402344 551.132812 C 908.402344 551.132812 918.957031 549.761719 918.957031 547.949219 C 918.957031 546.109375 911.496094 545.640625 911.496094 545.640625 C 911.496094 545.640625 939.074219 546.109375 940.375 544.953125 C 941.675781 543.828125 934.585938 543.003906 934.585938 543.003906 C 934.585938 543.003906 945.542969 543.582031 946.316406 542.457031 C 947.089844 541.300781 931.617188 539.460938 931.617188 539.460938 C 931.617188 539.460938 940.621094 539.707031 941.921875 538.335938 C 943.191406 536.960938 924.898438 535.339844 924.898438 535.339844 Z M 924.898438 535.339844 "/>
<path style=" stroke:none;fill-rule:nonzero;fill:rgb(19.215686%,48.627451%,65.098039%);fill-opacity:1;" d="M 915.089844 536.496094 C 915.089844 536.496094 864.285156 537.867188 859.898438 540.394531 C 855.515625 542.894531 888.285156 545.421875 888.285156 545.421875 C 888.285156 545.421875 854.484375 545.640625 851.90625 548.386719 C 849.328125 551.132812 872.023438 550.695312 872.023438 550.695312 L 846.683594 552.261719 L 858.8125 533.859375 Z M 915.089844 536.496094 "/>
<path style=" stroke:none;fill-rule:nonzero;fill:rgb(99.215686%,80.784314%,7.058824%);fill-opacity:1;" d="M 800.484375 541.59375 C 801.027344 543.238281 800.058594 544.878906 798.269531 545.328125 C 796.535156 545.777344 794.644531 545.03125 794.089844 543.386719 C 793.527344 541.894531 794.507812 540.25 796.261719 539.652344 C 798.03125 539.207031 799.921875 540.101562 800.484375 541.59375 Z M 800.484375 541.59375 "/>
<path style=" stroke:none;fill-rule:nonzero;fill:rgb(99.215686%,80.784314%,7.058824%);fill-opacity:1;" d="M 805.847656 570.117188 C 803.804688 571.761719 802.238281 572.65625 803.601562 575.34375 L 802.511719 575.792969 L 796.976562 565.636719 L 798.066406 565.1875 C 799.140625 566.980469 799.804688 567.28125 800.789062 566.832031 C 801.421875 566.535156 802.015625 566.085938 802.527344 565.636719 L 805.863281 562.949219 L 801.828125 555.632812 L 799.410156 555.78125 C 798.40625 555.929688 797.234375 556.078125 796.3125 556.378906 C 794.625 557.125 794.6875 558.769531 795.285156 560.113281 L 794.191406 560.558594 L 789.996094 552.792969 L 791.089844 552.347656 C 793.414062 554.734375 795.382812 554.585938 798.578125 554.289062 L 818.851562 552.792969 L 822.71875 556.378906 Z M 816.199219 554.585938 L 803.703125 555.484375 L 807.15625 561.902344 Z M 816.199219 554.585938 "/>
<path style=" stroke:none;fill-rule:nonzero;fill:rgb(99.215686%,80.784314%,7.058824%);fill-opacity:1;" d="M 824.128906 595.207031 C 822.054688 596.550781 821.953125 597.59375 823.519531 599.535156 L 822.546875 600.132812 L 814.785156 590.875 L 815.753906 590.277344 C 817.304688 592.070312 818.496094 592.367188 820.574219 591.023438 L 836.046875 581.019531 L 835.996094 581.019531 L 811.957031 587.441406 L 811.175781 586.542969 L 824.828125 568.773438 L 824.777344 568.625 L 812.757812 576.390625 C 808.042969 579.523438 807.652344 580.121094 809.320312 582.511719 L 808.332031 583.257812 L 802.851562 576.6875 L 803.820312 575.941406 C 806.238281 578.03125 806.886719 578.179688 811.636719 575.046875 L 823.007812 567.726562 C 825.21875 566.382812 825.066406 565.1875 823.621094 563.546875 L 824.589844 562.800781 L 830.941406 570.414062 L 820.863281 583.257812 L 837.972656 578.777344 L 844.152344 586.246094 L 843.179688 586.84375 C 841.476562 585.050781 840.609375 584.601562 838.363281 586.097656 Z M 824.128906 595.207031 "/>
<path style=" stroke:none;fill-rule:nonzero;fill:rgb(99.215686%,80.784314%,7.058824%);fill-opacity:1;" d="M 828.453125 603.71875 C 830.414062 605.210938 831.636719 605.210938 833.339844 603.566406 L 845.105469 591.921875 C 846.804688 590.277344 846.671875 589.230469 844.695312 587.738281 L 845.496094 586.84375 L 861.992188 599.835938 L 859.148438 605.660156 L 857.992188 605.359375 C 858.265625 601.777344 857.242188 597.742188 854.109375 595.355469 C 851.691406 593.414062 850.960938 594.160156 849.140625 595.953125 L 844.390625 600.582031 L 844.933594 601.03125 C 847.675781 603.121094 849.292969 603.71875 852.679688 602.074219 L 853.753906 602.820312 L 846.703125 609.839844 L 845.632812 608.945312 C 847.367188 605.957031 846.535156 604.316406 843.84375 602.222656 L 843.25 601.777344 L 838.105469 606.851562 C 836.675781 608.199219 835.894531 609.242188 837.835938 610.734375 C 841.238281 613.425781 845.972656 614.171875 850.332031 613.574219 L 850.722656 614.46875 L 844.132812 617.308594 L 827.65625 604.464844 Z M 828.453125 603.71875 "/>
<path style=" stroke:none;fill-rule:nonzero;fill:rgb(99.215686%,80.784314%,7.058824%);fill-opacity:1;" d="M 870.65625 626.265625 C 870.488281 628.804688 870.351562 631.046875 872.90625 632.6875 L 872.257812 633.585938 L 864.578125 629.402344 C 864.5625 628.355469 864.765625 627.3125 864.886719 626.414062 L 865.480469 621.9375 C 866.128906 617.457031 865.125 616.410156 863.832031 615.664062 L 859.472656 621.785156 C 858.109375 623.726562 858.449219 624.773438 860.699219 625.96875 L 860.050781 626.863281 L 848.933594 620.742188 L 849.582031 619.84375 C 851.8125 621.1875 853.019531 620.890625 854.367188 619.097656 L 863.746094 605.957031 C 865.105469 604.015625 864.75 602.96875 862.519531 601.777344 L 863.167969 600.878906 L 876.511719 608.199219 C 881.109375 610.734375 882.386719 614.46875 880.328125 617.308594 C 878.183594 620.292969 874.164062 620.144531 870.828125 618.949219 C 871.390625 619.996094 871.203125 621.1875 871.082031 622.382812 Z M 865.328125 614.769531 C 870.453125 617.605469 873.058594 617.007812 875.117188 614.019531 C 877.074219 611.332031 875.96875 609.390625 872.648438 607.601562 C 870.605469 606.40625 870.027344 607.003906 868.921875 608.644531 L 864.734375 614.46875 Z M 865.328125 614.769531 "/>
<path style=" stroke:none;fill-rule:nonzero;fill:rgb(99.215686%,80.784314%,7.058824%);fill-opacity:1;" d="M 886.097656 617.308594 C 887.152344 615.214844 886.660156 614.171875 884.257812 613.273438 L 884.753906 612.378906 L 896.703125 617.007812 L 896.191406 618.054688 C 893.792969 617.007812 892.636719 617.457031 891.5625 619.398438 L 884.257812 633.585938 C 883.203125 635.523438 883.699219 636.570312 886.097656 637.464844 L 885.605469 638.511719 L 873.671875 633.734375 L 874.164062 632.6875 C 876.566406 633.734375 877.738281 633.433594 878.792969 631.34375 Z M 886.097656 617.308594 "/>
<path style=" stroke:none;fill-rule:nonzero;fill:rgb(99.215686%,80.784314%,7.058824%);fill-opacity:1;" d="M 915.34375 629.550781 L 913.625 629.402344 C 913.167969 626.117188 911.429688 622.085938 907.464844 621.039062 C 902.152344 619.546875 898.816406 625.070312 897.488281 628.65625 C 894.78125 635.972656 897.84375 640.304688 901.742188 641.347656 C 905.199219 642.394531 908.179688 640.902344 910.816406 639.109375 L 911.515625 640.003906 C 907.785156 642.992188 903.597656 644.484375 898.542969 643.140625 C 891.613281 641.050781 888.582031 634.628906 890.746094 628.804688 C 893.078125 622.382812 900.195312 617.605469 907.410156 619.695312 C 908.671875 619.996094 909.589844 620.59375 910.375 621.039062 C 911.15625 621.488281 911.789062 621.9375 912.484375 622.234375 C 913.40625 622.382812 914.375 622.234375 915.292969 622.234375 L 915.738281 622.085938 Z M 915.34375 629.550781 "/>
<path style=" stroke:none;fill-rule:nonzero;fill:rgb(99.215686%,80.784314%,7.058824%);fill-opacity:1;" d="M 933.75 643.886719 C 934.121094 646.277344 934.191406 647.921875 937.425781 648.515625 L 937.238281 649.5625 L 924.539062 647.769531 L 924.726562 646.726562 C 927.058594 647.023438 927.671875 646.574219 927.859375 645.679688 C 927.960938 645.082031 927.859375 644.335938 927.753906 643.738281 L 927.125 639.855469 L 917.914062 638.511719 L 916.742188 640.453125 C 916.265625 641.199219 915.703125 642.097656 915.53125 642.992188 C 915.242188 644.632812 916.792969 645.53125 918.359375 645.828125 L 918.171875 646.875 L 908.550781 645.53125 L 908.738281 644.484375 C 912.265625 644.1875 913.269531 642.691406 914.867188 640.15625 L 924.929688 624.625 L 930.480469 623.878906 Z M 925.066406 627.609375 L 918.902344 637.167969 L 926.820312 638.214844 Z M 925.066406 627.609375 "/>
<path style=" stroke:none;fill-rule:nonzero;fill:rgb(99.215686%,80.784314%,7.058824%);fill-opacity:1;" d="M 971.371094 631.644531 L 969.839844 632.238281 C 967.964844 629.253906 964.730469 625.96875 960.644531 626.265625 C 955.027344 626.566406 954.175781 632.835938 954.515625 636.570312 C 955.027344 644.335938 959.625 647.324219 963.710938 647.023438 C 967.285156 646.875 969.5 644.484375 971.199219 642.097656 L 972.222656 642.691406 C 970.007812 646.574219 966.773438 649.414062 961.328125 649.710938 C 954.175781 650.011719 948.644531 644.933594 948.21875 638.8125 C 947.757812 632.089844 952.472656 625.371094 959.964844 625.070312 C 961.328125 624.921875 962.347656 625.070312 963.371094 625.371094 C 964.222656 625.519531 965.074219 625.820312 965.753906 625.667969 C 966.773438 625.667969 967.625 625.222656 968.308594 624.921875 L 968.816406 624.625 Z M 971.371094 631.644531 "/>
<path style=" stroke:none;fill-rule:nonzero;fill:rgb(99.215686%,80.784314%,7.058824%);fill-opacity:1;" d="M 976.476562 646.875 C 979.03125 646.425781 979.882812 645.53125 979.203125 643.289062 L 975.285156 628.207031 C 974.605469 626.117188 973.585938 625.519531 971.03125 626.117188 L 970.691406 625.070312 L 992.3125 620.59375 L 996.054688 626.117188 L 995.035156 626.714844 C 991.96875 624.476562 987.542969 622.832031 983.628906 623.726562 C 980.394531 624.324219 980.5625 625.371094 981.246094 627.609375 L 982.777344 633.734375 L 983.628906 633.585938 C 987.203125 632.835938 988.566406 631.941406 988.90625 628.65625 L 990.269531 628.355469 L 992.652344 637.316406 L 991.289062 637.617188 C 989.585938 634.628906 987.542969 634.332031 983.96875 635.078125 L 983.289062 635.226562 L 984.992188 641.796875 C 985.5 643.589844 986.011719 644.785156 988.566406 644.335938 C 992.992188 643.441406 996.394531 640.453125 998.4375 637.019531 L 999.460938 637.167969 L 998.269531 643.589844 L 976.820312 647.921875 Z M 976.476562 646.875 "/>
<path style=" stroke:none;fill-rule:nonzero;fill:rgb(99.215686%,80.784314%,7.058824%);fill-opacity:1;" d="M 1022.441406 627.460938 L 1017.675781 617.605469 C 1016.316406 615.066406 1015.292969 613.871094 1011.886719 614.769531 L 1011.378906 613.871094 L 1020.230469 610.4375 L 1020.742188 611.484375 C 1017.847656 613.125 1018.015625 614.320312 1019.378906 617.007812 L 1027.550781 633.285156 L 1024.484375 634.480469 L 1002.695312 622.980469 L 1008.3125 634.332031 C 1009.84375 637.464844 1010.527344 637.914062 1014.441406 637.167969 L 1014.953125 638.214844 L 1005.417969 641.796875 L 1004.910156 640.902344 C 1007.972656 639.257812 1008.144531 638.0625 1006.78125 635.375 L 999.972656 621.785156 C 998.609375 621.1875 996.738281 621.039062 995.203125 621.339844 L 994.695312 620.292969 L 1003.207031 617.007812 Z M 1022.441406 627.460938 "/>
<path style=" stroke:none;fill-rule:nonzero;fill:rgb(99.215686%,80.784314%,7.058824%);fill-opacity:1;" d="M 1039.808594 598.640625 L 1045.597656 602.96875 L 1044.746094 603.867188 C 1041.679688 602.820312 1037.082031 601.925781 1034.019531 603.566406 L 1045.765625 618.652344 C 1047.296875 620.441406 1048.488281 620.59375 1050.703125 619.398438 L 1051.382812 620.144531 L 1040.488281 626.714844 L 1039.808594 625.820312 C 1042.019531 624.476562 1042.359375 623.429688 1040.828125 621.636719 L 1029.082031 606.554688 C 1026.359375 608.644531 1025.679688 612.230469 1025.679688 615.214844 L 1024.316406 615.664062 L 1021.761719 609.542969 Z M 1039.808594 598.640625 "/>
<path style=" stroke:none;fill-rule:nonzero;fill:rgb(99.215686%,80.784314%,7.058824%);fill-opacity:1;" d="M 1071.132812 597.296875 C 1073.855469 598.042969 1076.410156 598.789062 1078.792969 596.996094 L 1079.644531 597.742188 L 1073.175781 603.269531 C 1071.984375 603.121094 1070.960938 602.671875 1069.941406 602.375 L 1065.171875 600.730469 C 1060.238281 599.089844 1059.042969 599.835938 1057.851562 600.730469 L 1063.640625 605.808594 C 1065.34375 607.449219 1066.707031 607.449219 1068.578125 605.808594 L 1069.429688 606.554688 L 1060.066406 614.617188 L 1059.214844 613.871094 C 1061.085938 612.230469 1061.085938 611.183594 1059.386719 609.542969 L 1046.957031 598.492188 C 1045.085938 596.847656 1043.894531 596.996094 1042.019531 598.492188 L 1041.167969 597.742188 L 1052.40625 588.1875 C 1056.320312 584.753906 1060.746094 584.601562 1063.472656 586.992188 C 1066.363281 589.53125 1065.171875 592.964844 1063.128906 595.503906 C 1064.320312 595.355469 1065.683594 595.800781 1067.046875 596.101562 Z M 1057.171875 599.238281 C 1061.429688 595.503906 1061.429688 593.113281 1058.703125 590.726562 C 1056.152344 588.335938 1053.597656 588.933594 1050.875 591.324219 C 1049.171875 592.816406 1049.679688 593.414062 1051.214844 594.757812 L 1056.660156 599.683594 Z M 1057.171875 599.238281 "/>
<path style=" stroke:none;fill-rule:nonzero;fill:rgb(99.215686%,80.784314%,7.058824%);fill-opacity:1;" d="M 1089.859375 576.390625 C 1092.410156 577.136719 1094.285156 577.882812 1096.15625 575.492188 L 1097.179688 576.238281 L 1089.6875 585.347656 L 1088.835938 584.753906 C 1090.027344 583.109375 1090.027344 582.363281 1089.175781 581.914062 C 1088.496094 581.464844 1087.816406 581.316406 1087.132812 581.019531 L 1082.878906 579.824219 L 1077.429688 586.542969 L 1078.792969 588.1875 C 1079.472656 588.933594 1080.15625 589.828125 1080.835938 590.277344 C 1082.367188 591.324219 1084.070312 590.425781 1085.089844 589.382812 L 1085.941406 589.980469 L 1080.324219 596.996094 L 1079.304688 596.25 C 1080.664062 593.414062 1079.472656 591.921875 1077.769531 589.679688 L 1066.363281 574.746094 L 1068.066406 570.117188 Z M 1069.429688 575.941406 L 1076.410156 585.050781 L 1081.175781 579.375 Z M 1069.429688 575.941406 "/>
<path style=" stroke:none;fill-rule:nonzero;fill:rgb(99.215686%,80.784314%,7.058824%);fill-opacity:1;" d="M 1096.839844 574.296875 C 1098.03125 572.207031 1097.6875 571.164062 1095.304688 570.117188 L 1079.472656 563.246094 C 1077.261719 562.203125 1076.070312 562.652344 1074.878906 564.742188 L 1073.855469 564.292969 L 1079.644531 553.988281 L 1080.835938 554.4375 C 1079.644531 556.527344 1079.8125 557.574219 1082.199219 558.46875 L 1098.03125 565.339844 C 1099.902344 566.234375 1100.925781 566.535156 1102.117188 564.441406 C 1103.988281 561.007812 1103.136719 556.828125 1101.433594 553.390625 L 1102.117188 552.792969 L 1107.734375 557.425781 L 1097.859375 574.746094 Z M 1096.839844 574.296875 "/>
<path style=" stroke:none;fill-rule:nonzero;fill:rgb(99.215686%,80.784314%,7.058824%);fill-opacity:1;" d="M 1099.5625 541.59375 C 1100.074219 540.101562 1101.945312 539.355469 1103.648438 539.800781 C 1105.519531 540.25 1106.371094 541.894531 1105.859375 543.386719 C 1105.351562 545.03125 1103.476562 545.925781 1101.605469 545.328125 C 1099.902344 544.878906 1098.882812 543.238281 1099.5625 541.59375 Z M 1099.5625 541.59375 "/>
<path style=" stroke:none;fill-rule:nonzero;fill:rgb(99.215686%,80.784314%,7.058824%);fill-opacity:1;" d="M 800.65625 512.773438 C 802.902344 511.28125 804.960938 509.9375 804.6875 507.097656 L 805.882812 506.949219 L 807.277344 514.863281 C 806.425781 515.460938 805.421875 516.058594 804.484375 516.65625 L 800.296875 519.046875 C 795.964844 521.585938 795.789062 522.929688 796.023438 524.273438 L 804.128906 523.078125 C 806.664062 522.777344 807.328125 521.882812 806.917969 519.644531 L 808.109375 519.492188 L 810.136719 530.84375 L 808.945312 530.992188 C 808.535156 528.753906 807.601562 528.003906 805.0625 528.304688 L 787.613281 530.691406 C 785.078125 531.140625 784.425781 532.039062 784.832031 534.277344 L 783.636719 534.425781 L 781.203125 520.835938 C 780.367188 516.058594 782.746094 512.773438 786.582031 512.324219 C 790.5625 511.726562 792.996094 514.566406 794.191406 517.550781 C 794.773438 516.355469 795.953125 515.761719 797.046875 515.011719 Z M 794.214844 523.824219 C 793.28125 518.597656 791.042969 517.253906 787.207031 517.851562 C 783.550781 518.296875 782.574219 520.390625 783.179688 523.824219 C 783.554688 525.914062 784.476562 525.765625 786.539062 525.617188 L 794.320312 524.421875 Z M 794.214844 523.824219 "/>
<path style=" stroke:none;fill-rule:nonzero;fill:rgb(99.215686%,80.784314%,7.058824%);fill-opacity:1;" d="M 804.859375 505.753906 C 804.960938 503.515625 804.179688 502.617188 801.625 502.617188 L 783.976562 502.019531 C 781.414062 501.871094 780.574219 502.617188 780.472656 505.007812 L 779.265625 505.007812 L 780.101562 485.59375 L 787.035156 483.800781 L 787.46875 484.816406 C 784.191406 486.847656 781.335938 490.105469 781.179688 493.761719 C 781.054688 496.628906 782.152344 496.660156 784.863281 496.75 L 792 496.988281 L 792.03125 496.347656 C 792.167969 493.136719 791.609375 491.703125 787.957031 490.492188 L 788.011719 489.238281 L 798.59375 489.582031 L 798.542969 490.835938 C 794.804688 491.582031 793.890625 493.195312 793.753906 496.347656 L 793.722656 497.046875 L 801.453125 497.300781 C 803.566406 497.378906 805.011719 497.226562 805.113281 494.941406 C 805.285156 490.96875 802.867188 487.3125 799.648438 484.699219 L 800.195312 483.847656 L 806.902344 486.492188 L 806.066406 505.902344 Z M 804.859375 505.753906 "/>
<path style=" stroke:none;fill-rule:nonzero;fill:rgb(99.215686%,80.784314%,7.058824%);fill-opacity:1;" d="M 797.25 472.527344 L 804.792969 473.992188 C 807.292969 474.484375 808.28125 473.855469 808.859375 471.601562 L 810.035156 471.824219 L 807.175781 483.054688 L 806 482.832031 C 806.578125 480.578125 805.984375 479.636719 803.480469 479.144531 L 786.253906 475.769531 C 783.75 475.277344 782.765625 475.902344 782.191406 478.15625 L 781.007812 477.933594 L 783.882812 466.644531 C 785.671875 459.609375 789.714844 457.609375 793.253906 458.296875 C 799.835938 459.597656 799.089844 465.332031 797.949219 469.824219 Z M 795.859375 472.246094 L 796.332031 470.390625 C 797.285156 466.660156 796.160156 464.597656 791.933594 463.777344 C 788.039062 463 785.886719 464.523438 785.136719 467.480469 C 784.488281 470.019531 785.5625 470.226562 788.027344 470.707031 Z M 795.859375 472.246094 "/>
<path style=" stroke:none;fill-rule:nonzero;fill:rgb(99.215686%,80.784314%,7.058824%);fill-opacity:1;" d="M 806.75 452.890625 C 812.84375 455.191406 815.429688 454.101562 816.929688 450.890625 C 818.9375 446.574219 816.554688 444.15625 811.601562 442.378906 L 799.683594 438.121094 C 797.316406 437.269531 796.226562 437.75 795.230469 439.882812 L 794.109375 439.480469 L 797.523438 432.164062 L 798.628906 432.566406 C 797.640625 434.71875 798.03125 435.71875 800.417969 436.570312 L 812.589844 440.929688 C 818.496094 443.050781 820.554688 446.425781 817.847656 452.234375 C 815.089844 458.148438 810.664062 460 805.421875 458.117188 L 792.527344 453.503906 C 790.152344 452.652344 789.058594 453.128906 788.058594 455.265625 L 786.941406 454.863281 L 791.902344 444.214844 L 793.019531 444.617188 C 792.023438 446.753906 792.421875 447.769531 794.796875 448.621094 Z M 806.75 452.890625 "/>
<path style=" stroke:none;fill-rule:nonzero;fill:rgb(99.215686%,80.784314%,7.058824%);fill-opacity:1;" d="M 821.664062 442.378906 L 820.640625 441.808594 C 822.054688 439.855469 821.867188 438.792969 819.703125 437.585938 L 804.792969 429.28125 C 802.628906 428.070312 801.472656 428.371094 800.042969 430.328125 L 799.039062 429.757812 L 806.152344 419.917969 C 811.175781 412.988281 814.714844 412.839844 817.457031 414.378906 C 820.65625 416.140625 820.078125 419.828125 818.921875 422.488281 L 818.972656 422.53125 C 821.832031 419.902344 825.355469 417.511719 829.527344 419.84375 C 833.171875 421.875 833.867188 425.53125 830.039062 430.820312 Z M 815.074219 426.59375 C 817.558594 423.171875 817.355469 420.933594 814.136719 419.140625 C 810.921875 417.347656 808.671875 418.425781 806.78125 421.023438 C 806.339844 421.648438 805.8125 422.546875 806 423.246094 C 806.203125 423.859375 806.886719 424.1875 807.429688 424.503906 L 813.96875 428.144531 Z M 821.933594 432.582031 C 824.589844 434.074219 825.730469 434.777344 827.757812 431.984375 C 829.679688 429.324219 829.628906 426.519531 825.644531 424.292969 C 822.886719 422.769531 820.148438 422.410156 816.554688 427.382812 L 815.414062 428.953125 Z M 821.933594 432.582031 "/>
<path style=" stroke:none;fill-rule:nonzero;fill:rgb(99.215686%,80.784314%,7.058824%);fill-opacity:1;" d="M 835.503906 421.785156 C 837.273438 420.066406 837.289062 418.992188 835.382812 417.484375 L 822.292969 407.089844 C 820.386719 405.582031 819.175781 405.703125 817.40625 407.417969 L 816.519531 406.703125 L 825.324219 398.175781 L 826.207031 398.890625 C 824.4375 400.59375 824.421875 401.667969 826.328125 403.175781 L 839.417969 413.570312 C 841.050781 414.871094 841.765625 415.40625 843.589844 413.644531 C 846.621094 410.71875 846.976562 406.492188 846.433594 402.757812 L 847.316406 402.386719 L 851.199219 408.152344 L 836.386719 422.488281 Z M 835.503906 421.785156 "/>
<path style=" stroke:none;fill-rule:nonzero;fill:rgb(99.215686%,80.784314%,7.058824%);fill-opacity:1;" d="M 841.765625 389.84375 C 840.132812 388.109375 838.90625 388.078125 836.882812 389.558594 L 836.117188 388.753906 L 846.195312 381.390625 L 846.960938 382.210938 C 844.933594 383.691406 844.746094 384.75 846.398438 386.480469 L 857.667969 398.382812 C 859.320312 400.117188 860.527344 400.144531 862.570312 398.667969 L 863.335938 399.488281 L 853.242188 406.835938 L 852.476562 406.03125 C 854.5 404.550781 854.6875 403.492188 853.054688 401.757812 Z M 841.765625 389.84375 "/>
<path style=" stroke:none;fill-rule:nonzero;fill:rgb(99.215686%,80.784314%,7.058824%);fill-opacity:1;" d="M 873.277344 373.625 L 872.171875 374.773438 C 868.921875 372.9375 864.324219 371.535156 860.785156 373.488281 C 856.085938 376.101562 858.808594 381.941406 861.105469 385.109375 C 865.855469 391.679688 871.527344 392.320312 875 390.410156 C 878.0625 388.691406 878.660156 385.734375 878.8125 382.839844 L 879.988281 382.914062 C 880.257812 387.363281 878.914062 391.15625 874.4375 393.648438 C 868.273438 397.070312 860.679688 394.964844 856.917969 389.753906 C 852.851562 384.109375 853.191406 376.238281 859.589844 372.683594 C 860.699219 372.054688 861.753906 371.773438 862.691406 371.5625 C 863.609375 371.355469 864.425781 371.207031 865.039062 370.863281 C 865.855469 370.414062 866.351562 369.683594 866.84375 368.980469 L 867.097656 368.652344 Z M 873.277344 373.625 "/>
<path style=" stroke:none;fill-rule:nonzero;fill:rgb(99.215686%,80.784314%,7.058824%);fill-opacity:1;" d="M 903.054688 375.3125 C 904.808594 377.179688 905.863281 378.613281 908.945312 377.582031 L 909.402344 378.566406 L 897.488281 382.808594 L 897.027344 381.835938 C 899.171875 381 899.496094 380.433594 899.085938 379.539062 C 898.832031 378.96875 898.339844 378.417969 897.878906 377.957031 L 895.035156 374.878906 L 886.386719 377.96875 L 886.507812 380.105469 C 886.558594 380.988281 886.589844 382.015625 886.984375 382.851562 C 887.679688 384.363281 889.519531 384.40625 891.050781 383.957031 L 891.511719 384.945312 L 882.488281 388.167969 L 882.027344 387.183594 C 884.820312 385.289062 884.820312 383.554688 884.734375 380.734375 L 884.175781 362.898438 L 888.480469 359.730469 Z M 886.011719 365.335938 L 886.40625 376.328125 L 893.84375 373.667969 Z M 886.011719 365.335938 "/>
<path style=" stroke:none;fill-rule:nonzero;fill:rgb(99.215686%,80.784314%,7.058824%);fill-opacity:1;" d="M 920.164062 375.191406 C 922.785156 374.9375 923.601562 374.148438 923.3125 371.90625 L 921.371094 356.511719 C 921.082031 354.273438 920.09375 353.660156 917.472656 353.914062 L 917.335938 352.859375 L 930.003906 351.628906 C 932.265625 351.410156 934.328125 351.433594 936.300781 351.886719 C 941.203125 353.058594 945.121094 356.527344 945.835938 362.179688 C 946.480469 367.382812 943.453125 371.625 939.230469 373.566406 C 937.390625 374.414062 935.296875 374.773438 932.964844 375.011719 L 920.300781 376.238281 Z M 929.253906 370.980469 C 929.542969 373.371094 929.644531 374.074219 932.847656 373.757812 C 937.390625 373.324219 940.488281 370.757812 939.382812 361.96875 C 938.394531 354.109375 934.753906 352.429688 929.796875 352.910156 C 926.988281 353.183594 927.109375 354.140625 927.382812 356.152344 Z M 929.253906 370.980469 "/>
<path style=" stroke:none;fill-rule:nonzero;fill:rgb(99.215686%,80.784314%,7.058824%);fill-opacity:1;" d="M 947.726562 372.652344 C 950.433594 372.804688 951.28125 372.160156 951.453125 369.90625 L 952.644531 354.453125 C 952.816406 352.210938 951.964844 351.453125 949.410156 351.296875 L 949.410156 350.238281 L 971.542969 351.539062 L 973.242188 357.667969 L 972.222656 358.019531 C 969.839844 355.085938 966.265625 352.488281 962.179688 352.242188 C 958.945312 352.050781 958.773438 353.011719 958.601562 355.386719 L 958.09375 361.636719 L 958.945312 361.679688 C 962.519531 361.894531 964.222656 361.445312 965.753906 358.28125 L 967.113281 358.363281 L 966.433594 367.636719 L 964.902344 367.546875 C 964.222656 364.25 962.347656 363.402344 958.773438 363.191406 L 958.09375 363.144531 L 957.582031 369.90625 C 957.410156 371.773438 957.410156 373.027344 960.136719 373.191406 C 964.5625 373.460938 968.816406 371.445312 971.882812 368.695312 L 972.902344 369.203125 L 969.667969 375.011719 L 947.640625 373.714844 Z M 947.726562 372.652344 "/>
<path style=" stroke:none;fill-rule:nonzero;fill:rgb(99.215686%,80.784314%,7.058824%);fill-opacity:1;" d="M 1006.269531 376.207031 L 1010.1875 366.039062 C 1011.207031 363.453125 1011.378906 361.90625 1008.144531 360.617188 L 1008.484375 359.613281 L 1017.675781 362.308594 L 1017.164062 363.316406 C 1013.761719 362.828125 1013.078125 363.890625 1011.886719 366.574219 L 1005.417969 383.539062 L 1002.355469 382.597656 L 995.035156 361.152344 L 990.4375 372.847656 C 989.246094 376.164062 989.417969 376.925781 992.820312 378.671875 L 992.480469 379.6875 L 982.605469 376.777344 L 982.949219 375.773438 C 986.523438 376.296875 987.375 375.582031 988.566406 372.773438 L 993.84375 358.761719 C 993.332031 357.40625 992.140625 356.214844 990.777344 355.488281 L 991.117188 354.484375 L 999.972656 357.089844 Z M 1006.269531 376.207031 "/>
<path style=" stroke:none;fill-rule:nonzero;fill:rgb(99.215686%,80.784314%,7.058824%);fill-opacity:1;" d="M 1021.761719 368.921875 C 1022.953125 366.90625 1022.441406 365.917969 1020.058594 364.875 L 1020.742188 363.929688 L 1032.316406 369.101562 L 1031.804688 370.054688 C 1029.421875 369.011719 1028.230469 369.277344 1027.210938 371.296875 L 1019.207031 385.125 C 1018.015625 387.125 1018.527344 388.125 1020.910156 389.171875 L 1020.398438 390.109375 L 1008.652344 384.945312 L 1009.164062 383.988281 C 1011.546875 385.035156 1012.738281 384.765625 1013.929688 382.75 Z M 1021.761719 368.921875 "/>
<path style=" stroke:none;fill-rule:nonzero;fill:rgb(99.215686%,80.784314%,7.058824%);fill-opacity:1;" d="M 1051.382812 387.8125 L 1049.679688 387.363281 C 1050.363281 384.019531 1050.023438 379.761719 1046.445312 377.703125 C 1041.851562 374.96875 1036.914062 379.476562 1034.53125 382.597656 C 1029.59375 389.035156 1031.125 393.859375 1034.53125 395.875 C 1037.425781 397.667969 1040.828125 396.964844 1043.894531 395.933594 L 1044.402344 396.90625 C 1039.808594 398.890625 1035.210938 399.324219 1030.957031 396.710938 C 1024.828125 393.128906 1023.976562 386.183594 1027.890625 381.078125 C 1032.316406 375.550781 1040.660156 372.683594 1046.957031 376.417969 C 1047.980469 377.058594 1048.660156 377.789062 1049.339844 378.464844 C 1049.851562 379.121094 1050.363281 379.71875 1050.875 380.074219 C 1051.722656 380.554688 1052.746094 380.65625 1053.597656 380.777344 L 1054.109375 380.851562 Z M 1051.382812 387.8125 "/>
<path style=" stroke:none;fill-rule:nonzero;fill:rgb(99.215686%,80.784314%,7.058824%);fill-opacity:1;" d="M 1061.429688 412.40625 C 1060.238281 414.558594 1059.214844 415.976562 1061.429688 418.035156 L 1060.578125 418.796875 L 1051.382812 410.929688 L 1052.234375 410.167969 C 1053.9375 411.554688 1054.789062 411.601562 1055.46875 410.898438 C 1055.980469 410.464844 1056.320312 409.851562 1056.660156 409.300781 L 1058.703125 405.777344 L 1052.066406 400.054688 L 1049.851562 401.011719 C 1049 401.414062 1047.808594 401.847656 1047.128906 402.492188 C 1045.9375 403.671875 1046.617188 405.164062 1047.640625 406.222656 L 1046.789062 406.984375 L 1039.808594 401.011719 L 1040.660156 400.25 C 1043.722656 401.742188 1045.597656 401.042969 1048.488281 399.847656 L 1066.875 392.261719 L 1071.984375 394.457031 Z M 1065.171875 394.710938 L 1053.765625 399.429688 L 1059.554688 404.34375 Z M 1065.171875 394.710938 "/>
<path style=" stroke:none;fill-rule:nonzero;fill:rgb(99.215686%,80.784314%,7.058824%);fill-opacity:1;" d="M 1078.792969 432.476562 C 1077.429688 434.703125 1076.238281 436.71875 1077.941406 439.105469 L 1076.921875 439.71875 L 1071.8125 433.164062 C 1072.152344 432.238281 1072.835938 431.371094 1073.34375 430.492188 L 1075.898438 426.667969 C 1078.621094 422.726562 1078.113281 421.5 1077.261719 420.378906 L 1070.449219 424.441406 C 1068.40625 425.710938 1068.238281 426.773438 1069.769531 428.683594 L 1068.75 429.28125 L 1061.429688 419.785156 L 1062.28125 419.1875 C 1063.8125 421.097656 1065.003906 421.367188 1067.214844 420.097656 L 1081.6875 411.347656 C 1083.898438 410.078125 1083.898438 409.015625 1082.539062 407.105469 L 1083.558594 406.507812 L 1092.410156 417.917969 C 1095.476562 421.84375 1094.964844 425.710938 1091.730469 427.625 C 1088.324219 429.625 1084.75 427.996094 1082.199219 425.773438 C 1082.199219 426.980469 1081.515625 428.042969 1080.835938 429.085938 Z M 1079.132812 420.039062 C 1082.539062 424.414062 1085.261719 424.757812 1088.324219 422.828125 C 1091.390625 421.007812 1091.390625 418.8125 1089.175781 415.976562 C 1087.816406 414.226562 1086.964844 414.601562 1085.261719 415.632812 L 1078.792969 419.53125 Z M 1079.132812 420.039062 "/>
<path style=" stroke:none;fill-rule:nonzero;fill:rgb(99.215686%,80.784314%,7.058824%);fill-opacity:1;" d="M 1092.070312 458.625 C 1090.027344 460.164062 1088.324219 461.089844 1089.519531 463.792969 L 1088.496094 464.195312 L 1083.558594 453.757812 L 1084.582031 453.355469 C 1085.601562 455.234375 1086.28125 455.519531 1087.304688 455.144531 C 1087.984375 454.921875 1088.496094 454.488281 1089.007812 454.085938 L 1092.582031 451.578125 L 1089.007812 443.992188 L 1086.625 444.109375 C 1085.601562 444.15625 1084.410156 444.199219 1083.558594 444.542969 C 1081.6875 445.15625 1081.6875 446.769531 1082.199219 448.113281 L 1081.175781 448.515625 L 1077.429688 440.601562 L 1078.453125 440.210938 C 1080.664062 442.660156 1082.707031 442.644531 1085.941406 442.558594 L 1106.203125 442.035156 L 1109.777344 445.796875 Z M 1103.476562 443.648438 L 1090.878906 444.019531 L 1093.945312 450.53125 Z M 1103.476562 443.648438 "/>
<path style=" stroke:none;fill-rule:nonzero;fill:rgb(99.215686%,80.784314%,7.058824%);fill-opacity:1;" d="M 1112.160156 480.980469 L 1111.480469 480.007812 C 1115.222656 476.378906 1117.097656 474.019531 1116.414062 471.183594 C 1115.734375 468.152344 1111.648438 465.585938 1102.625 467.195312 C 1093.605469 468.792969 1090.710938 471.824219 1091.5625 475.320312 C 1092.410156 478.785156 1095.476562 478.800781 1098.710938 478.21875 C 1101.605469 477.695312 1101.773438 476.992188 1101.433594 474.527344 L 1102.796875 474.273438 L 1105.351562 484.953125 L 1103.816406 485.207031 C 1102.964844 482.683594 1102.117188 482.546875 1099.390625 483.027344 L 1093.945312 483.96875 C 1093.433594 481.773438 1093.433594 481.621094 1092.242188 479.753906 C 1091.21875 478.234375 1090.539062 476.886719 1090.027344 475.15625 C 1088.496094 468.421875 1092.753906 463.253906 1100.414062 461.878906 C 1107.734375 460.597656 1116.074219 463.777344 1117.777344 470.675781 C 1117.949219 471.617188 1117.949219 472.453125 1117.777344 473.230469 C 1117.605469 474.007812 1117.605469 474.679688 1117.777344 475.246094 C 1117.949219 476.066406 1118.628906 477.097656 1119.308594 477.710938 Z M 1112.160156 480.980469 "/>
<path style=" stroke:none;fill-rule:nonzero;fill:rgb(99.215686%,80.784314%,7.058824%);fill-opacity:1;" d="M 1102.796875 493.613281 C 1096.15625 493.628906 1094.285156 495.523438 1094.285156 499.003906 C 1094.453125 503.664062 1097.6875 505.007812 1103.136719 505.007812 L 1115.90625 504.710938 C 1118.457031 504.710938 1119.308594 503.8125 1119.308594 501.574219 L 1120.5 501.574219 L 1120.671875 509.488281 L 1119.480469 509.488281 C 1119.308594 507.097656 1118.457031 506.351562 1115.90625 506.351562 L 1102.796875 506.652344 C 1096.496094 506.800781 1093.09375 504.410156 1092.921875 498.09375 C 1092.753906 491.703125 1095.988281 488.460938 1101.605469 488.371094 L 1115.566406 488.132812 C 1118.117188 488.089844 1118.96875 487.265625 1118.800781 484.953125 L 1119.992188 484.9375 L 1120.332031 496.4375 L 1119.140625 496.464844 C 1119.140625 494.152344 1118.289062 493.359375 1115.734375 493.40625 Z M 1102.796875 493.613281 "/>
<path style=" stroke:none;fill-rule:nonzero;fill:rgb(99.215686%,80.784314%,7.058824%);fill-opacity:1;" d="M 1095.816406 529.945312 C 1093.09375 530.246094 1091.21875 530.394531 1090.539062 533.230469 L 1089.347656 533.082031 L 1091.390625 521.882812 L 1092.582031 522.03125 C 1092.242188 524.121094 1092.753906 524.570312 1093.773438 524.71875 C 1094.453125 524.871094 1095.304688 524.871094 1095.988281 524.71875 L 1100.414062 524.121094 L 1101.945312 516.058594 L 1099.730469 515.011719 C 1098.882812 514.714844 1097.859375 514.117188 1096.839844 513.96875 C 1094.964844 513.667969 1093.945312 515.164062 1093.605469 516.507812 L 1092.410156 516.355469 L 1093.945312 507.84375 L 1095.136719 507.996094 C 1095.644531 511.128906 1097.347656 512.027344 1100.074219 513.371094 L 1117.777344 522.332031 L 1118.628906 527.109375 Z M 1114.371094 522.332031 L 1103.476562 516.953125 L 1102.285156 523.972656 Z M 1114.371094 522.332031 "/>
</g>
</svg>
