<?xml version="1.0" encoding="UTF-8"?>
<svg xmlns="http://www.w3.org/2000/svg" xmlns:xlink="http://www.w3.org/1999/xlink" width="1900pt" height="1000pt" viewBox="0 0 1900 1000" version="1.1">
<g id="surface1">
<rect x="0" y="0" width="1900" height="1000" style="fill:rgb(0%,41.960784%,24.705882%);fill-opacity:1;stroke:none;"/>
<path style=" stroke:none;fill-rule:nonzero;fill:rgb(100%,100%,100%);fill-opacity:1;" d="M 0 541.667969 L 1900 541.667969 L 1900 625 L 0 625 Z M 0 541.667969 "/>
<path style=" stroke:none;fill-rule:nonzero;fill:rgb(0%,0%,0%);fill-opacity:1;" d="M 0 458.332031 L 1900 458.332031 L 1900 541.667969 L 0 541.667969 Z M 0 458.332031 "/>
<path style=" stroke:none;fill-rule:nonzero;fill:rgb(98.823529%,81.960784%,8.627451%);fill-opacity:1;" d="M 0 375 L 1900 375 L 1900 458.332031 L 0 458.332031 Z M 0 375 "/>
<path style=" stroke:none;fill-rule:nonzero;fill:rgb(98.823529%,81.960784%,8.627451%);fill-opacity:1;" d="M 831.25 0 L 910.417969 0 L 910.417969 1000 L 831.25 1000 Z M 831.25 0 "/>
<path style=" stroke:none;fill-rule:nonzero;fill:rgb(0%,0%,0%);fill-opacity:1;" d="M 910.417969 0 L 989.582031 0 L 989.582031 1000 L 910.417969 1000 Z M 910.417969 0 "/>
<path style=" stroke:none;fill-rule:nonzero;fill:rgb(100%,100%,100%);fill-opacity:1;" d="M 989.582031 0 L 1068.75 0 L 1068.75 1000 L 989.582031 1000 Z M 989.582031 0 "/>
<path style=" stroke:none;fill-rule:nonzero;fill:rgb(83.137255%,10.980392%,18.823529%);fill-opacity:1;" d="M 1187.496094 499.996094 C 1188.191406 589.796875 1143.078125 673.089844 1069.308594 718.203125 C 995.542969 763.316406 904.457031 763.316406 830.691406 718.203125 C 756.921875 673.089844 711.808594 589.796875 712.503906 499.996094 C 711.808594 410.195312 756.921875 326.902344 830.691406 281.789062 C 904.457031 236.675781 995.542969 236.675781 1069.308594 281.789062 C 1143.078125 326.902344 1188.191406 410.195312 1187.496094 499.996094 Z M 1187.496094 499.996094 "/>
<path style="fill-rule:nonzero;fill:rgb(0%,41.960784%,24.705882%);fill-opacity:1;stroke-width:1;stroke-linecap:butt;stroke-linejoin:miter;stroke:rgb(0%,0%,0%);stroke-opacity:1;stroke-miterlimit:4;" d="M 595.189145 181.589062 C 595.189145 181.371094 600 167.871094 600 167.871094 L 604.369243 181.371094 C 604.369243 181.371094 619.018914 181.809375 619.018914 181.589062 C 619.018914 181.371094 607.430921 190.439063 607.430921 190.439063 C 607.430921 190.439063 612.900493 205.928906 612.680921 205.490625 C 612.458882 205.05 600 196.2 600 196.2 C 600 196.2 587.319079 205.05 587.541118 205.05 C 587.760691 205.05 592.349507 190.439063 592.349507 190.439063 L 580.981086 181.809375 Z M 595.189145 181.589062 " transform="matrix(1.583333,0,0,1.666667,0,0)"/>
<path style="fill-rule:nonzero;fill:rgb(0%,41.960784%,24.705882%);fill-opacity:1;stroke-width:1;stroke-linecap:butt;stroke-linejoin:miter;stroke:rgb(0%,0%,0%);stroke-opacity:1;stroke-miterlimit:4;" d="M 604.810855 418.750781 C 604.810855 418.971094 600 432.471094 600 432.471094 L 595.630757 418.971094 C 595.630757 418.971094 580.981086 418.530469 580.981086 418.750781 C 580.981086 418.971094 592.569079 409.900781 592.569079 409.900781 C 592.569079 409.900781 587.099507 394.410937 587.319079 394.849219 C 587.541118 395.289844 600 404.149219 600 404.149219 C 600 404.149219 612.680921 395.289844 612.458882 395.289844 C 612.239309 395.289844 607.650493 409.900781 607.650493 409.900781 L 619.018914 418.530469 Z M 604.810855 418.750781 " transform="matrix(1.583333,0,0,1.666667,0,0)"/>
<path style="fill-rule:nonzero;fill:rgb(0%,41.960784%,24.705882%);fill-opacity:1;stroke-width:1;stroke-linecap:butt;stroke-linejoin:miter;stroke:rgb(0%,0%,0%);stroke-opacity:1;stroke-miterlimit:4;" d="M 669.720395 215.460938 C 669.720395 215.678906 664.909539 229.178906 664.909539 229.178906 L 660.530428 215.678906 C 660.530428 215.678906 645.890625 215.240625 645.890625 215.460938 C 645.890625 215.678906 657.471217 206.610938 657.471217 206.610938 C 657.471217 206.610938 652.009046 191.121094 652.231086 191.559375 C 652.440789 192 664.909539 200.85 664.909539 200.85 C 664.909539 200.85 677.590461 192 677.370888 192 C 677.148849 192 672.560033 206.610938 672.560033 206.610938 L 683.930921 215.240625 Z M 669.720395 215.460938 " transform="matrix(1.583333,0,0,1.666667,0,0)"/>
<path style="fill-rule:nonzero;fill:rgb(0%,41.960784%,24.705882%);fill-opacity:1;stroke-width:1;stroke-linecap:butt;stroke-linejoin:miter;stroke:rgb(0%,0%,0%);stroke-opacity:1;stroke-miterlimit:4;" d="M 711.809211 338.510156 C 711.809211 338.730469 707.000822 352.230469 707.000822 352.230469 L 702.629112 338.730469 C 702.629112 338.730469 687.979441 338.289844 687.979441 338.510156 C 687.979441 338.730469 699.569901 329.660156 699.569901 329.660156 C 699.569901 329.660156 694.100329 314.170312 694.319901 314.610937 C 694.539474 315.049219 707.000822 323.899219 707.000822 323.899219 C 707.000822 323.899219 719.679276 315.049219 719.459704 315.049219 C 719.25 315.049219 714.648849 329.660156 714.648849 329.660156 L 726.019737 338.289844 Z M 711.809211 338.510156 " transform="matrix(1.583333,0,0,1.666667,0,0)"/>
<path style="fill-rule:nonzero;fill:rgb(0%,41.960784%,24.705882%);fill-opacity:1;stroke-width:1;stroke-linecap:butt;stroke-linejoin:miter;stroke:rgb(0%,0%,0%);stroke-opacity:1;stroke-miterlimit:4;" d="M 497.790296 342.030469 C 497.790296 342.250781 492.979441 355.739062 492.979441 355.739062 L 488.610197 342.250781 C 488.610197 342.250781 473.960526 341.800781 473.960526 342.030469 C 473.960526 342.250781 485.550987 333.171094 485.550987 333.171094 C 485.550987 333.171094 480.078947 317.678906 480.300987 318.128906 C 480.520559 318.569531 492.979441 327.419531 492.979441 327.419531 C 492.979441 327.419531 505.660362 318.569531 505.440789 318.569531 C 505.221217 318.569531 500.629934 333.171094 500.629934 333.171094 L 512.000822 341.800781 Z M 497.790296 342.030469 " transform="matrix(1.583333,0,0,1.666667,0,0)"/>
<path style="fill-rule:nonzero;fill:rgb(0%,41.960784%,24.705882%);fill-opacity:1;stroke-width:1;stroke-linecap:butt;stroke-linejoin:miter;stroke:rgb(0%,0%,0%);stroke-opacity:1;stroke-miterlimit:4;" d="M 536.649671 216.9 C 536.649671 217.120312 531.838816 230.620312 531.838816 230.620312 L 527.459704 217.120312 C 527.459704 217.120312 512.819901 216.679688 512.819901 216.9 C 512.819901 217.120312 524.400493 208.05 524.400493 208.05 C 524.400493 208.05 518.940789 192.560156 519.160362 193.000781 C 519.370066 193.439063 531.838816 202.289062 531.838816 202.289062 C 531.838816 202.289062 544.519737 193.439063 544.300164 193.439063 C 544.080592 193.439063 539.489309 208.05 539.489309 208.05 L 550.860197 216.679688 Z M 536.649671 216.9 " transform="matrix(1.583333,0,0,1.666667,0,0)"/>
<path style="fill-rule:nonzero;fill:rgb(0%,41.960784%,24.705882%);fill-opacity:1;stroke-width:1;stroke-linecap:butt;stroke-linejoin:miter;stroke:rgb(0%,0%,0%);stroke-opacity:1;stroke-miterlimit:4;" d="M 487.319901 261.860156 C 487.319901 261.639844 492.130757 248.139844 492.130757 248.139844 L 496.5 261.639844 C 496.5 261.639844 511.149671 262.080469 511.149671 261.860156 C 511.149671 261.639844 499.559211 270.710156 499.559211 270.710156 C 499.559211 270.710156 505.028783 286.2 504.809211 285.759375 C 504.589638 285.321094 492.130757 276.471094 492.130757 276.471094 C 492.130757 276.471094 479.449836 285.321094 479.669408 285.321094 C 479.879112 285.321094 484.480263 270.710156 484.480263 270.710156 L 473.109375 262.080469 Z M 487.319901 261.860156 " transform="matrix(1.583333,0,0,1.666667,0,0)"/>
<path style="fill-rule:nonzero;fill:rgb(0%,41.960784%,24.705882%);fill-opacity:1;stroke-width:1;stroke-linecap:butt;stroke-linejoin:miter;stroke:rgb(0%,0%,0%);stroke-opacity:1;stroke-miterlimit:4;" d="M 529.139803 384.689062 C 529.139803 384.459375 533.950658 370.971094 533.950658 370.971094 L 538.319901 384.459375 C 538.319901 384.459375 552.969572 384.909375 552.969572 384.689062 C 552.969572 384.459375 541.38898 393.539062 541.38898 393.539062 C 541.38898 393.539062 546.851151 409.028906 546.629112 408.578906 C 546.409539 408.140625 533.950658 399.290625 533.950658 399.290625 C 533.950658 399.290625 521.269737 408.140625 521.489309 408.140625 C 521.708882 408.140625 526.300164 393.539062 526.300164 393.539062 L 514.929276 384.909375 Z M 529.139803 384.689062 " transform="matrix(1.583333,0,0,1.666667,0,0)"/>
<path style="fill-rule:nonzero;fill:rgb(0%,41.960784%,24.705882%);fill-opacity:1;stroke-width:1;stroke-linecap:butt;stroke-linejoin:miter;stroke:rgb(0%,0%,0%);stroke-opacity:1;stroke-miterlimit:4;" d="M 701.430099 258.590625 C 701.430099 258.360937 706.240954 244.870312 706.240954 244.870312 L 710.610197 258.360937 C 710.610197 258.360937 725.259868 258.810937 725.259868 258.590625 C 725.259868 258.360937 713.669408 267.440625 713.669408 267.440625 C 713.669408 267.440625 719.13898 282.930469 718.919408 282.480469 C 718.699836 282.039844 706.240954 273.189844 706.240954 273.189844 C 706.240954 273.189844 693.560033 282.039844 693.779605 282.039844 C 693.999178 282.039844 698.590461 267.440625 698.590461 267.440625 L 687.219572 258.810937 Z M 701.430099 258.590625 " transform="matrix(1.583333,0,0,1.666667,0,0)"/>
<path style="fill-rule:nonzero;fill:rgb(0%,41.960784%,24.705882%);fill-opacity:1;stroke-width:1;stroke-linecap:butt;stroke-linejoin:miter;stroke:rgb(0%,0%,0%);stroke-opacity:1;stroke-miterlimit:4;" d="M 662.449836 383.528906 C 662.449836 383.310937 667.260691 369.810937 667.260691 369.810937 L 671.629934 383.310937 C 671.629934 383.310937 686.279605 383.749219 686.279605 383.528906 C 686.279605 383.310937 674.689145 392.378906 674.689145 392.378906 C 674.689145 392.378906 680.161184 407.871094 679.939145 407.430469 C 679.719572 406.980469 667.260691 398.130469 667.260691 398.130469 C 667.260691 398.130469 654.57977 406.980469 654.799342 406.980469 C 655.018914 406.980469 659.610197 392.378906 659.610197 392.378906 L 648.239309 383.749219 Z M 662.449836 383.528906 " transform="matrix(1.583333,0,0,1.666667,0,0)"/>
<path style="fill-rule:nonzero;fill:rgb(0%,41.960784%,24.705882%);fill-opacity:1;stroke-width:2.5;stroke-linecap:butt;stroke-linejoin:miter;stroke:rgb(0%,0%,0%);stroke-opacity:1;stroke-miterlimit:4;" d="M 711.015223 586.128802 C 711.014258 481.291752 697.223145 396.308164 680.207988 396.306982 C 663.20129 396.306899 649.402962 481.29765 649.403926 586.1347 C 649.405464 690.961733 663.196578 775.945322 680.211734 775.946503 C 697.22689 775.947685 711.016187 690.965852 711.015223 586.128802 Z M 711.015223 586.128802 " transform="matrix(0.458459,-0.0503038,0.0262642,0.387097,655.314195,373.456313)"/>
<path style="fill-rule:nonzero;fill:rgb(0%,41.960784%,24.705882%);fill-opacity:1;stroke-width:2.5;stroke-linecap:butt;stroke-linejoin:miter;stroke:rgb(0%,0%,0%);stroke-opacity:1;stroke-miterlimit:4;" d="M 711.011876 586.131486 C 711.012201 481.290244 697.22684 396.306098 680.212721 396.314443 C 663.199148 396.312771 649.401626 481.299215 649.401846 586.13044 C 649.402066 690.961665 663.195423 775.946907 680.208996 775.948579 C 697.222569 775.950251 711.012096 690.962711 711.011876 586.131486 Z M 711.011876 586.131486 " transform="matrix(0.484904,-0.0530747,0.0264179,0.387081,651.172544,375.188654)"/>
<path style="fill-rule:nonzero;fill:rgb(0%,41.960784%,24.705882%);fill-opacity:1;stroke-width:2.5;stroke-linecap:butt;stroke-linejoin:miter;stroke:rgb(0%,0%,0%);stroke-opacity:1;stroke-miterlimit:4;" d="M 711.017662 586.130374 C 711.012855 481.297872 697.223184 396.308249 680.205487 396.308333 C 663.197787 396.309425 649.407164 481.2929 649.401313 586.133456 C 649.40612 690.965957 663.196453 775.946518 680.21415 775.946434 C 697.22185 775.945342 711.012473 690.961867 711.017662 586.130374 Z M 711.017662 586.130374 " transform="matrix(0.387924,-0.0431515,0.0283385,0.427917,709.417147,348.440693)"/>
<path style="fill-rule:nonzero;fill:rgb(61.176471%,29.019608%,0%);fill-opacity:1;stroke-width:2.5054;stroke-linecap:butt;stroke-linejoin:miter;stroke:rgb(0%,0%,0%);stroke-opacity:1;stroke-miterlimit:4;" d="M 238.34031 971.787717 C 268.312499 970.116806 254.990843 955.138103 269.976216 946.809039 C 284.961758 938.488666 306.605392 943.482197 313.266405 953.466521 C 319.927586 963.459536 314.940829 973.459882 323.263715 973.463291 C 331.586431 973.458009 557.81533 960.781041 566.135834 969.112665 C 574.465664 977.426751 576.142838 994.081842 567.813439 1000.70283 C 559.475897 1007.402191 273.314833 1015.101297 263.324667 1008.396459 C 253.326865 1001.796065 238.343767 973.456773 238.34031 971.787717 Z M 238.34031 971.787717 " transform="matrix(0.404104,0.00732538,-0.0078581,0.449341,791.318319,165.863875)"/>
<path style="fill-rule:nonzero;fill:rgb(98.823529%,81.960784%,8.627451%);fill-opacity:1;stroke-width:3.85272;stroke-linecap:butt;stroke-linejoin:miter;stroke:rgb(0%,0%,0%);stroke-opacity:1;stroke-miterlimit:4;" d="M 529.586746 405.451975 C 529.590705 445.444452 575.143681 433.344211 576.399524 466.712137 C 575.683536 502.125439 499.690947 470.176319 497.758974 405.458614 C 499.688118 340.740049 572.867837 307.532191 574.467394 344.447353 C 575.725995 375.122022 529.596308 365.475491 529.586746 405.451975 Z M 529.586746 405.451975 " transform="matrix(0.295412,0.00410034,-0.00549902,0.240768,790.435628,513.865094)"/>
<path style="fill-rule:nonzero;fill:rgb(98.823529%,81.960784%,8.627451%);fill-opacity:1;stroke-width:3.85272;stroke-linecap:butt;stroke-linejoin:miter;stroke:rgb(0%,0%,0%);stroke-opacity:1;stroke-miterlimit:4;" d="M 529.585318 405.462409 C 529.588975 445.438667 575.15517 433.338201 576.397794 466.706352 C 575.681806 502.119654 499.689519 470.186753 497.757244 405.452828 C 499.686388 340.734264 572.866107 307.526405 574.465966 344.457787 C 575.724567 375.132456 529.59488 365.485925 529.585318 405.462409 Z M 529.585318 405.462409 " transform="matrix(0.295412,0.00410034,-0.00549902,0.240768,798.416576,513.975869)"/>
<path style="fill-rule:nonzero;fill:rgb(98.823529%,81.960784%,8.627451%);fill-opacity:1;stroke-width:3.85272;stroke-linecap:butt;stroke-linejoin:miter;stroke:rgb(0%,0%,0%);stroke-opacity:1;stroke-miterlimit:4;" d="M 529.588924 405.460442 C 529.592581 445.4367 575.145557 433.336459 576.4014 466.704385 C 575.685412 502.117687 499.693124 470.184786 497.761152 405.467081 C 499.689994 340.732297 572.869712 307.524439 574.469572 344.45582 C 575.714953 375.130714 529.585266 365.484184 529.588924 405.460442 Z M 529.588924 405.460442 " transform="matrix(0.295412,0.00410034,-0.00549902,0.240768,806.978,513.636484)"/>
<path style="fill-rule:nonzero;fill:rgb(98.823529%,81.960784%,8.627451%);fill-opacity:1;stroke-width:3.85272;stroke-linecap:butt;stroke-linejoin:miter;stroke:rgb(0%,0%,0%);stroke-opacity:1;stroke-miterlimit:4;" d="M 529.587864 405.454383 C 529.591823 445.446861 575.1448 433.34662 576.400642 466.714546 C 575.684654 502.127848 499.692065 470.178727 497.760093 405.461022 C 499.689237 340.742458 572.868955 307.534599 574.468512 344.449762 C 575.713894 375.124656 529.584207 365.478125 529.587864 405.454383 Z M 529.587864 405.454383 " transform="matrix(0.295412,0.00410034,-0.00549902,0.240768,814.958749,513.747322)"/>
<path style="fill-rule:nonzero;fill:rgb(61.176471%,29.019608%,0%);fill-opacity:1;stroke-width:0.39908;stroke-linecap:butt;stroke-linejoin:miter;stroke:rgb(0%,0%,0%);stroke-opacity:1;stroke-miterlimit:4;" d="M 481.914582 -41.086101 C 481.914013 -42.965036 480.331899 -44.489416 478.379561 -44.488916 C 476.42901 -44.488442 474.846569 -42.965578 474.84535 -41.086617 C 474.845954 -39.206071 476.428032 -37.683302 478.38037 -37.683802 C 480.330957 -37.682666 481.913363 -39.20714 481.914582 -41.086101 Z M 481.914582 -41.086101 " transform="matrix(2.184868,0.0346348,-0.0484772,2.424069,-39.942663,695.342043)"/>
<path style="fill-rule:nonzero;fill:rgb(0%,41.960784%,24.705882%);fill-opacity:1;stroke-width:2.5;stroke-linecap:butt;stroke-linejoin:miter;stroke:rgb(0%,0%,0%);stroke-opacity:1;stroke-miterlimit:4;" d="M 447.927531 904.997487 C 447.920618 891.662949 438.609406 880.853901 427.107281 880.85647 C 415.61805 880.854128 406.291006 891.66411 406.297918 904.998648 C 406.293125 918.33226 415.616043 929.142235 427.105273 929.144577 C 438.607399 929.142008 447.921548 918.336936 447.927531 904.997487 Z M 447.927531 904.997487 " transform="matrix(0.328419,-0.052153,0.0669135,0.658561,760.034756,10.973867)"/>
<path style="fill-rule:nonzero;fill:rgb(0%,41.960784%,24.705882%);fill-opacity:1;stroke-width:2.5;stroke-linecap:butt;stroke-linejoin:miter;stroke:rgb(0%,0%,0%);stroke-opacity:1;stroke-miterlimit:4;" d="M 447.925406 904.999809 C 447.918494 891.665271 438.607281 880.856222 427.106345 880.852954 C 415.615925 880.85645 406.300587 891.667359 406.295794 905.00097 C 406.291001 918.334582 415.613918 929.144557 427.116043 929.141988 C 438.605274 929.144329 447.920613 918.333421 447.925406 904.999809 Z M 447.925406 904.999809 " transform="matrix(0.328419,-0.052153,0.0669135,0.658561,748.386861,10.007383)"/>
<path style="fill-rule:nonzero;fill:rgb(0%,41.960784%,24.705882%);fill-opacity:1;stroke-width:2.5;stroke-linecap:butt;stroke-linejoin:miter;stroke:rgb(0%,0%,0%);stroke-opacity:1;stroke-miterlimit:4;" d="M 447.919634 904.998525 C 447.924427 891.664871 438.60151 880.854862 427.11109 880.858359 C 415.610154 880.855091 406.294815 891.666035 406.301726 905.000615 C 406.296933 918.334269 415.61985 929.144278 427.109081 929.146619 C 438.599501 929.143122 447.926545 918.333106 447.919634 904.998525 Z M 447.919634 904.998525 " transform="matrix(0.328419,-0.052153,0.0669133,0.658559,740.045274,-5.685511)"/>
<path style="fill-rule:nonzero;fill:rgb(0%,41.960784%,24.705882%);fill-opacity:1;stroke-width:2.5;stroke-linecap:butt;stroke-linejoin:miter;stroke:rgb(0%,0%,0%);stroke-opacity:1;stroke-miterlimit:4;" d="M 447.929374 904.99932 C 447.921485 891.665146 438.605536 880.856608 427.112604 880.858548 C 415.620899 880.855201 406.293845 891.664576 406.301733 904.99875 C 406.297456 918.332043 415.612176 929.145869 427.105109 929.143929 C 438.610208 929.142869 447.925096 918.332613 447.929374 904.99932 Z M 447.929374 904.99932 " transform="matrix(0.315764,-0.0525592,0.0733437,0.726548,751.43815,-67.724658)"/>
<path style="fill-rule:nonzero;fill:rgb(0%,58.431373%,26.27451%);fill-opacity:1;stroke-width:2.5;stroke-linecap:butt;stroke-linejoin:miter;stroke:rgb(0%,0%,0%);stroke-opacity:1;stroke-miterlimit:4;" d="M 447.919419 904.999172 C 447.924263 891.667745 438.611164 880.85585 427.110793 880.854003 C 415.60919 880.857796 406.29975 891.66375 406.293675 905.000818 C 406.300997 918.333163 415.614095 929.145057 427.114467 929.146905 C 438.603904 929.142194 447.92551 918.337158 447.919419 904.999172 Z M 447.919419 904.999172 " transform="matrix(0.315875,-0.0513986,0.0689723,0.681231,771.636375,-27.053652)"/>
<path style="fill-rule:nonzero;fill:rgb(0%,58.431373%,26.27451%);fill-opacity:1;stroke-width:2.5;stroke-linecap:butt;stroke-linejoin:miter;stroke:rgb(0%,0%,0%);stroke-opacity:1;stroke-miterlimit:4;" d="M 447.924691 905.002364 C 447.9186 891.664378 438.60427 880.858124 427.103899 880.856277 C 415.615694 880.855347 406.292856 891.666024 406.300178 904.998369 C 406.294103 918.335437 415.620599 929.142608 427.108804 929.143538 C 438.609175 929.145386 447.919847 918.333791 447.924691 905.002364 Z M 447.924691 905.002364 " transform="matrix(0.315875,-0.0513986,0.0689723,0.681231,762.68527,-32.731337)"/>
<path style="fill-rule:nonzero;fill:rgb(0%,58.431373%,26.27451%);fill-opacity:1;stroke-width:2.5;stroke-linecap:butt;stroke-linejoin:miter;stroke:rgb(0%,0%,0%);stroke-opacity:1;stroke-miterlimit:4;" d="M 447.929433 905.002709 C 447.923342 891.664723 438.609012 880.85847 427.108641 880.856622 C 415.620435 880.855692 406.297598 891.66637 406.292754 904.997796 C 406.298845 918.335782 415.613175 929.142036 427.113546 929.143883 C 438.601751 929.144813 447.924589 918.334136 447.929433 905.002709 Z M 447.929433 905.002709 " transform="matrix(0.315875,-0.0513986,0.0689723,0.681231,751.39078,-40.922734)"/>
<path style="fill-rule:nonzero;fill:rgb(0%,41.960784%,24.705882%);fill-opacity:1;stroke-width:2.5;stroke-linecap:butt;stroke-linejoin:miter;stroke:rgb(0%,0%,0%);stroke-opacity:1;stroke-miterlimit:4;" d="M 447.920827 905.000061 C 447.926902 891.662993 438.600406 880.855822 427.112201 880.854892 C 415.61183 880.853044 406.301158 891.66464 406.295083 905.001708 C 406.290239 918.333134 415.615503 929.145947 427.10494 929.141235 C 438.605312 929.143083 447.92815 918.332406 447.920827 905.000061 Z M 447.920827 905.000061 " transform="matrix(0.315875,-0.0513986,0.0689723,0.681231,740.932743,-45.886216)"/>
<path style="fill-rule:nonzero;fill:rgb(58.039216%,38.039216%,78.823529%);fill-opacity:1;stroke-width:2.5;stroke-linecap:butt;stroke-linejoin:miter;stroke:rgb(0%,0%,0%);stroke-opacity:1;stroke-miterlimit:4;" d="M 173.172927 346.353213 C 173.172927 346.353213 118.973924 411.236216 151.918864 555.157554 C 185.878392 699.745936 330.887276 744.938679 330.887276 744.938679 C 330.887276 744.938679 357.377852 697.51679 332.613177 580.899941 C 292.652192 411.058941 216.471773 346.345496 216.471773 346.345496 Z M 173.172927 346.353213 " transform="matrix(0.353094,0.0676401,-0.0627232,0.383172,887.249865,267.765183)"/>
<path style="fill-rule:nonzero;fill:rgb(0%,41.960784%,24.705882%);fill-opacity:1;stroke-width:2.5;stroke-linecap:butt;stroke-linejoin:miter;stroke:rgb(0%,0%,0%);stroke-opacity:1;stroke-miterlimit:4;" d="M 447.929069 904.998146 C 447.918767 891.663482 438.607949 880.856895 427.11268 880.858655 C 415.6166 880.854515 406.290776 891.667725 406.301078 905.002388 C 406.299639 918.337235 415.610458 929.143823 427.105726 929.142062 C 438.601807 929.146203 447.92763 918.332993 447.929069 904.998146 Z M 447.929069 904.998146 " transform="matrix(0.331991,0.0102956,-0.0456621,0.660571,878.459459,-15.669107)"/>
<path style="fill-rule:nonzero;fill:rgb(0%,41.960784%,24.705882%);fill-opacity:1;stroke-width:2.5;stroke-linecap:butt;stroke-linejoin:miter;stroke:rgb(0%,0%,0%);stroke-opacity:1;stroke-miterlimit:4;" d="M 447.9199 904.997553 C 447.92215 891.668607 438.61052 880.856119 427.115251 880.857879 C 415.619171 880.853738 406.293347 891.666949 406.291909 905.001795 C 406.29047 918.336642 415.613029 929.143046 427.108298 929.141286 C 438.604378 929.145427 447.918461 918.332399 447.9199 904.997553 Z M 447.9199 904.997553 " transform="matrix(0.331991,0.0102956,-0.0456621,0.660571,867.161695,-18.805339)"/>
<path style="fill-rule:nonzero;fill:rgb(0%,41.960784%,24.705882%);fill-opacity:1;stroke-width:2.5;stroke-linecap:butt;stroke-linejoin:miter;stroke:rgb(0%,0%,0%);stroke-opacity:1;stroke-miterlimit:4;" d="M 447.920242 904.998521 C 447.921681 891.663632 438.610863 880.857011 427.115595 880.858772 C 415.619514 880.854632 406.29369 891.667877 406.292251 905.002766 C 406.29 918.331754 415.613371 929.144093 427.108639 929.142332 C 438.60472 929.146472 447.918803 918.33341 447.920242 904.998521 Z M 447.920242 904.998521 " transform="matrix(0.331991,0.0102956,-0.045662,0.660569,861.610705,-35.811917)"/>
<path style="fill-rule:nonzero;fill:rgb(0%,41.960784%,24.705882%);fill-opacity:1;stroke-width:2.5;stroke-linecap:butt;stroke-linejoin:miter;stroke:rgb(0%,0%,0%);stroke-opacity:1;stroke-miterlimit:4;" d="M 447.922694 905.002614 C 447.927458 891.665001 438.605981 880.857441 427.105163 880.858221 C 415.615695 880.853522 406.299315 891.665843 406.293699 904.998104 C 406.301137 918.335592 415.610412 929.143277 427.11123 929.142498 C 438.599846 929.141844 447.92928 918.334749 447.922694 905.002614 Z M 447.922694 905.002614 " transform="matrix(0.319607,0.00752169,-0.050846,0.728675,883.325335,-94.720396)"/>
<path style="fill-rule:nonzero;fill:rgb(0%,41.960784%,24.705882%);fill-opacity:1;stroke-width:2.5;stroke-linecap:butt;stroke-linejoin:miter;stroke:rgb(0%,0%,0%);stroke-opacity:1;stroke-miterlimit:4;" d="M 447.91899 904.999281 C 447.918593 891.667136 438.610067 880.854463 427.106506 880.857754 C 415.6143 880.855184 406.29091 891.664566 406.292155 905.002417 C 406.292553 918.334562 415.612433 929.141374 427.104639 929.143944 C 438.609048 929.146359 447.920236 918.337132 447.91899 904.999281 Z M 447.91899 904.999281 " transform="matrix(0.319521,0.00868472,-0.0474747,0.683264,896.313958,-50.911238)"/>
<path style="fill-rule:nonzero;fill:rgb(0%,41.960784%,24.705882%);fill-opacity:1;stroke-width:2.5;stroke-linecap:butt;stroke-linejoin:miter;stroke:rgb(0%,0%,0%);stroke-opacity:1;stroke-miterlimit:4;" d="M 447.927594 904.999821 C 447.927196 891.667676 438.606469 880.855157 427.11511 880.858294 C 415.610701 880.855879 406.299513 891.665105 406.299911 904.99725 C 406.301156 918.335101 415.608834 929.142068 427.113243 929.144483 C 438.604601 929.141347 447.927991 918.331966 447.927594 904.999821 Z M 447.927594 904.999821 " transform="matrix(0.319521,0.00868472,-0.0474747,0.683264,888.467485,-58.177306)"/>
<path style="fill-rule:nonzero;fill:rgb(0%,41.960784%,24.705882%);fill-opacity:1;stroke-width:2.5;stroke-linecap:butt;stroke-linejoin:miter;stroke:rgb(0%,0%,0%);stroke-opacity:1;stroke-miterlimit:4;" d="M 447.928008 904.999058 C 447.927611 891.666913 438.606883 880.854395 427.115524 880.857531 C 415.611116 880.855116 406.299928 891.664342 406.301173 905.002193 C 406.301571 918.334338 415.609248 929.141305 427.113657 929.14372 C 438.605864 929.14629 447.929254 918.336909 447.928008 904.999058 Z M 447.928008 904.999058 " transform="matrix(0.319521,0.00868472,-0.0474747,0.683264,878.740754,-68.356476)"/>
<path style="fill-rule:nonzero;fill:rgb(0%,41.960784%,24.705882%);fill-opacity:1;stroke-width:2.5;stroke-linecap:butt;stroke-linejoin:miter;stroke:rgb(0%,0%,0%);stroke-opacity:1;stroke-miterlimit:4;" d="M 447.919375 905.002477 C 447.91813 891.664626 438.610452 880.857658 427.106043 880.855244 C 415.614685 880.85838 406.291295 891.667761 406.291692 904.999906 C 406.29209 918.332051 415.612817 929.144569 427.104176 929.141433 C 438.608585 929.143848 447.919772 918.334622 447.919375 905.002477 Z M 447.919375 905.002477 " transform="matrix(0.319521,0.00868472,-0.0474747,0.683264,869.29055,-75.202487)"/>
<path style="fill-rule:nonzero;fill:rgb(83.137255%,10.980392%,18.823529%);fill-opacity:1;stroke-width:1.25;stroke-linecap:butt;stroke-linejoin:miter;stroke:rgb(0%,0%,0%);stroke-opacity:1;stroke-miterlimit:4;" d="M 682.69454 606.110737 C 682.701386 503.116998 656.608514 419.625583 624.418796 419.61583 C 592.235417 419.621195 566.135727 503.111159 566.139577 606.109268 C 566.143427 709.107376 592.236299 792.598792 624.41532 792.604174 C 656.609396 792.603179 682.69839 709.108845 682.69454 606.110737 Z M 682.69454 606.110737 " transform="matrix(0.313289,-0.127392,0.127039,0.311828,703.256298,401.311043)"/>
<path style="fill-rule:nonzero;fill:rgb(0%,58.431373%,26.27451%);fill-opacity:1;stroke-width:1.4635;stroke-linecap:butt;stroke-linejoin:miter;stroke:rgb(0%,0%,0%);stroke-opacity:1;stroke-miterlimit:4;" d="M 228.951466 356.751088 C 228.951574 349.623762 224.107321 343.845274 218.131111 343.842871 C 212.154985 343.846819 207.304633 349.623382 207.309475 356.750589 C 207.309367 363.877916 212.15362 369.656404 218.129746 369.652456 C 224.105956 369.654859 228.951358 363.878415 228.951466 356.751088 Z M 228.951466 356.751088 " transform="matrix(0.78894,0.0147863,-0.0104014,0.614931,792.441192,228.717812)"/>
<path style="fill-rule:nonzero;fill:rgb(0%,58.431373%,26.27451%);fill-opacity:1;stroke-width:1.5462;stroke-linecap:butt;stroke-linejoin:miter;stroke:rgb(0%,0%,0%);stroke-opacity:1;stroke-miterlimit:4;" d="M 228.954374 356.74802 C 228.954494 349.620694 224.105202 343.842886 218.130556 343.844538 C 212.150385 343.846309 207.305335 349.623313 207.305215 356.75064 C 207.305095 363.877966 212.154387 369.655774 218.129033 369.654122 C 224.109204 369.652351 228.954254 363.875347 228.954374 356.74802 Z M 228.954374 356.74802 " transform="matrix(0.70676,0.0132461,-0.0104014,0.614931,816.785558,217.834014)"/>
<path style="fill-rule:nonzero;fill:rgb(0%,58.431373%,26.27451%);fill-opacity:1;stroke-width:1.5462;stroke-linecap:butt;stroke-linejoin:miter;stroke:rgb(0%,0%,0%);stroke-opacity:1;stroke-miterlimit:4;" d="M 228.951136 356.7513 C 228.951256 349.623973 224.107489 343.846046 218.127318 343.847817 C 212.152578 343.843119 207.307528 349.620123 207.307408 356.74745 C 207.307288 363.874776 212.151055 369.652703 218.13132 369.657283 C 224.105966 369.655631 228.951016 363.878626 228.951136 356.7513 Z M 228.951136 356.7513 " transform="matrix(0.70676,0.0132461,-0.0104014,0.614931,806.467568,217.640634)"/>
<path style="fill-rule:nonzero;fill:rgb(0%,41.960784%,24.705882%);fill-opacity:1;stroke-width:1.56;stroke-linecap:butt;stroke-linejoin:miter;stroke:rgb(0%,0%,0%);stroke-opacity:1;stroke-miterlimit:4;" d="M 228.954622 356.747936 C 228.955619 349.62265 224.10502 343.845393 218.131847 343.846727 C 212.153393 343.848188 207.307406 349.621457 207.306409 356.746742 C 207.305501 363.878792 212.15082 369.656177 218.129273 369.654716 C 224.107727 369.653255 228.953714 363.879986 228.954622 356.747936 Z M 228.954622 356.747936 " transform="matrix(0.739633,0.0138622,-0.00976453,0.577281,801.344235,222.718156)"/>
<path style="fill-rule:nonzero;fill:rgb(0%,41.960784%,24.705882%);fill-opacity:1;stroke-width:1.56;stroke-linecap:butt;stroke-linejoin:miter;stroke:rgb(0%,0%,0%);stroke-opacity:1;stroke-miterlimit:4;" d="M 228.952428 356.752851 C 228.953336 349.620801 224.108017 343.843416 218.129564 343.844877 C 212.15111 343.846338 207.305122 349.619607 207.309494 356.75153 C 207.308497 363.876816 212.153816 369.6542 218.13227 369.65274 C 224.105533 369.65817 228.951431 363.878136 228.952428 356.752851 Z M 228.952428 356.752851 " transform="matrix(0.739633,0.0138622,-0.00976453,0.577281,800.435749,213.305193)"/>
<path style="fill-rule:nonzero;fill:rgb(0%,41.960784%,24.705882%);fill-opacity:1;stroke-width:1.5462;stroke-linecap:butt;stroke-linejoin:miter;stroke:rgb(0%,0%,0%);stroke-opacity:1;stroke-miterlimit:4;" d="M 228.954796 356.752725 C 228.954916 349.625398 224.105624 343.84759 218.130884 343.842892 C 212.150713 343.844663 207.305663 349.621668 207.305543 356.748994 C 207.305423 363.876321 212.154716 369.654129 218.129361 369.652477 C 224.109626 369.657056 228.954676 363.880051 228.954796 356.752725 Z M 228.954796 356.752725 " transform="matrix(0.70676,0.0132461,-0.0104014,0.614931,796.609527,211.299865)"/>
<path style="fill-rule:nonzero;fill:rgb(0%,41.960784%,24.705882%);fill-opacity:1;stroke-width:1.5623;stroke-linecap:butt;stroke-linejoin:miter;stroke:rgb(0%,0%,0%);stroke-opacity:1;stroke-miterlimit:4;" d="M 228.951062 356.750907 C 228.953331 349.624183 224.105721 343.842682 218.131076 343.844369 C 212.150904 343.846177 207.309604 349.620253 207.307334 356.746977 C 207.305158 363.880183 212.152675 369.655201 218.127321 369.653514 C 224.107585 369.658189 228.954318 363.877508 228.951062 356.750907 Z M 228.951062 356.750907 " transform="matrix(0.70676,0.0132461,-0.0101891,0.60238,798.841101,205.614392)"/>
<path style="fill-rule:nonzero;fill:rgb(0%,41.960784%,24.705882%);fill-opacity:1;stroke-width:1.4635;stroke-linecap:butt;stroke-linejoin:miter;stroke:rgb(0%,0%,0%);stroke-opacity:1;stroke-miterlimit:4;" d="M 228.950866 356.750414 C 228.950973 349.623088 224.106721 343.8446 218.130511 343.842197 C 212.154384 343.846145 207.308982 349.622589 207.308875 356.749915 C 207.308767 363.877242 212.15302 369.65573 218.12923 369.658132 C 224.105356 369.654185 228.950758 363.877741 228.950866 356.750414 Z M 228.950866 356.750414 " transform="matrix(0.78894,0.0147863,-0.0104014,0.614931,768.351814,201.050266)"/>
<path style="fill-rule:nonzero;fill:rgb(0%,41.960784%,24.705882%);fill-opacity:1;stroke-width:1.56;stroke-linecap:butt;stroke-linejoin:miter;stroke:rgb(0%,0%,0%);stroke-opacity:1;stroke-miterlimit:4;" d="M 228.951991 356.746691 C 228.952988 349.621405 224.107669 343.844021 218.129216 343.845482 C 212.150762 343.846943 207.304775 349.620212 207.309147 356.752135 C 207.30815 363.87742 212.153469 369.654805 218.131922 369.653344 C 224.105096 369.65201 228.951083 363.878741 228.951991 356.746691 Z M 228.951991 356.746691 " transform="matrix(0.739633,0.0138622,-0.00976453,0.577281,794.58445,201.531412)"/>
<path style="fill-rule:nonzero;fill:rgb(0%,41.960784%,24.705882%);fill-opacity:1;stroke-width:1.5623;stroke-linecap:butt;stroke-linejoin:miter;stroke:rgb(0%,0%,0%);stroke-opacity:1;stroke-miterlimit:4;" d="M 228.955051 356.748816 C 228.951795 349.622214 224.109804 343.847074 218.12954 343.842399 C 212.154894 343.844086 207.308161 349.624766 207.305892 356.75149 C 207.309147 363.878092 212.151139 369.653231 218.131403 369.657906 C 224.106049 369.65622 228.952782 363.875539 228.955051 356.748816 Z M 228.955051 356.748816 " transform="matrix(0.70676,0.0132461,-0.0101891,0.60238,791.205448,194.131224)"/>
<path style="fill-rule:nonzero;fill:rgb(0%,41.960784%,24.705882%);fill-opacity:1;stroke-width:1.5462;stroke-linecap:butt;stroke-linejoin:miter;stroke:rgb(0%,0%,0%);stroke-opacity:1;stroke-miterlimit:4;" d="M 228.953311 356.751804 C 228.953431 349.624477 224.109664 343.84655 218.129399 343.841971 C 212.154753 343.843623 207.309703 349.620627 207.309583 356.747954 C 207.309463 363.87528 212.15323 369.653207 218.127969 369.657906 C 224.108141 369.656135 228.953191 363.87913 228.953311 356.751804 Z M 228.953311 356.751804 " transform="matrix(0.70676,0.0132461,-0.0104014,0.614931,775.059786,201.823889)"/>
<path style="fill-rule:nonzero;fill:rgb(0%,41.960784%,24.705882%);fill-opacity:1;stroke-width:1.5623;stroke-linecap:butt;stroke-linejoin:miter;stroke:rgb(0%,0%,0%);stroke-opacity:1;stroke-miterlimit:4;" d="M 228.954636 356.74979 C 228.95138 349.623188 224.109389 343.848048 218.129124 343.843373 C 212.154478 343.84506 207.307746 349.62574 207.305476 356.752464 C 207.308732 363.879066 212.150723 369.654205 218.130895 369.652397 C 224.105634 369.657194 228.952366 363.876513 228.954636 356.74979 Z M 228.954636 356.74979 " transform="matrix(0.70676,0.0132461,-0.0101891,0.60238,777.643251,200.380643)"/>
<path style="fill-rule:nonzero;fill:rgb(0%,41.960784%,24.705882%);fill-opacity:1;stroke-width:1.5623;stroke-linecap:butt;stroke-linejoin:miter;stroke:rgb(0%,0%,0%);stroke-opacity:1;stroke-miterlimit:4;" d="M 228.954719 356.752498 C 228.951463 349.625897 224.109378 343.844274 218.129207 343.846082 C 212.154562 343.847768 207.307736 349.621967 207.305466 356.74869 C 207.308722 363.875292 212.150807 369.656914 218.130978 369.655106 C 224.105624 369.65342 228.952449 363.879222 228.954719 356.752498 Z M 228.954719 356.752498 " transform="matrix(0.70676,0.0132461,-0.0101891,0.60238,780.889314,193.839948)"/>
<path style="fill-rule:nonzero;fill:rgb(0%,41.960784%,24.705882%);fill-opacity:1;stroke-width:2.5449;stroke-linecap:butt;stroke-linejoin:miter;stroke:rgb(0%,0%,0%);stroke-opacity:1;stroke-miterlimit:4;" d="M 596.113574 564.479221 C 596.116546 450.903112 565.924673 358.841484 528.680622 358.836868 C 491.432584 358.842325 461.238699 450.905003 461.245494 564.484855 C 461.246509 678.050891 491.434395 770.122592 528.682433 770.117135 C 565.926483 770.121751 596.124356 678.049 596.113574 564.479221 Z M 596.113574 564.479221 " transform="matrix(0.347249,-0.129047,0.137479,0.336706,720.392295,379.073974)"/>
<path style="fill-rule:nonzero;fill:rgb(0%,41.960784%,24.705882%);fill-opacity:1;stroke-width:2.5;stroke-linecap:butt;stroke-linejoin:miter;stroke:rgb(0%,0%,0%);stroke-opacity:1;stroke-miterlimit:4;" d="M 542.002729 646.069498 C 542.004065 623.534951 536.032344 605.27549 528.681304 605.276512 C 521.320375 605.272968 515.357257 623.540366 515.36012 646.065793 C 515.358784 668.600339 521.326307 686.86892 528.677347 686.867898 C 536.038276 686.871442 542.001394 668.604044 542.002729 646.069498 Z M 542.002729 646.069498 " transform="matrix(0.325761,-0.163087,0.149963,0.353267,732.889993,370.994182)"/>
<path style="fill-rule:nonzero;fill:rgb(0%,41.960784%,24.705882%);fill-opacity:1;stroke-width:1.53268;stroke-linecap:butt;stroke-linejoin:miter;stroke:rgb(0%,0%,0%);stroke-opacity:1;stroke-miterlimit:4;" d="M 139.872409 643.987268 C 139.866717 701.661406 121.120717 730.161684 105.31986 754.296455 C 112.841897 721.827239 118.219145 701.669707 118.220094 643.993514 C 118.22 586.308205 147.796558 558.651581 158.601033 541.997252 C 154.419176 558.651823 139.868614 586.309021 139.872409 643.987268 Z M 139.872409 643.987268 " transform="matrix(0.671219,-0.195252,0.351719,0.450789,679.429041,250.003812)"/>
<path style="fill-rule:nonzero;fill:rgb(0%,41.960784%,24.705882%);fill-opacity:1;stroke-width:1.53268;stroke-linecap:butt;stroke-linejoin:miter;stroke:rgb(0%,0%,0%);stroke-opacity:1;stroke-miterlimit:4;" d="M 139.8684 643.988919 C 139.871153 701.658049 121.120409 730.156272 105.320594 754.30016 C 112.837889 721.82889 118.21988 701.673412 118.219786 643.988103 C 118.220734 586.31191 147.800993 558.648224 158.601767 542.000957 C 154.423611 558.648466 139.869349 586.312726 139.8684 643.988919 Z M 139.8684 643.988919 " transform="matrix(0.671219,-0.195252,0.351719,0.450789,681.25537,271.002285)"/>
<path style="fill-rule:nonzero;fill:rgb(0%,41.960784%,24.705882%);fill-opacity:1;stroke-width:1.53268;stroke-linecap:butt;stroke-linejoin:miter;stroke:rgb(0%,0%,0%);stroke-opacity:1;stroke-miterlimit:4;" d="M 139.870813 643.992735 C 139.87287 701.658685 121.119065 730.158319 105.320107 754.300349 C 112.8438 721.828065 118.219827 701.674081 118.220691 643.991875 C 118.221555 586.309669 147.799559 558.652492 158.601714 542.000626 C 154.422264 558.647196 139.871677 586.310529 139.870813 643.992735 Z M 139.870813 643.992735 " transform="matrix(0.667382,-0.210214,0.360214,0.442819,676.931597,295.140644)"/>
<path style="fill-rule:nonzero;fill:rgb(0%,41.960784%,24.705882%);fill-opacity:1;stroke-width:1.3887;stroke-linecap:butt;stroke-linejoin:miter;stroke:rgb(0%,0%,0%);stroke-opacity:1;stroke-miterlimit:4;" d="M 542.00316 646.070163 C 542.001654 623.536503 536.036495 605.271783 528.680126 605.273137 C 521.323757 605.27449 515.360563 623.537625 515.356631 646.06979 C 515.358137 668.603449 521.323296 686.86817 528.679665 686.866816 C 536.036034 686.865463 541.999228 668.602327 542.00316 646.070163 Z M 542.00316 646.070163 " transform="matrix(0.645748,-0.172991,0.264318,0.629452,475.679876,173.282988)"/>
<path style="fill-rule:nonzero;fill:rgb(0%,41.960784%,24.705882%);fill-opacity:1;stroke-width:1.6398;stroke-linecap:butt;stroke-linejoin:miter;stroke:rgb(0%,0%,0%);stroke-opacity:1;stroke-miterlimit:4;" d="M 542.000699 646.067294 C 542.000851 623.540627 536.035565 605.274783 528.679317 605.274297 C 521.323069 605.273811 515.359845 623.538367 515.357218 646.072032 C 515.357066 668.5987 521.322352 686.864543 528.6786 686.865029 C 536.034848 686.865515 541.998072 668.600959 542.000699 646.067294 Z M 542.000699 646.067294 " transform="matrix(0.580913,-0.105175,0.20549,0.521083,539.912201,221.881251)"/>
<path style="fill-rule:nonzero;fill:rgb(0%,41.960784%,24.705882%);fill-opacity:1;stroke-width:1.6398;stroke-linecap:butt;stroke-linejoin:miter;stroke:rgb(0%,0%,0%);stroke-opacity:1;stroke-miterlimit:4;" d="M 542.001665 646.071446 C 541.999238 623.541088 536.039649 605.272928 528.680723 605.275299 C 521.324147 605.270649 515.362824 623.536206 515.356571 646.072474 C 515.358998 668.602833 521.320937 686.863972 528.677513 686.868621 C 536.036439 686.86625 541.997762 668.600693 542.001665 646.071446 Z M 542.001665 646.071446 " transform="matrix(0.582901,-0.092193,0.19516,0.525516,535.920869,221.96729)"/>
<path style="fill-rule:nonzero;fill:rgb(0%,41.960784%,24.705882%);fill-opacity:1;stroke-width:2.0966;stroke-linecap:butt;stroke-linejoin:miter;stroke:rgb(0%,0%,0%);stroke-opacity:1;stroke-miterlimit:4;" d="M 541.997572 646.071289 C 542.001937 623.537441 536.033686 605.273246 528.68148 605.269534 C 521.325797 605.275068 515.355579 623.54284 515.362339 646.069224 C 515.357974 668.603072 521.326226 686.867267 528.681908 686.861733 C 536.034114 686.865445 542.004332 668.597673 541.997572 646.071289 Z M 541.997572 646.071289 " transform="matrix(0.469583,-0.0905176,0.176562,0.388461,615.806498,274.102745)"/>
<path style="fill-rule:nonzero;fill:rgb(0%,41.960784%,24.705882%);fill-opacity:1;stroke-width:2.0966;stroke-linecap:butt;stroke-linejoin:miter;stroke:rgb(0%,0%,0%);stroke-opacity:1;stroke-miterlimit:4;" d="M 541.997455 646.07018 C 541.998413 623.538917 536.041173 605.272385 528.675474 605.278034 C 521.320627 605.275592 515.359687 623.539798 515.358729 646.071061 C 515.357771 668.602323 521.322845 686.870102 528.68071 686.863207 C 536.035557 686.865649 542.004331 668.602689 541.997455 646.07018 Z M 541.997455 646.07018 " transform="matrix(0.474232,-0.0633345,0.153279,0.397882,620.238738,260.224476)"/>
<path style="fill-rule:nonzero;fill:rgb(0%,41.960784%,24.705882%);fill-opacity:1;stroke-width:2.08616;stroke-linecap:butt;stroke-linejoin:miter;stroke:rgb(0%,0%,0%);stroke-opacity:1;stroke-miterlimit:4;" d="M 145.703215 569.468085 C 145.699469 603.477909 138.991957 631.082756 130.707662 631.081333 C 122.444488 631.080677 115.727289 603.482532 115.731034 569.472708 " transform="matrix(0.363515,-0.201419,0.176345,0.453546,810.260358,244.786054)"/>
<path style="fill-rule:nonzero;fill:rgb(0%,41.960784%,24.705882%);fill-opacity:1;stroke-width:2.0966;stroke-linecap:butt;stroke-linejoin:miter;stroke:rgb(0%,0%,0%);stroke-opacity:1;stroke-miterlimit:4;" d="M 542.004033 646.068083 C 542.004991 623.53682 536.0369 605.278379 528.682053 605.275937 C 521.327206 605.273495 515.358432 623.536454 515.357474 646.067717 C 515.356516 668.59898 521.321589 686.866758 528.676436 686.8692 C 536.034301 686.862305 542.003075 668.599345 542.004033 646.068083 Z M 542.004033 646.068083 " transform="matrix(0.474232,-0.0633345,0.153279,0.397882,619.251565,242.104633)"/>
<path style="fill-rule:nonzero;fill:rgb(0%,41.960784%,24.705882%);fill-opacity:1;stroke-width:2.0966;stroke-linecap:butt;stroke-linejoin:miter;stroke:rgb(0%,0%,0%);stroke-opacity:1;stroke-miterlimit:4;" d="M 542.003832 646.071279 C 542.005689 623.536471 536.041389 605.271697 528.680366 605.273353 C 521.319344 605.275009 515.356766 623.536157 515.354909 646.070965 C 515.363796 668.597465 521.328097 686.862239 528.678375 686.868892 C 536.039397 686.867235 542.004825 668.596725 542.003832 646.071279 Z M 542.003832 646.071279 " transform="matrix(0.47551,-0.0535071,0.144781,0.400938,614.026168,240.021344)"/>
<path style="fill-rule:nonzero;fill:rgb(0%,41.960784%,24.705882%);fill-opacity:1;stroke-width:2.87967;stroke-linecap:butt;stroke-linejoin:miter;stroke:rgb(0%,0%,0%);stroke-opacity:1;stroke-miterlimit:4;" d="M 145.699217 569.468745 C 145.703672 603.477136 138.995727 631.082774 130.706887 631.082924 C 122.435789 631.081323 115.731071 603.474422 115.726615 569.466031 " transform="matrix(0.23705,-0.189915,0.171227,0.306475,821.160484,305.912032)"/>
<path style="fill-rule:nonzero;fill:rgb(0%,41.960784%,24.705882%);fill-opacity:1;stroke-width:2.87967;stroke-linecap:butt;stroke-linejoin:miter;stroke:rgb(0%,0%,0%);stroke-opacity:1;stroke-miterlimit:4;" d="M 145.692948 569.469589 C 145.697404 603.477981 138.989459 631.083619 130.706978 631.074964 C 122.447264 631.080418 115.736186 603.482321 115.73173 569.47393 " transform="matrix(0.23705,-0.189915,0.171227,0.306475,825.193075,299.000426)"/>
<path style="fill-rule:nonzero;fill:rgb(0%,41.960784%,24.705882%);fill-opacity:1;stroke-width:2.08616;stroke-linecap:butt;stroke-linejoin:miter;stroke:rgb(0%,0%,0%);stroke-opacity:1;stroke-miterlimit:4;" d="M 145.703791 569.468372 C 145.70046 603.477769 138.992101 631.079369 130.708938 631.082823 C 122.443237 631.078447 115.728004 603.482969 115.731335 569.473571 " transform="matrix(0.330684,-0.259671,0.238592,0.418632,791.302818,246.757783)"/>
<path style="fill-rule:nonzero;fill:rgb(0%,41.960784%,24.705882%);fill-opacity:1;stroke-width:2.74245;stroke-linecap:butt;stroke-linejoin:miter;stroke:rgb(0%,0%,0%);stroke-opacity:1;stroke-miterlimit:4;" d="M 145.698809 569.470741 C 145.701156 603.482666 138.990878 631.079159 130.703346 631.0807 C 122.433003 631.081301 115.729827 603.475759 115.72748 569.463834 " transform="matrix(0.236645,-0.208741,0.171913,0.338361,831.004359,277.59001)"/>
<path style="fill-rule:nonzero;fill:rgb(58.039216%,38.039216%,78.823529%);fill-opacity:1;stroke-width:2.5;stroke-linecap:butt;stroke-linejoin:miter;stroke:rgb(0%,0%,0%);stroke-opacity:1;stroke-miterlimit:4;" d="M 276.268073 345.413667 C 263.990911 354.582857 276.685536 370.550107 288.288402 376.092745 C 301.351581 383.763739 374.886501 434.269519 424.594805 388.088883 C 383.808142 388.92158 305.940973 324.903646 276.268073 345.413667 Z M 276.268073 345.413667 " transform="matrix(0.311667,0.0155744,-0.00828417,0.472008,879.621142,255.850809)"/>
<path style="fill-rule:nonzero;fill:rgb(58.039216%,38.039216%,78.823529%);fill-opacity:1;stroke-width:2.5;stroke-linecap:butt;stroke-linejoin:miter;stroke:rgb(0%,0%,0%);stroke-opacity:1;stroke-miterlimit:4;" d="M 276.275608 345.413859 C 263.985924 354.583462 276.68055 370.550712 288.295937 376.092937 C 301.346375 383.756075 374.894037 434.26971 424.60234 388.089074 C 383.815677 388.921771 305.935986 324.90425 276.275608 345.413859 Z M 276.275608 345.413859 " transform="matrix(0.311667,0.0155744,-0.00828417,0.472008,876.841451,243.51857)"/>
<path style="fill-rule:nonzero;fill:rgb(58.039216%,38.039216%,78.823529%);fill-opacity:1;stroke-width:2.5;stroke-linecap:butt;stroke-linejoin:miter;stroke:rgb(0%,0%,0%);stroke-opacity:1;stroke-miterlimit:4;" d="M 276.269166 345.407216 C 263.992004 354.576406 276.674327 370.552338 288.289495 376.086294 C 301.352674 383.757288 374.887814 434.271336 424.596118 388.0907 C 383.809455 388.923398 305.942066 324.897195 276.269166 345.407216 Z M 276.269166 345.407216 " transform="matrix(0.311667,0.0155744,-0.00828417,0.472008,873.28481,231.701493)"/>
<path style="fill-rule:nonzero;fill:rgb(58.039216%,38.039216%,78.823529%);fill-opacity:1;stroke-width:2.5;stroke-linecap:butt;stroke-linejoin:miter;stroke:rgb(0%,0%,0%);stroke-opacity:1;stroke-miterlimit:4;" d="M 276.275921 345.412055 C 263.986237 354.581659 276.680863 370.548908 288.29625 376.091133 C 301.346907 383.76254 374.89435 434.267907 424.602653 388.087271 C 383.81599 388.919968 305.936299 324.902447 276.275921 345.412055 Z M 276.275921 345.412055 " transform="matrix(0.311667,0.0155744,-0.00828417,0.472008,865.556182,218.183479)"/>
<path style="fill-rule:nonzero;fill:rgb(58.039216%,38.039216%,78.823529%);fill-opacity:1;stroke-width:2.5;stroke-linecap:butt;stroke-linejoin:miter;stroke:rgb(0%,0%,0%);stroke-opacity:1;stroke-miterlimit:4;" d="M 211.172224 247.299532 C 232.939563 235.242598 267.777866 237.54702 290.900771 258.467451 C 310.256441 275.408228 336.210648 333.656249 361.217484 351.304524 C 341.002619 351.321304 329.919571 345.534623 318.983443 336.119731 C 290.218873 351.558648 280.862105 352.837879 255.089769 351.746224 C 219.214836 350.418012 192.63068 334.09625 186.91403 311.148688 C 180.752378 289.3396 191.842419 258.64692 211.172224 247.299532 Z M 211.172224 247.299532 " transform="matrix(0.418237,-0.0781376,0.0879938,0.381194,810.989487,294.817397)"/>
<path style="fill-rule:nonzero;fill:rgb(83.137255%,10.980392%,18.823529%);fill-opacity:1;stroke-width:2.5;stroke-linecap:butt;stroke-linejoin:miter;stroke:rgb(0%,0%,0%);stroke-opacity:1;stroke-miterlimit:4;" d="M 301.381882 323.044613 C 301.380965 314.767493 295.049759 308.05257 287.22765 308.057651 C 279.413386 308.048635 273.07745 314.760011 273.078367 323.03713 C 273.079285 331.314249 279.410491 338.029172 287.232599 338.024091 C 295.046729 338.01927 301.382799 331.321732 301.381882 323.044613 Z M 301.381882 323.044613 " transform="matrix(0.489395,0.00917225,-0.00477358,0.282215,799.101984,291.348789)"/>
<path style="fill-rule:nonzero;fill:rgb(98.823529%,81.960784%,8.627451%);fill-opacity:1;stroke-width:2.5;stroke-linecap:butt;stroke-linejoin:miter;stroke:rgb(0%,0%,0%);stroke-opacity:1;stroke-miterlimit:4;" d="M 227.837586 348.263025 C 227.831379 339.483917 217.420037 332.362447 204.581752 332.363937 C 191.734646 332.361748 181.328968 339.48177 181.326354 348.2572 C 181.32374 357.03263 191.735082 364.1541 204.582188 364.156289 C 217.420473 364.154799 227.834971 357.038456 227.837586 348.263025 Z M 227.837586 348.263025 " transform="matrix(0.389171,-0.152395,0.12876,0.36541,792.54464,306.184995)"/>
<path style=" stroke:none;fill-rule:nonzero;fill:rgb(0%,0%,0%);fill-opacity:1;" d="M 940.269531 384.914062 C 940.289062 383.664062 939.191406 382.625 937.816406 382.601562 C 936.441406 382.574219 935.308594 383.570312 935.289062 384.820312 C 935.265625 386.074219 936.363281 387.109375 937.742188 387.136719 C 939.117188 387.160156 940.25 386.167969 940.269531 384.914062 Z M 940.269531 384.914062 "/>
<path style="fill-rule:nonzero;fill:rgb(98.823529%,81.960784%,8.627451%);fill-opacity:1;stroke-width:6.55976;stroke-linecap:butt;stroke-linejoin:miter;stroke:rgb(0%,0%,0%);stroke-opacity:1;stroke-miterlimit:4;" d="M 516.789549 260.28945 C 521.210594 278.409475 510.129892 303.376175 483.655812 312.897777 C 456.888011 326.069781 437.582749 354.726243 428.013111 400.927233 C 380.777453 297.651682 404.918642 252.638991 448.6287 240.562565 C 486.003315 226.218299 509.048162 227.197477 516.789549 260.28945 Z M 516.789549 260.28945 " transform="matrix(0.184161,0.00531659,-0.00979391,0.178062,830.255616,341.71327)"/>
<path style=" stroke:none;fill-rule:nonzero;fill:rgb(0%,0%,0%);fill-opacity:1;" d="M 917.21875 392.128906 C 917.164062 391.078125 916.332031 390.273438 915.359375 390.328125 C 914.390625 390.382812 913.644531 391.273438 913.699219 392.320312 C 913.753906 393.367188 914.589844 394.175781 915.558594 394.121094 C 916.53125 394.066406 917.273438 393.175781 917.21875 392.128906 Z M 917.21875 392.128906 "/>
</g>
</svg>
