<?xml version="1.0" encoding="UTF-8"?>
<svg xmlns="http://www.w3.org/2000/svg" xmlns:xlink="http://www.w3.org/1999/xlink" width="1900pt" height="1000pt" viewBox="0 0 1900 1000" version="1.1">
<g id="surface1">
<rect x="0" y="0" width="1900" height="1000" style="fill:rgb(0%,38.431373%,20%);fill-opacity:1;stroke:none;"/>
<path style=" stroke:none;fill-rule:nonzero;fill:rgb(100%,76.862745%,0%);fill-opacity:1;" d="M 1359.027344 375 C 1359.027344 553.34375 1175.898438 697.917969 950 697.917969 C 724.101562 697.917969 540.972656 553.34375 540.972656 375 C 540.972656 196.65625 724.101562 52.082031 950 52.082031 C 1175.898438 52.082031 1359.027344 196.65625 1359.027344 375 Z M 1359.027344 375 "/>
<path style=" stroke:none;fill-rule:nonzero;fill:rgb(0%,38.431373%,20%);fill-opacity:1;" d="M 1345.832031 291.667969 C 1345.832031 464.253906 1168.613281 604.167969 950 604.167969 C 731.386719 604.167969 554.167969 464.253906 554.167969 291.667969 C 554.167969 119.078125 731.386719 -20.832031 950 -20.832031 C 1168.613281 -20.832031 1345.832031 119.078125 1345.832031 291.667969 Z M 1345.832031 291.667969 "/>
<path style=" stroke:none;fill-rule:nonzero;fill:rgb(100%,76.862745%,0%);fill-opacity:1;" d="M 950 166.667969 L 901.074219 285.546875 L 976.363281 304.863281 "/>
<path style=" stroke:none;fill-rule:nonzero;fill:rgb(100%,76.862745%,0%);fill-opacity:1;" d="M 950 166.667969 L 998.925781 285.546875 L 923.636719 304.863281 "/>
<path style=" stroke:none;fill-rule:nonzero;fill:rgb(100%,76.862745%,0%);fill-opacity:1;" d="M 1100.582031 253.039062 L 942.25 253.039062 L 942.25 315.539062 "/>
<path style=" stroke:none;fill-rule:nonzero;fill:rgb(100%,76.862745%,0%);fill-opacity:1;" d="M 1100.582031 253.039062 L 972.488281 326.511719 L 925.957031 275.949219 "/>
<path style=" stroke:none;fill-rule:nonzero;fill:rgb(100%,76.862745%,0%);fill-opacity:1;" d="M 1043.066406 392.792969 L 994.136719 273.910156 L 918.847656 293.226562 "/>
<path style=" stroke:none;fill-rule:nonzero;fill:rgb(100%,76.862745%,0%);fill-opacity:1;" d="M 1043.066406 392.792969 L 914.972656 319.320312 L 961.503906 268.757812 "/>
<path style=" stroke:none;fill-rule:nonzero;fill:rgb(100%,76.862745%,0%);fill-opacity:1;" d="M 856.933594 392.792969 L 985.027344 319.320312 L 938.496094 268.757812 "/>
<path style=" stroke:none;fill-rule:nonzero;fill:rgb(100%,76.862745%,0%);fill-opacity:1;" d="M 856.933594 392.792969 L 905.863281 273.910156 L 981.152344 293.226562 "/>
<path style=" stroke:none;fill-rule:nonzero;fill:rgb(100%,76.862745%,0%);fill-opacity:1;" d="M 799.417969 253.039062 L 927.511719 326.511719 L 974.042969 275.949219 "/>
<path style=" stroke:none;fill-rule:nonzero;fill:rgb(100%,76.862745%,0%);fill-opacity:1;" d="M 799.417969 253.039062 L 957.75 253.039062 L 957.75 315.539062 "/>
</g>
</svg>
