<?xml version="1.0" encoding="UTF-8"?>
<svg xmlns="http://www.w3.org/2000/svg" xmlns:xlink="http://www.w3.org/1999/xlink" width="380pt" height="200pt" viewBox="0 0 1900 1000" version="1.1">
<g id="surface2">
<path style=" stroke:none;fill-rule:nonzero;fill:rgb(87.843137%,0%,14.509804%);fill-opacity:1;" d="M 0 250 L 1900 250 L 1900 750 L 0 750 Z M 0 250 "/>
<path style=" stroke:none;fill-rule:nonzero;fill:rgb(1.176471%,18.039216%,63.137255%);fill-opacity:1;" d="M 0 0 L 1900 0 L 1900 250 L 0 250 Z M 0 0 "/>
<path style=" stroke:none;fill-rule:nonzero;fill:rgb(1.176471%,18.039216%,63.137255%);fill-opacity:1;" d="M 0 750 L 1900 750 L 1900 1000 L 0 1000 Z M 0 750 "/>
<path style="fill-rule:nonzero;fill:rgb(100%,100%,100%);fill-opacity:1;stroke-width:1.2;stroke-linecap:butt;stroke-linejoin:miter;stroke:rgb(0%,0%,0%);stroke-opacity:1;stroke-miterlimit:4;" d="M 379.090693 389.9161 C 379.090693 389.9161 378.858374 383.3361 382.69061 383.2636 C 386.522847 383.3361 386.292584 389.9161 386.292584 389.9161 Z M 379.090693 389.9161 " transform="matrix(1.9,0,0,1.5625,222.571434,-304.58375)"/>
<path style="fill-rule:nonzero;fill:rgb(100%,100%,100%);fill-opacity:1;stroke-width:1.2;stroke-linecap:butt;stroke-linejoin:miter;stroke:rgb(0%,0%,0%);stroke-opacity:1;stroke-miterlimit:4;" d="M 537.439788 561.9336 L 537.439788 529.1036 C 538.510923 524.9386 542.045051 521.2561 544.703357 520.5161 L 544.703357 489.7286 C 540.686087 489.7286 538.716515 494.9636 538.716515 494.9636 L 531.882633 525.0636 L 531.882633 561.6811 Z M 537.439788 561.9336 " transform="matrix(1.9,0,0,1.5625,222.571434,-304.58375)"/>
<path style="fill-rule:nonzero;fill:rgb(100%,100%,100%);fill-opacity:1;stroke-width:1.292147;stroke-linecap:square;stroke-linejoin:bevel;stroke:rgb(0%,0%,0%);stroke-opacity:1;stroke-miterlimit:4;" d="M 477.789295 496.5811 L 467.933209 496.5811 L 467.933209 517.4661 L 477.789295 517.4661 Z M 477.789295 496.5811 " transform="matrix(1.9,0,0,1.5625,222.571434,-304.58375)"/>
<path style="fill-rule:nonzero;fill:rgb(100%,100%,100%);fill-opacity:1;stroke-width:1.2;stroke-linecap:butt;stroke-linejoin:bevel;stroke:rgb(0%,0%,0%);stroke-opacity:1;stroke-miterlimit:4;" d="M 292.725561 496.5811 L 474.806153 496.5811 L 474.806153 566.6411 L 292.725561 566.6411 Z M 292.725561 496.5811 " transform="matrix(1.9,0,0,1.5625,222.571434,-304.58375)"/>
<path style="fill-rule:nonzero;fill:rgb(100%,100%,100%);fill-opacity:1;stroke-width:1.2;stroke-linecap:butt;stroke-linejoin:miter;stroke:rgb(0%,0%,0%);stroke-opacity:1;stroke-miterlimit:4;" d="M 228.580824 561.8061 L 228.580824 529.1036 C 227.509689 524.9386 223.973505 521.2561 221.315199 520.5161 L 221.315199 491.7286 L 227.302041 494.9636 L 234.135923 525.0636 L 234.135923 561.8061 Z M 228.580824 561.8061 " transform="matrix(1.9,0,0,1.5625,222.571434,-304.58375)"/>
<path style="fill-rule:nonzero;fill:rgb(100%,100%,100%);fill-opacity:1;stroke-width:1.2;stroke-linecap:butt;stroke-linejoin:miter;stroke:rgb(0%,0%,0%);stroke-opacity:1;stroke-miterlimit:4;" d="M 228.580824 561.9336 L 228.580824 529.1036 C 227.509689 524.9386 223.973505 521.2561 221.315199 520.5161 L 221.315199 489.7286 C 225.334525 489.7286 227.302041 494.9636 227.302041 494.9636 L 234.135923 525.0636 L 234.135923 561.6811 Z M 228.580824 561.9336 " transform="matrix(1.9,0,0,1.5625,222.571434,-304.58375)"/>
<path style="fill-rule:nonzero;fill:rgb(100%,100%,100%);fill-opacity:1;stroke-width:1.2;stroke-linecap:butt;stroke-linejoin:miter;stroke:rgb(0%,0%,0%);stroke-opacity:1;stroke-miterlimit:4;" d="M 221.500232 570.3161 C 224.316844 568.8836 227.530249 565.5436 228.580824 561.8061 L 537.501466 561.8061 C 538.552041 565.5436 541.76339 568.8836 544.580002 570.3161 Z M 221.500232 570.3161 " transform="matrix(1.9,0,0,1.5625,222.571434,-304.58375)"/>
<path style="fill-rule:nonzero;fill:rgb(100%,100%,100%);fill-opacity:1;stroke-width:1.2;stroke-linecap:square;stroke-linejoin:bevel;stroke:rgb(0%,0%,0%);stroke-opacity:1;stroke-miterlimit:4;" d="M 465.398258 535.2561 L 471.136334 535.2561 L 471.136334 561.6486 L 465.398258 561.6486 Z M 465.398258 535.2561 " transform="matrix(1.9,0,0,1.5625,222.571434,-304.58375)"/>
<path style="fill-rule:nonzero;fill:rgb(100%,100%,100%);fill-opacity:1;stroke-width:1.2;stroke-linecap:butt;stroke-linejoin:bevel;stroke:rgb(0%,0%,0%);stroke-opacity:1;stroke-miterlimit:4;" d="M 292.725561 522.2211 L 474.806153 522.2211 L 474.806153 530.3661 L 292.725561 530.3661 Z M 292.725561 522.2211 " transform="matrix(1.9,0,0,1.5625,222.571434,-304.58375)"/>
<path style="fill-rule:nonzero;fill:rgb(100%,100%,100%);fill-opacity:1;stroke-width:1.2;stroke-linecap:butt;stroke-linejoin:bevel;stroke:rgb(0%,0%,0%);stroke-opacity:1;stroke-miterlimit:4;" d="M 292.725561 511.1836 L 474.806153 511.1836 L 474.806153 518.3661 L 292.725561 518.3661 Z M 292.725561 511.1836 " transform="matrix(1.9,0,0,1.5625,222.571434,-304.58375)"/>
<path style="fill-rule:nonzero;fill:rgb(100%,100%,100%);fill-opacity:1;stroke-width:1.181816;stroke-linecap:butt;stroke-linejoin:bevel;stroke:rgb(0%,0%,0%);stroke-opacity:1;stroke-miterlimit:4;" d="M 292.725561 500.1561 L 474.806153 500.1561 L 474.806153 507.1236 L 292.725561 507.1236 Z M 292.725561 500.1561 " transform="matrix(1.9,0,0,1.5625,222.571434,-304.58375)"/>
<path style="fill-rule:nonzero;fill:rgb(100%,100%,100%);fill-opacity:1;stroke-width:1.292147;stroke-linecap:square;stroke-linejoin:bevel;stroke:rgb(0%,0%,0%);stroke-opacity:1;stroke-miterlimit:4;" d="M 477.789295 496.5811 L 467.933209 496.5811 L 467.933209 517.4661 L 477.789295 517.4661 Z M 477.789295 496.5811 " transform="matrix(1.9,0,0,1.5625,222.571434,-304.58375)"/>
<path style="fill-rule:nonzero;fill:rgb(100%,100%,100%);fill-opacity:1;stroke-width:1.2;stroke-linecap:butt;stroke-linejoin:miter;stroke:rgb(0%,0%,0%);stroke-opacity:1;stroke-miterlimit:4;" d="M 541.430331 570.3161 C 538.661005 569.0661 534.6314 565.6461 534.6314 562.2061 L 534.6314 521.3311 L 536.526959 517.9561 L 466.892913 517.9561 L 469.608785 521.3311 L 469.608785 562.2061 C 469.608785 565.6461 466.841515 569.0661 464.074245 570.3161 Z M 541.430331 570.3161 " transform="matrix(1.9,0,0,1.5625,222.571434,-304.58375)"/>
<path style="fill-rule:nonzero;fill:rgb(100%,100%,100%);fill-opacity:1;stroke-width:1.2;stroke-linecap:square;stroke-linejoin:bevel;stroke:rgb(0%,0%,0%);stroke-opacity:1;stroke-miterlimit:4;" d="M 340.649081 535.2561 L 346.387156 535.2561 L 346.387156 561.6486 L 340.649081 561.6486 Z M 340.649081 535.2561 " transform="matrix(1.9,0,0,1.5625,222.571434,-304.58375)"/>
<path style="fill-rule:nonzero;fill:rgb(100%,100%,100%);fill-opacity:1;stroke-width:1.2;stroke-linecap:square;stroke-linejoin:bevel;stroke:rgb(0%,0%,0%);stroke-opacity:1;stroke-miterlimit:4;" d="M 419.039295 535.2561 L 424.77737 535.2561 L 424.77737 561.6486 L 419.039295 561.6486 Z M 419.039295 535.2561 " transform="matrix(1.9,0,0,1.5625,222.571434,-304.58375)"/>
<path style="fill-rule:nonzero;fill:rgb(100%,100%,100%);fill-opacity:1;stroke-width:1.2;stroke-linecap:butt;stroke-linejoin:miter;stroke:rgb(0%,0%,0%);stroke-opacity:1;stroke-miterlimit:4;" d="M 428.636334 570.3161 C 425.394147 569.0661 420.673752 565.6461 420.673752 562.2061 L 420.673752 523.3311 L 424.894558 517.9561 L 340.453768 517.9561 L 344.499821 523.3311 L 344.499821 562.2061 C 344.499821 565.6461 341.257633 569.0661 338.015446 570.3161 Z M 428.636334 570.3161 " transform="matrix(1.9,0,0,1.5625,222.571434,-304.58375)"/>
<path style="fill-rule:nonzero;fill:rgb(100%,100%,100%);fill-opacity:1;stroke-width:1.2;stroke-linecap:square;stroke-linejoin:bevel;stroke:rgb(0%,0%,0%);stroke-opacity:1;stroke-miterlimit:4;" d="M 355.46816 535.2561 L 361.208291 535.2561 L 361.208291 561.6486 L 355.46816 561.6486 Z M 355.46816 535.2561 " transform="matrix(1.9,0,0,1.5625,222.571434,-304.58375)"/>
<path style="fill-rule:nonzero;fill:rgb(100%,100%,100%);fill-opacity:1;stroke-width:1.2;stroke-linecap:square;stroke-linejoin:bevel;stroke:rgb(0%,0%,0%);stroke-opacity:1;stroke-miterlimit:4;" d="M 403.973505 535.2561 L 409.711581 535.2561 L 409.711581 561.6486 L 403.973505 561.6486 Z M 403.973505 535.2561 " transform="matrix(1.9,0,0,1.5625,222.571434,-304.58375)"/>
<path style="fill-rule:nonzero;fill:rgb(100%,100%,100%);fill-opacity:1;stroke-width:1.2;stroke-linecap:butt;stroke-linejoin:miter;stroke:rgb(0%,0%,0%);stroke-opacity:1;stroke-miterlimit:4;" d="M 338.942666 473.7136 L 338.942666 517.9661 L 425.379755 517.9661 L 425.379755 508.4336 L 425.505166 473.7161 C 421.968982 475.1036 421.348094 478.3086 421.348094 478.3086 L 421.348094 497.1536 L 343.348505 497.1536 L 343.348505 478.3086 C 343.348505 478.3086 342.476795 475.1036 338.942666 473.7161 Z M 338.942666 473.7136 " transform="matrix(1.9,0,0,1.5625,222.571434,-304.58375)"/>
<path style="fill-rule:nonzero;fill:rgb(100%,100%,100%);fill-opacity:1;stroke-width:1.2;stroke-linecap:butt;stroke-linejoin:miter;stroke:rgb(0%,0%,0%);stroke-opacity:1;stroke-miterlimit:4;" d="M 413.650726 570.3161 C 410.82589 569.0661 404.672518 565.6461 404.672518 562.2061 L 404.672518 518.6986 C 405.274903 516.2711 408.568489 514.8361 410.690199 513.3236 L 353.373176 513.3236 C 356.101383 514.7686 359.142091 515.9686 360.227617 518.6986 L 360.227617 562.2061 C 360.227617 565.6461 355.363308 569.0661 352.538472 570.3161 Z M 413.650726 570.3161 " transform="matrix(1.9,0,0,1.5625,222.571434,-304.58375)"/>
<path style="fill-rule:nonzero;fill:rgb(100%,100%,100%);fill-opacity:1;stroke-width:1.2;stroke-linecap:butt;stroke-linejoin:miter;stroke:rgb(0%,0%,0%);stroke-opacity:1;stroke-miterlimit:4;" d="M 421.33987 513.7911 L 421.33987 482.4511 L 413.48214 482.4511 L 413.48214 479.3986 L 351.33987 479.3986 L 351.33987 482.4511 L 343.48214 482.4511 L 343.48214 513.7911 Z M 421.33987 513.7911 " transform="matrix(1.9,0,0,1.5625,222.571434,-304.58375)"/>
<path style="fill-rule:nonzero;fill:rgb(100%,100%,100%);fill-opacity:1;stroke-width:1.2;stroke-linecap:square;stroke-linejoin:bevel;stroke:rgb(0%,0%,0%);stroke-opacity:1;stroke-miterlimit:4;" d="M 294.164706 535.2561 L 299.902781 535.2561 L 299.902781 561.6486 L 294.164706 561.6486 Z M 294.164706 535.2561 " transform="matrix(1.9,0,0,1.5625,222.571434,-304.58375)"/>
<path style="fill-rule:nonzero;fill:rgb(100%,100%,100%);fill-opacity:1;stroke-width:1.2;stroke-linecap:butt;stroke-linejoin:miter;stroke:rgb(0%,0%,0%);stroke-opacity:1;stroke-miterlimit:4;" d="M 224.327124 570.3161 C 227.094393 569.0661 231.123999 565.6461 231.123999 562.2061 L 231.123999 521.3311 L 229.228439 517.9561 L 298.864541 517.9561 L 296.146614 521.3311 L 296.146614 562.2061 C 296.146614 565.6461 298.913883 569.0661 301.681153 570.3161 Z M 224.327124 570.3161 " transform="matrix(1.9,0,0,1.5625,222.571434,-304.58375)"/>
<path style="fill-rule:nonzero;fill:rgb(100%,100%,100%);fill-opacity:1;stroke-width:1.2;stroke-linecap:square;stroke-linejoin:bevel;stroke:rgb(0%,0%,0%);stroke-opacity:1;stroke-miterlimit:4;" d="M 231.786005 490.7561 L 238.21487 490.7561 L 238.21487 514.5936 L 231.786005 514.5936 Z M 231.786005 490.7561 " transform="matrix(1.9,0,0,1.5625,222.571434,-304.58375)"/>
<path style="fill-rule:nonzero;fill:rgb(100%,100%,100%);fill-opacity:1;stroke-width:1.2;stroke-linecap:square;stroke-linejoin:bevel;stroke:rgb(0%,0%,0%);stroke-opacity:1;stroke-miterlimit:4;" d="M 231.744887 485.6561 L 238.173752 485.6561 L 238.173752 490.6786 L 231.744887 490.6786 Z M 231.744887 485.6561 " transform="matrix(1.9,0,0,1.5625,222.571434,-304.58375)"/>
<path style="fill-rule:nonzero;fill:rgb(100%,100%,100%);fill-opacity:1;stroke-width:1.2;stroke-linecap:butt;stroke-linejoin:miter;stroke:rgb(0%,0%,0%);stroke-opacity:1;stroke-miterlimit:4;" d="M 287.624821 570.3161 C 284.855495 569.0661 280.82589 565.6461 280.82589 562.2061 L 280.82589 523.3311 L 286.61742 517.9561 L 239.275726 517.9561 L 245.067255 523.3311 L 245.067255 562.2061 C 245.067255 565.6461 241.035594 569.0661 238.268324 570.3161 Z M 287.624821 570.3161 " transform="matrix(1.9,0,0,1.5625,222.571434,-304.58375)"/>
<path style="fill-rule:nonzero;fill:rgb(100%,100%,100%);fill-opacity:1;stroke-width:1.2;stroke-linecap:butt;stroke-linejoin:miter;stroke:rgb(0%,0%,0%);stroke-opacity:1;stroke-miterlimit:4;" d="M 280.99242 570.3161 C 278.22515 569.0661 274.195545 565.6461 274.195545 562.2061 L 274.195545 527.0636 L 277.984607 521.6886 L 247.908538 521.6886 L 251.697601 527.0636 L 251.697601 562.2061 C 251.697601 565.6461 247.667995 569.0661 244.900726 570.3161 Z M 280.99242 570.3161 " transform="matrix(1.9,0,0,1.5625,222.571434,-304.58375)"/>
<path style="fill-rule:nonzero;fill:rgb(100%,100%,100%);fill-opacity:1;stroke-width:1.2;stroke-linecap:butt;stroke-linejoin:miter;stroke:rgb(0%,0%,0%);stroke-opacity:1;stroke-miterlimit:4;" d="M 527.269147 570.3161 C 524.499821 569.0661 520.470216 565.6461 520.470216 562.2061 L 520.470216 523.3311 L 526.261745 517.9561 L 478.920051 517.9561 L 484.711581 523.3311 L 484.711581 562.2061 C 484.711581 565.6461 480.67992 569.0661 477.91265 570.3161 Z M 527.269147 570.3161 " transform="matrix(1.9,0,0,1.5625,222.571434,-304.58375)"/>
<path style="fill-rule:nonzero;fill:rgb(100%,100%,100%);fill-opacity:1;stroke-width:1.2;stroke-linecap:butt;stroke-linejoin:miter;stroke:rgb(0%,0%,0%);stroke-opacity:1;stroke-miterlimit:4;" d="M 520.636745 570.3161 C 517.869476 569.0661 513.83987 565.6461 513.83987 562.2061 L 513.83987 527.0636 L 517.628933 521.6886 L 487.552864 521.6886 L 491.341926 527.0636 L 491.341926 562.2061 C 491.341926 565.6461 487.312321 569.0661 484.545051 570.3161 Z M 520.636745 570.3161 " transform="matrix(1.9,0,0,1.5625,222.571434,-304.58375)"/>
<path style="fill-rule:nonzero;fill:rgb(100%,100%,100%);fill-opacity:1;stroke-width:1.2;stroke-linecap:butt;stroke-linejoin:miter;stroke:rgb(0%,0%,0%);stroke-opacity:1;stroke-miterlimit:4;" d="M 255.760101 521.6886 L 270.130989 521.6886 L 270.130989 570.3161 L 255.762156 570.3161 Z M 255.760101 521.6886 " transform="matrix(1.9,0,0,1.5625,222.571434,-304.58375)"/>
<path style="fill-rule:nonzero;fill:rgb(100%,100%,100%);fill-opacity:1;stroke-width:1.2;stroke-linecap:butt;stroke-linejoin:miter;stroke:rgb(0%,0%,0%);stroke-opacity:1;stroke-miterlimit:4;" d="M 401.267913 570.3161 C 398.498587 569.0661 394.468982 565.6486 394.468982 562.2061 L 394.468982 525.0611 L 396.742831 521.6886 L 368.43691 521.6886 L 370.710758 525.0636 L 370.710758 562.2061 C 370.710758 565.6461 366.679097 569.0661 363.911828 570.3161 Z M 401.267913 570.3161 " transform="matrix(1.9,0,0,1.5625,222.571434,-304.58375)"/>
<path style="fill-rule:nonzero;fill:rgb(100%,100%,100%);fill-opacity:1;stroke-width:1.226223;stroke-linecap:butt;stroke-linejoin:miter;stroke:rgb(0%,0%,0%);stroke-opacity:1;stroke-miterlimit:4;" d="M 375.416762 521.7011 L 389.760923 521.7011 L 389.760923 570.3036 L 375.416762 570.3036 Z M 375.416762 521.7011 " transform="matrix(1.9,0,0,1.5625,222.571434,-304.58375)"/>
<path style="fill-rule:nonzero;fill:rgb(100%,100%,100%);fill-opacity:1;stroke-width:1.2;stroke-linecap:butt;stroke-linejoin:miter;stroke:rgb(0%,0%,0%);stroke-opacity:1;stroke-miterlimit:4;" d="M 495.404426 521.6886 L 509.775314 521.6886 L 509.775314 570.3161 L 495.404426 570.3161 Z M 495.404426 521.6886 " transform="matrix(1.9,0,0,1.5625,222.571434,-304.58375)"/>
<path style="fill-rule:nonzero;fill:rgb(100%,100%,100%);fill-opacity:1;stroke-width:1.2;stroke-linecap:butt;stroke-linejoin:bevel;stroke:rgb(0%,0%,0%);stroke-opacity:1;stroke-miterlimit:4;" d="M 368.194311 503.2186 L 396.983374 503.2186 L 396.983374 513.8236 L 368.194311 513.8236 Z M 368.194311 503.2186 " transform="matrix(1.9,0,0,1.5625,222.571434,-304.58375)"/>
<path style="fill-rule:nonzero;fill:rgb(100%,100%,100%);fill-opacity:1;stroke-width:1.2;stroke-linecap:butt;stroke-linejoin:bevel;stroke:rgb(0%,0%,0%);stroke-opacity:1;stroke-miterlimit:4;" d="M 397.297929 511.0061 C 397.33288 507.8036 406.637979 507.6586 411.428275 504.9336 L 353.90566 504.9336 C 358.695956 507.6586 367.785183 507.8836 367.785183 511.0061 L 369.73214 517.2161 L 393.543818 518.1711 Z M 397.297929 511.0061 " transform="matrix(1.9,0,0,1.5625,222.571434,-304.58375)"/>
<path style="fill-rule:nonzero;fill:rgb(100%,100%,100%);fill-opacity:1;stroke-width:1.2;stroke-linecap:butt;stroke-linejoin:miter;stroke:rgb(0%,0%,0%);stroke-opacity:1;stroke-miterlimit:4;" d="M 408.541762 477.1836 C 408.541762 469.3461 408.870709 466.3261 411.278193 466.3261 L 411.278193 491.2561 C 405.373587 493.3986 401.158949 500.9336 401.158949 500.9336 L 364.020791 500.9336 C 364.020791 500.9336 359.806153 493.3986 353.899492 491.2561 L 353.899492 466.3261 C 356.870298 466.3261 356.888801 469.4811 356.888801 477.1836 Z M 408.541762 477.1836 " transform="matrix(1.9,0,0,1.5625,222.571434,-304.58375)"/>
<path style="fill-rule:nonzero;fill:rgb(100%,100%,100%);fill-opacity:1;stroke-width:1.2;stroke-linecap:butt;stroke-linejoin:miter;stroke:rgb(0%,0%,0%);stroke-opacity:1;stroke-miterlimit:4;" d="M 364.571778 481.8261 C 369.355906 487.5711 368.913883 497.3136 368.858374 503.0586 L 396.60714 503.0586 C 396.55163 497.3136 396.107551 487.5711 400.893735 481.8261 Z M 364.571778 481.8261 " transform="matrix(1.9,0,0,1.5625,222.571434,-304.58375)"/>
<path style="fill-rule:nonzero;fill:rgb(100%,100%,100%);fill-opacity:1;stroke-width:1.2;stroke-linecap:square;stroke-linejoin:bevel;stroke:rgb(0%,0%,0%);stroke-opacity:1;stroke-miterlimit:4;" d="M 236.210347 535.2561 L 241.948423 535.2561 L 241.948423 561.6486 L 236.210347 561.6486 Z M 236.210347 535.2561 " transform="matrix(1.9,0,0,1.5625,222.571434,-304.58375)"/>
<path style="fill-rule:nonzero;fill:rgb(100%,100%,100%);fill-opacity:1;stroke-width:1.2;stroke-linecap:square;stroke-linejoin:bevel;stroke:rgb(0%,0%,0%);stroke-opacity:1;stroke-miterlimit:4;" d="M -534.158538 490.7561 L -527.729673 490.7561 L -527.729673 514.5936 L -534.158538 514.5936 Z M -534.158538 490.7561 " transform="matrix(-1.9,0,0,1.5625,222.571434,-304.58375)"/>
<path style="fill:none;stroke-width:1.2;stroke-linecap:butt;stroke-linejoin:miter;stroke:rgb(0%,0%,0%);stroke-opacity:1;stroke-miterlimit:4;" d="M 221.500232 570.3161 C 224.316844 568.8836 227.530249 565.5436 228.580824 561.8061 L 537.501466 561.8061 C 538.552041 565.5436 541.76339 568.8836 544.580002 570.3161 Z M 221.500232 570.3161 " transform="matrix(1.9,0,0,1.5625,222.571434,-304.58375)"/>
<path style="fill-rule:nonzero;fill:rgb(100%,100%,100%);fill-opacity:1;stroke-width:1.2;stroke-linecap:square;stroke-linejoin:bevel;stroke:rgb(0%,0%,0%);stroke-opacity:1;stroke-miterlimit:4;" d="M 285.406482 535.2561 L 291.144558 535.2561 L 291.144558 561.6486 L 285.406482 561.6486 Z M 285.406482 535.2561 " transform="matrix(1.9,0,0,1.5625,222.571434,-304.58375)"/>
<path style="fill-rule:nonzero;fill:rgb(100%,100%,100%);fill-opacity:1;stroke-width:1.2;stroke-linecap:butt;stroke-linejoin:miter;stroke:rgb(0%,0%,0%);stroke-opacity:1;stroke-miterlimit:4;" d="M 227.285594 482.6311 L 227.285594 517.9561 L 231.302864 517.9561 L 231.302864 482.5411 C 229.855495 481.8086 228.494476 481.6961 227.285594 482.6311 Z M 227.285594 482.6311 " transform="matrix(1.9,0,0,1.5625,222.571434,-304.58375)"/>
<path style="fill-rule:nonzero;fill:rgb(100%,100%,100%);fill-opacity:1;stroke-width:1.2;stroke-linecap:butt;stroke-linejoin:miter;stroke:rgb(0%,0%,0%);stroke-opacity:1;stroke-miterlimit:4;" d="M 227.411005 505.4861 C 232.390446 508.0336 237.322601 510.9786 238.570545 517.9561 L 227.411005 517.9561 Z M 227.411005 505.4861 " transform="matrix(1.9,0,0,1.5625,222.571434,-304.58375)"/>
<path style="fill-rule:nonzero;fill:rgb(100%,100%,100%);fill-opacity:1;stroke-width:1.292147;stroke-linecap:square;stroke-linejoin:bevel;stroke:rgb(0%,0%,0%);stroke-opacity:1;stroke-miterlimit:4;" d="M 288.155249 496.5811 L 298.011334 496.5811 L 298.011334 517.4661 L 288.155249 517.4661 Z M 288.155249 496.5811 " transform="matrix(1.9,0,0,1.5625,222.571434,-304.58375)"/>
<path style="fill-rule:nonzero;fill:rgb(100%,100%,100%);fill-opacity:1;stroke-width:1.2;stroke-linecap:butt;stroke-linejoin:miter;stroke:rgb(0%,0%,0%);stroke-opacity:1;stroke-miterlimit:4;" d="M 296.479673 494.9061 L 296.479673 517.9561 L 299.736252 517.9561 L 299.736252 494.8461 C 298.718571 494.3711 297.328768 494.2961 296.479673 494.9061 Z M 296.479673 494.9061 " transform="matrix(1.9,0,0,1.5625,222.571434,-304.58375)"/>
<path style="fill-rule:nonzero;fill:rgb(100%,100%,100%);fill-opacity:1;stroke-width:1.2;stroke-linecap:butt;stroke-linejoin:miter;stroke:rgb(0%,0%,0%);stroke-opacity:1;stroke-miterlimit:4;" d="M 359.100972 477.1836 L 359.100972 468.3261 C 358.975561 463.8986 354.68691 463.5786 354.561499 460.3486 C 354.561499 460.3486 354.0064 455.5061 355.283127 453.2961 C 357.018324 459.7711 360.174163 458.5811 360.174163 455.9186 C 360.174163 453.5961 358.385512 451.4336 354.719804 445.7911 C 353.549985 443.9886 354.27367 438.3361 355.916351 436.3161 C 356.55163 441.2286 357.281482 443.5786 359.390857 443.5786 C 360.677864 443.5786 361.728439 442.7411 361.728439 440.2786 C 361.728439 437.1486 359.608785 435.5686 358.566433 432.7186 C 357.349328 429.3961 358.188143 426.0061 360.207058 424.1111 C 361.074656 428.9586 360.81561 430.8911 362.96816 430.8911 C 367.310265 429.5186 362.970216 423.2336 362.042995 421.6486 C 360.973916 419.7986 363.475972 416.1111 363.475972 416.1111 C 364.855495 420.4161 365.299574 420.7661 366.788061 420.3686 C 368.667173 419.8636 368.424574 417.0786 366.132222 414.8261 C 364.684854 413.4036 364.839048 411.2886 366.393324 409.5886 C 367.951712 412.6361 369.950068 412.4511 370.141268 410.6411 L 368.887156 403.6111 L 396.494064 403.6111 L 395.124821 410.4111 C 394.73214 412.3561 397.357551 412.7786 398.989953 409.5886 C 400.544229 411.2886 400.696367 413.4036 399.248999 414.8261 C 396.958703 417.0786 396.716104 419.8636 398.59316 420.3686 C 400.081647 420.7661 400.525726 420.4161 401.905249 416.1111 C 401.905249 416.1111 404.150314 418.6261 403.340281 421.6486 C 402.413061 423.2336 398.073012 429.5186 402.415117 430.8911 C 404.56561 430.8911 404.30862 428.9586 405.174163 424.1111 C 407.195133 426.0061 408.031893 429.3961 406.816844 432.7186 C 405.774492 435.5686 403.654837 437.1486 403.654837 440.2786 C 403.654837 442.7411 404.705413 443.5786 405.99242 443.5786 C 408.101795 443.5786 408.829591 441.2286 409.466926 436.3161 C 411.107551 438.3361 411.833291 443.9886 410.661416 445.7911 C 406.995709 451.4336 405.209114 453.5961 405.209114 455.9186 C 405.209114 458.5811 408.362897 459.7711 410.098094 453.2961 C 411.374821 455.5061 410.821778 460.3486 410.821778 460.3486 C 410.696367 463.5786 406.407716 463.8986 406.280249 468.3261 L 406.280249 477.1836 Z M 359.100972 477.1836 " transform="matrix(1.9,0,0,1.5625,222.571434,-304.58375)"/>
<path style="fill:none;stroke-width:1;stroke-linecap:butt;stroke-linejoin:miter;stroke:rgb(0%,0%,0%);stroke-opacity:1;stroke-miterlimit:4;" d="M 369.226383 412.0386 L 396.631811 412.0386 " transform="matrix(1.9,0,0,1.5625,222.571434,-304.58375)"/>
<path style="fill-rule:nonzero;fill:rgb(100%,100%,100%);fill-opacity:1;stroke-width:1.2;stroke-linecap:butt;stroke-linejoin:miter;stroke:rgb(0%,0%,0%);stroke-opacity:1;stroke-miterlimit:4;" d="M 380.172107 416.0211 L 376.368653 414.0636 L 376.368653 408.4661 C 377.922929 408.9336 379.668406 409.1261 379.839048 411.6011 C 380.379755 408.0661 381.356318 408.2386 382.887979 406.8611 C 384.421696 408.2386 385.398258 408.0661 385.938966 411.6011 C 386.109607 409.1261 387.855084 408.9336 389.40936 408.4661 L 389.40936 414.0636 L 385.605906 416.0211 Z M 380.172107 416.0211 " transform="matrix(1.9,0,0,1.5625,222.571434,-304.58375)"/>
<path style="fill:none;stroke-width:1;stroke-linecap:butt;stroke-linejoin:miter;stroke:rgb(0%,0%,0%);stroke-opacity:1;stroke-miterlimit:4;" d="M 365.975972 420.5911 L 399.450479 420.5911 " transform="matrix(1.9,0,0,1.5625,222.571434,-304.58375)"/>
<path style="fill-rule:nonzero;fill:rgb(100%,100%,100%);fill-opacity:1;stroke-width:1.2;stroke-linecap:butt;stroke-linejoin:miter;stroke:rgb(0%,0%,0%);stroke-opacity:1;stroke-miterlimit:4;" d="M 379.917173 425.2061 L 373.603439 420.8661 L 373.603439 415.7086 C 375.817666 416.2211 378.301219 416.4286 378.545874 419.1461 C 379.314788 415.2686 380.706647 413.2661 382.887979 411.7536 C 385.071367 413.2661 386.463226 415.2686 387.23214 419.1461 C 387.476795 416.4286 389.960347 416.2211 392.174574 415.7086 L 392.174574 420.8661 L 385.860841 425.2061 Z M 379.917173 425.2061 " transform="matrix(1.9,0,0,1.5625,222.571434,-304.58375)"/>
<path style="fill:none;stroke-width:1;stroke-linecap:butt;stroke-linejoin:miter;stroke:rgb(0%,0%,0%);stroke-opacity:1;stroke-miterlimit:4;" d="M 362.735841 430.9786 L 402.581647 430.9786 " transform="matrix(1.9,0,0,1.5625,222.571434,-304.58375)"/>
<path style="fill-rule:nonzero;fill:rgb(100%,100%,100%);fill-opacity:1;stroke-width:1.2;stroke-linecap:butt;stroke-linejoin:miter;stroke:rgb(0%,0%,0%);stroke-opacity:1;stroke-miterlimit:4;" d="M 379.473094 439.5161 L 372.211581 433.1386 L 372.211581 425.5636 C 374.756811 426.3161 377.614541 426.6236 377.894147 430.6136 C 378.780249 424.9161 380.377699 421.9736 382.887979 419.7536 C 385.400314 421.9736 386.997765 424.9161 387.883867 430.6136 C 388.163472 426.6236 391.021203 426.3161 393.566433 425.5636 L 393.566433 433.1386 L 386.30492 439.5161 Z M 379.473094 439.5161 " transform="matrix(1.9,0,0,1.5625,222.571434,-304.58375)"/>
<path style="fill-rule:nonzero;fill:rgb(100%,100%,100%);fill-opacity:1;stroke-width:1.2;stroke-linecap:butt;stroke-linejoin:miter;stroke:rgb(0%,0%,0%);stroke-opacity:1;stroke-miterlimit:4;" d="M 392.85714 447.9861 L 386.290528 457.0661 L 378.856318 457.0661 L 372.291762 447.9861 Z M 392.85714 447.9861 " transform="matrix(1.9,0,0,1.5625,222.571434,-304.58375)"/>
<path style="fill-rule:nonzero;fill:rgb(100%,100%,100%);fill-opacity:1;stroke-width:1.2;stroke-linecap:butt;stroke-linejoin:miter;stroke:rgb(0%,0%,0%);stroke-opacity:1;stroke-miterlimit:4;" d="M 368.515035 463.2286 C 371.798341 465.0236 373.011334 468.5986 373.362897 475.3136 L 391.841515 475.3136 C 392.193078 468.5986 393.406071 465.0236 396.689377 463.2286 Z M 368.515035 463.2286 " transform="matrix(1.9,0,0,1.5625,222.571434,-304.58375)"/>
<path style="fill:none;stroke-width:1;stroke-linecap:butt;stroke-linejoin:miter;stroke:rgb(0%,0%,0%);stroke-opacity:1;stroke-miterlimit:4;" d="M 359.335347 443.6661 L 406.592749 443.6661 " transform="matrix(1.9,0,0,1.5625,222.571434,-304.58375)"/>
<path style="fill:none;stroke-width:1;stroke-linecap:butt;stroke-linejoin:miter;stroke:rgb(0%,0%,0%);stroke-opacity:1;stroke-miterlimit:4;" d="M 358.247765 458.1211 L 406.92992 458.1211 " transform="matrix(1.9,0,0,1.5625,222.571434,-304.58375)"/>
<path style="fill-rule:nonzero;fill:rgb(100%,100%,100%);fill-opacity:1;stroke-width:1.2;stroke-linecap:butt;stroke-linejoin:bevel;stroke:rgb(0%,0%,0%);stroke-opacity:1;stroke-miterlimit:4;" d="M 396.960758 447.9861 L 396.960758 438.8611 C 393.841926 439.7211 391.820956 441.5686 390.920462 444.0736 C 390.920462 441.0461 386.936087 434.0636 382.58987 430.5886 C 378.229262 434.4786 374.177041 440.7961 374.259278 444.0736 C 373.517091 441.6886 371.337814 439.7211 368.216926 438.8611 L 368.216926 447.9861 Z M 396.960758 447.9861 " transform="matrix(1.9,0,0,1.5625,222.571434,-304.58375)"/>
<path style="fill-rule:nonzero;fill:rgb(100%,100%,100%);fill-opacity:1;stroke-width:1.2;stroke-linecap:butt;stroke-linejoin:bevel;stroke:rgb(0%,0%,0%);stroke-opacity:1;stroke-miterlimit:4;" d="M 398.344393 463.2286 L 398.344393 454.1036 C 394.923341 454.9636 392.709114 456.8111 391.722272 459.3161 C 391.722272 456.2886 387.353439 449.3061 382.58987 445.8286 C 377.81191 449.7211 373.367008 456.0386 373.457469 459.3161 C 372.64538 456.9311 370.254344 454.9636 366.835347 454.1036 L 366.835347 463.2286 Z M 398.344393 463.2286 " transform="matrix(1.9,0,0,1.5625,222.571434,-304.58375)"/>
<path style="fill-rule:nonzero;fill:rgb(100%,100%,100%);fill-opacity:1;stroke-width:1.2;stroke-linecap:butt;stroke-linejoin:bevel;stroke:rgb(0%,0%,0%);stroke-opacity:1;stroke-miterlimit:4;" d="M 402.188966 481.9486 L 402.188966 471.4261 C 397.935265 472.5236 395.289295 475.6711 393.95089 477.5061 C 393.95089 471.8086 387.517913 463.1211 382.58987 460.2761 C 377.53436 463.1961 371.226795 472.1711 371.226795 477.5061 C 369.853439 475.6836 367.244476 472.5236 362.988719 471.4261 L 362.988719 481.9486 Z M 402.188966 481.9486 " transform="matrix(1.9,0,0,1.5625,222.571434,-304.58375)"/>
<path style="fill-rule:nonzero;fill:rgb(100%,100%,100%);fill-opacity:1;stroke-width:1.2;stroke-linecap:butt;stroke-linejoin:bevel;stroke:rgb(0%,0%,0%);stroke-opacity:1;stroke-miterlimit:4;" d="M 399.886334 505.3086 L 399.886334 494.4911 C 396.130166 495.9611 395.009689 499.5786 393.827535 502.0361 C 394.292173 491.0636 387.649492 479.2686 382.58987 476.2761 C 377.530249 479.2686 370.762156 491.3161 371.352206 502.0361 C 370.139212 499.5936 369.047518 495.9611 365.293406 494.4911 L 365.293406 505.3086 Z M 399.886334 505.3086 " transform="matrix(1.9,0,0,1.5625,222.571434,-304.58375)"/>
<path style="fill-rule:nonzero;fill:rgb(100%,100%,100%);fill-opacity:1;stroke-width:1.2;stroke-linecap:square;stroke-linejoin:bevel;stroke:rgb(0%,0%,0%);stroke-opacity:1;stroke-miterlimit:4;" d="M -534.199656 485.6561 L -527.770791 485.6561 L -527.770791 490.6786 L -534.199656 490.6786 Z M -534.199656 485.6561 " transform="matrix(-1.9,0,0,1.5625,222.571434,-304.58375)"/>
<path style="fill-rule:nonzero;fill:rgb(100%,100%,100%);fill-opacity:1;stroke-width:1.2;stroke-linecap:square;stroke-linejoin:bevel;stroke:rgb(0%,0%,0%);stroke-opacity:1;stroke-miterlimit:4;" d="M 474.695133 535.2561 L 480.433209 535.2561 L 480.433209 561.6486 L 474.695133 561.6486 Z M 474.695133 535.2561 " transform="matrix(1.9,0,0,1.5625,222.571434,-304.58375)"/>
<path style="fill-rule:nonzero;fill:rgb(100%,100%,100%);fill-opacity:1;stroke-width:1.2;stroke-linecap:square;stroke-linejoin:bevel;stroke:rgb(0%,0%,0%);stroke-opacity:1;stroke-miterlimit:4;" d="M 523.891268 535.2561 L 529.629344 535.2561 L 529.629344 561.6486 L 523.891268 561.6486 Z M 523.891268 535.2561 " transform="matrix(1.9,0,0,1.5625,222.571434,-304.58375)"/>
<path style="fill:none;stroke-width:1.2;stroke-linecap:butt;stroke-linejoin:miter;stroke:rgb(0%,0%,0%);stroke-opacity:1;stroke-miterlimit:4;" d="M 343.48214 505.3086 L 421.33987 505.3086 " transform="matrix(1.9,0,0,1.5625,222.571434,-304.58375)"/>
<path style="fill:none;stroke-width:1.2;stroke-linecap:butt;stroke-linejoin:miter;stroke:rgb(0%,0%,0%);stroke-opacity:1;stroke-miterlimit:4;" d="M 368.196367 505.3211 L 397.053275 505.3211 L 397.053275 515.9261 L 368.196367 515.9261 Z M 368.196367 505.3211 " transform="matrix(1.9,0,0,1.5625,222.571434,-304.58375)"/>
<path style="fill-rule:nonzero;fill:rgb(100%,100%,100%);fill-opacity:1;stroke-width:1.2;stroke-linecap:butt;stroke-linejoin:miter;stroke:rgb(0%,0%,0%);stroke-opacity:1;stroke-miterlimit:4;" d="M 397.254755 521.6886 L 397.254755 510.8686 C 393.321778 511.8036 393.079179 513.2561 391.827124 515.6786 C 392.291762 509.1236 387.649492 501.6461 382.58987 498.6561 C 377.530249 501.6461 372.887979 509.1236 373.350561 515.6786 C 372.100561 513.2561 371.946367 511.8036 367.924985 510.8686 L 367.924985 521.6886 Z M 397.254755 521.6886 " transform="matrix(1.9,0,0,1.5625,222.571434,-304.58375)"/>
<path style="fill-rule:nonzero;fill:rgb(100%,100%,100%);fill-opacity:1;stroke-width:1.2;stroke-linecap:butt;stroke-linejoin:miter;stroke:rgb(0%,0%,0%);stroke-opacity:1;stroke-miterlimit:4;" d="M 299.736252 505.4861 C 294.754755 508.0336 289.824656 510.9786 288.574656 517.9561 L 299.736252 517.9561 Z M 299.736252 505.4861 " transform="matrix(1.9,0,0,1.5625,222.571434,-304.58375)"/>
<path style="fill-rule:nonzero;fill:rgb(100%,100%,100%);fill-opacity:1;stroke-width:1.2;stroke-linecap:square;stroke-linejoin:bevel;stroke:rgb(0%,0%,0%);stroke-opacity:1;stroke-miterlimit:4;" d="M 231.302864 490.7561 L 238.21487 490.7561 L 238.21487 517.8086 L 231.302864 517.8086 Z M 231.302864 490.7561 " transform="matrix(1.9,0,0,1.5625,222.571434,-304.58375)"/>
<path style="fill-rule:nonzero;fill:rgb(100%,100%,100%);fill-opacity:1;stroke-width:1.2;stroke-linecap:square;stroke-linejoin:bevel;stroke:rgb(0%,0%,0%);stroke-opacity:1;stroke-miterlimit:4;" d="M 231.302864 485.6561 L 238.173752 485.6561 L 238.173752 490.6786 L 231.302864 490.6786 Z M 231.302864 485.6561 " transform="matrix(1.9,0,0,1.5625,222.571434,-304.58375)"/>
<path style="fill-rule:nonzero;fill:rgb(100%,100%,100%);fill-opacity:1;stroke-width:1.292147;stroke-linecap:square;stroke-linejoin:bevel;stroke:rgb(0%,0%,0%);stroke-opacity:1;stroke-miterlimit:4;" d="M 288.155249 496.5811 L 298.011334 496.5811 L 298.011334 517.4661 L 288.155249 517.4661 Z M 288.155249 496.5811 " transform="matrix(1.9,0,0,1.5625,222.571434,-304.58375)"/>
<path style="fill-rule:nonzero;fill:rgb(100%,100%,100%);fill-opacity:1;stroke-width:1.2;stroke-linecap:butt;stroke-linejoin:miter;stroke:rgb(0%,0%,0%);stroke-opacity:1;stroke-miterlimit:4;" d="M 238.116186 517.5986 L 238.116186 471.2936 C 240.087814 471.2936 240.392091 478.0811 244.915117 478.0811 C 247.269147 478.0811 247.018324 475.2686 245.696367 472.9786 C 244.526548 470.9511 243.077124 468.1511 245.04464 462.9336 C 246.393324 466.9261 250.024081 468.1936 249.353851 465.6886 C 248.200479 461.3886 244.882222 460.6811 247.371943 454.0061 C 248.237485 459.5761 251.80862 459.3286 250.941022 456.0911 C 249.964459 452.4436 247.945545 450.9486 250.437321 445.8086 C 251.831235 451.6461 253.720627 451.3036 253.720627 447.6811 C 253.720627 442.3261 253.515035 436.5511 260.443489 434.4086 C 260.443489 434.4086 260.844393 429.4986 263.344393 429.4986 C 265.844393 429.4986 266.243242 434.4086 266.243242 434.4086 C 273.173752 436.5511 272.96816 442.3261 272.96816 447.6811 C 272.96816 451.3036 274.855495 451.6461 276.251466 445.8086 C 278.743242 450.9486 276.722272 452.4436 275.745709 456.0911 C 274.87811 459.3286 278.451301 459.5761 279.314788 454.0061 C 281.804508 460.6811 278.486252 461.3886 277.33288 465.6886 C 276.66265 468.1936 280.293406 466.9261 281.642091 462.9336 C 283.609607 468.1511 282.162239 470.9511 280.990364 472.9786 C 279.668406 475.2686 279.417584 478.0811 281.77367 478.0811 C 286.296696 478.0811 286.600972 471.2936 288.570545 471.2936 L 288.570545 517.5986 Z M 238.116186 517.5986 " transform="matrix(1.9,0,0,1.5625,222.571434,-304.58375)"/>
<path style="fill-rule:nonzero;fill:rgb(100%,100%,100%);fill-opacity:1;stroke-width:1.2;stroke-linecap:butt;stroke-linejoin:miter;stroke:rgb(0%,0%,0%);stroke-opacity:1;stroke-miterlimit:4;" d="M 266.810676 451.4661 L 269.713637 449.0286 L 269.713637 445.9036 C 268.652781 446.0061 268.073012 446.3711 267.289706 447.3986 C 266.621531 445.3286 265.15566 443.7111 263.188143 442.7086 C 261.222683 443.7111 259.756811 445.2561 259.088637 447.3261 C 258.305331 446.2986 257.725561 446.0061 256.66265 445.9036 L 256.66265 449.0286 L 259.56561 451.4661 Z M 266.810676 451.4661 " transform="matrix(1.9,0,0,1.5625,222.571434,-304.58375)"/>
<path style="fill-rule:nonzero;fill:rgb(100%,100%,100%);fill-opacity:1;stroke-width:1.2;stroke-linecap:butt;stroke-linejoin:miter;stroke:rgb(0%,0%,0%);stroke-opacity:1;stroke-miterlimit:4;" d="M 268.364953 459.3011 L 269.713637 456.3811 L 269.713637 452.3186 C 268.652781 452.4236 268.073012 452.7936 267.289706 453.8361 C 266.621531 451.7361 265.15566 450.0961 263.188143 449.0786 C 261.222683 450.0961 259.756811 451.6611 259.088637 453.7611 C 258.305331 452.7186 257.725561 452.4236 256.66265 452.3186 L 256.66265 456.3811 L 258.01339 459.3011 Z M 268.364953 459.3011 " transform="matrix(1.9,0,0,1.5625,222.571434,-304.58375)"/>
<path style="fill-rule:nonzero;fill:rgb(100%,100%,100%);fill-opacity:1;stroke-width:1.2;stroke-linecap:butt;stroke-linejoin:miter;stroke:rgb(0%,0%,0%);stroke-opacity:1;stroke-miterlimit:4;" d="M 268.570545 469.8961 L 272.881811 464.6386 L 272.881811 459.4486 C 271.30492 459.6261 270.443489 460.2536 269.279837 462.0186 C 268.288883 458.4636 266.109607 457.6861 263.188143 455.9611 C 260.268735 457.6861 258.089459 458.3361 257.098505 461.8936 C 255.934854 460.1261 255.073423 459.6261 253.496531 459.4486 L 253.496531 464.6386 L 257.807798 469.8961 Z M 268.570545 469.8961 " transform="matrix(1.9,0,0,1.5625,222.571434,-304.58375)"/>
<path style="fill-rule:nonzero;fill:rgb(100%,100%,100%);fill-opacity:1;stroke-width:1.2;stroke-linecap:butt;stroke-linejoin:miter;stroke:rgb(0%,0%,0%);stroke-opacity:1;stroke-miterlimit:4;" d="M 269.83288 480.3161 C 269.83288 480.3161 274.857551 475.9336 275.15566 473.5261 L 275.15566 467.9786 C 273.208703 468.2086 271.366597 468.7136 269.927453 470.9936 C 268.704179 466.4011 266.794229 465.1211 263.188143 462.8936 C 259.584114 465.1211 257.674163 466.4011 256.45089 470.9936 C 255.011745 468.7136 253.16964 468.2086 251.222683 467.9786 L 251.222683 473.5261 C 251.857962 475.9336 256.545462 480.3161 256.545462 480.3161 Z M 269.83288 480.3161 " transform="matrix(1.9,0,0,1.5625,222.571434,-304.58375)"/>
<path style="fill-rule:nonzero;fill:rgb(100%,100%,100%);fill-opacity:1;stroke-width:1.2;stroke-linecap:butt;stroke-linejoin:miter;stroke:rgb(0%,0%,0%);stroke-opacity:1;stroke-miterlimit:4;" d="M 271.97515 499.5511 C 271.97515 499.5511 278.856318 491.9336 279.014624 488.9661 L 279.014624 480.3161 C 276.438554 480.6736 274.004344 482.4436 272.100561 485.9986 C 270.482551 478.8386 267.955824 473.8461 263.188143 470.3736 C 258.420462 473.8461 255.893735 478.8386 254.275726 485.9986 C 252.373999 482.4436 249.937732 480.6736 247.363719 480.3161 L 247.363719 488.9661 C 247.85714 491.9336 254.403193 499.5511 254.403193 499.5511 Z M 271.97515 499.5511 " transform="matrix(1.9,0,0,1.5625,222.571434,-304.58375)"/>
<path style="fill-rule:nonzero;fill:rgb(100%,100%,100%);fill-opacity:1;stroke-width:1.2;stroke-linecap:butt;stroke-linejoin:miter;stroke:rgb(0%,0%,0%);stroke-opacity:1;stroke-miterlimit:4;" d="M 271.97515 510.9211 C 271.97515 510.9211 277.85714 504.9336 279.014624 502.3336 L 279.014624 493.6836 C 276.438554 494.0411 274.004344 495.8136 272.100561 499.3661 C 270.482551 492.2061 267.955824 488.1086 263.188143 484.6361 C 258.420462 488.1086 255.893735 492.2061 254.275726 499.3661 C 252.373999 495.8136 249.937732 494.0411 247.363719 493.6836 L 247.363719 502.3336 C 248.856318 504.9336 254.403193 510.9211 254.403193 510.9211 Z M 271.97515 510.9211 " transform="matrix(1.9,0,0,1.5625,222.571434,-304.58375)"/>
<path style="fill-rule:nonzero;fill:rgb(100%,100%,100%);fill-opacity:1;stroke-width:1.2;stroke-linecap:butt;stroke-linejoin:miter;stroke:rgb(0%,0%,0%);stroke-opacity:1;stroke-miterlimit:4;" d="M 274.349739 517.5411 C 272.633045 510.0711 271.156893 504.5311 262.887979 498.9161 C 254.62112 504.5311 253.144969 510.0711 251.428275 517.5411 Z M 274.349739 517.5411 " transform="matrix(1.9,0,0,1.5625,222.571434,-304.58375)"/>
<path style="fill-rule:nonzero;fill:rgb(100%,100%,100%);fill-opacity:1;stroke-width:1.2;stroke-linecap:butt;stroke-linejoin:miter;stroke:rgb(0%,0%,0%);stroke-opacity:1;stroke-miterlimit:4;" d="M 278.603439 521.6886 L 278.603439 510.8686 C 274.849328 512.3411 271.457058 514.5186 270.207058 516.9411 C 268.809031 510.9336 266.115775 508.2886 262.760512 504.6561 C 259.405249 508.2886 257.160183 510.9336 255.762156 516.9411 C 254.510101 514.5186 251.117831 512.3411 247.363719 510.8686 L 247.363719 521.6886 Z M 278.603439 521.6886 " transform="matrix(1.9,0,0,1.5625,222.571434,-304.58375)"/>
<path style="fill-rule:nonzero;fill:rgb(100%,100%,100%);fill-opacity:1;stroke-width:1.2;stroke-linecap:butt;stroke-linejoin:miter;stroke:rgb(0%,0%,0%);stroke-opacity:1;stroke-miterlimit:4;" d="M 227.285594 482.6311 L 227.285594 517.9561 L 231.302864 517.9561 L 231.302864 482.5411 C 229.853439 481.8086 228.494476 481.6961 227.285594 482.6311 Z M 227.285594 482.6311 " transform="matrix(1.9,0,0,1.5625,222.571434,-304.58375)"/>
<path style="fill-rule:nonzero;fill:rgb(100%,100%,100%);fill-opacity:1;stroke-width:1.2;stroke-linecap:butt;stroke-linejoin:miter;stroke:rgb(0%,0%,0%);stroke-opacity:1;stroke-miterlimit:4;" d="M 227.411005 505.4861 C 232.390446 508.0336 237.322601 510.9786 238.570545 517.9561 L 227.411005 517.9561 Z M 227.411005 505.4861 " transform="matrix(1.9,0,0,1.5625,222.571434,-304.58375)"/>
<path style="fill-rule:nonzero;fill:rgb(100%,100%,100%);fill-opacity:1;stroke-width:1.2;stroke-linecap:butt;stroke-linejoin:miter;stroke:rgb(0%,0%,0%);stroke-opacity:1;stroke-miterlimit:4;" d="M 296.479673 494.9061 L 296.479673 517.9561 L 299.736252 517.9561 L 299.736252 494.8461 C 298.718571 494.3711 297.328768 494.2961 296.479673 494.9061 Z M 296.479673 494.9061 " transform="matrix(1.9,0,0,1.5625,222.571434,-304.58375)"/>
<path style="fill-rule:nonzero;fill:rgb(100%,100%,100%);fill-opacity:1;stroke-width:1.2;stroke-linecap:butt;stroke-linejoin:miter;stroke:rgb(0%,0%,0%);stroke-opacity:1;stroke-miterlimit:4;" d="M 299.736252 505.3086 C 294.754755 507.8561 289.824656 510.8011 288.574656 517.7786 L 299.736252 517.7786 Z M 299.736252 505.3086 " transform="matrix(1.9,0,0,1.5625,222.571434,-304.58375)"/>
<path style="fill-rule:nonzero;fill:rgb(100%,100%,100%);fill-opacity:1;stroke-width:1.2;stroke-linecap:butt;stroke-linejoin:miter;stroke:rgb(0%,0%,0%);stroke-opacity:1;stroke-miterlimit:4;" d="M 538.661005 482.6311 L 538.661005 517.9561 L 534.641679 517.9561 L 534.641679 482.5411 C 536.091104 481.8086 537.450068 481.6961 538.661005 482.6311 Z M 538.661005 482.6311 " transform="matrix(1.9,0,0,1.5625,222.571434,-304.58375)"/>
<path style="fill-rule:nonzero;fill:rgb(100%,100%,100%);fill-opacity:1;stroke-width:1.2;stroke-linecap:butt;stroke-linejoin:miter;stroke:rgb(0%,0%,0%);stroke-opacity:1;stroke-miterlimit:4;" d="M 477.610429 517.5986 L 477.610429 471.2936 C 479.582058 471.2936 479.886334 478.0811 484.40936 478.0811 C 486.76339 478.0811 486.514624 475.2686 485.192666 472.9786 C 484.020791 470.9511 482.571367 468.1511 484.540939 462.9336 C 485.889624 466.9261 489.52038 468.1936 488.848094 465.6886 C 487.696778 461.3886 484.378522 460.6811 486.868242 454.0061 C 487.731729 459.5761 491.30492 459.3286 490.437321 456.0911 C 489.458703 452.4436 487.439788 450.9486 489.931564 445.8086 C 491.327535 451.6461 493.21487 451.3036 493.21487 447.6811 C 493.21487 442.3261 493.009278 436.5511 499.939788 434.4086 C 499.939788 434.4086 500.338637 429.4986 502.838637 429.4986 C 505.338637 429.4986 505.739541 434.4086 505.739541 434.4086 C 512.667995 436.5511 512.462403 442.3261 512.462403 447.6811 C 512.462403 451.3036 514.349739 451.6461 515.745709 445.8086 C 518.237485 450.9486 516.218571 452.4436 515.239952 456.0911 C 514.372354 459.3286 517.945545 459.5761 518.811087 454.0061 C 521.300808 460.6811 517.980495 461.3886 516.829179 465.6886 C 516.158949 468.1936 519.78765 466.9261 521.136334 462.9336 C 523.105906 468.1511 521.656482 470.9511 520.486663 472.9786 C 519.164706 475.2686 518.913883 478.0811 521.267913 478.0811 C 525.790939 478.0811 526.095216 471.2936 528.066844 471.2936 L 528.066844 517.5986 Z M 477.610429 517.5986 " transform="matrix(1.9,0,0,1.5625,222.571434,-304.58375)"/>
<path style="fill-rule:nonzero;fill:rgb(100%,100%,100%);fill-opacity:1;stroke-width:1.2;stroke-linecap:butt;stroke-linejoin:miter;stroke:rgb(0%,0%,0%);stroke-opacity:1;stroke-miterlimit:4;" d="M 506.306976 451.4661 L 509.209936 449.0286 L 509.209936 445.9036 C 508.147025 446.0061 507.567255 446.3711 506.783949 447.3986 C 506.115775 445.3286 504.649903 443.7111 502.684443 442.7086 C 500.718982 443.7111 499.251054 445.2561 498.584936 447.3261 C 497.799574 446.2986 497.219804 446.0061 496.158949 445.9036 L 496.158949 449.0286 L 499.06191 451.4661 Z M 506.306976 451.4661 " transform="matrix(1.9,0,0,1.5625,222.571434,-304.58375)"/>
<path style="fill-rule:nonzero;fill:rgb(100%,100%,100%);fill-opacity:1;stroke-width:1.2;stroke-linecap:butt;stroke-linejoin:miter;stroke:rgb(0%,0%,0%);stroke-opacity:1;stroke-miterlimit:4;" d="M 507.859196 459.3011 L 509.209936 456.3811 L 509.209936 452.3186 C 508.147025 452.4236 507.567255 452.7936 506.783949 453.8361 C 506.115775 451.7361 504.649903 450.0961 502.684443 449.0786 C 500.718982 450.0961 499.251054 451.6611 498.584936 453.7611 C 497.799574 452.7186 497.219804 452.4236 496.158949 452.3186 L 496.158949 456.3811 L 497.507633 459.3011 Z M 507.859196 459.3011 " transform="matrix(1.9,0,0,1.5625,222.571434,-304.58375)"/>
<path style="fill-rule:nonzero;fill:rgb(100%,100%,100%);fill-opacity:1;stroke-width:1.2;stroke-linecap:butt;stroke-linejoin:miter;stroke:rgb(0%,0%,0%);stroke-opacity:1;stroke-miterlimit:4;" d="M 508.064788 469.8961 L 512.376054 464.6386 L 512.376054 459.4486 C 510.799163 459.6261 509.939788 460.2536 508.774081 462.0186 C 507.783127 458.4636 505.603851 457.6861 502.684443 455.9611 C 499.762979 457.6861 497.585758 458.3361 496.594804 461.8936 C 495.429097 460.1261 494.567666 459.6261 492.990775 459.4486 L 492.990775 464.6386 L 497.302041 469.8961 Z M 508.064788 469.8961 " transform="matrix(1.9,0,0,1.5625,222.571434,-304.58375)"/>
<path style="fill-rule:nonzero;fill:rgb(100%,100%,100%);fill-opacity:1;stroke-width:1.2;stroke-linecap:butt;stroke-linejoin:miter;stroke:rgb(0%,0%,0%);stroke-opacity:1;stroke-miterlimit:4;" d="M 509.327124 480.3161 C 509.327124 480.3161 514.351795 475.9336 514.649903 473.5261 L 514.649903 467.9786 C 512.702946 468.2086 510.860841 468.7136 509.421696 470.9936 C 508.198423 466.4011 506.288472 465.1211 502.684443 462.8936 C 499.078357 465.1211 497.168406 466.4011 495.945133 470.9936 C 494.505989 468.7136 492.665939 468.2086 490.716926 467.9786 L 490.716926 473.5261 C 491.352206 475.9336 496.039706 480.3161 496.039706 480.3161 Z M 509.327124 480.3161 " transform="matrix(1.9,0,0,1.5625,222.571434,-304.58375)"/>
<path style="fill-rule:nonzero;fill:rgb(100%,100%,100%);fill-opacity:1;stroke-width:1.2;stroke-linecap:butt;stroke-linejoin:miter;stroke:rgb(0%,0%,0%);stroke-opacity:1;stroke-miterlimit:4;" d="M 511.469393 499.5511 C 511.469393 499.5511 518.352617 491.9336 518.510923 488.9661 L 518.510923 480.3161 C 515.934854 480.6736 513.498587 482.4436 511.59686 485.9986 C 509.978851 478.8386 507.452124 473.8461 502.684443 470.3736 C 497.916762 473.8461 495.390035 478.8386 493.772025 485.9986 C 491.870298 482.4436 489.434031 480.6736 486.857962 480.3161 L 486.857962 488.9661 C 487.351383 491.9336 493.897436 499.5511 493.897436 499.5511 Z M 511.469393 499.5511 " transform="matrix(1.9,0,0,1.5625,222.571434,-304.58375)"/>
<path style="fill-rule:nonzero;fill:rgb(100%,100%,100%);fill-opacity:1;stroke-width:1.2;stroke-linecap:butt;stroke-linejoin:miter;stroke:rgb(0%,0%,0%);stroke-opacity:1;stroke-miterlimit:4;" d="M 511.469393 510.9211 C 511.469393 510.9211 517.351383 504.9336 518.510923 502.3336 L 518.510923 493.6836 C 515.934854 494.0411 513.498587 495.8136 511.59686 499.3661 C 509.978851 492.2061 507.452124 488.1086 502.684443 484.6361 C 497.916762 488.1086 495.390035 492.2061 493.772025 499.3661 C 491.870298 495.8136 489.434031 494.0411 486.857962 493.6836 L 486.857962 502.3336 C 488.352617 504.9336 493.897436 510.9211 493.897436 510.9211 Z M 511.469393 510.9211 " transform="matrix(1.9,0,0,1.5625,222.571434,-304.58375)"/>
<path style="fill-rule:nonzero;fill:rgb(100%,100%,100%);fill-opacity:1;stroke-width:1.2;stroke-linecap:butt;stroke-linejoin:miter;stroke:rgb(0%,0%,0%);stroke-opacity:1;stroke-miterlimit:4;" d="M 513.843982 517.5411 C 512.127288 510.0711 510.651137 504.5311 502.384278 498.9161 C 494.11742 504.5311 492.641268 510.0711 490.924574 517.5411 Z M 513.843982 517.5411 " transform="matrix(1.9,0,0,1.5625,222.571434,-304.58375)"/>
<path style="fill-rule:nonzero;fill:rgb(100%,100%,100%);fill-opacity:1;stroke-width:1.2;stroke-linecap:butt;stroke-linejoin:miter;stroke:rgb(0%,0%,0%);stroke-opacity:1;stroke-miterlimit:4;" d="M 538.533538 505.4861 C 533.554097 508.0336 529.158538 510.9786 527.908538 517.9561 L 538.533538 517.9561 Z M 538.533538 505.4861 " transform="matrix(1.9,0,0,1.5625,222.571434,-304.58375)"/>
<path style="fill-rule:nonzero;fill:rgb(100%,100%,100%);fill-opacity:1;stroke-width:1.2;stroke-linecap:butt;stroke-linejoin:miter;stroke:rgb(0%,0%,0%);stroke-opacity:1;stroke-miterlimit:4;" d="M 469.46487 494.9061 L 469.46487 517.9561 L 466.208291 517.9561 L 466.208291 494.8461 C 467.225972 494.3711 468.615775 494.2961 469.46487 494.9061 Z M 469.46487 494.9061 " transform="matrix(1.9,0,0,1.5625,222.571434,-304.58375)"/>
<path style="fill-rule:nonzero;fill:rgb(100%,100%,100%);fill-opacity:1;stroke-width:1.2;stroke-linecap:butt;stroke-linejoin:miter;stroke:rgb(0%,0%,0%);stroke-opacity:1;stroke-miterlimit:4;" d="M 466.208291 505.4861 C 471.189788 508.0336 476.121943 510.9786 477.369887 517.9561 L 466.208291 517.9561 Z M 466.208291 505.4861 " transform="matrix(1.9,0,0,1.5625,222.571434,-304.58375)"/>
<path style="fill-rule:nonzero;fill:rgb(100%,100%,100%);fill-opacity:1;stroke-width:1.2;stroke-linecap:butt;stroke-linejoin:miter;stroke:rgb(0%,0%,0%);stroke-opacity:1;stroke-miterlimit:4;" d="M 469.46487 494.9061 L 469.46487 517.9561 L 466.208291 517.9561 L 466.208291 494.8461 C 467.225972 494.3711 468.615775 494.2961 469.46487 494.9061 Z M 469.46487 494.9061 " transform="matrix(1.9,0,0,1.5625,222.571434,-304.58375)"/>
<path style="fill-rule:nonzero;fill:rgb(100%,100%,100%);fill-opacity:1;stroke-width:1.2;stroke-linecap:butt;stroke-linejoin:miter;stroke:rgb(0%,0%,0%);stroke-opacity:1;stroke-miterlimit:4;" d="M 466.208291 505.4861 C 471.189788 508.0336 476.121943 510.9786 477.369887 517.9561 L 466.208291 517.9561 Z M 466.208291 505.4861 " transform="matrix(1.9,0,0,1.5625,222.571434,-304.58375)"/>
<path style="fill-rule:nonzero;fill:rgb(100%,100%,100%);fill-opacity:1;stroke-width:1.2;stroke-linecap:butt;stroke-linejoin:miter;stroke:rgb(0%,0%,0%);stroke-opacity:1;stroke-miterlimit:4;" d="M 411.278193 473.9711 C 411.278193 464.9836 419.041351 463.9711 419.041351 463.9711 L 419.041351 471.9711 C 416.086992 471.8461 414.662239 474.4961 414.662239 478.4436 C 414.662239 482.3886 417.040939 482.4511 417.040939 482.4511 L 417.040939 505.1561 L 411.278193 505.1561 Z M 411.278193 473.9711 " transform="matrix(1.9,0,0,1.5625,222.571434,-304.58375)"/>
<path style="fill-rule:nonzero;fill:rgb(100%,100%,100%);fill-opacity:1;stroke-width:1.2;stroke-linecap:butt;stroke-linejoin:miter;stroke:rgb(0%,0%,0%);stroke-opacity:1;stroke-miterlimit:4;" d="M 353.934443 473.9711 C 353.934443 464.9836 346.171285 463.9711 346.171285 463.9711 L 346.171285 471.9711 C 349.125643 471.8461 350.550397 474.4961 350.550397 478.4436 C 350.550397 482.3886 348.171696 482.4511 348.171696 482.4511 L 348.171696 505.1561 L 353.934443 505.1561 Z M 353.934443 473.9711 " transform="matrix(1.9,0,0,1.5625,222.571434,-304.58375)"/>
<path style="fill-rule:nonzero;fill:rgb(100%,100%,100%);fill-opacity:1;stroke-width:1.2;stroke-linecap:butt;stroke-linejoin:miter;stroke:rgb(0%,0%,0%);stroke-opacity:1;stroke-miterlimit:4;" d="M 518.22515 521.5611 L 518.22515 510.7436 C 514.471038 512.2136 511.078768 514.3911 509.826712 516.8136 C 508.428686 510.8086 505.737485 508.1611 502.382222 504.5286 C 499.026959 508.1611 496.779837 510.8086 495.381811 516.8136 C 494.131811 514.3911 490.739541 512.2136 486.983374 510.7436 L 486.985429 521.5611 Z M 518.22515 521.5611 " transform="matrix(1.9,0,0,1.5625,222.571434,-304.58375)"/>
<path style="fill-rule:nonzero;fill:rgb(100%,100%,100%);fill-opacity:1;stroke-width:1.2;stroke-linecap:butt;stroke-linejoin:miter;stroke:rgb(0%,0%,0%);stroke-opacity:1;stroke-miterlimit:4;" d="M 186.594804 609.8461 L 579.119476 609.8461 L 579.119476 629.8961 L 186.594804 629.8961 Z M 186.594804 609.8461 " transform="matrix(1.9,0,0,1.5625,222.571434,-304.58375)"/>
<path style="fill-rule:nonzero;fill:rgb(100%,100%,100%);fill-opacity:1;stroke-width:1.2;stroke-linecap:butt;stroke-linejoin:miter;stroke:rgb(0%,0%,0%);stroke-opacity:1;stroke-miterlimit:4;" d="M 176.24941 629.8611 L 589.46487 629.8611 L 589.46487 649.8811 L 176.24941 649.8811 Z M 176.24941 629.8611 " transform="matrix(1.9,0,0,1.5625,222.571434,-304.58375)"/>
<path style="fill-rule:nonzero;fill:rgb(100%,100%,100%);fill-opacity:1;stroke-width:1.2;stroke-linecap:butt;stroke-linejoin:miter;stroke:rgb(0%,0%,0%);stroke-opacity:1;stroke-miterlimit:4;" d="M 207.207469 579.8561 L 558.506811 579.8561 L 558.506811 592.8286 L 207.207469 592.8286 Z M 207.207469 579.8561 " transform="matrix(1.9,0,0,1.5625,222.571434,-304.58375)"/>
<path style="fill-rule:nonzero;fill:rgb(100%,100%,100%);fill-opacity:1;stroke-width:1.2;stroke-linecap:butt;stroke-linejoin:miter;stroke:rgb(0%,0%,0%);stroke-opacity:1;stroke-miterlimit:4;" d="M 196.936087 592.7436 L 568.776137 592.7436 L 568.778193 609.7361 L 196.938143 609.7361 Z M 196.936087 592.7436 " transform="matrix(1.9,0,0,1.5625,222.571434,-304.58375)"/>
<path style="fill-rule:nonzero;fill:rgb(100%,100%,100%);fill-opacity:1;stroke-width:1.2;stroke-linecap:butt;stroke-linejoin:miter;stroke:rgb(0%,0%,0%);stroke-opacity:1;stroke-miterlimit:4;" d="M 213.344393 569.8811 L 552.367831 569.8811 L 552.369887 579.7586 L 213.346449 579.7586 Z M 213.344393 569.8811 " transform="matrix(1.9,0,0,1.5625,222.571434,-304.58375)"/>
<path style="fill-rule:nonzero;fill:rgb(100%,100%,100%);fill-opacity:1;stroke-width:1.305695;stroke-linecap:butt;stroke-linejoin:miter;stroke:rgb(0%,0%,0%);stroke-opacity:1;stroke-miterlimit:4;" d="M 250.141268 569.9336 L 275.751877 569.9336 L 275.751877 649.8286 L 250.141268 649.8286 Z M 250.141268 569.9336 " transform="matrix(1.9,0,0,1.5625,222.571434,-304.58375)"/>
<path style="fill-rule:nonzero;fill:rgb(100%,100%,100%);fill-opacity:1;stroke-width:1.303675;stroke-linecap:butt;stroke-linejoin:miter;stroke:rgb(0%,0%,0%);stroke-opacity:1;stroke-miterlimit:4;" d="M 255.813554 569.9311 L 270.079591 569.9311 L 270.079591 649.8286 L 255.813554 649.8286 Z M 255.813554 569.9311 " transform="matrix(1.9,0,0,1.5625,222.571434,-304.58375)"/>
<path style="fill:none;stroke-width:1.2;stroke-linecap:butt;stroke-linejoin:miter;stroke:rgb(0%,0%,0%);stroke-opacity:1;stroke-miterlimit:4;" d="M 255.552453 579.7911 L 270.340693 579.7911 " transform="matrix(1.9,0,0,1.5625,222.571434,-304.58375)"/>
<path style="fill:none;stroke-width:1.2;stroke-linecap:butt;stroke-linejoin:miter;stroke:rgb(0%,0%,0%);stroke-opacity:1;stroke-miterlimit:4;" d="M 255.552453 589.7911 L 270.340693 589.7911 " transform="matrix(1.9,0,0,1.5625,222.571434,-304.58375)"/>
<path style="fill:none;stroke-width:1.2;stroke-linecap:butt;stroke-linejoin:miter;stroke:rgb(0%,0%,0%);stroke-opacity:1;stroke-miterlimit:4;" d="M 255.552453 599.7911 L 270.340693 599.7911 " transform="matrix(1.9,0,0,1.5625,222.571434,-304.58375)"/>
<path style="fill:none;stroke-width:1.2;stroke-linecap:butt;stroke-linejoin:miter;stroke:rgb(0%,0%,0%);stroke-opacity:1;stroke-miterlimit:4;" d="M 255.552453 609.7911 L 270.340693 609.7911 " transform="matrix(1.9,0,0,1.5625,222.571434,-304.58375)"/>
<path style="fill:none;stroke-width:1.2;stroke-linecap:butt;stroke-linejoin:miter;stroke:rgb(0%,0%,0%);stroke-opacity:1;stroke-miterlimit:4;" d="M 255.552453 619.7911 L 270.340693 619.7911 " transform="matrix(1.9,0,0,1.5625,222.571434,-304.58375)"/>
<path style="fill:none;stroke-width:1.2;stroke-linecap:butt;stroke-linejoin:miter;stroke:rgb(0%,0%,0%);stroke-opacity:1;stroke-miterlimit:4;" d="M 255.552453 629.7911 L 270.340693 629.7911 " transform="matrix(1.9,0,0,1.5625,222.571434,-304.58375)"/>
<path style="fill:none;stroke-width:1.2;stroke-linecap:butt;stroke-linejoin:miter;stroke:rgb(0%,0%,0%);stroke-opacity:1;stroke-miterlimit:4;" d="M 255.552453 639.7911 L 270.340693 639.7911 " transform="matrix(1.9,0,0,1.5625,222.571434,-304.58375)"/>
<path style="fill-rule:nonzero;fill:rgb(100%,100%,100%);fill-opacity:1;stroke-width:1.305695;stroke-linecap:butt;stroke-linejoin:miter;stroke:rgb(0%,0%,0%);stroke-opacity:1;stroke-miterlimit:4;" d="M 369.606729 569.9336 L 395.215281 569.9336 L 395.215281 649.8286 L 369.606729 649.8286 Z M 369.606729 569.9336 " transform="matrix(1.9,0,0,1.5625,222.571434,-304.58375)"/>
<path style="fill-rule:nonzero;fill:rgb(100%,100%,100%);fill-opacity:1;stroke-width:1.303675;stroke-linecap:butt;stroke-linejoin:miter;stroke:rgb(0%,0%,0%);stroke-opacity:1;stroke-miterlimit:4;" d="M 375.455824 569.9311 L 389.723916 569.9311 L 389.723916 649.8286 L 375.455824 649.8286 Z M 375.455824 569.9311 " transform="matrix(1.9,0,0,1.5625,222.571434,-304.58375)"/>
<path style="fill:none;stroke-width:1.2;stroke-linecap:butt;stroke-linejoin:miter;stroke:rgb(0%,0%,0%);stroke-opacity:1;stroke-miterlimit:4;" d="M 375.525726 579.7736 L 389.296285 579.7736 " transform="matrix(1.9,0,0,1.5625,222.571434,-304.58375)"/>
<path style="fill:none;stroke-width:1.2;stroke-linecap:butt;stroke-linejoin:miter;stroke:rgb(0%,0%,0%);stroke-opacity:1;stroke-miterlimit:4;" d="M 375.525726 589.7786 L 389.296285 589.7786 " transform="matrix(1.9,0,0,1.5625,222.571434,-304.58375)"/>
<path style="fill:none;stroke-width:1.2;stroke-linecap:butt;stroke-linejoin:miter;stroke:rgb(0%,0%,0%);stroke-opacity:1;stroke-miterlimit:4;" d="M 375.525726 599.7836 L 389.296285 599.7836 " transform="matrix(1.9,0,0,1.5625,222.571434,-304.58375)"/>
<path style="fill:none;stroke-width:1.2;stroke-linecap:butt;stroke-linejoin:miter;stroke:rgb(0%,0%,0%);stroke-opacity:1;stroke-miterlimit:4;" d="M 375.525726 609.7911 L 389.296285 609.7911 " transform="matrix(1.9,0,0,1.5625,222.571434,-304.58375)"/>
<path style="fill:none;stroke-width:1.2;stroke-linecap:butt;stroke-linejoin:miter;stroke:rgb(0%,0%,0%);stroke-opacity:1;stroke-miterlimit:4;" d="M 375.525726 619.7961 L 389.296285 619.7961 " transform="matrix(1.9,0,0,1.5625,222.571434,-304.58375)"/>
<path style="fill:none;stroke-width:1.2;stroke-linecap:butt;stroke-linejoin:miter;stroke:rgb(0%,0%,0%);stroke-opacity:1;stroke-miterlimit:4;" d="M 375.525726 629.8011 L 389.296285 629.8011 " transform="matrix(1.9,0,0,1.5625,222.571434,-304.58375)"/>
<path style="fill:none;stroke-width:1.2;stroke-linecap:butt;stroke-linejoin:miter;stroke:rgb(0%,0%,0%);stroke-opacity:1;stroke-miterlimit:4;" d="M 375.525726 639.8061 L 389.296285 639.8061 " transform="matrix(1.9,0,0,1.5625,222.571434,-304.58375)"/>
<path style="fill-rule:nonzero;fill:rgb(100%,100%,100%);fill-opacity:1;stroke-width:1.305695;stroke-linecap:butt;stroke-linejoin:miter;stroke:rgb(0%,0%,0%);stroke-opacity:1;stroke-miterlimit:4;" d="M 250.141364 569.9336 L 275.749917 569.9336 L 275.749917 649.8286 L 250.141364 649.8286 Z M 250.141364 569.9336 " transform="matrix(1.9,0,0,1.5625,677.895471,-304.58375)"/>
<path style="fill-rule:nonzero;fill:rgb(100%,100%,100%);fill-opacity:1;stroke-width:1.303675;stroke-linecap:butt;stroke-linejoin:miter;stroke:rgb(0%,0%,0%);stroke-opacity:1;stroke-miterlimit:4;" d="M 255.81365 569.9311 L 270.079686 569.9311 L 270.079686 649.8286 L 255.81365 649.8286 Z M 255.81365 569.9311 " transform="matrix(1.9,0,0,1.5625,677.895471,-304.58375)"/>
<path style="fill:none;stroke-width:1.2;stroke-linecap:butt;stroke-linejoin:miter;stroke:rgb(0%,0%,0%);stroke-opacity:1;stroke-miterlimit:4;" d="M 255.550492 579.7911 L 270.340788 579.7911 " transform="matrix(1.9,0,0,1.5625,677.895471,-304.58375)"/>
<path style="fill:none;stroke-width:1.2;stroke-linecap:butt;stroke-linejoin:miter;stroke:rgb(0%,0%,0%);stroke-opacity:1;stroke-miterlimit:4;" d="M 255.550492 589.7911 L 270.340788 589.7911 " transform="matrix(1.9,0,0,1.5625,677.895471,-304.58375)"/>
<path style="fill:none;stroke-width:1.2;stroke-linecap:butt;stroke-linejoin:miter;stroke:rgb(0%,0%,0%);stroke-opacity:1;stroke-miterlimit:4;" d="M 255.550492 599.7911 L 270.340788 599.7911 " transform="matrix(1.9,0,0,1.5625,677.895471,-304.58375)"/>
<path style="fill:none;stroke-width:1.2;stroke-linecap:butt;stroke-linejoin:miter;stroke:rgb(0%,0%,0%);stroke-opacity:1;stroke-miterlimit:4;" d="M 255.550492 609.7911 L 270.340788 609.7911 " transform="matrix(1.9,0,0,1.5625,677.895471,-304.58375)"/>
<path style="fill:none;stroke-width:1.2;stroke-linecap:butt;stroke-linejoin:miter;stroke:rgb(0%,0%,0%);stroke-opacity:1;stroke-miterlimit:4;" d="M 255.550492 619.7911 L 270.340788 619.7911 " transform="matrix(1.9,0,0,1.5625,677.895471,-304.58375)"/>
<path style="fill:none;stroke-width:1.2;stroke-linecap:butt;stroke-linejoin:miter;stroke:rgb(0%,0%,0%);stroke-opacity:1;stroke-miterlimit:4;" d="M 255.550492 629.7911 L 270.340788 629.7911 " transform="matrix(1.9,0,0,1.5625,677.895471,-304.58375)"/>
<path style="fill:none;stroke-width:1.2;stroke-linecap:butt;stroke-linejoin:miter;stroke:rgb(0%,0%,0%);stroke-opacity:1;stroke-miterlimit:4;" d="M 255.550492 639.7911 L 270.340788 639.7911 " transform="matrix(1.9,0,0,1.5625,677.895471,-304.58375)"/>
<path style="fill-rule:nonzero;fill:rgb(100%,100%,100%);fill-opacity:1;stroke-width:1.2;stroke-linecap:square;stroke-linejoin:bevel;stroke:rgb(0%,0%,0%);stroke-opacity:1;stroke-miterlimit:4;" d="M 305.406482 535.2561 L 311.144558 535.2561 L 311.144558 561.6486 L 305.406482 561.6486 Z M 305.406482 535.2561 " transform="matrix(1.9,0,0,1.5625,222.571434,-304.58375)"/>
<path style="fill-rule:nonzero;fill:rgb(100%,100%,100%);fill-opacity:1;stroke-width:1.2;stroke-linecap:square;stroke-linejoin:bevel;stroke:rgb(0%,0%,0%);stroke-opacity:1;stroke-miterlimit:4;" d="M 317.406893 535.2561 L 323.144969 535.2561 L 323.144969 561.6486 L 317.406893 561.6486 Z M 317.406893 535.2561 " transform="matrix(1.9,0,0,1.5625,222.571434,-304.58375)"/>
<path style="fill-rule:nonzero;fill:rgb(100%,100%,100%);fill-opacity:1;stroke-width:1.2;stroke-linecap:square;stroke-linejoin:bevel;stroke:rgb(0%,0%,0%);stroke-opacity:1;stroke-miterlimit:4;" d="M 329.405249 535.2561 L 335.143324 535.2561 L 335.143324 561.6486 L 329.405249 561.6486 Z M 329.405249 535.2561 " transform="matrix(1.9,0,0,1.5625,222.571434,-304.58375)"/>
<path style="fill-rule:nonzero;fill:rgb(100%,100%,100%);fill-opacity:1;stroke-width:1.2;stroke-linecap:square;stroke-linejoin:bevel;stroke:rgb(0%,0%,0%);stroke-opacity:1;stroke-miterlimit:4;" d="M 429.911005 535.2561 L 435.649081 535.2561 L 435.649081 561.6486 L 429.911005 561.6486 Z M 429.911005 535.2561 " transform="matrix(1.9,0,0,1.5625,222.571434,-304.58375)"/>
<path style="fill-rule:nonzero;fill:rgb(100%,100%,100%);fill-opacity:1;stroke-width:1.2;stroke-linecap:square;stroke-linejoin:bevel;stroke:rgb(0%,0%,0%);stroke-opacity:1;stroke-miterlimit:4;" d="M 441.911416 535.2561 L 447.649492 535.2561 L 447.649492 561.6486 L 441.911416 561.6486 Z M 441.911416 535.2561 " transform="matrix(1.9,0,0,1.5625,222.571434,-304.58375)"/>
<path style="fill-rule:nonzero;fill:rgb(100%,100%,100%);fill-opacity:1;stroke-width:1.2;stroke-linecap:square;stroke-linejoin:bevel;stroke:rgb(0%,0%,0%);stroke-opacity:1;stroke-miterlimit:4;" d="M 453.911828 535.2561 L 459.649903 535.2561 L 459.649903 561.6486 L 453.911828 561.6486 Z M 453.911828 535.2561 " transform="matrix(1.9,0,0,1.5625,222.571434,-304.58375)"/>
<path style="fill-rule:nonzero;fill:rgb(100%,100%,100%);fill-opacity:1;stroke-width:1.2;stroke-linecap:butt;stroke-linejoin:miter;stroke:rgb(0%,0%,0%);stroke-opacity:1;stroke-miterlimit:4;" d="M 370.657304 403.5486 L 370.019969 398.5486 L 395.361252 398.5486 L 394.725972 403.5486 Z M 370.657304 403.5486 " transform="matrix(1.9,0,0,1.5625,222.571434,-304.58375)"/>
<path style="fill-rule:nonzero;fill:rgb(100%,100%,100%);fill-opacity:1;stroke-width:1.2;stroke-linecap:butt;stroke-linejoin:miter;stroke:rgb(0%,0%,0%);stroke-opacity:1;stroke-miterlimit:4;" d="M 372.353439 398.4486 L 371.80862 394.3386 L 393.574656 394.3386 L 393.027781 398.4486 Z M 372.353439 398.4486 " transform="matrix(1.9,0,0,1.5625,222.571434,-304.58375)"/>
<path style="fill-rule:nonzero;fill:rgb(100%,100%,100%);fill-opacity:1;stroke-width:1.2;stroke-linecap:butt;stroke-linejoin:miter;stroke:rgb(0%,0%,0%);stroke-opacity:1;stroke-miterlimit:4;" d="M 375.807387 394.1861 L 375.445545 390.0761 L 389.937732 390.0761 L 389.573834 394.1861 Z M 375.807387 394.1861 " transform="matrix(1.9,0,0,1.5625,222.571434,-304.58375)"/>
</g>
</svg>
