<?xml version="1.0" encoding="UTF-8"?>
<svg xmlns="http://www.w3.org/2000/svg" xmlns:xlink="http://www.w3.org/1999/xlink" width="380pt" height="200pt" viewBox="0 0 1900 1000" version="1.1">
<g id="surface1">
<rect x="0" y="0" width="1900" height="1000" style="fill:rgb(13.72549%,62.352941%,25.098039%);fill-opacity:1;stroke:none;"/>
<path style=" stroke:none;fill-rule:nonzero;fill:rgb(100%,100%,100%);fill-opacity:1;" d="M 0 333.332031 L 1900 333.332031 L 1900 666.667969 L 0 666.667969 Z M 0 333.332031 "/>
<path style=" stroke:none;fill-rule:nonzero;fill:rgb(85.490196%,0%,0%);fill-opacity:1;" d="M 0 666.667969 L 1900 666.667969 L 1900 1000 L 0 1000 Z M 0 666.667969 "/>
<path style="fill:none;stroke-width:1;stroke-linecap:square;stroke-linejoin:miter;stroke:rgb(100%,100%,100%);stroke-opacity:1;stroke-miterlimit:4;" d="M -9 -3.000056 L 2.999846 -3.000056 M -9 1.000223 L -9 -1.000167 L -5.000051 -1.000167 L -5.000051 1.000223 L -1.000103 1.000223 L -1.000103 -1.000167 L -2.999846 -1.000167 M 2.999846 1.000223 L 1.000103 1.000223 L 1.000103 -1.000167 L 5.000051 -1.000167 L 5.000051 -3.000056 M 5.000051 -1.000167 L 5.000051 1.000223 L 9 1.000223 L 9 -3.000056 M 6.999794 -3.000056 L 6.999794 1.000223 M -6.999794 1.000223 L -6.998869 1.000223 " transform="matrix(8.444444,0,0,7.777778,950,306.111111)"/>
<path style="fill:none;stroke-width:1;stroke-linecap:square;stroke-linejoin:miter;stroke:rgb(100%,100%,100%);stroke-opacity:1;stroke-miterlimit:4;" d="M -9 2.249844 L -1.000103 2.249844 M 1.000103 2.249844 L 9 2.249844 " transform="matrix(8.444444,0,0,11.111111,950,306.111111)"/>
<path style="fill:none;stroke-width:1;stroke-linecap:square;stroke-linejoin:miter;stroke:rgb(100%,100%,100%);stroke-opacity:1;stroke-miterlimit:4;" d="M -9 -3.000223 L 2.999846 -3.000223 M -9 1.000056 L -9 -0.999833 L -5.000051 -0.999833 L -5.000051 1.000056 L -1.000103 1.000056 L -1.000103 -0.999833 L -2.999846 -0.999833 M 2.999846 1.000056 L 1.000103 1.000056 L 1.000103 -0.999833 L 5.000051 -0.999833 L 5.000051 -3.000223 M 5.000051 -0.999833 L 5.000051 1.000056 L 9 1.000056 L 9 -3.000223 M 6.999794 -3.000223 L 6.999794 1.000056 M -6.999794 1.000056 L -6.998869 1.000056 " transform="matrix(8.444444,0,0,7.777778,950,709.444444)"/>
<path style="fill:none;stroke-width:1;stroke-linecap:square;stroke-linejoin:miter;stroke:rgb(100%,100%,100%);stroke-opacity:1;stroke-miterlimit:4;" d="M -9 2.250156 L -1.000103 2.250156 M 1.000103 2.250156 L 9 2.250156 " transform="matrix(8.444444,0,0,11.111111,950,643.888889)"/>
<path style="fill:none;stroke-width:1;stroke-linecap:square;stroke-linejoin:miter;stroke:rgb(100%,100%,100%);stroke-opacity:1;stroke-miterlimit:4;" d="M -8.999794 -3.000056 L 3.000051 -3.000056 M -8.999794 1.000223 L -8.999794 -1.000167 L -4.999846 -1.000167 L -4.999846 1.000223 L -0.999897 1.000223 L -0.999897 -1.000167 L -3.000103 -1.000167 M 3.000051 1.000223 L 0.999846 1.000223 L 0.999846 -1.000167 L 4.999794 -1.000167 L 4.999794 -3.000056 M 4.999794 -1.000167 L 4.999794 1.000223 L 9.000206 1.000223 L 9.000206 -3.000056 M 7 -3.000056 L 7 1.000223 M -7.000051 1.000223 L -6.999126 1.000223 " transform="matrix(8.444444,0,0,7.777778,1118.888889,306.111111)"/>
<path style="fill:none;stroke-width:1;stroke-linecap:square;stroke-linejoin:miter;stroke:rgb(100%,100%,100%);stroke-opacity:1;stroke-miterlimit:4;" d="M -8.999794 2.249844 L -0.999897 2.249844 M 0.999846 2.249844 L 9.000206 2.249844 " transform="matrix(8.444444,0,0,11.111111,1118.888889,306.111111)"/>
<path style="fill:none;stroke-width:1;stroke-linecap:square;stroke-linejoin:miter;stroke:rgb(100%,100%,100%);stroke-opacity:1;stroke-miterlimit:4;" d="M -8.999794 -3.000223 L 3.000051 -3.000223 M -8.999794 1.000056 L -8.999794 -0.999833 L -4.999846 -0.999833 L -4.999846 1.000056 L -0.999897 1.000056 L -0.999897 -0.999833 L -3.000103 -0.999833 M 3.000051 1.000056 L 0.999846 1.000056 L 0.999846 -0.999833 L 4.999794 -0.999833 L 4.999794 -3.000223 M 4.999794 -0.999833 L 4.999794 1.000056 L 9.000206 1.000056 L 9.000206 -3.000223 M 7 -3.000223 L 7 1.000056 M -7.000051 1.000056 L -6.999126 1.000056 " transform="matrix(8.444444,0,0,7.777778,1118.888889,709.444444)"/>
<path style="fill:none;stroke-width:1;stroke-linecap:square;stroke-linejoin:miter;stroke:rgb(100%,100%,100%);stroke-opacity:1;stroke-miterlimit:4;" d="M -8.999794 2.250156 L -0.999897 2.250156 M 0.999846 2.250156 L 9.000206 2.250156 " transform="matrix(8.444444,0,0,11.111111,1118.888889,643.888889)"/>
<path style="fill:none;stroke-width:1;stroke-linecap:square;stroke-linejoin:miter;stroke:rgb(100%,100%,100%);stroke-opacity:1;stroke-miterlimit:4;" d="M -8.999949 -3.000056 L 2.999897 -3.000056 M -8.999949 1.000223 L -8.999949 -1.000167 L -5 -1.000167 L -5 1.000223 L -1.000051 1.000223 L -1.000051 -1.000167 L -2.999794 -1.000167 M 2.999897 1.000223 L 1.000154 1.000223 L 1.000154 -1.000167 L 5.000103 -1.000167 L 5.000103 -3.000056 M 5.000103 -1.000167 L 5.000103 1.000223 L 9.000051 1.000223 L 9.000051 -3.000056 M 6.999846 -3.000056 L 6.999846 1.000223 M -7.000206 1.000223 L -6.998818 1.000223 " transform="matrix(8.444444,0,0,7.777778,612.222222,306.111111)"/>
<path style="fill:none;stroke-width:1;stroke-linecap:square;stroke-linejoin:miter;stroke:rgb(100%,100%,100%);stroke-opacity:1;stroke-miterlimit:4;" d="M -8.999949 2.249844 L -1.000051 2.249844 M 1.000154 2.249844 L 9.000051 2.249844 " transform="matrix(8.444444,0,0,11.111111,612.222222,306.111111)"/>
<path style="fill:none;stroke-width:1;stroke-linecap:square;stroke-linejoin:miter;stroke:rgb(100%,100%,100%);stroke-opacity:1;stroke-miterlimit:4;" d="M -8.999949 -3.000223 L 2.999897 -3.000223 M -8.999949 1.000056 L -8.999949 -0.999833 L -5 -0.999833 L -5 1.000056 L -1.000051 1.000056 L -1.000051 -0.999833 L -2.999794 -0.999833 M 2.999897 1.000056 L 1.000154 1.000056 L 1.000154 -0.999833 L 5.000103 -0.999833 L 5.000103 -3.000223 M 5.000103 -0.999833 L 5.000103 1.000056 L 9.000051 1.000056 L 9.000051 -3.000223 M 6.999846 -3.000223 L 6.999846 1.000056 M -7.000206 1.000056 L -6.998818 1.000056 " transform="matrix(8.444444,0,0,7.777778,612.222222,709.444444)"/>
<path style="fill:none;stroke-width:1;stroke-linecap:square;stroke-linejoin:miter;stroke:rgb(100%,100%,100%);stroke-opacity:1;stroke-miterlimit:4;" d="M -8.999949 2.250156 L -1.000051 2.250156 M 1.000154 2.250156 L 9.000051 2.250156 " transform="matrix(8.444444,0,0,11.111111,612.222222,643.888889)"/>
<path style="fill:none;stroke-width:1;stroke-linecap:square;stroke-linejoin:miter;stroke:rgb(100%,100%,100%);stroke-opacity:1;stroke-miterlimit:4;" d="M -9.000206 -3.000056 L 3.000103 -3.000056 M -9.000206 1.000223 L -9.000206 -1.000167 L -4.999794 -1.000167 L -4.999794 1.000223 L -0.999846 1.000223 L -0.999846 -1.000167 L -3.000051 -1.000167 M 3.000103 1.000223 L 0.999897 1.000223 L 0.999897 -1.000167 L 4.999846 -1.000167 L 4.999846 -3.000056 M 4.999846 -1.000167 L 4.999846 1.000223 L 8.999794 1.000223 L 8.999794 -3.000056 M 7.000051 -3.000056 L 7.000051 1.000223 M -7 1.000223 L -6.999075 1.000223 " transform="matrix(8.444444,0,0,7.777778,781.111111,306.111111)"/>
<path style="fill:none;stroke-width:1;stroke-linecap:square;stroke-linejoin:miter;stroke:rgb(100%,100%,100%);stroke-opacity:1;stroke-miterlimit:4;" d="M -9.000206 2.249844 L -0.999846 2.249844 M 0.999897 2.249844 L 8.999794 2.249844 " transform="matrix(8.444444,0,0,11.111111,781.111111,306.111111)"/>
<path style="fill:none;stroke-width:1;stroke-linecap:square;stroke-linejoin:miter;stroke:rgb(100%,100%,100%);stroke-opacity:1;stroke-miterlimit:4;" d="M -9.000206 -3.000223 L 3.000103 -3.000223 M -9.000206 1.000056 L -9.000206 -0.999833 L -4.999794 -0.999833 L -4.999794 1.000056 L -0.999846 1.000056 L -0.999846 -0.999833 L -3.000051 -0.999833 M 3.000103 1.000056 L 0.999897 1.000056 L 0.999897 -0.999833 L 4.999846 -0.999833 L 4.999846 -3.000223 M 4.999846 -0.999833 L 4.999846 1.000056 L 8.999794 1.000056 L 8.999794 -3.000223 M 7.000051 -3.000223 L 7.000051 1.000056 M -7 1.000056 L -6.999075 1.000056 " transform="matrix(8.444444,0,0,7.777778,781.111111,709.444444)"/>
<path style="fill:none;stroke-width:1;stroke-linecap:square;stroke-linejoin:miter;stroke:rgb(100%,100%,100%);stroke-opacity:1;stroke-miterlimit:4;" d="M -9.000206 2.250156 L -0.999846 2.250156 M 0.999897 2.250156 L 8.999794 2.250156 " transform="matrix(8.444444,0,0,11.111111,781.111111,643.888889)"/>
<path style="fill:none;stroke-width:1;stroke-linecap:square;stroke-linejoin:miter;stroke:rgb(100%,100%,100%);stroke-opacity:1;stroke-miterlimit:4;" d="M -9.000103 -3.000056 L 3.000206 -3.000056 M -9.000103 1.000223 L -9.000103 -1.000167 L -5.000154 -1.000167 L -5.000154 1.000223 L -1.000206 1.000223 L -1.000206 -1.000167 L -2.999949 -1.000167 M 3.000206 1.000223 L 1 1.000223 L 1 -1.000167 L 4.999949 -1.000167 L 4.999949 -3.000056 M 4.999949 -1.000167 L 4.999949 1.000223 L 8.999897 1.000223 L 8.999897 -3.000056 M 7.000154 -3.000056 L 7.000154 1.000223 M -6.999897 1.000223 L -6.998972 1.000223 " transform="matrix(8.444444,0,0,7.777778,1625.555556,306.111111)"/>
<path style="fill:none;stroke-width:1;stroke-linecap:square;stroke-linejoin:miter;stroke:rgb(100%,100%,100%);stroke-opacity:1;stroke-miterlimit:4;" d="M -9.000103 2.249844 L -1.000206 2.249844 M 1 2.249844 L 8.999897 2.249844 " transform="matrix(8.444444,0,0,11.111111,1625.555556,306.111111)"/>
<path style="fill:none;stroke-width:1;stroke-linecap:square;stroke-linejoin:miter;stroke:rgb(100%,100%,100%);stroke-opacity:1;stroke-miterlimit:4;" d="M -9.000103 -3.000223 L 3.000206 -3.000223 M -9.000103 1.000056 L -9.000103 -0.999833 L -5.000154 -0.999833 L -5.000154 1.000056 L -1.000206 1.000056 L -1.000206 -0.999833 L -2.999949 -0.999833 M 3.000206 1.000056 L 1 1.000056 L 1 -0.999833 L 4.999949 -0.999833 L 4.999949 -3.000223 M 4.999949 -0.999833 L 4.999949 1.000056 L 8.999897 1.000056 L 8.999897 -3.000223 M 7.000154 -3.000223 L 7.000154 1.000056 M -6.999897 1.000056 L -6.998972 1.000056 " transform="matrix(8.444444,0,0,7.777778,1625.555556,709.444444)"/>
<path style="fill:none;stroke-width:1;stroke-linecap:square;stroke-linejoin:miter;stroke:rgb(100%,100%,100%);stroke-opacity:1;stroke-miterlimit:4;" d="M -9.000103 2.250156 L -1.000206 2.250156 M 1 2.250156 L 8.999897 2.250156 " transform="matrix(8.444444,0,0,11.111111,1625.555556,643.888889)"/>
<path style="fill:none;stroke-width:1;stroke-linecap:square;stroke-linejoin:miter;stroke:rgb(100%,100%,100%);stroke-opacity:1;stroke-miterlimit:4;" d="M -8.999897 -3.000056 L 2.999949 -3.000056 M -8.999897 1.000223 L -8.999897 -1.000167 L -4.999949 -1.000167 L -4.999949 1.000223 L -1 1.000223 L -1 -1.000167 L -3.000206 -1.000167 M 2.999949 1.000223 L 1.000206 1.000223 L 1.000206 -1.000167 L 5.000154 -1.000167 L 5.000154 -3.000056 M 5.000154 -1.000167 L 5.000154 1.000223 L 9.000103 1.000223 L 9.000103 -3.000056 M 6.999897 -3.000056 L 6.999897 1.000223 M -7.000154 1.000223 L -6.999229 1.000223 " transform="matrix(8.444444,0,0,7.777778,1794.444444,306.111111)"/>
<path style="fill:none;stroke-width:1;stroke-linecap:square;stroke-linejoin:miter;stroke:rgb(100%,100%,100%);stroke-opacity:1;stroke-miterlimit:4;" d="M -8.999897 2.249844 L -1 2.249844 M 1.000206 2.249844 L 9.000103 2.249844 " transform="matrix(8.444444,0,0,11.111111,1794.444444,306.111111)"/>
<path style="fill:none;stroke-width:1;stroke-linecap:square;stroke-linejoin:miter;stroke:rgb(100%,100%,100%);stroke-opacity:1;stroke-miterlimit:4;" d="M -8.999897 -3.000223 L 2.999949 -3.000223 M -8.999897 1.000056 L -8.999897 -0.999833 L -4.999949 -0.999833 L -4.999949 1.000056 L -1 1.000056 L -1 -0.999833 L -3.000206 -0.999833 M 2.999949 1.000056 L 1.000206 1.000056 L 1.000206 -0.999833 L 5.000154 -0.999833 L 5.000154 -3.000223 M 5.000154 -0.999833 L 5.000154 1.000056 L 9.000103 1.000056 L 9.000103 -3.000223 M 6.999897 -3.000223 L 6.999897 1.000056 M -7.000154 1.000056 L -6.999229 1.000056 " transform="matrix(8.444444,0,0,7.777778,1794.444444,709.444444)"/>
<path style="fill:none;stroke-width:1;stroke-linecap:square;stroke-linejoin:miter;stroke:rgb(100%,100%,100%);stroke-opacity:1;stroke-miterlimit:4;" d="M -8.999897 2.250156 L -1 2.250156 M 1.000206 2.250156 L 9.000103 2.250156 " transform="matrix(8.444444,0,0,11.111111,1794.444444,643.888889)"/>
<path style="fill:none;stroke-width:1;stroke-linecap:square;stroke-linejoin:miter;stroke:rgb(100%,100%,100%);stroke-opacity:1;stroke-miterlimit:4;" d="M -9.000051 -3.000056 L 2.999794 -3.000056 M -9.000051 1.000223 L -9.000051 -1.000167 L -5.000103 -1.000167 L -5.000103 1.000223 L -1.000154 1.000223 L -1.000154 -1.000167 L -2.999897 -1.000167 M 2.999794 1.000223 L 1.000051 1.000223 L 1.000051 -1.000167 L 5 -1.000167 L 5 -3.000056 M 5 -1.000167 L 5 1.000223 L 8.999949 1.000223 L 8.999949 -3.000056 M 7.000206 -3.000056 L 7.000206 1.000223 M -6.999846 1.000223 L -6.998921 1.000223 " transform="matrix(8.444444,0,0,7.777778,1287.777778,306.111111)"/>
<path style="fill:none;stroke-width:1;stroke-linecap:square;stroke-linejoin:miter;stroke:rgb(100%,100%,100%);stroke-opacity:1;stroke-miterlimit:4;" d="M -9.000051 2.249844 L -1.000154 2.249844 M 1.000051 2.249844 L 8.999949 2.249844 " transform="matrix(8.444444,0,0,11.111111,1287.777778,306.111111)"/>
<path style="fill:none;stroke-width:1;stroke-linecap:square;stroke-linejoin:miter;stroke:rgb(100%,100%,100%);stroke-opacity:1;stroke-miterlimit:4;" d="M -9.000051 -3.000223 L 2.999794 -3.000223 M -9.000051 1.000056 L -9.000051 -0.999833 L -5.000103 -0.999833 L -5.000103 1.000056 L -1.000154 1.000056 L -1.000154 -0.999833 L -2.999897 -0.999833 M 2.999794 1.000056 L 1.000051 1.000056 L 1.000051 -0.999833 L 5 -0.999833 L 5 -3.000223 M 5 -0.999833 L 5 1.000056 L 8.999949 1.000056 L 8.999949 -3.000223 M 7.000206 -3.000223 L 7.000206 1.000056 M -6.999846 1.000056 L -6.998921 1.000056 " transform="matrix(8.444444,0,0,7.777778,1287.777778,709.444444)"/>
<path style="fill:none;stroke-width:1;stroke-linecap:square;stroke-linejoin:miter;stroke:rgb(100%,100%,100%);stroke-opacity:1;stroke-miterlimit:4;" d="M -9.000051 2.250156 L -1.000154 2.250156 M 1.000051 2.250156 L 8.999949 2.250156 " transform="matrix(8.444444,0,0,11.111111,1287.777778,643.888889)"/>
<path style="fill:none;stroke-width:1;stroke-linecap:square;stroke-linejoin:miter;stroke:rgb(100%,100%,100%);stroke-opacity:1;stroke-miterlimit:4;" d="M -8.999846 -3.000056 L 3 -3.000056 M -8.999846 1.000223 L -8.999846 -1.000167 L -4.999897 -1.000167 L -4.999897 1.000223 L -0.999949 1.000223 L -0.999949 -1.000167 L -3.000154 -1.000167 M 3 1.000223 L 0.999794 1.000223 L 0.999794 -1.000167 L 5.000206 -1.000167 L 5.000206 -3.000056 M 5.000206 -1.000167 L 5.000206 1.000223 L 9.000154 1.000223 L 9.000154 -3.000056 M 6.999949 -3.000056 L 6.999949 1.000223 M -7.000103 1.000223 L -6.999178 1.000223 " transform="matrix(8.444444,0,0,7.777778,1456.666667,306.111111)"/>
<path style="fill:none;stroke-width:1;stroke-linecap:square;stroke-linejoin:miter;stroke:rgb(100%,100%,100%);stroke-opacity:1;stroke-miterlimit:4;" d="M -8.999846 2.249844 L -0.999949 2.249844 M 0.999794 2.249844 L 9.000154 2.249844 " transform="matrix(8.444444,0,0,11.111111,1456.666667,306.111111)"/>
<path style="fill:none;stroke-width:1;stroke-linecap:square;stroke-linejoin:miter;stroke:rgb(100%,100%,100%);stroke-opacity:1;stroke-miterlimit:4;" d="M -8.999846 -3.000223 L 3 -3.000223 M -8.999846 1.000056 L -8.999846 -0.999833 L -4.999897 -0.999833 L -4.999897 1.000056 L -0.999949 1.000056 L -0.999949 -0.999833 L -3.000154 -0.999833 M 3 1.000056 L 0.999794 1.000056 L 0.999794 -0.999833 L 5.000206 -0.999833 L 5.000206 -3.000223 M 5.000206 -0.999833 L 5.000206 1.000056 L 9.000154 1.000056 L 9.000154 -3.000223 M 6.999949 -3.000223 L 6.999949 1.000056 M -7.000103 1.000056 L -6.999178 1.000056 " transform="matrix(8.444444,0,0,7.777778,1456.666667,709.444444)"/>
<path style="fill:none;stroke-width:1;stroke-linecap:square;stroke-linejoin:miter;stroke:rgb(100%,100%,100%);stroke-opacity:1;stroke-miterlimit:4;" d="M -8.999846 2.250156 L -0.999949 2.250156 M 0.999794 2.250156 L 9.000154 2.250156 " transform="matrix(8.444444,0,0,11.111111,1456.666667,643.888889)"/>
<path style="fill:none;stroke-width:1;stroke-linecap:square;stroke-linejoin:miter;stroke:rgb(100%,100%,100%);stroke-opacity:1;stroke-miterlimit:4;" d="M -9.000154 -3.000056 L 3.000154 -3.000056 M -9.000154 1.000223 L -9.000154 -1.000167 L -5.000206 -1.000167 L -5.000206 1.000223 L -0.999794 1.000223 L -0.999794 -1.000167 L -3 -1.000167 M 3.000154 1.000223 L 0.999949 1.000223 L 0.999949 -1.000167 L 4.999897 -1.000167 L 4.999897 -3.000056 M 4.999897 -1.000167 L 4.999897 1.000223 L 8.999846 1.000223 L 8.999846 -3.000056 M 7.000103 -3.000056 L 7.000103 1.000223 M -6.999949 1.000223 L -6.999023 1.000223 " transform="matrix(8.444444,0,0,7.777778,443.333333,306.111111)"/>
<path style="fill:none;stroke-width:1;stroke-linecap:square;stroke-linejoin:miter;stroke:rgb(100%,100%,100%);stroke-opacity:1;stroke-miterlimit:4;" d="M -9.000154 2.249844 L -0.999794 2.249844 M 0.999949 2.249844 L 8.999846 2.249844 " transform="matrix(8.444444,0,0,11.111111,443.333333,306.111111)"/>
<path style="fill:none;stroke-width:1;stroke-linecap:square;stroke-linejoin:miter;stroke:rgb(100%,100%,100%);stroke-opacity:1;stroke-miterlimit:4;" d="M -9.000154 -3.000223 L 3.000154 -3.000223 M -9.000154 1.000056 L -9.000154 -0.999833 L -5.000206 -0.999833 L -5.000206 1.000056 L -0.999794 1.000056 L -0.999794 -0.999833 L -3 -0.999833 M 3.000154 1.000056 L 0.999949 1.000056 L 0.999949 -0.999833 L 4.999897 -0.999833 L 4.999897 -3.000223 M 4.999897 -0.999833 L 4.999897 1.000056 L 8.999846 1.000056 L 8.999846 -3.000223 M 7.000103 -3.000223 L 7.000103 1.000056 M -6.999949 1.000056 L -6.999023 1.000056 " transform="matrix(8.444444,0,0,7.777778,443.333333,709.444444)"/>
<path style="fill:none;stroke-width:1;stroke-linecap:square;stroke-linejoin:miter;stroke:rgb(100%,100%,100%);stroke-opacity:1;stroke-miterlimit:4;" d="M -9.000154 2.250156 L -0.999794 2.250156 M 0.999949 2.250156 L 8.999846 2.250156 " transform="matrix(8.444444,0,0,11.111111,443.333333,643.888889)"/>
<path style="fill:none;stroke-width:1;stroke-linecap:square;stroke-linejoin:miter;stroke:rgb(100%,100%,100%);stroke-opacity:1;stroke-miterlimit:4;" d="M -9.000103 -3.000056 L 3.000206 -3.000056 M -9.000103 1.000223 L -9.000103 -1.000167 L -5.000154 -1.000167 L -5.000154 1.000223 L -1.000206 1.000223 L -1.000206 -1.000167 L -2.999949 -1.000167 M 3.000206 1.000223 L 1 1.000223 L 1 -1.000167 L 4.999949 -1.000167 L 4.999949 -3.000056 M 4.999949 -1.000167 L 4.999949 1.000223 L 8.999897 1.000223 L 8.999897 -3.000056 M 7.000154 -3.000056 L 7.000154 1.000223 M -6.999897 1.000223 L -6.998972 1.000223 " transform="matrix(8.444444,0,0,7.777778,105.555556,306.111111)"/>
<path style="fill:none;stroke-width:1;stroke-linecap:square;stroke-linejoin:miter;stroke:rgb(100%,100%,100%);stroke-opacity:1;stroke-miterlimit:4;" d="M -9.000103 2.249844 L -1.000206 2.249844 M 1 2.249844 L 8.999897 2.249844 " transform="matrix(8.444444,0,0,11.111111,105.555556,306.111111)"/>
<path style="fill:none;stroke-width:1;stroke-linecap:square;stroke-linejoin:miter;stroke:rgb(100%,100%,100%);stroke-opacity:1;stroke-miterlimit:4;" d="M -9.000103 -3.000223 L 3.000206 -3.000223 M -9.000103 1.000056 L -9.000103 -0.999833 L -5.000154 -0.999833 L -5.000154 1.000056 L -1.000206 1.000056 L -1.000206 -0.999833 L -2.999949 -0.999833 M 3.000206 1.000056 L 1 1.000056 L 1 -0.999833 L 4.999949 -0.999833 L 4.999949 -3.000223 M 4.999949 -0.999833 L 4.999949 1.000056 L 8.999897 1.000056 L 8.999897 -3.000223 M 7.000154 -3.000223 L 7.000154 1.000056 M -6.999897 1.000056 L -6.998972 1.000056 " transform="matrix(8.444444,0,0,7.777778,105.555556,709.444444)"/>
<path style="fill:none;stroke-width:1;stroke-linecap:square;stroke-linejoin:miter;stroke:rgb(100%,100%,100%);stroke-opacity:1;stroke-miterlimit:4;" d="M -9.000103 2.250156 L -1.000206 2.250156 M 1 2.250156 L 8.999897 2.250156 " transform="matrix(8.444444,0,0,11.111111,105.555556,643.888889)"/>
<path style="fill:none;stroke-width:1;stroke-linecap:square;stroke-linejoin:miter;stroke:rgb(100%,100%,100%);stroke-opacity:1;stroke-miterlimit:4;" d="M -8.999897 -3.000056 L 2.999949 -3.000056 M -8.999897 1.000223 L -8.999897 -1.000167 L -4.999949 -1.000167 L -4.999949 1.000223 L -1 1.000223 L -1 -1.000167 L -3.000206 -1.000167 M 2.999949 1.000223 L 1.000206 1.000223 L 1.000206 -1.000167 L 5.000154 -1.000167 L 5.000154 -3.000056 M 5.000154 -1.000167 L 5.000154 1.000223 L 9.000103 1.000223 L 9.000103 -3.000056 M 6.999897 -3.000056 L 6.999897 1.000223 M -7.000154 1.000223 L -6.999229 1.000223 " transform="matrix(8.444444,0,0,7.777778,274.444444,306.111111)"/>
<path style="fill:none;stroke-width:1;stroke-linecap:square;stroke-linejoin:miter;stroke:rgb(100%,100%,100%);stroke-opacity:1;stroke-miterlimit:4;" d="M -8.999897 2.249844 L -1 2.249844 M 1.000206 2.249844 L 9.000103 2.249844 " transform="matrix(8.444444,0,0,11.111111,274.444444,306.111111)"/>
<path style="fill:none;stroke-width:1;stroke-linecap:square;stroke-linejoin:miter;stroke:rgb(100%,100%,100%);stroke-opacity:1;stroke-miterlimit:4;" d="M -8.999897 -3.000223 L 2.999949 -3.000223 M -8.999897 1.000056 L -8.999897 -0.999833 L -4.999949 -0.999833 L -4.999949 1.000056 L -1 1.000056 L -1 -0.999833 L -3.000206 -0.999833 M 2.999949 1.000056 L 1.000206 1.000056 L 1.000206 -0.999833 L 5.000154 -0.999833 L 5.000154 -3.000223 M 5.000154 -0.999833 L 5.000154 1.000056 L 9.000103 1.000056 L 9.000103 -3.000223 M 6.999897 -3.000223 L 6.999897 1.000056 M -7.000154 1.000056 L -6.999229 1.000056 " transform="matrix(8.444444,0,0,7.777778,274.444444,709.444444)"/>
<path style="fill:none;stroke-width:1;stroke-linecap:square;stroke-linejoin:miter;stroke:rgb(100%,100%,100%);stroke-opacity:1;stroke-miterlimit:4;" d="M -8.999897 2.250156 L -1 2.250156 M 1.000206 2.250156 L 9.000103 2.250156 " transform="matrix(8.444444,0,0,11.111111,274.444444,643.888889)"/>
<path style=" stroke:none;fill-rule:nonzero;fill:rgb(85.490196%,0%,0%);fill-opacity:1;" d="M 1005.289062 410.644531 C 1005.289062 410.644531 1103.488281 481.375 1031.308594 583.03125 C 1099.289062 544.765625 1105.167969 439.535156 1005.289062 410.644531 Z M 1005.289062 410.644531 "/>
<path style=" stroke:none;fill-rule:nonzero;fill:rgb(85.490196%,0%,0%);fill-opacity:1;" d="M 950.003906 400.59375 C 934.371094 416.828125 907.515625 400.691406 916.746094 383.007812 C 932.902344 409.675781 950.003906 388.128906 950.003906 388.128906 C 950.003906 388.128906 967.101562 409.675781 983.257812 383.007812 C 992.492188 400.691406 965.636719 416.828125 950.003906 400.59375 Z M 950.003906 400.59375 "/>
<path style=" stroke:none;fill-rule:nonzero;fill:rgb(85.490196%,0%,0%);fill-opacity:1;" d="M 950.003906 620.910156 L 938.777344 607.378906 C 938.777344 607.378906 912.339844 615.496094 877.511719 604.289062 C 906.046875 604.289062 921.992188 599.648438 927.867188 596.945312 C 927.867188 596.945312 863.242188 564.863281 864.5 499.542969 C 868.277344 433.449219 906.464844 413.351562 906.464844 413.351562 C 906.464844 413.351562 838.484375 504.566406 938.359375 580.804688 L 933.953125 486.496094 C 933.953125 486.496094 933.953125 424.363281 933.953125 417.214844 C 939.617188 415.957031 950.003906 404.941406 950.003906 404.941406 C 950.003906 404.941406 960.390625 415.957031 966.054688 417.214844 C 966.054688 424.363281 966.054688 486.496094 966.054688 486.496094 L 961.648438 580.804688 C 1061.523438 504.566406 993.539062 413.351562 993.539062 413.351562 C 993.539062 413.351562 1031.726562 433.449219 1035.503906 499.542969 C 1036.765625 564.863281 972.140625 596.945312 972.140625 596.945312 C 978.011719 599.648438 993.960938 604.289062 1022.496094 604.289062 C 987.664062 615.496094 961.226562 607.378906 961.226562 607.378906 Z M 950.003906 620.910156 "/>
<path style=" stroke:none;fill-rule:nonzero;fill:rgb(85.490196%,0%,0%);fill-opacity:1;" d="M 894.714844 410.644531 C 894.714844 410.644531 796.519531 481.375 868.699219 583.03125 C 800.714844 544.765625 794.839844 439.535156 894.714844 410.644531 Z M 894.714844 410.644531 "/>
</g>
</svg>
