<?xml version="1.0" encoding="UTF-8"?>
<svg xmlns="http://www.w3.org/2000/svg" xmlns:xlink="http://www.w3.org/1999/xlink" width="1900pt" height="1000pt" viewBox="0 0 1900 1000" version="1.1">
<g id="surface1">
<rect x="0" y="0" width="1900" height="1000" style="fill:rgb(89.019608%,3.921569%,9.019608%);fill-opacity:1;stroke:none;"/>
<path style=" stroke:none;fill-rule:nonzero;fill:rgb(100%,100%,100%);fill-opacity:1;" d="M 989.582031 500 C 989.582031 638.070312 847.808594 750 672.917969 750 C 498.027344 750 356.25 638.070312 356.25 500 C 356.25 361.929688 498.027344 250 672.917969 250 C 847.808594 250 989.582031 361.929688 989.582031 500 Z M 989.582031 500 "/>
<path style=" stroke:none;fill-rule:nonzero;fill:rgb(89.019608%,3.921569%,9.019608%);fill-opacity:1;" d="M 1005.417969 500 C 1005.417969 610.457031 891.996094 700 752.082031 700 C 612.171875 700 498.75 610.457031 498.75 500 C 498.75 389.542969 612.171875 300 752.082031 300 C 891.996094 300 1005.417969 389.542969 1005.417969 500 Z M 1005.417969 500 "/>
<path style=" stroke:none;fill-rule:nonzero;fill:rgb(100%,100%,100%);fill-opacity:1;" d="M 923.613281 500 L 1210.039062 573.472656 L 1033.015625 381.117188 L 1033.015625 618.882812 L 1210.039062 426.527344 Z M 923.613281 500 "/>
</g>
</svg>
