<?xml version="1.0" encoding="UTF-8"?>
<svg xmlns="http://www.w3.org/2000/svg" xmlns:xlink="http://www.w3.org/1999/xlink" width="380pt" height="200pt" viewBox="0 0 1900 1000" version="1.1">
<g id="surface1">
<rect x="0" y="0" width="1900" height="1000" style="fill:rgb(0%,40%,0%);fill-opacity:1;stroke:none;"/>
<path style=" stroke:none;fill-rule:nonzero;fill:rgb(100%,100%,100%);fill-opacity:1;" d="M 0 0 L 1900 0 L 1900 714.285156 L 0 714.285156 Z M 0 0 "/>
<path style=" stroke:none;fill-rule:nonzero;fill:rgb(80%,0%,0%);fill-opacity:1;" d="M 0 0 L 1900 0 L 1900 285.714844 L 0 285.714844 Z M 0 0 "/>
<path style=" stroke:none;fill-rule:nonzero;fill:rgb(97.254902%,76.470588%,0%);fill-opacity:1;" d="M 912 486.714844 C 915.804688 479.824219 923.488281 476.421875 930.828125 478.378906 C 938.167969 480.335938 943.390625 487.175781 943.621094 495.144531 L 943.621094 566.570312 L 956.378906 566.570312 L 956.378906 495.144531 C 956.609375 487.175781 961.832031 480.335938 969.171875 478.378906 C 976.511719 476.421875 984.195312 479.824219 988 486.714844 C 993.480469 469.324219 987.65625 450.203125 973.597656 439.402344 C 959.539062 428.605469 940.460938 428.605469 926.402344 439.402344 C 912.34375 450.203125 906.519531 469.324219 912 486.714844 "/>
<path style=" stroke:none;fill-rule:nonzero;fill:rgb(100%,100%,100%);fill-opacity:1;" d="M 921.09375 468.070312 C 932.511719 465.613281 944.144531 471.105469 950 481.714844 C 955.855469 471.105469 967.488281 465.613281 978.90625 468.070312 C 976.921875 452.867188 964.582031 441.535156 950 441.535156 C 935.417969 441.535156 923.078125 452.867188 921.09375 468.070312 "/>
<path style=" stroke:none;fill-rule:nonzero;fill:rgb(97.254902%,76.470588%,0%);fill-opacity:1;" d="M 943.621094 538.039062 C 941.855469 558.714844 929.042969 576.523438 910.613281 583.914062 C 892.179688 591.300781 871.359375 586.980469 856.976562 572.777344 C 850.871094 588.90625 838.050781 601.179688 822.21875 606.054688 C 806.386719 610.925781 789.304688 607.855469 775.90625 597.730469 C 780.859375 649.765625 854.964844 639.140625 860.484375 588.542969 C 883.765625 631.566406 934.953125 619.246094 949.933594 566.542969 Z M 943.621094 538.039062 "/>
<path style=" stroke:none;fill-rule:nonzero;fill:rgb(97.254902%,76.470588%,0%);fill-opacity:1;" d="M 956.378906 538.039062 C 958.144531 558.714844 970.957031 576.523438 989.386719 583.914062 C 1007.820312 591.300781 1028.640625 586.980469 1043.023438 572.777344 C 1049.128906 588.90625 1061.949219 601.179688 1077.78125 606.054688 C 1093.613281 610.925781 1110.695312 607.855469 1124.09375 597.730469 C 1119.140625 649.765625 1045.035156 639.140625 1039.515625 588.542969 C 1016.234375 631.566406 965.046875 619.246094 950.066406 566.542969 Z M 956.378906 538.039062 "/>
<path style=" stroke:none;fill-rule:nonzero;fill:rgb(97.254902%,76.470588%,0%);fill-opacity:1;" d="M 894.140625 630.441406 C 883.800781 653.9375 863.136719 657.972656 845.058594 639.007812 C 845.058594 639.007812 852.328125 633.601562 860.105469 632.113281 C 858.648438 625.578125 861.636719 616.539062 865.855469 611.652344 C 870.273438 614.832031 876.445312 621.207031 878.011719 628.613281 C 888.910156 627.128906 894.140625 630.445312 894.140625 630.445312 Z M 894.140625 630.441406 "/>
<path style=" stroke:none;fill-rule:nonzero;fill:rgb(97.254902%,76.470588%,0%);fill-opacity:1;" d="M 975.023438 627.78125 C 961.1875 649.191406 940.175781 649.632812 925.273438 627.820312 C 925.273438 627.820312 933.277344 623.734375 941.183594 623.597656 C 940.757812 616.902344 945.105469 608.496094 950.019531 604.394531 C 953.890625 608.289062 958.992188 615.636719 959.394531 623.214844 C 970.375 623.617188 975.023438 627.785156 975.023438 627.785156 Z M 975.023438 627.78125 "/>
<path style=" stroke:none;fill-rule:nonzero;fill:rgb(97.254902%,76.470588%,0%);fill-opacity:1;" d="M 1055.238281 639.019531 C 1038.277344 657.773438 1017.476562 654.605469 1006.148438 630.53125 C 1006.148438 630.53125 1014.679688 627.871094 1022.5 629.09375 C 1023.113281 622.410156 1028.703125 614.863281 1034.1875 611.65625 C 1037.402344 616.164062 1041.300781 624.289062 1040.527344 631.832031 C 1051.296875 634.113281 1055.238281 639.019531 1055.238281 639.019531 Z M 1055.238281 639.019531 "/>
<path style="fill:none;stroke-width:16;stroke-linecap:butt;stroke-linejoin:miter;stroke:rgb(97.254902%,76.470588%,0%);stroke-opacity:1;stroke-miterlimit:4;" d="M 602.998766 477.998828 C 666.29523 459.158984 733.70477 459.158984 797.001234 477.998828 " transform="matrix(1.357143,0,0,1.428571,0,0)"/>
<path style=" stroke:none;fill-rule:nonzero;fill:rgb(97.254902%,76.470588%,0%);fill-opacity:1;" d="M 950 307.144531 L 969.941406 371.75 L 917.730469 331.820312 L 982.269531 331.820312 L 930.058594 371.75 Z M 950 307.144531 "/>
<path style=" stroke:none;fill-rule:nonzero;fill:rgb(97.254902%,76.470588%,0%);fill-opacity:1;" d="M 855 333.9375 L 874.941406 398.546875 L 822.730469 358.617188 L 887.269531 358.617188 L 835.058594 398.546875 Z M 855 333.9375 "/>
<path style=" stroke:none;fill-rule:nonzero;fill:rgb(97.254902%,76.470588%,0%);fill-opacity:1;" d="M 785.457031 407.144531 L 805.398438 471.75 L 753.1875 431.820312 L 817.722656 431.820312 L 765.511719 471.75 Z M 785.457031 407.144531 "/>
<path style=" stroke:none;fill-rule:nonzero;fill:rgb(97.254902%,76.470588%,0%);fill-opacity:1;" d="M 760 507.144531 L 779.941406 571.75 L 727.730469 531.820312 L 792.269531 531.820312 L 740.058594 571.75 Z M 760 507.144531 "/>
<path style=" stroke:none;fill-rule:nonzero;fill:rgb(97.254902%,76.470588%,0%);fill-opacity:1;" d="M 1045 333.9375 L 1025.058594 398.546875 L 1077.269531 358.617188 L 1012.730469 358.617188 L 1064.941406 398.546875 Z M 1045 333.9375 "/>
<path style=" stroke:none;fill-rule:nonzero;fill:rgb(97.254902%,76.470588%,0%);fill-opacity:1;" d="M 1114.542969 407.144531 L 1094.601562 471.75 L 1146.8125 431.820312 L 1082.277344 431.820312 L 1134.488281 471.75 Z M 1114.542969 407.144531 "/>
<path style=" stroke:none;fill-rule:nonzero;fill:rgb(97.254902%,76.470588%,0%);fill-opacity:1;" d="M 1140 507.144531 L 1120.058594 571.75 L 1172.269531 531.820312 L 1107.730469 531.820312 L 1159.941406 571.75 Z M 1140 507.144531 "/>
</g>
</svg>
