<?xml version="1.0" encoding="UTF-8"?>
<svg xmlns="http://www.w3.org/2000/svg" xmlns:xlink="http://www.w3.org/1999/xlink" width="380pt" height="200pt" viewBox="0 0 1900 1000" version="1.1">
<g id="surface1">
<rect x="0" y="0" width="1900" height="1000" style="fill:rgb(100%,100%,100%);fill-opacity:1;stroke:none;"/>
<path style=" stroke:none;fill-rule:nonzero;fill:rgb(0%,21.960784%,65.882353%);fill-opacity:1;" d="M 703.703125 111.109375 L 1900 111.109375 L 1900 222.222656 L 703.703125 222.222656 Z M 703.703125 111.109375 "/>
<path style=" stroke:none;fill-rule:nonzero;fill:rgb(0%,21.960784%,65.882353%);fill-opacity:1;" d="M 703.703125 333.332031 L 1900 333.332031 L 1900 444.445312 L 703.703125 444.445312 Z M 703.703125 333.332031 "/>
<path style=" stroke:none;fill-rule:nonzero;fill:rgb(0%,21.960784%,65.882353%);fill-opacity:1;" d="M 0 555.554688 L 1900 555.554688 L 1900 666.667969 L 0 666.667969 Z M 0 555.554688 "/>
<path style=" stroke:none;fill-rule:nonzero;fill:rgb(0%,21.960784%,65.882353%);fill-opacity:1;" d="M 0 777.777344 L 1900 777.777344 L 1900 888.890625 L 0 888.890625 Z M 0 777.777344 "/>
<path style="fill-rule:nonzero;fill:rgb(98.823529%,81.960784%,8.627451%);fill-opacity:1;stroke-width:0.6;stroke-linecap:square;stroke-linejoin:miter;stroke:rgb(0%,0%,0%);stroke-opacity:1;stroke-miterlimit:20;" d="M 1.499807 8.999827 L 6.000229 12.000229 C -1.999962 25.000197 6.999872 27.000336 0.0000359253 33.000032 C 3.000032 25.999651 -3.000151 28.000007 -3.000097 16.000192 " transform="matrix(7.151512,2.338621,-2.962253,5.64593,351.851852,277.777778)"/>
<path style="fill:none;stroke-width:0.6;stroke-linecap:butt;stroke-linejoin:miter;stroke:rgb(0%,0%,0%);stroke-opacity:1;stroke-miterlimit:20;" d="M -0.000184575 11.000041 C -2.000276 23.999883 4.499857 27.999899 0.0000359253 33.000032 " transform="matrix(7.151512,2.338621,-2.962253,5.64593,351.851852,277.777778)"/>
<path style="fill-rule:nonzero;fill:rgb(98.823529%,81.960784%,8.627451%);fill-opacity:1;stroke-width:0.6;stroke-linecap:butt;stroke-linejoin:miter;stroke:rgb(0%,0%,0%);stroke-opacity:1;stroke-miterlimit:20;" d="M -0.0000373804 -0.0000710227 L 6.000075 -0.0000710227 L -0.0000373804 33.000142 L -6.00015 -0.0000710227 L -0.0000373804 -0.0000710227 L -0.0000373804 33.000142 " transform="matrix(7.740741,0,0,6.111111,351.851852,277.777778)"/>
<path style="fill-rule:nonzero;fill:rgb(98.823529%,81.960784%,8.627451%);fill-opacity:1;stroke-width:0.6;stroke-linecap:square;stroke-linejoin:miter;stroke:rgb(0%,0%,0%);stroke-opacity:1;stroke-miterlimit:20;" d="M 1.499709 9.00015 L 6.00036 11.999958 C -1.999692 24.999977 6.999867 27.000044 0.000109714 33.000101 C 3.000045 25.999812 -3.000165 27.999946 -3.000107 16.000213 " transform="matrix(2.962253,5.64593,-7.151512,2.338621,351.851852,277.777778)"/>
<path style="fill:none;stroke-width:0.6;stroke-linecap:butt;stroke-linejoin:miter;stroke:rgb(0%,0%,0%);stroke-opacity:1;stroke-miterlimit:20;" d="M 0.000115768 11.000275 C -1.999836 23.999801 4.499816 27.999679 0.000109714 33.000101 " transform="matrix(2.962253,5.64593,-7.151512,2.338621,351.851852,277.777778)"/>
<path style="fill-rule:nonzero;fill:rgb(98.823529%,81.960784%,8.627451%);fill-opacity:1;stroke-width:0.6;stroke-linecap:butt;stroke-linejoin:miter;stroke:rgb(0%,0%,0%);stroke-opacity:1;stroke-miterlimit:20;" d="M -0.0000766526 -0.0000237887 L 5.999631 -0.0000713662 L 0.00025639 33.000035 L -5.999785 0.0000237887 L -0.0000766526 -0.0000237887 L 0.00025639 33.000035 " transform="matrix(5.47353,4.321208,-5.47353,4.321208,351.851852,277.777778)"/>
<path style="fill-rule:nonzero;fill:rgb(98.823529%,81.960784%,8.627451%);fill-opacity:1;stroke-width:0.6;stroke-linecap:square;stroke-linejoin:miter;stroke:rgb(0%,0%,0%);stroke-opacity:1;stroke-miterlimit:20;" d="M 1.500114 9.000218 L 5.999915 11.999822 C -2.000116 25.000087 7.000048 27.000234 -0.000240947 33.000155 C 2.999731 25.999893 -2.999874 27.999973 -2.999932 16.00024 " transform="matrix(-2.962253,5.64593,-7.151512,-2.338621,351.851852,277.777778)"/>
<path style="fill:none;stroke-width:0.6;stroke-linecap:butt;stroke-linejoin:miter;stroke:rgb(0%,0%,0%);stroke-opacity:1;stroke-miterlimit:20;" d="M 0.000343547 11.000085 C -1.999973 23.999911 4.499915 27.999774 -0.000240947 33.000155 " transform="matrix(-2.962253,5.64593,-7.151512,-2.338621,351.851852,277.777778)"/>
<path style="fill-rule:nonzero;fill:rgb(98.823529%,81.960784%,8.627451%);fill-opacity:1;stroke-width:0.6;stroke-linecap:butt;stroke-linejoin:miter;stroke:rgb(0%,0%,0%);stroke-opacity:1;stroke-miterlimit:20;" d="M -0.0000710227 0.0000373804 L 6.000142 0.0000373804 L -0.0000710227 33.00015 L -6.000284 0.0000373804 L -0.0000710227 0.0000373804 L -0.0000710227 33.00015 " transform="matrix(0.000000000000000474,6.111111,-7.740741,0.000000000000000374,351.851852,277.777778)"/>
<path style="fill-rule:nonzero;fill:rgb(98.823529%,81.960784%,8.627451%);fill-opacity:1;stroke-width:0.6;stroke-linecap:square;stroke-linejoin:miter;stroke:rgb(0%,0%,0%);stroke-opacity:1;stroke-miterlimit:20;" d="M 1.499956 8.999925 L 6.00016 12.000021 C -1.999841 24.999915 7.000158 27.000238 -0.0000902838 33.000164 C 3.000014 25.999908 -3.000003 28.000013 -3.000057 16.000197 " transform="matrix(-7.151512,2.338621,-2.962253,-5.64593,351.851852,277.777778)"/>
<path style="fill:none;stroke-width:0.6;stroke-linecap:butt;stroke-linejoin:miter;stroke:rgb(0%,0%,0%);stroke-opacity:1;stroke-miterlimit:20;" d="M 0.000130217 11.000172 C -2.000237 23.999999 4.500005 28.000122 -0.0000902838 33.000164 " transform="matrix(-7.151512,2.338621,-2.962253,-5.64593,351.851852,277.777778)"/>
<path style="fill-rule:nonzero;fill:rgb(98.823529%,81.960784%,8.627451%);fill-opacity:1;stroke-width:0.6;stroke-linecap:butt;stroke-linejoin:miter;stroke:rgb(0%,0%,0%);stroke-opacity:1;stroke-miterlimit:20;" d="M -0.0000237887 0.0000766526 L 5.999684 0.00012423 L 0.0000951549 32.999684 L -5.999732 0.0000290751 L -0.0000237887 0.0000766526 L 0.0000951549 32.999684 " transform="matrix(-5.47353,4.321208,-5.47353,-4.321208,351.851852,277.777778)"/>
<path style="fill-rule:nonzero;fill:rgb(98.823529%,81.960784%,8.627451%);fill-opacity:1;stroke-width:0.6;stroke-linecap:square;stroke-linejoin:miter;stroke:rgb(0%,0%,0%);stroke-opacity:1;stroke-miterlimit:20;" d="M 1.49993 8.99993 L 6.000108 11.999741 C -2.000083 24.999709 6.999751 26.999848 0.000159354 33.000135 C 3.000155 25.999754 -3.000027 28.00011 -2.999974 16.000294 " transform="matrix(-7.151512,-2.338621,2.962253,-5.64593,351.851852,277.777778)"/>
<path style="fill:none;stroke-width:0.6;stroke-linecap:butt;stroke-linejoin:miter;stroke:rgb(0%,0%,0%);stroke-opacity:1;stroke-miterlimit:20;" d="M -0.0000611467 11.000144 C -2.000152 23.999986 4.499981 28.000001 0.000159354 33.000135 " transform="matrix(-7.151512,-2.338621,2.962253,-5.64593,351.851852,277.777778)"/>
<path style="fill-rule:nonzero;fill:rgb(98.823529%,81.960784%,8.627451%);fill-opacity:1;stroke-width:0.6;stroke-linecap:butt;stroke-linejoin:miter;stroke:rgb(0%,0%,0%);stroke-opacity:1;stroke-miterlimit:20;" d="M 0.0000373804 0.0000710227 L 6.00015 0.0000710227 L 0.0000373804 33.000284 L -6.000075 0.0000710227 L 0.0000373804 0.0000710227 L 0.0000373804 33.000284 " transform="matrix(-7.740741,0.000000000000000748,-0.000000000000000948,-6.111111,351.851852,277.777778)"/>
<path style="fill-rule:nonzero;fill:rgb(98.823529%,81.960784%,8.627451%);fill-opacity:1;stroke-width:0.6;stroke-linecap:square;stroke-linejoin:miter;stroke:rgb(0%,0%,0%);stroke-opacity:1;stroke-miterlimit:20;" d="M 1.499869 9.000135 L 5.99993 11.999699 C -2.000123 24.999717 7.000026 27.000029 0.000269557 33.000086 C 3.000012 26.000263 -3.000006 27.999931 -2.999948 16.000198 " transform="matrix(-2.962253,-5.64593,7.151512,-2.338621,351.851852,277.777778)"/>
<path style="fill:none;stroke-width:0.6;stroke-linecap:butt;stroke-linejoin:miter;stroke:rgb(0%,0%,0%);stroke-opacity:1;stroke-miterlimit:20;" d="M -0.000314937 11.000016 C -1.999869 24.000252 4.499783 28.000131 0.000269557 33.000086 " transform="matrix(-2.962253,-5.64593,7.151512,-2.338621,351.851852,277.777778)"/>
<path style="fill-rule:nonzero;fill:rgb(98.823529%,81.960784%,8.627451%);fill-opacity:1;stroke-width:0.6;stroke-linecap:butt;stroke-linejoin:miter;stroke:rgb(0%,0%,0%);stroke-opacity:1;stroke-miterlimit:20;" d="M 0.0000766526 0.0000237887 L 5.999785 -0.0000237887 L -0.0000422911 32.999631 L -5.999631 0.0000713662 L 0.0000766526 0.0000237887 L -0.0000422911 32.999631 " transform="matrix(-5.47353,-4.321208,5.47353,-4.321208,351.851852,277.777778)"/>
<path style="fill-rule:nonzero;fill:rgb(98.823529%,81.960784%,8.627451%);fill-opacity:1;stroke-width:0.6;stroke-linecap:square;stroke-linejoin:miter;stroke:rgb(0%,0%,0%);stroke-opacity:1;stroke-miterlimit:20;" d="M 1.500217 9.000094 L 6.00021 12.000164 C -2.000014 24.999964 7.000151 27.000111 -0.000138324 33.000032 C 3.000027 26.000236 -2.999771 27.99985 -2.999829 16.000117 " transform="matrix(2.962253,-5.64593,7.151512,2.338621,351.851852,277.777778)"/>
<path style="fill:none;stroke-width:0.6;stroke-linecap:butt;stroke-linejoin:miter;stroke:rgb(0%,0%,0%);stroke-opacity:1;stroke-miterlimit:20;" d="M -0.000144378 11.000206 C -1.99987 23.999788 4.50021 28.000116 -0.000138324 33.000032 " transform="matrix(2.962253,-5.64593,7.151512,2.338621,351.851852,277.777778)"/>
<path style="fill-rule:nonzero;fill:rgb(98.823529%,81.960784%,8.627451%);fill-opacity:1;stroke-width:0.6;stroke-linecap:butt;stroke-linejoin:miter;stroke:rgb(0%,0%,0%);stroke-opacity:1;stroke-miterlimit:20;" d="M 0.0000710227 -0.0000373804 L 6.000284 -0.0000373804 L 0.0000710227 33.000075 L -6.000142 -0.0000373804 L 0.0000710227 -0.0000373804 L 0.0000710227 33.000075 " transform="matrix(-0.000000000000001422,-6.111111,7.740741,-0.000000000000001123,351.851852,277.777778)"/>
<path style="fill-rule:nonzero;fill:rgb(98.823529%,81.960784%,8.627451%);fill-opacity:1;stroke-width:0.6;stroke-linecap:square;stroke-linejoin:miter;stroke:rgb(0%,0%,0%);stroke-opacity:1;stroke-miterlimit:20;" d="M 1.499941 8.999765 L 6.000146 11.999861 C -1.999855 24.999755 7.000144 27.000078 -0.000104995 33.000004 C 2.999999 25.999748 -3.000018 27.999853 -3.000071 16.000037 " transform="matrix(7.151512,-2.338621,2.962253,5.64593,351.851852,277.777778)"/>
<path style="fill:none;stroke-width:0.6;stroke-linecap:butt;stroke-linejoin:miter;stroke:rgb(0%,0%,0%);stroke-opacity:1;stroke-miterlimit:20;" d="M 0.000115505 11.000012 C -1.999786 24.000032 4.49999 27.999962 -0.000104995 33.000004 " transform="matrix(7.151512,-2.338621,2.962253,5.64593,351.851852,277.777778)"/>
<path style="fill-rule:nonzero;fill:rgb(98.823529%,81.960784%,8.627451%);fill-opacity:1;stroke-width:0.6;stroke-linecap:butt;stroke-linejoin:miter;stroke:rgb(0%,0%,0%);stroke-opacity:1;stroke-miterlimit:20;" d="M 0.0000237887 -0.0000766526 L 5.999732 -0.0000290751 L -0.000309253 32.999983 L -5.999684 -0.00012423 L 0.0000237887 -0.0000766526 L -0.000309253 32.999983 " transform="matrix(5.47353,-4.321208,5.47353,4.321208,351.851852,277.777778)"/>
<path style="fill-rule:nonzero;fill:rgb(98.823529%,81.960784%,8.627451%);fill-opacity:1;stroke-width:0.6;stroke-linecap:butt;stroke-linejoin:miter;stroke:rgb(0%,0%,0%);stroke-opacity:1;stroke-miterlimit:20;" d="M 11 -0.0000710227 C 11 6.074929 6.075265 11 -0.0000373804 11 C -6.07534 11 -11.000075 6.074929 -11.000075 -0.0000710227 C -11.000075 -6.075071 -6.07534 -11.000142 -0.0000373804 -11.000142 C 6.075265 -11.000142 11 -6.075071 11 -0.0000710227 Z M 11 -0.0000710227 " transform="matrix(7.740741,0,0,6.111111,351.851852,277.777778)"/>
<path style=" stroke:none;fill-rule:nonzero;fill:rgb(0%,0%,0%);fill-opacity:1;" d="M 414.550781 250.890625 C 409.132812 255.777344 406.035156 247.222656 386.683594 247.222656 C 367.332031 247.222656 364.238281 256.390625 361.140625 254.554688 C 358.042969 252.722656 377.394531 241.722656 383.589844 241.109375 C 389.78125 240.5 407.585938 245.390625 414.550781 250.890625 M 392.105469 256.390625 C 397.523438 260.054688 392.878906 268 387.460938 268 C 382.039062 268 371.976562 260.667969 376.621094 255.777344 "/>
<path style=" stroke:none;fill-rule:nonzero;fill:rgb(0%,0%,0%);fill-opacity:1;" d="M 366.558594 261.890625 C 367.332031 254.554688 375.074219 253.332031 387.460938 253.332031 C 399.84375 253.332031 405.261719 260.667969 409.90625 262.5 C 404.488281 262.5 399.84375 256.390625 387.460938 256.390625 C 375.074219 256.390625 375.074219 256.390625 366.558594 262.5 M 368.882812 263.722656 C 371.976562 260.054688 375.847656 267.390625 384.363281 267.390625 C 392.878906 267.390625 397.523438 265.554688 402.941406 262.5 C 408.359375 259.445312 395.199219 269.832031 386.683594 269.832031 C 378.171875 269.832031 366.558594 266.167969 368.882812 263.722656 "/>
<path style=" stroke:none;fill-rule:nonzero;fill:rgb(0%,0%,0%);fill-opacity:1;" d="M 395.199219 267.390625 C 405.261719 263.109375 399.070312 257 395.199219 255.777344 C 396.75 257 402.941406 263.109375 395.199219 267.390625 M 351.851562 304.054688 C 356.496094 304.054688 358.042969 302.832031 364.238281 302.832031 C 370.429688 302.832031 385.136719 309.554688 393.652344 307.109375 C 375.847656 312.609375 382.816406 308.945312 351.851562 308.945312 L 347.980469 308.945312 M 396.75 312.609375 C 393.652344 308.332031 394.425781 309.554688 388.234375 302.832031 C 394.425781 306.5 395.972656 308.332031 396.75 312.609375 M 351.851562 318.722656 C 371.203125 318.722656 368.105469 315.667969 393.652344 307.109375 C 375.074219 308.945312 371.203125 313.832031 351.851562 313.832031 L 347.980469 313.832031 M 351.851562 296.109375 C 357.269531 296.109375 358.820312 293.054688 365.011719 293.054688 C 371.203125 293.054688 379.71875 294.890625 383.589844 297.332031 C 384.363281 297.945312 381.265625 292.445312 375.074219 291.832031 C 368.882812 291.222656 371.203125 283.277344 364.238281 282.054688 C 364.238281 284.5 366.558594 283.890625 367.332031 287.554688 C 367.332031 290.609375 360.367188 290.609375 358.820312 287.554688 C 360.367188 292.445312 355.722656 292.445312 351.851562 292.445312 "/>
<path style=" stroke:none;fill-rule:nonzero;fill:rgb(0%,0%,0%);fill-opacity:1;" d="M 289.152344 250.890625 C 294.570312 255.777344 297.667969 247.222656 317.019531 247.222656 C 336.371094 247.222656 339.464844 256.390625 342.5625 254.554688 C 345.660156 252.722656 326.308594 241.722656 320.113281 241.109375 C 313.921875 240.5 296.117188 245.390625 289.152344 250.890625 M 311.601562 256.390625 C 306.179688 260.054688 310.824219 268 316.246094 268 C 321.664062 268 331.726562 260.667969 327.082031 255.777344 "/>
<path style=" stroke:none;fill-rule:nonzero;fill:rgb(0%,0%,0%);fill-opacity:1;" d="M 337.144531 261.890625 C 336.371094 254.554688 328.628906 253.332031 316.246094 253.332031 C 303.859375 253.332031 298.441406 260.667969 293.796875 262.5 C 299.214844 262.5 303.859375 256.390625 316.246094 256.390625 C 328.628906 256.390625 328.628906 256.390625 337.144531 262.5 M 334.820312 263.722656 C 331.726562 260.054688 327.855469 267.390625 319.339844 267.390625 C 310.824219 267.390625 306.179688 265.554688 300.761719 262.5 C 295.34375 259.445312 308.503906 269.832031 317.019531 269.832031 C 325.535156 269.832031 337.144531 266.167969 334.820312 263.722656 "/>
<path style=" stroke:none;fill-rule:nonzero;fill:rgb(0%,0%,0%);fill-opacity:1;" d="M 308.503906 267.390625 C 298.441406 263.109375 304.632812 257 308.503906 255.777344 C 306.957031 257 300.761719 263.109375 308.503906 267.390625 M 351.851562 304.054688 C 347.207031 304.054688 345.660156 302.832031 339.464844 302.832031 C 333.273438 302.832031 318.566406 309.554688 310.050781 307.109375 C 327.855469 312.609375 320.890625 308.945312 351.851562 308.945312 L 355.722656 308.945312 M 306.957031 312.609375 C 310.050781 308.332031 309.277344 309.554688 315.46875 302.832031 C 309.277344 306.5 307.730469 308.332031 306.957031 312.609375 M 351.851562 318.722656 C 332.5 318.722656 335.597656 315.667969 310.050781 307.109375 C 328.628906 308.945312 332.5 313.832031 351.851562 313.832031 L 355.722656 313.832031 M 351.851562 296.109375 C 346.433594 296.109375 344.886719 293.054688 338.691406 293.054688 C 332.5 293.054688 323.984375 294.890625 320.113281 297.332031 C 319.339844 297.945312 322.4375 292.445312 328.628906 291.832031 C 334.820312 291.222656 332.5 283.277344 339.464844 282.054688 C 339.464844 284.5 337.144531 283.890625 336.371094 287.554688 C 336.371094 290.609375 343.335938 290.609375 344.886719 287.554688 C 343.335938 292.445312 347.980469 292.445312 351.851562 292.445312 "/>
<path style=" stroke:none;fill-rule:nonzero;fill:rgb(0%,0%,0%);fill-opacity:1;" d="M 351.851562 324.222656 C 347.980469 324.222656 337.917969 326.054688 351.851562 326.054688 C 365.785156 326.054688 355.722656 324.222656 351.851562 324.222656 "/>
</g>
</svg>
