<?xml version="1.0" encoding="UTF-8"?>
<svg xmlns="http://www.w3.org/2000/svg" xmlns:xlink="http://www.w3.org/1999/xlink" width="1900pt" height="1000pt" viewBox="0 0 1900 1000" version="1.1">
<g id="surface1">
<path style=" stroke:none;fill-rule:nonzero;fill:rgb(0%,63.137255%,87.058824%);fill-opacity:1;" d="M 0 0 L 1900 0 L 1900 500 L 0 500 Z M 0 0 "/>
<path style=" stroke:none;fill-rule:nonzero;fill:rgb(98.039216%,82.352941%,0.392157%);fill-opacity:1;" d="M 0 500 L 1900 500 L 1900 750 L 0 750 Z M 0 500 "/>
<path style=" stroke:none;fill-rule:nonzero;fill:rgb(12.54902%,37.647059%,23.921569%);fill-opacity:1;" d="M 0 750 L 1900 750 L 1900 1000 L 0 1000 Z M 0 750 "/>
<path style=" stroke:none;fill-rule:nonzero;fill:rgb(89.803922%,74.509804%,0.392157%);fill-opacity:1;" d="M 1763.832031 261.25 L 1622.375 267.777344 L 1756.875 302.984375 L 1618.09375 280.382812 L 1736.46875 341.875 L 1609.828125 291.6875 L 1704.011719 375.269531 L 1598.136719 300.917969 L 1661.707031 400.898438 L 1583.820312 307.445312 L 1612.445312 417.003906 L 1567.851562 310.820312 L 1559.582031 422.5 L 1557.824219 259.859375 Z M 1763.832031 261.25 "/>
<path style=" stroke:none;fill-rule:nonzero;fill:rgb(89.803922%,74.509804%,0.392157%);fill-opacity:1;" d="M 1763.832031 261.25 L 1622.375 254.722656 L 1756.875 219.515625 L 1618.09375 242.117188 L 1736.46875 180.625 L 1609.828125 230.8125 L 1704.011719 147.230469 L 1598.136719 221.582031 L 1661.707031 121.601562 L 1583.820312 215.054688 L 1612.445312 105.496094 L 1567.851562 211.679688 L 1559.582031 100 L 1557.824219 262.640625 Z M 1763.832031 261.25 "/>
<path style=" stroke:none;fill-rule:nonzero;fill:rgb(89.803922%,74.509804%,0.392157%);fill-opacity:1;" d="M 1355.332031 261.25 L 1496.792969 267.777344 L 1362.292969 302.984375 L 1501.070312 280.382812 L 1382.699219 341.875 L 1509.335938 291.6875 L 1415.15625 375.269531 L 1521.027344 300.917969 L 1457.457031 400.898438 L 1535.347656 307.445312 L 1506.71875 417.003906 L 1551.316406 310.820312 L 1559.582031 422.5 L 1561.34375 259.859375 Z M 1355.332031 261.25 "/>
<path style=" stroke:none;fill-rule:nonzero;fill:rgb(89.803922%,74.509804%,0.392157%);fill-opacity:1;" d="M 1355.332031 261.25 L 1496.792969 254.722656 L 1362.292969 219.515625 L 1501.070312 242.117188 L 1382.699219 180.625 L 1509.335938 230.8125 L 1415.15625 147.230469 L 1521.027344 221.582031 L 1457.457031 121.601562 L 1535.347656 215.054688 L 1506.71875 105.496094 L 1551.316406 211.679688 L 1559.582031 100 L 1561.34375 262.640625 Z M 1355.332031 261.25 "/>
<path style="fill-rule:nonzero;fill:rgb(89.803922%,74.509804%,0.392157%);fill-opacity:1;stroke-width:3.4;stroke-linecap:butt;stroke-linejoin:miter;stroke:rgb(0%,63.137255%,87.058824%);stroke-opacity:1;stroke-miterlimit:4;" d="M 34.299918 0 C 34.299918 18.942187 18.943668 34.30125 -0.000740132 34.30125 C -18.942928 34.30125 -34.299178 18.942187 -34.299178 0 C -34.299178 -18.942187 -18.942928 -34.30125 -0.000740132 -34.30125 C 18.943668 -34.30125 34.299918 -18.942187 34.299918 0 Z M 34.299918 0 " transform="matrix(1.759259,0,0,1.388889,1559.583333,261.25)"/>
</g>
</svg>
