<?xml version="1.0" encoding="UTF-8"?>
<svg xmlns="http://www.w3.org/2000/svg" xmlns:xlink="http://www.w3.org/1999/xlink" width="1900pt" height="1000pt" viewBox="0 0 1900 1000" version="1.1">
<g id="surface1">
<rect x="0" y="0" width="1900" height="1000" style="fill:rgb(0%,59.607843%,76.470588%);fill-opacity:1;stroke:none;"/>
<path style=" stroke:none;fill-rule:nonzero;fill:rgb(87.843137%,0%,20.392157%);fill-opacity:1;" d="M 0 333.332031 L 1900 333.332031 L 1900 666.667969 L 0 666.667969 Z M 0 333.332031 "/>
<path style=" stroke:none;fill-rule:nonzero;fill:rgb(0%,68.235294%,39.607843%);fill-opacity:1;" d="M 0 666.667969 L 1900 666.667969 L 1900 1000 L 0 1000 Z M 0 666.667969 "/>
<path style=" stroke:none;fill-rule:nonzero;fill:rgb(100%,100%,100%);fill-opacity:1;" d="M 1062.417969 500 C 1062.417969 582.84375 998.617188 650 919.917969 650 C 841.214844 650 777.417969 582.84375 777.417969 500 C 777.417969 417.15625 841.214844 350 919.917969 350 C 998.617188 350 1062.417969 417.15625 1062.417969 500 Z M 1062.417969 500 "/>
<path style=" stroke:none;fill-rule:nonzero;fill:rgb(87.843137%,0%,20.392157%);fill-opacity:1;" d="M 1068.75 500 C 1068.75 569.035156 1015.582031 625 950 625 C 884.417969 625 831.25 569.035156 831.25 500 C 831.25 430.964844 884.417969 375 950 375 C 1015.582031 375 1068.75 430.964844 1068.75 500 Z M 1068.75 500 "/>
<path style=" stroke:none;fill-rule:nonzero;fill:rgb(100%,100%,100%);fill-opacity:1;" d="M 1134.269531 558.882812 L 1093.421875 538.484375 L 1078.304688 583.332031 L 1063.128906 538.507812 L 1022.308594 558.96875 L 1041.691406 515.972656 L 999.082031 500.058594 L 1041.667969 484.082031 L 1022.230469 441.117188 L 1063.078125 461.515625 L 1078.195312 416.667969 L 1093.371094 461.492188 L 1134.191406 441.03125 L 1114.808594 484.027344 L 1157.417969 499.941406 L 1114.832031 515.917969 Z M 1134.269531 558.882812 "/>
</g>
</svg>
