<?xml version="1.0" encoding="UTF-8"?>
<svg xmlns="http://www.w3.org/2000/svg" xmlns:xlink="http://www.w3.org/1999/xlink" width="1900pt" height="1000pt" viewBox="0 0 1900 1000" version="1.1">
<g id="surface1">
<path style=" stroke:none;fill-rule:nonzero;fill:rgb(0%,18.823529%,50.980392%);fill-opacity:1;" d="M 0 0 L 1900 0 L 1900 250 L 0 250 Z M 0 0 "/>
<path style=" stroke:none;fill-rule:nonzero;fill:rgb(100%,100%,100%);fill-opacity:1;" d="M 0 250 L 1900 250 L 1900 500 L 0 500 Z M 0 250 "/>
<path style=" stroke:none;fill-rule:nonzero;fill:rgb(15.686275%,59.215686%,15.686275%);fill-opacity:1;" d="M 0 500 L 1900 500 L 1900 750 L 0 750 Z M 0 500 "/>
<path style=" stroke:none;fill-rule:nonzero;fill:rgb(100%,80.784314%,0%);fill-opacity:1;" d="M 0 750 L 1900 750 L 1900 1000 L 0 1000 Z M 0 750 "/>
<path style=" stroke:none;fill-rule:nonzero;fill:rgb(82.352941%,6.27451%,20.392157%);fill-opacity:1;" d="M 791.667969 0 L 1108.332031 0 L 1108.332031 1000 L 791.667969 1000 Z M 791.667969 0 "/>
<path style=" stroke:none;fill-rule:nonzero;fill:rgb(100%,80.784314%,0%);fill-opacity:1;" d="M 316.667969 23.242188 L 348.660156 100.976562 L 452.191406 100.976562 L 368.433594 149.019531 L 400.425781 226.757812 L 316.667969 178.714844 L 232.90625 226.757812 L 264.902344 149.019531 L 181.140625 100.976562 L 284.675781 100.976562 Z M 316.667969 23.242188 "/>
</g>
</svg>
