<?xml version="1.0" encoding="UTF-8"?>
<svg xmlns="http://www.w3.org/2000/svg" xmlns:xlink="http://www.w3.org/1999/xlink" width="1900pt" height="1000pt" viewBox="0 0 1900 1000" version="1.1">
<g id="surface1">
<rect x="0" y="0" width="1900" height="1000" style="fill:rgb(19.215686%,57.254902%,3.137255%);fill-opacity:1;stroke:none;"/>
<path style=" stroke:none;fill-rule:nonzero;fill:rgb(100%,82.352941%,0%);fill-opacity:1;" d="M 0 142.855469 L 1900 142.855469 L 1900 857.144531 L 0 857.144531 Z M 0 142.855469 "/>
<path style=" stroke:none;fill-rule:nonzero;fill:rgb(87.058824%,12.54902%,6.27451%);fill-opacity:1;" d="M 0 285.714844 L 1900 285.714844 L 1900 714.285156 L 0 714.285156 Z M 0 285.714844 "/>
<path style=" stroke:none;fill-rule:nonzero;fill:rgb(0%,0%,0%);fill-opacity:1;" d="M 0 428.570312 L 1900 428.570312 L 1900 571.429688 L 0 571.429688 Z M 0 428.570312 "/>
<path style=" stroke:none;fill-rule:nonzero;fill:rgb(0%,0%,0%);fill-opacity:1;" d="M 34.550781 0 L 667.882812 500 L 34.550781 1000 L 0 1000 L 0 0 Z M 34.550781 0 "/>
<path style=" stroke:none;fill-rule:nonzero;fill:rgb(100%,100%,100%);fill-opacity:1;" d="M 0 0 L 633.332031 500 L 0 1000 "/>
<path style=" stroke:none;fill-rule:nonzero;fill:rgb(87.058824%,12.54902%,6.27451%);fill-opacity:1;" d="M 256.347656 246.03125 L 149.570312 473.773438 L 311.839844 558.074219 Z M 256.347656 246.03125 "/>
<path style=" stroke:none;fill-rule:nonzero;fill:rgb(87.058824%,12.54902%,6.27451%);fill-opacity:1;" d="M 256.347656 246.03125 L 363.128906 473.773438 L 200.859375 558.074219 Z M 256.347656 246.03125 "/>
<path style=" stroke:none;fill-rule:nonzero;fill:rgb(87.058824%,12.54902%,6.27451%);fill-opacity:1;" d="M 256.347656 246.03125 L 175.496094 485.3125 L 345.984375 549.148438 Z M 256.347656 246.03125 "/>
<path style=" stroke:none;fill-rule:nonzero;fill:rgb(87.058824%,12.54902%,6.27451%);fill-opacity:1;" d="M 256.347656 246.03125 L 337.203125 485.3125 L 166.714844 549.148438 Z M 256.347656 246.03125 "/>
<path style=" stroke:none;fill-rule:nonzero;fill:rgb(87.058824%,12.54902%,6.27451%);fill-opacity:1;" d="M 485.808594 421.519531 L 247.046875 385 L 221.027344 573.496094 Z M 485.808594 421.519531 "/>
<path style=" stroke:none;fill-rule:nonzero;fill:rgb(87.058824%,12.54902%,6.27451%);fill-opacity:1;" d="M 26.886719 421.519531 L 265.648438 385 L 291.671875 573.496094 Z M 26.886719 421.519531 "/>
<path style=" stroke:none;fill-rule:nonzero;fill:rgb(87.058824%,12.54902%,6.27451%);fill-opacity:1;" d="M 485.808594 421.519531 L 244.632812 414.515625 L 239.644531 604.921875 Z M 485.808594 421.519531 "/>
<path style=" stroke:none;fill-rule:nonzero;fill:rgb(87.058824%,12.54902%,6.27451%);fill-opacity:1;" d="M 26.886719 421.519531 L 268.066406 414.515625 L 273.054688 604.921875 Z M 26.886719 421.519531 "/>
<path style=" stroke:none;fill-rule:nonzero;fill:rgb(87.058824%,12.54902%,6.27451%);fill-opacity:1;" d="M 256.347656 281.746094 L 171.273438 480.78125 L 265.816406 525.558594 Z M 256.347656 281.746094 "/>
<path style=" stroke:none;fill-rule:nonzero;fill:rgb(87.058824%,12.54902%,6.27451%);fill-opacity:1;" d="M 256.347656 281.746094 L 341.425781 480.78125 L 246.882812 525.558594 Z M 256.347656 281.746094 "/>
<path style=" stroke:none;fill-rule:nonzero;fill:rgb(87.058824%,12.54902%,6.27451%);fill-opacity:1;" d="M 378.222656 676.570312 L 335.910156 462.910156 L 234.417969 485.179688 Z M 378.222656 676.570312 "/>
<path style=" stroke:none;fill-rule:nonzero;fill:rgb(87.058824%,12.54902%,6.27451%);fill-opacity:1;" d="M 378.222656 676.570312 L 198.253906 568.1875 L 249.734375 473.464844 Z M 378.222656 676.570312 "/>
<path style=" stroke:none;fill-rule:nonzero;fill:rgb(87.058824%,12.54902%,6.27451%);fill-opacity:1;" d="M 134.476562 676.570312 L 314.445312 568.1875 L 262.960938 473.464844 Z M 134.476562 676.570312 "/>
<path style=" stroke:none;fill-rule:nonzero;fill:rgb(87.058824%,12.54902%,6.27451%);fill-opacity:1;" d="M 134.476562 676.570312 L 176.789062 462.910156 L 278.277344 485.179688 Z M 134.476562 676.570312 "/>
<path style="fill-rule:nonzero;fill:rgb(100%,77.647059%,9.411765%);fill-opacity:1;stroke-width:0.211738;stroke-linecap:butt;stroke-linejoin:miter;stroke:rgb(0%,0%,0%);stroke-opacity:1;stroke-miterlimit:4;" d="M 28.635469 55.10925 C 30.611472 59.414414 31.105732 59.69693 36.046258 61.391039 C 40.986785 63.084656 54.943668 64.690664 56.320238 64.849148 C 55.420313 63.94943 39.698808 52.303781 36.469539 49.97475 C 33.240789 47.645719 32.340863 46.587023 32.340863 46.587023 C 32.340863 46.587023 29.429186 41.346211 28.423569 39.811078 C 27.417952 38.275945 25.565255 36.105891 23.130222 36.105891 C 20.695189 36.105891 19.212928 37.535203 18.507286 40.075875 C 18.119235 40.181695 16.037023 41.452523 16.107484 42.757805 C 16.707434 42.687422 20.483808 41.628727 21.7894 45.898945 C 23.094992 50.168672 23.165452 57.155766 21.82463 60.614367 C 20.483289 64.072969 18.401595 66.684023 18.401595 69.719344 C 18.401595 70.142625 18.683956 70.98968 19.389597 70.98968 C 19.636727 72.330891 21.61273 81.894094 21.61273 81.894094 L 49.774145 81.894094 L 54.246834 64.60207 " transform="matrix(7.539683,0,0,7.936508,0,0)"/>
<path style="fill:none;stroke-width:0.211738;stroke-linecap:butt;stroke-linejoin:miter;stroke:rgb(0%,0%,0%);stroke-opacity:1;stroke-miterlimit:4;" d="M 19.389597 70.98968 C 19.389597 70.98968 25.388586 70.636781 27.012286 70.636781 C 28.635469 70.636781 43.746143 70.655484 52.177056 72.604547 " transform="matrix(7.539683,0,0,7.936508,0,0)"/>
<path style="fill:none;stroke-width:0.211738;stroke-linecap:butt;stroke-linejoin:miter;stroke:rgb(0%,0%,0%);stroke-opacity:1;stroke-miterlimit:4;" d="M 21.508076 70.87057 C 21.508076 70.87057 20.907089 70.142625 21.29514 68.696086 C 21.683191 67.249055 25.918076 63.507937 25.918076 58.214953 " transform="matrix(7.539683,0,0,7.936508,0,0)"/>
<path style="fill:none;stroke-width:0.211738;stroke-linecap:butt;stroke-linejoin:miter;stroke:rgb(0%,0%,0%);stroke-opacity:1;stroke-miterlimit:4;" d="M 25.141974 70.636781 C 25.141974 70.636781 24.647714 68.272312 30.04727 66.260742 C 31.564762 65.802023 35.904819 63.367172 36.046258 61.391039 " transform="matrix(7.539683,0,0,7.936508,0,0)"/>
<path style="fill:none;stroke-width:0.211738;stroke-linecap:butt;stroke-linejoin:miter;stroke:rgb(0%,0%,0%);stroke-opacity:1;stroke-miterlimit:4;" d="M 29.473224 66.48518 C 29.473224 66.48518 42.716176 66.543258 53.197179 68.660648 " transform="matrix(7.539683,0,0,7.936508,0,0)"/>
<path style="fill:none;stroke-width:0.211738;stroke-linecap:butt;stroke-linejoin:miter;stroke:rgb(0%,0%,0%);stroke-opacity:1;stroke-miterlimit:4;" d="M 32.79264 64.905258 C 32.79264 64.905258 37.343043 65.060789 38.084433 64.849148 C 38.825304 64.637508 40.137113 64.087242 40.658832 62.535867 " transform="matrix(7.539683,0,0,7.936508,0,0)"/>
<path style="fill:none;stroke-width:0.211738;stroke-linecap:butt;stroke-linejoin:miter;stroke:rgb(0%,0%,0%);stroke-opacity:1;stroke-miterlimit:4;" d="M 35.490345 64.959398 C 35.490345 64.959398 37.924342 63.693984 38.401505 62.048109 " transform="matrix(7.539683,0,0,7.936508,0,0)"/>
<path style="fill:none;stroke-width:0.211738;stroke-linecap:butt;stroke-linejoin:miter;stroke:rgb(0%,0%,0%);stroke-opacity:1;stroke-miterlimit:4;" d="M 28.141209 81.894094 C 28.141209 81.894094 27.100362 74.677641 26.888462 70.636781 L 29.605855 73.230609 L 32.480748 70.716516 L 34.952566 73.354148 L 37.809844 70.929633 L 40.281143 73.707047 L 43.110962 71.30025 L 45.36259 73.918688 L 48.185156 71.878078 L 51.540321 75.066469 " transform="matrix(7.539683,0,0,7.936508,0,0)"/>
<path style="fill:none;stroke-width:0.211738;stroke-linecap:butt;stroke-linejoin:miter;stroke:rgb(0%,0%,0%);stroke-opacity:1;stroke-miterlimit:4;" d="M 50.950732 77.345297 C 40.870214 75.901219 27.38065 75.995227 27.38065 75.995227 " transform="matrix(7.539683,0,0,7.936508,0,0)"/>
<path style="fill:none;stroke-width:0.211738;stroke-linecap:butt;stroke-linejoin:miter;stroke:rgb(0%,0%,0%);stroke-opacity:1;stroke-miterlimit:4;" d="M 22.693988 51.052148 C 22.693988 51.052148 30.893832 47.133844 32.340863 46.587023 " transform="matrix(7.539683,0,0,7.936508,0,0)"/>
<path style="fill:none;stroke-width:1;stroke-linecap:butt;stroke-linejoin:miter;stroke:rgb(0%,0%,0%);stroke-opacity:1;stroke-miterlimit:4;" d="M 52.486158 177.086297 L 65.505872 188.936659 L 77.265455 177.174629 L 89.162062 189.443403 L 102.008049 178.083513 L 113.836144 190.512678 L 127.173949 179.501465 L 138.072239 192.228168 L 151.341532 182.083998 L 165.288603 194.403911 " transform="matrix(1.596437,0,0,1.68046,120.634921,285.714286)"/>
<path style="fill:none;stroke-width:1;stroke-linecap:butt;stroke-linejoin:miter;stroke:rgb(0%,0%,0%);stroke-opacity:1;stroke-miterlimit:4;" d="M 94.591633 154.585022 C 94.591633 157.437198 92.279355 159.750088 89.426322 159.750088 C 86.570843 159.750088 84.258565 157.437198 84.258565 154.585022 C 84.258565 151.730522 86.570843 149.417632 89.426322 149.417632 C 92.279355 149.417632 94.591633 151.730522 94.591633 154.585022 Z M 94.591633 154.585022 " transform="matrix(1.596437,0,0,1.68046,120.634921,285.714286)"/>
<path style="fill:none;stroke-width:1;stroke-linecap:butt;stroke-linejoin:miter;stroke:rgb(0%,0%,0%);stroke-opacity:1;stroke-miterlimit:4;" d="M 116.402895 156.04714 C 116.402895 158.899316 114.090617 161.21453 111.237585 161.21453 C 108.384552 161.21453 106.069828 158.899316 106.069828 156.04714 C 106.069828 153.19264 108.384552 150.87975 111.237585 150.87975 C 114.090617 150.87975 116.402895 153.19264 116.402895 156.04714 Z M 116.402895 156.04714 " transform="matrix(1.596437,0,0,1.68046,120.634921,285.714286)"/>
<path style="fill:none;stroke-width:1;stroke-linecap:butt;stroke-linejoin:miter;stroke:rgb(0%,0%,0%);stroke-opacity:1;stroke-miterlimit:4;" d="M 34.049108 16.499718 C 34.049108 18.708004 32.258011 20.500202 30.050948 20.500202 C 27.841438 20.500202 26.050341 18.708004 26.050341 16.499718 C 26.050341 14.291431 27.841438 12.499233 30.050948 12.499233 C 32.258011 12.499233 34.049108 14.291431 34.049108 16.499718 Z M 34.049108 16.499718 " transform="matrix(1.596437,0,0,1.68046,120.634921,285.714286)"/>
</g>
</svg>
