<?xml version="1.0" encoding="UTF-8"?>
<svg xmlns="http://www.w3.org/2000/svg" xmlns:xlink="http://www.w3.org/1999/xlink" width="1900pt" height="1000pt" viewBox="0 0 1900 1000" version="1.1">
<g id="surface1">
<path style=" stroke:none;fill-rule:nonzero;fill:rgb(81.176471%,7.843137%,16.862745%);fill-opacity:1;" d="M 950 0 L 1900 0 L 1900 1000 L 950 1000 Z M 950 0 "/>
<path style=" stroke:none;fill-rule:nonzero;fill:rgb(100%,100%,100%);fill-opacity:1;" d="M 0 0 L 950 0 L 950 1000 L 0 1000 Z M 0 0 "/>
<path style=" stroke:none;fill-rule:evenodd;fill:rgb(94.509804%,93.333333%,93.333333%);fill-opacity:1;" d="M 212.203125 152.476562 C 212.203125 154.128906 209.839844 155.464844 206.921875 155.464844 C 204.003906 155.464844 201.636719 154.128906 201.636719 152.476562 C 201.636719 150.828125 204.003906 149.492188 206.921875 149.492188 C 209.839844 149.492188 212.203125 150.828125 212.203125 152.476562 Z M 212.203125 152.476562 "/>
<path style=" stroke:none;fill-rule:evenodd;fill:rgb(90.196078%,5.098039%,18.039216%);fill-opacity:1;" d="M 46.914062 138.046875 L 46.914062 213.808594 L 142.875 213.808594 C 142.875 226.429688 158.867188 239.058594 174.863281 239.058594 L 174.863281 314.816406 L 270.816406 314.816406 L 270.816406 239.058594 C 286.8125 239.058594 302.804688 226.429688 302.804688 213.808594 L 398.765625 213.808594 L 398.765625 138.046875 L 302.804688 138.046875 C 302.804688 125.421875 286.8125 112.796875 270.816406 112.796875 L 270.816406 37.039062 L 174.863281 37.039062 L 174.863281 112.796875 C 158.867188 112.796875 142.875 125.421875 142.875 138.046875 Z M 46.914062 138.046875 "/>
<path style=" stroke:none;fill-rule:evenodd;fill:rgb(58.823529%,52.941176%,49.019608%);fill-opacity:1;" d="M 53.3125 143.09375 L 53.3125 208.753906 L 149.269531 208.753906 C 149.269531 221.378906 165.261719 234.007812 181.257812 234.007812 L 181.257812 309.761719 L 264.417969 309.761719 L 264.417969 234.007812 C 280.410156 234.007812 296.40625 221.378906 296.40625 208.753906 L 392.359375 208.753906 L 392.359375 143.09375 L 296.40625 143.09375 C 296.40625 130.472656 280.410156 117.84375 264.417969 117.84375 L 264.417969 42.085938 L 181.257812 42.085938 L 181.257812 117.84375 C 165.261719 117.84375 149.269531 130.472656 149.269531 143.09375 Z M 53.3125 143.09375 "/>
<path style=" stroke:none;fill-rule:evenodd;fill:rgb(80%,80%,80%);fill-opacity:1;" d="M 56.515625 145.621094 L 56.515625 206.226562 L 152.46875 206.226562 C 152.46875 218.851562 168.464844 231.484375 184.457031 231.484375 L 184.457031 307.242188 L 261.222656 307.242188 L 261.222656 231.484375 C 277.214844 231.484375 293.210938 218.851562 293.210938 206.226562 L 389.164062 206.226562 L 389.164062 145.621094 L 293.210938 145.621094 C 293.210938 133 277.214844 120.371094 261.222656 120.371094 L 261.222656 44.613281 L 184.457031 44.613281 L 184.457031 120.371094 C 168.464844 120.371094 152.46875 133 152.46875 145.621094 Z M 56.515625 145.621094 "/>
<path style=" stroke:none;fill-rule:evenodd;fill:rgb(58.823529%,52.941176%,49.019608%);fill-opacity:1;" d="M 178.464844 119.46875 C 184.085938 123.90625 182.566406 132.300781 175.070312 138.21875 C 167.578125 144.132812 156.945312 145.332031 151.324219 140.894531 C 145.703125 136.457031 147.222656 128.0625 154.714844 122.144531 C 162.210938 116.230469 172.84375 115.03125 178.464844 119.46875 Z M 178.464844 119.46875 "/>
<path style=" stroke:none;fill-rule:evenodd;fill:rgb(81.568627%,81.568627%,81.568627%);fill-opacity:1;" d="M 150.191406 132.859375 L 152.453125 131.070312 L 161.5 134.640625 L 156.976562 127.5 L 159.238281 125.714844 L 168.285156 140 L 150.191406 132.855469 Z M 150.191406 132.859375 "/>
<path style=" stroke:none;fill-rule:evenodd;fill:rgb(81.568627%,81.568627%,81.568627%);fill-opacity:1;" d="M 163.761719 122.144531 L 166.023438 120.359375 L 179.59375 131.074219 L 177.332031 132.859375 Z M 163.761719 122.144531 "/>
<path style=" stroke:none;fill-rule:evenodd;fill:rgb(58.823529%,52.941176%,49.019608%);fill-opacity:1;" d="M 294.355469 140.894531 C 288.734375 145.332031 278.101562 144.132812 270.605469 138.214844 C 263.113281 132.300781 261.59375 123.90625 267.214844 119.464844 C 272.835938 115.027344 283.46875 116.226562 290.960938 122.144531 C 298.457031 128.0625 299.976562 136.457031 294.355469 140.894531 Z M 294.355469 140.894531 "/>
<path style=" stroke:none;fill-rule:evenodd;fill:rgb(81.568627%,81.568627%,81.568627%);fill-opacity:1;" d="M 277.390625 118.574219 L 279.652344 120.363281 L 275.128906 127.503906 L 284.175781 123.933594 L 286.4375 125.722656 L 268.34375 132.863281 L 277.390625 118.578125 Z M 277.390625 118.574219 "/>
<path style=" stroke:none;fill-rule:evenodd;fill:rgb(81.568627%,81.568627%,81.568627%);fill-opacity:1;" d="M 290.964844 129.289062 L 293.226562 131.074219 L 279.65625 141.789062 L 277.394531 140.003906 Z M 290.964844 129.289062 "/>
<path style=" stroke:none;fill-rule:evenodd;fill:rgb(58.823529%,52.941176%,49.019608%);fill-opacity:1;" d="M 267.214844 232.390625 C 261.59375 227.953125 263.109375 219.558594 270.605469 213.640625 C 278.101562 207.722656 288.734375 206.523438 294.355469 210.960938 C 299.976562 215.398438 298.457031 223.792969 290.960938 229.710938 C 283.46875 235.628906 272.835938 236.828125 267.214844 232.390625 Z M 267.214844 232.390625 "/>
<path style=" stroke:none;fill-rule:evenodd;fill:rgb(81.568627%,81.568627%,81.568627%);fill-opacity:1;" d="M 295.484375 219 L 293.222656 220.785156 L 284.175781 217.214844 L 288.699219 224.359375 L 286.4375 226.144531 L 277.390625 211.859375 L 295.484375 219.003906 Z M 295.484375 219 "/>
<path style=" stroke:none;fill-rule:evenodd;fill:rgb(81.568627%,81.568627%,81.568627%);fill-opacity:1;" d="M 281.914062 229.710938 L 279.652344 231.5 L 266.082031 220.785156 L 268.34375 219 Z M 281.914062 229.710938 "/>
<path style=" stroke:none;fill-rule:evenodd;fill:rgb(58.823529%,52.941176%,49.019608%);fill-opacity:1;" d="M 151.324219 210.964844 C 156.945312 206.527344 167.574219 207.722656 175.070312 213.640625 C 182.566406 219.558594 184.085938 227.953125 178.464844 232.390625 C 172.84375 236.828125 162.210938 235.628906 154.714844 229.710938 C 147.21875 223.796875 145.703125 215.402344 151.324219 210.960938 Z M 151.324219 210.964844 "/>
<path style=" stroke:none;fill-rule:evenodd;fill:rgb(81.568627%,81.568627%,81.568627%);fill-opacity:1;" d="M 168.285156 233.285156 L 166.023438 231.496094 L 170.546875 224.355469 L 161.5 227.925781 L 159.238281 226.136719 L 177.332031 218.996094 L 168.285156 233.28125 Z M 168.285156 233.285156 "/>
<path style=" stroke:none;fill-rule:evenodd;fill:rgb(81.568627%,81.568627%,81.568627%);fill-opacity:1;" d="M 154.714844 222.570312 L 152.453125 220.785156 L 166.023438 210.070312 L 168.285156 211.855469 Z M 154.714844 222.570312 "/>
<path style="fill:none;stroke-width:0.514403;stroke-linecap:butt;stroke-linejoin:miter;stroke:rgb(58.823529%,52.941176%,49.019608%);stroke-opacity:1;stroke-miterlimit:4;" d="M 137.373972 105.557812 C 137.377673 123.133594 123.13014 137.383594 105.555715 137.383594 C 87.979441 137.383594 73.733758 123.133594 73.737459 105.557812 C 73.733758 87.982031 87.979441 73.732031 105.555715 73.732031 C 123.13014 73.732031 137.377673 87.982031 137.373972 105.557812 Z M 137.373972 105.557812 " transform="matrix(2.111111,0,0,1.666667,0,0)"/>
<path style="fill:none;stroke-width:0.514403;stroke-linecap:butt;stroke-linejoin:miter;stroke:rgb(58.823529%,52.941176%,49.019608%);stroke-opacity:1;stroke-miterlimit:4;" d="M 129.796875 105.557812 C 129.800576 118.947656 118.946546 129.80625 105.555715 129.80625 C 92.164885 129.80625 81.310855 118.947656 81.312706 105.557812 C 81.310855 92.165625 92.164885 81.309375 105.555715 81.309375 C 118.946546 81.309375 129.800576 92.165625 129.796875 105.557812 Z M 129.796875 105.557812 " transform="matrix(2.111111,0,0,1.666667,0,0)"/>
<path style=" stroke:none;fill-rule:evenodd;fill:rgb(0%,0%,0%);fill-opacity:1;" d="M 200.449219 218.859375 C 200.449219 219.761719 199.839844 220.59375 198.851562 221.046875 C 197.859375 221.503906 196.640625 221.503906 195.648438 221.046875 C 194.660156 220.59375 194.050781 219.761719 194.050781 218.859375 C 194.050781 217.953125 194.660156 217.121094 195.648438 216.667969 C 196.640625 216.214844 197.859375 216.214844 198.851562 216.667969 C 199.839844 217.121094 200.449219 217.953125 200.449219 218.859375 Z M 200.449219 218.859375 "/>
<path style=" stroke:none;fill-rule:evenodd;fill:rgb(0%,0%,0%);fill-opacity:1;" d="M 251.625 218.859375 C 251.628906 219.761719 251.019531 220.59375 250.027344 221.046875 C 249.039062 221.503906 247.816406 221.503906 246.828125 221.046875 C 245.835938 220.59375 245.226562 219.761719 245.230469 218.859375 C 245.226562 217.953125 245.835938 217.121094 246.828125 216.667969 C 247.816406 216.214844 249.039062 216.214844 250.027344 216.667969 C 251.019531 217.121094 251.628906 217.953125 251.625 218.859375 Z M 251.625 218.859375 "/>
<path style=" stroke:none;fill-rule:evenodd;fill:rgb(0%,0%,0%);fill-opacity:1;" d="M 220.707031 218.859375 L 220.707031 221.492188 L 216.441406 221.492188 C 212.175781 221.492188 212.175781 224.125 216.441406 224.125 L 220.707031 224.125 L 220.707031 226.757812 C 220.722656 229.484375 224.429688 229.816406 224.699219 226.984375 L 224.972656 224.140625 L 229.234375 224.140625 C 233.5 224.140625 233.5 221.507812 229.234375 221.507812 L 224.972656 221.507812 L 224.972656 218.875 C 224.972656 216.242188 220.707031 216.242188 220.707031 218.875 Z M 220.707031 218.859375 "/>
<path style="fill-rule:evenodd;fill:rgb(58.823529%,52.941176%,49.019608%);fill-opacity:1;stroke-width:0.202907;stroke-linecap:butt;stroke-linejoin:miter;stroke:rgb(0%,0%,0%);stroke-opacity:1;stroke-miterlimit:4;" d="M 122.85074 110.186719 C 123.381785 110.050781 124.25884 110.160938 124.25884 110.160938 C 124.25884 110.160938 124.336554 110.526562 124.105263 110.648438 C 124.362459 110.79375 125.283923 110.749219 125.283923 110.749219 C 125.283923 110.749219 124.924959 111.025781 124.745477 111.133594 C 125.078536 111.166406 125.489309 111.595312 125.489309 111.595312 C 125.489309 111.595312 124.721423 111.724219 124.388363 111.54375 C 124.5919 111.953906 124.565995 112.3125 124.565995 112.3125 C 124.565995 112.3125 123.324424 112.005469 122.876645 111.185156 " transform="matrix(2.111111,0,0,1.666667,0,0)"/>
<path style="fill-rule:evenodd;fill:rgb(58.823529%,52.941176%,49.019608%);fill-opacity:1;stroke-width:0.202907;stroke-linecap:butt;stroke-linejoin:miter;stroke:rgb(0%,0%,0%);stroke-opacity:1;stroke-miterlimit:4;" d="M 120.774671 109.495312 C 120.473067 110.238281 118.263775 108.853125 118.263775 108.853125 C 118.263775 108.853125 119.237048 110.397656 120.698808 110.571094 " transform="matrix(2.111111,0,0,1.666667,0,0)"/>
<path style="fill-rule:evenodd;fill:rgb(58.823529%,52.941176%,49.019608%);fill-opacity:1;stroke-width:0.202907;stroke-linecap:butt;stroke-linejoin:miter;stroke:rgb(0%,0%,0%);stroke-opacity:1;stroke-miterlimit:4;" d="M 93.180715 123.663281 L 119.057566 123.663281 L 121.055921 122.074219 L 117.725329 120.28125 L 112.601768 118.539844 L 110.551604 117.4125 L 106.76028 117.616406 L 103.583265 119.308594 L 99.22759 119.819531 L 98.202508 120.998437 L 94.975535 121.253906 L 89.901933 121.153125 L 98.356086 122.484375 L 91.387747 122.125781 Z M 93.180715 123.663281 " transform="matrix(2.111111,0,0,1.666667,0,0)"/>
<path style="fill-rule:evenodd;fill:rgb(58.823529%,52.941176%,49.019608%);fill-opacity:1;stroke-width:0.202907;stroke-linecap:butt;stroke-linejoin:miter;stroke:rgb(0%,0%,0%);stroke-opacity:1;stroke-miterlimit:4;" d="M 107.119243 116.233594 C 103.877467 114.489844 102.930099 118.78125 101.5331 119.819531 C 103.416735 120.140625 104.839638 118.373437 106.453125 117.513281 C 107.676192 120.846094 109.604235 118.640625 109.604235 118.640625 C 109.604235 118.640625 111.615543 121.830469 114.292969 120.384375 C 115.023849 120.935156 115.830592 120.433594 115.830592 120.433594 C 115.830592 120.433594 116.803865 120.614062 117.009252 120.178125 C 117.521793 120.358594 118.084293 119.716406 118.084293 119.716406 C 118.084293 119.716406 119.200041 119.730469 119.41653 119.153906 C 121.068873 119.449219 123.259663 115.771875 123.259663 115.771875 L 123.925781 114.489844 L 124.899054 114.285938 C 124.899054 114.285938 124.963816 113.646094 124.438322 113.671875 C 124.42537 113.2875 124.092311 113.08125 123.618627 113.158594 C 123.709293 112.928906 123.363281 112.748437 123.363281 112.748437 C 122.439967 112.978125 122.388158 115.310156 122.388158 115.310156 C 122.388158 115.310156 120.774671 116.540625 120.186266 116.847656 C 120.160362 115.516406 117.930715 113.709375 118.391447 112.851562 C 118.85403 111.99375 120.300987 114.171094 121.568462 113.772656 C 122.837788 113.376562 123.461349 111.726562 123.516859 110.442188 C 123.157895 109.570312 122.28639 108.135937 122.28639 108.135937 L 121.466694 108.084375 L 120.748766 106.342969 C 120.748766 106.342969 119.237048 107.329687 119.262952 108.1875 C 119.288857 109.045312 120.852385 109.776562 120.852385 109.776562 C 120.852385 109.776562 119.951275 110.339062 119.109375 110.083594 C 119.033512 110.955469 120.134457 110.789062 120.54523 110.800781 C 120.748766 111.428906 121.364926 111.775781 121.364926 111.775781 C 121.364926 111.775781 121.747944 112.736719 120.748766 112.645313 C 119.749589 112.55625 118.570929 110.254688 117.162829 111.314062 C 115.664062 112.441406 117.828947 114.489844 117.828947 114.489844 C 117.828947 114.489844 116.509663 115.183594 115.726974 116.950781 C 112.537007 114.260156 110.668174 115.516406 107.119243 116.233594 Z M 107.119243 116.233594 " transform="matrix(2.111111,0,0,1.666667,0,0)"/>
<path style="fill-rule:evenodd;fill:rgb(58.823529%,52.941176%,49.019608%);fill-opacity:1;stroke-width:0.202907;stroke-linecap:butt;stroke-linejoin:miter;stroke:rgb(0%,0%,0%);stroke-opacity:1;stroke-miterlimit:4;" d="M 102.456414 111.672656 C 103.788651 112.928906 102.859786 115.014844 103.377878 115.413281 C 103.929276 115.835156 104.710115 115.207031 104.710115 115.207031 C 106.107113 115.579687 108.605058 114.799219 108.605058 114.799219 C 109.704153 115.413281 109.271176 114.50625 109.937294 114.541406 C 110.525699 116.053125 112.5 115.771875 112.5 115.771875 C 112.5 115.771875 110.692229 113.927344 109.578331 113.414062 C 108.719778 113.927344 106.221834 114.004688 105.787007 113.927344 C 105.30222 113.840625 105.607525 113.247656 105.376234 112.903125 C 106.295847 112.007812 105.568668 109.788281 105.069079 108.95625 C 103.033717 107.599219 100.600535 109.924219 102.456414 111.672656 Z M 102.456414 111.672656 " transform="matrix(2.111111,0,0,1.666667,0,0)"/>
<path style="fill-rule:evenodd;fill:rgb(58.823529%,52.941176%,49.019608%);fill-opacity:1;stroke-width:0.202907;stroke-linecap:butt;stroke-linejoin:miter;stroke:rgb(0%,0%,0%);stroke-opacity:1;stroke-miterlimit:4;" d="M 93.59889 107.915625 C 91.922492 108.367969 89.015625 105.75 87.655633 106.755469 C 86.297492 107.760937 86.932155 110.233594 87.836965 111.466406 C 88.723273 112.671094 86.541735 113.107031 85.953331 113.821875 C 85.400082 114.494531 86.134663 115.270312 86.134663 115.270312 L 86.750822 115.66875 L 86.641653 116.575781 L 86.967311 117.663281 C 86.967311 117.663281 87.267064 117.925781 87.366982 117.590625 C 87.646382 117.871875 87.396587 118.682812 88.090461 118.785937 C 87.842516 118.265625 88.271793 116.828906 88.271793 116.828906 C 88.271793 116.828906 89.485609 116.920312 89.794613 116.395312 C 90.101768 115.867969 89.504112 114.726562 89.504112 114.726562 C 89.504112 114.726562 89.866776 114.726562 89.866776 114.726562 C 89.459704 114.447656 89.32278 113.603906 89.32278 113.603906 C 89.32278 113.603906 91.008429 113.069531 90.989926 111.792187 C 90.971423 110.514844 88.253289 109.157812 89.250617 108.494531 C 90.355263 107.760937 92.275905 110.397656 93.924548 109.183594 C 95.556538 107.983594 94.503701 109.148438 94.503701 109.148438 C 94.503701 109.148438 95.249383 107.470312 93.59889 107.915625 Z M 93.59889 107.915625 " transform="matrix(2.111111,0,0,1.666667,0,0)"/>
<path style="fill-rule:evenodd;fill:rgb(58.823529%,52.941176%,49.019608%);fill-opacity:1;stroke-width:0.202907;stroke-linecap:butt;stroke-linejoin:miter;stroke:rgb(0%,0%,0%);stroke-opacity:1;stroke-miterlimit:4;" d="M 102.251028 89.971875 C 100.008429 89.036719 95.428865 88.978125 92.873561 87.717187 C 91.752262 87.7875 91.252673 88.671094 91.208265 89.022656 C 90.037007 88.966406 89.241365 90.810937 89.415296 91.176563 C 87.281867 90.311719 86.29009 93.686719 86.980263 94.378125 C 85.16139 94.455469 85.38528 96.780469 85.213199 97.427344 C 84.630345 98.842969 85.342722 99.31875 86.493627 98.810156 C 86.667558 99.426563 86.425164 99.771094 85.905222 99.885937 C 89.061883 103.5 90.847451 97.664062 93.617393 97.682812 C 97.075658 96.670312 98.433799 94.966406 98.433799 94.966406 L 99.791941 95.146875 C 99.791941 95.146875 102.251028 89.971875 102.251028 89.971875 Z M 102.251028 89.971875 " transform="matrix(2.111111,0,0,1.666667,0,0)"/>
<path style="fill-rule:nonzero;fill:rgb(58.823529%,52.941176%,49.019608%);fill-opacity:1;stroke-width:0.202907;stroke-linecap:round;stroke-linejoin:miter;stroke:rgb(0%,0%,0%);stroke-opacity:1;stroke-miterlimit:4;" d="M 108.45148 87.384375 C 108.45148 89.210156 106.971217 90.689062 105.146793 90.689062 C 103.320518 90.689062 101.840255 89.210156 101.840255 87.384375 C 101.840255 85.558594 103.320518 84.079687 105.146793 84.079687 C 106.971217 84.079687 108.45148 85.558594 108.45148 87.384375 Z M 108.45148 87.384375 " transform="matrix(2.111111,0,0,1.666667,0,0)"/>
<path style="fill-rule:evenodd;fill:rgb(58.823529%,52.941176%,49.019608%);fill-opacity:1;stroke-width:0.202907;stroke-linecap:butt;stroke-linejoin:miter;stroke:rgb(0%,0%,0%);stroke-opacity:1;stroke-miterlimit:4;" d="M 99.329359 113.414062 C 97.281044 113.04375 93.885691 110.915625 93.539679 108.135937 C 95.449219 100.642969 105.294819 104.557031 106.14412 98.920312 C 105.927632 95.200781 106.59375 91.51875 108.656867 88.408594 C 109.617188 87.192188 110.858758 86.871094 110.858758 86.871094 C 110.858758 86.871094 111.082648 87.665625 110.75699 88.204687 C 112.383429 88.024219 114.613076 88.933594 116.137747 89.022656 C 116.585526 89.932031 116.546669 90.267187 116.444901 90.817969 C 116.343133 91.36875 115.726974 91.225781 115.726974 91.225781 C 115.329153 91.603125 114.851768 91.9875 113.780428 91.790625 C 112.973684 92.404687 111.269531 92.559375 111.269531 92.559375 C 111.269531 92.559375 114.831414 96.311719 114.24116 97.478906 C 114.984992 97.823437 116.085938 99.475781 116.085938 99.475781 C 116.085938 99.475781 118.52097 98.196094 119.314762 97.017187 C 120.722862 97.017187 123.030222 98.491406 124.182977 98.657812 C 125.591077 99.796875 127.001028 100.961719 127.001028 100.961719 C 127.001028 100.961719 125.32278 102.065625 124.5919 100.603125 C 123.709293 100.680469 121.799753 98.566406 119.161184 99.220312 C 119.08347 101.564062 116.496711 103.216406 116.496711 103.216406 C 116.496711 103.216406 118.91139 102.878906 120.236225 103.678125 C 121.607319 104.83125 123.618627 106.394531 123.618627 106.394531 L 125.411595 109.469531 C 125.411595 109.469531 123.772204 109.750781 123.157895 107.625 C 122.543586 109.340625 122.517681 106.560937 120.082648 105.267187 C 119.340666 105.35625 118.96875 105.407812 118.341488 104.908594 C 116.585526 105.382031 114.511308 106.40625 112.037418 106.139062 C 110.283306 106.689844 109.002878 108.15 107.221012 108.95625 C 105.440995 109.7625 104.915502 109.366406 104.915502 109.366406 L 103.481497 109.417969 C 103.27426 110.280469 103.390831 111.595312 102.609992 111.825 C 103.109581 112.364063 102.251028 114.65625 101.379523 115.054688 C 101.790296 116.526562 102.99116 116.978906 104.249383 117.719531 C 104.249383 117.719531 105.363281 117.20625 106.094161 117.871875 C 106.825041 118.539844 107.579975 120.433594 107.579975 120.433594 C 107.579975 120.433594 106.060855 120.536719 105.58162 120.332812 C 105.102385 120.126562 105.056127 119.627344 104.506579 119.767969 C 101.033512 116.68125 99.203536 117.909375 98.868627 117.20625 C 98.526316 116.486719 99.688322 114.607031 99.329359 113.414062 Z M 99.329359 113.414062 " transform="matrix(2.111111,0,0,1.666667,0,0)"/>
<path style="fill-rule:evenodd;fill:rgb(58.823529%,52.941176%,49.019608%);fill-opacity:1;stroke-width:0.202907;stroke-linecap:butt;stroke-linejoin:miter;stroke:rgb(0%,0%,0%);stroke-opacity:1;stroke-miterlimit:4;" d="M 90.989926 99.653906 C 91.171258 99.428906 92.438734 99.907031 92.438734 99.907031 L 94.757196 101.357812 L 99.468133 104.4 L 101.13528 106.828125 L 98.128495 105.850781 L 93.961554 102.2625 L 91.715255 100.814062 C 91.715255 100.814062 90.808594 99.88125 90.989926 99.653906 Z M 90.989926 99.653906 " transform="matrix(2.111111,0,0,1.666667,0,0)"/>
<path style="fill-rule:evenodd;fill:rgb(58.823529%,52.941176%,49.019608%);fill-opacity:1;stroke-width:0.202907;stroke-linecap:butt;stroke-linejoin:miter;stroke:rgb(0%,0%,0%);stroke-opacity:1;stroke-miterlimit:4;" d="M 118.85403 107.367188 C 117.22574 106.957031 113.216077 111.825 113.216077 111.825 L 116.239515 115.10625 C 116.239515 115.10625 116.330181 109.521094 118.85403 107.367188 Z M 118.85403 107.367188 " transform="matrix(2.111111,0,0,1.666667,0,0)"/>
<path style="fill-rule:evenodd;fill:rgb(58.823529%,52.941176%,49.019608%);fill-opacity:1;stroke-width:0.202907;stroke-linecap:butt;stroke-linejoin:miter;stroke:rgb(0%,0%,0%);stroke-opacity:1;stroke-miterlimit:4;" d="M 99.022204 93.789844 C 98.135896 94.926563 98.056332 97.21875 99.210938 98.142187 C 99.318257 99.532031 100.502467 102.339844 101.431332 102.602344 C 102.447163 102.890625 106.504934 103.832813 108.092516 103.577344 C 107.789062 106.150781 109.809622 108.217969 111.680304 109.570312 C 111.665502 109.802344 111.663651 110.083594 111.878289 110.369531 C 112.087377 110.646094 113.071752 110.697656 113.114309 110.545312 C 113.550987 111.157031 115.662212 111.426563 115.813939 111.154687 C 115.963816 110.8875 112.709087 108.623437 111.987459 107.932031 C 111.37315 106.788281 110.212993 104.238281 109.937294 102.192188 C 108.340461 100.291406 105.598273 100.33125 105.598273 100.33125 L 105.683388 96.607031 L 105.838816 92.404687 L 104.351151 91.635937 C 104.351151 91.635937 104.650905 91.5 104.813734 91.328906 C 105.174548 91.483594 105.851768 90.759375 105.940584 90.555469 C 106.282895 90.675 106.5919 90.675 106.65111 90.492188 C 106.70477 90.330469 106.765831 89.610937 106.889803 89.240625 C 108.011102 88.253906 106.726974 86.160938 105.011719 86.125781 C 103.316817 86.092969 102.93565 88.150781 102.968956 88.305469 C 103.128084 88.952344 103.092928 89.278125 102.968956 89.432812 C 102.841283 89.592187 102.251028 89.946094 102.251028 89.946094 C 102.251028 89.946094 101.30366 89.498437 100.150905 89.946094 C 98.996299 90.39375 97.702919 90.996094 97.640008 91.739063 C 97.114515 91.816406 96.255962 92.496094 96.102385 93.072656 C 95.641653 92.98125 95.038446 93.365625 94.05222 94.966406 C 92.285156 95.749219 92.181538 99.527344 92.181538 99.527344 C 92.181538 99.527344 91.704153 100.223438 91.681949 100.591406 C 91.659745 100.959375 91.848479 101.296875 92.07977 101.23125 C 92.105674 101.475 92.425781 101.692969 92.566406 101.615625 C 92.618215 101.859375 92.969778 101.995312 93.180715 101.9625 C 93.201069 102.128906 93.88199 102.086719 93.9375 101.936719 C 93.996711 101.770313 93.869038 100.940625 93.950452 100.872656 C 94.022615 100.811719 94.590666 101.245312 94.744243 101.130469 C 94.897821 101.013281 94.714638 100.645313 94.629523 100.502344 C 94.551809 100.373437 94.065173 100.232812 93.950452 99.630469 C 93.833882 99.028125 94.257607 98.196094 94.257607 98.196094 C 94.257607 98.196094 96.178248 96.684375 96.396587 95.390625 C 97.843544 95.53125 98.609581 94.265625 99.022204 93.789844 Z M 99.022204 93.789844 " transform="matrix(2.111111,0,0,1.666667,0,0)"/>
<path style="fill-rule:evenodd;fill:rgb(58.823529%,52.941176%,49.019608%);fill-opacity:1;stroke-width:0.202907;stroke-linecap:butt;stroke-linejoin:miter;stroke:rgb(0%,0%,0%);stroke-opacity:1;stroke-miterlimit:4;" d="M 95.67866 88.371094 C 96.117188 87.297656 97.702919 87.396094 97.702919 87.396094 C 97.702919 87.396094 98.27097 85.903125 100.40625 86.79375 C 101.209293 86.172656 103.327919 87.063281 103.327919 87.063281 C 103.327919 87.063281 104.11986 86.00625 105.159745 86.128125 C 107.084087 86.353125 107.404194 88.117969 107.285773 88.420312 C 106.231086 88.6875 104.406661 87.564844 103.018914 87.883594 C 102.210321 88.340625 100.896587 88.825781 100.40625 89.484375 C 99.122122 89.620312 97.751028 88.303125 95.67866 88.371094 Z M 95.67866 88.371094 " transform="matrix(2.111111,0,0,1.666667,0,0)"/>
<path style="fill-rule:evenodd;fill:rgb(58.823529%,52.941176%,49.019608%);fill-opacity:1;stroke-width:0.202907;stroke-linecap:butt;stroke-linejoin:miter;stroke:rgb(0%,0%,0%);stroke-opacity:1;stroke-miterlimit:4;" d="M 99.688322 90.15 C 100.169408 89.857031 101.348067 89.339062 102.14926 89.971875 C 102.987459 90.874219 104.275288 91.713281 104.275288 91.713281 L 105.735197 92.329687 L 106.401316 92.7375 L 105.966488 99.426563 C 104.613898 98.041406 103.348273 97.8 102.378701 96.171094 C 101.860609 95.472656 102.256579 93.794531 101.353618 92.688281 C 100.450658 91.579687 99.490337 90.829687 99.688322 90.15 Z M 99.688322 90.15 " transform="matrix(2.111111,0,0,1.666667,0,0)"/>
<path style="fill-rule:evenodd;fill:rgb(58.823529%,52.941176%,49.019608%);fill-opacity:1;stroke-width:0.202907;stroke-linecap:butt;stroke-linejoin:miter;stroke:rgb(0%,0%,0%);stroke-opacity:1;stroke-miterlimit:4;" d="M 103.200247 92.08125 C 103.200247 92.08125 103.966283 91.935937 104.179071 92.11875 C 104.445518 92.207813 104.704564 92.285156 104.776727 92.517187 C 105.067229 92.601562 105.265214 92.751562 105.265214 92.969531 C 105.537212 93.042187 105.646382 93.532031 105.646382 93.532031 L 105.392887 93.911719 C 105.392887 93.911719 105.102385 93.639844 105.067229 93.349219 C 104.882196 93.260156 104.476974 93.164062 104.378906 92.896875 C 104.06065 92.866406 103.857113 92.702344 103.797903 92.425781 C 103.503701 92.49375 103.200247 92.08125 103.200247 92.08125 Z M 103.200247 92.08125 " transform="matrix(2.111111,0,0,1.666667,0,0)"/>
<path style="fill-rule:evenodd;fill:rgb(58.823529%,52.941176%,49.019608%);fill-opacity:1;stroke-width:0.202907;stroke-linecap:butt;stroke-linejoin:miter;stroke:rgb(0%,0%,0%);stroke-opacity:1;stroke-miterlimit:4;" d="M 109.681949 87.717187 C 109.245271 87.229687 108.477385 87.588281 108.477385 87.588281 L 106.42722 91.125 L 105.529811 91.867969 L 105.453947 94.633594 L 106.195929 97.221094 L 105.940584 99.220312 C 105.940584 99.220312 106.973067 98.252344 107.093339 97.708594 C 107.208059 97.190625 106.70847 95.505469 106.70847 95.505469 C 106.70847 95.505469 106.094161 94.455469 106.837993 92.507812 C 107.579975 90.560156 109.271176 88.947656 109.681949 87.717187 Z M 109.681949 87.717187 " transform="matrix(2.111111,0,0,1.666667,0,0)"/>
<path style="fill-rule:evenodd;fill:rgb(58.823529%,52.941176%,49.019608%);fill-opacity:1;stroke-width:0.202907;stroke-linecap:butt;stroke-linejoin:miter;stroke:rgb(0%,0%,0%);stroke-opacity:1;stroke-miterlimit:4;" d="M 114.738898 90.867188 C 114.738898 90.867188 111.537829 95.442188 106.299548 97.06875 C 104.85074 97.413281 105.376234 93.686719 105.376234 93.686719 L 105.01727 93.789844 C 105.01727 93.789844 104.210526 97.439062 106.14597 97.478906 C 111.410156 96.440625 115.360609 90.897656 115.360609 90.897656 Z M 114.738898 90.867188 " transform="matrix(2.111111,0,0,1.666667,0,0)"/>
<path style="fill-rule:evenodd;fill:rgb(58.823529%,52.941176%,49.019608%);fill-opacity:1;stroke-width:0.202907;stroke-linecap:butt;stroke-linejoin:miter;stroke:rgb(0%,0%,0%);stroke-opacity:1;stroke-miterlimit:4;" d="M 116.905633 117.154687 C 116.905633 117.154687 116.418997 117.513281 115.778783 117.154687 C 115.445724 116.385937 114.548314 116.334375 114.548314 116.334375 C 114.548314 116.334375 113.971012 114.675 113.0625 115.157812 C 112.921875 114.297656 111.93565 114.747656 111.93565 114.747656 C 111.93565 114.747656 111.909745 113.503125 110.75699 113.671875 C 111.141859 112.249219 109.169408 112.338281 109.169408 112.338281 C 109.169408 112.338281 109.104646 110.7375 106.195929 111.058594 C 112.461143 108.253125 117.418174 115.464844 117.418174 115.464844 " transform="matrix(2.111111,0,0,1.666667,0,0)"/>
<path style="fill-rule:evenodd;fill:rgb(58.823529%,52.941176%,49.019608%);fill-opacity:1;stroke-width:0.202907;stroke-linecap:butt;stroke-linejoin:miter;stroke:rgb(0%,0%,0%);stroke-opacity:1;stroke-miterlimit:4;" d="M 119.879112 117.771094 C 119.879112 117.771094 121.326069 119.397656 122.081003 119.409375 C 122.837788 119.423437 122.900699 117.820312 122.900699 117.820312 C 122.900699 117.820312 123.144942 118.514062 123.516859 118.333594 C 123.478002 118.821094 123.97759 118.947656 123.97759 118.947656 C 123.97759 118.947656 122.671258 121.985156 118.955798 119.102344 " transform="matrix(2.111111,0,0,1.666667,0,0)"/>
<path style="fill-rule:evenodd;fill:rgb(58.823529%,52.941176%,49.019608%);fill-opacity:1;stroke-width:0.202907;stroke-linecap:butt;stroke-linejoin:miter;stroke:rgb(0%,0%,0%);stroke-opacity:1;stroke-miterlimit:4;" d="M 108.553248 118.385156 L 108.040707 120.485156 C 108.040707 120.485156 107.387541 121.075781 107.579975 121.202344 C 107.77241 121.33125 108.810444 120.998437 108.810444 120.998437 C 108.810444 120.998437 110.423931 120.80625 110.910567 120.332812 C 111.243627 121.0875 111.987459 121.153125 111.987459 121.153125 C 111.987459 121.153125 112.037418 120.832031 111.93565 120.639844 C 112.294613 120.703125 112.601768 120.588281 112.601768 120.588281 C 112.601768 120.588281 112.807155 120 112.346423 119.767969 C 112.396382 119.332031 112.61472 118.947656 111.833882 118.999219 C 111.256579 119.615625 109.835526 120.31875 109.476562 120.075 C 109.117599 119.833594 110.884663 119.050781 110.398026 118.026562 " transform="matrix(2.111111,0,0,1.666667,0,0)"/>
<path style=" stroke:none;fill-rule:nonzero;fill:rgb(0%,0%,0%);fill-opacity:1;" d="M 160.347656 189.003906 L 164.746094 188.175781 L 164.257812 186.566406 C 164.148438 186.195312 163.964844 185.945312 163.707031 185.8125 C 163.445312 185.679688 163.003906 185.640625 162.375 185.699219 L 162.304688 185.460938 L 166.089844 184.746094 L 166.164062 184.988281 C 165.730469 185.074219 165.425781 185.179688 165.246094 185.300781 C 165.070312 185.425781 164.953125 185.570312 164.894531 185.738281 C 164.839844 185.910156 164.855469 186.140625 164.945312 186.4375 L 165.429688 188.046875 L 168.945312 187.382812 C 169.511719 187.277344 169.878906 187.179688 170.042969 187.089844 C 170.167969 187.019531 170.257812 186.90625 170.316406 186.746094 C 170.390625 186.53125 170.394531 186.320312 170.332031 186.109375 L 170.234375 185.792969 L 170.542969 185.734375 L 171.6875 189.527344 L 171.382812 189.582031 L 171.285156 189.269531 C 171.175781 188.90625 170.960938 188.667969 170.640625 188.550781 C 170.433594 188.480469 169.996094 188.507812 169.324219 188.636719 L 162.09375 189.996094 C 161.527344 190.101562 161.164062 190.199219 160.996094 190.292969 C 160.875 190.359375 160.78125 190.472656 160.722656 190.625 C 160.648438 190.835938 160.640625 191.050781 160.707031 191.261719 L 160.800781 191.574219 L 160.496094 191.632812 L 158.511719 185.058594 L 160.945312 184.511719 L 161.011719 184.738281 C 160.523438 184.949219 160.179688 185.152344 159.980469 185.351562 C 159.78125 185.546875 159.660156 185.765625 159.617188 186.003906 C 159.570312 186.242188 159.621094 186.59375 159.757812 187.054688 Z M 157.511719 173.332031 C 157.597656 172.15625 158.234375 171.160156 159.429688 170.347656 C 160.625 169.535156 162.066406 169.167969 163.761719 169.242188 C 165.507812 169.320312 166.925781 169.820312 168.015625 170.742188 C 169.105469 171.660156 169.605469 172.738281 169.515625 173.972656 C 169.429688 175.222656 168.792969 176.246094 167.605469 177.046875 C 166.421875 177.84375 164.9375 178.203125 163.152344 178.125 C 161.328125 178.042969 159.875 177.488281 158.792969 176.457031 C 157.855469 175.558594 157.429688 174.519531 157.511719 173.332031 Z M 158.121094 173.488281 C 158.066406 174.296875 158.398438 174.964844 159.125 175.492188 C 160.03125 176.144531 161.398438 176.511719 163.230469 176.59375 C 165.105469 176.675781 166.570312 176.421875 167.625 175.835938 C 168.429688 175.382812 168.859375 174.757812 168.914062 173.960938 C 168.976562 173.109375 168.605469 172.386719 167.804688 171.792969 C 167 171.203125 165.695312 170.867188 163.882812 170.785156 C 161.917969 170.699219 160.429688 170.9375 159.417969 171.503906 C 158.617188 171.960938 158.183594 172.621094 158.121094 173.488281 Z M 174.789062 156.902344 L 173.695312 159.167969 L 167.28125 160.53125 C 167.191406 160.746094 167.113281 160.921875 167.046875 161.054688 C 167.023438 161.109375 166.992188 161.167969 166.960938 161.230469 C 166.925781 161.289062 166.890625 161.355469 166.855469 161.417969 L 169.976562 162.359375 C 170.65625 162.5625 171.101562 162.628906 171.324219 162.5625 C 171.632812 162.472656 171.863281 162.269531 172.015625 161.953125 L 172.175781 161.621094 L 172.46875 161.710938 L 170.714844 165.347656 L 170.421875 165.257812 L 170.578125 164.9375 C 170.75 164.578125 170.726562 164.277344 170.503906 164.035156 C 170.382812 163.898438 170.015625 163.738281 169.402344 163.554688 L 162.457031 161.464844 C 161.777344 161.261719 161.332031 161.195312 161.109375 161.261719 C 160.800781 161.355469 160.566406 161.5625 160.410156 161.882812 L 160.257812 162.203125 L 159.964844 162.113281 L 161.457031 159.023438 C 161.890625 158.121094 162.292969 157.480469 162.667969 157.105469 C 163.039062 156.726562 163.519531 156.457031 164.113281 156.292969 C 164.703125 156.125 165.304688 156.136719 165.925781 156.324219 C 166.585938 156.523438 167.078125 156.863281 167.398438 157.351562 C 167.722656 157.835938 167.8125 158.46875 167.667969 159.242188 L 171.597656 158.414062 C 172.5 158.226562 173.136719 158.023438 173.507812 157.808594 C 173.878906 157.589844 174.207031 157.257812 174.496094 156.8125 Z M 166.355469 161.269531 C 166.394531 161.191406 166.425781 161.121094 166.457031 161.0625 C 166.488281 161.007812 166.511719 160.957031 166.53125 160.921875 C 166.921875 160.109375 166.992188 159.433594 166.75 158.890625 C 166.503906 158.34375 166.035156 157.96875 165.347656 157.761719 C 164.675781 157.5625 164.050781 157.5625 163.472656 157.769531 C 162.890625 157.972656 162.46875 158.351562 162.207031 158.898438 C 162.089844 159.140625 161.980469 159.480469 161.882812 159.925781 Z M 190.835938 131.179688 L 193.058594 133.460938 L 192.808594 133.585938 C 192.066406 133.117188 191.371094 132.832031 190.722656 132.730469 C 189.789062 132.585938 188.871094 132.746094 187.96875 133.207031 C 186.738281 133.835938 186.117188 134.695312 186.109375 135.792969 C 186.101562 136.714844 186.46875 137.625 187.203125 138.519531 C 187.800781 139.246094 188.523438 139.820312 189.371094 140.238281 C 190.21875 140.65625 191.046875 140.855469 191.851562 140.839844 C 192.65625 140.824219 193.363281 140.660156 193.972656 140.351562 C 194.328125 140.167969 194.640625 139.957031 194.914062 139.714844 C 195.191406 139.476562 195.425781 139.207031 195.617188 138.910156 L 193.8125 136.707031 C 193.496094 136.324219 193.253906 136.09375 193.085938 136.011719 C 192.914062 135.929688 192.726562 135.898438 192.523438 135.917969 C 192.316406 135.933594 192.019531 136.042969 191.628906 136.242188 L 191.457031 136.027344 L 195.195312 134.117188 L 195.367188 134.328125 L 195.191406 134.421875 C 194.820312 134.609375 194.648438 134.835938 194.667969 135.101562 C 194.6875 135.289062 194.863281 135.585938 195.199219 135.996094 L 197.113281 138.328125 C 196.757812 138.839844 196.359375 139.285156 195.917969 139.667969 C 195.472656 140.046875 194.929688 140.402344 194.277344 140.738281 C 192.410156 141.691406 190.609375 141.941406 188.863281 141.492188 C 187.558594 141.15625 186.523438 140.527344 185.765625 139.601562 C 185.214844 138.929688 184.890625 138.183594 184.792969 137.359375 C 184.679688 136.378906 184.882812 135.476562 185.40625 134.652344 C 185.84375 133.964844 186.546875 133.375 187.511719 132.882812 C 187.859375 132.703125 188.199219 132.5625 188.523438 132.460938 C 188.847656 132.355469 189.335938 132.25 189.988281 132.132812 C 190.320312 132.074219 190.53125 132.023438 190.621094 131.976562 C 190.710938 131.929688 190.761719 131.859375 190.769531 131.761719 C 190.78125 131.664062 190.714844 131.515625 190.570312 131.316406 Z M 209.566406 132.207031 L 205.261719 133.109375 L 204.976562 134.652344 C 204.90625 135.03125 204.898438 135.304688 204.953125 135.476562 C 205 135.609375 205.121094 135.710938 205.316406 135.777344 C 205.511719 135.84375 205.882812 135.835938 206.425781 135.753906 L 206.507812 135.996094 L 203.007812 136.730469 L 202.925781 136.488281 C 203.367188 136.328125 203.640625 136.179688 203.742188 136.046875 C 203.953125 135.78125 204.117188 135.296875 204.242188 134.589844 L 205.722656 126.546875 L 206.007812 126.484375 L 212.339844 132.976562 C 212.847656 133.496094 213.257812 133.816406 213.570312 133.9375 C 213.882812 134.0625 214.273438 134.085938 214.734375 134.011719 L 214.8125 134.25 L 210.425781 135.171875 L 210.347656 134.933594 C 210.78125 134.820312 211.0625 134.699219 211.183594 134.570312 C 211.308594 134.4375 211.34375 134.300781 211.296875 134.15625 C 211.234375 133.96875 211.023438 133.691406 210.664062 133.324219 L 209.566406 132.203125 Z M 209.175781 131.773438 L 206.097656 128.621094 L 205.355469 132.578125 Z M 229.488281 131.726562 L 229.765625 131.78125 L 228.660156 134.214844 L 219.757812 133.941406 L 219.773438 133.695312 L 220.203125 133.707031 C 220.691406 133.722656 221.042969 133.609375 221.265625 133.363281 C 221.390625 133.226562 221.464844 132.898438 221.492188 132.378906 L 221.78125 126.523438 C 221.808594 125.957031 221.746094 125.601562 221.597656 125.453125 C 221.386719 125.25 221.0625 125.140625 220.628906 125.128906 L 220.195312 125.113281 L 220.207031 124.867188 L 225.414062 125.027344 L 225.398438 125.273438 C 224.789062 125.25 224.359375 125.28125 224.109375 125.367188 C 223.859375 125.453125 223.683594 125.566406 223.585938 125.707031 C 223.488281 125.847656 223.425781 126.1875 223.402344 126.726562 L 223.121094 132.429688 C 223.101562 132.800781 223.132812 133.054688 223.21875 133.195312 C 223.28125 133.292969 223.382812 133.363281 223.523438 133.414062 C 223.660156 133.464844 224.101562 133.5 224.839844 133.523438 L 225.679688 133.546875 C 226.5625 133.574219 227.183594 133.542969 227.542969 133.449219 C 227.90625 133.359375 228.238281 133.1875 228.546875 132.933594 C 228.851562 132.683594 229.167969 132.28125 229.488281 131.726562 Z M 244.808594 134.964844 L 245.054688 135.078125 L 243.140625 137.175781 L 234.683594 134.964844 L 234.78125 134.730469 L 235.191406 134.839844 C 235.65625 134.957031 236.035156 134.925781 236.332031 134.742188 C 236.503906 134.632812 236.691406 134.335938 236.894531 133.84375 L 239.226562 128.277344 C 239.453125 127.742188 239.519531 127.382812 239.425781 127.210938 C 239.292969 126.96875 239.019531 126.792969 238.609375 126.683594 L 238.195312 126.578125 L 238.296875 126.34375 L 243.242188 127.632812 L 243.144531 127.871094 C 242.566406 127.714844 242.140625 127.648438 241.871094 127.679688 C 241.597656 127.707031 241.390625 127.777344 241.25 127.890625 C 241.105469 128.003906 240.925781 128.316406 240.710938 128.828125 L 238.441406 134.246094 C 238.296875 134.597656 238.238281 134.851562 238.269531 135.007812 C 238.296875 135.113281 238.367188 135.203125 238.484375 135.28125 C 238.601562 135.359375 239.011719 135.488281 239.714844 135.671875 L 240.511719 135.878906 C 241.347656 136.097656 241.957031 136.203125 242.335938 136.195312 C 242.714844 136.1875 243.097656 136.09375 243.480469 135.917969 C 243.863281 135.742188 244.304688 135.425781 244.808594 134.964844 Z M 257.15625 140.125 L 253.519531 138.09375 L 251.835938 138.910156 C 251.417969 139.109375 251.148438 139.28125 251.019531 139.421875 C 250.917969 139.535156 250.898438 139.671875 250.957031 139.835938 C 251.015625 139.996094 251.261719 140.214844 251.691406 140.496094 L 251.511719 140.695312 L 248.554688 139.042969 L 248.734375 138.84375 C 249.175781 139.007812 249.492188 139.078125 249.6875 139.054688 C 250.078125 139.011719 250.660156 138.800781 251.425781 138.425781 L 260.199219 134.171875 L 260.441406 134.304688 L 258.179688 142.296875 C 258 142.941406 257.949219 143.398438 258.03125 143.664062 C 258.113281 143.933594 258.339844 144.183594 258.707031 144.414062 L 258.523438 144.617188 L 254.820312 142.546875 L 255 142.34375 C 255.386719 142.539062 255.683594 142.628906 255.890625 142.621094 C 256.097656 142.609375 256.257812 142.542969 256.363281 142.425781 C 256.507812 142.265625 256.640625 141.957031 256.769531 141.507812 Z M 257.324219 139.613281 L 258.417969 135.726562 L 254.097656 137.808594 Z M 270.96875 141.597656 L 272.828125 143.578125 L 270.085938 152.09375 L 275.414062 148.976562 C 275.980469 148.644531 276.289062 148.386719 276.335938 148.203125 C 276.402344 147.960938 276.300781 147.695312 276.03125 147.40625 L 275.792969 147.152344 L 276.046875 147.007812 L 278.429688 149.546875 L 278.179688 149.691406 L 277.9375 149.433594 C 277.644531 149.125 277.324219 148.976562 276.964844 148.984375 C 276.746094 148.992188 276.375 149.148438 275.859375 149.449219 L 268.066406 154.007812 L 267.886719 153.816406 L 270.8125 144.648438 L 265.121094 147.980469 C 264.554688 148.3125 264.246094 148.566406 264.195312 148.746094 C 264.132812 148.996094 264.234375 149.261719 264.5 149.542969 L 264.742188 149.800781 L 264.488281 149.949219 L 262.105469 147.410156 L 262.355469 147.261719 L 262.59375 147.515625 C 262.886719 147.828125 263.214844 147.980469 263.570312 147.96875 C 263.789062 147.964844 264.160156 147.808594 264.675781 147.507812 L 271.105469 143.746094 C 271.21875 143.351562 271.273438 143.066406 271.273438 142.898438 C 271.269531 142.730469 271.210938 142.515625 271.097656 142.253906 C 271.042969 142.128906 270.914062 141.957031 270.714844 141.746094 Z M 285.472656 162.703125 L 282.972656 163.507812 L 282.867188 163.265625 C 283.292969 163.097656 283.585938 162.941406 283.742188 162.808594 C 283.992188 162.59375 284.140625 162.355469 284.191406 162.097656 C 284.242188 161.839844 284.1875 161.535156 284.027344 161.179688 L 283.488281 159.976562 L 275.199219 162.289062 C 274.535156 162.476562 274.144531 162.648438 274.03125 162.808594 C 273.878906 163.03125 273.875 163.308594 274.027344 163.640625 L 274.15625 163.9375 L 273.863281 164.019531 L 272.234375 160.390625 L 272.53125 160.308594 L 272.667969 160.609375 C 272.828125 160.972656 273.082031 161.191406 273.429688 161.265625 C 273.640625 161.308594 274.050781 161.246094 274.65625 161.078125 L 282.945312 158.761719 L 282.484375 157.734375 C 282.304688 157.332031 282.140625 157.058594 281.988281 156.910156 C 281.789062 156.722656 281.511719 156.589844 281.152344 156.511719 C 280.796875 156.4375 280.363281 156.453125 279.859375 156.5625 L 279.753906 156.320312 L 282.34375 155.710938 L 285.476562 162.703125 Z M 276.367188 178.8125 L 276.207031 176.390625 L 281.378906 173.101562 C 281.351562 172.871094 281.332031 172.6875 281.324219 172.546875 C 281.320312 172.488281 281.316406 172.425781 281.316406 172.359375 C 281.3125 172.289062 281.3125 172.222656 281.316406 172.148438 L 277.976562 172.285156 C 277.253906 172.316406 276.808594 172.398438 276.640625 172.53125 C 276.40625 172.710938 276.296875 172.96875 276.320312 173.308594 L 276.34375 173.660156 L 276.027344 173.675781 L 275.773438 169.789062 L 276.085938 169.777344 L 276.109375 170.117188 C 276.132812 170.5 276.308594 170.769531 276.636719 170.921875 C 276.820312 171.007812 277.238281 171.035156 277.890625 171.007812 L 285.316406 170.703125 C 286.039062 170.675781 286.484375 170.59375 286.648438 170.460938 C 286.886719 170.277344 286.992188 170.015625 286.972656 169.671875 L 286.949219 169.328125 L 287.261719 169.316406 L 287.480469 172.621094 C 287.542969 173.585938 287.5 174.296875 287.351562 174.761719 C 287.207031 175.226562 286.902344 175.628906 286.445312 175.964844 C 285.992188 176.304688 285.433594 176.488281 284.769531 176.515625 C 284.066406 176.542969 283.441406 176.386719 282.898438 176.046875 C 282.351562 175.703125 281.949219 175.15625 281.683594 174.402344 L 278.511719 176.410156 C 277.78125 176.867188 277.304688 177.257812 277.074219 177.574219 C 276.847656 177.894531 276.714844 178.300781 276.679688 178.796875 Z M 281.847656 172.128906 C 281.855469 172.210938 281.855469 172.285156 281.859375 172.347656 C 281.859375 172.410156 281.863281 172.464844 281.867188 172.503906 C 281.921875 173.367188 282.203125 174.011719 282.707031 174.429688 C 283.210938 174.851562 283.828125 175.046875 284.5625 175.015625 C 285.28125 174.984375 285.851562 174.785156 286.277344 174.410156 C 286.703125 174.039062 286.898438 173.558594 286.859375 172.976562 C 286.839844 172.71875 286.765625 172.367188 286.628906 171.933594 Z M 285.003906 190.8125 L 283.984375 193.875 L 283.679688 193.8125 L 283.738281 193.644531 C 283.773438 193.53125 283.765625 193.355469 283.710938 193.113281 C 283.65625 192.871094 283.542969 192.636719 283.367188 192.410156 C 283.191406 192.1875 282.878906 191.886719 282.433594 191.519531 L 278.914062 188.523438 L 276.121094 187.949219 C 275.4375 187.804688 274.992188 187.777344 274.78125 187.863281 C 274.496094 187.980469 274.296875 188.214844 274.179688 188.570312 L 274.085938 188.855469 L 273.78125 188.792969 L 275.019531 185.058594 L 275.324219 185.121094 L 275.222656 185.433594 C 275.097656 185.804688 275.152344 186.097656 275.386719 186.3125 C 275.527344 186.445312 275.910156 186.574219 276.535156 186.703125 L 279.171875 187.25 L 284.632812 185.804688 C 285.273438 185.632812 285.679688 185.511719 285.851562 185.4375 C 286.019531 185.363281 286.253906 185.1875 286.554688 184.90625 C 286.636719 184.832031 286.707031 184.710938 286.761719 184.546875 L 287.0625 184.613281 L 285.816406 188.371094 L 285.511719 188.304688 L 285.574219 188.113281 C 285.644531 187.910156 285.644531 187.710938 285.582031 187.515625 C 285.519531 187.320312 285.367188 187.195312 285.125 187.144531 C 284.929688 187.105469 284.527344 187.164062 283.925781 187.320312 L 279.730469 188.410156 L 282.589844 190.84375 C 283.015625 191.210938 283.355469 191.417969 283.609375 191.472656 C 283.761719 191.503906 283.910156 191.5 284.050781 191.464844 C 284.191406 191.425781 284.316406 191.355469 284.421875 191.253906 C 284.53125 191.148438 284.621094 190.984375 284.699219 190.75 Z M 285.003906 190.8125 "/>
</g>
</svg>
